<?xml version="1.0" encoding="UTF-8" standalone="no"?>
<!DOCTYPE svg PUBLIC "-//W3C//DTD SVG 1.1//EN"
 "http://www.w3.org/Graphics/SVG/1.1/DTD/svg11.dtd">
<!-- Generated by graphviz version 2.47.0 (20210316.0004)
 -->
<!-- Pages: 1 -->
<svg width="376pt" height="164pt"
 viewBox="0.00 0.00 376.38 164.47" xmlns="http://www.w3.org/2000/svg" xmlns:xlink="http://www.w3.org/1999/xlink">
<g id="graph0" class="graph" transform="scale(1 1) rotate(0) translate(4 160.47)">
<polygon fill="white" stroke="transparent" points="-4,4 -4,-160.47 372.38,-160.47 372.38,4 -4,4"/>
<!-- &#45;1 -->
<g id="node1" class="node">
<title>&#45;1</title>
<polygon fill="lightgray" stroke="black" points="24,-93.08 0,-93.08 0,-75.08 24,-75.08 24,-93.08"/>
<text text-anchor="middle" x="12" y="-81.88" font-family="Times New Roman,serif" font-size="9.00">&#45;1</text>
</g>
<!-- 0 -->
<g id="node9" class="node">
<title>0</title>
<ellipse fill="lightblue" stroke="black" cx="138" cy="-14.85" rx="14.7" ry="14.7"/>
<text text-anchor="middle" x="138" y="-12.65" font-family="Times New Roman,serif" font-size="9.00">0</text>
</g>
<!-- &#45;1&#45;&gt;0 -->
<g id="edge1" class="edge">
<title>&#45;1&#45;&gt;0</title>
<path fill="none" stroke="red" stroke-width="0.19" d="M21.03,-74.77C24.6,-71.71 28.85,-68.34 33,-65.7 59.59,-48.75 92.84,-33.92 114.71,-24.94"/>
<polygon fill="red" stroke="red" stroke-width="0.19" points="116.21,-28.11 124.18,-21.12 113.59,-21.62 116.21,-28.11"/>
</g>
<!-- &#45;2 -->
<g id="node2" class="node">
<title>&#45;2</title>
<polygon fill="lightgray" stroke="black" points="339,-156.47 315,-156.47 315,-138.47 339,-138.47 339,-156.47"/>
<text text-anchor="middle" x="327" y="-145.27" font-family="Times New Roman,serif" font-size="9.00">&#45;2</text>
</g>
<!-- 1 -->
<g id="node10" class="node">
<title>1</title>
<ellipse fill="lightblue" stroke="black" cx="204" cy="-14.85" rx="14.7" ry="14.7"/>
<text text-anchor="middle" x="204" y="-12.65" font-family="Times New Roman,serif" font-size="9.00">1</text>
</g>
<!-- &#45;2&#45;&gt;1 -->
<g id="edge2" class="edge">
<title>&#45;2&#45;&gt;1</title>
<path fill="none" stroke="green" stroke-width="0.16" stroke-dasharray="1,5" d="M324.31,-138.01C318.96,-122.24 305.67,-87.92 285,-65.7 268.64,-48.11 244.72,-34.42 227.12,-25.87"/>
<polygon fill="green" stroke="green" stroke-width="0.16" points="228.13,-22.48 217.58,-21.44 225.18,-28.83 228.13,-22.48"/>
</g>
<!-- 33 -->
<g id="node11" class="node">
<title>33</title>
<ellipse fill="white" stroke="black" cx="350" cy="-84.08" rx="18.27" ry="18.27"/>
<text text-anchor="middle" x="350" y="-81.88" font-family="Times New Roman,serif" font-size="9.00">33</text>
</g>
<!-- &#45;2&#45;&gt;33 -->
<g id="edge15" class="edge">
<title>&#45;2&#45;&gt;33</title>
<path fill="none" stroke="green" stroke-width="0.3" d="M330.01,-138.44C332.62,-131.47 336.55,-120.98 340.24,-111.13"/>
<polygon fill="green" stroke="green" stroke-width="0.3" points="343.56,-112.25 343.79,-101.66 337,-109.8 343.56,-112.25"/>
</g>
<!-- &#45;3 -->
<g id="node3" class="node">
<title>&#45;3</title>
<polygon fill="lightgray" stroke="black" points="192,-93.08 168,-93.08 168,-75.08 192,-75.08 192,-93.08"/>
<text text-anchor="middle" x="180" y="-81.88" font-family="Times New Roman,serif" font-size="9.00">&#45;3</text>
</g>
<!-- &#45;3&#45;&gt;0 -->
<g id="edge3" class="edge">
<title>&#45;3&#45;&gt;0</title>
<path fill="none" stroke="red" stroke-width="0.37" d="M174.85,-74.84C168.93,-65.36 158.98,-49.44 150.92,-36.53"/>
<polygon fill="red" stroke="red" stroke-width="0.37" points="153.73,-34.42 145.46,-27.79 147.79,-38.13 153.73,-34.42"/>
</g>
<!-- &#45;3&#45;&gt;1 -->
<g id="edge4" class="edge">
<title>&#45;3&#45;&gt;1</title>
<path fill="none" stroke="green" stroke-width="0.23" d="M182.94,-74.84C186.13,-65.91 191.36,-51.27 195.81,-38.8"/>
<polygon fill="green" stroke="green" stroke-width="0.23" points="199.23,-39.62 199.3,-29.02 192.64,-37.26 199.23,-39.62"/>
</g>
<!-- &#45;4 -->
<g id="node4" class="node">
<title>&#45;4</title>
<polygon fill="lightgray" stroke="black" points="234,-93.08 210,-93.08 210,-75.08 234,-75.08 234,-93.08"/>
<text text-anchor="middle" x="222" y="-81.88" font-family="Times New Roman,serif" font-size="9.00">&#45;4</text>
</g>
<!-- &#45;4&#45;&gt;0 -->
<g id="edge5" class="edge">
<title>&#45;4&#45;&gt;0</title>
<path fill="none" stroke="green" stroke-width="0.45" d="M212.21,-74.9C208.69,-71.98 204.68,-68.68 201,-65.7 186.38,-53.86 169.68,-40.66 157.14,-30.82"/>
<polygon fill="green" stroke="green" stroke-width="0.45" points="159.24,-28.02 149.21,-24.6 154.92,-33.52 159.24,-28.02"/>
</g>
<!-- &#45;4&#45;&gt;1 -->
<g id="edge6" class="edge">
<title>&#45;4&#45;&gt;1</title>
<path fill="none" stroke="green" stroke-width="0.45" d="M219.79,-74.84C217.42,-65.96 213.53,-51.45 210.21,-39.03"/>
<polygon fill="green" stroke="green" stroke-width="0.45" points="213.56,-38.03 207.59,-29.27 206.8,-39.84 213.56,-38.03"/>
</g>
<!-- &#45;5 -->
<g id="node5" class="node">
<title>&#45;5</title>
<polygon fill="lightgray" stroke="black" points="276,-93.08 252,-93.08 252,-75.08 276,-75.08 276,-93.08"/>
<text text-anchor="middle" x="264" y="-81.88" font-family="Times New Roman,serif" font-size="9.00">&#45;5</text>
</g>
<!-- &#45;5&#45;&gt;0 -->
<g id="edge7" class="edge">
<title>&#45;5&#45;&gt;0</title>
<path fill="none" stroke="green" stroke-width="0.29" d="M254.97,-74.77C251.4,-71.71 247.15,-68.34 243,-65.7 216.41,-48.75 183.16,-33.92 161.29,-24.94"/>
<polygon fill="green" stroke="green" stroke-width="0.29" points="162.41,-21.62 151.82,-21.12 159.79,-28.11 162.41,-21.62"/>
</g>
<!-- &#45;5&#45;&gt;1 -->
<g id="edge8" class="edge">
<title>&#45;5&#45;&gt;1</title>
<path fill="none" stroke="red" stroke-width="0.12" stroke-dasharray="1,5" d="M256.64,-74.84C247.62,-64.73 232.08,-47.32 220.21,-34.02"/>
<polygon fill="red" stroke="red" stroke-width="0.12" points="222.66,-31.5 213.39,-26.37 217.44,-36.16 222.66,-31.5"/>
</g>
<!-- &#45;6 -->
<g id="node6" class="node">
<title>&#45;6</title>
<polygon fill="lightgray" stroke="black" points="66,-93.08 42,-93.08 42,-75.08 66,-75.08 66,-93.08"/>
<text text-anchor="middle" x="54" y="-81.88" font-family="Times New Roman,serif" font-size="9.00">&#45;6</text>
</g>
<!-- &#45;6&#45;&gt;0 -->
<g id="edge9" class="edge">
<title>&#45;6&#45;&gt;0</title>
<path fill="none" stroke="green" stroke-width="0.15" d="M63.79,-74.9C67.31,-71.98 71.32,-68.68 75,-65.7 89.62,-53.86 106.32,-40.66 118.86,-30.82"/>
<polygon fill="green" stroke="green" stroke-width="0.15" points="121.08,-33.52 126.79,-24.6 116.76,-28.02 121.08,-33.52"/>
</g>
<!-- &#45;6&#45;&gt;1 -->
<g id="edge10" class="edge">
<title>&#45;6&#45;&gt;1</title>
<path fill="none" stroke="red" stroke-width="0.35" d="M62.52,-74.96C66.16,-71.78 70.59,-68.28 75,-65.7 93.41,-54.91 148.45,-35.07 180.38,-23.95"/>
<polygon fill="red" stroke="red" stroke-width="0.35" points="181.55,-27.25 189.85,-20.67 179.26,-20.63 181.55,-27.25"/>
</g>
<!-- &#45;7 -->
<g id="node7" class="node">
<title>&#45;7</title>
<polygon fill="lightgray" stroke="black" points="108,-93.08 84,-93.08 84,-75.08 108,-75.08 108,-93.08"/>
<text text-anchor="middle" x="96" y="-81.88" font-family="Times New Roman,serif" font-size="9.00">&#45;7</text>
</g>
<!-- &#45;7&#45;&gt;0 -->
<g id="edge11" class="edge">
<title>&#45;7&#45;&gt;0</title>
<path fill="none" stroke="red" stroke-width="0.28" d="M101.15,-74.84C107.07,-65.36 117.02,-49.44 125.08,-36.53"/>
<polygon fill="red" stroke="red" stroke-width="0.28" points="128.21,-38.13 130.54,-27.79 122.27,-34.42 128.21,-38.13"/>
</g>
<!-- &#45;7&#45;&gt;1 -->
<g id="edge12" class="edge">
<title>&#45;7&#45;&gt;1</title>
<path fill="none" stroke="red" stroke-width="0.49" d="M105.14,-74.94C108.73,-71.9 112.95,-68.5 117,-65.7 138.13,-51.06 163.83,-36.72 181.79,-27.21"/>
<polygon fill="red" stroke="red" stroke-width="0.49" points="183.66,-30.19 190.9,-22.45 180.42,-23.98 183.66,-30.19"/>
</g>
<!-- &#45;8 -->
<g id="node8" class="node">
<title>&#45;8</title>
<polygon fill="lightgray" stroke="black" points="150,-93.08 126,-93.08 126,-75.08 150,-75.08 150,-93.08"/>
<text text-anchor="middle" x="138" y="-81.88" font-family="Times New Roman,serif" font-size="9.00">&#45;8</text>
</g>
<!-- &#45;8&#45;&gt;0 -->
<g id="edge13" class="edge">
<title>&#45;8&#45;&gt;0</title>
<path fill="none" stroke="green" stroke-width="0.29" d="M138,-74.84C138,-66.16 138,-52.09 138,-39.86"/>
<polygon fill="green" stroke="green" stroke-width="0.29" points="141.5,-39.78 138,-29.78 134.5,-39.78 141.5,-39.78"/>
</g>
<!-- &#45;8&#45;&gt;1 -->
<g id="edge14" class="edge">
<title>&#45;8&#45;&gt;1</title>
<path fill="none" stroke="red" stroke-width="0.12" d="M146.09,-74.84C156.11,-64.64 173.43,-46.99 186.53,-33.64"/>
<polygon fill="red" stroke="red" stroke-width="0.12" points="189.16,-35.96 193.67,-26.37 184.17,-31.06 189.16,-35.96"/>
</g>
<!-- 33&#45;&gt;1 -->
<g id="edge16" class="edge">
<title>33&#45;&gt;1</title>
<path fill="none" stroke="green" stroke-width="0.48" d="M334.19,-74.15C329.07,-71.35 323.34,-68.31 318,-65.7 286.9,-50.48 250.05,-34.78 226.85,-25.16"/>
<polygon fill="green" stroke="green" stroke-width="0.48" points="228.09,-21.89 217.51,-21.32 225.42,-28.36 228.09,-21.89"/>
</g>
</g>
</svg>
