<?xml version="1.0" encoding="UTF-8" standalone="no"?>
<!DOCTYPE svg PUBLIC "-//W3C//DTD SVG 1.1//EN"
 "http://www.w3.org/Graphics/SVG/1.1/DTD/svg11.dtd">
<!-- Generated by graphviz version 2.47.0 (20210316.0004)
 -->
<!-- Pages: 1 -->
<svg width="355pt" height="164pt"
 viewBox="0.00 0.00 355.42 164.47" xmlns="http://www.w3.org/2000/svg" xmlns:xlink="http://www.w3.org/1999/xlink">
<g id="graph0" class="graph" transform="scale(1 1) rotate(0) translate(4 160.47)">
<polygon fill="white" stroke="transparent" points="-4,4 -4,-160.47 351.42,-160.47 351.42,4 -4,4"/>
<!-- &#45;1 -->
<g id="node1" class="node">
<title>&#45;1</title>
<polygon fill="lightgray" stroke="black" points="24.42,-156.47 0.42,-156.47 0.42,-138.47 24.42,-138.47 24.42,-156.47"/>
<text text-anchor="middle" x="12.42" y="-145.27" font-family="Times New Roman,serif" font-size="9.00">&#45;1</text>
</g>
<!-- 0 -->
<g id="node9" class="node">
<title>0</title>
<ellipse fill="lightblue" stroke="black" cx="143.42" cy="-14.85" rx="14.7" ry="14.7"/>
<text text-anchor="middle" x="143.42" y="-12.65" font-family="Times New Roman,serif" font-size="9.00">0</text>
</g>
<!-- &#45;1&#45;&gt;0 -->
<g id="edge1" class="edge">
<title>&#45;1&#45;&gt;0</title>
<path fill="none" stroke="red" stroke-width="0.13" stroke-dasharray="1,5" d="M8.9,-137.99C2.96,-122.19 -6.99,-87.82 8.42,-65.7 33.2,-30.12 86.42,-19.87 118.13,-16.96"/>
<polygon fill="red" stroke="red" stroke-width="0.13" points="118.66,-20.43 128.37,-16.21 118.14,-13.45 118.66,-20.43"/>
</g>
<!-- 43 -->
<g id="node11" class="node">
<title>43</title>
<ellipse fill="white" stroke="black" cx="35.42" cy="-84.08" rx="18.27" ry="18.27"/>
<text text-anchor="middle" x="35.42" y="-81.88" font-family="Times New Roman,serif" font-size="9.00">43</text>
</g>
<!-- &#45;1&#45;&gt;43 -->
<g id="edge15" class="edge">
<title>&#45;1&#45;&gt;43</title>
<path fill="none" stroke="green" stroke-width="0.28" d="M15.42,-138.44C18.03,-131.47 21.97,-120.98 25.66,-111.13"/>
<polygon fill="green" stroke="green" stroke-width="0.28" points="28.97,-112.25 29.2,-101.66 22.42,-109.8 28.97,-112.25"/>
</g>
<!-- &#45;2 -->
<g id="node2" class="node">
<title>&#45;2</title>
<polygon fill="lightgray" stroke="black" points="347.42,-93.08 323.42,-93.08 323.42,-75.08 347.42,-75.08 347.42,-93.08"/>
<text text-anchor="middle" x="335.42" y="-81.88" font-family="Times New Roman,serif" font-size="9.00">&#45;2</text>
</g>
<!-- 1 -->
<g id="node10" class="node">
<title>1</title>
<ellipse fill="lightblue" stroke="black" cx="209.42" cy="-14.85" rx="14.7" ry="14.7"/>
<text text-anchor="middle" x="209.42" y="-12.65" font-family="Times New Roman,serif" font-size="9.00">1</text>
</g>
<!-- &#45;2&#45;&gt;1 -->
<g id="edge2" class="edge">
<title>&#45;2&#45;&gt;1</title>
<path fill="none" stroke="green" stroke-width="0.45" d="M326.39,-74.77C322.81,-71.71 318.57,-68.34 314.42,-65.7 287.83,-48.75 254.58,-33.92 232.71,-24.94"/>
<polygon fill="green" stroke="green" stroke-width="0.45" points="233.82,-21.62 223.24,-21.12 231.21,-28.11 233.82,-21.62"/>
</g>
<!-- &#45;3 -->
<g id="node3" class="node">
<title>&#45;3</title>
<polygon fill="lightgray" stroke="black" points="221.42,-93.08 197.42,-93.08 197.42,-75.08 221.42,-75.08 221.42,-93.08"/>
<text text-anchor="middle" x="209.42" y="-81.88" font-family="Times New Roman,serif" font-size="9.00">&#45;3</text>
</g>
<!-- &#45;3&#45;&gt;0 -->
<g id="edge3" class="edge">
<title>&#45;3&#45;&gt;0</title>
<path fill="none" stroke="red" stroke-width="0.35" d="M201.32,-74.84C191.31,-64.64 173.98,-46.99 160.88,-33.64"/>
<polygon fill="red" stroke="red" stroke-width="0.35" points="163.25,-31.06 153.75,-26.37 158.25,-35.96 163.25,-31.06"/>
</g>
<!-- &#45;3&#45;&gt;1 -->
<g id="edge4" class="edge">
<title>&#45;3&#45;&gt;1</title>
<path fill="none" stroke="green" stroke-width="0.11" d="M209.42,-74.84C209.42,-66.16 209.42,-52.09 209.42,-39.86"/>
<polygon fill="green" stroke="green" stroke-width="0.11" points="212.92,-39.78 209.42,-29.78 205.92,-39.78 212.92,-39.78"/>
</g>
<!-- &#45;4 -->
<g id="node4" class="node">
<title>&#45;4</title>
<polygon fill="lightgray" stroke="black" points="263.42,-93.08 239.42,-93.08 239.42,-75.08 263.42,-75.08 263.42,-93.08"/>
<text text-anchor="middle" x="251.42" y="-81.88" font-family="Times New Roman,serif" font-size="9.00">&#45;4</text>
</g>
<!-- &#45;4&#45;&gt;0 -->
<g id="edge5" class="edge">
<title>&#45;4&#45;&gt;0</title>
<path fill="none" stroke="green" stroke-width="0.46" d="M242.28,-74.94C238.69,-71.9 234.46,-68.5 230.42,-65.7 209.29,-51.06 183.59,-36.72 165.62,-27.21"/>
<polygon fill="green" stroke="green" stroke-width="0.46" points="167,-23.98 156.51,-22.45 163.76,-30.19 167,-23.98"/>
</g>
<!-- &#45;4&#45;&gt;1 -->
<g id="edge6" class="edge">
<title>&#45;4&#45;&gt;1</title>
<path fill="none" stroke="green" stroke-width="0.45" d="M246.27,-74.84C240.34,-65.36 230.4,-49.44 222.33,-36.53"/>
<polygon fill="green" stroke="green" stroke-width="0.45" points="225.14,-34.42 216.88,-27.79 219.21,-38.13 225.14,-34.42"/>
</g>
<!-- &#45;5 -->
<g id="node5" class="node">
<title>&#45;5</title>
<polygon fill="lightgray" stroke="black" points="305.42,-93.08 281.42,-93.08 281.42,-75.08 305.42,-75.08 305.42,-93.08"/>
<text text-anchor="middle" x="293.42" y="-81.88" font-family="Times New Roman,serif" font-size="9.00">&#45;5</text>
</g>
<!-- &#45;5&#45;&gt;0 -->
<g id="edge7" class="edge">
<title>&#45;5&#45;&gt;0</title>
<path fill="none" stroke="red" stroke-width="0.21" d="M284.9,-74.96C281.25,-71.78 276.83,-68.28 272.42,-65.7 254.01,-54.91 198.96,-35.07 167.04,-23.95"/>
<polygon fill="red" stroke="red" stroke-width="0.21" points="168.16,-20.63 157.56,-20.67 165.87,-27.25 168.16,-20.63"/>
</g>
<!-- &#45;5&#45;&gt;1 -->
<g id="edge8" class="edge">
<title>&#45;5&#45;&gt;1</title>
<path fill="none" stroke="red" stroke-width="0.12" stroke-dasharray="1,5" d="M283.62,-74.9C280.1,-71.98 276.1,-68.68 272.42,-65.7 257.79,-53.86 241.09,-40.66 228.56,-30.82"/>
<polygon fill="red" stroke="red" stroke-width="0.12" points="230.66,-28.02 220.63,-24.6 226.34,-33.52 230.66,-28.02"/>
</g>
<!-- &#45;6 -->
<g id="node6" class="node">
<title>&#45;6</title>
<polygon fill="lightgray" stroke="black" points="95.42,-93.08 71.42,-93.08 71.42,-75.08 95.42,-75.08 95.42,-93.08"/>
<text text-anchor="middle" x="83.42" y="-81.88" font-family="Times New Roman,serif" font-size="9.00">&#45;6</text>
</g>
<!-- &#45;6&#45;&gt;0 -->
<g id="edge9" class="edge">
<title>&#45;6&#45;&gt;0</title>
<path fill="none" stroke="red" stroke-width="0.13" d="M90.77,-74.84C99.79,-64.73 115.34,-47.32 127.2,-34.02"/>
<polygon fill="red" stroke="red" stroke-width="0.13" points="129.98,-36.16 134.02,-26.37 124.76,-31.5 129.98,-36.16"/>
</g>
<!-- &#45;6&#45;&gt;1 -->
<g id="edge10" class="edge">
<title>&#45;6&#45;&gt;1</title>
<path fill="none" stroke="red" stroke-width="0.26" d="M92.44,-74.77C96.02,-71.71 100.27,-68.34 104.42,-65.7 131.01,-48.75 164.25,-33.92 186.13,-24.94"/>
<polygon fill="red" stroke="red" stroke-width="0.26" points="187.62,-28.11 195.59,-21.12 185.01,-21.62 187.62,-28.11"/>
</g>
<!-- &#45;7 -->
<g id="node7" class="node">
<title>&#45;7</title>
<polygon fill="lightgray" stroke="black" points="137.42,-93.08 113.42,-93.08 113.42,-75.08 137.42,-75.08 137.42,-93.08"/>
<text text-anchor="middle" x="125.42" y="-81.88" font-family="Times New Roman,serif" font-size="9.00">&#45;7</text>
</g>
<!-- &#45;7&#45;&gt;0 -->
<g id="edge11" class="edge">
<title>&#45;7&#45;&gt;0</title>
<path fill="none" stroke="red" stroke-width="0.29" d="M127.62,-74.84C130,-65.96 133.89,-51.45 137.21,-39.03"/>
<polygon fill="red" stroke="red" stroke-width="0.29" points="140.62,-39.84 139.82,-29.27 133.86,-38.03 140.62,-39.84"/>
</g>
<!-- &#45;7&#45;&gt;1 -->
<g id="edge12" class="edge">
<title>&#45;7&#45;&gt;1</title>
<path fill="none" stroke="red" stroke-width="0.5" d="M135.21,-74.9C138.73,-71.98 142.74,-68.68 146.42,-65.7 161.04,-53.86 177.74,-40.66 190.27,-30.82"/>
<polygon fill="red" stroke="red" stroke-width="0.5" points="192.49,-33.52 198.2,-24.6 188.18,-28.02 192.49,-33.52"/>
</g>
<!-- &#45;8 -->
<g id="node8" class="node">
<title>&#45;8</title>
<polygon fill="lightgray" stroke="black" points="179.42,-93.08 155.42,-93.08 155.42,-75.08 179.42,-75.08 179.42,-93.08"/>
<text text-anchor="middle" x="167.42" y="-81.88" font-family="Times New Roman,serif" font-size="9.00">&#45;8</text>
</g>
<!-- &#45;8&#45;&gt;0 -->
<g id="edge13" class="edge">
<title>&#45;8&#45;&gt;0</title>
<path fill="none" stroke="red" stroke-width="0.36" d="M164.47,-74.84C161.29,-65.91 156.06,-51.27 151.61,-38.8"/>
<polygon fill="red" stroke="red" stroke-width="0.36" points="154.78,-37.26 148.12,-29.02 148.18,-39.62 154.78,-37.26"/>
</g>
<!-- &#45;8&#45;&gt;1 -->
<g id="edge14" class="edge">
<title>&#45;8&#45;&gt;1</title>
<path fill="none" stroke="red" stroke-width="0.14" d="M172.57,-74.84C178.49,-65.36 188.43,-49.44 196.5,-36.53"/>
<polygon fill="red" stroke="red" stroke-width="0.14" points="199.63,-38.13 201.96,-27.79 193.69,-34.42 199.63,-38.13"/>
</g>
<!-- 43&#45;&gt;0 -->
<g id="edge16" class="edge">
<title>43&#45;&gt;0</title>
<path fill="none" stroke="red" stroke-width="0.19" d="M50.52,-73.28C54.39,-70.79 58.55,-68.13 62.42,-65.7 82.62,-52.98 105.85,-38.72 122.23,-28.72"/>
<polygon fill="red" stroke="red" stroke-width="0.19" points="124.3,-31.56 131.02,-23.37 120.66,-25.59 124.3,-31.56"/>
</g>
</g>
</svg>
