<?xml version="1.0" encoding="UTF-8" standalone="no"?>
<!DOCTYPE svg PUBLIC "-//W3C//DTD SVG 1.1//EN"
 "http://www.w3.org/Graphics/SVG/1.1/DTD/svg11.dtd">
<!-- Generated by graphviz version 2.47.0 (20210316.0004)
 -->
<!-- Pages: 1 -->
<svg width="388pt" height="164pt"
 viewBox="0.00 0.00 388.08 164.47" xmlns="http://www.w3.org/2000/svg" xmlns:xlink="http://www.w3.org/1999/xlink">
<g id="graph0" class="graph" transform="scale(1 1) rotate(0) translate(4 160.47)">
<polygon fill="white" stroke="transparent" points="-4,4 -4,-160.47 384.08,-160.47 384.08,4 -4,4"/>
<!-- &#45;1 -->
<g id="node1" class="node">
<title>&#45;1</title>
<polygon fill="lightgray" stroke="black" points="208.08,-93.08 184.08,-93.08 184.08,-75.08 208.08,-75.08 208.08,-93.08"/>
<text text-anchor="middle" x="196.08" y="-81.88" font-family="Times New Roman,serif" font-size="9.00">&#45;1</text>
</g>
<!-- 0 -->
<g id="node9" class="node">
<title>0</title>
<ellipse fill="lightblue" stroke="black" cx="91.08" cy="-14.85" rx="14.7" ry="14.7"/>
<text text-anchor="middle" x="91.08" y="-12.65" font-family="Times New Roman,serif" font-size="9.00">0</text>
</g>
<!-- &#45;1&#45;&gt;0 -->
<g id="edge1" class="edge">
<title>&#45;1&#45;&gt;0</title>
<path fill="none" stroke="red" stroke-width="0.33" d="M186.92,-74.97C183.33,-71.93 179.11,-68.53 175.08,-65.7 154.72,-51.36 130.09,-37.08 112.78,-27.5"/>
<polygon fill="red" stroke="red" stroke-width="0.33" points="114.44,-24.42 103.99,-22.69 111.08,-30.56 114.44,-24.42"/>
</g>
<!-- 1 -->
<g id="node10" class="node">
<title>1</title>
<ellipse fill="lightblue" stroke="black" cx="196.08" cy="-14.85" rx="14.7" ry="14.7"/>
<text text-anchor="middle" x="196.08" y="-12.65" font-family="Times New Roman,serif" font-size="9.00">1</text>
</g>
<!-- &#45;1&#45;&gt;1 -->
<g id="edge2" class="edge">
<title>&#45;1&#45;&gt;1</title>
<path fill="none" stroke="red" stroke-width="0.33" d="M196.08,-74.84C196.08,-66.16 196.08,-52.09 196.08,-39.86"/>
<polygon fill="red" stroke="red" stroke-width="0.33" points="199.58,-39.78 196.08,-29.78 192.58,-39.78 199.58,-39.78"/>
</g>
<!-- &#45;2 -->
<g id="node2" class="node">
<title>&#45;2</title>
<polygon fill="lightgray" stroke="black" points="40.08,-93.08 16.08,-93.08 16.08,-75.08 40.08,-75.08 40.08,-93.08"/>
<text text-anchor="middle" x="28.08" y="-81.88" font-family="Times New Roman,serif" font-size="9.00">&#45;2</text>
</g>
<!-- &#45;2&#45;&gt;0 -->
<g id="edge3" class="edge">
<title>&#45;2&#45;&gt;0</title>
<path fill="none" stroke="green" stroke-width="0.4" d="M35.81,-74.84C45.27,-64.73 61.6,-47.32 74.06,-34.02"/>
<polygon fill="green" stroke="green" stroke-width="0.4" points="76.94,-36.06 81.22,-26.37 71.83,-31.28 76.94,-36.06"/>
</g>
<!-- &#45;2&#45;&gt;1 -->
<g id="edge4" class="edge">
<title>&#45;2&#45;&gt;1</title>
<path fill="none" stroke="green" stroke-width="0.35" d="M36.55,-74.87C40.18,-71.67 44.62,-68.19 49.08,-65.7 89.32,-43.23 141.39,-28.54 171.53,-21.26"/>
<polygon fill="green" stroke="green" stroke-width="0.35" points="172.64,-24.59 181.58,-18.91 171.05,-17.78 172.64,-24.59"/>
</g>
<!-- &#45;3 -->
<g id="node3" class="node">
<title>&#45;3</title>
<polygon fill="lightgray" stroke="black" points="248.08,-156.47 224.08,-156.47 224.08,-138.47 248.08,-138.47 248.08,-156.47"/>
<text text-anchor="middle" x="236.08" y="-145.27" font-family="Times New Roman,serif" font-size="9.00">&#45;3</text>
</g>
<!-- &#45;3&#45;&gt;0 -->
<g id="edge5" class="edge">
<title>&#45;3&#45;&gt;0</title>
<path fill="none" stroke="green" stroke-width="0.33" d="M224,-146.08C180.82,-144.44 35.12,-136.41 7.08,-102.47 -3.33,-89.87 -1.01,-79.9 7.08,-65.7 19.87,-43.24 47.21,-29.85 67.24,-22.69"/>
<polygon fill="green" stroke="green" stroke-width="0.33" points="68.52,-25.96 76.93,-19.51 66.34,-19.31 68.52,-25.96"/>
</g>
<!-- &#45;3&#45;&gt;1 -->
<g id="edge6" class="edge">
<title>&#45;3&#45;&gt;1</title>
<path fill="none" stroke="green" stroke-width="0.35" d="M234.63,-138.32C231.92,-123.61 225.56,-91.72 217.08,-65.7 214.07,-56.46 210.06,-46.54 206.35,-38"/>
<polygon fill="green" stroke="green" stroke-width="0.35" points="209.49,-36.44 202.22,-28.74 203.1,-39.3 209.49,-36.44"/>
</g>
<!-- 44 -->
<g id="node11" class="node">
<title>44</title>
<ellipse fill="white" stroke="black" cx="282.08" cy="-84.08" rx="18.27" ry="18.27"/>
<text text-anchor="middle" x="282.08" y="-81.88" font-family="Times New Roman,serif" font-size="9.00">44</text>
</g>
<!-- &#45;3&#45;&gt;44 -->
<g id="edge17" class="edge">
<title>&#45;3&#45;&gt;44</title>
<path fill="none" stroke="red" stroke-width="0.32" d="M242.09,-138.44C247.94,-130.65 257.08,-118.44 265.15,-107.67"/>
<polygon fill="red" stroke="red" stroke-width="0.32" points="268.11,-109.56 271.31,-99.46 262.51,-105.36 268.11,-109.56"/>
</g>
<!-- &#45;4 -->
<g id="node4" class="node">
<title>&#45;4</title>
<polygon fill="lightgray" stroke="black" points="82.08,-93.08 58.08,-93.08 58.08,-75.08 82.08,-75.08 82.08,-93.08"/>
<text text-anchor="middle" x="70.08" y="-81.88" font-family="Times New Roman,serif" font-size="9.00">&#45;4</text>
</g>
<!-- &#45;4&#45;&gt;0 -->
<g id="edge7" class="edge">
<title>&#45;4&#45;&gt;0</title>
<path fill="none" stroke="green" stroke-width="0.32" d="M72.66,-74.84C75.43,-65.96 79.96,-51.45 83.84,-39.03"/>
<polygon fill="green" stroke="green" stroke-width="0.32" points="87.25,-39.86 86.89,-29.27 80.57,-37.78 87.25,-39.86"/>
</g>
<!-- &#45;4&#45;&gt;1 -->
<g id="edge8" class="edge">
<title>&#45;4&#45;&gt;1</title>
<path fill="none" stroke="green" stroke-width="0.28" d="M79.11,-74.77C82.69,-71.71 86.93,-68.34 91.08,-65.7 117.67,-48.75 150.92,-33.92 172.79,-24.94"/>
<polygon fill="green" stroke="green" stroke-width="0.28" points="174.29,-28.11 182.26,-21.12 171.67,-21.62 174.29,-28.11"/>
</g>
<!-- &#45;5 -->
<g id="node5" class="node">
<title>&#45;5</title>
<polygon fill="lightgray" stroke="black" points="380.08,-93.08 356.08,-93.08 356.08,-75.08 380.08,-75.08 380.08,-93.08"/>
<text text-anchor="middle" x="368.08" y="-81.88" font-family="Times New Roman,serif" font-size="9.00">&#45;5</text>
</g>
<!-- &#45;5&#45;&gt;1 -->
<g id="edge9" class="edge">
<title>&#45;5&#45;&gt;1</title>
<path fill="none" stroke="green" stroke-width="0.12" d="M357.33,-74.98C352.79,-71.8 347.34,-68.3 342.08,-65.7 301.02,-45.4 249.67,-29.98 220.1,-21.97"/>
<polygon fill="green" stroke="green" stroke-width="0.12" points="220.81,-18.54 210.25,-19.36 219.02,-25.31 220.81,-18.54"/>
</g>
<!-- &#45;6 -->
<g id="node6" class="node">
<title>&#45;6</title>
<polygon fill="lightgray" stroke="black" points="124.08,-93.08 100.08,-93.08 100.08,-75.08 124.08,-75.08 124.08,-93.08"/>
<text text-anchor="middle" x="112.08" y="-81.88" font-family="Times New Roman,serif" font-size="9.00">&#45;6</text>
</g>
<!-- &#45;6&#45;&gt;0 -->
<g id="edge10" class="edge">
<title>&#45;6&#45;&gt;0</title>
<path fill="none" stroke="red" stroke-width="0.25" d="M109.51,-74.84C106.73,-65.96 102.2,-51.45 98.32,-39.03"/>
<polygon fill="red" stroke="red" stroke-width="0.25" points="101.6,-37.78 95.27,-29.27 94.91,-39.86 101.6,-37.78"/>
</g>
<!-- &#45;6&#45;&gt;1 -->
<g id="edge11" class="edge">
<title>&#45;6&#45;&gt;1</title>
<path fill="none" stroke="red" stroke-width="0.13" d="M121.87,-74.9C125.39,-71.98 129.4,-68.68 133.08,-65.7 147.7,-53.86 164.4,-40.66 176.94,-30.82"/>
<polygon fill="red" stroke="red" stroke-width="0.13" points="179.16,-33.52 184.87,-24.6 174.84,-28.02 179.16,-33.52"/>
</g>
<!-- &#45;7 -->
<g id="node7" class="node">
<title>&#45;7</title>
<polygon fill="lightgray" stroke="black" points="166.08,-93.08 142.08,-93.08 142.08,-75.08 166.08,-75.08 166.08,-93.08"/>
<text text-anchor="middle" x="154.08" y="-81.88" font-family="Times New Roman,serif" font-size="9.00">&#45;7</text>
</g>
<!-- &#45;7&#45;&gt;0 -->
<g id="edge12" class="edge">
<title>&#45;7&#45;&gt;0</title>
<path fill="none" stroke="green" stroke-width="0.16" d="M146.36,-74.84C136.89,-64.73 120.56,-47.32 108.1,-34.02"/>
<polygon fill="green" stroke="green" stroke-width="0.16" points="110.33,-31.28 100.94,-26.37 105.23,-36.06 110.33,-31.28"/>
</g>
<!-- &#45;7&#45;&gt;1 -->
<g id="edge13" class="edge">
<title>&#45;7&#45;&gt;1</title>
<path fill="none" stroke="red" stroke-width="0.25" d="M159.23,-74.84C165.15,-65.36 175.1,-49.44 183.16,-36.53"/>
<polygon fill="red" stroke="red" stroke-width="0.25" points="186.29,-38.13 188.62,-27.79 180.35,-34.42 186.29,-38.13"/>
</g>
<!-- &#45;8 -->
<g id="node8" class="node">
<title>&#45;8</title>
<polygon fill="lightgray" stroke="black" points="317.08,-156.47 293.08,-156.47 293.08,-138.47 317.08,-138.47 317.08,-156.47"/>
<text text-anchor="middle" x="305.08" y="-145.27" font-family="Times New Roman,serif" font-size="9.00">&#45;8</text>
</g>
<!-- &#45;8&#45;&gt;1 -->
<g id="edge14" class="edge">
<title>&#45;8&#45;&gt;1</title>
<path fill="none" stroke="red" stroke-width="0.64" stroke-dasharray="1,5" d="M308.47,-138.08C314.19,-122.42 323.8,-88.28 309.08,-65.7 289.73,-36.02 248.29,-23.88 221.33,-19.01"/>
<polygon fill="red" stroke="red" stroke-width="0.64" points="221.53,-15.5 211.1,-17.38 220.43,-22.41 221.53,-15.5"/>
</g>
<!-- &#45;8&#45;&gt;44 -->
<g id="edge15" class="edge">
<title>&#45;8&#45;&gt;44</title>
<path fill="none" stroke="green" stroke-width="0.22" d="M302.07,-138.44C299.46,-131.47 295.53,-120.98 291.84,-111.13"/>
<polygon fill="green" stroke="green" stroke-width="0.22" points="295.08,-109.8 288.29,-101.66 288.52,-112.25 295.08,-109.8"/>
</g>
<!-- 44&#45;&gt;1 -->
<g id="edge16" class="edge">
<title>44&#45;&gt;1</title>
<path fill="none" stroke="red" stroke-width="0.62" d="M267.88,-71.98C253.55,-60.78 231.32,-43.4 215.39,-30.95"/>
<polygon fill="red" stroke="red" stroke-width="0.62" points="217.32,-28.01 207.28,-24.61 213.01,-33.53 217.32,-28.01"/>
</g>
</g>
</svg>
