<?xml version="1.0" encoding="UTF-8" standalone="no"?>
<!DOCTYPE svg PUBLIC "-//W3C//DTD SVG 1.1//EN"
 "http://www.w3.org/Graphics/SVG/1.1/DTD/svg11.dtd">
<!-- Generated by graphviz version 2.47.0 (20210316.0004)
 -->
<!-- Pages: 1 -->
<svg width="533pt" height="164pt"
 viewBox="0.00 0.00 533.23 164.47" xmlns="http://www.w3.org/2000/svg" xmlns:xlink="http://www.w3.org/1999/xlink">
<g id="graph0" class="graph" transform="scale(1 1) rotate(0) translate(4 160.47)">
<polygon fill="white" stroke="transparent" points="-4,4 -4,-160.47 529.23,-160.47 529.23,4 -4,4"/>
<!-- &#45;1 -->
<g id="node1" class="node">
<title>&#45;1</title>
<polygon fill="lightgray" stroke="black" points="268.84,-93.08 244.84,-93.08 244.84,-75.08 268.84,-75.08 268.84,-93.08"/>
<text text-anchor="middle" x="256.84" y="-81.88" font-family="Times New Roman,serif" font-size="9.00">&#45;1</text>
</g>
<!-- 0 -->
<g id="node9" class="node">
<title>0</title>
<ellipse fill="lightblue" stroke="black" cx="176.84" cy="-14.85" rx="14.7" ry="14.7"/>
<text text-anchor="middle" x="176.84" y="-12.65" font-family="Times New Roman,serif" font-size="9.00">0</text>
</g>
<!-- &#45;1&#45;&gt;0 -->
<g id="edge1" class="edge">
<title>&#45;1&#45;&gt;0</title>
<path fill="none" stroke="green" stroke-width="0.15" d="M247.03,-74.84C234.24,-64.09 211.61,-45.06 195.5,-31.53"/>
<polygon fill="green" stroke="green" stroke-width="0.15" points="197.66,-28.78 187.76,-25.02 193.16,-34.14 197.66,-28.78"/>
</g>
<!-- 1 -->
<g id="node10" class="node">
<title>1</title>
<ellipse fill="lightblue" stroke="black" cx="380.84" cy="-14.85" rx="14.7" ry="14.7"/>
<text text-anchor="middle" x="380.84" y="-12.65" font-family="Times New Roman,serif" font-size="9.00">1</text>
</g>
<!-- &#45;1&#45;&gt;1 -->
<g id="edge2" class="edge">
<title>&#45;1&#45;&gt;1</title>
<path fill="none" stroke="red" stroke-width="0.4" d="M265.88,-74.79C269.46,-71.73 273.7,-68.36 277.84,-65.7 303.96,-48.92 336.57,-34.05 358.01,-25.01"/>
<polygon fill="red" stroke="red" stroke-width="0.4" points="359.39,-28.23 367.29,-21.17 356.71,-21.76 359.39,-28.23"/>
</g>
<!-- &#45;2 -->
<g id="node2" class="node">
<title>&#45;2</title>
<polygon fill="lightgray" stroke="black" points="432.84,-93.08 408.84,-93.08 408.84,-75.08 432.84,-75.08 432.84,-93.08"/>
<text text-anchor="middle" x="420.84" y="-81.88" font-family="Times New Roman,serif" font-size="9.00">&#45;2</text>
</g>
<!-- &#45;2&#45;&gt;1 -->
<g id="edge3" class="edge">
<title>&#45;2&#45;&gt;1</title>
<path fill="none" stroke="green" stroke-width="0.33" d="M415.94,-74.84C410.37,-65.47 401.05,-49.82 393.42,-36.99"/>
<polygon fill="green" stroke="green" stroke-width="0.33" points="396.36,-35.08 388.24,-28.28 390.34,-38.66 396.36,-35.08"/>
</g>
<!-- &#45;3 -->
<g id="node3" class="node">
<title>&#45;3</title>
<polygon fill="lightgray" stroke="black" points="310.84,-93.08 286.84,-93.08 286.84,-75.08 310.84,-75.08 310.84,-93.08"/>
<text text-anchor="middle" x="298.84" y="-81.88" font-family="Times New Roman,serif" font-size="9.00">&#45;3</text>
</g>
<!-- &#45;3&#45;&gt;0 -->
<g id="edge4" class="edge">
<title>&#45;3&#45;&gt;0</title>
<path fill="none" stroke="red" stroke-width="0.1" d="M289.79,-74.81C286.21,-71.75 281.97,-68.38 277.84,-65.7 252.46,-49.25 220.88,-34.48 199.85,-25.36"/>
<polygon fill="red" stroke="red" stroke-width="0.1" points="201.02,-22.06 190.45,-21.36 198.28,-28.5 201.02,-22.06"/>
</g>
<!-- &#45;3&#45;&gt;1 -->
<g id="edge5" class="edge">
<title>&#45;3&#45;&gt;1</title>
<path fill="none" stroke="green" stroke-width="0.37" d="M308.66,-74.93C312.18,-72.02 316.19,-68.71 319.84,-65.7 333.78,-54.23 349.56,-41.34 361.58,-31.54"/>
<polygon fill="green" stroke="green" stroke-width="0.37" points="364.04,-34.05 369.58,-25.02 359.62,-28.62 364.04,-34.05"/>
</g>
<!-- &#45;4 -->
<g id="node4" class="node">
<title>&#45;4</title>
<polygon fill="lightgray" stroke="black" points="188.84,-93.08 164.84,-93.08 164.84,-75.08 188.84,-75.08 188.84,-93.08"/>
<text text-anchor="middle" x="176.84" y="-81.88" font-family="Times New Roman,serif" font-size="9.00">&#45;4</text>
</g>
<!-- &#45;4&#45;&gt;0 -->
<g id="edge6" class="edge">
<title>&#45;4&#45;&gt;0</title>
<path fill="none" stroke="green" stroke-width="0.16" stroke-dasharray="1,5" d="M176.84,-74.84C176.84,-66.16 176.84,-52.09 176.84,-39.86"/>
<polygon fill="green" stroke="green" stroke-width="0.16" points="180.34,-39.78 176.84,-29.78 173.34,-39.78 180.34,-39.78"/>
</g>
<!-- &#45;5 -->
<g id="node5" class="node">
<title>&#45;5</title>
<polygon fill="lightgray" stroke="black" points="148.84,-156.47 124.84,-156.47 124.84,-138.47 148.84,-138.47 148.84,-156.47"/>
<text text-anchor="middle" x="136.84" y="-145.27" font-family="Times New Roman,serif" font-size="9.00">&#45;5</text>
</g>
<!-- &#45;5&#45;&gt;0 -->
<g id="edge7" class="edge">
<title>&#45;5&#45;&gt;0</title>
<path fill="none" stroke="red" stroke-width="0.34" d="M138.29,-138.32C141.01,-123.61 147.37,-91.72 155.84,-65.7 158.85,-56.46 162.86,-46.54 166.57,-38"/>
<polygon fill="red" stroke="red" stroke-width="0.34" points="169.82,-39.3 170.71,-28.74 163.43,-36.44 169.82,-39.3"/>
</g>
<!-- &#45;5&#45;&gt;1 -->
<g id="edge8" class="edge">
<title>&#45;5&#45;&gt;1</title>
<path fill="none" stroke="green" stroke-width="0.12" d="M149.06,-145.8C191.41,-143.23 331.03,-132.59 361.84,-102.47 378.3,-86.38 382.02,-59.54 382.26,-40"/>
<polygon fill="green" stroke="green" stroke-width="0.12" points="385.76,-39.68 382.08,-29.74 378.76,-39.8 385.76,-39.68"/>
</g>
<!-- 19 -->
<g id="node13" class="node">
<title>19</title>
<ellipse fill="white" stroke="black" cx="90.84" cy="-84.08" rx="18.27" ry="18.27"/>
<text text-anchor="middle" x="90.84" y="-81.88" font-family="Times New Roman,serif" font-size="9.00">19</text>
</g>
<!-- &#45;5&#45;&gt;19 -->
<g id="edge16" class="edge">
<title>&#45;5&#45;&gt;19</title>
<path fill="none" stroke="red" stroke-width="0.27" d="M130.83,-138.44C124.99,-130.65 115.84,-118.44 107.77,-107.67"/>
<polygon fill="red" stroke="red" stroke-width="0.27" points="110.41,-105.36 101.61,-99.46 104.81,-109.56 110.41,-105.36"/>
</g>
<!-- &#45;6 -->
<g id="node6" class="node">
<title>&#45;6</title>
<polygon fill="lightgray" stroke="black" points="472.84,-156.47 448.84,-156.47 448.84,-138.47 472.84,-138.47 472.84,-156.47"/>
<text text-anchor="middle" x="460.84" y="-145.27" font-family="Times New Roman,serif" font-size="9.00">&#45;6</text>
</g>
<!-- &#45;6&#45;&gt;0 -->
<g id="edge9" class="edge">
<title>&#45;6&#45;&gt;0</title>
<path fill="none" stroke="red" stroke-width="0.59" d="M448.71,-145.31C407.24,-141.19 271.73,-126.13 235.84,-102.47 212.32,-86.96 195.67,-58.52 186.18,-38.47"/>
<polygon fill="red" stroke="red" stroke-width="0.59" points="189.28,-36.82 181.99,-29.13 182.89,-39.68 189.28,-36.82"/>
</g>
<!-- &#45;6&#45;&gt;1 -->
<g id="edge10" class="edge">
<title>&#45;6&#45;&gt;1</title>
<path fill="none" stroke="green" stroke-width="0.13" stroke-dasharray="1,5" d="M460.62,-138.25C459.86,-122.86 456.5,-89.16 441.84,-65.7 432.01,-49.96 415.47,-36.9 402.08,-28.1"/>
<polygon fill="green" stroke="green" stroke-width="0.13" points="403.78,-25.04 393.45,-22.71 400.08,-30.98 403.78,-25.04"/>
</g>
<!-- 18 -->
<g id="node12" class="node">
<title>18</title>
<ellipse fill="white" stroke="black" cx="506.84" cy="-84.08" rx="18.27" ry="18.27"/>
<text text-anchor="middle" x="506.84" y="-81.88" font-family="Times New Roman,serif" font-size="9.00">18</text>
</g>
<!-- &#45;6&#45;&gt;18 -->
<g id="edge14" class="edge">
<title>&#45;6&#45;&gt;18</title>
<path fill="none" stroke="green" stroke-width="0.3" d="M466.86,-138.44C472.7,-130.65 481.84,-118.44 489.91,-107.67"/>
<polygon fill="green" stroke="green" stroke-width="0.3" points="492.88,-109.56 496.07,-99.46 487.28,-105.36 492.88,-109.56"/>
</g>
<!-- &#45;7 -->
<g id="node7" class="node">
<title>&#45;7</title>
<polygon fill="lightgray" stroke="black" points="24.84,-156.47 0.84,-156.47 0.84,-138.47 24.84,-138.47 24.84,-156.47"/>
<text text-anchor="middle" x="12.84" y="-145.27" font-family="Times New Roman,serif" font-size="9.00">&#45;7</text>
</g>
<!-- &#45;7&#45;&gt;0 -->
<g id="edge11" class="edge">
<title>&#45;7&#45;&gt;0</title>
<path fill="none" stroke="red" stroke-width="0.18" stroke-dasharray="1,5" d="M9.39,-138.39C3.25,-122.66 -7.45,-87.53 8.84,-65.7 26.09,-42.6 109.86,-26.38 152.22,-19.52"/>
<polygon fill="red" stroke="red" stroke-width="0.18" points="152.93,-22.95 162.27,-17.94 151.84,-16.03 152.93,-22.95"/>
</g>
<!-- 68 -->
<g id="node11" class="node">
<title>68</title>
<ellipse fill="white" stroke="black" cx="35.84" cy="-84.08" rx="18.27" ry="18.27"/>
<text text-anchor="middle" x="35.84" y="-81.88" font-family="Times New Roman,serif" font-size="9.00">68</text>
</g>
<!-- &#45;7&#45;&gt;68 -->
<g id="edge18" class="edge">
<title>&#45;7&#45;&gt;68</title>
<path fill="none" stroke="red" stroke-width="0.4" d="M15.85,-138.44C18.46,-131.47 22.39,-120.98 26.08,-111.13"/>
<polygon fill="red" stroke="red" stroke-width="0.4" points="29.4,-112.25 29.63,-101.66 22.85,-109.8 29.4,-112.25"/>
</g>
<!-- &#45;8 -->
<g id="node8" class="node">
<title>&#45;8</title>
<polygon fill="lightgray" stroke="black" points="352.84,-93.08 328.84,-93.08 328.84,-75.08 352.84,-75.08 352.84,-93.08"/>
<text text-anchor="middle" x="340.84" y="-81.88" font-family="Times New Roman,serif" font-size="9.00">&#45;8</text>
</g>
<!-- &#45;8&#45;&gt;0 -->
<g id="edge12" class="edge">
<title>&#45;8&#45;&gt;0</title>
<path fill="none" stroke="green" stroke-width="0.35" d="M332.37,-74.89C328.73,-71.7 324.3,-68.21 319.84,-65.7 280.89,-43.73 230.56,-28.95 201.18,-21.5"/>
<polygon fill="green" stroke="green" stroke-width="0.35" points="201.91,-18.07 191.36,-19.09 200.24,-24.87 201.91,-18.07"/>
</g>
<!-- &#45;8&#45;&gt;1 -->
<g id="edge13" class="edge">
<title>&#45;8&#45;&gt;1</title>
<path fill="none" stroke="red" stroke-width="0.39" d="M345.75,-74.84C351.32,-65.47 360.63,-49.82 368.27,-36.99"/>
<polygon fill="red" stroke="red" stroke-width="0.39" points="371.34,-38.66 373.45,-28.28 365.33,-35.08 371.34,-38.66"/>
</g>
<!-- 68&#45;&gt;0 -->
<g id="edge19" class="edge">
<title>68&#45;&gt;0</title>
<path fill="none" stroke="red" stroke-width="0.16" d="M51.02,-73.12C55.12,-70.58 59.59,-67.94 63.84,-65.7 94.24,-49.66 130.87,-34.16 154.01,-24.82"/>
<polygon fill="red" stroke="red" stroke-width="0.16" points="155.35,-28.05 163.34,-21.09 152.75,-21.55 155.35,-28.05"/>
</g>
<!-- 18&#45;&gt;1 -->
<g id="edge15" class="edge">
<title>18&#45;&gt;1</title>
<path fill="none" stroke="green" stroke-width="0.26" d="M490.91,-74.39C485.79,-71.6 480.08,-68.51 474.84,-65.7 450.17,-52.46 421.76,-37.42 402.69,-27.36"/>
<polygon fill="green" stroke="green" stroke-width="0.26" points="404.11,-24.15 393.64,-22.58 400.85,-30.34 404.11,-24.15"/>
</g>
<!-- 19&#45;&gt;0 -->
<g id="edge17" class="edge">
<title>19&#45;&gt;0</title>
<path fill="none" stroke="green" stroke-width="0.15" d="M105.04,-71.98C119.37,-60.78 141.6,-43.4 157.53,-30.95"/>
<polygon fill="green" stroke="green" stroke-width="0.15" points="159.92,-33.53 165.64,-24.61 155.61,-28.01 159.92,-33.53"/>
</g>
</g>
</svg>
