<?xml version="1.0" encoding="UTF-8" standalone="no"?>
<!DOCTYPE svg PUBLIC "-//W3C//DTD SVG 1.1//EN"
 "http://www.w3.org/Graphics/SVG/1.1/DTD/svg11.dtd">
<!-- Generated by graphviz version 2.47.0 (20210316.0004)
 -->
<!-- Pages: 1 -->
<svg width="376pt" height="164pt"
 viewBox="0.00 0.00 376.38 164.47" xmlns="http://www.w3.org/2000/svg" xmlns:xlink="http://www.w3.org/1999/xlink">
<g id="graph0" class="graph" transform="scale(1 1) rotate(0) translate(4 160.47)">
<polygon fill="white" stroke="transparent" points="-4,4 -4,-160.47 372.38,-160.47 372.38,4 -4,4"/>
<!-- &#45;1 -->
<g id="node1" class="node">
<title>&#45;1</title>
<polygon fill="lightgray" stroke="black" points="74.38,-156.47 50.38,-156.47 50.38,-138.47 74.38,-138.47 74.38,-156.47"/>
<text text-anchor="middle" x="62.38" y="-145.27" font-family="Times New Roman,serif" font-size="9.00">&#45;1</text>
</g>
<!-- 0 -->
<g id="node9" class="node">
<title>0</title>
<ellipse fill="lightblue" stroke="black" cx="146.38" cy="-14.85" rx="14.7" ry="14.7"/>
<text text-anchor="middle" x="146.38" y="-12.65" font-family="Times New Roman,serif" font-size="9.00">0</text>
</g>
<!-- &#45;1&#45;&gt;0 -->
<g id="edge1" class="edge">
<title>&#45;1&#45;&gt;0</title>
<path fill="none" stroke="red" stroke-width="0.13" d="M67.64,-138.3C80.6,-118.14 114.42,-65.55 133.25,-36.27"/>
<polygon fill="red" stroke="red" stroke-width="0.13" points="136.33,-37.96 138.79,-27.66 130.44,-34.17 136.33,-37.96"/>
</g>
<!-- 43 -->
<g id="node11" class="node">
<title>43</title>
<ellipse fill="white" stroke="black" cx="18.38" cy="-84.08" rx="18.27" ry="18.27"/>
<text text-anchor="middle" x="18.38" y="-81.88" font-family="Times New Roman,serif" font-size="9.00">43</text>
</g>
<!-- &#45;1&#45;&gt;43 -->
<g id="edge13" class="edge">
<title>&#45;1&#45;&gt;43</title>
<path fill="none" stroke="green" stroke-width="0.28" d="M56.63,-138.44C51.04,-130.65 42.3,-118.44 34.58,-107.67"/>
<polygon fill="green" stroke="green" stroke-width="0.28" points="37.36,-105.54 28.69,-99.46 31.67,-109.62 37.36,-105.54"/>
</g>
<!-- &#45;2 -->
<g id="node2" class="node">
<title>&#45;2</title>
<polygon fill="lightgray" stroke="black" points="368.38,-93.08 344.38,-93.08 344.38,-75.08 368.38,-75.08 368.38,-93.08"/>
<text text-anchor="middle" x="356.38" y="-81.88" font-family="Times New Roman,serif" font-size="9.00">&#45;2</text>
</g>
<!-- 1 -->
<g id="node10" class="node">
<title>1</title>
<ellipse fill="lightblue" stroke="black" cx="251.38" cy="-14.85" rx="14.7" ry="14.7"/>
<text text-anchor="middle" x="251.38" y="-12.65" font-family="Times New Roman,serif" font-size="9.00">1</text>
</g>
<!-- &#45;2&#45;&gt;1 -->
<g id="edge2" class="edge">
<title>&#45;2&#45;&gt;1</title>
<path fill="none" stroke="green" stroke-width="0.45" d="M347.22,-74.97C343.63,-71.93 339.41,-68.53 335.38,-65.7 315.03,-51.36 290.39,-37.08 273.08,-27.5"/>
<polygon fill="green" stroke="green" stroke-width="0.45" points="274.75,-24.42 264.29,-22.69 271.39,-30.56 274.75,-24.42"/>
</g>
<!-- &#45;3 -->
<g id="node3" class="node">
<title>&#45;3</title>
<polygon fill="lightgray" stroke="black" points="284.38,-93.08 260.38,-93.08 260.38,-75.08 284.38,-75.08 284.38,-93.08"/>
<text text-anchor="middle" x="272.38" y="-81.88" font-family="Times New Roman,serif" font-size="9.00">&#45;3</text>
</g>
<!-- &#45;3&#45;&gt;0 -->
<g id="edge3" class="edge">
<title>&#45;3&#45;&gt;0</title>
<path fill="none" stroke="red" stroke-width="0.35" d="M263.36,-74.77C259.78,-71.71 255.54,-68.34 251.38,-65.7 224.79,-48.75 191.55,-33.92 169.67,-24.94"/>
<polygon fill="red" stroke="red" stroke-width="0.35" points="170.79,-21.62 160.21,-21.12 168.18,-28.11 170.79,-21.62"/>
</g>
<!-- &#45;3&#45;&gt;1 -->
<g id="edge4" class="edge">
<title>&#45;3&#45;&gt;1</title>
<path fill="none" stroke="green" stroke-width="0.1" d="M269.81,-74.84C267.04,-65.96 262.5,-51.45 258.63,-39.03"/>
<polygon fill="green" stroke="green" stroke-width="0.1" points="261.9,-37.78 255.58,-29.27 255.22,-39.86 261.9,-37.78"/>
</g>
<!-- &#45;4 -->
<g id="node4" class="node">
<title>&#45;4</title>
<polygon fill="lightgray" stroke="black" points="158.38,-93.08 134.38,-93.08 134.38,-75.08 158.38,-75.08 158.38,-93.08"/>
<text text-anchor="middle" x="146.38" y="-81.88" font-family="Times New Roman,serif" font-size="9.00">&#45;4</text>
</g>
<!-- &#45;4&#45;&gt;0 -->
<g id="edge5" class="edge">
<title>&#45;4&#45;&gt;0</title>
<path fill="none" stroke="green" stroke-width="0.45" d="M146.38,-74.84C146.38,-66.16 146.38,-52.09 146.38,-39.86"/>
<polygon fill="green" stroke="green" stroke-width="0.45" points="149.88,-39.78 146.38,-29.78 142.88,-39.78 149.88,-39.78"/>
</g>
<!-- &#45;4&#45;&gt;1 -->
<g id="edge6" class="edge">
<title>&#45;4&#45;&gt;1</title>
<path fill="none" stroke="green" stroke-width="0.47" d="M155.55,-74.97C159.14,-71.93 163.36,-68.53 167.38,-65.7 187.74,-51.36 212.38,-37.08 229.69,-27.5"/>
<polygon fill="green" stroke="green" stroke-width="0.47" points="231.38,-30.56 238.48,-22.69 228.02,-24.42 231.38,-30.56"/>
</g>
<!-- &#45;5 -->
<g id="node5" class="node">
<title>&#45;5</title>
<polygon fill="lightgray" stroke="black" points="326.38,-93.08 302.38,-93.08 302.38,-75.08 326.38,-75.08 326.38,-93.08"/>
<text text-anchor="middle" x="314.38" y="-81.88" font-family="Times New Roman,serif" font-size="9.00">&#45;5</text>
</g>
<!-- &#45;5&#45;&gt;1 -->
<g id="edge7" class="edge">
<title>&#45;5&#45;&gt;1</title>
<path fill="none" stroke="red" stroke-width="0.12" stroke-dasharray="1,5" d="M306.66,-74.84C297.19,-64.73 280.87,-47.32 268.41,-34.02"/>
<polygon fill="red" stroke="red" stroke-width="0.12" points="270.64,-31.28 261.25,-26.37 265.53,-36.06 270.64,-31.28"/>
</g>
<!-- &#45;6 -->
<g id="node6" class="node">
<title>&#45;6</title>
<polygon fill="lightgray" stroke="black" points="200.38,-93.08 176.38,-93.08 176.38,-75.08 200.38,-75.08 200.38,-93.08"/>
<text text-anchor="middle" x="188.38" y="-81.88" font-family="Times New Roman,serif" font-size="9.00">&#45;6</text>
</g>
<!-- &#45;6&#45;&gt;0 -->
<g id="edge8" class="edge">
<title>&#45;6&#45;&gt;0</title>
<path fill="none" stroke="green" stroke-width="0.18" d="M183.23,-74.84C177.31,-65.36 167.37,-49.44 159.3,-36.53"/>
<polygon fill="green" stroke="green" stroke-width="0.18" points="162.11,-34.42 153.85,-27.79 156.17,-38.13 162.11,-34.42"/>
</g>
<!-- &#45;6&#45;&gt;1 -->
<g id="edge9" class="edge">
<title>&#45;6&#45;&gt;1</title>
<path fill="none" stroke="red" stroke-width="0.26" d="M196.11,-74.84C205.58,-64.73 221.9,-47.32 234.36,-34.02"/>
<polygon fill="red" stroke="red" stroke-width="0.26" points="237.24,-36.06 241.52,-26.37 232.13,-31.28 237.24,-36.06"/>
</g>
<!-- &#45;7 -->
<g id="node7" class="node">
<title>&#45;7</title>
<polygon fill="lightgray" stroke="black" points="242.38,-93.08 218.38,-93.08 218.38,-75.08 242.38,-75.08 242.38,-93.08"/>
<text text-anchor="middle" x="230.38" y="-81.88" font-family="Times New Roman,serif" font-size="9.00">&#45;7</text>
</g>
<!-- &#45;7&#45;&gt;0 -->
<g id="edge10" class="edge">
<title>&#45;7&#45;&gt;0</title>
<path fill="none" stroke="red" stroke-width="0.28" d="M220.59,-74.9C217.07,-71.98 213.06,-68.68 209.38,-65.7 194.76,-53.86 178.06,-40.66 165.53,-30.82"/>
<polygon fill="red" stroke="red" stroke-width="0.28" points="167.63,-28.02 157.6,-24.6 163.31,-33.52 167.63,-28.02"/>
</g>
<!-- &#45;7&#45;&gt;1 -->
<g id="edge11" class="edge">
<title>&#45;7&#45;&gt;1</title>
<path fill="none" stroke="red" stroke-width="0.49" d="M232.96,-74.84C235.73,-65.96 240.27,-51.45 244.14,-39.03"/>
<polygon fill="red" stroke="red" stroke-width="0.49" points="247.55,-39.86 247.19,-29.27 240.87,-37.78 247.55,-39.86"/>
</g>
<!-- &#45;8 -->
<g id="node8" class="node">
<title>&#45;8</title>
<polygon fill="lightgray" stroke="black" points="78.38,-93.08 54.38,-93.08 54.38,-75.08 78.38,-75.08 78.38,-93.08"/>
<text text-anchor="middle" x="66.38" y="-81.88" font-family="Times New Roman,serif" font-size="9.00">&#45;8</text>
</g>
<!-- &#45;8&#45;&gt;0 -->
<g id="edge12" class="edge">
<title>&#45;8&#45;&gt;0</title>
<path fill="none" stroke="green" stroke-width="0.31" d="M76.19,-74.84C88.99,-64.09 111.62,-45.06 127.73,-31.53"/>
<polygon fill="green" stroke="green" stroke-width="0.31" points="130.07,-34.14 135.47,-25.02 125.56,-28.78 130.07,-34.14"/>
</g>
<!-- 43&#45;&gt;0 -->
<g id="edge14" class="edge">
<title>43&#45;&gt;0</title>
<path fill="none" stroke="red" stroke-width="0.22" d="M33.34,-73.03C37.21,-70.54 41.41,-67.95 45.38,-65.7 71.71,-50.79 103.09,-35.7 123.82,-26.09"/>
<polygon fill="red" stroke="red" stroke-width="0.22" points="125.44,-29.19 133.06,-21.84 122.52,-22.83 125.44,-29.19"/>
</g>
</g>
</svg>
