<?xml version="1.0" encoding="UTF-8" standalone="no"?>
<!DOCTYPE svg PUBLIC "-//W3C//DTD SVG 1.1//EN"
 "http://www.w3.org/Graphics/SVG/1.1/DTD/svg11.dtd">
<!-- Generated by graphviz version 2.47.0 (20210316.0004)
 -->
<!-- Pages: 1 -->
<svg width="646pt" height="237pt"
 viewBox="0.00 0.00 645.60 237.24" xmlns="http://www.w3.org/2000/svg" xmlns:xlink="http://www.w3.org/1999/xlink">
<g id="graph0" class="graph" transform="scale(1 1) rotate(0) translate(4 233.24)">
<polygon fill="white" stroke="transparent" points="-4,4 -4,-233.24 641.6,-233.24 641.6,4 -4,4"/>
<!-- &#45;1 -->
<g id="node1" class="node">
<title>&#45;1</title>
<polygon fill="lightgray" stroke="black" points="45.21,-93.08 21.21,-93.08 21.21,-75.08 45.21,-75.08 45.21,-93.08"/>
<text text-anchor="middle" x="33.21" y="-81.88" font-family="Times New Roman,serif" font-size="9.00">&#45;1</text>
</g>
<!-- 0 -->
<g id="node9" class="node">
<title>0</title>
<ellipse fill="lightblue" stroke="black" cx="157.21" cy="-14.85" rx="14.7" ry="14.7"/>
<text text-anchor="middle" x="157.21" y="-12.65" font-family="Times New Roman,serif" font-size="9.00">0</text>
</g>
<!-- &#45;1&#45;&gt;0 -->
<g id="edge1" class="edge">
<title>&#45;1&#45;&gt;0</title>
<path fill="none" stroke="green" stroke-width="0.17" d="M44.67,-74.99C49.14,-71.96 54.34,-68.55 59.21,-65.7 84.43,-50.92 114.55,-35.99 134.67,-26.37"/>
<polygon fill="green" stroke="green" stroke-width="0.17" points="136.41,-29.42 143.95,-21.98 133.41,-23.09 136.41,-29.42"/>
</g>
<!-- &#45;2 -->
<g id="node2" class="node">
<title>&#45;2</title>
<polygon fill="lightgray" stroke="black" points="417.21,-229.24 393.21,-229.24 393.21,-211.24 417.21,-211.24 417.21,-229.24"/>
<text text-anchor="middle" x="405.21" y="-218.04" font-family="Times New Roman,serif" font-size="9.00">&#45;2</text>
</g>
<!-- &#45;2&#45;&gt;0 -->
<g id="edge2" class="edge">
<title>&#45;2&#45;&gt;0</title>
<path fill="none" stroke="green" stroke-width="0.21" d="M393.04,-219.04C338.47,-217.96 116.6,-211.37 59.21,-175.24 14.38,-147.01 -18.56,-108.82 12.21,-65.7 39.56,-27.38 98.33,-18.21 132.05,-16.21"/>
<polygon fill="green" stroke="green" stroke-width="0.21" points="132.2,-19.71 142.05,-15.78 131.91,-12.71 132.2,-19.71"/>
</g>
<!-- 1 -->
<g id="node10" class="node">
<title>1</title>
<ellipse fill="lightblue" stroke="black" cx="424.21" cy="-14.85" rx="14.7" ry="14.7"/>
<text text-anchor="middle" x="424.21" y="-12.65" font-family="Times New Roman,serif" font-size="9.00">1</text>
</g>
<!-- &#45;2&#45;&gt;1 -->
<g id="edge3" class="edge">
<title>&#45;2&#45;&gt;1</title>
<path fill="none" stroke="green" stroke-width="0.29" d="M405.98,-211.01C408.67,-182.25 417.71,-85.43 421.97,-39.89"/>
<polygon fill="green" stroke="green" stroke-width="0.29" points="425.47,-40.03 422.91,-29.75 418.5,-39.38 425.47,-40.03"/>
</g>
<!-- 9 -->
<g id="node12" class="node">
<title>9</title>
<ellipse fill="white" stroke="black" cx="450.21" cy="-156.85" rx="14.7" ry="14.7"/>
<text text-anchor="middle" x="450.21" y="-154.65" font-family="Times New Roman,serif" font-size="9.00">9</text>
</g>
<!-- &#45;2&#45;&gt;9 -->
<g id="edge16" class="edge">
<title>&#45;2&#45;&gt;9</title>
<path fill="none" stroke="red" stroke-width="0.36" d="M411.1,-211.21C417.32,-202.72 427.39,-188.99 435.75,-177.59"/>
<polygon fill="red" stroke="red" stroke-width="0.36" points="438.63,-179.58 441.72,-169.44 432.98,-175.44 438.63,-179.58"/>
</g>
<!-- &#45;3 -->
<g id="node3" class="node">
<title>&#45;3</title>
<polygon fill="lightgray" stroke="black" points="565.21,-229.24 541.21,-229.24 541.21,-211.24 565.21,-211.24 565.21,-229.24"/>
<text text-anchor="middle" x="553.21" y="-218.04" font-family="Times New Roman,serif" font-size="9.00">&#45;3</text>
</g>
<!-- &#45;3&#45;&gt;0 -->
<g id="edge4" class="edge">
<title>&#45;3&#45;&gt;0</title>
<path fill="none" stroke="red" stroke-width="0.33" d="M548.05,-211.13C536.88,-194.35 508.68,-155.94 474.21,-138.47 373.3,-87.31 319.57,-160.1 222.21,-102.47 196.77,-87.41 178.06,-58.16 167.41,-37.84"/>
<polygon fill="red" stroke="red" stroke-width="0.33" points="170.43,-36.07 162.83,-28.69 164.17,-39.2 170.43,-36.07"/>
</g>
<!-- &#45;3&#45;&gt;1 -->
<g id="edge5" class="edge">
<title>&#45;3&#45;&gt;1</title>
<path fill="none" stroke="green" stroke-width="0.26" stroke-dasharray="1,5" d="M554.85,-211.15C559.36,-186.36 569.47,-110.41 534.21,-65.7 513.08,-38.9 474.36,-26.03 448.96,-20.21"/>
<polygon fill="green" stroke="green" stroke-width="0.26" points="449.48,-16.74 438.97,-18.12 448.05,-23.59 449.48,-16.74"/>
</g>
<!-- &#45;3&#45;&gt;9 -->
<g id="edge20" class="edge">
<title>&#45;3&#45;&gt;9</title>
<path fill="none" stroke="red" stroke-width="0.27" d="M540.99,-211.95C523.89,-201.76 492.57,-183.1 471.57,-170.58"/>
<polygon fill="red" stroke="red" stroke-width="0.27" points="473.12,-167.43 462.74,-165.32 469.54,-173.44 473.12,-167.43"/>
</g>
<!-- 17 -->
<g id="node14" class="node">
<title>17</title>
<ellipse fill="white" stroke="black" cx="619.21" cy="-156.85" rx="18.27" ry="18.27"/>
<text text-anchor="middle" x="619.21" y="-154.65" font-family="Times New Roman,serif" font-size="9.00">17</text>
</g>
<!-- &#45;3&#45;&gt;17 -->
<g id="edge18" class="edge">
<title>&#45;3&#45;&gt;17</title>
<path fill="none" stroke="green" stroke-width="0.23" d="M561.84,-211.21C571.01,-202.68 585.86,-188.87 598.15,-177.44"/>
<polygon fill="green" stroke="green" stroke-width="0.23" points="600.84,-179.72 605.78,-170.35 596.07,-174.6 600.84,-179.72"/>
</g>
<!-- &#45;4 -->
<g id="node4" class="node">
<title>&#45;4</title>
<polygon fill="lightgray" stroke="black" points="297.21,-93.08 273.21,-93.08 273.21,-75.08 297.21,-75.08 297.21,-93.08"/>
<text text-anchor="middle" x="285.21" y="-81.88" font-family="Times New Roman,serif" font-size="9.00">&#45;4</text>
</g>
<!-- &#45;4&#45;&gt;0 -->
<g id="edge6" class="edge">
<title>&#45;4&#45;&gt;0</title>
<path fill="none" stroke="red" stroke-width="0.29" d="M276.19,-74.76C272.62,-71.69 268.37,-68.33 264.21,-65.7 236.87,-48.42 202.57,-33.5 180.29,-24.59"/>
<polygon fill="red" stroke="red" stroke-width="0.29" points="181.55,-21.33 170.96,-20.94 179,-27.85 181.55,-21.33"/>
</g>
<!-- &#45;4&#45;&gt;1 -->
<g id="edge7" class="edge">
<title>&#45;4&#45;&gt;1</title>
<path fill="none" stroke="red" stroke-width="0.29" d="M293.77,-75.03C297.42,-71.86 301.84,-68.35 306.21,-65.7 336.99,-47.02 376.02,-32.03 400.57,-23.53"/>
<polygon fill="red" stroke="red" stroke-width="0.29" points="401.78,-26.82 410.13,-20.3 399.54,-20.19 401.78,-26.82"/>
</g>
<!-- &#45;5 -->
<g id="node5" class="node">
<title>&#45;5</title>
<polygon fill="lightgray" stroke="black" points="339.21,-93.08 315.21,-93.08 315.21,-75.08 339.21,-75.08 339.21,-93.08"/>
<text text-anchor="middle" x="327.21" y="-81.88" font-family="Times New Roman,serif" font-size="9.00">&#45;5</text>
</g>
<!-- &#45;5&#45;&gt;0 -->
<g id="edge8" class="edge">
<title>&#45;5&#45;&gt;0</title>
<path fill="none" stroke="green" stroke-width="0.38" d="M318.75,-74.86C315.12,-71.66 310.68,-68.18 306.21,-65.7 265.26,-42.94 212.19,-28.28 181.7,-21.1"/>
<polygon fill="green" stroke="green" stroke-width="0.38" points="182.44,-17.68 171.91,-18.87 180.88,-24.5 182.44,-17.68"/>
</g>
<!-- &#45;5&#45;&gt;1 -->
<g id="edge9" class="edge">
<title>&#45;5&#45;&gt;1</title>
<path fill="none" stroke="red" stroke-width="0.22" d="M339.11,-74.84C355.25,-63.65 384.33,-43.49 403.95,-29.89"/>
<polygon fill="red" stroke="red" stroke-width="0.22" points="406,-32.73 412.22,-24.16 402.01,-26.98 406,-32.73"/>
</g>
<!-- &#45;6 -->
<g id="node6" class="node">
<title>&#45;6</title>
<polygon fill="lightgray" stroke="black" points="169.21,-165.85 145.21,-165.85 145.21,-147.85 169.21,-147.85 169.21,-165.85"/>
<text text-anchor="middle" x="157.21" y="-154.65" font-family="Times New Roman,serif" font-size="9.00">&#45;6</text>
</g>
<!-- &#45;6&#45;&gt;0 -->
<g id="edge10" class="edge">
<title>&#45;6&#45;&gt;0</title>
<path fill="none" stroke="red" stroke-width="0.25" stroke-dasharray="1,5" d="M151.51,-147.64C144.87,-137.55 134.31,-119.64 130.21,-102.47 126.42,-86.57 126.2,-81.54 130.21,-65.7 132.84,-55.33 138.1,-44.78 143.29,-36.07"/>
<polygon fill="red" stroke="red" stroke-width="0.25" points="146.36,-37.76 148.76,-27.44 140.45,-34.01 146.36,-37.76"/>
</g>
<!-- &#45;6&#45;&gt;1 -->
<g id="edge11" class="edge">
<title>&#45;6&#45;&gt;1</title>
<path fill="none" stroke="red" stroke-width="0.23" d="M169.35,-154.86C201.09,-151.79 288.18,-140.24 348.21,-102.47 375.11,-85.55 397.89,-56.28 411.3,-36.5"/>
<polygon fill="red" stroke="red" stroke-width="0.23" points="414.39,-38.18 416.95,-27.9 408.54,-34.33 414.39,-38.18"/>
</g>
<!-- 79 -->
<g id="node13" class="node">
<title>79</title>
<ellipse fill="white" stroke="black" cx="157.21" cy="-84.08" rx="18.27" ry="18.27"/>
<text text-anchor="middle" x="157.21" y="-81.88" font-family="Times New Roman,serif" font-size="9.00">79</text>
</g>
<!-- &#45;6&#45;&gt;79 -->
<g id="edge24" class="edge">
<title>&#45;6&#45;&gt;79</title>
<path fill="none" stroke="green" stroke-width="0.3" d="M157.21,-147.73C157.21,-139.17 157.21,-125.19 157.21,-112.61"/>
<polygon fill="green" stroke="green" stroke-width="0.3" points="160.71,-112.52 157.21,-102.52 153.71,-112.52 160.71,-112.52"/>
</g>
<!-- &#45;7 -->
<g id="node7" class="node">
<title>&#45;7</title>
<polygon fill="lightgray" stroke="black" points="255.21,-93.08 231.21,-93.08 231.21,-75.08 255.21,-75.08 255.21,-93.08"/>
<text text-anchor="middle" x="243.21" y="-81.88" font-family="Times New Roman,serif" font-size="9.00">&#45;7</text>
</g>
<!-- &#45;7&#45;&gt;0 -->
<g id="edge12" class="edge">
<title>&#45;7&#45;&gt;0</title>
<path fill="none" stroke="green" stroke-width="0.14" d="M232.67,-74.84C218.84,-64.03 194.31,-44.85 176.98,-31.3"/>
<polygon fill="green" stroke="green" stroke-width="0.14" points="178.7,-28.21 168.67,-24.8 174.39,-33.72 178.7,-28.21"/>
</g>
<!-- &#45;7&#45;&gt;1 -->
<g id="edge13" class="edge">
<title>&#45;7&#45;&gt;1</title>
<path fill="none" stroke="red" stroke-width="0.32" d="M251.65,-74.81C255.28,-71.61 259.72,-68.13 264.21,-65.7 309.02,-41.41 367.44,-27.02 399.85,-20.35"/>
<polygon fill="red" stroke="red" stroke-width="0.32" points="400.65,-23.76 409.78,-18.39 399.3,-16.89 400.65,-23.76"/>
</g>
<!-- &#45;8 -->
<g id="node8" class="node">
<title>&#45;8</title>
<polygon fill="lightgray" stroke="black" points="462.21,-229.24 438.21,-229.24 438.21,-211.24 462.21,-211.24 462.21,-229.24"/>
<text text-anchor="middle" x="450.21" y="-218.04" font-family="Times New Roman,serif" font-size="9.00">&#45;8</text>
</g>
<!-- &#45;8&#45;&gt;0 -->
<g id="edge14" class="edge">
<title>&#45;8&#45;&gt;0</title>
<path fill="none" stroke="red" stroke-width="0.27" d="M438.14,-214.69C434.36,-213.41 430.15,-212.13 426.21,-211.24 362.88,-196.9 183.04,-220.23 136.21,-175.24 100.9,-141.31 110.1,-112.6 124.21,-65.7 127.62,-54.37 134.54,-43.24 141.16,-34.39"/>
<polygon fill="red" stroke="red" stroke-width="0.27" points="144.06,-36.37 147.55,-26.37 138.58,-32.01 144.06,-36.37"/>
</g>
<!-- &#45;8&#45;&gt;1 -->
<g id="edge15" class="edge">
<title>&#45;8&#45;&gt;1</title>
<path fill="none" stroke="red" stroke-width="0.21" d="M458.86,-211.22C483,-187.83 547.39,-118.05 516.21,-65.7 501.61,-41.18 470.28,-27.98 448.25,-21.44"/>
<polygon fill="red" stroke="red" stroke-width="0.21" points="449.16,-18.06 438.59,-18.82 447.32,-24.81 449.16,-18.06"/>
</g>
<!-- &#45;8&#45;&gt;9 -->
<g id="edge23" class="edge">
<title>&#45;8&#45;&gt;9</title>
<path fill="none" stroke="red" stroke-width="0.32" d="M450.21,-211.21C450.21,-203.78 450.21,-192.35 450.21,-181.97"/>
<polygon fill="red" stroke="red" stroke-width="0.32" points="453.71,-181.75 450.21,-171.75 446.71,-181.75 453.71,-181.75"/>
</g>
<!-- 34 -->
<g id="node11" class="node">
<title>34</title>
<ellipse fill="white" stroke="black" cx="489.21" cy="-84.08" rx="18.27" ry="18.27"/>
<text text-anchor="middle" x="489.21" y="-81.88" font-family="Times New Roman,serif" font-size="9.00">34</text>
</g>
<!-- 34&#45;&gt;1 -->
<g id="edge22" class="edge">
<title>34&#45;&gt;1</title>
<path fill="none" stroke="red" stroke-width="0.25" d="M476.68,-70.12C466.61,-59.7 452.36,-44.96 441.25,-33.48"/>
<polygon fill="red" stroke="red" stroke-width="0.25" points="443.62,-30.89 434.16,-26.13 438.59,-35.76 443.62,-30.89"/>
</g>
<!-- 9&#45;&gt;1 -->
<g id="edge17" class="edge">
<title>9&#45;&gt;1</title>
<path fill="none" stroke="red" stroke-width="0.26" stroke-dasharray="1,5" d="M447.67,-142.17C443.26,-118.4 434.12,-69.17 428.64,-39.68"/>
<polygon fill="red" stroke="red" stroke-width="0.26" points="432.07,-38.98 426.8,-29.79 425.19,-40.26 432.07,-38.98"/>
</g>
<!-- 9&#45;&gt;34 -->
<g id="edge21" class="edge">
<title>9&#45;&gt;34</title>
<path fill="none" stroke="red" stroke-width="0.26" d="M457.01,-143.53C462.21,-134.09 469.54,-120.78 475.9,-109.24"/>
<polygon fill="red" stroke="red" stroke-width="0.26" points="478.97,-110.92 480.73,-100.48 472.84,-107.55 478.97,-110.92"/>
</g>
<!-- 79&#45;&gt;0 -->
<g id="edge25" class="edge">
<title>79&#45;&gt;0</title>
<path fill="none" stroke="red" stroke-width="0.25" d="M157.21,-65.42C157.21,-57.74 157.21,-48.61 157.21,-40.29"/>
<polygon fill="red" stroke="red" stroke-width="0.25" points="160.71,-40.01 157.21,-30.01 153.71,-40.01 160.71,-40.01"/>
</g>
<!-- 17&#45;&gt;1 -->
<g id="edge19" class="edge">
<title>17&#45;&gt;1</title>
<path fill="none" stroke="green" stroke-width="0.37" d="M617.66,-138.42C614.94,-118.18 607.49,-85.1 587.21,-65.7 549.04,-29.18 484.83,-19.35 449.47,-16.75"/>
<polygon fill="green" stroke="green" stroke-width="0.37" points="449.67,-13.25 439.48,-16.15 449.26,-20.24 449.67,-13.25"/>
</g>
</g>
</svg>
