<?xml version="1.0" encoding="UTF-8" standalone="no"?>
<!DOCTYPE svg PUBLIC "-//W3C//DTD SVG 1.1//EN"
 "http://www.w3.org/Graphics/SVG/1.1/DTD/svg11.dtd">
<!-- Generated by graphviz version 2.47.0 (20210316.0004)
 -->
<!-- Pages: 1 -->
<svg width="326pt" height="92pt"
 viewBox="0.00 0.00 326.00 91.70" xmlns="http://www.w3.org/2000/svg" xmlns:xlink="http://www.w3.org/1999/xlink">
<g id="graph0" class="graph" transform="scale(1 1) rotate(0) translate(4 87.7)">
<polygon fill="white" stroke="transparent" points="-4,4 -4,-87.7 322,-87.7 322,4 -4,4"/>
<!-- &#45;1 -->
<g id="node1" class="node">
<title>&#45;1</title>
<polygon fill="lightgray" stroke="black" points="108,-83.7 84,-83.7 84,-65.7 108,-65.7 108,-83.7"/>
<text text-anchor="middle" x="96" y="-72.5" font-family="Times New Roman,serif" font-size="9.00">&#45;1</text>
</g>
<!-- 0 -->
<g id="node9" class="node">
<title>0</title>
<ellipse fill="lightblue" stroke="black" cx="135" cy="-14.85" rx="14.7" ry="14.7"/>
<text text-anchor="middle" x="135" y="-12.65" font-family="Times New Roman,serif" font-size="9.00">0</text>
</g>
<!-- &#45;1&#45;&gt;0 -->
<g id="edge1" class="edge">
<title>&#45;1&#45;&gt;0</title>
<path fill="none" stroke="red" stroke-width="0.43" d="M101.42,-65.65C106.54,-58.07 114.42,-46.37 121.26,-36.22"/>
<polygon fill="red" stroke="red" stroke-width="0.43" points="124.23,-38.09 126.91,-27.84 118.42,-34.18 124.23,-38.09"/>
</g>
<!-- 1 -->
<g id="node10" class="node">
<title>1</title>
<ellipse fill="lightblue" stroke="black" cx="183" cy="-14.85" rx="14.7" ry="14.7"/>
<text text-anchor="middle" x="183" y="-12.65" font-family="Times New Roman,serif" font-size="9.00">1</text>
</g>
<!-- &#45;1&#45;&gt;1 -->
<g id="edge2" class="edge">
<title>&#45;1&#45;&gt;1</title>
<path fill="none" stroke="red" stroke-width="0.18" d="M108.1,-65.65C122.12,-56.33 145.47,-40.8 162.38,-29.56"/>
<polygon fill="red" stroke="red" stroke-width="0.18" points="164.62,-32.28 171.01,-23.82 160.74,-26.45 164.62,-32.28"/>
</g>
<!-- &#45;2 -->
<g id="node2" class="node">
<title>&#45;2</title>
<polygon fill="lightgray" stroke="black" points="150,-83.7 126,-83.7 126,-65.7 150,-65.7 150,-83.7"/>
<text text-anchor="middle" x="138" y="-72.5" font-family="Times New Roman,serif" font-size="9.00">&#45;2</text>
</g>
<!-- &#45;2&#45;&gt;0 -->
<g id="edge3" class="edge">
<title>&#45;2&#45;&gt;0</title>
<path fill="none" stroke="red" stroke-width="0.28" stroke-dasharray="1,5" d="M137.58,-65.65C137.24,-59.05 136.74,-49.33 136.26,-40.23"/>
<polygon fill="red" stroke="red" stroke-width="0.28" points="139.75,-39.86 135.74,-30.06 132.76,-40.22 139.75,-39.86"/>
</g>
<!-- &#45;2&#45;&gt;1 -->
<g id="edge4" class="edge">
<title>&#45;2&#45;&gt;1</title>
<path fill="none" stroke="green" stroke-width="0.11" d="M144.26,-65.65C150.37,-57.8 159.91,-45.53 167.99,-35.14"/>
<polygon fill="green" stroke="green" stroke-width="0.11" points="170.95,-37.04 174.33,-26.99 165.43,-32.74 170.95,-37.04"/>
</g>
<!-- &#45;3 -->
<g id="node3" class="node">
<title>&#45;3</title>
<polygon fill="lightgray" stroke="black" points="192,-83.7 168,-83.7 168,-65.7 192,-65.7 192,-83.7"/>
<text text-anchor="middle" x="180" y="-72.5" font-family="Times New Roman,serif" font-size="9.00">&#45;3</text>
</g>
<!-- &#45;3&#45;&gt;0 -->
<g id="edge5" class="edge">
<title>&#45;3&#45;&gt;0</title>
<path fill="none" stroke="green" stroke-width="0.14" d="M173.74,-65.65C167.63,-57.8 158.09,-45.53 150.01,-35.14"/>
<polygon fill="green" stroke="green" stroke-width="0.14" points="152.57,-32.74 143.67,-26.99 147.05,-37.04 152.57,-32.74"/>
</g>
<!-- &#45;3&#45;&gt;1 -->
<g id="edge6" class="edge">
<title>&#45;3&#45;&gt;1</title>
<path fill="none" stroke="green" stroke-width="0.33" d="M180.42,-65.65C180.76,-59.05 181.26,-49.33 181.74,-40.23"/>
<polygon fill="green" stroke="green" stroke-width="0.33" points="185.24,-40.22 182.26,-30.06 178.25,-39.86 185.24,-40.22"/>
</g>
<!-- &#45;4 -->
<g id="node4" class="node">
<title>&#45;4</title>
<polygon fill="lightgray" stroke="black" points="234,-83.7 210,-83.7 210,-65.7 234,-65.7 234,-83.7"/>
<text text-anchor="middle" x="222" y="-72.5" font-family="Times New Roman,serif" font-size="9.00">&#45;4</text>
</g>
<!-- &#45;4&#45;&gt;0 -->
<g id="edge7" class="edge">
<title>&#45;4&#45;&gt;0</title>
<path fill="none" stroke="green" stroke-width="0.49" d="M209.9,-65.65C195.88,-56.33 172.53,-40.8 155.62,-29.56"/>
<polygon fill="green" stroke="green" stroke-width="0.49" points="157.26,-26.45 146.99,-23.82 153.38,-32.28 157.26,-26.45"/>
</g>
<!-- &#45;4&#45;&gt;1 -->
<g id="edge8" class="edge">
<title>&#45;4&#45;&gt;1</title>
<path fill="none" stroke="green" stroke-width="0.15" d="M216.58,-65.65C211.46,-58.07 203.58,-46.37 196.74,-36.22"/>
<polygon fill="green" stroke="green" stroke-width="0.15" points="199.58,-34.18 191.09,-27.84 193.77,-38.09 199.58,-34.18"/>
</g>
<!-- &#45;5 -->
<g id="node5" class="node">
<title>&#45;5</title>
<polygon fill="lightgray" stroke="black" points="276,-83.7 252,-83.7 252,-65.7 276,-65.7 276,-83.7"/>
<text text-anchor="middle" x="264" y="-72.5" font-family="Times New Roman,serif" font-size="9.00">&#45;5</text>
</g>
<!-- &#45;5&#45;&gt;0 -->
<g id="edge9" class="edge">
<title>&#45;5&#45;&gt;0</title>
<path fill="none" stroke="green" stroke-width="0.18" d="M251.9,-68.85C228.15,-59.31 176.27,-38.26 159,-29.7 158.17,-29.29 157.33,-28.86 156.48,-28.42"/>
<polygon fill="green" stroke="green" stroke-width="0.18" points="157.99,-25.25 147.54,-23.49 154.61,-31.38 157.99,-25.25"/>
</g>
<!-- &#45;5&#45;&gt;1 -->
<g id="edge10" class="edge">
<title>&#45;5&#45;&gt;1</title>
<path fill="none" stroke="green" stroke-width="0.21" d="M252.74,-65.65C239.95,-56.52 218.82,-41.43 203.17,-30.26"/>
<polygon fill="green" stroke="green" stroke-width="0.21" points="204.86,-27.16 194.69,-24.2 200.8,-32.86 204.86,-27.16"/>
</g>
<!-- &#45;6 -->
<g id="node6" class="node">
<title>&#45;6</title>
<polygon fill="lightgray" stroke="black" points="318,-83.7 294,-83.7 294,-65.7 318,-65.7 318,-83.7"/>
<text text-anchor="middle" x="306" y="-72.5" font-family="Times New Roman,serif" font-size="9.00">&#45;6</text>
</g>
<!-- &#45;6&#45;&gt;0 -->
<g id="edge11" class="edge">
<title>&#45;6&#45;&gt;0</title>
<path fill="none" stroke="green" stroke-width="0.53" d="M293.63,-68.78C290.81,-67.72 287.81,-66.63 285,-65.7 229.74,-47.31 212.62,-52.42 159,-29.7 158.15,-29.34 157.29,-28.95 156.43,-28.55"/>
<polygon fill="green" stroke="green" stroke-width="0.53" points="157.88,-25.36 147.41,-23.78 154.61,-31.55 157.88,-25.36"/>
</g>
<!-- &#45;6&#45;&gt;1 -->
<g id="edge12" class="edge">
<title>&#45;6&#45;&gt;1</title>
<path fill="none" stroke="red" stroke-width="0.24" d="M293.76,-67.94C273.17,-58.26 231.35,-38.59 205.4,-26.38"/>
<polygon fill="red" stroke="red" stroke-width="0.24" points="206.84,-23.2 196.31,-22.11 203.87,-29.53 206.84,-23.2"/>
</g>
<!-- &#45;7 -->
<g id="node7" class="node">
<title>&#45;7</title>
<polygon fill="lightgray" stroke="black" points="24,-83.7 0,-83.7 0,-65.7 24,-65.7 24,-83.7"/>
<text text-anchor="middle" x="12" y="-72.5" font-family="Times New Roman,serif" font-size="9.00">&#45;7</text>
</g>
<!-- &#45;7&#45;&gt;0 -->
<g id="edge13" class="edge">
<title>&#45;7&#45;&gt;0</title>
<path fill="none" stroke="red" stroke-width="0.28" d="M24.24,-67.94C44.83,-58.26 86.65,-38.59 112.6,-26.38"/>
<polygon fill="red" stroke="red" stroke-width="0.28" points="114.13,-29.53 121.69,-22.11 111.16,-23.2 114.13,-29.53"/>
</g>
<!-- &#45;7&#45;&gt;1 -->
<g id="edge14" class="edge">
<title>&#45;7&#45;&gt;1</title>
<path fill="none" stroke="green" stroke-width="0.17" d="M24.37,-68.78C27.19,-67.72 30.19,-66.63 33,-65.7 88.26,-47.31 105.38,-52.42 159,-29.7 159.85,-29.34 160.71,-28.95 161.57,-28.55"/>
<polygon fill="green" stroke="green" stroke-width="0.17" points="163.39,-31.55 170.59,-23.78 160.12,-25.36 163.39,-31.55"/>
</g>
<!-- &#45;8 -->
<g id="node8" class="node">
<title>&#45;8</title>
<polygon fill="lightgray" stroke="black" points="66,-83.7 42,-83.7 42,-65.7 66,-65.7 66,-83.7"/>
<text text-anchor="middle" x="54" y="-72.5" font-family="Times New Roman,serif" font-size="9.00">&#45;8</text>
</g>
<!-- &#45;8&#45;&gt;0 -->
<g id="edge15" class="edge">
<title>&#45;8&#45;&gt;0</title>
<path fill="none" stroke="red" stroke-width="0.11" d="M65.26,-65.65C78.05,-56.52 99.18,-41.43 114.83,-30.26"/>
<polygon fill="red" stroke="red" stroke-width="0.11" points="117.2,-32.86 123.31,-24.2 113.14,-27.16 117.2,-32.86"/>
</g>
<!-- &#45;8&#45;&gt;1 -->
<g id="edge16" class="edge">
<title>&#45;8&#45;&gt;1</title>
<path fill="none" stroke="green" stroke-width="0.26" d="M66.1,-68.85C89.85,-59.31 141.73,-38.26 159,-29.7 159.83,-29.29 160.67,-28.86 161.52,-28.42"/>
<polygon fill="green" stroke="green" stroke-width="0.26" points="163.39,-31.38 170.46,-23.49 160.01,-25.25 163.39,-31.38"/>
</g>
</g>
</svg>
