<?xml version="1.0" encoding="UTF-8" standalone="no"?>
<!DOCTYPE svg PUBLIC "-//W3C//DTD SVG 1.1//EN"
 "http://www.w3.org/Graphics/SVG/1.1/DTD/svg11.dtd">
<!-- Generated by graphviz version 2.47.0 (20210316.0004)
 -->
<!-- Pages: 1 -->
<svg width="354pt" height="223pt"
 viewBox="0.00 0.00 353.74 223.10" xmlns="http://www.w3.org/2000/svg" xmlns:xlink="http://www.w3.org/1999/xlink">
<g id="graph0" class="graph" transform="scale(1 1) rotate(0) translate(4 219.1)">
<polygon fill="white" stroke="transparent" points="-4,4 -4,-219.1 349.74,-219.1 349.74,4 -4,4"/>
<!-- &#45;1 -->
<g id="node1" class="node">
<title>&#45;1</title>
<polygon fill="lightgray" stroke="black" points="24,-215.1 0,-215.1 0,-197.1 24,-197.1 24,-215.1"/>
<text text-anchor="middle" x="12" y="-203.9" font-family="Times New Roman,serif" font-size="9.00">&#45;1</text>
</g>
<!-- 0 -->
<g id="node9" class="node">
<title>0</title>
<ellipse fill="lightblue" stroke="black" cx="169" cy="-146.25" rx="14.7" ry="14.7"/>
<text text-anchor="middle" x="169" y="-144.05" font-family="Times New Roman,serif" font-size="9.00">0</text>
</g>
<!-- &#45;1&#45;&gt;0 -->
<g id="edge1" class="edge">
<title>&#45;1&#45;&gt;0</title>
<path fill="none" stroke="green" stroke-width="0.26" d="M24.43,-200.33C27.24,-199.26 30.22,-198.13 33,-197.1 72.48,-182.34 118.55,-165.54 145.67,-155.7"/>
<polygon fill="green" stroke="green" stroke-width="0.26" points="146.87,-158.98 155.08,-152.28 144.48,-152.4 146.87,-158.98"/>
</g>
<!-- 1 -->
<g id="node10" class="node">
<title>1</title>
<ellipse fill="lightblue" stroke="black" cx="212" cy="-14.85" rx="14.7" ry="14.7"/>
<text text-anchor="middle" x="212" y="-12.65" font-family="Times New Roman,serif" font-size="9.00">1</text>
</g>
<!-- &#45;1&#45;&gt;1 -->
<g id="edge2" class="edge">
<title>&#45;1&#45;&gt;1</title>
<path fill="none" stroke="red" stroke-width="0.31" d="M15.87,-196.77C27.14,-173.3 62.14,-105.72 109,-65.7 132.74,-45.43 166.13,-31.26 188.39,-23.34"/>
<polygon fill="red" stroke="red" stroke-width="0.31" points="189.71,-26.59 198.05,-20.05 187.45,-19.97 189.71,-26.59"/>
</g>
<!-- &#45;2 -->
<g id="node2" class="node">
<title>&#45;2</title>
<polygon fill="lightgray" stroke="black" points="66,-215.1 42,-215.1 42,-197.1 66,-197.1 66,-215.1"/>
<text text-anchor="middle" x="54" y="-203.9" font-family="Times New Roman,serif" font-size="9.00">&#45;2</text>
</g>
<!-- &#45;2&#45;&gt;0 -->
<g id="edge3" class="edge">
<title>&#45;2&#45;&gt;0</title>
<path fill="none" stroke="green" stroke-width="0.42" d="M66.31,-198.9C85.56,-189.22 123.06,-170.35 147.03,-158.3"/>
<polygon fill="green" stroke="green" stroke-width="0.42" points="148.72,-161.37 156.08,-153.75 145.57,-155.11 148.72,-161.37"/>
</g>
<!-- &#45;2&#45;&gt;1 -->
<g id="edge4" class="edge">
<title>&#45;2&#45;&gt;1</title>
<path fill="none" stroke="green" stroke-width="0.11" d="M57.18,-197.02C66.49,-174.21 95.53,-108.19 136,-65.7 151.5,-49.42 173.28,-35.83 189.55,-26.97"/>
<polygon fill="green" stroke="green" stroke-width="0.11" points="191.64,-29.82 198.87,-22.08 188.39,-23.63 191.64,-29.82"/>
</g>
<!-- &#45;3 -->
<g id="node3" class="node">
<title>&#45;3</title>
<polygon fill="lightgray" stroke="black" points="108,-215.1 84,-215.1 84,-197.1 108,-197.1 108,-215.1"/>
<text text-anchor="middle" x="96" y="-203.9" font-family="Times New Roman,serif" font-size="9.00">&#45;3</text>
</g>
<!-- &#45;3&#45;&gt;0 -->
<g id="edge5" class="edge">
<title>&#45;3&#45;&gt;0</title>
<path fill="none" stroke="green" stroke-width="0.19" d="M106.15,-197.05C117.31,-188.21 135.51,-173.79 149.46,-162.73"/>
<polygon fill="green" stroke="green" stroke-width="0.19" points="151.83,-165.32 157.49,-156.36 147.48,-159.83 151.83,-165.32"/>
</g>
<!-- &#45;3&#45;&gt;1 -->
<g id="edge6" class="edge">
<title>&#45;3&#45;&gt;1</title>
<path fill="none" stroke="red" stroke-width="0.21" d="M98.25,-196.94C104.7,-174.45 124.92,-110.31 157,-65.7 166.71,-52.19 180.62,-39.63 192.01,-30.5"/>
<polygon fill="red" stroke="red" stroke-width="0.21" points="194.36,-33.11 200.13,-24.22 190.08,-27.57 194.36,-33.11"/>
</g>
<!-- &#45;4 -->
<g id="node4" class="node">
<title>&#45;4</title>
<polygon fill="lightgray" stroke="black" points="150,-215.1 126,-215.1 126,-197.1 150,-197.1 150,-215.1"/>
<text text-anchor="middle" x="138" y="-203.9" font-family="Times New Roman,serif" font-size="9.00">&#45;4</text>
</g>
<!-- &#45;4&#45;&gt;0 -->
<g id="edge7" class="edge">
<title>&#45;4&#45;&gt;0</title>
<path fill="none" stroke="red" stroke-width="0.21" d="M142.31,-197.05C146.24,-189.71 152.24,-178.53 157.55,-168.62"/>
<polygon fill="red" stroke="red" stroke-width="0.21" points="160.7,-170.14 162.34,-159.67 154.53,-166.84 160.7,-170.14"/>
</g>
<!-- &#45;4&#45;&gt;1 -->
<g id="edge8" class="edge">
<title>&#45;4&#45;&gt;1</title>
<path fill="none" stroke="green" stroke-width="0.62" d="M137.65,-196.68C137.32,-182.75 137.71,-154.16 145,-131.4 156.69,-94.91 181.2,-57.39 197.11,-35.36"/>
<polygon fill="green" stroke="green" stroke-width="0.62" points="200.03,-37.31 203.15,-27.19 194.39,-33.16 200.03,-37.31"/>
</g>
<!-- &#45;5 -->
<g id="node5" class="node">
<title>&#45;5</title>
<polygon fill="lightgray" stroke="black" points="192,-215.1 168,-215.1 168,-197.1 192,-197.1 192,-215.1"/>
<text text-anchor="middle" x="180" y="-203.9" font-family="Times New Roman,serif" font-size="9.00">&#45;5</text>
</g>
<!-- &#45;5&#45;&gt;0 -->
<g id="edge9" class="edge">
<title>&#45;5&#45;&gt;0</title>
<path fill="none" stroke="green" stroke-width="0.11" d="M178.47,-197.05C177.18,-190.28 175.28,-180.25 173.51,-170.96"/>
<polygon fill="green" stroke="green" stroke-width="0.11" points="176.92,-170.17 171.62,-161 170.05,-171.48 176.92,-170.17"/>
</g>
<!-- &#45;5&#45;&gt;1 -->
<g id="edge10" class="edge">
<title>&#45;5&#45;&gt;1</title>
<path fill="none" stroke="red" stroke-width="0.13" d="M182.78,-197.08C185.72,-188.34 190.29,-173.88 193,-161.1 201.92,-118.96 207.36,-69 210.01,-40.02"/>
<polygon fill="red" stroke="red" stroke-width="0.13" points="213.5,-40.26 210.89,-29.99 206.53,-39.65 213.5,-40.26"/>
</g>
<!-- &#45;6 -->
<g id="node6" class="node">
<title>&#45;6</title>
<polygon fill="lightgray" stroke="black" points="234,-215.1 210,-215.1 210,-197.1 234,-197.1 234,-215.1"/>
<text text-anchor="middle" x="222" y="-203.9" font-family="Times New Roman,serif" font-size="9.00">&#45;6</text>
</g>
<!-- &#45;6&#45;&gt;0 -->
<g id="edge11" class="edge">
<title>&#45;6&#45;&gt;0</title>
<path fill="none" stroke="green" stroke-width="0.2" d="M214.63,-197.05C207.2,-188.94 195.46,-176.13 185.75,-165.53"/>
<polygon fill="green" stroke="green" stroke-width="0.2" points="188.17,-162.98 178.83,-157.97 183,-167.71 188.17,-162.98"/>
</g>
<!-- &#45;6&#45;&gt;1 -->
<g id="edge12" class="edge">
<title>&#45;6&#45;&gt;1</title>
<path fill="none" stroke="green" stroke-width="0.36" d="M223.18,-196.87C226.07,-175.26 232.81,-115.11 226,-65.7 224.78,-56.81 222.38,-47.27 219.91,-38.94"/>
<polygon fill="green" stroke="green" stroke-width="0.36" points="223.17,-37.66 216.82,-29.18 216.5,-39.77 223.17,-37.66"/>
</g>
<!-- &#45;7 -->
<g id="node7" class="node">
<title>&#45;7</title>
<polygon fill="lightgray" stroke="black" points="318,-215.1 294,-215.1 294,-197.1 318,-197.1 318,-215.1"/>
<text text-anchor="middle" x="306" y="-203.9" font-family="Times New Roman,serif" font-size="9.00">&#45;7</text>
</g>
<!-- &#45;7&#45;&gt;0 -->
<g id="edge13" class="edge">
<title>&#45;7&#45;&gt;0</title>
<path fill="none" stroke="green" stroke-width="0.4" d="M293.84,-199.96C271,-190.31 221.32,-169.34 191.99,-156.95"/>
<polygon fill="green" stroke="green" stroke-width="0.4" points="193.11,-153.63 182.54,-152.96 190.39,-160.08 193.11,-153.63"/>
</g>
<!-- &#45;7&#45;&gt;1 -->
<g id="edge14" class="edge">
<title>&#45;7&#45;&gt;1</title>
<path fill="none" stroke="green" stroke-width="0.36" stroke-dasharray="1,5" d="M311.49,-197.06C326.27,-174.34 363.87,-108.54 335,-65.7 313.2,-33.33 266.41,-21.98 237.24,-17.99"/>
<polygon fill="green" stroke="green" stroke-width="0.36" points="237.34,-14.48 227.01,-16.8 236.53,-21.43 237.34,-14.48"/>
</g>
<!-- 3 -->
<g id="node11" class="node">
<title>3</title>
<ellipse fill="white" stroke="black" cx="293" cy="-80.55" rx="14.7" ry="14.7"/>
<text text-anchor="middle" x="293" y="-78.35" font-family="Times New Roman,serif" font-size="9.00">3</text>
</g>
<!-- &#45;7&#45;&gt;3 -->
<g id="edge17" class="edge">
<title>&#45;7&#45;&gt;3</title>
<path fill="none" stroke="green" stroke-width="0.3" d="M305.15,-196.99C303.23,-178.79 298.53,-134.08 295.57,-105.95"/>
<polygon fill="green" stroke="green" stroke-width="0.3" points="299.02,-105.3 294.49,-95.72 292.06,-106.03 299.02,-105.3"/>
</g>
<!-- &#45;8 -->
<g id="node8" class="node">
<title>&#45;8</title>
<polygon fill="lightgray" stroke="black" points="276,-215.1 252,-215.1 252,-197.1 276,-197.1 276,-215.1"/>
<text text-anchor="middle" x="264" y="-203.9" font-family="Times New Roman,serif" font-size="9.00">&#45;8</text>
</g>
<!-- &#45;8&#45;&gt;0 -->
<g id="edge15" class="edge">
<title>&#45;8&#45;&gt;0</title>
<path fill="none" stroke="green" stroke-width="0.12" d="M251.97,-197.77C236.35,-188.26 208.85,-171.51 189.81,-159.92"/>
<polygon fill="green" stroke="green" stroke-width="0.12" points="191.6,-156.91 181.23,-154.7 187.95,-162.89 191.6,-156.91"/>
</g>
<!-- &#45;8&#45;&gt;1 -->
<g id="edge16" class="edge">
<title>&#45;8&#45;&gt;1</title>
<path fill="none" stroke="green" stroke-width="0.23" d="M271.93,-197.03C292.8,-174.79 345.78,-111.22 317,-65.7 299.45,-37.94 261.78,-25.33 236.66,-19.82"/>
<polygon fill="green" stroke="green" stroke-width="0.23" points="237.25,-16.37 226.76,-17.88 235.9,-23.24 237.25,-16.37"/>
</g>
<!-- 0&#45;&gt;3 -->
<g id="edge19" class="edge">
<title>0&#45;&gt;3</title>
<path fill="none" stroke="green" stroke-width="0.46" d="M181.8,-138.67C202.87,-127.85 245.1,-106.15 271.02,-92.84"/>
<polygon fill="green" stroke="green" stroke-width="0.46" points="272.79,-95.87 280.08,-88.18 269.59,-89.64 272.79,-95.87"/>
</g>
<!-- 3&#45;&gt;1 -->
<g id="edge18" class="edge">
<title>3&#45;&gt;1</title>
<path fill="none" stroke="green" stroke-width="0.34" d="M281.74,-70.69C268.75,-60.48 247.19,-43.52 231.47,-31.16"/>
<polygon fill="green" stroke="green" stroke-width="0.34" points="233.45,-28.27 223.43,-24.84 229.13,-33.77 233.45,-28.27"/>
</g>
</g>
</svg>
