<?xml version="1.0" encoding="UTF-8" standalone="no"?>
<!DOCTYPE svg PUBLIC "-//W3C//DTD SVG 1.1//EN"
 "http://www.w3.org/Graphics/SVG/1.1/DTD/svg11.dtd">
<!-- Generated by graphviz version 2.47.0 (20210316.0004)
 -->
<!-- Pages: 1 -->
<svg width="555pt" height="303pt"
 viewBox="0.00 0.00 554.79 302.94" xmlns="http://www.w3.org/2000/svg" xmlns:xlink="http://www.w3.org/1999/xlink">
<g id="graph0" class="graph" transform="scale(1 1) rotate(0) translate(4 298.94)">
<polygon fill="white" stroke="transparent" points="-4,4 -4,-298.94 550.79,-298.94 550.79,4 -4,4"/>
<!-- &#45;1 -->
<g id="node1" class="node">
<title>&#45;1</title>
<polygon fill="lightgray" stroke="black" points="66,-231.55 42,-231.55 42,-213.55 66,-213.55 66,-231.55"/>
<text text-anchor="middle" x="54" y="-220.35" font-family="Times New Roman,serif" font-size="9.00">&#45;1</text>
</g>
<!-- 0 -->
<g id="node9" class="node">
<title>0</title>
<ellipse fill="lightblue" stroke="black" cx="155" cy="-153.32" rx="14.7" ry="14.7"/>
<text text-anchor="middle" x="155" y="-151.12" font-family="Times New Roman,serif" font-size="9.00">0</text>
</g>
<!-- &#45;1&#45;&gt;0 -->
<g id="edge1" class="edge">
<title>&#45;1&#45;&gt;0</title>
<path fill="none" stroke="green" stroke-width="0.15" d="M63.19,-213.49C66.79,-210.45 71.01,-207.04 75,-204.17 94.2,-190.33 117.24,-176.22 133.65,-166.56"/>
<polygon fill="green" stroke="green" stroke-width="0.15" points="135.59,-169.48 142.47,-161.42 132.07,-163.43 135.59,-169.48"/>
</g>
<!-- &#45;2 -->
<g id="node2" class="node">
<title>&#45;2</title>
<polygon fill="lightgray" stroke="black" points="310,-231.55 286,-231.55 286,-213.55 310,-213.55 310,-231.55"/>
<text text-anchor="middle" x="298" y="-220.35" font-family="Times New Roman,serif" font-size="9.00">&#45;2</text>
</g>
<!-- &#45;2&#45;&gt;0 -->
<g id="edge2" class="edge">
<title>&#45;2&#45;&gt;0</title>
<path fill="none" stroke="green" stroke-width="0.12" d="M289.46,-213.47C285.81,-210.3 281.39,-206.79 277,-204.17 244.91,-184.95 204.06,-169.95 178.71,-161.61"/>
<polygon fill="green" stroke="green" stroke-width="0.12" points="179.78,-158.28 169.19,-158.56 177.64,-164.94 179.78,-158.28"/>
</g>
<!-- 1 -->
<g id="node10" class="node">
<title>1</title>
<ellipse fill="lightblue" stroke="black" cx="317" cy="-14.85" rx="14.7" ry="14.7"/>
<text text-anchor="middle" x="317" y="-12.65" font-family="Times New Roman,serif" font-size="9.00">1</text>
</g>
<!-- &#45;2&#45;&gt;1 -->
<g id="edge3" class="edge">
<title>&#45;2&#45;&gt;1</title>
<path fill="none" stroke="green" stroke-width="0.23" d="M298.74,-213.49C301.41,-184.61 310.56,-85.61 314.8,-39.65"/>
<polygon fill="green" stroke="green" stroke-width="0.23" points="318.29,-39.96 315.72,-29.68 311.32,-39.31 318.29,-39.96"/>
</g>
<!-- 9 -->
<g id="node12" class="node">
<title>9</title>
<ellipse fill="white" stroke="black" cx="382" cy="-153.32" rx="14.7" ry="14.7"/>
<text text-anchor="middle" x="382" y="-151.12" font-family="Times New Roman,serif" font-size="9.00">9</text>
</g>
<!-- &#45;2&#45;&gt;9 -->
<g id="edge14" class="edge">
<title>&#45;2&#45;&gt;9</title>
<path fill="none" stroke="green" stroke-width="0.38" d="M308.3,-213.31C321.8,-202.5 345.76,-183.32 362.69,-169.77"/>
<polygon fill="green" stroke="green" stroke-width="0.38" points="365.19,-172.25 370.81,-163.27 360.82,-166.79 365.19,-172.25"/>
</g>
<!-- &#45;3 -->
<g id="node3" class="node">
<title>&#45;3</title>
<polygon fill="lightgray" stroke="black" points="465,-294.94 441,-294.94 441,-276.94 465,-276.94 465,-294.94"/>
<text text-anchor="middle" x="453" y="-283.74" font-family="Times New Roman,serif" font-size="9.00">&#45;3</text>
</g>
<!-- &#45;3&#45;&gt;0 -->
<g id="edge4" class="edge">
<title>&#45;3&#45;&gt;0</title>
<path fill="none" stroke="red" stroke-width="0.38" d="M440.87,-283.57C392.22,-277.98 212.94,-256.49 193,-240.94 173.35,-225.61 163.65,-198.02 159,-178.09"/>
<polygon fill="red" stroke="red" stroke-width="0.38" points="162.41,-177.29 156.96,-168.21 155.55,-178.71 162.41,-177.29"/>
</g>
<!-- &#45;3&#45;&gt;1 -->
<g id="edge5" class="edge">
<title>&#45;3&#45;&gt;1</title>
<path fill="none" stroke="green" stroke-width="0.15" stroke-dasharray="1,5" d="M465.03,-281.2C481.15,-275.46 509.11,-262.8 521,-240.94 558.42,-172.16 556.72,-122.66 503,-65.7 480.96,-42.33 387.21,-25.96 341.82,-19.24"/>
<polygon fill="green" stroke="green" stroke-width="0.15" points="342.05,-15.74 331.65,-17.78 341.05,-22.67 342.05,-15.74"/>
</g>
<!-- &#45;3&#45;&gt;9 -->
<g id="edge18" class="edge">
<title>&#45;3&#45;&gt;9</title>
<path fill="none" stroke="red" stroke-width="0.27" stroke-dasharray="1,5" d="M448.95,-276.84C441.6,-262.22 425.48,-230.47 411,-204.17 405.75,-194.63 399.73,-184.21 394.54,-175.37"/>
<polygon fill="red" stroke="red" stroke-width="0.27" points="397.41,-173.35 389.31,-166.52 391.39,-176.91 397.41,-173.35"/>
</g>
<!-- 17 -->
<g id="node13" class="node">
<title>17</title>
<ellipse fill="white" stroke="black" cx="476" cy="-84.08" rx="18.27" ry="18.27"/>
<text text-anchor="middle" x="476" y="-81.88" font-family="Times New Roman,serif" font-size="9.00">17</text>
</g>
<!-- &#45;3&#45;&gt;17 -->
<g id="edge16" class="edge">
<title>&#45;3&#45;&gt;17</title>
<path fill="none" stroke="green" stroke-width="0.29" d="M465.15,-278.4C477.31,-271.09 495.28,-258.01 503,-240.94 522.5,-197.81 503.5,-142.11 489.01,-110.32"/>
<polygon fill="green" stroke="green" stroke-width="0.29" points="491.98,-108.4 484.52,-100.88 485.66,-111.41 491.98,-108.4"/>
</g>
<!-- 82 -->
<g id="node14" class="node">
<title>82</title>
<ellipse fill="white" stroke="black" cx="384" cy="-222.55" rx="18.27" ry="18.27"/>
<text text-anchor="middle" x="384" y="-220.35" font-family="Times New Roman,serif" font-size="9.00">82</text>
</g>
<!-- &#45;3&#45;&gt;82 -->
<g id="edge22" class="edge">
<title>&#45;3&#45;&gt;82</title>
<path fill="none" stroke="red" stroke-width="0.12" d="M443.98,-276.91C434.12,-268.14 417.98,-253.78 404.93,-242.17"/>
<polygon fill="red" stroke="red" stroke-width="0.12" points="407.08,-239.4 397.28,-235.37 402.43,-244.63 407.08,-239.4"/>
</g>
<!-- 91 -->
<g id="node15" class="node">
<title>91</title>
<ellipse fill="white" stroke="black" cx="476" cy="-222.55" rx="18.27" ry="18.27"/>
<text text-anchor="middle" x="476" y="-220.35" font-family="Times New Roman,serif" font-size="9.00">91</text>
</g>
<!-- &#45;3&#45;&gt;91 -->
<g id="edge24" class="edge">
<title>&#45;3&#45;&gt;91</title>
<path fill="none" stroke="green" stroke-width="0.3" d="M456.01,-276.91C458.62,-269.94 462.55,-259.44 466.24,-249.6"/>
<polygon fill="green" stroke="green" stroke-width="0.3" points="469.56,-250.72 469.79,-240.13 463,-248.27 469.56,-250.72"/>
</g>
<!-- &#45;4 -->
<g id="node4" class="node">
<title>&#45;4</title>
<polygon fill="lightgray" stroke="black" points="108,-231.55 84,-231.55 84,-213.55 108,-213.55 108,-231.55"/>
<text text-anchor="middle" x="96" y="-220.35" font-family="Times New Roman,serif" font-size="9.00">&#45;4</text>
</g>
<!-- &#45;4&#45;&gt;0 -->
<g id="edge6" class="edge">
<title>&#45;4&#45;&gt;0</title>
<path fill="none" stroke="green" stroke-width="0.4" stroke-dasharray="1,5" d="M103.23,-213.31C112,-203.32 127.04,-186.18 138.65,-172.95"/>
<polygon fill="green" stroke="green" stroke-width="0.4" points="141.39,-175.13 145.36,-165.31 136.13,-170.51 141.39,-175.13"/>
</g>
<!-- &#45;5 -->
<g id="node5" class="node">
<title>&#45;5</title>
<polygon fill="lightgray" stroke="black" points="24,-231.55 0,-231.55 0,-213.55 24,-213.55 24,-231.55"/>
<text text-anchor="middle" x="12" y="-220.35" font-family="Times New Roman,serif" font-size="9.00">&#45;5</text>
</g>
<!-- &#45;5&#45;&gt;0 -->
<g id="edge7" class="edge">
<title>&#45;5&#45;&gt;0</title>
<path fill="none" stroke="green" stroke-width="0.27" d="M20.54,-213.47C24.19,-210.3 28.61,-206.79 33,-204.17 65.09,-184.95 105.94,-169.95 131.29,-161.61"/>
<polygon fill="green" stroke="green" stroke-width="0.27" points="132.36,-164.94 140.81,-158.56 130.22,-158.28 132.36,-164.94"/>
</g>
<!-- &#45;5&#45;&gt;1 -->
<g id="edge8" class="edge">
<title>&#45;5&#45;&gt;1</title>
<path fill="none" stroke="green" stroke-width="0.52" d="M21.66,-213.21C25.17,-210.27 29.21,-207 33,-204.17 128.13,-133.19 248.58,-57.8 296.24,-28.51"/>
<polygon fill="green" stroke="green" stroke-width="0.52" points="298.07,-31.49 304.77,-23.28 294.41,-25.52 298.07,-31.49"/>
</g>
<!-- &#45;6 -->
<g id="node6" class="node">
<title>&#45;6</title>
<polygon fill="lightgray" stroke="black" points="226,-231.55 202,-231.55 202,-213.55 226,-213.55 226,-231.55"/>
<text text-anchor="middle" x="214" y="-220.35" font-family="Times New Roman,serif" font-size="9.00">&#45;6</text>
</g>
<!-- &#45;6&#45;&gt;0 -->
<g id="edge9" class="edge">
<title>&#45;6&#45;&gt;0</title>
<path fill="none" stroke="red" stroke-width="0.12" d="M206.77,-213.31C198,-203.32 182.96,-186.18 171.35,-172.95"/>
<polygon fill="red" stroke="red" stroke-width="0.12" points="173.87,-170.51 164.64,-165.31 168.61,-175.13 173.87,-170.51"/>
</g>
<!-- &#45;6&#45;&gt;1 -->
<g id="edge10" class="edge">
<title>&#45;6&#45;&gt;1</title>
<path fill="none" stroke="red" stroke-width="0.29" d="M217.51,-213.29C227.55,-189.81 257.62,-120.8 287,-65.7 292.22,-55.91 298.48,-45.34 303.93,-36.47"/>
<polygon fill="red" stroke="red" stroke-width="0.29" points="306.93,-38.28 309.24,-27.94 300.99,-34.58 306.93,-38.28"/>
</g>
<!-- &#45;7 -->
<g id="node7" class="node">
<title>&#45;7</title>
<polygon fill="lightgray" stroke="black" points="268,-231.55 244,-231.55 244,-213.55 268,-213.55 268,-231.55"/>
<text text-anchor="middle" x="256" y="-220.35" font-family="Times New Roman,serif" font-size="9.00">&#45;7</text>
</g>
<!-- &#45;7&#45;&gt;0 -->
<g id="edge11" class="edge">
<title>&#45;7&#45;&gt;0</title>
<path fill="none" stroke="green" stroke-width="0.24" d="M246.81,-213.49C243.21,-210.45 238.99,-207.04 235,-204.17 215.8,-190.33 192.76,-176.22 176.35,-166.56"/>
<polygon fill="green" stroke="green" stroke-width="0.24" points="177.93,-163.43 167.53,-161.42 174.41,-169.48 177.93,-163.43"/>
</g>
<!-- &#45;7&#45;&gt;1 -->
<g id="edge12" class="edge">
<title>&#45;7&#45;&gt;1</title>
<path fill="none" stroke="red" stroke-width="0.51" d="M258.39,-213.49C266.99,-184.48 296.58,-84.71 310.13,-39.03"/>
<polygon fill="red" stroke="red" stroke-width="0.51" points="313.5,-39.98 312.98,-29.4 306.78,-37.99 313.5,-39.98"/>
</g>
<!-- &#45;8 -->
<g id="node8" class="node">
<title>&#45;8</title>
<polygon fill="lightgray" stroke="black" points="350,-294.94 326,-294.94 326,-276.94 350,-276.94 350,-294.94"/>
<text text-anchor="middle" x="338" y="-283.74" font-family="Times New Roman,serif" font-size="9.00">&#45;8</text>
</g>
<!-- &#45;8&#45;&gt;0 -->
<g id="edge13" class="edge">
<title>&#45;8&#45;&gt;0</title>
<path fill="none" stroke="red" stroke-width="0.42" d="M325.94,-283.78C289.48,-280.03 181.56,-266.89 160,-240.94 145.61,-223.61 146.32,-196.98 149.41,-177.83"/>
<polygon fill="red" stroke="red" stroke-width="0.42" points="152.88,-178.28 151.34,-167.8 146.01,-176.95 152.88,-178.28"/>
</g>
<!-- &#45;8&#45;&gt;9 -->
<g id="edge21" class="edge">
<title>&#45;8&#45;&gt;9</title>
<path fill="none" stroke="red" stroke-width="0.32" d="M339.28,-276.73C341.72,-261.92 347.67,-229.9 357,-204.17 360.5,-194.51 365.39,-184.3 369.92,-175.65"/>
<polygon fill="red" stroke="red" stroke-width="0.32" points="373.11,-177.12 374.79,-166.66 366.95,-173.79 373.11,-177.12"/>
</g>
<!-- &#45;8&#45;&gt;82 -->
<g id="edge26" class="edge">
<title>&#45;8&#45;&gt;82</title>
<path fill="none" stroke="green" stroke-width="0.13" d="M344.01,-276.91C349.86,-269.12 359,-256.91 367.07,-246.14"/>
<polygon fill="green" stroke="green" stroke-width="0.13" points="370.03,-248.03 373.23,-237.92 364.43,-243.83 370.03,-248.03"/>
</g>
<!-- 34 -->
<g id="node11" class="node">
<title>34</title>
<ellipse fill="white" stroke="black" cx="382" cy="-84.08" rx="18.27" ry="18.27"/>
<text text-anchor="middle" x="382" y="-81.88" font-family="Times New Roman,serif" font-size="9.00">34</text>
</g>
<!-- 34&#45;&gt;1 -->
<g id="edge20" class="edge">
<title>34&#45;&gt;1</title>
<path fill="none" stroke="red" stroke-width="0.17" d="M369.47,-70.12C359.4,-59.7 345.15,-44.96 334.04,-33.48"/>
<polygon fill="red" stroke="red" stroke-width="0.17" points="336.41,-30.89 326.94,-26.13 331.38,-35.76 336.41,-30.89"/>
</g>
<!-- 9&#45;&gt;1 -->
<g id="edge15" class="edge">
<title>9&#45;&gt;1</title>
<path fill="none" stroke="red" stroke-width="0.25" stroke-dasharray="1,5" d="M375.06,-140.17C369.42,-130.17 361.4,-115.55 355,-102.47 344.51,-81.01 333.67,-55.97 326.27,-38.35"/>
<polygon fill="red" stroke="red" stroke-width="0.25" points="329.41,-36.8 322.33,-28.92 322.95,-39.49 329.41,-36.8"/>
</g>
<!-- 9&#45;&gt;34 -->
<g id="edge19" class="edge">
<title>9&#45;&gt;34</title>
<path fill="none" stroke="green" stroke-width="0.3" d="M382,-138.39C382,-131.06 382,-121.8 382,-113.07"/>
<polygon fill="green" stroke="green" stroke-width="0.3" points="385.5,-112.84 382,-102.84 378.5,-112.84 385.5,-112.84"/>
</g>
<!-- 17&#45;&gt;1 -->
<g id="edge17" class="edge">
<title>17&#45;&gt;1</title>
<path fill="none" stroke="green" stroke-width="0.37" d="M459.28,-76.02C430.65,-63.91 372.18,-39.18 339.82,-25.5"/>
<polygon fill="green" stroke="green" stroke-width="0.37" points="340.87,-22.14 330.3,-21.47 338.15,-28.59 340.87,-22.14"/>
</g>
<!-- 82&#45;&gt;9 -->
<g id="edge23" class="edge">
<title>82&#45;&gt;9</title>
<path fill="none" stroke="red" stroke-width="0.21" d="M383.47,-203.89C383.24,-196.12 382.97,-186.87 382.72,-178.48"/>
<polygon fill="red" stroke="red" stroke-width="0.21" points="386.22,-178.37 382.42,-168.48 379.22,-178.58 386.22,-178.37"/>
</g>
<!-- 91&#45;&gt;9 -->
<g id="edge25" class="edge">
<title>91&#45;&gt;9</title>
<path fill="none" stroke="red" stroke-width="0.27" d="M461.31,-211.05C445.39,-199.66 419.89,-181.42 402.12,-168.71"/>
<polygon fill="red" stroke="red" stroke-width="0.27" points="403.79,-165.6 393.62,-162.63 399.72,-171.29 403.79,-165.6"/>
</g>
</g>
</svg>
