<?xml version="1.0" encoding="UTF-8" standalone="no"?>
<!DOCTYPE svg PUBLIC "-//W3C//DTD SVG 1.1//EN"
 "http://www.w3.org/Graphics/SVG/1.1/DTD/svg11.dtd">
<!-- Generated by graphviz version 2.47.0 (20210316.0004)
 -->
<!-- Pages: 1 -->
<svg width="392pt" height="157pt"
 viewBox="0.00 0.00 391.53 157.40" xmlns="http://www.w3.org/2000/svg" xmlns:xlink="http://www.w3.org/1999/xlink">
<g id="graph0" class="graph" transform="scale(1 1) rotate(0) translate(4 153.4)">
<polygon fill="white" stroke="transparent" points="-4,4 -4,-153.4 387.53,-153.4 387.53,4 -4,4"/>
<!-- &#45;1 -->
<g id="node1" class="node">
<title>&#45;1</title>
<polygon fill="lightgray" stroke="black" points="366.26,-149.4 342.26,-149.4 342.26,-131.4 366.26,-131.4 366.26,-149.4"/>
<text text-anchor="middle" x="354.26" y="-138.2" font-family="Times New Roman,serif" font-size="9.00">&#45;1</text>
</g>
<!-- 0 -->
<g id="node9" class="node">
<title>0</title>
<ellipse fill="lightblue" stroke="black" cx="124.26" cy="-14.85" rx="14.7" ry="14.7"/>
<text text-anchor="middle" x="124.26" y="-12.65" font-family="Times New Roman,serif" font-size="9.00">0</text>
</g>
<!-- &#45;1&#45;&gt;0 -->
<g id="edge1" class="edge">
<title>&#45;1&#45;&gt;0</title>
<path fill="none" stroke="green" stroke-width="0.24" d="M341.85,-134.33C338.76,-133.22 335.43,-132.16 332.26,-131.4 268.69,-116.13 83.57,-144.37 40.26,-95.4 16.03,-67.99 68.81,-39.31 101.28,-25.05"/>
<polygon fill="green" stroke="green" stroke-width="0.24" points="102.75,-28.22 110.6,-21.1 100.02,-21.78 102.75,-28.22"/>
</g>
<!-- 1 -->
<g id="node10" class="node">
<title>1</title>
<ellipse fill="lightblue" stroke="black" cx="229.26" cy="-14.85" rx="14.7" ry="14.7"/>
<text text-anchor="middle" x="229.26" y="-12.65" font-family="Times New Roman,serif" font-size="9.00">1</text>
</g>
<!-- &#45;1&#45;&gt;1 -->
<g id="edge2" class="edge">
<title>&#45;1&#45;&gt;1</title>
<path fill="none" stroke="red" stroke-width="0.37" stroke-dasharray="1,5" d="M361.21,-131.36C372.75,-116.99 393.2,-86.45 378.26,-65.7 349.93,-26.35 289.1,-17.61 254.57,-15.94"/>
<polygon fill="red" stroke="red" stroke-width="0.37" points="254.46,-12.44 244.36,-15.62 254.24,-19.44 254.46,-12.44"/>
</g>
<!-- 4 -->
<g id="node11" class="node">
<title>4</title>
<ellipse fill="white" stroke="black" cx="354.26" cy="-80.55" rx="14.7" ry="14.7"/>
<text text-anchor="middle" x="354.26" y="-78.35" font-family="Times New Roman,serif" font-size="9.00">4</text>
</g>
<!-- &#45;1&#45;&gt;4 -->
<g id="edge17" class="edge">
<title>&#45;1&#45;&gt;4</title>
<path fill="none" stroke="green" stroke-width="0.28" d="M354.26,-131.35C354.26,-124.75 354.26,-115.03 354.26,-105.93"/>
<polygon fill="green" stroke="green" stroke-width="0.28" points="357.76,-105.75 354.26,-95.75 350.76,-105.75 357.76,-105.75"/>
</g>
<!-- &#45;2 -->
<g id="node2" class="node">
<title>&#45;2</title>
<polygon fill="lightgray" stroke="black" points="199.26,-89.55 175.26,-89.55 175.26,-71.55 199.26,-71.55 199.26,-89.55"/>
<text text-anchor="middle" x="187.26" y="-78.35" font-family="Times New Roman,serif" font-size="9.00">&#45;2</text>
</g>
<!-- &#45;2&#45;&gt;0 -->
<g id="edge3" class="edge">
<title>&#45;2&#45;&gt;0</title>
<path fill="none" stroke="green" stroke-width="0.2" d="M179.29,-71.48C169.85,-61.94 153.88,-45.8 141.57,-33.35"/>
<polygon fill="green" stroke="green" stroke-width="0.2" points="143.99,-30.82 134.47,-26.17 139.01,-35.74 143.99,-30.82"/>
</g>
<!-- &#45;2&#45;&gt;1 -->
<g id="edge4" class="edge">
<title>&#45;2&#45;&gt;1</title>
<path fill="none" stroke="green" stroke-width="0.34" d="M192.58,-71.48C198.35,-62.73 207.79,-48.42 215.65,-36.5"/>
<polygon fill="green" stroke="green" stroke-width="0.34" points="218.68,-38.26 221.26,-27.99 212.84,-34.41 218.68,-38.26"/>
</g>
<!-- &#45;3 -->
<g id="node3" class="node">
<title>&#45;3</title>
<polygon fill="lightgray" stroke="black" points="241.26,-89.55 217.26,-89.55 217.26,-71.55 241.26,-71.55 241.26,-89.55"/>
<text text-anchor="middle" x="229.26" y="-78.35" font-family="Times New Roman,serif" font-size="9.00">&#45;3</text>
</g>
<!-- &#45;3&#45;&gt;0 -->
<g id="edge5" class="edge">
<title>&#45;3&#45;&gt;0</title>
<path fill="none" stroke="green" stroke-width="0.19" d="M217.33,-71.54C214.39,-69.6 211.23,-67.55 208.26,-65.7 187.16,-52.49 162.64,-38.04 145.55,-28.11"/>
<polygon fill="green" stroke="green" stroke-width="0.19" points="147.31,-25.08 136.9,-23.1 143.8,-31.14 147.31,-25.08"/>
</g>
<!-- &#45;3&#45;&gt;1 -->
<g id="edge6" class="edge">
<title>&#45;3&#45;&gt;1</title>
<path fill="none" stroke="green" stroke-width="0.15" d="M229.26,-71.48C229.26,-63.56 229.26,-51.1 229.26,-39.97"/>
<polygon fill="green" stroke="green" stroke-width="0.15" points="232.76,-39.9 229.26,-29.9 225.76,-39.9 232.76,-39.9"/>
</g>
<!-- &#45;4 -->
<g id="node4" class="node">
<title>&#45;4</title>
<polygon fill="lightgray" stroke="black" points="323.26,-149.4 299.26,-149.4 299.26,-131.4 323.26,-131.4 323.26,-149.4"/>
<text text-anchor="middle" x="311.26" y="-138.2" font-family="Times New Roman,serif" font-size="9.00">&#45;4</text>
</g>
<!-- &#45;4&#45;&gt;0 -->
<g id="edge7" class="edge">
<title>&#45;4&#45;&gt;0</title>
<path fill="none" stroke="red" stroke-width="0.54" d="M299,-139.64C247.07,-140.37 46.09,-140.25 7.26,-95.4 -23.56,-59.79 57.43,-32.89 100.03,-21.64"/>
<polygon fill="red" stroke="red" stroke-width="0.54" points="101.11,-24.97 109.94,-19.12 99.39,-18.19 101.11,-24.97"/>
</g>
<!-- &#45;4&#45;&gt;1 -->
<g id="edge8" class="edge">
<title>&#45;4&#45;&gt;1</title>
<path fill="none" stroke="green" stroke-width="0.28" d="M310.82,-130.97C309.71,-116.51 305.81,-86.52 292.26,-65.7 281.94,-49.84 264.86,-36.78 251.09,-28.02"/>
<polygon fill="green" stroke="green" stroke-width="0.28" points="252.58,-24.83 242.21,-22.66 248.96,-30.82 252.58,-24.83"/>
</g>
<!-- &#45;4&#45;&gt;4 -->
<g id="edge19" class="edge">
<title>&#45;4&#45;&gt;4</title>
<path fill="none" stroke="green" stroke-width="0.15" d="M317.24,-131.35C323.01,-123.59 331.97,-111.54 339.63,-101.23"/>
<polygon fill="green" stroke="green" stroke-width="0.15" points="342.51,-103.23 345.67,-93.12 336.89,-99.05 342.51,-103.23"/>
</g>
<!-- &#45;5 -->
<g id="node5" class="node">
<title>&#45;5</title>
<polygon fill="lightgray" stroke="black" points="283.26,-89.55 259.26,-89.55 259.26,-71.55 283.26,-71.55 283.26,-89.55"/>
<text text-anchor="middle" x="271.26" y="-78.35" font-family="Times New Roman,serif" font-size="9.00">&#45;5</text>
</g>
<!-- &#45;5&#45;&gt;0 -->
<g id="edge9" class="edge">
<title>&#45;5&#45;&gt;0</title>
<path fill="none" stroke="red" stroke-width="0.55" d="M259.97,-71.49C256.9,-69.47 253.52,-67.39 250.26,-65.7 215.97,-47.85 173.77,-32.37 147.96,-23.58"/>
<polygon fill="red" stroke="red" stroke-width="0.55" points="148.88,-20.19 138.29,-20.34 146.65,-26.83 148.88,-20.19"/>
</g>
<!-- &#45;5&#45;&gt;1 -->
<g id="edge10" class="edge">
<title>&#45;5&#45;&gt;1</title>
<path fill="none" stroke="red" stroke-width="0.32" d="M265.94,-71.48C260.18,-62.73 250.74,-48.42 242.88,-36.5"/>
<polygon fill="red" stroke="red" stroke-width="0.32" points="245.69,-34.41 237.27,-27.99 239.85,-38.26 245.69,-34.41"/>
</g>
<!-- &#45;6 -->
<g id="node6" class="node">
<title>&#45;6</title>
<polygon fill="lightgray" stroke="black" points="73.26,-89.55 49.26,-89.55 49.26,-71.55 73.26,-71.55 73.26,-89.55"/>
<text text-anchor="middle" x="61.26" y="-78.35" font-family="Times New Roman,serif" font-size="9.00">&#45;6</text>
</g>
<!-- &#45;6&#45;&gt;0 -->
<g id="edge11" class="edge">
<title>&#45;6&#45;&gt;0</title>
<path fill="none" stroke="red" stroke-width="0.13" d="M69.24,-71.48C78.68,-61.94 94.64,-45.8 106.96,-33.35"/>
<polygon fill="red" stroke="red" stroke-width="0.13" points="109.52,-35.74 114.06,-26.17 104.54,-30.82 109.52,-35.74"/>
</g>
<!-- &#45;6&#45;&gt;1 -->
<g id="edge12" class="edge">
<title>&#45;6&#45;&gt;1</title>
<path fill="none" stroke="green" stroke-width="0.36" d="M72.5,-71.38C75.57,-69.36 78.97,-67.31 82.26,-65.7 123.66,-45.45 175.34,-30.01 205.1,-21.99"/>
<polygon fill="green" stroke="green" stroke-width="0.36" points="206.23,-25.31 215.01,-19.37 204.45,-18.54 206.23,-25.31"/>
</g>
<!-- &#45;7 -->
<g id="node7" class="node">
<title>&#45;7</title>
<polygon fill="lightgray" stroke="black" points="115.26,-89.55 91.26,-89.55 91.26,-71.55 115.26,-71.55 115.26,-89.55"/>
<text text-anchor="middle" x="103.26" y="-78.35" font-family="Times New Roman,serif" font-size="9.00">&#45;7</text>
</g>
<!-- &#45;7&#45;&gt;0 -->
<g id="edge13" class="edge">
<title>&#45;7&#45;&gt;0</title>
<path fill="none" stroke="green" stroke-width="0.22" d="M105.92,-71.48C108.59,-63.38 112.84,-50.51 116.57,-39.19"/>
<polygon fill="green" stroke="green" stroke-width="0.22" points="119.98,-40.01 119.79,-29.41 113.34,-37.82 119.98,-40.01"/>
</g>
<!-- &#45;7&#45;&gt;1 -->
<g id="edge14" class="edge">
<title>&#45;7&#45;&gt;1</title>
<path fill="none" stroke="red" stroke-width="0.15" d="M115.08,-71.34C118.03,-69.41 121.22,-67.41 124.26,-65.7 151.73,-50.22 184.79,-35.07 206.38,-25.61"/>
<polygon fill="red" stroke="red" stroke-width="0.15" points="207.92,-28.75 215.7,-21.56 205.13,-22.33 207.92,-28.75"/>
</g>
<!-- &#45;8 -->
<g id="node8" class="node">
<title>&#45;8</title>
<polygon fill="lightgray" stroke="black" points="157.26,-89.55 133.26,-89.55 133.26,-71.55 157.26,-71.55 157.26,-89.55"/>
<text text-anchor="middle" x="145.26" y="-78.35" font-family="Times New Roman,serif" font-size="9.00">&#45;8</text>
</g>
<!-- &#45;8&#45;&gt;0 -->
<g id="edge15" class="edge">
<title>&#45;8&#45;&gt;0</title>
<path fill="none" stroke="green" stroke-width="0.12" d="M142.6,-71.48C139.93,-63.38 135.69,-50.51 131.96,-39.19"/>
<polygon fill="green" stroke="green" stroke-width="0.12" points="135.19,-37.82 128.74,-29.41 128.54,-40.01 135.19,-37.82"/>
</g>
<!-- &#45;8&#45;&gt;1 -->
<g id="edge16" class="edge">
<title>&#45;8&#45;&gt;1</title>
<path fill="none" stroke="red" stroke-width="0.17" d="M155.9,-71.48C169.44,-61.22 193.06,-43.3 209.85,-30.57"/>
<polygon fill="red" stroke="red" stroke-width="0.17" points="212.05,-33.29 217.91,-24.46 207.83,-27.71 212.05,-33.29"/>
</g>
<!-- 4&#45;&gt;1 -->
<g id="edge18" class="edge">
<title>4&#45;&gt;1</title>
<path fill="none" stroke="red" stroke-width="0.37" d="M341.36,-72.97C320.12,-62.15 277.55,-40.46 251.42,-27.14"/>
<polygon fill="red" stroke="red" stroke-width="0.37" points="252.79,-23.91 242.29,-22.49 249.61,-30.14 252.79,-23.91"/>
</g>
</g>
</svg>
