<?xml version="1.0" encoding="UTF-8" standalone="no"?>
<!DOCTYPE svg PUBLIC "-//W3C//DTD SVG 1.1//EN"
 "http://www.w3.org/Graphics/SVG/1.1/DTD/svg11.dtd">
<!-- Generated by graphviz version 2.47.0 (20210316.0004)
 -->
<!-- Pages: 1 -->
<svg width="396pt" height="157pt"
 viewBox="0.00 0.00 396.45 157.40" xmlns="http://www.w3.org/2000/svg" xmlns:xlink="http://www.w3.org/1999/xlink">
<g id="graph0" class="graph" transform="scale(1 1) rotate(0) translate(4 153.4)">
<polygon fill="white" stroke="transparent" points="-4,4 -4,-153.4 392.45,-153.4 392.45,4 -4,4"/>
<!-- &#45;1 -->
<g id="node1" class="node">
<title>&#45;1</title>
<polygon fill="lightgray" stroke="black" points="162.43,-89.55 138.43,-89.55 138.43,-71.55 162.43,-71.55 162.43,-89.55"/>
<text text-anchor="middle" x="150.43" y="-78.35" font-family="Times New Roman,serif" font-size="9.00">&#45;1</text>
</g>
<!-- 0 -->
<g id="node9" class="node">
<title>0</title>
<ellipse fill="lightblue" stroke="black" cx="129.43" cy="-14.85" rx="14.7" ry="14.7"/>
<text text-anchor="middle" x="129.43" y="-12.65" font-family="Times New Roman,serif" font-size="9.00">0</text>
</g>
<!-- &#45;1&#45;&gt;0 -->
<g id="edge1" class="edge">
<title>&#45;1&#45;&gt;0</title>
<path fill="none" stroke="red" stroke-width="0.19" d="M147.77,-71.48C145.1,-63.38 140.86,-50.51 137.12,-39.19"/>
<polygon fill="red" stroke="red" stroke-width="0.19" points="140.35,-37.82 133.9,-29.41 133.71,-40.01 140.35,-37.82"/>
</g>
<!-- 1 -->
<g id="node10" class="node">
<title>1</title>
<ellipse fill="lightblue" stroke="black" cx="255.43" cy="-14.85" rx="14.7" ry="14.7"/>
<text text-anchor="middle" x="255.43" y="-12.65" font-family="Times New Roman,serif" font-size="9.00">1</text>
</g>
<!-- &#45;1&#45;&gt;1 -->
<g id="edge2" class="edge">
<title>&#45;1&#45;&gt;1</title>
<path fill="none" stroke="red" stroke-width="0.3" d="M162.36,-71.54C165.3,-69.6 168.47,-67.55 171.43,-65.7 192.53,-52.49 217.06,-38.04 234.14,-28.11"/>
<polygon fill="red" stroke="red" stroke-width="0.3" points="235.89,-31.14 242.79,-23.1 232.38,-25.08 235.89,-31.14"/>
</g>
<!-- &#45;2 -->
<g id="node2" class="node">
<title>&#45;2</title>
<polygon fill="lightgray" stroke="black" points="204.43,-89.55 180.43,-89.55 180.43,-71.55 204.43,-71.55 204.43,-89.55"/>
<text text-anchor="middle" x="192.43" y="-78.35" font-family="Times New Roman,serif" font-size="9.00">&#45;2</text>
</g>
<!-- &#45;2&#45;&gt;0 -->
<g id="edge3" class="edge">
<title>&#45;2&#45;&gt;0</title>
<path fill="none" stroke="red" stroke-width="0.24" d="M184.45,-71.48C175.02,-61.94 159.05,-45.8 146.74,-33.35"/>
<polygon fill="red" stroke="red" stroke-width="0.24" points="149.15,-30.82 139.63,-26.17 144.18,-35.74 149.15,-30.82"/>
</g>
<!-- &#45;2&#45;&gt;1 -->
<g id="edge4" class="edge">
<title>&#45;2&#45;&gt;1</title>
<path fill="none" stroke="red" stroke-width="0.47" d="M200.41,-71.48C209.84,-61.94 225.81,-45.8 238.12,-33.35"/>
<polygon fill="red" stroke="red" stroke-width="0.47" points="240.68,-35.74 245.22,-26.17 235.7,-30.82 240.68,-35.74"/>
</g>
<!-- &#45;3 -->
<g id="node3" class="node">
<title>&#45;3</title>
<polygon fill="lightgray" stroke="black" points="371.43,-149.4 347.43,-149.4 347.43,-131.4 371.43,-131.4 371.43,-149.4"/>
<text text-anchor="middle" x="359.43" y="-138.2" font-family="Times New Roman,serif" font-size="9.00">&#45;3</text>
</g>
<!-- &#45;3&#45;&gt;0 -->
<g id="edge5" class="edge">
<title>&#45;3&#45;&gt;0</title>
<path fill="none" stroke="red" stroke-width="0.24" d="M347,-134.37C343.91,-133.27 340.58,-132.19 337.43,-131.4 282.99,-117.73 124.18,-137.82 87.43,-95.4 70.67,-76.05 92.58,-48.87 110.52,-31.82"/>
<polygon fill="red" stroke="red" stroke-width="0.24" points="113.26,-34.06 118.33,-24.76 108.57,-28.87 113.26,-34.06"/>
</g>
<!-- &#45;3&#45;&gt;1 -->
<g id="edge6" class="edge">
<title>&#45;3&#45;&gt;1</title>
<path fill="none" stroke="red" stroke-width="0.24" d="M366.63,-130.98C378.07,-116.54 397.71,-86.58 383.43,-65.7 360.41,-32.03 311.03,-21.1 280.78,-17.55"/>
<polygon fill="red" stroke="red" stroke-width="0.24" points="280.88,-14.05 270.58,-16.55 280.19,-21.01 280.88,-14.05"/>
</g>
<!-- 7 -->
<g id="node11" class="node">
<title>7</title>
<ellipse fill="white" stroke="black" cx="359.43" cy="-80.55" rx="14.7" ry="14.7"/>
<text text-anchor="middle" x="359.43" y="-78.35" font-family="Times New Roman,serif" font-size="9.00">7</text>
</g>
<!-- &#45;3&#45;&gt;7 -->
<g id="edge18" class="edge">
<title>&#45;3&#45;&gt;7</title>
<path fill="none" stroke="red" stroke-width="0.11" d="M359.43,-131.35C359.43,-124.75 359.43,-115.03 359.43,-105.93"/>
<polygon fill="red" stroke="red" stroke-width="0.11" points="362.93,-105.75 359.43,-95.75 355.93,-105.75 362.93,-105.75"/>
</g>
<!-- &#45;4 -->
<g id="node4" class="node">
<title>&#45;4</title>
<polygon fill="lightgray" stroke="black" points="246.43,-89.55 222.43,-89.55 222.43,-71.55 246.43,-71.55 246.43,-89.55"/>
<text text-anchor="middle" x="234.43" y="-78.35" font-family="Times New Roman,serif" font-size="9.00">&#45;4</text>
</g>
<!-- &#45;4&#45;&gt;0 -->
<g id="edge7" class="edge">
<title>&#45;4&#45;&gt;0</title>
<path fill="none" stroke="green" stroke-width="0.39" d="M222.5,-71.54C219.55,-69.6 216.39,-67.55 213.43,-65.7 192.32,-52.49 167.8,-38.04 150.72,-28.11"/>
<polygon fill="green" stroke="green" stroke-width="0.39" points="152.47,-25.08 142.06,-23.1 148.96,-31.14 152.47,-25.08"/>
</g>
<!-- &#45;4&#45;&gt;1 -->
<g id="edge8" class="edge">
<title>&#45;4&#45;&gt;1</title>
<path fill="none" stroke="red" stroke-width="0.3" d="M237.09,-71.48C239.76,-63.38 244,-50.51 247.73,-39.19"/>
<polygon fill="red" stroke="red" stroke-width="0.3" points="251.15,-40.01 250.96,-29.41 244.5,-37.82 251.15,-40.01"/>
</g>
<!-- &#45;5 -->
<g id="node5" class="node">
<title>&#45;5</title>
<polygon fill="lightgray" stroke="black" points="328.43,-149.4 304.43,-149.4 304.43,-131.4 328.43,-131.4 328.43,-149.4"/>
<text text-anchor="middle" x="316.43" y="-138.2" font-family="Times New Roman,serif" font-size="9.00">&#45;5</text>
</g>
<!-- &#45;5&#45;&gt;0 -->
<g id="edge9" class="edge">
<title>&#45;5&#45;&gt;0</title>
<path fill="none" stroke="green" stroke-width="0.19" d="M304.32,-139.67C252.11,-140.55 47.02,-141.03 7.43,-95.4 -24.57,-58.52 61.1,-32.02 105.14,-21.22"/>
<polygon fill="green" stroke="green" stroke-width="0.19" points="106.17,-24.57 115.1,-18.87 104.56,-17.76 106.17,-24.57"/>
</g>
<!-- &#45;5&#45;&gt;1 -->
<g id="edge10" class="edge">
<title>&#45;5&#45;&gt;1</title>
<path fill="none" stroke="green" stroke-width="0.43" stroke-dasharray="1,5" d="M315.53,-131.23C313.72,-117.17 308.82,-87.78 297.43,-65.7 291.17,-53.56 281.48,-41.79 272.98,-32.74"/>
<polygon fill="green" stroke="green" stroke-width="0.43" points="275.44,-30.24 265.94,-25.54 270.43,-35.14 275.44,-30.24"/>
</g>
<!-- &#45;5&#45;&gt;7 -->
<g id="edge16" class="edge">
<title>&#45;5&#45;&gt;7</title>
<path fill="none" stroke="green" stroke-width="0.29" d="M322.41,-131.35C328.18,-123.59 337.14,-111.54 344.8,-101.23"/>
<polygon fill="green" stroke="green" stroke-width="0.29" points="347.67,-103.23 350.83,-93.12 342.05,-99.05 347.67,-103.23"/>
</g>
<!-- &#45;6 -->
<g id="node6" class="node">
<title>&#45;6</title>
<polygon fill="lightgray" stroke="black" points="288.43,-89.55 264.43,-89.55 264.43,-71.55 288.43,-71.55 288.43,-89.55"/>
<text text-anchor="middle" x="276.43" y="-78.35" font-family="Times New Roman,serif" font-size="9.00">&#45;6</text>
</g>
<!-- &#45;6&#45;&gt;0 -->
<g id="edge11" class="edge">
<title>&#45;6&#45;&gt;0</title>
<path fill="none" stroke="red" stroke-width="0.16" d="M265.13,-71.49C262.06,-69.47 258.68,-67.39 255.43,-65.7 221.13,-47.85 178.94,-32.37 153.12,-23.58"/>
<polygon fill="red" stroke="red" stroke-width="0.16" points="154.04,-20.19 143.45,-20.34 151.82,-26.83 154.04,-20.19"/>
</g>
<!-- &#45;6&#45;&gt;1 -->
<g id="edge12" class="edge">
<title>&#45;6&#45;&gt;1</title>
<path fill="none" stroke="red" stroke-width="0.19" d="M273.77,-71.48C271.1,-63.38 266.86,-50.51 263.12,-39.19"/>
<polygon fill="red" stroke="red" stroke-width="0.19" points="266.35,-37.82 259.9,-29.41 259.71,-40.01 266.35,-37.82"/>
</g>
<!-- &#45;7 -->
<g id="node7" class="node">
<title>&#45;7</title>
<polygon fill="lightgray" stroke="black" points="120.43,-89.55 96.43,-89.55 96.43,-71.55 120.43,-71.55 120.43,-89.55"/>
<text text-anchor="middle" x="108.43" y="-78.35" font-family="Times New Roman,serif" font-size="9.00">&#45;7</text>
</g>
<!-- &#45;7&#45;&gt;0 -->
<g id="edge13" class="edge">
<title>&#45;7&#45;&gt;0</title>
<path fill="none" stroke="green" stroke-width="0.15" d="M111.09,-71.48C113.76,-63.38 118,-50.51 121.73,-39.19"/>
<polygon fill="green" stroke="green" stroke-width="0.15" points="125.15,-40.01 124.96,-29.41 118.5,-37.82 125.15,-40.01"/>
</g>
<!-- &#45;7&#45;&gt;1 -->
<g id="edge14" class="edge">
<title>&#45;7&#45;&gt;1</title>
<path fill="none" stroke="green" stroke-width="0.28" d="M119.72,-71.49C122.79,-69.47 126.17,-67.39 129.43,-65.7 163.72,-47.85 205.92,-32.37 231.73,-23.58"/>
<polygon fill="green" stroke="green" stroke-width="0.28" points="233.04,-26.83 241.41,-20.34 230.81,-20.19 233.04,-26.83"/>
</g>
<!-- &#45;8 -->
<g id="node8" class="node">
<title>&#45;8</title>
<polygon fill="lightgray" stroke="black" points="40.43,-89.55 16.43,-89.55 16.43,-71.55 40.43,-71.55 40.43,-89.55"/>
<text text-anchor="middle" x="28.43" y="-78.35" font-family="Times New Roman,serif" font-size="9.00">&#45;8</text>
</g>
<!-- &#45;8&#45;&gt;0 -->
<g id="edge15" class="edge">
<title>&#45;8&#45;&gt;0</title>
<path fill="none" stroke="green" stroke-width="0.26" d="M40.81,-71.74C57.71,-61.08 88.23,-41.83 108.66,-28.94"/>
<polygon fill="green" stroke="green" stroke-width="0.26" points="110.67,-31.82 117.26,-23.52 106.93,-25.9 110.67,-31.82"/>
</g>
<!-- 7&#45;&gt;1 -->
<g id="edge17" class="edge">
<title>7&#45;&gt;1</title>
<path fill="none" stroke="green" stroke-width="0.43" d="M347.09,-71.99C329.65,-61.31 297.57,-41.66 276.37,-28.67"/>
<polygon fill="green" stroke="green" stroke-width="0.43" points="278.11,-25.64 267.75,-23.4 274.45,-31.6 278.11,-25.64"/>
</g>
</g>
</svg>
