<?xml version="1.0" encoding="UTF-8" standalone="no"?>
<!DOCTYPE svg PUBLIC "-//W3C//DTD SVG 1.1//EN"
 "http://www.w3.org/Graphics/SVG/1.1/DTD/svg11.dtd">
<!-- Generated by graphviz version 2.47.0 (20210316.0004)
 -->
<!-- Pages: 1 -->
<svg width="362pt" height="157pt"
 viewBox="0.00 0.00 362.27 157.40" xmlns="http://www.w3.org/2000/svg" xmlns:xlink="http://www.w3.org/1999/xlink">
<g id="graph0" class="graph" transform="scale(1 1) rotate(0) translate(4 153.4)">
<polygon fill="white" stroke="transparent" points="-4,4 -4,-153.4 358.27,-153.4 358.27,4 -4,4"/>
<!-- &#45;1 -->
<g id="node1" class="node">
<title>&#45;1</title>
<polygon fill="lightgray" stroke="black" points="39.96,-89.55 15.96,-89.55 15.96,-71.55 39.96,-71.55 39.96,-89.55"/>
<text text-anchor="middle" x="27.96" y="-78.35" font-family="Times New Roman,serif" font-size="9.00">&#45;1</text>
</g>
<!-- 0 -->
<g id="node9" class="node">
<title>0</title>
<ellipse fill="lightblue" stroke="black" cx="111.96" cy="-14.85" rx="14.7" ry="14.7"/>
<text text-anchor="middle" x="111.96" y="-12.65" font-family="Times New Roman,serif" font-size="9.00">0</text>
</g>
<!-- &#45;1&#45;&gt;0 -->
<g id="edge1" class="edge">
<title>&#45;1&#45;&gt;0</title>
<path fill="none" stroke="red" stroke-width="0.46" d="M38.6,-71.48C52.13,-61.22 75.76,-43.3 92.54,-30.57"/>
<polygon fill="red" stroke="red" stroke-width="0.46" points="94.75,-33.29 100.6,-24.46 90.52,-27.71 94.75,-33.29"/>
</g>
<!-- 1 -->
<g id="node10" class="node">
<title>1</title>
<ellipse fill="lightblue" stroke="black" cx="195.96" cy="-14.85" rx="14.7" ry="14.7"/>
<text text-anchor="middle" x="195.96" y="-12.65" font-family="Times New Roman,serif" font-size="9.00">1</text>
</g>
<!-- &#45;1&#45;&gt;1 -->
<g id="edge2" class="edge">
<title>&#45;1&#45;&gt;1</title>
<path fill="none" stroke="green" stroke-width="0.3" d="M39.2,-71.38C42.27,-69.36 45.67,-67.31 48.96,-65.7 90.35,-45.45 142.04,-30.01 171.79,-21.99"/>
<polygon fill="green" stroke="green" stroke-width="0.3" points="172.93,-25.31 181.71,-19.37 171.14,-18.54 172.93,-25.31"/>
</g>
<!-- &#45;2 -->
<g id="node2" class="node">
<title>&#45;2</title>
<polygon fill="lightgray" stroke="black" points="81.96,-89.55 57.96,-89.55 57.96,-71.55 81.96,-71.55 81.96,-89.55"/>
<text text-anchor="middle" x="69.96" y="-78.35" font-family="Times New Roman,serif" font-size="9.00">&#45;2</text>
</g>
<!-- &#45;2&#45;&gt;0 -->
<g id="edge3" class="edge">
<title>&#45;2&#45;&gt;0</title>
<path fill="none" stroke="green" stroke-width="0.2" d="M75.28,-71.48C81.05,-62.73 90.49,-48.42 98.35,-36.5"/>
<polygon fill="green" stroke="green" stroke-width="0.2" points="101.38,-38.26 103.96,-27.99 95.53,-34.41 101.38,-38.26"/>
</g>
<!-- &#45;2&#45;&gt;1 -->
<g id="edge4" class="edge">
<title>&#45;2&#45;&gt;1</title>
<path fill="none" stroke="green" stroke-width="0.31" d="M81.77,-71.34C84.72,-69.41 87.92,-67.41 90.96,-65.7 118.43,-50.22 151.48,-35.07 173.07,-25.61"/>
<polygon fill="green" stroke="green" stroke-width="0.31" points="174.62,-28.75 182.4,-21.56 171.83,-22.33 174.62,-28.75"/>
</g>
<!-- &#45;3 -->
<g id="node3" class="node">
<title>&#45;3</title>
<polygon fill="lightgray" stroke="black" points="123.96,-89.55 99.96,-89.55 99.96,-71.55 123.96,-71.55 123.96,-89.55"/>
<text text-anchor="middle" x="111.96" y="-78.35" font-family="Times New Roman,serif" font-size="9.00">&#45;3</text>
</g>
<!-- &#45;3&#45;&gt;0 -->
<g id="edge5" class="edge">
<title>&#45;3&#45;&gt;0</title>
<path fill="none" stroke="green" stroke-width="0.18" d="M111.96,-71.48C111.96,-63.56 111.96,-51.1 111.96,-39.97"/>
<polygon fill="green" stroke="green" stroke-width="0.18" points="115.46,-39.9 111.96,-29.9 108.46,-39.9 115.46,-39.9"/>
</g>
<!-- &#45;3&#45;&gt;1 -->
<g id="edge6" class="edge">
<title>&#45;3&#45;&gt;1</title>
<path fill="none" stroke="green" stroke-width="0.15" d="M122.6,-71.48C136.13,-61.22 159.76,-43.3 176.54,-30.57"/>
<polygon fill="green" stroke="green" stroke-width="0.15" points="178.75,-33.29 184.6,-24.46 174.52,-27.71 178.75,-33.29"/>
</g>
<!-- &#45;4 -->
<g id="node4" class="node">
<title>&#45;4</title>
<polygon fill="lightgray" stroke="black" points="291.96,-89.55 267.96,-89.55 267.96,-71.55 291.96,-71.55 291.96,-89.55"/>
<text text-anchor="middle" x="279.96" y="-78.35" font-family="Times New Roman,serif" font-size="9.00">&#45;4</text>
</g>
<!-- &#45;4&#45;&gt;1 -->
<g id="edge7" class="edge">
<title>&#45;4&#45;&gt;1</title>
<path fill="none" stroke="red" stroke-width="0.18" d="M269.32,-71.48C255.79,-61.22 232.16,-43.3 215.38,-30.57"/>
<polygon fill="red" stroke="red" stroke-width="0.18" points="217.4,-27.71 207.32,-24.46 213.17,-33.29 217.4,-27.71"/>
</g>
<!-- &#45;5 -->
<g id="node5" class="node">
<title>&#45;5</title>
<polygon fill="lightgray" stroke="black" points="336.96,-149.4 312.96,-149.4 312.96,-131.4 336.96,-131.4 336.96,-149.4"/>
<text text-anchor="middle" x="324.96" y="-138.2" font-family="Times New Roman,serif" font-size="9.00">&#45;5</text>
</g>
<!-- &#45;5&#45;&gt;0 -->
<g id="edge8" class="edge">
<title>&#45;5&#45;&gt;0</title>
<path fill="none" stroke="red" stroke-width="0.54" d="M312.86,-139.72C259.73,-140.86 47.87,-142.36 6.96,-95.4 -21.38,-62.87 49.06,-35.08 88.09,-22.72"/>
<polygon fill="red" stroke="red" stroke-width="0.54" points="89.17,-26.05 97.71,-19.78 87.12,-19.35 89.17,-26.05"/>
</g>
<!-- &#45;5&#45;&gt;1 -->
<g id="edge9" class="edge">
<title>&#45;5&#45;&gt;1</title>
<path fill="none" stroke="red" stroke-width="0.32" stroke-dasharray="1,5" d="M331.92,-131.35C343.48,-116.96 363.98,-86.39 348.96,-65.7 319.64,-25.31 256.72,-17.01 221.39,-15.69"/>
<polygon fill="red" stroke="red" stroke-width="0.32" points="221.03,-12.18 210.96,-15.47 220.88,-19.18 221.03,-12.18"/>
</g>
<!-- 8 -->
<g id="node11" class="node">
<title>8</title>
<ellipse fill="white" stroke="black" cx="324.96" cy="-80.55" rx="14.7" ry="14.7"/>
<text text-anchor="middle" x="324.96" y="-78.35" font-family="Times New Roman,serif" font-size="9.00">8</text>
</g>
<!-- &#45;5&#45;&gt;8 -->
<g id="edge16" class="edge">
<title>&#45;5&#45;&gt;8</title>
<path fill="none" stroke="green" stroke-width="0.3" d="M324.96,-131.35C324.96,-124.75 324.96,-115.03 324.96,-105.93"/>
<polygon fill="green" stroke="green" stroke-width="0.3" points="328.46,-105.75 324.96,-95.75 321.46,-105.75 328.46,-105.75"/>
</g>
<!-- &#45;6 -->
<g id="node6" class="node">
<title>&#45;6</title>
<polygon fill="lightgray" stroke="black" points="165.96,-89.55 141.96,-89.55 141.96,-71.55 165.96,-71.55 165.96,-89.55"/>
<text text-anchor="middle" x="153.96" y="-78.35" font-family="Times New Roman,serif" font-size="9.00">&#45;6</text>
</g>
<!-- &#45;6&#45;&gt;0 -->
<g id="edge10" class="edge">
<title>&#45;6&#45;&gt;0</title>
<path fill="none" stroke="red" stroke-width="0.18" d="M148.64,-71.48C142.87,-62.73 133.43,-48.42 125.58,-36.5"/>
<polygon fill="red" stroke="red" stroke-width="0.18" points="128.39,-34.41 119.96,-27.99 122.55,-38.26 128.39,-34.41"/>
</g>
<!-- &#45;6&#45;&gt;1 -->
<g id="edge11" class="edge">
<title>&#45;6&#45;&gt;1</title>
<path fill="none" stroke="red" stroke-width="0.25" d="M159.28,-71.48C165.05,-62.73 174.49,-48.42 182.35,-36.5"/>
<polygon fill="red" stroke="red" stroke-width="0.25" points="185.38,-38.26 187.96,-27.99 179.53,-34.41 185.38,-38.26"/>
</g>
<!-- &#45;7 -->
<g id="node7" class="node">
<title>&#45;7</title>
<polygon fill="lightgray" stroke="black" points="207.96,-89.55 183.96,-89.55 183.96,-71.55 207.96,-71.55 207.96,-89.55"/>
<text text-anchor="middle" x="195.96" y="-78.35" font-family="Times New Roman,serif" font-size="9.00">&#45;7</text>
</g>
<!-- &#45;7&#45;&gt;0 -->
<g id="edge12" class="edge">
<title>&#45;7&#45;&gt;0</title>
<path fill="none" stroke="green" stroke-width="0.31" d="M185.32,-71.48C171.79,-61.22 148.16,-43.3 131.38,-30.57"/>
<polygon fill="green" stroke="green" stroke-width="0.31" points="133.4,-27.71 123.32,-24.46 129.17,-33.29 133.4,-27.71"/>
</g>
<!-- &#45;7&#45;&gt;1 -->
<g id="edge13" class="edge">
<title>&#45;7&#45;&gt;1</title>
<path fill="none" stroke="green" stroke-width="0.33" d="M195.96,-71.48C195.96,-63.56 195.96,-51.1 195.96,-39.97"/>
<polygon fill="green" stroke="green" stroke-width="0.33" points="199.46,-39.9 195.96,-29.9 192.46,-39.9 199.46,-39.9"/>
</g>
<!-- &#45;8 -->
<g id="node8" class="node">
<title>&#45;8</title>
<polygon fill="lightgray" stroke="black" points="249.96,-89.55 225.96,-89.55 225.96,-71.55 249.96,-71.55 249.96,-89.55"/>
<text text-anchor="middle" x="237.96" y="-78.35" font-family="Times New Roman,serif" font-size="9.00">&#45;8</text>
</g>
<!-- &#45;8&#45;&gt;0 -->
<g id="edge14" class="edge">
<title>&#45;8&#45;&gt;0</title>
<path fill="none" stroke="green" stroke-width="0.12" d="M226.15,-71.34C223.2,-69.41 220,-67.41 216.96,-65.7 189.49,-50.22 156.44,-35.07 134.85,-25.61"/>
<polygon fill="green" stroke="green" stroke-width="0.12" points="136.09,-22.33 125.52,-21.56 133.31,-28.75 136.09,-22.33"/>
</g>
<!-- &#45;8&#45;&gt;1 -->
<g id="edge15" class="edge">
<title>&#45;8&#45;&gt;1</title>
<path fill="none" stroke="green" stroke-width="0.24" d="M232.64,-71.48C226.87,-62.73 217.43,-48.42 209.58,-36.5"/>
<polygon fill="green" stroke="green" stroke-width="0.24" points="212.39,-34.41 203.96,-27.99 206.55,-38.26 212.39,-34.41"/>
</g>
<!-- 8&#45;&gt;1 -->
<g id="edge17" class="edge">
<title>8&#45;&gt;1</title>
<path fill="none" stroke="red" stroke-width="0.32" d="M312.36,-72.02C308.72,-69.92 304.71,-67.67 300.96,-65.7 273.04,-51.05 240.09,-35.71 218.64,-25.98"/>
<polygon fill="red" stroke="red" stroke-width="0.32" points="219.94,-22.73 209.39,-21.81 217.07,-29.11 219.94,-22.73"/>
</g>
</g>
</svg>
