<?xml version="1.0" encoding="UTF-8" standalone="no"?>
<!DOCTYPE svg PUBLIC "-//W3C//DTD SVG 1.1//EN"
 "http://www.w3.org/Graphics/SVG/1.1/DTD/svg11.dtd">
<!-- Generated by graphviz version 2.47.0 (20210316.0004)
 -->
<!-- Pages: 1 -->
<svg width="386pt" height="157pt"
 viewBox="0.00 0.00 386.32 157.40" xmlns="http://www.w3.org/2000/svg" xmlns:xlink="http://www.w3.org/1999/xlink">
<g id="graph0" class="graph" transform="scale(1 1) rotate(0) translate(4 153.4)">
<polygon fill="white" stroke="transparent" points="-4,4 -4,-153.4 382.32,-153.4 382.32,4 -4,4"/>
<!-- &#45;1 -->
<g id="node1" class="node">
<title>&#45;1</title>
<polygon fill="lightgray" stroke="black" points="361.85,-89.55 337.85,-89.55 337.85,-71.55 361.85,-71.55 361.85,-89.55"/>
<text text-anchor="middle" x="349.85" y="-78.35" font-family="Times New Roman,serif" font-size="9.00">&#45;1</text>
</g>
<!-- 0 -->
<g id="node9" class="node">
<title>0</title>
<ellipse fill="lightblue" stroke="black" cx="247.85" cy="-14.85" rx="14.7" ry="14.7"/>
<text text-anchor="middle" x="247.85" y="-12.65" font-family="Times New Roman,serif" font-size="9.00">0</text>
</g>
<!-- &#45;1&#45;&gt;0 -->
<g id="edge1" class="edge">
<title>&#45;1&#45;&gt;0</title>
<path fill="none" stroke="green" stroke-width="0.36" d="M337.45,-71.28C334.64,-69.43 331.65,-67.48 328.85,-65.7 308.71,-52.87 285.48,-38.62 269.07,-28.66"/>
<polygon fill="green" stroke="green" stroke-width="0.36" points="270.64,-25.52 260.27,-23.33 267.01,-31.51 270.64,-25.52"/>
</g>
<!-- 1 -->
<g id="node10" class="node">
<title>1</title>
<ellipse fill="lightblue" stroke="black" cx="181.85" cy="-14.85" rx="14.7" ry="14.7"/>
<text text-anchor="middle" x="181.85" y="-12.65" font-family="Times New Roman,serif" font-size="9.00">1</text>
</g>
<!-- &#45;1&#45;&gt;1 -->
<g id="edge2" class="edge">
<title>&#45;1&#45;&gt;1</title>
<path fill="none" stroke="green" stroke-width="0.24" d="M338.61,-71.38C335.54,-69.36 332.14,-67.31 328.85,-65.7 323.12,-62.89 245.32,-36.93 205.29,-23.62"/>
<polygon fill="green" stroke="green" stroke-width="0.24" points="206.36,-20.29 195.77,-20.46 204.16,-26.94 206.36,-20.29"/>
</g>
<!-- &#45;2 -->
<g id="node2" class="node">
<title>&#45;2</title>
<polygon fill="lightgray" stroke="black" points="69.85,-149.4 45.85,-149.4 45.85,-131.4 69.85,-131.4 69.85,-149.4"/>
<text text-anchor="middle" x="57.85" y="-138.2" font-family="Times New Roman,serif" font-size="9.00">&#45;2</text>
</g>
<!-- &#45;2&#45;&gt;0 -->
<g id="edge3" class="edge">
<title>&#45;2&#45;&gt;0</title>
<path fill="none" stroke="green" stroke-width="0.23" d="M70.11,-139.69C122.99,-140.69 330.71,-141.57 370.85,-95.4 403.13,-58.26 316.35,-31.82 272.04,-21.12"/>
<polygon fill="green" stroke="green" stroke-width="0.23" points="272.82,-17.71 262.29,-18.85 271.24,-24.53 272.82,-17.71"/>
</g>
<!-- &#45;2&#45;&gt;1 -->
<g id="edge4" class="edge">
<title>&#45;2&#45;&gt;1</title>
<path fill="none" stroke="red" stroke-width="0.24" stroke-dasharray="1,5" d="M57.8,-131.09C58.14,-116.28 60.87,-85.06 76.85,-65.7 97.44,-40.75 133.4,-27.5 157.42,-21.08"/>
<polygon fill="red" stroke="red" stroke-width="0.24" points="158.34,-24.46 167.21,-18.66 156.66,-17.66 158.34,-24.46"/>
</g>
<!-- 9 -->
<g id="node11" class="node">
<title>9</title>
<ellipse fill="white" stroke="black" cx="14.85" cy="-80.55" rx="14.7" ry="14.7"/>
<text text-anchor="middle" x="14.85" y="-78.35" font-family="Times New Roman,serif" font-size="9.00">9</text>
</g>
<!-- &#45;2&#45;&gt;9 -->
<g id="edge17" class="edge">
<title>&#45;2&#45;&gt;9</title>
<path fill="none" stroke="green" stroke-width="0.3" d="M51.87,-131.35C46.1,-123.59 37.14,-111.54 29.48,-101.23"/>
<polygon fill="green" stroke="green" stroke-width="0.3" points="32.22,-99.05 23.45,-93.12 26.6,-103.23 32.22,-99.05"/>
</g>
<!-- &#45;3 -->
<g id="node3" class="node">
<title>&#45;3</title>
<polygon fill="lightgray" stroke="black" points="109.85,-89.55 85.85,-89.55 85.85,-71.55 109.85,-71.55 109.85,-89.55"/>
<text text-anchor="middle" x="97.85" y="-78.35" font-family="Times New Roman,serif" font-size="9.00">&#45;3</text>
</g>
<!-- &#45;3&#45;&gt;0 -->
<g id="edge5" class="edge">
<title>&#45;3&#45;&gt;0</title>
<path fill="none" stroke="red" stroke-width="0.33" d="M109.13,-71.47C112.21,-69.45 115.59,-67.38 118.85,-65.7 137.82,-55.92 192.64,-35.69 224.38,-24.23"/>
<polygon fill="red" stroke="red" stroke-width="0.33" points="225.58,-27.52 233.8,-20.85 223.21,-20.94 225.58,-27.52"/>
</g>
<!-- &#45;3&#45;&gt;1 -->
<g id="edge6" class="edge">
<title>&#45;3&#45;&gt;1</title>
<path fill="none" stroke="red" stroke-width="0.26" d="M108.49,-71.48C122.02,-61.22 145.65,-43.3 162.43,-30.57"/>
<polygon fill="red" stroke="red" stroke-width="0.26" points="164.64,-33.29 170.49,-24.46 160.41,-27.71 164.64,-33.29"/>
</g>
<!-- &#45;4 -->
<g id="node4" class="node">
<title>&#45;4</title>
<polygon fill="lightgray" stroke="black" points="151.85,-89.55 127.85,-89.55 127.85,-71.55 151.85,-71.55 151.85,-89.55"/>
<text text-anchor="middle" x="139.85" y="-78.35" font-family="Times New Roman,serif" font-size="9.00">&#45;4</text>
</g>
<!-- &#45;4&#45;&gt;0 -->
<g id="edge7" class="edge">
<title>&#45;4&#45;&gt;0</title>
<path fill="none" stroke="red" stroke-width="0.16" d="M151.76,-71.51C154.71,-69.57 157.87,-67.53 160.85,-65.7 182.74,-52.23 208.32,-37.71 226.05,-27.84"/>
<polygon fill="red" stroke="red" stroke-width="0.16" points="227.97,-30.78 235.02,-22.87 224.58,-24.65 227.97,-30.78"/>
</g>
<!-- &#45;4&#45;&gt;1 -->
<g id="edge8" class="edge">
<title>&#45;4&#45;&gt;1</title>
<path fill="none" stroke="red" stroke-width="0.29" d="M145.17,-71.48C150.94,-62.73 160.38,-48.42 168.23,-36.5"/>
<polygon fill="red" stroke="red" stroke-width="0.29" points="171.26,-38.26 173.85,-27.99 165.42,-34.41 171.26,-38.26"/>
</g>
<!-- &#45;5 -->
<g id="node5" class="node">
<title>&#45;5</title>
<polygon fill="lightgray" stroke="black" points="193.85,-89.55 169.85,-89.55 169.85,-71.55 193.85,-71.55 193.85,-89.55"/>
<text text-anchor="middle" x="181.85" y="-78.35" font-family="Times New Roman,serif" font-size="9.00">&#45;5</text>
</g>
<!-- &#45;5&#45;&gt;0 -->
<g id="edge9" class="edge">
<title>&#45;5&#45;&gt;0</title>
<path fill="none" stroke="red" stroke-width="0.11" d="M190.21,-71.48C200.2,-61.83 217.21,-45.42 230.17,-32.92"/>
<polygon fill="red" stroke="red" stroke-width="0.11" points="232.85,-35.19 237.61,-25.73 227.99,-30.16 232.85,-35.19"/>
</g>
<!-- &#45;5&#45;&gt;1 -->
<g id="edge10" class="edge">
<title>&#45;5&#45;&gt;1</title>
<path fill="none" stroke="green" stroke-width="0.52" d="M181.85,-71.48C181.85,-63.56 181.85,-51.1 181.85,-39.97"/>
<polygon fill="green" stroke="green" stroke-width="0.52" points="185.35,-39.9 181.85,-29.9 178.35,-39.9 185.35,-39.9"/>
</g>
<!-- &#45;6 -->
<g id="node6" class="node">
<title>&#45;6</title>
<polygon fill="lightgray" stroke="black" points="235.85,-89.55 211.85,-89.55 211.85,-71.55 235.85,-71.55 235.85,-89.55"/>
<text text-anchor="middle" x="223.85" y="-78.35" font-family="Times New Roman,serif" font-size="9.00">&#45;6</text>
</g>
<!-- &#45;6&#45;&gt;0 -->
<g id="edge11" class="edge">
<title>&#45;6&#45;&gt;0</title>
<path fill="none" stroke="red" stroke-width="0.12" d="M226.89,-71.48C230.01,-63.19 235.01,-49.92 239.35,-38.42"/>
<polygon fill="red" stroke="red" stroke-width="0.12" points="242.67,-39.52 242.92,-28.93 236.12,-37.06 242.67,-39.52"/>
</g>
<!-- &#45;6&#45;&gt;1 -->
<g id="edge12" class="edge">
<title>&#45;6&#45;&gt;1</title>
<path fill="none" stroke="red" stroke-width="0.14" d="M218.53,-71.48C212.76,-62.73 203.32,-48.42 195.46,-36.5"/>
<polygon fill="red" stroke="red" stroke-width="0.14" points="198.28,-34.41 189.85,-27.99 192.43,-38.26 198.28,-34.41"/>
</g>
<!-- &#45;7 -->
<g id="node7" class="node">
<title>&#45;7</title>
<polygon fill="lightgray" stroke="black" points="277.85,-89.55 253.85,-89.55 253.85,-71.55 277.85,-71.55 277.85,-89.55"/>
<text text-anchor="middle" x="265.85" y="-78.35" font-family="Times New Roman,serif" font-size="9.00">&#45;7</text>
</g>
<!-- &#45;7&#45;&gt;0 -->
<g id="edge13" class="edge">
<title>&#45;7&#45;&gt;0</title>
<path fill="none" stroke="green" stroke-width="0.33" d="M263.57,-71.48C261.28,-63.38 257.64,-50.51 254.45,-39.19"/>
<polygon fill="green" stroke="green" stroke-width="0.33" points="257.77,-38.09 251.68,-29.41 251.03,-39.99 257.77,-38.09"/>
</g>
<!-- &#45;7&#45;&gt;1 -->
<g id="edge14" class="edge">
<title>&#45;7&#45;&gt;1</title>
<path fill="none" stroke="red" stroke-width="0.51" d="M255.21,-71.48C241.68,-61.22 218.05,-43.3 201.27,-30.57"/>
<polygon fill="red" stroke="red" stroke-width="0.51" points="203.29,-27.71 193.21,-24.46 199.06,-33.29 203.29,-27.71"/>
</g>
<!-- &#45;8 -->
<g id="node8" class="node">
<title>&#45;8</title>
<polygon fill="lightgray" stroke="black" points="319.85,-89.55 295.85,-89.55 295.85,-71.55 319.85,-71.55 319.85,-89.55"/>
<text text-anchor="middle" x="307.85" y="-78.35" font-family="Times New Roman,serif" font-size="9.00">&#45;8</text>
</g>
<!-- &#45;8&#45;&gt;0 -->
<g id="edge15" class="edge">
<title>&#45;8&#45;&gt;0</title>
<path fill="none" stroke="red" stroke-width="0.42" d="M300.25,-71.48C291.35,-62.03 276.34,-46.1 264.67,-33.7"/>
<polygon fill="red" stroke="red" stroke-width="0.42" points="266.97,-31.05 257.57,-26.17 261.88,-35.85 266.97,-31.05"/>
</g>
<!-- &#45;8&#45;&gt;1 -->
<g id="edge16" class="edge">
<title>&#45;8&#45;&gt;1</title>
<path fill="none" stroke="green" stroke-width="0.26" d="M296.04,-71.34C293.09,-69.41 289.89,-67.41 286.85,-65.7 259.38,-50.22 226.33,-35.07 204.74,-25.61"/>
<polygon fill="green" stroke="green" stroke-width="0.26" points="205.98,-22.33 195.41,-21.56 203.19,-28.75 205.98,-22.33"/>
</g>
<!-- 9&#45;&gt;1 -->
<g id="edge18" class="edge">
<title>9&#45;&gt;1</title>
<path fill="none" stroke="red" stroke-width="0.25" d="M27.72,-73.07C32.71,-70.64 38.5,-67.94 43.85,-65.7 83.44,-49.14 130.69,-32.79 158.37,-23.54"/>
<polygon fill="red" stroke="red" stroke-width="0.25" points="159.58,-26.83 167.97,-20.36 157.37,-20.18 159.58,-26.83"/>
</g>
</g>
</svg>
