<?xml version="1.0" encoding="UTF-8" standalone="no"?>
<!DOCTYPE svg PUBLIC "-//W3C//DTD SVG 1.1//EN"
 "http://www.w3.org/Graphics/SVG/1.1/DTD/svg11.dtd">
<!-- Generated by graphviz version 2.47.0 (20210316.0004)
 -->
<!-- Pages: 1 -->
<svg width="360pt" height="230pt"
 viewBox="0.00 0.00 359.92 230.17" xmlns="http://www.w3.org/2000/svg" xmlns:xlink="http://www.w3.org/1999/xlink">
<g id="graph0" class="graph" transform="scale(1 1) rotate(0) translate(4 226.17)">
<polygon fill="white" stroke="transparent" points="-4,4 -4,-226.17 355.92,-226.17 355.92,4 -4,4"/>
<!-- &#45;1 -->
<g id="node1" class="node">
<title>&#45;1</title>
<polygon fill="lightgray" stroke="black" points="24,-222.17 0,-222.17 0,-204.17 24,-204.17 24,-222.17"/>
<text text-anchor="middle" x="12" y="-210.97" font-family="Times New Roman,serif" font-size="9.00">&#45;1</text>
</g>
<!-- 0 -->
<g id="node9" class="node">
<title>0</title>
<ellipse fill="lightblue" stroke="black" cx="169" cy="-153.32" rx="14.7" ry="14.7"/>
<text text-anchor="middle" x="169" y="-151.12" font-family="Times New Roman,serif" font-size="9.00">0</text>
</g>
<!-- &#45;1&#45;&gt;0 -->
<g id="edge1" class="edge">
<title>&#45;1&#45;&gt;0</title>
<path fill="none" stroke="red" stroke-width="0.17" d="M24.43,-207.4C27.24,-206.33 30.22,-205.2 33,-204.17 72.48,-189.41 118.55,-172.61 145.67,-162.77"/>
<polygon fill="red" stroke="red" stroke-width="0.17" points="146.87,-166.05 155.08,-159.35 144.48,-159.47 146.87,-166.05"/>
</g>
<!-- 1 -->
<g id="node10" class="node">
<title>1</title>
<ellipse fill="lightblue" stroke="black" cx="212" cy="-14.85" rx="14.7" ry="14.7"/>
<text text-anchor="middle" x="212" y="-12.65" font-family="Times New Roman,serif" font-size="9.00">1</text>
</g>
<!-- &#45;1&#45;&gt;1 -->
<g id="edge2" class="edge">
<title>&#45;1&#45;&gt;1</title>
<path fill="none" stroke="red" stroke-width="0.18" d="M14.99,-204.04C24.25,-179.84 54.77,-107.35 102,-65.7 127.21,-43.47 163.97,-29.54 187.94,-22.22"/>
<polygon fill="red" stroke="red" stroke-width="0.18" points="189.03,-25.55 197.66,-19.41 187.08,-18.83 189.03,-25.55"/>
</g>
<!-- &#45;2 -->
<g id="node2" class="node">
<title>&#45;2</title>
<polygon fill="lightgray" stroke="black" points="66,-222.17 42,-222.17 42,-204.17 66,-204.17 66,-222.17"/>
<text text-anchor="middle" x="54" y="-210.97" font-family="Times New Roman,serif" font-size="9.00">&#45;2</text>
</g>
<!-- &#45;2&#45;&gt;0 -->
<g id="edge3" class="edge">
<title>&#45;2&#45;&gt;0</title>
<path fill="none" stroke="green" stroke-width="0.42" d="M66.31,-205.98C85.56,-196.29 123.06,-177.42 147.03,-165.37"/>
<polygon fill="green" stroke="green" stroke-width="0.42" points="148.72,-168.44 156.08,-160.82 145.57,-162.18 148.72,-168.44"/>
</g>
<!-- &#45;2&#45;&gt;1 -->
<g id="edge4" class="edge">
<title>&#45;2&#45;&gt;1</title>
<path fill="none" stroke="green" stroke-width="0.11" d="M56.72,-203.97C64.96,-180.19 91.59,-110.04 133,-65.7 149.01,-48.56 172.14,-34.88 189.24,-26.21"/>
<polygon fill="green" stroke="green" stroke-width="0.11" points="191.05,-29.23 198.51,-21.71 187.99,-22.93 191.05,-29.23"/>
</g>
<!-- &#45;3 -->
<g id="node3" class="node">
<title>&#45;3</title>
<polygon fill="lightgray" stroke="black" points="108,-222.17 84,-222.17 84,-204.17 108,-204.17 108,-222.17"/>
<text text-anchor="middle" x="96" y="-210.97" font-family="Times New Roman,serif" font-size="9.00">&#45;3</text>
</g>
<!-- &#45;3&#45;&gt;0 -->
<g id="edge5" class="edge">
<title>&#45;3&#45;&gt;0</title>
<path fill="none" stroke="red" stroke-width="0.24" d="M106.15,-204.12C117.31,-195.28 135.51,-180.86 149.46,-169.8"/>
<polygon fill="red" stroke="red" stroke-width="0.24" points="151.83,-172.39 157.49,-163.44 147.48,-166.9 151.83,-172.39"/>
</g>
<!-- &#45;3&#45;&gt;1 -->
<g id="edge6" class="edge">
<title>&#45;3&#45;&gt;1</title>
<path fill="none" stroke="green" stroke-width="0.33" d="M98.06,-203.92C104.15,-180.59 123.81,-112.74 157,-65.7 166.59,-52.11 180.5,-39.55 191.92,-30.43"/>
<polygon fill="green" stroke="green" stroke-width="0.33" points="194.27,-33.04 200.07,-24.18 190.01,-27.49 194.27,-33.04"/>
</g>
<!-- &#45;4 -->
<g id="node4" class="node">
<title>&#45;4</title>
<polygon fill="lightgray" stroke="black" points="150,-222.17 126,-222.17 126,-204.17 150,-204.17 150,-222.17"/>
<text text-anchor="middle" x="138" y="-210.97" font-family="Times New Roman,serif" font-size="9.00">&#45;4</text>
</g>
<!-- &#45;4&#45;&gt;0 -->
<g id="edge7" class="edge">
<title>&#45;4&#45;&gt;0</title>
<path fill="none" stroke="green" stroke-width="0.49" d="M142.31,-204.12C146.24,-196.78 152.24,-185.6 157.55,-175.69"/>
<polygon fill="green" stroke="green" stroke-width="0.49" points="160.7,-177.21 162.34,-166.75 154.53,-173.91 160.7,-177.21"/>
</g>
<!-- &#45;4&#45;&gt;1 -->
<g id="edge8" class="edge">
<title>&#45;4&#45;&gt;1</title>
<path fill="none" stroke="green" stroke-width="0.15" d="M137.71,-203.78C137.47,-189.87 138,-161.32 145,-138.47 156.92,-99.56 181.99,-59 197.85,-35.65"/>
<polygon fill="green" stroke="green" stroke-width="0.15" points="200.81,-37.52 203.63,-27.31 195.06,-33.54 200.81,-37.52"/>
</g>
<!-- &#45;5 -->
<g id="node5" class="node">
<title>&#45;5</title>
<polygon fill="lightgray" stroke="black" points="192,-222.17 168,-222.17 168,-204.17 192,-204.17 192,-222.17"/>
<text text-anchor="middle" x="180" y="-210.97" font-family="Times New Roman,serif" font-size="9.00">&#45;5</text>
</g>
<!-- &#45;5&#45;&gt;0 -->
<g id="edge9" class="edge">
<title>&#45;5&#45;&gt;0</title>
<path fill="none" stroke="green" stroke-width="0.11" d="M178.47,-204.12C177.18,-197.36 175.28,-187.32 173.51,-178.03"/>
<polygon fill="green" stroke="green" stroke-width="0.11" points="176.92,-177.24 171.62,-168.07 170.05,-178.55 176.92,-177.24"/>
</g>
<!-- &#45;5&#45;&gt;1 -->
<g id="edge10" class="edge">
<title>&#45;5&#45;&gt;1</title>
<path fill="none" stroke="green" stroke-width="0.11" d="M182.8,-204.16C185.75,-195.42 190.33,-180.95 193,-168.17 202.36,-123.33 207.71,-70.03 210.22,-39.85"/>
<polygon fill="green" stroke="green" stroke-width="0.11" points="213.72,-40.08 211.02,-29.84 206.74,-39.53 213.72,-40.08"/>
</g>
<!-- &#45;6 -->
<g id="node6" class="node">
<title>&#45;6</title>
<polygon fill="lightgray" stroke="black" points="234,-222.17 210,-222.17 210,-204.17 234,-204.17 234,-222.17"/>
<text text-anchor="middle" x="222" y="-210.97" font-family="Times New Roman,serif" font-size="9.00">&#45;6</text>
</g>
<!-- &#45;6&#45;&gt;0 -->
<g id="edge11" class="edge">
<title>&#45;6&#45;&gt;0</title>
<path fill="none" stroke="green" stroke-width="0.11" d="M214.63,-204.12C207.2,-196.01 195.46,-183.2 185.75,-172.6"/>
<polygon fill="green" stroke="green" stroke-width="0.11" points="188.17,-170.05 178.83,-165.05 183,-174.78 188.17,-170.05"/>
</g>
<!-- &#45;6&#45;&gt;1 -->
<g id="edge12" class="edge">
<title>&#45;6&#45;&gt;1</title>
<path fill="none" stroke="red" stroke-width="0.2" d="M223.17,-203.86C226.14,-181.43 233.19,-117.86 226,-65.7 224.78,-56.81 222.38,-47.27 219.91,-38.94"/>
<polygon fill="red" stroke="red" stroke-width="0.2" points="223.17,-37.66 216.82,-29.18 216.5,-39.77 223.17,-37.66"/>
</g>
<!-- &#45;7 -->
<g id="node7" class="node">
<title>&#45;7</title>
<polygon fill="lightgray" stroke="black" points="318,-222.17 294,-222.17 294,-204.17 318,-204.17 318,-222.17"/>
<text text-anchor="middle" x="306" y="-210.97" font-family="Times New Roman,serif" font-size="9.00">&#45;7</text>
</g>
<!-- &#45;7&#45;&gt;0 -->
<g id="edge13" class="edge">
<title>&#45;7&#45;&gt;0</title>
<path fill="none" stroke="green" stroke-width="0.4" d="M293.84,-207.03C271,-197.39 221.32,-176.41 191.99,-164.02"/>
<polygon fill="green" stroke="green" stroke-width="0.4" points="193.11,-160.7 182.54,-160.03 190.39,-167.15 193.11,-160.7"/>
</g>
<!-- &#45;7&#45;&gt;1 -->
<g id="edge14" class="edge">
<title>&#45;7&#45;&gt;1</title>
<path fill="none" stroke="green" stroke-width="0.18" stroke-dasharray="1,5" d="M311.99,-204.06C328.61,-180.53 372.05,-110.98 341,-65.7 317.66,-31.66 267.51,-20.86 237.07,-17.43"/>
<polygon fill="green" stroke="green" stroke-width="0.18" points="237.11,-13.92 226.83,-16.48 236.46,-20.89 237.11,-13.92"/>
</g>
<!-- 11 -->
<g id="node11" class="node">
<title>11</title>
<ellipse fill="white" stroke="black" cx="296" cy="-84.08" rx="18.27" ry="18.27"/>
<text text-anchor="middle" x="296" y="-81.88" font-family="Times New Roman,serif" font-size="9.00">11</text>
</g>
<!-- &#45;7&#45;&gt;11 -->
<g id="edge17" class="edge">
<title>&#45;7&#45;&gt;11</title>
<path fill="none" stroke="green" stroke-width="0.3" d="M305.34,-203.83C303.92,-185.71 300.48,-142.05 298.2,-113.03"/>
<polygon fill="green" stroke="green" stroke-width="0.3" points="301.66,-112.4 297.39,-102.7 294.68,-112.95 301.66,-112.4"/>
</g>
<!-- &#45;8 -->
<g id="node8" class="node">
<title>&#45;8</title>
<polygon fill="lightgray" stroke="black" points="276,-222.17 252,-222.17 252,-204.17 276,-204.17 276,-222.17"/>
<text text-anchor="middle" x="264" y="-210.97" font-family="Times New Roman,serif" font-size="9.00">&#45;8</text>
</g>
<!-- &#45;8&#45;&gt;0 -->
<g id="edge15" class="edge">
<title>&#45;8&#45;&gt;0</title>
<path fill="none" stroke="green" stroke-width="0.26" d="M251.97,-204.84C236.35,-195.33 208.85,-178.58 189.81,-166.99"/>
<polygon fill="green" stroke="green" stroke-width="0.26" points="191.6,-163.98 181.23,-161.77 187.95,-169.96 191.6,-163.98"/>
</g>
<!-- &#45;8&#45;&gt;1 -->
<g id="edge16" class="edge">
<title>&#45;8&#45;&gt;1</title>
<path fill="none" stroke="green" stroke-width="0.27" d="M272.38,-204.03C295.11,-180.98 354.13,-113.8 323,-65.7 304.04,-36.39 263.31,-24.15 236.81,-19.15"/>
<polygon fill="green" stroke="green" stroke-width="0.27" points="237.21,-15.67 226.77,-17.47 236.05,-22.57 237.21,-15.67"/>
</g>
<!-- 0&#45;&gt;11 -->
<g id="edge19" class="edge">
<title>0&#45;&gt;11</title>
<path fill="none" stroke="green" stroke-width="0.46" d="M182.11,-145.38C203,-134.32 244.18,-112.52 270.87,-98.39"/>
<polygon fill="green" stroke="green" stroke-width="0.46" points="272.79,-101.33 279.99,-93.56 269.51,-95.14 272.79,-101.33"/>
</g>
<!-- 11&#45;&gt;1 -->
<g id="edge18" class="edge">
<title>11&#45;&gt;1</title>
<path fill="none" stroke="green" stroke-width="0.16" d="M282.13,-71.98C268.21,-60.84 246.66,-43.6 231.13,-31.16"/>
<polygon fill="green" stroke="green" stroke-width="0.16" points="233.19,-28.33 223.2,-24.81 228.82,-33.8 233.19,-28.33"/>
</g>
</g>
</svg>
