<?xml version="1.0" encoding="UTF-8" standalone="no"?>
<!DOCTYPE svg PUBLIC "-//W3C//DTD SVG 1.1//EN"
 "http://www.w3.org/Graphics/SVG/1.1/DTD/svg11.dtd">
<!-- Generated by graphviz version 2.47.0 (20210316.0004)
 -->
<!-- Pages: 1 -->
<svg width="398pt" height="164pt"
 viewBox="0.00 0.00 398.31 164.47" xmlns="http://www.w3.org/2000/svg" xmlns:xlink="http://www.w3.org/1999/xlink">
<g id="graph0" class="graph" transform="scale(1 1) rotate(0) translate(4 160.47)">
<polygon fill="white" stroke="transparent" points="-4,4 -4,-160.47 394.31,-160.47 394.31,4 -4,4"/>
<!-- &#45;1 -->
<g id="node1" class="node">
<title>&#45;1</title>
<polygon fill="lightgray" stroke="black" points="369.5,-156.47 345.5,-156.47 345.5,-138.47 369.5,-138.47 369.5,-156.47"/>
<text text-anchor="middle" x="357.5" y="-145.27" font-family="Times New Roman,serif" font-size="9.00">&#45;1</text>
</g>
<!-- 0 -->
<g id="node9" class="node">
<title>0</title>
<ellipse fill="lightblue" stroke="black" cx="124.5" cy="-14.85" rx="14.7" ry="14.7"/>
<text text-anchor="middle" x="124.5" y="-12.65" font-family="Times New Roman,serif" font-size="9.00">0</text>
</g>
<!-- &#45;1&#45;&gt;0 -->
<g id="edge1" class="edge">
<title>&#45;1&#45;&gt;0</title>
<path fill="none" stroke="red" stroke-width="0.19" d="M345.41,-142.1C341.35,-140.77 336.77,-139.41 332.5,-138.47 268.64,-124.44 83.81,-151.45 40.5,-102.47 29.67,-90.23 32.41,-79.9 40.5,-65.7 53.29,-43.24 80.63,-29.85 100.65,-22.69"/>
<polygon fill="red" stroke="red" stroke-width="0.19" points="101.94,-25.96 110.34,-19.51 99.75,-19.31 101.94,-25.96"/>
</g>
<!-- 1 -->
<g id="node10" class="node">
<title>1</title>
<ellipse fill="lightblue" stroke="black" cx="229.5" cy="-14.85" rx="14.7" ry="14.7"/>
<text text-anchor="middle" x="229.5" y="-12.65" font-family="Times New Roman,serif" font-size="9.00">1</text>
</g>
<!-- &#45;1&#45;&gt;1 -->
<g id="edge2" class="edge">
<title>&#45;1&#45;&gt;1</title>
<path fill="none" stroke="red" stroke-width="0.31" stroke-dasharray="1,5" d="M364.85,-138.15C377.67,-122.6 401.22,-88.64 384.5,-65.7 354.62,-24.71 290.47,-16.69 254.78,-15.56"/>
<polygon fill="red" stroke="red" stroke-width="0.31" points="254.74,-12.06 244.68,-15.4 254.63,-19.06 254.74,-12.06"/>
</g>
<!-- 12 -->
<g id="node11" class="node">
<title>12</title>
<ellipse fill="white" stroke="black" cx="357.5" cy="-84.08" rx="18.27" ry="18.27"/>
<text text-anchor="middle" x="357.5" y="-81.88" font-family="Times New Roman,serif" font-size="9.00">12</text>
</g>
<!-- &#45;1&#45;&gt;12 -->
<g id="edge17" class="edge">
<title>&#45;1&#45;&gt;12</title>
<path fill="none" stroke="green" stroke-width="0.28" d="M357.5,-138.44C357.5,-131.88 357.5,-122.19 357.5,-112.86"/>
<polygon fill="green" stroke="green" stroke-width="0.28" points="361,-112.67 357.5,-102.67 354,-112.67 361,-112.67"/>
</g>
<!-- &#45;2 -->
<g id="node2" class="node">
<title>&#45;2</title>
<polygon fill="lightgray" stroke="black" points="199.5,-93.08 175.5,-93.08 175.5,-75.08 199.5,-75.08 199.5,-93.08"/>
<text text-anchor="middle" x="187.5" y="-81.88" font-family="Times New Roman,serif" font-size="9.00">&#45;2</text>
</g>
<!-- &#45;2&#45;&gt;0 -->
<g id="edge3" class="edge">
<title>&#45;2&#45;&gt;0</title>
<path fill="none" stroke="green" stroke-width="0.23" d="M179.77,-74.84C170.3,-64.73 153.98,-47.32 141.52,-34.02"/>
<polygon fill="green" stroke="green" stroke-width="0.23" points="143.75,-31.28 134.36,-26.37 138.64,-36.06 143.75,-31.28"/>
</g>
<!-- &#45;2&#45;&gt;1 -->
<g id="edge4" class="edge">
<title>&#45;2&#45;&gt;1</title>
<path fill="none" stroke="red" stroke-width="0.44" d="M192.65,-74.84C198.57,-65.36 208.51,-49.44 216.58,-36.53"/>
<polygon fill="red" stroke="red" stroke-width="0.44" points="219.71,-38.13 222.03,-27.79 213.77,-34.42 219.71,-38.13"/>
</g>
<!-- &#45;3 -->
<g id="node3" class="node">
<title>&#45;3</title>
<polygon fill="lightgray" stroke="black" points="241.5,-93.08 217.5,-93.08 217.5,-75.08 241.5,-75.08 241.5,-93.08"/>
<text text-anchor="middle" x="229.5" y="-81.88" font-family="Times New Roman,serif" font-size="9.00">&#45;3</text>
</g>
<!-- &#45;3&#45;&gt;0 -->
<g id="edge5" class="edge">
<title>&#45;3&#45;&gt;0</title>
<path fill="none" stroke="red" stroke-width="0.24" d="M220.33,-74.97C216.74,-71.93 212.52,-68.53 208.5,-65.7 188.14,-51.36 163.5,-37.08 146.19,-27.5"/>
<polygon fill="red" stroke="red" stroke-width="0.24" points="147.86,-24.42 137.4,-22.69 144.5,-30.56 147.86,-24.42"/>
</g>
<!-- &#45;3&#45;&gt;1 -->
<g id="edge6" class="edge">
<title>&#45;3&#45;&gt;1</title>
<path fill="none" stroke="red" stroke-width="0.33" d="M229.5,-74.84C229.5,-66.16 229.5,-52.09 229.5,-39.86"/>
<polygon fill="red" stroke="red" stroke-width="0.33" points="233,-39.78 229.5,-29.78 226,-39.78 233,-39.78"/>
</g>
<!-- &#45;4 -->
<g id="node4" class="node">
<title>&#45;4</title>
<polygon fill="lightgray" stroke="black" points="323.5,-156.47 299.5,-156.47 299.5,-138.47 323.5,-138.47 323.5,-156.47"/>
<text text-anchor="middle" x="311.5" y="-145.27" font-family="Times New Roman,serif" font-size="9.00">&#45;4</text>
</g>
<!-- &#45;4&#45;&gt;0 -->
<g id="edge7" class="edge">
<title>&#45;4&#45;&gt;0</title>
<path fill="none" stroke="green" stroke-width="0.39" d="M299.24,-146.71C247.3,-147.45 46.33,-147.32 7.5,-102.47 -3.2,-90.11 -1.52,-79.33 7.5,-65.7 27.92,-34.8 71.8,-22.99 99.64,-18.52"/>
<polygon fill="green" stroke="green" stroke-width="0.39" points="100.37,-21.95 109.79,-17.1 99.4,-15.02 100.37,-21.95"/>
</g>
<!-- &#45;4&#45;&gt;1 -->
<g id="edge8" class="edge">
<title>&#45;4&#45;&gt;1</title>
<path fill="none" stroke="red" stroke-width="0.3" d="M311.31,-138.22C310.6,-122.8 307.33,-89.04 292.5,-65.7 282.28,-49.63 265.05,-36.53 251.19,-27.79"/>
<polygon fill="red" stroke="red" stroke-width="0.3" points="252.64,-24.58 242.25,-22.46 249.05,-30.59 252.64,-24.58"/>
</g>
<!-- &#45;4&#45;&gt;12 -->
<g id="edge19" class="edge">
<title>&#45;4&#45;&gt;12</title>
<path fill="none" stroke="green" stroke-width="0.15" d="M317.51,-138.44C323.35,-130.65 332.5,-118.44 340.57,-107.67"/>
<polygon fill="green" stroke="green" stroke-width="0.15" points="343.53,-109.56 346.72,-99.46 337.93,-105.36 343.53,-109.56"/>
</g>
<!-- &#45;5 -->
<g id="node5" class="node">
<title>&#45;5</title>
<polygon fill="lightgray" stroke="black" points="283.5,-93.08 259.5,-93.08 259.5,-75.08 283.5,-75.08 283.5,-93.08"/>
<text text-anchor="middle" x="271.5" y="-81.88" font-family="Times New Roman,serif" font-size="9.00">&#45;5</text>
</g>
<!-- &#45;5&#45;&gt;0 -->
<g id="edge9" class="edge">
<title>&#45;5&#45;&gt;0</title>
<path fill="none" stroke="green" stroke-width="0.18" d="M262.97,-74.98C259.32,-71.8 254.9,-68.3 250.5,-65.7 217.22,-46.02 174.73,-31.06 148.58,-22.87"/>
<polygon fill="green" stroke="green" stroke-width="0.18" points="149.36,-19.45 138.77,-19.88 147.31,-26.15 149.36,-19.45"/>
</g>
<!-- &#45;5&#45;&gt;1 -->
<g id="edge10" class="edge">
<title>&#45;5&#45;&gt;1</title>
<path fill="none" stroke="green" stroke-width="0.43" d="M266.35,-74.84C260.42,-65.36 250.48,-49.44 242.41,-36.53"/>
<polygon fill="green" stroke="green" stroke-width="0.43" points="245.22,-34.42 236.96,-27.79 239.29,-38.13 245.22,-34.42"/>
</g>
<!-- &#45;6 -->
<g id="node6" class="node">
<title>&#45;6</title>
<polygon fill="lightgray" stroke="black" points="73.5,-93.08 49.5,-93.08 49.5,-75.08 73.5,-75.08 73.5,-93.08"/>
<text text-anchor="middle" x="61.5" y="-81.88" font-family="Times New Roman,serif" font-size="9.00">&#45;6</text>
</g>
<!-- &#45;6&#45;&gt;0 -->
<g id="edge11" class="edge">
<title>&#45;6&#45;&gt;0</title>
<path fill="none" stroke="red" stroke-width="0.16" d="M69.22,-74.84C78.69,-64.73 95.01,-47.32 107.47,-34.02"/>
<polygon fill="red" stroke="red" stroke-width="0.16" points="110.35,-36.06 114.63,-26.37 105.24,-31.28 110.35,-36.06"/>
</g>
<!-- &#45;6&#45;&gt;1 -->
<g id="edge12" class="edge">
<title>&#45;6&#45;&gt;1</title>
<path fill="none" stroke="red" stroke-width="0.2" d="M69.96,-74.87C73.6,-71.67 78.03,-68.19 82.5,-65.7 122.73,-43.23 174.8,-28.54 204.95,-21.26"/>
<polygon fill="red" stroke="red" stroke-width="0.2" points="206.06,-24.59 215,-18.91 204.46,-17.78 206.06,-24.59"/>
</g>
<!-- &#45;7 -->
<g id="node7" class="node">
<title>&#45;7</title>
<polygon fill="lightgray" stroke="black" points="115.5,-93.08 91.5,-93.08 91.5,-75.08 115.5,-75.08 115.5,-93.08"/>
<text text-anchor="middle" x="103.5" y="-81.88" font-family="Times New Roman,serif" font-size="9.00">&#45;7</text>
</g>
<!-- &#45;7&#45;&gt;0 -->
<g id="edge13" class="edge">
<title>&#45;7&#45;&gt;0</title>
<path fill="none" stroke="green" stroke-width="0.22" d="M106.07,-74.84C108.84,-65.96 113.38,-51.45 117.25,-39.03"/>
<polygon fill="green" stroke="green" stroke-width="0.22" points="120.66,-39.86 120.3,-29.27 113.98,-37.78 120.66,-39.86"/>
</g>
<!-- &#45;7&#45;&gt;1 -->
<g id="edge14" class="edge">
<title>&#45;7&#45;&gt;1</title>
<path fill="none" stroke="green" stroke-width="0.28" d="M112.52,-74.77C116.1,-71.71 120.34,-68.34 124.5,-65.7 151.09,-48.75 184.33,-33.92 206.21,-24.94"/>
<polygon fill="green" stroke="green" stroke-width="0.28" points="207.7,-28.11 215.67,-21.12 205.09,-21.62 207.7,-28.11"/>
</g>
<!-- &#45;8 -->
<g id="node8" class="node">
<title>&#45;8</title>
<polygon fill="lightgray" stroke="black" points="157.5,-93.08 133.5,-93.08 133.5,-75.08 157.5,-75.08 157.5,-93.08"/>
<text text-anchor="middle" x="145.5" y="-81.88" font-family="Times New Roman,serif" font-size="9.00">&#45;8</text>
</g>
<!-- &#45;8&#45;&gt;0 -->
<g id="edge15" class="edge">
<title>&#45;8&#45;&gt;0</title>
<path fill="none" stroke="green" stroke-width="0.26" d="M142.92,-74.84C140.15,-65.96 135.61,-51.45 131.74,-39.03"/>
<polygon fill="green" stroke="green" stroke-width="0.26" points="135.01,-37.78 128.69,-29.27 128.33,-39.86 135.01,-37.78"/>
</g>
<!-- &#45;8&#45;&gt;1 -->
<g id="edge16" class="edge">
<title>&#45;8&#45;&gt;1</title>
<path fill="none" stroke="green" stroke-width="0.34" d="M155.29,-74.9C158.81,-71.98 162.82,-68.68 166.5,-65.7 181.12,-53.86 197.82,-40.66 210.35,-30.82"/>
<polygon fill="green" stroke="green" stroke-width="0.34" points="212.57,-33.52 218.28,-24.6 208.25,-28.02 212.57,-33.52"/>
</g>
<!-- 12&#45;&gt;1 -->
<g id="edge18" class="edge">
<title>12&#45;&gt;1</title>
<path fill="none" stroke="red" stroke-width="0.3" d="M341.58,-74.36C336.45,-71.57 330.74,-68.49 325.5,-65.7 300.24,-52.28 271.06,-37.19 251.57,-27.16"/>
<polygon fill="red" stroke="red" stroke-width="0.3" points="253.07,-24 242.58,-22.54 249.88,-30.23 253.07,-24"/>
</g>
</g>
</svg>
