<?xml version="1.0" encoding="UTF-8" standalone="no"?>
<!DOCTYPE svg PUBLIC "-//W3C//DTD SVG 1.1//EN"
 "http://www.w3.org/Graphics/SVG/1.1/DTD/svg11.dtd">
<!-- Generated by graphviz version 2.47.0 (20210316.0004)
 -->
<!-- Pages: 1 -->
<svg width="528pt" height="164pt"
 viewBox="0.00 0.00 528.20 164.47" xmlns="http://www.w3.org/2000/svg" xmlns:xlink="http://www.w3.org/1999/xlink">
<g id="graph0" class="graph" transform="scale(1 1) rotate(0) translate(4 160.47)">
<polygon fill="white" stroke="transparent" points="-4,4 -4,-160.47 524.2,-160.47 524.2,4 -4,4"/>
<!-- &#45;1 -->
<g id="node1" class="node">
<title>&#45;1</title>
<polygon fill="lightgray" stroke="black" points="347.81,-93.08 323.81,-93.08 323.81,-75.08 347.81,-75.08 347.81,-93.08"/>
<text text-anchor="middle" x="335.81" y="-81.88" font-family="Times New Roman,serif" font-size="9.00">&#45;1</text>
</g>
<!-- 0 -->
<g id="node9" class="node">
<title>0</title>
<ellipse fill="lightblue" stroke="black" cx="173.81" cy="-14.85" rx="14.7" ry="14.7"/>
<text text-anchor="middle" x="173.81" y="-12.65" font-family="Times New Roman,serif" font-size="9.00">0</text>
</g>
<!-- &#45;1&#45;&gt;0 -->
<g id="edge1" class="edge">
<title>&#45;1&#45;&gt;0</title>
<path fill="none" stroke="green" stroke-width="0.11" d="M327.33,-74.9C323.69,-71.71 319.26,-68.22 314.81,-65.7 276.56,-44.01 227.21,-29.2 198.18,-21.66"/>
<polygon fill="green" stroke="green" stroke-width="0.11" points="198.67,-18.18 188.12,-19.13 196.96,-24.96 198.67,-18.18"/>
</g>
<!-- 1 -->
<g id="node10" class="node">
<title>1</title>
<ellipse fill="lightblue" stroke="black" cx="375.81" cy="-14.85" rx="14.7" ry="14.7"/>
<text text-anchor="middle" x="375.81" y="-12.65" font-family="Times New Roman,serif" font-size="9.00">1</text>
</g>
<!-- &#45;1&#45;&gt;1 -->
<g id="edge2" class="edge">
<title>&#45;1&#45;&gt;1</title>
<path fill="none" stroke="red" stroke-width="0.34" d="M340.72,-74.84C346.29,-65.47 355.6,-49.82 363.23,-36.99"/>
<polygon fill="red" stroke="red" stroke-width="0.34" points="366.31,-38.66 368.42,-28.28 360.3,-35.08 366.31,-38.66"/>
</g>
<!-- &#45;2 -->
<g id="node2" class="node">
<title>&#45;2</title>
<polygon fill="lightgray" stroke="black" points="427.81,-93.08 403.81,-93.08 403.81,-75.08 427.81,-75.08 427.81,-93.08"/>
<text text-anchor="middle" x="415.81" y="-81.88" font-family="Times New Roman,serif" font-size="9.00">&#45;2</text>
</g>
<!-- &#45;2&#45;&gt;1 -->
<g id="edge3" class="edge">
<title>&#45;2&#45;&gt;1</title>
<path fill="none" stroke="green" stroke-width="0.33" d="M410.91,-74.84C405.33,-65.47 396.02,-49.82 388.39,-36.99"/>
<polygon fill="green" stroke="green" stroke-width="0.33" points="391.33,-35.08 383.21,-28.28 385.31,-38.66 391.33,-35.08"/>
</g>
<!-- &#45;3 -->
<g id="node3" class="node">
<title>&#45;3</title>
<polygon fill="lightgray" stroke="black" points="263.81,-93.08 239.81,-93.08 239.81,-75.08 263.81,-75.08 263.81,-93.08"/>
<text text-anchor="middle" x="251.81" y="-81.88" font-family="Times New Roman,serif" font-size="9.00">&#45;3</text>
</g>
<!-- &#45;3&#45;&gt;0 -->
<g id="edge4" class="edge">
<title>&#45;3&#45;&gt;0</title>
<path fill="none" stroke="red" stroke-width="0.41" d="M242.25,-74.84C229.96,-64.25 208.35,-45.62 192.7,-32.13"/>
<polygon fill="red" stroke="red" stroke-width="0.41" points="194.57,-29.12 184.71,-25.24 190,-34.42 194.57,-29.12"/>
</g>
<!-- &#45;3&#45;&gt;1 -->
<g id="edge5" class="edge">
<title>&#45;3&#45;&gt;1</title>
<path fill="none" stroke="green" stroke-width="0.42" d="M260.85,-74.79C264.43,-71.73 268.67,-68.36 272.81,-65.7 298.93,-48.92 331.54,-34.05 352.98,-25.01"/>
<polygon fill="green" stroke="green" stroke-width="0.42" points="354.36,-28.23 362.26,-21.17 351.68,-21.76 354.36,-28.23"/>
</g>
<!-- &#45;4 -->
<g id="node4" class="node">
<title>&#45;4</title>
<polygon fill="lightgray" stroke="black" points="116.81,-156.47 92.81,-156.47 92.81,-138.47 116.81,-138.47 116.81,-156.47"/>
<text text-anchor="middle" x="104.81" y="-145.27" font-family="Times New Roman,serif" font-size="9.00">&#45;4</text>
</g>
<!-- &#45;4&#45;&gt;0 -->
<g id="edge6" class="edge">
<title>&#45;4&#45;&gt;0</title>
<path fill="none" stroke="red" stroke-width="0.15" stroke-dasharray="1,5" d="M101.83,-138.32C96.77,-123.05 88.22,-89.54 100.81,-65.7 111.24,-45.96 133.38,-32.56 150.56,-24.67"/>
<polygon fill="red" stroke="red" stroke-width="0.15" points="152.15,-27.79 159.98,-20.65 149.41,-21.35 152.15,-27.79"/>
</g>
<!-- 19 -->
<g id="node13" class="node">
<title>19</title>
<ellipse fill="white" stroke="black" cx="127.81" cy="-84.08" rx="18.27" ry="18.27"/>
<text text-anchor="middle" x="127.81" y="-81.88" font-family="Times New Roman,serif" font-size="9.00">19</text>
</g>
<!-- &#45;4&#45;&gt;19 -->
<g id="edge20" class="edge">
<title>&#45;4&#45;&gt;19</title>
<path fill="none" stroke="green" stroke-width="0.11" d="M107.82,-138.44C110.43,-131.47 114.36,-120.98 118.05,-111.13"/>
<polygon fill="green" stroke="green" stroke-width="0.11" points="121.37,-112.25 121.6,-101.66 114.81,-109.8 121.37,-112.25"/>
</g>
<!-- &#45;5 -->
<g id="node5" class="node">
<title>&#45;5</title>
<polygon fill="lightgray" stroke="black" points="185.81,-156.47 161.81,-156.47 161.81,-138.47 185.81,-138.47 185.81,-156.47"/>
<text text-anchor="middle" x="173.81" y="-145.27" font-family="Times New Roman,serif" font-size="9.00">&#45;5</text>
</g>
<!-- &#45;5&#45;&gt;0 -->
<g id="edge7" class="edge">
<title>&#45;5&#45;&gt;0</title>
<path fill="none" stroke="red" stroke-width="0.23" d="M173.81,-138.3C173.81,-119 173.81,-69.97 173.81,-40.14"/>
<polygon fill="red" stroke="red" stroke-width="0.23" points="177.31,-40.1 173.81,-30.1 170.31,-40.1 177.31,-40.1"/>
</g>
<!-- &#45;5&#45;&gt;1 -->
<g id="edge8" class="edge">
<title>&#45;5&#45;&gt;1</title>
<path fill="none" stroke="green" stroke-width="0.13" d="M186.02,-145.21C222.98,-141.15 332.57,-127.2 356.81,-102.47 372.83,-86.12 376.65,-59.55 377.04,-40.15"/>
<polygon fill="green" stroke="green" stroke-width="0.13" points="380.54,-39.91 376.95,-29.94 373.54,-39.98 380.54,-39.91"/>
</g>
<!-- &#45;5&#45;&gt;19 -->
<g id="edge16" class="edge">
<title>&#45;5&#45;&gt;19</title>
<path fill="none" stroke="red" stroke-width="0.27" stroke-dasharray="1,5" d="M167.8,-138.44C161.96,-130.65 152.81,-118.44 144.74,-107.67"/>
<polygon fill="red" stroke="red" stroke-width="0.27" points="147.38,-105.36 138.58,-99.46 141.78,-109.56 147.38,-105.36"/>
</g>
<!-- &#45;6 -->
<g id="node6" class="node">
<title>&#45;6</title>
<polygon fill="lightgray" stroke="black" points="467.81,-156.47 443.81,-156.47 443.81,-138.47 467.81,-138.47 467.81,-156.47"/>
<text text-anchor="middle" x="455.81" y="-145.27" font-family="Times New Roman,serif" font-size="9.00">&#45;6</text>
</g>
<!-- &#45;6&#45;&gt;0 -->
<g id="edge9" class="edge">
<title>&#45;6&#45;&gt;0</title>
<path fill="none" stroke="green" stroke-width="0.37" d="M443.66,-145.34C402.15,-141.28 266.51,-126.42 230.81,-102.47 207.66,-86.94 191.67,-58.51 182.64,-38.46"/>
<polygon fill="green" stroke="green" stroke-width="0.37" points="185.8,-36.95 178.66,-29.12 179.36,-39.69 185.8,-36.95"/>
</g>
<!-- &#45;6&#45;&gt;1 -->
<g id="edge10" class="edge">
<title>&#45;6&#45;&gt;1</title>
<path fill="none" stroke="green" stroke-width="0.13" stroke-dasharray="1,5" d="M455.59,-138.25C454.83,-122.86 451.46,-89.16 436.81,-65.7 426.98,-49.96 410.43,-36.9 397.05,-28.1"/>
<polygon fill="green" stroke="green" stroke-width="0.13" points="398.75,-25.04 388.42,-22.71 395.05,-30.98 398.75,-25.04"/>
</g>
<!-- 18 -->
<g id="node12" class="node">
<title>18</title>
<ellipse fill="white" stroke="black" cx="501.81" cy="-84.08" rx="18.27" ry="18.27"/>
<text text-anchor="middle" x="501.81" y="-81.88" font-family="Times New Roman,serif" font-size="9.00">18</text>
</g>
<!-- &#45;6&#45;&gt;18 -->
<g id="edge14" class="edge">
<title>&#45;6&#45;&gt;18</title>
<path fill="none" stroke="green" stroke-width="0.31" d="M461.83,-138.44C467.67,-130.65 476.81,-118.44 484.88,-107.67"/>
<polygon fill="green" stroke="green" stroke-width="0.31" points="487.85,-109.56 491.04,-99.46 482.24,-105.36 487.85,-109.56"/>
</g>
<!-- &#45;7 -->
<g id="node7" class="node">
<title>&#45;7</title>
<polygon fill="lightgray" stroke="black" points="24.81,-156.47 0.81,-156.47 0.81,-138.47 24.81,-138.47 24.81,-156.47"/>
<text text-anchor="middle" x="12.81" y="-145.27" font-family="Times New Roman,serif" font-size="9.00">&#45;7</text>
</g>
<!-- &#45;7&#45;&gt;0 -->
<g id="edge11" class="edge">
<title>&#45;7&#45;&gt;0</title>
<path fill="none" stroke="green" stroke-width="0.12" d="M9.36,-138.4C3.24,-122.68 -7.43,-87.57 8.81,-65.7 41.29,-21.96 111,-15.22 148.58,-14.98"/>
<polygon fill="green" stroke="green" stroke-width="0.12" points="148.67,-18.48 158.7,-15.06 148.73,-11.48 148.67,-18.48"/>
</g>
<!-- 68 -->
<g id="node11" class="node">
<title>68</title>
<ellipse fill="white" stroke="black" cx="35.81" cy="-84.08" rx="18.27" ry="18.27"/>
<text text-anchor="middle" x="35.81" y="-81.88" font-family="Times New Roman,serif" font-size="9.00">68</text>
</g>
<!-- &#45;7&#45;&gt;68 -->
<g id="edge18" class="edge">
<title>&#45;7&#45;&gt;68</title>
<path fill="none" stroke="red" stroke-width="0.34" d="M15.82,-138.44C18.43,-131.47 22.36,-120.98 26.05,-111.13"/>
<polygon fill="red" stroke="red" stroke-width="0.34" points="29.37,-112.25 29.6,-101.66 22.81,-109.8 29.37,-112.25"/>
</g>
<!-- &#45;8 -->
<g id="node8" class="node">
<title>&#45;8</title>
<polygon fill="lightgray" stroke="black" points="305.81,-93.08 281.81,-93.08 281.81,-75.08 305.81,-75.08 305.81,-93.08"/>
<text text-anchor="middle" x="293.81" y="-81.88" font-family="Times New Roman,serif" font-size="9.00">&#45;8</text>
</g>
<!-- &#45;8&#45;&gt;0 -->
<g id="edge12" class="edge">
<title>&#45;8&#45;&gt;0</title>
<path fill="none" stroke="green" stroke-width="0.4" d="M284.75,-74.82C281.17,-71.77 276.93,-68.39 272.81,-65.7 247.9,-49.41 216.94,-34.61 196.35,-25.44"/>
<polygon fill="green" stroke="green" stroke-width="0.4" points="197.71,-22.21 187.14,-21.41 194.9,-28.63 197.71,-22.21"/>
</g>
<!-- &#45;8&#45;&gt;1 -->
<g id="edge13" class="edge">
<title>&#45;8&#45;&gt;1</title>
<path fill="none" stroke="red" stroke-width="0.39" d="M303.63,-74.93C307.15,-72.02 311.16,-68.71 314.81,-65.7 328.75,-54.23 344.53,-41.34 356.55,-31.54"/>
<polygon fill="red" stroke="red" stroke-width="0.39" points="359.01,-34.05 364.55,-25.02 354.59,-28.62 359.01,-34.05"/>
</g>
<!-- 68&#45;&gt;0 -->
<g id="edge19" class="edge">
<title>68&#45;&gt;0</title>
<path fill="none" stroke="red" stroke-width="0.34" d="M51.67,-74.23C56.79,-71.44 62.51,-68.38 67.81,-65.7 96.32,-51.27 129.76,-35.77 151.34,-25.96"/>
<polygon fill="red" stroke="red" stroke-width="0.34" points="152.97,-29.06 160.64,-21.75 150.09,-22.68 152.97,-29.06"/>
</g>
<!-- 18&#45;&gt;1 -->
<g id="edge15" class="edge">
<title>18&#45;&gt;1</title>
<path fill="none" stroke="green" stroke-width="0.18" d="M485.88,-74.39C480.75,-71.6 475.05,-68.51 469.81,-65.7 445.14,-52.46 416.73,-37.42 397.66,-27.36"/>
<polygon fill="green" stroke="green" stroke-width="0.18" points="399.08,-24.15 388.61,-22.58 395.82,-30.34 399.08,-24.15"/>
</g>
<!-- 19&#45;&gt;0 -->
<g id="edge17" class="edge">
<title>19&#45;&gt;0</title>
<path fill="none" stroke="green" stroke-width="0.12" d="M137.79,-68.49C144.25,-59.06 152.75,-46.63 159.87,-36.22"/>
<polygon fill="green" stroke="green" stroke-width="0.12" points="162.93,-37.95 165.69,-27.72 157.15,-34 162.93,-37.95"/>
</g>
</g>
</svg>
