<?xml version="1.0" encoding="UTF-8" standalone="no"?>
<!DOCTYPE svg PUBLIC "-//W3C//DTD SVG 1.1//EN"
 "http://www.w3.org/Graphics/SVG/1.1/DTD/svg11.dtd">
<!-- Generated by graphviz version 2.47.0 (20210316.0004)
 -->
<!-- Pages: 1 -->
<svg width="369pt" height="164pt"
 viewBox="0.00 0.00 369.28 164.47" xmlns="http://www.w3.org/2000/svg" xmlns:xlink="http://www.w3.org/1999/xlink">
<g id="graph0" class="graph" transform="scale(1 1) rotate(0) translate(4 160.47)">
<polygon fill="white" stroke="transparent" points="-4,4 -4,-160.47 365.28,-160.47 365.28,4 -4,4"/>
<!-- &#45;1 -->
<g id="node1" class="node">
<title>&#45;1</title>
<polygon fill="lightgray" stroke="black" points="40.43,-93.08 16.43,-93.08 16.43,-75.08 40.43,-75.08 40.43,-93.08"/>
<text text-anchor="middle" x="28.43" y="-81.88" font-family="Times New Roman,serif" font-size="9.00">&#45;1</text>
</g>
<!-- 0 -->
<g id="node9" class="node">
<title>0</title>
<ellipse fill="lightblue" stroke="black" cx="112.43" cy="-14.85" rx="14.7" ry="14.7"/>
<text text-anchor="middle" x="112.43" y="-12.65" font-family="Times New Roman,serif" font-size="9.00">0</text>
</g>
<!-- &#45;1&#45;&gt;0 -->
<g id="edge1" class="edge">
<title>&#45;1&#45;&gt;0</title>
<path fill="none" stroke="red" stroke-width="0.16" d="M38.22,-74.9C41.74,-71.98 45.75,-68.68 49.43,-65.7 64.05,-53.86 80.75,-40.66 93.28,-30.82"/>
<polygon fill="red" stroke="red" stroke-width="0.16" points="95.51,-33.52 101.22,-24.6 91.19,-28.02 95.51,-33.52"/>
</g>
<!-- 1 -->
<g id="node10" class="node">
<title>1</title>
<ellipse fill="lightblue" stroke="black" cx="196.43" cy="-14.85" rx="14.7" ry="14.7"/>
<text text-anchor="middle" x="196.43" y="-12.65" font-family="Times New Roman,serif" font-size="9.00">1</text>
</g>
<!-- &#45;1&#45;&gt;1 -->
<g id="edge2" class="edge">
<title>&#45;1&#45;&gt;1</title>
<path fill="none" stroke="red" stroke-width="0.31" d="M36.89,-74.87C40.53,-71.67 44.97,-68.19 49.43,-65.7 89.66,-43.23 141.74,-28.54 171.88,-21.26"/>
<polygon fill="red" stroke="red" stroke-width="0.31" points="172.99,-24.59 181.93,-18.91 171.4,-17.78 172.99,-24.59"/>
</g>
<!-- &#45;2 -->
<g id="node2" class="node">
<title>&#45;2</title>
<polygon fill="lightgray" stroke="black" points="82.43,-93.08 58.43,-93.08 58.43,-75.08 82.43,-75.08 82.43,-93.08"/>
<text text-anchor="middle" x="70.43" y="-81.88" font-family="Times New Roman,serif" font-size="9.00">&#45;2</text>
</g>
<!-- &#45;2&#45;&gt;0 -->
<g id="edge3" class="edge">
<title>&#45;2&#45;&gt;0</title>
<path fill="none" stroke="green" stroke-width="0.33" d="M75.58,-74.84C81.5,-65.36 91.44,-49.44 99.51,-36.53"/>
<polygon fill="green" stroke="green" stroke-width="0.33" points="102.64,-38.13 104.97,-27.79 96.7,-34.42 102.64,-38.13"/>
</g>
<!-- &#45;2&#45;&gt;1 -->
<g id="edge4" class="edge">
<title>&#45;2&#45;&gt;1</title>
<path fill="none" stroke="red" stroke-width="0.23" d="M79.46,-74.77C83.03,-71.71 87.28,-68.34 91.43,-65.7 118.02,-48.75 151.27,-33.92 173.14,-24.94"/>
<polygon fill="red" stroke="red" stroke-width="0.23" points="174.64,-28.11 182.6,-21.12 172.02,-21.62 174.64,-28.11"/>
</g>
<!-- &#45;3 -->
<g id="node3" class="node">
<title>&#45;3</title>
<polygon fill="lightgray" stroke="black" points="124.43,-93.08 100.43,-93.08 100.43,-75.08 124.43,-75.08 124.43,-93.08"/>
<text text-anchor="middle" x="112.43" y="-81.88" font-family="Times New Roman,serif" font-size="9.00">&#45;3</text>
</g>
<!-- &#45;3&#45;&gt;0 -->
<g id="edge5" class="edge">
<title>&#45;3&#45;&gt;0</title>
<path fill="none" stroke="red" stroke-width="0.19" d="M112.43,-74.84C112.43,-66.16 112.43,-52.09 112.43,-39.86"/>
<polygon fill="red" stroke="red" stroke-width="0.19" points="115.93,-39.78 112.43,-29.78 108.93,-39.78 115.93,-39.78"/>
</g>
<!-- &#45;3&#45;&gt;1 -->
<g id="edge6" class="edge">
<title>&#45;3&#45;&gt;1</title>
<path fill="none" stroke="red" stroke-width="0.21" d="M122.22,-74.9C125.74,-71.98 129.75,-68.68 133.43,-65.7 148.05,-53.86 164.75,-40.66 177.28,-30.82"/>
<polygon fill="red" stroke="red" stroke-width="0.21" points="179.51,-33.52 185.22,-24.6 175.19,-28.02 179.51,-33.52"/>
</g>
<!-- &#45;4 -->
<g id="node4" class="node">
<title>&#45;4</title>
<polygon fill="lightgray" stroke="black" points="292.43,-93.08 268.43,-93.08 268.43,-75.08 292.43,-75.08 292.43,-93.08"/>
<text text-anchor="middle" x="280.43" y="-81.88" font-family="Times New Roman,serif" font-size="9.00">&#45;4</text>
</g>
<!-- &#45;4&#45;&gt;1 -->
<g id="edge7" class="edge">
<title>&#45;4&#45;&gt;1</title>
<path fill="none" stroke="green" stroke-width="0.63" d="M270.64,-74.9C267.12,-71.98 263.11,-68.68 259.43,-65.7 244.81,-53.86 228.1,-40.66 215.57,-30.82"/>
<polygon fill="green" stroke="green" stroke-width="0.63" points="217.67,-28.02 207.64,-24.6 213.35,-33.52 217.67,-28.02"/>
</g>
<!-- &#45;5 -->
<g id="node5" class="node">
<title>&#45;5</title>
<polygon fill="lightgray" stroke="black" points="340.43,-156.47 316.43,-156.47 316.43,-138.47 340.43,-138.47 340.43,-156.47"/>
<text text-anchor="middle" x="328.43" y="-145.27" font-family="Times New Roman,serif" font-size="9.00">&#45;5</text>
</g>
<!-- &#45;5&#45;&gt;0 -->
<g id="edge8" class="edge">
<title>&#45;5&#45;&gt;0</title>
<path fill="none" stroke="red" stroke-width="0.34" d="M316.22,-146.81C262.59,-148.03 48.75,-149.84 7.43,-102.47 -3.31,-90.15 -1.3,-79.51 7.43,-65.7 24.98,-37.94 62.65,-25.33 87.77,-19.82"/>
<polygon fill="red" stroke="red" stroke-width="0.34" points="88.53,-23.24 97.67,-17.88 87.18,-16.37 88.53,-23.24"/>
</g>
<!-- &#45;5&#45;&gt;1 -->
<g id="edge9" class="edge">
<title>&#45;5&#45;&gt;1</title>
<path fill="none" stroke="red" stroke-width="0.13" stroke-dasharray="1,5" d="M335.8,-138.14C348.64,-122.57 372.23,-88.58 355.43,-65.7 324.55,-23.65 258.27,-16.11 221.79,-15.32"/>
<polygon fill="red" stroke="red" stroke-width="0.13" points="221.52,-11.82 211.5,-15.26 221.48,-18.82 221.52,-11.82"/>
</g>
<!-- 14 -->
<g id="node11" class="node">
<title>14</title>
<ellipse fill="white" stroke="black" cx="328.43" cy="-84.08" rx="18.27" ry="18.27"/>
<text text-anchor="middle" x="328.43" y="-81.88" font-family="Times New Roman,serif" font-size="9.00">14</text>
</g>
<!-- &#45;5&#45;&gt;14 -->
<g id="edge16" class="edge">
<title>&#45;5&#45;&gt;14</title>
<path fill="none" stroke="green" stroke-width="0.3" d="M328.43,-138.44C328.43,-131.88 328.43,-122.19 328.43,-112.86"/>
<polygon fill="green" stroke="green" stroke-width="0.3" points="331.93,-112.67 328.43,-102.67 324.93,-112.67 331.93,-112.67"/>
</g>
<!-- &#45;6 -->
<g id="node6" class="node">
<title>&#45;6</title>
<polygon fill="lightgray" stroke="black" points="166.43,-93.08 142.43,-93.08 142.43,-75.08 166.43,-75.08 166.43,-93.08"/>
<text text-anchor="middle" x="154.43" y="-81.88" font-family="Times New Roman,serif" font-size="9.00">&#45;6</text>
</g>
<!-- &#45;6&#45;&gt;0 -->
<g id="edge10" class="edge">
<title>&#45;6&#45;&gt;0</title>
<path fill="none" stroke="green" stroke-width="0.2" d="M149.28,-74.84C143.36,-65.36 133.41,-49.44 125.35,-36.53"/>
<polygon fill="green" stroke="green" stroke-width="0.2" points="128.16,-34.42 119.89,-27.79 122.22,-38.13 128.16,-34.42"/>
</g>
<!-- &#45;6&#45;&gt;1 -->
<g id="edge11" class="edge">
<title>&#45;6&#45;&gt;1</title>
<path fill="none" stroke="green" stroke-width="0.46" d="M159.58,-74.84C165.5,-65.36 175.44,-49.44 183.51,-36.53"/>
<polygon fill="green" stroke="green" stroke-width="0.46" points="186.64,-38.13 188.97,-27.79 180.7,-34.42 186.64,-38.13"/>
</g>
<!-- &#45;7 -->
<g id="node7" class="node">
<title>&#45;7</title>
<polygon fill="lightgray" stroke="black" points="208.43,-93.08 184.43,-93.08 184.43,-75.08 208.43,-75.08 208.43,-93.08"/>
<text text-anchor="middle" x="196.43" y="-81.88" font-family="Times New Roman,serif" font-size="9.00">&#45;7</text>
</g>
<!-- &#45;7&#45;&gt;0 -->
<g id="edge12" class="edge">
<title>&#45;7&#45;&gt;0</title>
<path fill="none" stroke="green" stroke-width="0.3" d="M186.64,-74.9C183.12,-71.98 179.11,-68.68 175.43,-65.7 160.81,-53.86 144.1,-40.66 131.57,-30.82"/>
<polygon fill="green" stroke="green" stroke-width="0.3" points="133.67,-28.02 123.64,-24.6 129.35,-33.52 133.67,-28.02"/>
</g>
<!-- &#45;7&#45;&gt;1 -->
<g id="edge13" class="edge">
<title>&#45;7&#45;&gt;1</title>
<path fill="none" stroke="green" stroke-width="0.33" d="M196.43,-74.84C196.43,-66.16 196.43,-52.09 196.43,-39.86"/>
<polygon fill="green" stroke="green" stroke-width="0.33" points="199.93,-39.78 196.43,-29.78 192.93,-39.78 199.93,-39.78"/>
</g>
<!-- &#45;8 -->
<g id="node8" class="node">
<title>&#45;8</title>
<polygon fill="lightgray" stroke="black" points="250.43,-93.08 226.43,-93.08 226.43,-75.08 250.43,-75.08 250.43,-93.08"/>
<text text-anchor="middle" x="238.43" y="-81.88" font-family="Times New Roman,serif" font-size="9.00">&#45;8</text>
</g>
<!-- &#45;8&#45;&gt;0 -->
<g id="edge14" class="edge">
<title>&#45;8&#45;&gt;0</title>
<path fill="none" stroke="green" stroke-width="0.2" d="M229.4,-74.77C225.82,-71.71 221.58,-68.34 217.43,-65.7 190.84,-48.75 157.59,-33.92 135.72,-24.94"/>
<polygon fill="green" stroke="green" stroke-width="0.2" points="136.84,-21.62 126.25,-21.12 134.22,-28.11 136.84,-21.62"/>
</g>
<!-- &#45;8&#45;&gt;1 -->
<g id="edge15" class="edge">
<title>&#45;8&#45;&gt;1</title>
<path fill="none" stroke="green" stroke-width="0.14" d="M233.28,-74.84C227.36,-65.36 217.41,-49.44 209.35,-36.53"/>
<polygon fill="green" stroke="green" stroke-width="0.14" points="212.16,-34.42 203.89,-27.79 206.22,-38.13 212.16,-34.42"/>
</g>
<!-- 14&#45;&gt;1 -->
<g id="edge17" class="edge">
<title>14&#45;&gt;1</title>
<path fill="none" stroke="red" stroke-width="0.13" d="M313.5,-72.99C309.63,-70.5 305.42,-67.92 301.43,-65.7 273.87,-50.37 240.84,-35.18 219.28,-25.67"/>
<polygon fill="red" stroke="red" stroke-width="0.13" points="220.53,-22.4 209.97,-21.61 217.73,-28.82 220.53,-22.4"/>
</g>
</g>
</svg>
