<?xml version="1.0" encoding="UTF-8" standalone="no"?>
<!DOCTYPE svg PUBLIC "-//W3C//DTD SVG 1.1//EN"
 "http://www.w3.org/Graphics/SVG/1.1/DTD/svg11.dtd">
<!-- Generated by graphviz version 2.47.0 (20210316.0004)
 -->
<!-- Pages: 1 -->
<svg width="403pt" height="164pt"
 viewBox="0.00 0.00 403.11 164.47" xmlns="http://www.w3.org/2000/svg" xmlns:xlink="http://www.w3.org/1999/xlink">
<g id="graph0" class="graph" transform="scale(1 1) rotate(0) translate(4 160.47)">
<polygon fill="white" stroke="transparent" points="-4,4 -4,-160.47 399.11,-160.47 399.11,4 -4,4"/>
<!-- &#45;1 -->
<g id="node1" class="node">
<title>&#45;1</title>
<polygon fill="lightgray" stroke="black" points="162.53,-93.08 138.53,-93.08 138.53,-75.08 162.53,-75.08 162.53,-93.08"/>
<text text-anchor="middle" x="150.53" y="-81.88" font-family="Times New Roman,serif" font-size="9.00">&#45;1</text>
</g>
<!-- 0 -->
<g id="node9" class="node">
<title>0</title>
<ellipse fill="lightblue" stroke="black" cx="129.53" cy="-14.85" rx="14.7" ry="14.7"/>
<text text-anchor="middle" x="129.53" y="-12.65" font-family="Times New Roman,serif" font-size="9.00">0</text>
</g>
<!-- &#45;1&#45;&gt;0 -->
<g id="edge1" class="edge">
<title>&#45;1&#45;&gt;0</title>
<path fill="none" stroke="red" stroke-width="0.45" d="M147.96,-74.84C145.19,-65.96 140.65,-51.45 136.77,-39.03"/>
<polygon fill="red" stroke="red" stroke-width="0.45" points="140.05,-37.78 133.73,-29.27 133.37,-39.86 140.05,-37.78"/>
</g>
<!-- 1 -->
<g id="node10" class="node">
<title>1</title>
<ellipse fill="lightblue" stroke="black" cx="255.53" cy="-14.85" rx="14.7" ry="14.7"/>
<text text-anchor="middle" x="255.53" y="-12.65" font-family="Times New Roman,serif" font-size="9.00">1</text>
</g>
<!-- &#45;1&#45;&gt;1 -->
<g id="edge2" class="edge">
<title>&#45;1&#45;&gt;1</title>
<path fill="none" stroke="red" stroke-width="0.31" d="M159.7,-74.97C163.29,-71.93 167.51,-68.53 171.53,-65.7 191.89,-51.36 216.52,-37.08 233.83,-27.5"/>
<polygon fill="red" stroke="red" stroke-width="0.31" points="235.53,-30.56 242.62,-22.69 232.17,-24.42 235.53,-30.56"/>
</g>
<!-- &#45;2 -->
<g id="node2" class="node">
<title>&#45;2</title>
<polygon fill="lightgray" stroke="black" points="204.53,-93.08 180.53,-93.08 180.53,-75.08 204.53,-75.08 204.53,-93.08"/>
<text text-anchor="middle" x="192.53" y="-81.88" font-family="Times New Roman,serif" font-size="9.00">&#45;2</text>
</g>
<!-- &#45;2&#45;&gt;0 -->
<g id="edge3" class="edge">
<title>&#45;2&#45;&gt;0</title>
<path fill="none" stroke="red" stroke-width="0.24" d="M184.81,-74.84C175.34,-64.73 159.02,-47.32 146.56,-34.02"/>
<polygon fill="red" stroke="red" stroke-width="0.24" points="148.79,-31.28 139.39,-26.37 143.68,-36.06 148.79,-31.28"/>
</g>
<!-- &#45;2&#45;&gt;1 -->
<g id="edge4" class="edge">
<title>&#45;2&#45;&gt;1</title>
<path fill="none" stroke="green" stroke-width="0.17" d="M200.26,-74.84C209.73,-64.73 226.05,-47.32 238.51,-34.02"/>
<polygon fill="green" stroke="green" stroke-width="0.17" points="241.39,-36.06 245.67,-26.37 236.28,-31.28 241.39,-36.06"/>
</g>
<!-- &#45;3 -->
<g id="node3" class="node">
<title>&#45;3</title>
<polygon fill="lightgray" stroke="black" points="374.53,-156.47 350.53,-156.47 350.53,-138.47 374.53,-138.47 374.53,-156.47"/>
<text text-anchor="middle" x="362.53" y="-145.27" font-family="Times New Roman,serif" font-size="9.00">&#45;3</text>
</g>
<!-- &#45;3&#45;&gt;0 -->
<g id="edge5" class="edge">
<title>&#45;3&#45;&gt;0</title>
<path fill="none" stroke="red" stroke-width="0.52" d="M350.44,-142.15C346.38,-140.82 341.8,-139.45 337.53,-138.47 282.84,-125.87 124.28,-144.89 87.53,-102.47 69.24,-81.36 92.73,-50.89 111.25,-32.29"/>
<polygon fill="red" stroke="red" stroke-width="0.52" points="113.95,-34.55 118.74,-25.1 109.1,-29.5 113.95,-34.55"/>
</g>
<!-- &#45;3&#45;&gt;1 -->
<g id="edge6" class="edge">
<title>&#45;3&#45;&gt;1</title>
<path fill="none" stroke="red" stroke-width="0.24" d="M369.79,-138.22C382.45,-122.79 405.73,-89.01 389.53,-65.7 364.95,-30.33 312.12,-20 280.63,-17.02"/>
<polygon fill="red" stroke="red" stroke-width="0.24" points="280.71,-13.52 270.47,-16.25 280.17,-20.5 280.71,-13.52"/>
</g>
<!-- 15 -->
<g id="node11" class="node">
<title>15</title>
<ellipse fill="white" stroke="black" cx="362.53" cy="-84.08" rx="18.27" ry="18.27"/>
<text text-anchor="middle" x="362.53" y="-81.88" font-family="Times New Roman,serif" font-size="9.00">15</text>
</g>
<!-- &#45;3&#45;&gt;15 -->
<g id="edge18" class="edge">
<title>&#45;3&#45;&gt;15</title>
<path fill="none" stroke="red" stroke-width="0.11" d="M362.53,-138.44C362.53,-131.88 362.53,-122.19 362.53,-112.86"/>
<polygon fill="red" stroke="red" stroke-width="0.11" points="366.03,-112.67 362.53,-102.67 359.03,-112.67 366.03,-112.67"/>
</g>
<!-- &#45;4 -->
<g id="node4" class="node">
<title>&#45;4</title>
<polygon fill="lightgray" stroke="black" points="246.53,-93.08 222.53,-93.08 222.53,-75.08 246.53,-75.08 246.53,-93.08"/>
<text text-anchor="middle" x="234.53" y="-81.88" font-family="Times New Roman,serif" font-size="9.00">&#45;4</text>
</g>
<!-- &#45;4&#45;&gt;0 -->
<g id="edge7" class="edge">
<title>&#45;4&#45;&gt;0</title>
<path fill="none" stroke="red" stroke-width="0.21" d="M225.37,-74.97C221.78,-71.93 217.56,-68.53 213.53,-65.7 193.18,-51.36 168.54,-37.08 151.23,-27.5"/>
<polygon fill="red" stroke="red" stroke-width="0.21" points="152.89,-24.42 142.44,-22.69 149.53,-30.56 152.89,-24.42"/>
</g>
<!-- &#45;4&#45;&gt;1 -->
<g id="edge8" class="edge">
<title>&#45;4&#45;&gt;1</title>
<path fill="none" stroke="green" stroke-width="0.61" d="M237.11,-74.84C239.88,-65.96 244.41,-51.45 248.29,-39.03"/>
<polygon fill="green" stroke="green" stroke-width="0.61" points="251.7,-39.86 251.34,-29.27 245.02,-37.78 251.7,-39.86"/>
</g>
<!-- &#45;5 -->
<g id="node5" class="node">
<title>&#45;5</title>
<polygon fill="lightgray" stroke="black" points="328.53,-156.47 304.53,-156.47 304.53,-138.47 328.53,-138.47 328.53,-156.47"/>
<text text-anchor="middle" x="316.53" y="-145.27" font-family="Times New Roman,serif" font-size="9.00">&#45;5</text>
</g>
<!-- &#45;5&#45;&gt;0 -->
<g id="edge9" class="edge">
<title>&#45;5&#45;&gt;0</title>
<path fill="none" stroke="red" stroke-width="0.35" d="M304.43,-146.74C252.21,-147.62 47.13,-148.1 7.53,-102.47 -3.18,-90.12 -1.58,-79.26 7.53,-65.7 29.14,-33.53 75.55,-22.11 104.5,-18.06"/>
<polygon fill="red" stroke="red" stroke-width="0.35" points="105.13,-21.51 114.64,-16.84 104.3,-14.56 105.13,-21.51"/>
</g>
<!-- &#45;5&#45;&gt;1 -->
<g id="edge10" class="edge">
<title>&#45;5&#45;&gt;1</title>
<path fill="none" stroke="red" stroke-width="0.13" stroke-dasharray="1,5" d="M315.85,-138.01C314.33,-122.8 309.82,-90.16 297.53,-65.7 291.4,-53.5 281.72,-41.72 273.2,-32.69"/>
<polygon fill="red" stroke="red" stroke-width="0.13" points="275.64,-30.17 266.12,-25.5 270.65,-35.09 275.64,-30.17"/>
</g>
<!-- &#45;5&#45;&gt;15 -->
<g id="edge16" class="edge">
<title>&#45;5&#45;&gt;15</title>
<path fill="none" stroke="green" stroke-width="0.29" d="M322.55,-138.44C328.39,-130.65 337.53,-118.44 345.6,-107.67"/>
<polygon fill="green" stroke="green" stroke-width="0.29" points="348.57,-109.56 351.76,-99.46 342.96,-105.36 348.57,-109.56"/>
</g>
<!-- &#45;6 -->
<g id="node6" class="node">
<title>&#45;6</title>
<polygon fill="lightgray" stroke="black" points="288.53,-93.08 264.53,-93.08 264.53,-75.08 288.53,-75.08 288.53,-93.08"/>
<text text-anchor="middle" x="276.53" y="-81.88" font-family="Times New Roman,serif" font-size="9.00">&#45;6</text>
</g>
<!-- &#45;6&#45;&gt;0 -->
<g id="edge11" class="edge">
<title>&#45;6&#45;&gt;0</title>
<path fill="none" stroke="green" stroke-width="0.2" d="M268,-74.98C264.36,-71.8 259.93,-68.3 255.53,-65.7 222.25,-46.02 179.77,-31.06 153.62,-22.87"/>
<polygon fill="green" stroke="green" stroke-width="0.2" points="154.39,-19.45 143.81,-19.88 152.35,-26.15 154.39,-19.45"/>
</g>
<!-- &#45;6&#45;&gt;1 -->
<g id="edge12" class="edge">
<title>&#45;6&#45;&gt;1</title>
<path fill="none" stroke="red" stroke-width="0.23" d="M273.96,-74.84C271.19,-65.96 266.65,-51.45 262.77,-39.03"/>
<polygon fill="red" stroke="red" stroke-width="0.23" points="266.05,-37.78 259.73,-29.27 259.37,-39.86 266.05,-37.78"/>
</g>
<!-- &#45;7 -->
<g id="node7" class="node">
<title>&#45;7</title>
<polygon fill="lightgray" stroke="black" points="120.53,-93.08 96.53,-93.08 96.53,-75.08 120.53,-75.08 120.53,-93.08"/>
<text text-anchor="middle" x="108.53" y="-81.88" font-family="Times New Roman,serif" font-size="9.00">&#45;7</text>
</g>
<!-- &#45;7&#45;&gt;0 -->
<g id="edge13" class="edge">
<title>&#45;7&#45;&gt;0</title>
<path fill="none" stroke="green" stroke-width="0.31" d="M111.11,-74.84C113.88,-65.96 118.41,-51.45 122.29,-39.03"/>
<polygon fill="green" stroke="green" stroke-width="0.31" points="125.7,-39.86 125.34,-29.27 119.02,-37.78 125.7,-39.86"/>
</g>
<!-- &#45;7&#45;&gt;1 -->
<g id="edge14" class="edge">
<title>&#45;7&#45;&gt;1</title>
<path fill="none" stroke="green" stroke-width="0.35" d="M117.06,-74.98C120.71,-71.8 125.13,-68.3 129.53,-65.7 162.81,-46.02 205.29,-31.06 231.45,-22.87"/>
<polygon fill="green" stroke="green" stroke-width="0.35" points="232.71,-26.15 241.26,-19.88 230.67,-19.45 232.71,-26.15"/>
</g>
<!-- &#45;8 -->
<g id="node8" class="node">
<title>&#45;8</title>
<polygon fill="lightgray" stroke="black" points="40.53,-93.08 16.53,-93.08 16.53,-75.08 40.53,-75.08 40.53,-93.08"/>
<text text-anchor="middle" x="28.53" y="-81.88" font-family="Times New Roman,serif" font-size="9.00">&#45;8</text>
</g>
<!-- &#45;8&#45;&gt;0 -->
<g id="edge15" class="edge">
<title>&#45;8&#45;&gt;0</title>
<path fill="none" stroke="green" stroke-width="0.2" d="M40.7,-74.94C45.06,-72.02 50.02,-68.71 54.53,-65.7 72.95,-53.42 93.95,-39.47 109.03,-29.46"/>
<polygon fill="green" stroke="green" stroke-width="0.2" points="111.18,-32.23 117.58,-23.78 107.31,-26.4 111.18,-32.23"/>
</g>
<!-- 15&#45;&gt;1 -->
<g id="edge17" class="edge">
<title>15&#45;&gt;1</title>
<path fill="none" stroke="red" stroke-width="0.12" d="M347.2,-73.45C328.66,-61.8 297.36,-42.13 276.57,-29.07"/>
<polygon fill="red" stroke="red" stroke-width="0.12" points="278.17,-25.94 267.84,-23.58 274.45,-31.87 278.17,-25.94"/>
</g>
</g>
</svg>
