<?xml version="1.0" encoding="UTF-8" standalone="no"?>
<!DOCTYPE svg PUBLIC "-//W3C//DTD SVG 1.1//EN"
 "http://www.w3.org/Graphics/SVG/1.1/DTD/svg11.dtd">
<!-- Generated by graphviz version 2.47.0 (20210316.0004)
 -->
<!-- Pages: 1 -->
<svg width="414pt" height="164pt"
 viewBox="0.00 0.00 414.38 164.47" xmlns="http://www.w3.org/2000/svg" xmlns:xlink="http://www.w3.org/1999/xlink">
<g id="graph0" class="graph" transform="scale(1 1) rotate(0) translate(4 160.47)">
<polygon fill="white" stroke="transparent" points="-4,4 -4,-160.47 410.38,-160.47 410.38,4 -4,4"/>
<!-- &#45;1 -->
<g id="node1" class="node">
<title>&#45;1</title>
<polygon fill="lightgray" stroke="black" points="104,-93.08 80,-93.08 80,-75.08 104,-75.08 104,-93.08"/>
<text text-anchor="middle" x="92" y="-81.88" font-family="Times New Roman,serif" font-size="9.00">&#45;1</text>
</g>
<!-- 0 -->
<g id="node9" class="node">
<title>0</title>
<ellipse fill="lightblue" stroke="black" cx="164" cy="-14.85" rx="14.7" ry="14.7"/>
<text text-anchor="middle" x="164" y="-12.65" font-family="Times New Roman,serif" font-size="9.00">0</text>
</g>
<!-- &#45;1&#45;&gt;0 -->
<g id="edge1" class="edge">
<title>&#45;1&#45;&gt;0</title>
<path fill="none" stroke="red" stroke-width="0.12" d="M100.83,-74.84C111.98,-64.42 131.45,-46.24 145.84,-32.81"/>
<polygon fill="red" stroke="red" stroke-width="0.12" points="148.3,-35.3 153.22,-25.91 143.52,-30.18 148.3,-35.3"/>
</g>
<!-- 1 -->
<g id="node10" class="node">
<title>1</title>
<ellipse fill="lightblue" stroke="black" cx="230" cy="-14.85" rx="14.7" ry="14.7"/>
<text text-anchor="middle" x="230" y="-12.65" font-family="Times New Roman,serif" font-size="9.00">1</text>
</g>
<!-- &#45;1&#45;&gt;1 -->
<g id="edge2" class="edge">
<title>&#45;1&#45;&gt;1</title>
<path fill="none" stroke="red" stroke-width="0.37" d="M100.56,-75.04C104.21,-71.87 108.63,-68.36 113,-65.7 143.52,-47.1 182.23,-32.09 206.56,-23.57"/>
<polygon fill="red" stroke="red" stroke-width="0.37" points="207.72,-26.87 216.04,-20.32 205.45,-20.25 207.72,-26.87"/>
</g>
<!-- &#45;2 -->
<g id="node2" class="node">
<title>&#45;2</title>
<polygon fill="lightgray" stroke="black" points="146,-93.08 122,-93.08 122,-75.08 146,-75.08 146,-93.08"/>
<text text-anchor="middle" x="134" y="-81.88" font-family="Times New Roman,serif" font-size="9.00">&#45;2</text>
</g>
<!-- &#45;2&#45;&gt;0 -->
<g id="edge3" class="edge">
<title>&#45;2&#45;&gt;0</title>
<path fill="none" stroke="green" stroke-width="0.18" d="M137.68,-74.84C141.73,-65.76 148.41,-50.79 154.03,-38.2"/>
<polygon fill="green" stroke="green" stroke-width="0.18" points="157.35,-39.33 158.23,-28.77 150.96,-36.48 157.35,-39.33"/>
</g>
<!-- &#45;2&#45;&gt;1 -->
<g id="edge4" class="edge">
<title>&#45;2&#45;&gt;1</title>
<path fill="none" stroke="green" stroke-width="0.18" d="M143.24,-75.08C146.84,-72.05 151.05,-68.63 155,-65.7 172.77,-52.49 193.83,-38.64 209.1,-28.9"/>
<polygon fill="green" stroke="green" stroke-width="0.18" points="211.2,-31.72 217.78,-23.41 207.46,-25.8 211.2,-31.72"/>
</g>
<!-- &#45;3 -->
<g id="node3" class="node">
<title>&#45;3</title>
<polygon fill="lightgray" stroke="black" points="188,-93.08 164,-93.08 164,-75.08 188,-75.08 188,-93.08"/>
<text text-anchor="middle" x="176" y="-81.88" font-family="Times New Roman,serif" font-size="9.00">&#45;3</text>
</g>
<!-- &#45;3&#45;&gt;0 -->
<g id="edge5" class="edge">
<title>&#45;3&#45;&gt;0</title>
<path fill="none" stroke="red" stroke-width="0.1" d="M174.53,-74.84C172.97,-66.11 170.44,-51.91 168.25,-39.64"/>
<polygon fill="red" stroke="red" stroke-width="0.1" points="171.64,-38.76 166.44,-29.53 164.75,-39.99 171.64,-38.76"/>
</g>
<!-- &#45;3&#45;&gt;1 -->
<g id="edge6" class="edge">
<title>&#45;3&#45;&gt;1</title>
<path fill="none" stroke="green" stroke-width="0.36" d="M182.62,-74.84C190.57,-64.94 204.15,-48.04 214.74,-34.85"/>
<polygon fill="green" stroke="green" stroke-width="0.36" points="217.64,-36.83 221.17,-26.84 212.18,-32.44 217.64,-36.83"/>
</g>
<!-- &#45;4 -->
<g id="node4" class="node">
<title>&#45;4</title>
<polygon fill="lightgray" stroke="black" points="24,-93.08 0,-93.08 0,-75.08 24,-75.08 24,-93.08"/>
<text text-anchor="middle" x="12" y="-81.88" font-family="Times New Roman,serif" font-size="9.00">&#45;4</text>
</g>
<!-- &#45;4&#45;&gt;0 -->
<g id="edge7" class="edge">
<title>&#45;4&#45;&gt;0</title>
<path fill="none" stroke="green" stroke-width="0.16" d="M23.07,-74.93C27.57,-71.81 32.9,-68.37 38,-65.7 72.24,-47.74 114.45,-32.29 140.28,-23.54"/>
<polygon fill="green" stroke="green" stroke-width="0.16" points="141.58,-26.79 149.96,-20.31 139.37,-20.15 141.58,-26.79"/>
</g>
<!-- &#45;5 -->
<g id="node5" class="node">
<title>&#45;5</title>
<polygon fill="lightgray" stroke="black" points="230,-93.08 206,-93.08 206,-75.08 230,-75.08 230,-93.08"/>
<text text-anchor="middle" x="218" y="-81.88" font-family="Times New Roman,serif" font-size="9.00">&#45;5</text>
</g>
<!-- &#45;5&#45;&gt;0 -->
<g id="edge8" class="edge">
<title>&#45;5&#45;&gt;0</title>
<path fill="none" stroke="green" stroke-width="0.4" d="M211.38,-74.84C203.43,-64.94 189.85,-48.04 179.26,-34.85"/>
<polygon fill="green" stroke="green" stroke-width="0.4" points="181.82,-32.44 172.83,-26.84 176.36,-36.83 181.82,-32.44"/>
</g>
<!-- &#45;5&#45;&gt;1 -->
<g id="edge9" class="edge">
<title>&#45;5&#45;&gt;1</title>
<path fill="none" stroke="green" stroke-width="0.3" d="M219.47,-74.84C221.03,-66.11 223.56,-51.91 225.75,-39.64"/>
<polygon fill="green" stroke="green" stroke-width="0.3" points="229.25,-39.99 227.56,-29.53 222.36,-38.76 229.25,-39.99"/>
</g>
<!-- &#45;6 -->
<g id="node6" class="node">
<title>&#45;6</title>
<polygon fill="lightgray" stroke="black" points="354,-156.47 330,-156.47 330,-138.47 354,-138.47 354,-156.47"/>
<text text-anchor="middle" x="342" y="-145.27" font-family="Times New Roman,serif" font-size="9.00">&#45;6</text>
</g>
<!-- &#45;6&#45;&gt;0 -->
<g id="edge10" class="edge">
<title>&#45;6&#45;&gt;0</title>
<path fill="none" stroke="red" stroke-width="0.19" d="M329.78,-146.47C281.5,-146.21 105.05,-142.49 71,-102.47 60.41,-90.02 62.61,-79.72 71,-65.7 85.78,-41 117.45,-27.84 139.71,-21.36"/>
<polygon fill="red" stroke="red" stroke-width="0.19" points="140.71,-24.72 149.47,-18.77 138.91,-17.95 140.71,-24.72"/>
</g>
<!-- &#45;6&#45;&gt;1 -->
<g id="edge11" class="edge">
<title>&#45;6&#45;&gt;1</title>
<path fill="none" stroke="green" stroke-width="0.26" stroke-dasharray="1,5" d="M342.19,-138.45C342.16,-122.82 340.02,-87.86 323,-65.7 305.74,-43.22 275.38,-29.71 254.06,-22.53"/>
<polygon fill="green" stroke="green" stroke-width="0.26" points="255,-19.16 244.41,-19.51 252.91,-25.84 255,-19.16"/>
</g>
<!-- 18 -->
<g id="node11" class="node">
<title>18</title>
<ellipse fill="white" stroke="black" cx="388" cy="-84.08" rx="18.27" ry="18.27"/>
<text text-anchor="middle" x="388" y="-81.88" font-family="Times New Roman,serif" font-size="9.00">18</text>
</g>
<!-- &#45;6&#45;&gt;18 -->
<g id="edge16" class="edge">
<title>&#45;6&#45;&gt;18</title>
<path fill="none" stroke="green" stroke-width="0.3" d="M348.01,-138.44C353.86,-130.65 363,-118.44 371.07,-107.67"/>
<polygon fill="green" stroke="green" stroke-width="0.3" points="374.03,-109.56 377.23,-99.46 368.43,-105.36 374.03,-109.56"/>
</g>
<!-- &#45;7 -->
<g id="node7" class="node">
<title>&#45;7</title>
<polygon fill="lightgray" stroke="black" points="272,-93.08 248,-93.08 248,-75.08 272,-75.08 272,-93.08"/>
<text text-anchor="middle" x="260" y="-81.88" font-family="Times New Roman,serif" font-size="9.00">&#45;7</text>
</g>
<!-- &#45;7&#45;&gt;0 -->
<g id="edge12" class="edge">
<title>&#45;7&#45;&gt;0</title>
<path fill="none" stroke="red" stroke-width="0.19" d="M250.76,-75.08C247.16,-72.05 242.95,-68.63 239,-65.7 221.23,-52.49 200.17,-38.64 184.9,-28.9"/>
<polygon fill="red" stroke="red" stroke-width="0.19" points="186.54,-25.8 176.22,-23.41 182.8,-31.72 186.54,-25.8"/>
</g>
<!-- &#45;7&#45;&gt;1 -->
<g id="edge13" class="edge">
<title>&#45;7&#45;&gt;1</title>
<path fill="none" stroke="green" stroke-width="0.12" d="M256.32,-74.84C252.27,-65.76 245.59,-50.79 239.97,-38.2"/>
<polygon fill="green" stroke="green" stroke-width="0.12" points="243.04,-36.48 235.77,-28.77 236.65,-39.33 243.04,-36.48"/>
</g>
<!-- &#45;8 -->
<g id="node8" class="node">
<title>&#45;8</title>
<polygon fill="lightgray" stroke="black" points="314,-93.08 290,-93.08 290,-75.08 314,-75.08 314,-93.08"/>
<text text-anchor="middle" x="302" y="-81.88" font-family="Times New Roman,serif" font-size="9.00">&#45;8</text>
</g>
<!-- &#45;8&#45;&gt;0 -->
<g id="edge14" class="edge">
<title>&#45;8&#45;&gt;0</title>
<path fill="none" stroke="green" stroke-width="0.39" d="M293.44,-75.04C289.79,-71.87 285.37,-68.36 281,-65.7 250.48,-47.1 211.77,-32.09 187.44,-23.57"/>
<polygon fill="green" stroke="green" stroke-width="0.39" points="188.55,-20.25 177.96,-20.32 186.28,-26.87 188.55,-20.25"/>
</g>
<!-- &#45;8&#45;&gt;1 -->
<g id="edge15" class="edge">
<title>&#45;8&#45;&gt;1</title>
<path fill="none" stroke="red" stroke-width="0.43" d="M293.17,-74.84C282.02,-64.42 262.55,-46.24 248.16,-32.81"/>
<polygon fill="red" stroke="red" stroke-width="0.43" points="250.48,-30.18 240.78,-25.91 245.7,-35.3 250.48,-30.18"/>
</g>
<!-- 18&#45;&gt;1 -->
<g id="edge17" class="edge">
<title>18&#45;&gt;1</title>
<path fill="none" stroke="green" stroke-width="0.26" d="M372.24,-74.03C367.13,-71.23 361.38,-68.21 356,-65.7 320.97,-49.33 278.99,-33.43 253.41,-24.15"/>
<polygon fill="green" stroke="green" stroke-width="0.26" points="254.43,-20.79 243.84,-20.7 252.07,-27.38 254.43,-20.79"/>
</g>
</g>
</svg>
