<?xml version="1.0" encoding="UTF-8" standalone="no"?>
<!DOCTYPE svg PUBLIC "-//W3C//DTD SVG 1.1//EN"
 "http://www.w3.org/Graphics/SVG/1.1/DTD/svg11.dtd">
<!-- Generated by graphviz version 2.47.0 (20210316.0004)
 -->
<!-- Pages: 1 -->
<svg width="479pt" height="164pt"
 viewBox="0.00 0.00 479.20 164.47" xmlns="http://www.w3.org/2000/svg" xmlns:xlink="http://www.w3.org/1999/xlink">
<g id="graph0" class="graph" transform="scale(1 1) rotate(0) translate(4 160.47)">
<polygon fill="white" stroke="transparent" points="-4,4 -4,-160.47 475.2,-160.47 475.2,4 -4,4"/>
<!-- &#45;1 -->
<g id="node1" class="node">
<title>&#45;1</title>
<polygon fill="lightgray" stroke="black" points="298.82,-93.08 274.82,-93.08 274.82,-75.08 298.82,-75.08 298.82,-93.08"/>
<text text-anchor="middle" x="286.82" y="-81.88" font-family="Times New Roman,serif" font-size="9.00">&#45;1</text>
</g>
<!-- 0 -->
<g id="node9" class="node">
<title>0</title>
<ellipse fill="lightblue" stroke="black" cx="160.82" cy="-14.85" rx="14.7" ry="14.7"/>
<text text-anchor="middle" x="160.82" y="-12.65" font-family="Times New Roman,serif" font-size="9.00">0</text>
</g>
<!-- &#45;1&#45;&gt;0 -->
<g id="edge1" class="edge">
<title>&#45;1&#45;&gt;0</title>
<path fill="none" stroke="red" stroke-width="0.11" d="M277.79,-74.77C274.21,-71.71 269.97,-68.34 265.82,-65.7 239.22,-48.75 205.98,-33.92 184.1,-24.94"/>
<polygon fill="red" stroke="red" stroke-width="0.11" points="185.22,-21.62 174.64,-21.12 182.61,-28.11 185.22,-21.62"/>
</g>
<!-- 1 -->
<g id="node10" class="node">
<title>1</title>
<ellipse fill="lightblue" stroke="black" cx="307.82" cy="-14.85" rx="14.7" ry="14.7"/>
<text text-anchor="middle" x="307.82" y="-12.65" font-family="Times New Roman,serif" font-size="9.00">1</text>
</g>
<!-- &#45;1&#45;&gt;1 -->
<g id="edge2" class="edge">
<title>&#45;1&#45;&gt;1</title>
<path fill="none" stroke="red" stroke-width="0.37" d="M289.39,-74.84C292.16,-65.96 296.7,-51.45 300.57,-39.03"/>
<polygon fill="red" stroke="red" stroke-width="0.37" points="303.98,-39.86 303.62,-29.27 297.3,-37.78 303.98,-39.86"/>
</g>
<!-- &#45;2 -->
<g id="node2" class="node">
<title>&#45;2</title>
<polygon fill="lightgray" stroke="black" points="340.82,-93.08 316.82,-93.08 316.82,-75.08 340.82,-75.08 340.82,-93.08"/>
<text text-anchor="middle" x="328.82" y="-81.88" font-family="Times New Roman,serif" font-size="9.00">&#45;2</text>
</g>
<!-- &#45;2&#45;&gt;0 -->
<g id="edge3" class="edge">
<title>&#45;2&#45;&gt;0</title>
<path fill="none" stroke="green" stroke-width="0.18" d="M320.35,-74.87C316.71,-71.67 312.28,-68.19 307.82,-65.7 267.58,-43.23 215.51,-28.54 185.36,-21.26"/>
<polygon fill="green" stroke="green" stroke-width="0.18" points="185.85,-17.78 175.31,-18.91 184.25,-24.59 185.85,-17.78"/>
</g>
<!-- &#45;2&#45;&gt;1 -->
<g id="edge4" class="edge">
<title>&#45;2&#45;&gt;1</title>
<path fill="none" stroke="green" stroke-width="0.2" d="M326.24,-74.84C323.47,-65.96 318.93,-51.45 315.06,-39.03"/>
<polygon fill="green" stroke="green" stroke-width="0.2" points="318.33,-37.78 312.01,-29.27 311.65,-39.86 318.33,-37.78"/>
</g>
<!-- &#45;3 -->
<g id="node3" class="node">
<title>&#45;3</title>
<polygon fill="lightgray" stroke="black" points="172.82,-93.08 148.82,-93.08 148.82,-75.08 172.82,-75.08 172.82,-93.08"/>
<text text-anchor="middle" x="160.82" y="-81.88" font-family="Times New Roman,serif" font-size="9.00">&#45;3</text>
</g>
<!-- &#45;3&#45;&gt;0 -->
<g id="edge5" class="edge">
<title>&#45;3&#45;&gt;0</title>
<path fill="none" stroke="red" stroke-width="0.1" d="M160.82,-74.84C160.82,-66.16 160.82,-52.09 160.82,-39.86"/>
<polygon fill="red" stroke="red" stroke-width="0.1" points="164.32,-39.78 160.82,-29.78 157.32,-39.78 164.32,-39.78"/>
</g>
<!-- &#45;3&#45;&gt;1 -->
<g id="edge6" class="edge">
<title>&#45;3&#45;&gt;1</title>
<path fill="none" stroke="green" stroke-width="0.36" d="M169.34,-74.98C172.99,-71.8 177.42,-68.3 181.82,-65.7 215.09,-46.02 257.58,-31.06 283.73,-22.87"/>
<polygon fill="green" stroke="green" stroke-width="0.36" points="285,-26.15 293.54,-19.88 282.95,-19.45 285,-26.15"/>
</g>
<!-- &#45;4 -->
<g id="node4" class="node">
<title>&#45;4</title>
<polygon fill="lightgray" stroke="black" points="92.82,-93.08 68.82,-93.08 68.82,-75.08 92.82,-75.08 92.82,-93.08"/>
<text text-anchor="middle" x="80.82" y="-81.88" font-family="Times New Roman,serif" font-size="9.00">&#45;4</text>
</g>
<!-- &#45;4&#45;&gt;0 -->
<g id="edge7" class="edge">
<title>&#45;4&#45;&gt;0</title>
<path fill="none" stroke="green" stroke-width="0.16" d="M90.62,-74.84C103.42,-64.09 126.05,-45.06 142.16,-31.53"/>
<polygon fill="green" stroke="green" stroke-width="0.16" points="144.5,-34.14 149.9,-25.02 139.99,-28.78 144.5,-34.14"/>
</g>
<!-- &#45;5 -->
<g id="node5" class="node">
<title>&#45;5</title>
<polygon fill="lightgray" stroke="black" points="44.82,-156.47 20.82,-156.47 20.82,-138.47 44.82,-138.47 44.82,-156.47"/>
<text text-anchor="middle" x="32.82" y="-145.27" font-family="Times New Roman,serif" font-size="9.00">&#45;5</text>
</g>
<!-- &#45;5&#45;&gt;0 -->
<g id="edge8" class="edge">
<title>&#45;5&#45;&gt;0</title>
<path fill="none" stroke="green" stroke-width="0.13" stroke-dasharray="1,5" d="M25.46,-138.15C12.64,-122.6 -10.91,-88.64 5.82,-65.7 35.69,-24.71 99.84,-16.69 135.53,-15.56"/>
<polygon fill="green" stroke="green" stroke-width="0.13" points="135.68,-19.06 145.63,-15.4 135.57,-12.06 135.68,-19.06"/>
</g>
<!-- &#45;5&#45;&gt;1 -->
<g id="edge9" class="edge">
<title>&#45;5&#45;&gt;1</title>
<path fill="none" stroke="green" stroke-width="0.14" d="M44.87,-146.78C97.84,-147.89 309.04,-149.29 349.82,-102.47 368.16,-81.4 344.65,-50.93 326.12,-32.3"/>
<polygon fill="green" stroke="green" stroke-width="0.14" points="328.26,-29.51 318.62,-25.11 323.41,-34.56 328.26,-29.51"/>
</g>
<!-- 19 -->
<g id="node12" class="node">
<title>19</title>
<ellipse fill="white" stroke="black" cx="32.82" cy="-84.08" rx="18.27" ry="18.27"/>
<text text-anchor="middle" x="32.82" y="-81.88" font-family="Times New Roman,serif" font-size="9.00">19</text>
</g>
<!-- &#45;5&#45;&gt;19 -->
<g id="edge18" class="edge">
<title>&#45;5&#45;&gt;19</title>
<path fill="none" stroke="green" stroke-width="0.23" d="M32.82,-138.44C32.82,-131.88 32.82,-122.19 32.82,-112.86"/>
<polygon fill="green" stroke="green" stroke-width="0.23" points="36.32,-112.67 32.82,-102.67 29.32,-112.67 36.32,-112.67"/>
</g>
<!-- &#45;6 -->
<g id="node6" class="node">
<title>&#45;6</title>
<polygon fill="lightgray" stroke="black" points="418.82,-156.47 394.82,-156.47 394.82,-138.47 418.82,-138.47 418.82,-156.47"/>
<text text-anchor="middle" x="406.82" y="-145.27" font-family="Times New Roman,serif" font-size="9.00">&#45;6</text>
</g>
<!-- &#45;6&#45;&gt;0 -->
<g id="edge10" class="edge">
<title>&#45;6&#45;&gt;0</title>
<path fill="none" stroke="red" stroke-width="0.19" d="M394.77,-146.44C347.19,-146.06 173.33,-141.96 139.82,-102.47 123.98,-83.81 135.72,-55.16 147.01,-35.97"/>
<polygon fill="red" stroke="red" stroke-width="0.19" points="150.04,-37.73 152.39,-27.4 144.11,-34.01 150.04,-37.73"/>
</g>
<!-- &#45;6&#45;&gt;1 -->
<g id="edge11" class="edge">
<title>&#45;6&#45;&gt;1</title>
<path fill="none" stroke="green" stroke-width="0.26" stroke-dasharray="1,5" d="M406.2,-138.08C404.66,-122.42 399.51,-88.29 382.82,-65.7 369.38,-47.52 347.19,-33.97 330.42,-25.62"/>
<polygon fill="green" stroke="green" stroke-width="0.26" points="331.82,-22.41 321.28,-21.31 328.84,-28.74 331.82,-22.41"/>
</g>
<!-- 18 -->
<g id="node11" class="node">
<title>18</title>
<ellipse fill="white" stroke="black" cx="452.82" cy="-84.08" rx="18.27" ry="18.27"/>
<text text-anchor="middle" x="452.82" y="-81.88" font-family="Times New Roman,serif" font-size="9.00">18</text>
</g>
<!-- &#45;6&#45;&gt;18 -->
<g id="edge16" class="edge">
<title>&#45;6&#45;&gt;18</title>
<path fill="none" stroke="green" stroke-width="0.3" d="M412.83,-138.44C418.67,-130.65 427.82,-118.44 435.89,-107.67"/>
<polygon fill="green" stroke="green" stroke-width="0.3" points="438.85,-109.56 442.04,-99.46 433.25,-105.36 438.85,-109.56"/>
</g>
<!-- &#45;7 -->
<g id="node7" class="node">
<title>&#45;7</title>
<polygon fill="lightgray" stroke="black" points="214.82,-93.08 190.82,-93.08 190.82,-75.08 214.82,-75.08 214.82,-93.08"/>
<text text-anchor="middle" x="202.82" y="-81.88" font-family="Times New Roman,serif" font-size="9.00">&#45;7</text>
</g>
<!-- &#45;7&#45;&gt;0 -->
<g id="edge12" class="edge">
<title>&#45;7&#45;&gt;0</title>
<path fill="none" stroke="red" stroke-width="0.19" d="M197.67,-74.84C191.74,-65.36 181.8,-49.44 173.73,-36.53"/>
<polygon fill="red" stroke="red" stroke-width="0.19" points="176.54,-34.42 168.28,-27.79 170.61,-38.13 176.54,-34.42"/>
</g>
<!-- &#45;7&#45;&gt;1 -->
<g id="edge13" class="edge">
<title>&#45;7&#45;&gt;1</title>
<path fill="none" stroke="green" stroke-width="0.12" d="M211.98,-74.97C215.57,-71.93 219.79,-68.53 223.82,-65.7 244.17,-51.36 268.81,-37.08 286.12,-27.5"/>
<polygon fill="green" stroke="green" stroke-width="0.12" points="287.81,-30.56 294.91,-22.69 284.45,-24.42 287.81,-30.56"/>
</g>
<!-- &#45;8 -->
<g id="node8" class="node">
<title>&#45;8</title>
<polygon fill="lightgray" stroke="black" points="256.82,-93.08 232.82,-93.08 232.82,-75.08 256.82,-75.08 256.82,-93.08"/>
<text text-anchor="middle" x="244.82" y="-81.88" font-family="Times New Roman,serif" font-size="9.00">&#45;8</text>
</g>
<!-- &#45;8&#45;&gt;0 -->
<g id="edge14" class="edge">
<title>&#45;8&#45;&gt;0</title>
<path fill="none" stroke="green" stroke-width="0.35" d="M235.02,-74.9C231.5,-71.98 227.49,-68.68 223.82,-65.7 209.19,-53.86 192.49,-40.66 179.96,-30.82"/>
<polygon fill="green" stroke="green" stroke-width="0.35" points="182.06,-28.02 172.03,-24.6 177.74,-33.52 182.06,-28.02"/>
</g>
<!-- &#45;8&#45;&gt;1 -->
<g id="edge15" class="edge">
<title>&#45;8&#45;&gt;1</title>
<path fill="none" stroke="red" stroke-width="0.43" d="M252.54,-74.84C262.01,-64.73 278.33,-47.32 290.79,-34.02"/>
<polygon fill="red" stroke="red" stroke-width="0.43" points="293.67,-36.06 297.95,-26.37 288.56,-31.28 293.67,-36.06"/>
</g>
<!-- 18&#45;&gt;1 -->
<g id="edge17" class="edge">
<title>18&#45;&gt;1</title>
<path fill="none" stroke="green" stroke-width="0.26" d="M437,-74.16C431.88,-71.36 426.15,-68.32 420.82,-65.7 389.97,-50.55 353.45,-34.83 330.46,-25.19"/>
<polygon fill="green" stroke="green" stroke-width="0.26" points="331.78,-21.95 321.2,-21.33 329.08,-28.41 331.78,-21.95"/>
</g>
<!-- 19&#45;&gt;0 -->
<g id="edge19" class="edge">
<title>19&#45;&gt;0</title>
<path fill="none" stroke="green" stroke-width="0.4" d="M47.77,-73.03C51.64,-70.54 55.84,-67.95 59.82,-65.7 86.14,-50.79 117.52,-35.7 138.25,-26.09"/>
<polygon fill="green" stroke="green" stroke-width="0.4" points="139.87,-29.19 147.49,-21.84 136.95,-22.83 139.87,-29.19"/>
</g>
</g>
</svg>
