<?xml version="1.0" encoding="UTF-8" standalone="no"?>
<!DOCTYPE svg PUBLIC "-//W3C//DTD SVG 1.1//EN"
 "http://www.w3.org/Graphics/SVG/1.1/DTD/svg11.dtd">
<!-- Generated by graphviz version 2.47.0 (20210316.0004)
 -->
<!-- Pages: 1 -->
<svg width="326pt" height="92pt"
 viewBox="0.00 0.00 326.00 91.70" xmlns="http://www.w3.org/2000/svg" xmlns:xlink="http://www.w3.org/1999/xlink">
<g id="graph0" class="graph" transform="scale(1 1) rotate(0) translate(4 87.7)">
<polygon fill="white" stroke="transparent" points="-4,4 -4,-87.7 322,-87.7 322,4 -4,4"/>
<!-- &#45;1 -->
<g id="node1" class="node">
<title>&#45;1</title>
<polygon fill="lightgray" stroke="black" points="234,-83.7 210,-83.7 210,-65.7 234,-65.7 234,-83.7"/>
<text text-anchor="middle" x="222" y="-72.5" font-family="Times New Roman,serif" font-size="9.00">&#45;1</text>
</g>
<!-- 0 -->
<g id="node9" class="node">
<title>0</title>
<ellipse fill="lightblue" stroke="black" cx="132" cy="-14.85" rx="14.7" ry="14.7"/>
<text text-anchor="middle" x="132" y="-12.65" font-family="Times New Roman,serif" font-size="9.00">0</text>
</g>
<!-- &#45;1&#45;&gt;0 -->
<g id="edge1" class="edge">
<title>&#45;1&#45;&gt;0</title>
<path fill="none" stroke="red" stroke-width="0.33" d="M209.86,-65.9C195.23,-56.49 170.42,-40.55 152.74,-29.18"/>
<polygon fill="red" stroke="red" stroke-width="0.33" points="154.54,-26.18 144.23,-23.71 150.75,-32.06 154.54,-26.18"/>
</g>
<!-- 1 -->
<g id="node10" class="node">
<title>1</title>
<ellipse fill="lightblue" stroke="black" cx="180" cy="-14.85" rx="14.7" ry="14.7"/>
<text text-anchor="middle" x="180" y="-12.65" font-family="Times New Roman,serif" font-size="9.00">1</text>
</g>
<!-- &#45;1&#45;&gt;1 -->
<g id="edge2" class="edge">
<title>&#45;1&#45;&gt;1</title>
<path fill="none" stroke="red" stroke-width="0.33" d="M216.16,-65.65C210.53,-57.89 201.77,-45.84 194.29,-35.53"/>
<polygon fill="red" stroke="red" stroke-width="0.33" points="197.11,-33.45 188.4,-27.42 191.44,-37.57 197.11,-33.45"/>
</g>
<!-- &#45;2 -->
<g id="node2" class="node">
<title>&#45;2</title>
<polygon fill="lightgray" stroke="black" points="276,-83.7 252,-83.7 252,-65.7 276,-65.7 276,-83.7"/>
<text text-anchor="middle" x="264" y="-72.5" font-family="Times New Roman,serif" font-size="9.00">&#45;2</text>
</g>
<!-- &#45;2&#45;&gt;0 -->
<g id="edge3" class="edge">
<title>&#45;2&#45;&gt;0</title>
<path fill="none" stroke="green" stroke-width="0.5" d="M251.92,-69.02C227.66,-59.58 173.82,-38.42 156,-29.7 155.17,-29.29 154.33,-28.87 153.48,-28.43"/>
<polygon fill="green" stroke="green" stroke-width="0.5" points="154.98,-25.26 144.53,-23.51 151.61,-31.39 154.98,-25.26"/>
</g>
<!-- &#45;2&#45;&gt;1 -->
<g id="edge4" class="edge">
<title>&#45;2&#45;&gt;1</title>
<path fill="none" stroke="green" stroke-width="0.28" d="M252.32,-65.65C238.86,-56.38 216.49,-40.98 200.19,-29.75"/>
<polygon fill="green" stroke="green" stroke-width="0.28" points="202.07,-26.8 191.85,-24.01 198.1,-32.57 202.07,-26.8"/>
</g>
<!-- &#45;3 -->
<g id="node3" class="node">
<title>&#45;3</title>
<polygon fill="lightgray" stroke="black" points="24,-83.7 0,-83.7 0,-65.7 24,-65.7 24,-83.7"/>
<text text-anchor="middle" x="12" y="-72.5" font-family="Times New Roman,serif" font-size="9.00">&#45;3</text>
</g>
<!-- &#45;3&#45;&gt;0 -->
<g id="edge5" class="edge">
<title>&#45;3&#45;&gt;0</title>
<path fill="none" stroke="green" stroke-width="0.33" d="M24.39,-67.73C44.48,-58.04 84.44,-38.78 109.61,-26.64"/>
<polygon fill="green" stroke="green" stroke-width="0.33" points="111.28,-29.72 118.77,-22.23 108.24,-23.42 111.28,-29.72"/>
</g>
<!-- &#45;3&#45;&gt;1 -->
<g id="edge6" class="edge">
<title>&#45;3&#45;&gt;1</title>
<path fill="none" stroke="green" stroke-width="0.31" d="M24.38,-68.8C27.2,-67.73 30.19,-66.64 33,-65.7 86.99,-47.55 103.63,-52.09 156,-29.7 156.85,-29.33 157.71,-28.95 158.57,-28.54"/>
<polygon fill="green" stroke="green" stroke-width="0.31" points="160.39,-31.54 167.59,-23.76 157.11,-25.35 160.39,-31.54"/>
</g>
<!-- &#45;4 -->
<g id="node4" class="node">
<title>&#45;4</title>
<polygon fill="lightgray" stroke="black" points="66,-83.7 42,-83.7 42,-65.7 66,-65.7 66,-83.7"/>
<text text-anchor="middle" x="54" y="-72.5" font-family="Times New Roman,serif" font-size="9.00">&#45;4</text>
</g>
<!-- &#45;4&#45;&gt;0 -->
<g id="edge7" class="edge">
<title>&#45;4&#45;&gt;0</title>
<path fill="none" stroke="green" stroke-width="0.32" d="M64.85,-65.65C77.09,-56.57 97.27,-41.61 112.32,-30.45"/>
<polygon fill="green" stroke="green" stroke-width="0.32" points="114.54,-33.16 120.49,-24.39 110.37,-27.53 114.54,-33.16"/>
</g>
<!-- &#45;4&#45;&gt;1 -->
<g id="edge8" class="edge">
<title>&#45;4&#45;&gt;1</title>
<path fill="none" stroke="green" stroke-width="0.28" d="M66.14,-68.99C85.47,-61.39 124.29,-45.62 156,-29.7 156.83,-29.28 157.67,-28.85 158.51,-28.41"/>
<polygon fill="green" stroke="green" stroke-width="0.28" points="160.39,-31.37 167.45,-23.46 157,-25.24 160.39,-31.37"/>
</g>
<!-- &#45;5 -->
<g id="node5" class="node">
<title>&#45;5</title>
<polygon fill="lightgray" stroke="black" points="318,-83.7 294,-83.7 294,-65.7 318,-65.7 318,-83.7"/>
<text text-anchor="middle" x="306" y="-72.5" font-family="Times New Roman,serif" font-size="9.00">&#45;5</text>
</g>
<!-- &#45;5&#45;&gt;1 -->
<g id="edge9" class="edge">
<title>&#45;5&#45;&gt;1</title>
<path fill="none" stroke="red" stroke-width="0.1" d="M293.92,-68.15C272.95,-58.52 229.48,-38.57 202.72,-26.28"/>
<polygon fill="red" stroke="red" stroke-width="0.1" points="203.91,-22.98 193.36,-21.99 200.99,-29.34 203.91,-22.98"/>
</g>
<!-- &#45;6 -->
<g id="node6" class="node">
<title>&#45;6</title>
<polygon fill="lightgray" stroke="black" points="108,-83.7 84,-83.7 84,-65.7 108,-65.7 108,-83.7"/>
<text text-anchor="middle" x="96" y="-72.5" font-family="Times New Roman,serif" font-size="9.00">&#45;6</text>
</g>
<!-- &#45;6&#45;&gt;0 -->
<g id="edge10" class="edge">
<title>&#45;6&#45;&gt;0</title>
<path fill="none" stroke="green" stroke-width="0.12" d="M101.01,-65.65C105.68,-58.14 112.86,-46.61 119.13,-36.53"/>
<polygon fill="green" stroke="green" stroke-width="0.12" points="122.22,-38.18 124.54,-27.84 116.28,-34.49 122.22,-38.18"/>
</g>
<!-- &#45;6&#45;&gt;1 -->
<g id="edge11" class="edge">
<title>&#45;6&#45;&gt;1</title>
<path fill="none" stroke="green" stroke-width="0.39" d="M107.68,-65.65C121.14,-56.38 143.51,-40.98 159.81,-29.75"/>
<polygon fill="green" stroke="green" stroke-width="0.39" points="161.9,-32.57 168.15,-24.01 157.93,-26.8 161.9,-32.57"/>
</g>
<!-- &#45;7 -->
<g id="node7" class="node">
<title>&#45;7</title>
<polygon fill="lightgray" stroke="black" points="150,-83.7 126,-83.7 126,-65.7 150,-65.7 150,-83.7"/>
<text text-anchor="middle" x="138" y="-72.5" font-family="Times New Roman,serif" font-size="9.00">&#45;7</text>
</g>
<!-- &#45;7&#45;&gt;0 -->
<g id="edge12" class="edge">
<title>&#45;7&#45;&gt;0</title>
<path fill="none" stroke="green" stroke-width="0.39" d="M137.17,-65.65C136.48,-59.05 135.47,-49.33 134.53,-40.23"/>
<polygon fill="green" stroke="green" stroke-width="0.39" points="137.99,-39.64 133.47,-30.06 131.02,-40.36 137.99,-39.64"/>
</g>
<!-- &#45;7&#45;&gt;1 -->
<g id="edge13" class="edge">
<title>&#45;7&#45;&gt;1</title>
<path fill="none" stroke="red" stroke-width="0.24" d="M143.84,-65.65C149.47,-57.89 158.23,-45.84 165.71,-35.53"/>
<polygon fill="red" stroke="red" stroke-width="0.24" points="168.56,-37.57 171.6,-27.42 162.89,-33.45 168.56,-37.57"/>
</g>
<!-- &#45;8 -->
<g id="node8" class="node">
<title>&#45;8</title>
<polygon fill="lightgray" stroke="black" points="192,-83.7 168,-83.7 168,-65.7 192,-65.7 192,-83.7"/>
<text text-anchor="middle" x="180" y="-72.5" font-family="Times New Roman,serif" font-size="9.00">&#45;8</text>
</g>
<!-- &#45;8&#45;&gt;0 -->
<g id="edge14" class="edge">
<title>&#45;8&#45;&gt;0</title>
<path fill="none" stroke="green" stroke-width="0.14" d="M173.33,-65.65C166.74,-57.72 156.43,-45.29 147.75,-34.83"/>
<polygon fill="green" stroke="green" stroke-width="0.14" points="150.33,-32.46 141.25,-26.99 144.94,-36.93 150.33,-32.46"/>
</g>
<!-- &#45;8&#45;&gt;1 -->
<g id="edge15" class="edge">
<title>&#45;8&#45;&gt;1</title>
<path fill="none" stroke="red" stroke-width="0.32" d="M180,-65.65C180,-59.05 180,-49.33 180,-40.23"/>
<polygon fill="red" stroke="red" stroke-width="0.32" points="183.5,-40.06 180,-30.06 176.5,-40.06 183.5,-40.06"/>
</g>
</g>
</svg>
