<?xml version="1.0" encoding="UTF-8" standalone="no"?>
<!DOCTYPE svg PUBLIC "-//W3C//DTD SVG 1.1//EN"
 "http://www.w3.org/Graphics/SVG/1.1/DTD/svg11.dtd">
<!-- Generated by graphviz version 2.47.0 (20210316.0004)
 -->
<!-- Pages: 1 -->
<svg width="475pt" height="164pt"
 viewBox="0.00 0.00 474.92 164.47" xmlns="http://www.w3.org/2000/svg" xmlns:xlink="http://www.w3.org/1999/xlink">
<g id="graph0" class="graph" transform="scale(1 1) rotate(0) translate(4 160.47)">
<polygon fill="white" stroke="transparent" points="-4,4 -4,-160.47 470.92,-160.47 470.92,4 -4,4"/>
<!-- &#45;1 -->
<g id="node1" class="node">
<title>&#45;1</title>
<polygon fill="lightgray" stroke="black" points="40.53,-93.08 16.53,-93.08 16.53,-75.08 40.53,-75.08 40.53,-93.08"/>
<text text-anchor="middle" x="28.53" y="-81.88" font-family="Times New Roman,serif" font-size="9.00">&#45;1</text>
</g>
<!-- 0 -->
<g id="node9" class="node">
<title>0</title>
<ellipse fill="lightblue" stroke="black" cx="129.53" cy="-14.85" rx="14.7" ry="14.7"/>
<text text-anchor="middle" x="129.53" y="-12.65" font-family="Times New Roman,serif" font-size="9.00">0</text>
</g>
<!-- &#45;1&#45;&gt;0 -->
<g id="edge1" class="edge">
<title>&#45;1&#45;&gt;0</title>
<path fill="none" stroke="green" stroke-width="0.15" d="M40.7,-74.94C45.06,-72.02 50.02,-68.71 54.53,-65.7 72.95,-53.42 93.95,-39.47 109.03,-29.46"/>
<polygon fill="green" stroke="green" stroke-width="0.15" points="111.18,-32.23 117.58,-23.78 107.31,-26.4 111.18,-32.23"/>
</g>
<!-- &#45;2 -->
<g id="node2" class="node">
<title>&#45;2</title>
<polygon fill="lightgray" stroke="black" points="328.53,-156.47 304.53,-156.47 304.53,-138.47 328.53,-138.47 328.53,-156.47"/>
<text text-anchor="middle" x="316.53" y="-145.27" font-family="Times New Roman,serif" font-size="9.00">&#45;2</text>
</g>
<!-- &#45;2&#45;&gt;0 -->
<g id="edge2" class="edge">
<title>&#45;2&#45;&gt;0</title>
<path fill="none" stroke="green" stroke-width="0.11" d="M304.43,-146.74C252.21,-147.62 47.13,-148.1 7.53,-102.47 -3.18,-90.12 -1.58,-79.26 7.53,-65.7 29.14,-33.53 75.55,-22.11 104.5,-18.06"/>
<polygon fill="green" stroke="green" stroke-width="0.11" points="105.13,-21.51 114.64,-16.84 104.3,-14.56 105.13,-21.51"/>
</g>
<!-- 1 -->
<g id="node10" class="node">
<title>1</title>
<ellipse fill="lightblue" stroke="black" cx="276.53" cy="-14.85" rx="14.7" ry="14.7"/>
<text text-anchor="middle" x="276.53" y="-12.65" font-family="Times New Roman,serif" font-size="9.00">1</text>
</g>
<!-- &#45;2&#45;&gt;1 -->
<g id="edge3" class="edge">
<title>&#45;2&#45;&gt;1</title>
<path fill="none" stroke="green" stroke-width="0.23" d="M315.09,-138.32C312.37,-123.61 306.01,-91.72 297.53,-65.7 294.52,-56.46 290.51,-46.54 286.81,-38"/>
<polygon fill="green" stroke="green" stroke-width="0.23" points="289.94,-36.44 282.67,-28.74 283.55,-39.3 289.94,-36.44"/>
</g>
<!-- 9 -->
<g id="node11" class="node">
<title>9</title>
<ellipse fill="white" stroke="black" cx="359.53" cy="-84.08" rx="14.7" ry="14.7"/>
<text text-anchor="middle" x="359.53" y="-81.88" font-family="Times New Roman,serif" font-size="9.00">9</text>
</g>
<!-- &#45;2&#45;&gt;9 -->
<g id="edge16" class="edge">
<title>&#45;2&#45;&gt;9</title>
<path fill="none" stroke="red" stroke-width="0.23" d="M322.15,-138.44C328.05,-130.03 337.53,-116.49 345.47,-105.15"/>
<polygon fill="red" stroke="red" stroke-width="0.23" points="348.54,-106.87 351.41,-96.67 342.81,-102.86 348.54,-106.87"/>
</g>
<!-- &#45;3 -->
<g id="node3" class="node">
<title>&#45;3</title>
<polygon fill="lightgray" stroke="black" points="392.53,-156.47 368.53,-156.47 368.53,-138.47 392.53,-138.47 392.53,-156.47"/>
<text text-anchor="middle" x="380.53" y="-145.27" font-family="Times New Roman,serif" font-size="9.00">&#45;3</text>
</g>
<!-- &#45;3&#45;&gt;0 -->
<g id="edge4" class="edge">
<title>&#45;3&#45;&gt;0</title>
<path fill="none" stroke="red" stroke-width="0.33" d="M368.51,-144.09C359.9,-142.43 348.02,-140.2 337.53,-138.47 282.15,-129.33 124.28,-144.89 87.53,-102.47 69.24,-81.36 92.73,-50.89 111.25,-32.29"/>
<polygon fill="red" stroke="red" stroke-width="0.33" points="113.95,-34.55 118.74,-25.1 109.1,-29.5 113.95,-34.55"/>
</g>
<!-- &#45;3&#45;&gt;1 -->
<g id="edge5" class="edge">
<title>&#45;3&#45;&gt;1</title>
<path fill="none" stroke="red" stroke-width="0.11" stroke-dasharray="1,5" d="M383.72,-138.11C389.09,-122.49 398.01,-88.42 383.53,-65.7 365.51,-37.42 326.81,-24.93 301.23,-19.59"/>
<polygon fill="red" stroke="red" stroke-width="0.11" points="301.65,-16.11 291.17,-17.72 300.36,-22.99 301.65,-16.11"/>
</g>
<!-- &#45;3&#45;&gt;9 -->
<g id="edge20" class="edge">
<title>&#45;3&#45;&gt;9</title>
<path fill="none" stroke="red" stroke-width="0.24" d="M377.79,-138.44C375.16,-130.76 371.07,-118.79 367.42,-108.14"/>
<polygon fill="red" stroke="red" stroke-width="0.24" points="370.67,-106.84 364.13,-98.51 364.05,-109.1 370.67,-106.84"/>
</g>
<!-- 17 -->
<g id="node12" class="node">
<title>17</title>
<ellipse fill="white" stroke="black" cx="448.53" cy="-84.08" rx="18.27" ry="18.27"/>
<text text-anchor="middle" x="448.53" y="-81.88" font-family="Times New Roman,serif" font-size="9.00">17</text>
</g>
<!-- &#45;3&#45;&gt;17 -->
<g id="edge18" class="edge">
<title>&#45;3&#45;&gt;17</title>
<path fill="none" stroke="green" stroke-width="0.3" d="M389.42,-138.44C399.08,-129.72 414.85,-115.49 427.67,-103.91"/>
<polygon fill="green" stroke="green" stroke-width="0.3" points="430.12,-106.42 435.19,-97.12 425.43,-101.23 430.12,-106.42"/>
</g>
<!-- &#45;4 -->
<g id="node4" class="node">
<title>&#45;4</title>
<polygon fill="lightgray" stroke="black" points="246.53,-93.08 222.53,-93.08 222.53,-75.08 246.53,-75.08 246.53,-93.08"/>
<text text-anchor="middle" x="234.53" y="-81.88" font-family="Times New Roman,serif" font-size="9.00">&#45;4</text>
</g>
<!-- &#45;4&#45;&gt;0 -->
<g id="edge6" class="edge">
<title>&#45;4&#45;&gt;0</title>
<path fill="none" stroke="red" stroke-width="0.3" d="M225.37,-74.97C221.78,-71.93 217.56,-68.53 213.53,-65.7 193.18,-51.36 168.54,-37.08 151.23,-27.5"/>
<polygon fill="red" stroke="red" stroke-width="0.3" points="152.89,-24.42 142.44,-22.69 149.53,-30.56 152.89,-24.42"/>
</g>
<!-- &#45;4&#45;&gt;1 -->
<g id="edge7" class="edge">
<title>&#45;4&#45;&gt;1</title>
<path fill="none" stroke="red" stroke-width="0.29" d="M239.68,-74.84C245.61,-65.36 255.55,-49.44 263.62,-36.53"/>
<polygon fill="red" stroke="red" stroke-width="0.29" points="266.74,-38.13 269.07,-27.79 260.81,-34.42 266.74,-38.13"/>
</g>
<!-- &#45;5 -->
<g id="node5" class="node">
<title>&#45;5</title>
<polygon fill="lightgray" stroke="black" points="288.53,-93.08 264.53,-93.08 264.53,-75.08 288.53,-75.08 288.53,-93.08"/>
<text text-anchor="middle" x="276.53" y="-81.88" font-family="Times New Roman,serif" font-size="9.00">&#45;5</text>
</g>
<!-- &#45;5&#45;&gt;0 -->
<g id="edge8" class="edge">
<title>&#45;5&#45;&gt;0</title>
<path fill="none" stroke="green" stroke-width="0.27" d="M268,-74.98C264.36,-71.8 259.93,-68.3 255.53,-65.7 222.25,-46.02 179.77,-31.06 153.62,-22.87"/>
<polygon fill="green" stroke="green" stroke-width="0.27" points="154.39,-19.45 143.81,-19.88 152.35,-26.15 154.39,-19.45"/>
</g>
<!-- &#45;5&#45;&gt;1 -->
<g id="edge9" class="edge">
<title>&#45;5&#45;&gt;1</title>
<path fill="none" stroke="red" stroke-width="0.24" d="M276.53,-74.84C276.53,-66.16 276.53,-52.09 276.53,-39.86"/>
<polygon fill="red" stroke="red" stroke-width="0.24" points="280.03,-39.78 276.53,-29.78 273.03,-39.78 280.03,-39.78"/>
</g>
<!-- &#45;6 -->
<g id="node6" class="node">
<title>&#45;6</title>
<polygon fill="lightgray" stroke="black" points="120.53,-93.08 96.53,-93.08 96.53,-75.08 120.53,-75.08 120.53,-93.08"/>
<text text-anchor="middle" x="108.53" y="-81.88" font-family="Times New Roman,serif" font-size="9.00">&#45;6</text>
</g>
<!-- &#45;6&#45;&gt;0 -->
<g id="edge10" class="edge">
<title>&#45;6&#45;&gt;0</title>
<path fill="none" stroke="red" stroke-width="0.15" d="M111.11,-74.84C113.88,-65.96 118.41,-51.45 122.29,-39.03"/>
<polygon fill="red" stroke="red" stroke-width="0.15" points="125.7,-39.86 125.34,-29.27 119.02,-37.78 125.7,-39.86"/>
</g>
<!-- &#45;6&#45;&gt;1 -->
<g id="edge11" class="edge">
<title>&#45;6&#45;&gt;1</title>
<path fill="none" stroke="red" stroke-width="0.22" d="M117,-74.87C120.64,-71.67 125.07,-68.19 129.53,-65.7 169.77,-43.23 221.84,-28.54 251.98,-21.26"/>
<polygon fill="red" stroke="red" stroke-width="0.22" points="253.09,-24.59 262.03,-18.91 251.5,-17.78 253.09,-24.59"/>
</g>
<!-- &#45;7 -->
<g id="node7" class="node">
<title>&#45;7</title>
<polygon fill="lightgray" stroke="black" points="162.53,-93.08 138.53,-93.08 138.53,-75.08 162.53,-75.08 162.53,-93.08"/>
<text text-anchor="middle" x="150.53" y="-81.88" font-family="Times New Roman,serif" font-size="9.00">&#45;7</text>
</g>
<!-- &#45;7&#45;&gt;0 -->
<g id="edge12" class="edge">
<title>&#45;7&#45;&gt;0</title>
<path fill="none" stroke="green" stroke-width="0.14" d="M147.96,-74.84C145.19,-65.96 140.65,-51.45 136.77,-39.03"/>
<polygon fill="green" stroke="green" stroke-width="0.14" points="140.05,-37.78 133.73,-29.27 133.37,-39.86 140.05,-37.78"/>
</g>
<!-- &#45;7&#45;&gt;1 -->
<g id="edge13" class="edge">
<title>&#45;7&#45;&gt;1</title>
<path fill="none" stroke="green" stroke-width="0.36" d="M159.56,-74.77C163.14,-71.71 167.38,-68.34 171.53,-65.7 198.12,-48.75 231.37,-33.92 253.24,-24.94"/>
<polygon fill="green" stroke="green" stroke-width="0.36" points="254.74,-28.11 262.71,-21.12 252.12,-21.62 254.74,-28.11"/>
</g>
<!-- &#45;8 -->
<g id="node8" class="node">
<title>&#45;8</title>
<polygon fill="lightgray" stroke="black" points="204.53,-93.08 180.53,-93.08 180.53,-75.08 204.53,-75.08 204.53,-93.08"/>
<text text-anchor="middle" x="192.53" y="-81.88" font-family="Times New Roman,serif" font-size="9.00">&#45;8</text>
</g>
<!-- &#45;8&#45;&gt;0 -->
<g id="edge14" class="edge">
<title>&#45;8&#45;&gt;0</title>
<path fill="none" stroke="red" stroke-width="0.42" d="M184.81,-74.84C175.34,-64.73 159.02,-47.32 146.56,-34.02"/>
<polygon fill="red" stroke="red" stroke-width="0.42" points="148.79,-31.28 139.39,-26.37 143.68,-36.06 148.79,-31.28"/>
</g>
<!-- &#45;8&#45;&gt;1 -->
<g id="edge15" class="edge">
<title>&#45;8&#45;&gt;1</title>
<path fill="none" stroke="red" stroke-width="0.14" d="M202.33,-74.9C205.85,-71.98 209.85,-68.68 213.53,-65.7 228.16,-53.86 244.86,-40.66 257.39,-30.82"/>
<polygon fill="red" stroke="red" stroke-width="0.14" points="259.61,-33.52 265.32,-24.6 255.29,-28.02 259.61,-33.52"/>
</g>
<!-- 9&#45;&gt;1 -->
<g id="edge17" class="edge">
<title>9&#45;&gt;1</title>
<path fill="none" stroke="red" stroke-width="0.25" d="M348.34,-74.02C334.85,-63.09 311.97,-44.55 295.66,-31.34"/>
<polygon fill="red" stroke="red" stroke-width="0.25" points="297.79,-28.56 287.81,-24.99 293.38,-34 297.79,-28.56"/>
</g>
<!-- 17&#45;&gt;1 -->
<g id="edge19" class="edge">
<title>17&#45;&gt;1</title>
<path fill="none" stroke="green" stroke-width="0.36" d="M432.83,-73.92C427.72,-71.11 421.96,-68.12 416.53,-65.7 376.84,-47.98 328.76,-31.99 300.52,-23.13"/>
<polygon fill="green" stroke="green" stroke-width="0.36" points="301.31,-19.71 290.73,-20.1 299.24,-26.4 301.31,-19.71"/>
</g>
</g>
</svg>
