<?xml version="1.0" encoding="UTF-8" standalone="no"?>
<!DOCTYPE svg PUBLIC "-//W3C//DTD SVG 1.1//EN"
 "http://www.w3.org/Graphics/SVG/1.1/DTD/svg11.dtd">
<!-- Generated by graphviz version 2.47.0 (20210316.0004)
 -->
<!-- Pages: 1 -->
<svg width="538pt" height="237pt"
 viewBox="0.00 0.00 537.53 237.24" xmlns="http://www.w3.org/2000/svg" xmlns:xlink="http://www.w3.org/1999/xlink">
<g id="graph0" class="graph" transform="scale(1 1) rotate(0) translate(4 233.24)">
<polygon fill="white" stroke="transparent" points="-4,4 -4,-233.24 533.53,-233.24 533.53,4 -4,4"/>
<!-- &#45;1 -->
<g id="node1" class="node">
<title>&#45;1</title>
<polygon fill="lightgray" stroke="black" points="88.25,-93.08 64.25,-93.08 64.25,-75.08 88.25,-75.08 88.25,-93.08"/>
<text text-anchor="middle" x="76.25" y="-81.88" font-family="Times New Roman,serif" font-size="9.00">&#45;1</text>
</g>
<!-- 0 -->
<g id="node9" class="node">
<title>0</title>
<ellipse fill="lightblue" stroke="black" cx="136.25" cy="-14.85" rx="14.7" ry="14.7"/>
<text text-anchor="middle" x="136.25" y="-12.65" font-family="Times New Roman,serif" font-size="9.00">0</text>
</g>
<!-- &#45;1&#45;&gt;0 -->
<g id="edge1" class="edge">
<title>&#45;1&#45;&gt;0</title>
<path fill="none" stroke="green" stroke-width="0.15" d="M83.61,-74.84C92.63,-64.73 108.17,-47.32 120.04,-34.02"/>
<polygon fill="green" stroke="green" stroke-width="0.15" points="122.82,-36.16 126.86,-26.37 117.59,-31.5 122.82,-36.16"/>
</g>
<!-- &#45;2 -->
<g id="node2" class="node">
<title>&#45;2</title>
<polygon fill="lightgray" stroke="black" points="334.25,-229.24 310.25,-229.24 310.25,-211.24 334.25,-211.24 334.25,-229.24"/>
<text text-anchor="middle" x="322.25" y="-218.04" font-family="Times New Roman,serif" font-size="9.00">&#45;2</text>
</g>
<!-- &#45;2&#45;&gt;0 -->
<g id="edge2" class="edge">
<title>&#45;2&#45;&gt;0</title>
<path fill="none" stroke="green" stroke-width="0.13" d="M310.15,-219.45C258.9,-220.07 60.54,-219.55 22.25,-175.24 -9.58,-138.4 -4.4,-106.44 22.25,-65.7 41.98,-35.54 84.42,-23.52 111.59,-18.8"/>
<polygon fill="green" stroke="green" stroke-width="0.13" points="112.15,-22.26 121.51,-17.28 111.09,-15.34 112.15,-22.26"/>
</g>
<!-- 1 -->
<g id="node10" class="node">
<title>1</title>
<ellipse fill="lightblue" stroke="black" cx="345.25" cy="-14.85" rx="14.7" ry="14.7"/>
<text text-anchor="middle" x="345.25" y="-12.65" font-family="Times New Roman,serif" font-size="9.00">1</text>
</g>
<!-- &#45;2&#45;&gt;1 -->
<g id="edge3" class="edge">
<title>&#45;2&#45;&gt;1</title>
<path fill="none" stroke="green" stroke-width="0.23" d="M323.18,-211.01C326.44,-182.25 337.39,-85.43 342.53,-39.89"/>
<polygon fill="green" stroke="green" stroke-width="0.23" points="346.04,-40.08 343.68,-29.75 339.08,-39.29 346.04,-40.08"/>
</g>
<!-- 9 -->
<g id="node12" class="node">
<title>9</title>
<ellipse fill="white" stroke="black" cx="365.25" cy="-156.85" rx="14.7" ry="14.7"/>
<text text-anchor="middle" x="365.25" y="-154.65" font-family="Times New Roman,serif" font-size="9.00">9</text>
</g>
<!-- &#45;2&#45;&gt;9 -->
<g id="edge16" class="edge">
<title>&#45;2&#45;&gt;9</title>
<path fill="none" stroke="green" stroke-width="0.2" d="M327.88,-211.21C333.77,-202.8 343.25,-189.26 351.19,-177.92"/>
<polygon fill="green" stroke="green" stroke-width="0.2" points="354.26,-179.64 357.13,-169.44 348.53,-175.63 354.26,-179.64"/>
</g>
<!-- &#45;3 -->
<g id="node3" class="node">
<title>&#45;3</title>
<polygon fill="lightgray" stroke="black" points="481.25,-229.24 457.25,-229.24 457.25,-211.24 481.25,-211.24 481.25,-229.24"/>
<text text-anchor="middle" x="469.25" y="-218.04" font-family="Times New Roman,serif" font-size="9.00">&#45;3</text>
</g>
<!-- &#45;3&#45;&gt;0 -->
<g id="edge4" class="edge">
<title>&#45;3&#45;&gt;0</title>
<path fill="none" stroke="red" stroke-width="0.33" d="M464,-211.13C452.64,-194.34 424,-155.92 389.25,-138.47 338.31,-112.88 172.63,-145.51 135.25,-102.47 120.36,-85.32 123.39,-58.25 128.38,-38.95"/>
<polygon fill="red" stroke="red" stroke-width="0.33" points="131.8,-39.71 131.25,-29.13 125.08,-37.74 131.8,-39.71"/>
</g>
<!-- &#45;3&#45;&gt;1 -->
<g id="edge5" class="edge">
<title>&#45;3&#45;&gt;1</title>
<path fill="none" stroke="green" stroke-width="0.47" stroke-dasharray="1,5" d="M481.41,-212.7C493.56,-205.39 511.54,-192.31 519.25,-175.24 540.05,-129.24 525.96,-100.35 489.25,-65.7 456.04,-34.35 402.13,-22.61 370.55,-18.29"/>
<polygon fill="green" stroke="green" stroke-width="0.47" points="370.73,-14.79 360.38,-17.05 369.88,-21.74 370.73,-14.79"/>
</g>
<!-- &#45;3&#45;&gt;9 -->
<g id="edge20" class="edge">
<title>&#45;3&#45;&gt;9</title>
<path fill="none" stroke="red" stroke-width="0.28" d="M456.92,-211.95C439.57,-201.72 407.74,-182.93 386.54,-170.41"/>
<polygon fill="red" stroke="red" stroke-width="0.28" points="388.29,-167.39 377.9,-165.32 384.73,-173.41 388.29,-167.39"/>
</g>
<!-- 17 -->
<g id="node13" class="node">
<title>17</title>
<ellipse fill="white" stroke="black" cx="492.25" cy="-156.85" rx="18.27" ry="18.27"/>
<text text-anchor="middle" x="492.25" y="-154.65" font-family="Times New Roman,serif" font-size="9.00">17</text>
</g>
<!-- &#45;3&#45;&gt;17 -->
<g id="edge18" class="edge">
<title>&#45;3&#45;&gt;17</title>
<path fill="none" stroke="green" stroke-width="0.3" d="M472.26,-211.21C474.87,-204.24 478.8,-193.75 482.49,-183.9"/>
<polygon fill="green" stroke="green" stroke-width="0.3" points="485.81,-185.02 486.04,-174.43 479.26,-182.57 485.81,-185.02"/>
</g>
<!-- &#45;4 -->
<g id="node4" class="node">
<title>&#45;4</title>
<polygon fill="lightgray" stroke="black" points="252.25,-93.08 228.25,-93.08 228.25,-75.08 252.25,-75.08 252.25,-93.08"/>
<text text-anchor="middle" x="240.25" y="-81.88" font-family="Times New Roman,serif" font-size="9.00">&#45;4</text>
</g>
<!-- &#45;4&#45;&gt;0 -->
<g id="edge6" class="edge">
<title>&#45;4&#45;&gt;0</title>
<path fill="none" stroke="red" stroke-width="0.31" stroke-dasharray="1,5" d="M231.08,-74.98C227.49,-71.95 223.27,-68.54 219.25,-65.7 199.3,-51.57 175.23,-37.4 158.16,-27.8"/>
<polygon fill="red" stroke="red" stroke-width="0.31" points="159.44,-24.51 149,-22.71 156.04,-30.63 159.44,-24.51"/>
</g>
<!-- &#45;4&#45;&gt;1 -->
<g id="edge7" class="edge">
<title>&#45;4&#45;&gt;1</title>
<path fill="none" stroke="red" stroke-width="0.29" d="M249.42,-74.97C253.01,-71.93 257.23,-68.53 261.25,-65.7 281.61,-51.36 306.24,-37.08 323.56,-27.5"/>
<polygon fill="red" stroke="red" stroke-width="0.29" points="325.25,-30.56 332.35,-22.69 321.89,-24.42 325.25,-30.56"/>
</g>
<!-- &#45;5 -->
<g id="node5" class="node">
<title>&#45;5</title>
<polygon fill="lightgray" stroke="black" points="294.25,-93.08 270.25,-93.08 270.25,-75.08 294.25,-75.08 294.25,-93.08"/>
<text text-anchor="middle" x="282.25" y="-81.88" font-family="Times New Roman,serif" font-size="9.00">&#45;5</text>
</g>
<!-- &#45;5&#45;&gt;0 -->
<g id="edge8" class="edge">
<title>&#45;5&#45;&gt;0</title>
<path fill="none" stroke="green" stroke-width="0.27" d="M273.72,-74.99C270.07,-71.81 265.65,-68.31 261.25,-65.7 228.23,-46.11 186.09,-31.12 160.15,-22.91"/>
<polygon fill="green" stroke="green" stroke-width="0.27" points="161,-19.51 150.41,-19.9 158.93,-26.2 161,-19.51"/>
</g>
<!-- &#45;5&#45;&gt;1 -->
<g id="edge9" class="edge">
<title>&#45;5&#45;&gt;1</title>
<path fill="none" stroke="green" stroke-width="0.52" d="M289.98,-74.84C299.45,-64.73 315.77,-47.32 328.23,-34.02"/>
<polygon fill="green" stroke="green" stroke-width="0.52" points="331.11,-36.06 335.39,-26.37 326,-31.28 331.11,-36.06"/>
</g>
<!-- &#45;6 -->
<g id="node6" class="node">
<title>&#45;6</title>
<polygon fill="lightgray" stroke="black" points="168.25,-93.08 144.25,-93.08 144.25,-75.08 168.25,-75.08 168.25,-93.08"/>
<text text-anchor="middle" x="156.25" y="-81.88" font-family="Times New Roman,serif" font-size="9.00">&#45;6</text>
</g>
<!-- &#45;6&#45;&gt;0 -->
<g id="edge10" class="edge">
<title>&#45;6&#45;&gt;0</title>
<path fill="none" stroke="red" stroke-width="0.12" d="M153.8,-74.84C151.16,-65.96 146.84,-51.45 143.15,-39.03"/>
<polygon fill="red" stroke="red" stroke-width="0.12" points="146.45,-37.86 140.25,-29.27 139.74,-39.86 146.45,-37.86"/>
</g>
<!-- &#45;6&#45;&gt;1 -->
<g id="edge11" class="edge">
<title>&#45;6&#45;&gt;1</title>
<path fill="none" stroke="red" stroke-width="0.22" d="M164.67,-74.78C168.3,-71.57 172.74,-68.1 177.25,-65.7 224.73,-40.38 286.79,-26.25 320.63,-19.94"/>
<polygon fill="red" stroke="red" stroke-width="0.22" points="321.34,-23.36 330.56,-18.16 320.1,-16.47 321.34,-23.36"/>
</g>
<!-- &#45;7 -->
<g id="node7" class="node">
<title>&#45;7</title>
<polygon fill="lightgray" stroke="black" points="210.25,-93.08 186.25,-93.08 186.25,-75.08 210.25,-75.08 210.25,-93.08"/>
<text text-anchor="middle" x="198.25" y="-81.88" font-family="Times New Roman,serif" font-size="9.00">&#45;7</text>
</g>
<!-- &#45;7&#45;&gt;0 -->
<g id="edge12" class="edge">
<title>&#45;7&#45;&gt;0</title>
<path fill="none" stroke="green" stroke-width="0.14" d="M190.65,-74.84C181.33,-64.73 165.27,-47.32 153.01,-34.02"/>
<polygon fill="green" stroke="green" stroke-width="0.14" points="155.31,-31.35 145.96,-26.37 150.16,-36.1 155.31,-31.35"/>
</g>
<!-- &#45;7&#45;&gt;1 -->
<g id="edge13" class="edge">
<title>&#45;7&#45;&gt;1</title>
<path fill="none" stroke="red" stroke-width="0.51" d="M206.78,-74.98C210.43,-71.8 214.85,-68.3 219.25,-65.7 252.53,-46.02 295.02,-31.06 321.17,-22.87"/>
<polygon fill="red" stroke="red" stroke-width="0.51" points="322.44,-26.15 330.98,-19.88 320.39,-19.45 322.44,-26.15"/>
</g>
<!-- &#45;8 -->
<g id="node8" class="node">
<title>&#45;8</title>
<polygon fill="lightgray" stroke="black" points="377.25,-229.24 353.25,-229.24 353.25,-211.24 377.25,-211.24 377.25,-229.24"/>
<text text-anchor="middle" x="365.25" y="-218.04" font-family="Times New Roman,serif" font-size="9.00">&#45;8</text>
</g>
<!-- &#45;8&#45;&gt;0 -->
<g id="edge14" class="edge">
<title>&#45;8&#45;&gt;0</title>
<path fill="none" stroke="red" stroke-width="0.42" d="M353.2,-214.8C296.34,-193.87 57.56,-105.8 55.25,-102.47 45.96,-89.03 47.28,-79.96 55.25,-65.7 67.34,-44.07 93.08,-30.67 112.32,-23.29"/>
<polygon fill="red" stroke="red" stroke-width="0.42" points="113.69,-26.51 121.95,-19.87 111.35,-19.91 113.69,-26.51"/>
</g>
<!-- &#45;8&#45;&gt;1 -->
<g id="edge15" class="edge">
<title>&#45;8&#45;&gt;1</title>
<path fill="none" stroke="red" stroke-width="0.21" d="M371.59,-211.21C389.25,-187.82 436.06,-118.01 410.25,-65.7 401.48,-47.91 382.98,-34.71 367.95,-26.38"/>
<polygon fill="red" stroke="red" stroke-width="0.21" points="369.2,-23.09 358.71,-21.61 365.99,-29.31 369.2,-23.09"/>
</g>
<!-- &#45;8&#45;&gt;9 -->
<g id="edge23" class="edge">
<title>&#45;8&#45;&gt;9</title>
<path fill="none" stroke="green" stroke-width="0.31" d="M365.25,-211.21C365.25,-203.78 365.25,-192.35 365.25,-181.97"/>
<polygon fill="green" stroke="green" stroke-width="0.31" points="368.75,-181.75 365.25,-171.75 361.75,-181.75 368.75,-181.75"/>
</g>
<!-- 34 -->
<g id="node11" class="node">
<title>34</title>
<ellipse fill="white" stroke="black" cx="368.25" cy="-84.08" rx="18.27" ry="18.27"/>
<text text-anchor="middle" x="368.25" y="-81.88" font-family="Times New Roman,serif" font-size="9.00">34</text>
</g>
<!-- 34&#45;&gt;1 -->
<g id="edge22" class="edge">
<title>34&#45;&gt;1</title>
<path fill="none" stroke="red" stroke-width="0.25" d="M362.57,-66.46C359.71,-58.1 356.19,-47.83 353.08,-38.74"/>
<polygon fill="red" stroke="red" stroke-width="0.25" points="356.34,-37.46 349.8,-29.13 349.72,-39.72 356.34,-37.46"/>
</g>
<!-- 9&#45;&gt;1 -->
<g id="edge17" class="edge">
<title>9&#45;&gt;1</title>
<path fill="none" stroke="red" stroke-width="0.25" stroke-dasharray="1,5" d="M374,-144.84C386.52,-127.67 406.83,-93.58 395.25,-65.7 389.19,-51.08 376.52,-38.53 365.46,-29.68"/>
<polygon fill="red" stroke="red" stroke-width="0.25" points="367.54,-26.87 357.45,-23.66 363.34,-32.46 367.54,-26.87"/>
</g>
<!-- 9&#45;&gt;34 -->
<g id="edge21" class="edge">
<title>9&#45;&gt;34</title>
<path fill="none" stroke="green" stroke-width="0.3" d="M365.85,-141.87C366.2,-133.59 366.65,-122.8 367.08,-112.85"/>
<polygon fill="green" stroke="green" stroke-width="0.3" points="370.59,-112.69 367.51,-102.55 363.59,-112.39 370.59,-112.69"/>
</g>
<!-- 17&#45;&gt;1 -->
<g id="edge19" class="edge">
<title>17&#45;&gt;1</title>
<path fill="none" stroke="green" stroke-width="0.37" d="M491.62,-138.44C490,-118.54 484.51,-86.08 466.25,-65.7 440.96,-37.46 397.24,-24.86 369.85,-19.5"/>
<polygon fill="green" stroke="green" stroke-width="0.37" points="370.35,-16.03 359.89,-17.73 369.13,-22.93 370.35,-16.03"/>
</g>
</g>
</svg>
