<?xml version="1.0" encoding="UTF-8" standalone="no"?>
<!DOCTYPE svg PUBLIC "-//W3C//DTD SVG 1.1//EN"
 "http://www.w3.org/Graphics/SVG/1.1/DTD/svg11.dtd">
<!-- Generated by graphviz version 2.47.0 (20210316.0004)
 -->
<!-- Pages: 1 -->
<svg width="479pt" height="164pt"
 viewBox="0.00 0.00 478.98 164.47" xmlns="http://www.w3.org/2000/svg" xmlns:xlink="http://www.w3.org/1999/xlink">
<g id="graph0" class="graph" transform="scale(1 1) rotate(0) translate(4 160.47)">
<polygon fill="white" stroke="transparent" points="-4,4 -4,-160.47 474.98,-160.47 474.98,4 -4,4"/>
<!-- &#45;1 -->
<g id="node1" class="node">
<title>&#45;1</title>
<polygon fill="lightgray" stroke="black" points="256.59,-93.08 232.59,-93.08 232.59,-75.08 256.59,-75.08 256.59,-93.08"/>
<text text-anchor="middle" x="244.59" y="-81.88" font-family="Times New Roman,serif" font-size="9.00">&#45;1</text>
</g>
<!-- 0 -->
<g id="node9" class="node">
<title>0</title>
<ellipse fill="lightblue" stroke="black" cx="140.59" cy="-14.85" rx="14.7" ry="14.7"/>
<text text-anchor="middle" x="140.59" y="-12.65" font-family="Times New Roman,serif" font-size="9.00">0</text>
</g>
<!-- &#45;1&#45;&gt;0 -->
<g id="edge1" class="edge">
<title>&#45;1&#45;&gt;0</title>
<path fill="none" stroke="green" stroke-width="0.12" d="M235.42,-74.98C231.83,-71.95 227.61,-68.54 223.59,-65.7 203.64,-51.57 179.57,-37.4 162.5,-27.8"/>
<polygon fill="green" stroke="green" stroke-width="0.12" points="163.78,-24.51 153.34,-22.71 160.38,-30.63 163.78,-24.51"/>
</g>
<!-- 1 -->
<g id="node10" class="node">
<title>1</title>
<ellipse fill="lightblue" stroke="black" cx="306.59" cy="-14.85" rx="14.7" ry="14.7"/>
<text text-anchor="middle" x="306.59" y="-12.65" font-family="Times New Roman,serif" font-size="9.00">1</text>
</g>
<!-- &#45;1&#45;&gt;1 -->
<g id="edge2" class="edge">
<title>&#45;1&#45;&gt;1</title>
<path fill="none" stroke="red" stroke-width="0.4" d="M252.2,-74.84C261.51,-64.73 277.58,-47.32 289.84,-34.02"/>
<polygon fill="red" stroke="red" stroke-width="0.4" points="292.68,-36.1 296.89,-26.37 287.54,-31.35 292.68,-36.1"/>
</g>
<!-- &#45;2 -->
<g id="node2" class="node">
<title>&#45;2</title>
<polygon fill="lightgray" stroke="black" points="378.59,-93.08 354.59,-93.08 354.59,-75.08 378.59,-75.08 378.59,-93.08"/>
<text text-anchor="middle" x="366.59" y="-81.88" font-family="Times New Roman,serif" font-size="9.00">&#45;2</text>
</g>
<!-- &#45;2&#45;&gt;1 -->
<g id="edge3" class="edge">
<title>&#45;2&#45;&gt;1</title>
<path fill="none" stroke="green" stroke-width="0.33" d="M359.24,-74.84C350.22,-64.73 334.67,-47.32 322.81,-34.02"/>
<polygon fill="green" stroke="green" stroke-width="0.33" points="325.25,-31.5 315.98,-26.37 320.03,-36.16 325.25,-31.5"/>
</g>
<!-- &#45;3 -->
<g id="node3" class="node">
<title>&#45;3</title>
<polygon fill="lightgray" stroke="black" points="298.59,-93.08 274.59,-93.08 274.59,-75.08 298.59,-75.08 298.59,-93.08"/>
<text text-anchor="middle" x="286.59" y="-81.88" font-family="Times New Roman,serif" font-size="9.00">&#45;3</text>
</g>
<!-- &#45;3&#45;&gt;0 -->
<g id="edge4" class="edge">
<title>&#45;3&#45;&gt;0</title>
<path fill="none" stroke="red" stroke-width="0.1" d="M278.06,-74.99C274.41,-71.81 269.99,-68.31 265.59,-65.7 232.57,-46.11 190.43,-31.12 164.49,-22.91"/>
<polygon fill="red" stroke="red" stroke-width="0.1" points="165.34,-19.51 154.75,-19.9 163.27,-26.2 165.34,-19.51"/>
</g>
<!-- &#45;3&#45;&gt;1 -->
<g id="edge5" class="edge">
<title>&#45;3&#45;&gt;1</title>
<path fill="none" stroke="green" stroke-width="0.39" d="M289.05,-74.84C291.69,-65.96 296,-51.45 299.7,-39.03"/>
<polygon fill="green" stroke="green" stroke-width="0.39" points="303.1,-39.86 302.6,-29.27 296.39,-37.86 303.1,-39.86"/>
</g>
<!-- &#45;4 -->
<g id="node4" class="node">
<title>&#45;4</title>
<polygon fill="lightgray" stroke="black" points="92.59,-93.08 68.59,-93.08 68.59,-75.08 92.59,-75.08 92.59,-93.08"/>
<text text-anchor="middle" x="80.59" y="-81.88" font-family="Times New Roman,serif" font-size="9.00">&#45;4</text>
</g>
<!-- &#45;4&#45;&gt;0 -->
<g id="edge6" class="edge">
<title>&#45;4&#45;&gt;0</title>
<path fill="none" stroke="green" stroke-width="0.16" d="M87.95,-74.84C96.97,-64.73 112.51,-47.32 124.38,-34.02"/>
<polygon fill="green" stroke="green" stroke-width="0.16" points="127.15,-36.16 131.2,-26.37 121.93,-31.5 127.15,-36.16"/>
</g>
<!-- &#45;5 -->
<g id="node5" class="node">
<title>&#45;5</title>
<polygon fill="lightgray" stroke="black" points="44.59,-156.47 20.59,-156.47 20.59,-138.47 44.59,-138.47 44.59,-156.47"/>
<text text-anchor="middle" x="32.59" y="-145.27" font-family="Times New Roman,serif" font-size="9.00">&#45;5</text>
</g>
<!-- &#45;5&#45;&gt;0 -->
<g id="edge7" class="edge">
<title>&#45;5&#45;&gt;0</title>
<path fill="none" stroke="red" stroke-width="0.41" d="M25.33,-138.21C12.67,-122.78 -10.63,-88.99 5.59,-65.7 30.38,-30.12 83.6,-19.87 115.31,-16.96"/>
<polygon fill="red" stroke="red" stroke-width="0.41" points="115.83,-20.43 125.55,-16.21 115.32,-13.45 115.83,-20.43"/>
</g>
<!-- &#45;5&#45;&gt;1 -->
<g id="edge8" class="edge">
<title>&#45;5&#45;&gt;1</title>
<path fill="none" stroke="green" stroke-width="0.12" d="M44.66,-146.51C93.17,-146.38 272.93,-143.12 307.59,-102.47 322.33,-85.18 319.33,-58.15 314.39,-38.88"/>
<polygon fill="green" stroke="green" stroke-width="0.12" points="317.7,-37.71 311.55,-29.08 310.98,-39.66 317.7,-37.71"/>
</g>
<!-- 19 -->
<g id="node12" class="node">
<title>19</title>
<ellipse fill="white" stroke="black" cx="32.59" cy="-84.08" rx="18.27" ry="18.27"/>
<text text-anchor="middle" x="32.59" y="-81.88" font-family="Times New Roman,serif" font-size="9.00">19</text>
</g>
<!-- &#45;5&#45;&gt;19 -->
<g id="edge17" class="edge">
<title>&#45;5&#45;&gt;19</title>
<path fill="none" stroke="green" stroke-width="0.23" d="M32.59,-138.44C32.59,-131.88 32.59,-122.19 32.59,-112.86"/>
<polygon fill="green" stroke="green" stroke-width="0.23" points="36.09,-112.67 32.59,-102.67 29.09,-112.67 36.09,-112.67"/>
</g>
<!-- &#45;6 -->
<g id="node6" class="node">
<title>&#45;6</title>
<polygon fill="lightgray" stroke="black" points="418.59,-156.47 394.59,-156.47 394.59,-138.47 418.59,-138.47 418.59,-156.47"/>
<text text-anchor="middle" x="406.59" y="-145.27" font-family="Times New Roman,serif" font-size="9.00">&#45;6</text>
</g>
<!-- &#45;6&#45;&gt;0 -->
<g id="edge9" class="edge">
<title>&#45;6&#45;&gt;0</title>
<path fill="none" stroke="red" stroke-width="0.19" d="M394.55,-146.44C346.97,-146.06 173.11,-141.96 139.59,-102.47 124.9,-85.15 127.89,-58.12 132.81,-38.86"/>
<polygon fill="red" stroke="red" stroke-width="0.19" points="136.23,-39.65 135.65,-29.07 129.5,-37.71 136.23,-39.65"/>
</g>
<!-- &#45;6&#45;&gt;1 -->
<g id="edge10" class="edge">
<title>&#45;6&#45;&gt;1</title>
<path fill="none" stroke="green" stroke-width="0.13" stroke-dasharray="1,5" d="M406.66,-138.05C406.37,-122.35 403.78,-88.13 387.59,-65.7 373.24,-45.81 348.29,-32.23 329.86,-24.32"/>
<polygon fill="green" stroke="green" stroke-width="0.13" points="330.98,-21 320.4,-20.51 328.36,-27.49 330.98,-21"/>
</g>
<!-- 18 -->
<g id="node11" class="node">
<title>18</title>
<ellipse fill="white" stroke="black" cx="452.59" cy="-84.08" rx="18.27" ry="18.27"/>
<text text-anchor="middle" x="452.59" y="-81.88" font-family="Times New Roman,serif" font-size="9.00">18</text>
</g>
<!-- &#45;6&#45;&gt;18 -->
<g id="edge15" class="edge">
<title>&#45;6&#45;&gt;18</title>
<path fill="none" stroke="green" stroke-width="0.3" d="M412.61,-138.44C418.45,-130.65 427.59,-118.44 435.66,-107.67"/>
<polygon fill="green" stroke="green" stroke-width="0.3" points="438.63,-109.56 441.82,-99.46 433.03,-105.36 438.63,-109.56"/>
</g>
<!-- &#45;7 -->
<g id="node7" class="node">
<title>&#45;7</title>
<polygon fill="lightgray" stroke="black" points="172.59,-93.08 148.59,-93.08 148.59,-75.08 172.59,-75.08 172.59,-93.08"/>
<text text-anchor="middle" x="160.59" y="-81.88" font-family="Times New Roman,serif" font-size="9.00">&#45;7</text>
</g>
<!-- &#45;7&#45;&gt;0 -->
<g id="edge11" class="edge">
<title>&#45;7&#45;&gt;0</title>
<path fill="none" stroke="red" stroke-width="0.17" d="M158.14,-74.84C155.5,-65.96 151.18,-51.45 147.49,-39.03"/>
<polygon fill="red" stroke="red" stroke-width="0.17" points="150.79,-37.86 144.59,-29.27 144.08,-39.86 150.79,-37.86"/>
</g>
<!-- &#45;7&#45;&gt;1 -->
<g id="edge12" class="edge">
<title>&#45;7&#45;&gt;1</title>
<path fill="none" stroke="green" stroke-width="0.12" d="M169.13,-74.99C172.77,-71.81 177.2,-68.31 181.59,-65.7 214.62,-46.11 256.76,-31.12 282.7,-22.91"/>
<polygon fill="green" stroke="green" stroke-width="0.12" points="283.91,-26.2 292.43,-19.9 281.85,-19.51 283.91,-26.2"/>
</g>
<!-- &#45;8 -->
<g id="node8" class="node">
<title>&#45;8</title>
<polygon fill="lightgray" stroke="black" points="214.59,-93.08 190.59,-93.08 190.59,-75.08 214.59,-75.08 214.59,-93.08"/>
<text text-anchor="middle" x="202.59" y="-81.88" font-family="Times New Roman,serif" font-size="9.00">&#45;8</text>
</g>
<!-- &#45;8&#45;&gt;0 -->
<g id="edge13" class="edge">
<title>&#45;8&#45;&gt;0</title>
<path fill="none" stroke="green" stroke-width="0.35" d="M194.99,-74.84C185.67,-64.73 169.61,-47.32 157.35,-34.02"/>
<polygon fill="green" stroke="green" stroke-width="0.35" points="159.65,-31.35 150.3,-26.37 154.5,-36.1 159.65,-31.35"/>
</g>
<!-- &#45;8&#45;&gt;1 -->
<g id="edge14" class="edge">
<title>&#45;8&#45;&gt;1</title>
<path fill="none" stroke="red" stroke-width="0.41" d="M211.76,-74.98C215.36,-71.95 219.58,-68.54 223.59,-65.7 243.55,-51.57 267.62,-37.4 284.69,-27.8"/>
<polygon fill="red" stroke="red" stroke-width="0.41" points="286.81,-30.63 293.85,-22.71 283.41,-24.51 286.81,-30.63"/>
</g>
<!-- 18&#45;&gt;1 -->
<g id="edge16" class="edge">
<title>18&#45;&gt;1</title>
<path fill="none" stroke="green" stroke-width="0.26" d="M436.78,-74.15C431.66,-71.35 425.93,-68.31 420.59,-65.7 389.49,-50.48 352.65,-34.78 329.44,-25.16"/>
<polygon fill="green" stroke="green" stroke-width="0.26" points="330.68,-21.89 320.1,-21.32 328.01,-28.36 330.68,-21.89"/>
</g>
<!-- 19&#45;&gt;0 -->
<g id="edge18" class="edge">
<title>19&#45;&gt;0</title>
<path fill="none" stroke="green" stroke-width="0.4" d="M47.7,-73.28C51.56,-70.79 55.72,-68.13 59.59,-65.7 79.8,-52.98 103.03,-38.72 119.41,-28.72"/>
<polygon fill="green" stroke="green" stroke-width="0.4" points="121.48,-31.56 128.19,-23.37 117.83,-25.59 121.48,-31.56"/>
</g>
</g>
</svg>
