<?xml version="1.0" encoding="UTF-8" standalone="no"?>
<!DOCTYPE svg PUBLIC "-//W3C//DTD SVG 1.1//EN"
 "http://www.w3.org/Graphics/SVG/1.1/DTD/svg11.dtd">
<!-- Generated by graphviz version 2.47.0 (20210316.0004)
 -->
<!-- Pages: 1 -->
<svg width="326pt" height="92pt"
 viewBox="0.00 0.00 326.00 91.70" xmlns="http://www.w3.org/2000/svg" xmlns:xlink="http://www.w3.org/1999/xlink">
<g id="graph0" class="graph" transform="scale(1 1) rotate(0) translate(4 87.7)">
<polygon fill="white" stroke="transparent" points="-4,4 -4,-87.7 322,-87.7 322,4 -4,4"/>
<!-- &#45;1 -->
<g id="node1" class="node">
<title>&#45;1</title>
<polygon fill="lightgray" stroke="black" points="24,-83.7 0,-83.7 0,-65.7 24,-65.7 24,-83.7"/>
<text text-anchor="middle" x="12" y="-72.5" font-family="Times New Roman,serif" font-size="9.00">&#45;1</text>
</g>
<!-- 0 -->
<g id="node9" class="node">
<title>0</title>
<ellipse fill="lightblue" stroke="black" cx="114" cy="-14.85" rx="14.7" ry="14.7"/>
<text text-anchor="middle" x="114" y="-12.65" font-family="Times New Roman,serif" font-size="9.00">0</text>
</g>
<!-- &#45;1&#45;&gt;0 -->
<g id="edge1" class="edge">
<title>&#45;1&#45;&gt;0</title>
<path fill="none" stroke="green" stroke-width="0.47" d="M24.1,-66.84C40.94,-57.28 71.71,-39.83 92.51,-28.04"/>
<polygon fill="green" stroke="green" stroke-width="0.47" points="94.3,-31.04 101.28,-23.07 90.85,-24.96 94.3,-31.04"/>
</g>
<!-- 1 -->
<g id="node10" class="node">
<title>1</title>
<ellipse fill="lightblue" stroke="black" cx="171" cy="-14.85" rx="14.7" ry="14.7"/>
<text text-anchor="middle" x="171" y="-12.65" font-family="Times New Roman,serif" font-size="9.00">1</text>
</g>
<!-- &#45;1&#45;&gt;1 -->
<g id="edge2" class="edge">
<title>&#45;1&#45;&gt;1</title>
<path fill="none" stroke="green" stroke-width="0.19" d="M24.41,-68.89C27.23,-67.82 30.21,-66.71 33,-65.7 79.39,-48.91 91.9,-47.25 138,-29.7 141.35,-28.42 144.87,-27.02 148.31,-25.6"/>
<polygon fill="green" stroke="green" stroke-width="0.19" points="149.73,-28.81 157.6,-21.71 147.02,-22.35 149.73,-28.81"/>
</g>
<!-- &#45;2 -->
<g id="node2" class="node">
<title>&#45;2</title>
<polygon fill="lightgray" stroke="black" points="66,-83.7 42,-83.7 42,-65.7 66,-65.7 66,-83.7"/>
<text text-anchor="middle" x="54" y="-72.5" font-family="Times New Roman,serif" font-size="9.00">&#45;2</text>
</g>
<!-- &#45;2&#45;&gt;0 -->
<g id="edge3" class="edge">
<title>&#45;2&#45;&gt;0</title>
<path fill="none" stroke="green" stroke-width="0.22" d="M62.34,-65.65C71.13,-57.18 85.24,-43.58 96.49,-32.73"/>
<polygon fill="green" stroke="green" stroke-width="0.22" points="98.95,-35.22 103.72,-25.76 94.09,-30.18 98.95,-35.22"/>
</g>
<!-- &#45;2&#45;&gt;1 -->
<g id="edge4" class="edge">
<title>&#45;2&#45;&gt;1</title>
<path fill="none" stroke="green" stroke-width="0.3" d="M66.08,-67.73C85.58,-58.08 124.28,-38.95 148.84,-26.81"/>
<polygon fill="green" stroke="green" stroke-width="0.3" points="150.69,-29.8 158.1,-22.23 147.58,-23.52 150.69,-29.8"/>
</g>
<!-- &#45;3 -->
<g id="node3" class="node">
<title>&#45;3</title>
<polygon fill="lightgray" stroke="black" points="108,-83.7 84,-83.7 84,-65.7 108,-65.7 108,-83.7"/>
<text text-anchor="middle" x="96" y="-72.5" font-family="Times New Roman,serif" font-size="9.00">&#45;3</text>
</g>
<!-- &#45;3&#45;&gt;0 -->
<g id="edge5" class="edge">
<title>&#45;3&#45;&gt;0</title>
<path fill="none" stroke="green" stroke-width="0.52" d="M98.5,-65.65C100.66,-58.72 103.88,-48.37 106.83,-38.89"/>
<polygon fill="green" stroke="green" stroke-width="0.52" points="110.23,-39.75 109.86,-29.16 103.55,-37.67 110.23,-39.75"/>
</g>
<!-- &#45;3&#45;&gt;1 -->
<g id="edge6" class="edge">
<title>&#45;3&#45;&gt;1</title>
<path fill="none" stroke="green" stroke-width="0.44" d="M106.43,-65.65C118.03,-56.71 137.03,-42.05 151.42,-30.95"/>
<polygon fill="green" stroke="green" stroke-width="0.44" points="153.9,-33.46 159.68,-24.58 149.62,-27.92 153.9,-33.46"/>
</g>
<!-- &#45;4 -->
<g id="node4" class="node">
<title>&#45;4</title>
<polygon fill="lightgray" stroke="black" points="276,-83.7 252,-83.7 252,-65.7 276,-65.7 276,-83.7"/>
<text text-anchor="middle" x="264" y="-72.5" font-family="Times New Roman,serif" font-size="9.00">&#45;4</text>
</g>
<!-- &#45;4&#45;&gt;1 -->
<g id="edge7" class="edge">
<title>&#45;4&#45;&gt;1</title>
<path fill="none" stroke="red" stroke-width="0.21" d="M251.84,-66.14C236.59,-56.65 210.22,-40.24 191.75,-28.76"/>
<polygon fill="red" stroke="red" stroke-width="0.21" points="193.5,-25.72 183.16,-23.41 189.8,-31.67 193.5,-25.72"/>
</g>
<!-- &#45;5 -->
<g id="node5" class="node">
<title>&#45;5</title>
<polygon fill="lightgray" stroke="black" points="150,-83.7 126,-83.7 126,-65.7 150,-65.7 150,-83.7"/>
<text text-anchor="middle" x="138" y="-72.5" font-family="Times New Roman,serif" font-size="9.00">&#45;5</text>
</g>
<!-- &#45;5&#45;&gt;0 -->
<g id="edge8" class="edge">
<title>&#45;5&#45;&gt;0</title>
<path fill="none" stroke="green" stroke-width="0.25" d="M134.66,-65.65C131.72,-58.56 127.28,-47.87 123.28,-38.21"/>
<polygon fill="green" stroke="green" stroke-width="0.25" points="126.4,-36.61 119.34,-28.71 119.94,-39.29 126.4,-36.61"/>
</g>
<!-- &#45;5&#45;&gt;1 -->
<g id="edge9" class="edge">
<title>&#45;5&#45;&gt;1</title>
<path fill="none" stroke="green" stroke-width="0.25" d="M142.59,-65.65C146.78,-58.31 153.15,-47.13 158.81,-37.22"/>
<polygon fill="green" stroke="green" stroke-width="0.25" points="162,-38.7 163.91,-28.28 155.92,-35.23 162,-38.7"/>
</g>
<!-- &#45;6 -->
<g id="node6" class="node">
<title>&#45;6</title>
<polygon fill="lightgray" stroke="black" points="192,-83.7 168,-83.7 168,-65.7 192,-65.7 192,-83.7"/>
<text text-anchor="middle" x="180" y="-72.5" font-family="Times New Roman,serif" font-size="9.00">&#45;6</text>
</g>
<!-- &#45;6&#45;&gt;0 -->
<g id="edge10" class="edge">
<title>&#45;6&#45;&gt;0</title>
<path fill="none" stroke="red" stroke-width="0.19" d="M170.82,-65.65C160.94,-57 144.97,-42.99 132.47,-32.03"/>
<polygon fill="red" stroke="red" stroke-width="0.19" points="134.68,-29.32 124.85,-25.36 130.07,-34.58 134.68,-29.32"/>
</g>
<!-- &#45;6&#45;&gt;1 -->
<g id="edge11" class="edge">
<title>&#45;6&#45;&gt;1</title>
<path fill="none" stroke="red" stroke-width="0.31" d="M178.75,-65.65C177.7,-58.89 176.14,-48.86 174.69,-39.57"/>
<polygon fill="red" stroke="red" stroke-width="0.31" points="178.14,-38.95 173.14,-29.6 171.22,-40.02 178.14,-38.95"/>
</g>
<!-- &#45;7 -->
<g id="node7" class="node">
<title>&#45;7</title>
<polygon fill="lightgray" stroke="black" points="234,-83.7 210,-83.7 210,-65.7 234,-65.7 234,-83.7"/>
<text text-anchor="middle" x="222" y="-72.5" font-family="Times New Roman,serif" font-size="9.00">&#45;7</text>
</g>
<!-- &#45;7&#45;&gt;0 -->
<g id="edge12" class="edge">
<title>&#45;7&#45;&gt;0</title>
<path fill="none" stroke="green" stroke-width="0.19" d="M209.61,-67.06C191.66,-57.45 158.13,-39.49 135.94,-27.6"/>
<polygon fill="green" stroke="green" stroke-width="0.19" points="137.38,-24.4 126.91,-22.77 134.08,-30.57 137.38,-24.4"/>
</g>
<!-- &#45;7&#45;&gt;1 -->
<g id="edge13" class="edge">
<title>&#45;7&#45;&gt;1</title>
<path fill="none" stroke="red" stroke-width="0.31" d="M214.91,-65.65C207.75,-57.54 196.46,-44.73 187.12,-34.13"/>
<polygon fill="red" stroke="red" stroke-width="0.31" points="189.7,-31.76 180.46,-26.58 184.45,-36.39 189.7,-31.76"/>
</g>
<!-- &#45;8 -->
<g id="node8" class="node">
<title>&#45;8</title>
<polygon fill="lightgray" stroke="black" points="318,-83.7 294,-83.7 294,-65.7 318,-65.7 318,-83.7"/>
<text text-anchor="middle" x="306" y="-72.5" font-family="Times New Roman,serif" font-size="9.00">&#45;8</text>
</g>
<!-- &#45;8&#45;&gt;1 -->
<g id="edge14" class="edge">
<title>&#45;8&#45;&gt;1</title>
<path fill="none" stroke="red" stroke-width="0.26" d="M293.54,-68.36C270.89,-58.65 222.63,-37.98 193.9,-25.66"/>
<polygon fill="red" stroke="red" stroke-width="0.26" points="195.2,-22.41 184.62,-21.69 192.44,-28.84 195.2,-22.41"/>
</g>
</g>
</svg>
