<?xml version="1.0" encoding="UTF-8" standalone="no"?>
<!DOCTYPE svg PUBLIC "-//W3C//DTD SVG 1.1//EN"
 "http://www.w3.org/Graphics/SVG/1.1/DTD/svg11.dtd">
<!-- Generated by graphviz version 2.47.0 (20210316.0004)
 -->
<!-- Pages: 1 -->
<svg width="326pt" height="116pt"
 viewBox="0.00 0.00 326.00 115.74" xmlns="http://www.w3.org/2000/svg" xmlns:xlink="http://www.w3.org/1999/xlink">
<g id="graph0" class="graph" transform="scale(1 1) rotate(0) translate(4 111.74)">
<polygon fill="white" stroke="transparent" points="-4,4 -4,-111.74 322,-111.74 322,4 -4,4"/>
<!-- &#45;1 -->
<g id="node1" class="node">
<title>&#45;1</title>
<polygon fill="lightgray" stroke="black" points="108,-107.74 84,-107.74 84,-89.74 108,-89.74 108,-107.74"/>
<text text-anchor="middle" x="96" y="-96.54" font-family="Times New Roman,serif" font-size="9.00">&#45;1</text>
</g>
<!-- Speed -->
<g id="node9" class="node">
<title>Speed</title>
<ellipse fill="lightblue" stroke="black" cx="123" cy="-26.87" rx="26.74" ry="26.74"/>
<text text-anchor="middle" x="123" y="-24.67" font-family="Times New Roman,serif" font-size="9.00">Speed</text>
</g>
<!-- &#45;1&#45;&gt;Speed -->
<g id="edge1" class="edge">
<title>&#45;1&#45;&gt;Speed</title>
<path fill="none" stroke="green" stroke-width="0.17" d="M99.1,-89.73C101.79,-82.75 105.89,-72.16 109.93,-61.69"/>
<polygon fill="green" stroke="green" stroke-width="0.17" points="113.25,-62.81 113.59,-52.22 106.72,-60.29 113.25,-62.81"/>
</g>
<!-- Angle -->
<g id="node10" class="node">
<title>Angle</title>
<ellipse fill="lightblue" stroke="black" cx="195" cy="-26.87" rx="26.74" ry="26.74"/>
<text text-anchor="middle" x="195" y="-24.67" font-family="Times New Roman,serif" font-size="9.00">Angle</text>
</g>
<!-- &#45;1&#45;&gt;Angle -->
<g id="edge2" class="edge">
<title>&#45;1&#45;&gt;Angle</title>
<path fill="none" stroke="red" stroke-width="0.18" d="M107.64,-89.68C120.31,-80.89 141.15,-66.39 159,-53.74 160.89,-52.4 162.83,-51.02 164.78,-49.63"/>
<polygon fill="red" stroke="red" stroke-width="0.18" points="167.24,-52.18 173.33,-43.51 163.16,-46.49 167.24,-52.18"/>
</g>
<!-- &#45;2 -->
<g id="node2" class="node">
<title>&#45;2</title>
<polygon fill="lightgray" stroke="black" points="150,-107.74 126,-107.74 126,-89.74 150,-89.74 150,-107.74"/>
<text text-anchor="middle" x="138" y="-96.54" font-family="Times New Roman,serif" font-size="9.00">&#45;2</text>
</g>
<!-- &#45;2&#45;&gt;Speed -->
<g id="edge3" class="edge">
<title>&#45;2&#45;&gt;Speed</title>
<path fill="none" stroke="green" stroke-width="0.4" d="M136.28,-89.73C134.86,-83.11 132.74,-73.23 130.61,-63.3"/>
<polygon fill="green" stroke="green" stroke-width="0.4" points="134.02,-62.51 128.5,-53.47 127.17,-63.98 134.02,-62.51"/>
</g>
<!-- &#45;2&#45;&gt;Angle -->
<g id="edge4" class="edge">
<title>&#45;2&#45;&gt;Angle</title>
<path fill="none" stroke="red" stroke-width="0.23" d="M144.54,-89.73C151.26,-81.49 162.1,-68.2 172.02,-56.04"/>
<polygon fill="red" stroke="red" stroke-width="0.23" points="174.74,-58.24 178.35,-48.28 169.32,-53.82 174.74,-58.24"/>
</g>
<!-- &#45;3 -->
<g id="node3" class="node">
<title>&#45;3</title>
<polygon fill="lightgray" stroke="black" points="192,-107.74 168,-107.74 168,-89.74 192,-89.74 192,-107.74"/>
<text text-anchor="middle" x="180" y="-96.54" font-family="Times New Roman,serif" font-size="9.00">&#45;3</text>
</g>
<!-- &#45;3&#45;&gt;Speed -->
<g id="edge5" class="edge">
<title>&#45;3&#45;&gt;Speed</title>
<path fill="none" stroke="green" stroke-width="0.45" d="M173.46,-89.73C166.74,-81.49 155.9,-68.2 145.98,-56.04"/>
<polygon fill="green" stroke="green" stroke-width="0.45" points="148.68,-53.82 139.65,-48.28 143.26,-58.24 148.68,-53.82"/>
</g>
<!-- &#45;3&#45;&gt;Angle -->
<g id="edge6" class="edge">
<title>&#45;3&#45;&gt;Angle</title>
<path fill="none" stroke="red" stroke-width="0.29" d="M181.72,-89.73C183.14,-83.11 185.26,-73.23 187.39,-63.3"/>
<polygon fill="red" stroke="red" stroke-width="0.29" points="190.83,-63.98 189.5,-53.47 183.98,-62.51 190.83,-63.98"/>
</g>
<!-- &#45;4 -->
<g id="node4" class="node">
<title>&#45;4</title>
<polygon fill="lightgray" stroke="black" points="234,-107.74 210,-107.74 210,-89.74 234,-89.74 234,-107.74"/>
<text text-anchor="middle" x="222" y="-96.54" font-family="Times New Roman,serif" font-size="9.00">&#45;4</text>
</g>
<!-- &#45;4&#45;&gt;Speed -->
<g id="edge7" class="edge">
<title>&#45;4&#45;&gt;Speed</title>
<path fill="none" stroke="red" stroke-width="0.26" d="M210.36,-89.68C197.69,-80.89 176.85,-66.39 159,-53.74 157.11,-52.4 155.17,-51.02 153.22,-49.63"/>
<polygon fill="red" stroke="red" stroke-width="0.26" points="154.84,-46.49 144.67,-43.51 150.76,-52.18 154.84,-46.49"/>
</g>
<!-- &#45;4&#45;&gt;Angle -->
<g id="edge8" class="edge">
<title>&#45;4&#45;&gt;Angle</title>
<path fill="none" stroke="red" stroke-width="0.16" d="M218.9,-89.73C216.21,-82.75 212.11,-72.16 208.07,-61.69"/>
<polygon fill="red" stroke="red" stroke-width="0.16" points="211.28,-60.29 204.41,-52.22 204.75,-62.81 211.28,-60.29"/>
</g>
<!-- &#45;5 -->
<g id="node5" class="node">
<title>&#45;5</title>
<polygon fill="lightgray" stroke="black" points="276,-107.74 252,-107.74 252,-89.74 276,-89.74 276,-107.74"/>
<text text-anchor="middle" x="264" y="-96.54" font-family="Times New Roman,serif" font-size="9.00">&#45;5</text>
</g>
<!-- &#45;5&#45;&gt;Speed -->
<g id="edge9" class="edge">
<title>&#45;5&#45;&gt;Speed</title>
<path fill="none" stroke="green" stroke-width="0.24" d="M251.82,-93.04C227.94,-83.75 175.82,-63.15 159,-53.74 156.77,-52.49 154.51,-51.13 152.26,-49.71"/>
<polygon fill="green" stroke="green" stroke-width="0.24" points="154.05,-46.69 143.79,-44.02 150.14,-52.5 154.05,-46.69"/>
</g>
<!-- &#45;5&#45;&gt;Angle -->
<g id="edge10" class="edge">
<title>&#45;5&#45;&gt;Angle</title>
<path fill="none" stroke="red" stroke-width="0.32" d="M256.08,-89.73C247.44,-80.98 233.16,-66.51 220.57,-53.77"/>
<polygon fill="red" stroke="red" stroke-width="0.32" points="222.93,-51.18 213.42,-46.52 217.95,-56.09 222.93,-51.18"/>
</g>
<!-- &#45;6 -->
<g id="node6" class="node">
<title>&#45;6</title>
<polygon fill="lightgray" stroke="black" points="318,-107.74 294,-107.74 294,-89.74 318,-89.74 318,-107.74"/>
<text text-anchor="middle" x="306" y="-96.54" font-family="Times New Roman,serif" font-size="9.00">&#45;6</text>
</g>
<!-- &#45;6&#45;&gt;Speed -->
<g id="edge11" class="edge">
<title>&#45;6&#45;&gt;Speed</title>
<path fill="none" stroke="red" stroke-width="0.24" d="M293.63,-92.82C290.81,-91.76 287.81,-90.68 285,-89.74 229.74,-71.36 211.42,-79.11 159,-53.74 156.7,-52.63 154.38,-51.36 152.1,-50.01"/>
<polygon fill="red" stroke="red" stroke-width="0.24" points="153.85,-46.97 143.56,-44.47 150.05,-52.85 153.85,-46.97"/>
</g>
<!-- &#45;6&#45;&gt;Angle -->
<g id="edge12" class="edge">
<title>&#45;6&#45;&gt;Angle</title>
<path fill="none" stroke="green" stroke-width="0.2" d="M293.7,-90C277.45,-79.77 248.29,-61.41 225.86,-47.29"/>
<polygon fill="green" stroke="green" stroke-width="0.2" points="227.65,-44.29 217.33,-41.92 223.93,-50.21 227.65,-44.29"/>
</g>
<!-- &#45;7 -->
<g id="node7" class="node">
<title>&#45;7</title>
<polygon fill="lightgray" stroke="black" points="24,-107.74 0,-107.74 0,-89.74 24,-89.74 24,-107.74"/>
<text text-anchor="middle" x="12" y="-96.54" font-family="Times New Roman,serif" font-size="9.00">&#45;7</text>
</g>
<!-- &#45;7&#45;&gt;Speed -->
<g id="edge13" class="edge">
<title>&#45;7&#45;&gt;Speed</title>
<path fill="none" stroke="red" stroke-width="0.36" d="M24.3,-90C40.55,-79.77 69.71,-61.41 92.14,-47.29"/>
<polygon fill="red" stroke="red" stroke-width="0.36" points="94.07,-50.21 100.67,-41.92 90.35,-44.29 94.07,-50.21"/>
</g>
<!-- &#45;7&#45;&gt;Angle -->
<g id="edge14" class="edge">
<title>&#45;7&#45;&gt;Angle</title>
<path fill="none" stroke="red" stroke-width="0.17" d="M24.37,-92.82C27.19,-91.76 30.19,-90.68 33,-89.74 88.26,-71.36 106.58,-79.11 159,-53.74 161.3,-52.63 163.62,-51.36 165.9,-50.01"/>
<polygon fill="red" stroke="red" stroke-width="0.17" points="167.95,-52.85 174.44,-44.47 164.15,-46.97 167.95,-52.85"/>
</g>
<!-- &#45;8 -->
<g id="node8" class="node">
<title>&#45;8</title>
<polygon fill="lightgray" stroke="black" points="66,-107.74 42,-107.74 42,-89.74 66,-89.74 66,-107.74"/>
<text text-anchor="middle" x="54" y="-96.54" font-family="Times New Roman,serif" font-size="9.00">&#45;8</text>
</g>
<!-- &#45;8&#45;&gt;Speed -->
<g id="edge15" class="edge">
<title>&#45;8&#45;&gt;Speed</title>
<path fill="none" stroke="red" stroke-width="0.14" d="M61.92,-89.73C70.56,-80.98 84.84,-66.51 97.43,-53.77"/>
<polygon fill="red" stroke="red" stroke-width="0.14" points="100.05,-56.09 104.58,-46.52 95.07,-51.18 100.05,-56.09"/>
</g>
<!-- &#45;8&#45;&gt;Angle -->
<g id="edge16" class="edge">
<title>&#45;8&#45;&gt;Angle</title>
<path fill="none" stroke="green" stroke-width="0.14" d="M66.18,-93.04C90.06,-83.75 142.18,-63.15 159,-53.74 161.23,-52.49 163.49,-51.13 165.74,-49.71"/>
<polygon fill="green" stroke="green" stroke-width="0.14" points="167.86,-52.5 174.21,-44.02 163.95,-46.69 167.86,-52.5"/>
</g>
</g>
</svg>
