<?xml version="1.0" encoding="UTF-8" standalone="no"?>
<!DOCTYPE svg PUBLIC "-//W3C//DTD SVG 1.1//EN"
 "http://www.w3.org/Graphics/SVG/1.1/DTD/svg11.dtd">
<!-- Generated by graphviz version 2.47.0 (20210316.0004)
 -->
<!-- Pages: 1 -->
<svg width="492pt" height="369pt"
 viewBox="0.00 0.00 491.80 369.40" xmlns="http://www.w3.org/2000/svg" xmlns:xlink="http://www.w3.org/1999/xlink">
<g id="graph0" class="graph" transform="scale(1 1) rotate(0) translate(4 365.4)">
<polygon fill="white" stroke="transparent" points="-4,4 -4,-365.4 487.8,-365.4 487.8,4 -4,4"/>
<!-- &#45;1 -->
<g id="node1" class="node">
<title>&#45;1</title>
<polygon fill="lightgray" stroke="black" points="105.8,-291.66 81.8,-291.66 81.8,-273.66 105.8,-273.66 105.8,-291.66"/>
<text text-anchor="middle" x="93.8" y="-280.46" font-family="Times New Roman,serif" font-size="9.00">&#45;1</text>
</g>
<!-- Speed -->
<g id="node9" class="node">
<title>Speed</title>
<ellipse fill="lightblue" stroke="black" cx="93.8" cy="-195.04" rx="26.74" ry="26.74"/>
<text text-anchor="middle" x="93.8" y="-192.84" font-family="Times New Roman,serif" font-size="9.00">Speed</text>
</g>
<!-- &#45;1&#45;&gt;Speed -->
<g id="edge1" class="edge">
<title>&#45;1&#45;&gt;Speed</title>
<path fill="none" stroke="green" stroke-width="0.28" d="M93.8,-273.45C93.8,-263.92 93.8,-247.58 93.8,-232.36"/>
<polygon fill="green" stroke="green" stroke-width="0.28" points="97.3,-232.1 93.8,-222.1 90.3,-232.1 97.3,-232.1"/>
</g>
<!-- &#45;2 -->
<g id="node2" class="node">
<title>&#45;2</title>
<polygon fill="lightgray" stroke="black" points="147.8,-291.66 123.8,-291.66 123.8,-273.66 147.8,-273.66 147.8,-291.66"/>
<text text-anchor="middle" x="135.8" y="-280.46" font-family="Times New Roman,serif" font-size="9.00">&#45;2</text>
</g>
<!-- &#45;2&#45;&gt;Speed -->
<g id="edge2" class="edge">
<title>&#45;2&#45;&gt;Speed</title>
<path fill="none" stroke="red" stroke-width="0.14" stroke-dasharray="1,5" d="M131.78,-273.45C126.73,-263.16 117.78,-244.91 109.83,-228.72"/>
<polygon fill="red" stroke="red" stroke-width="0.14" points="112.86,-226.93 105.31,-219.49 106.57,-230.01 112.86,-226.93"/>
</g>
<!-- &#45;3 -->
<g id="node3" class="node">
<title>&#45;3</title>
<polygon fill="lightgray" stroke="black" points="120.8,-119.95 96.8,-119.95 96.8,-101.95 120.8,-101.95 120.8,-119.95"/>
<text text-anchor="middle" x="108.8" y="-108.75" font-family="Times New Roman,serif" font-size="9.00">&#45;3</text>
</g>
<!-- Angle -->
<g id="node10" class="node">
<title>Angle</title>
<ellipse fill="lightblue" stroke="black" cx="273.8" cy="-26.87" rx="26.74" ry="26.74"/>
<text text-anchor="middle" x="273.8" y="-24.67" font-family="Times New Roman,serif" font-size="9.00">Angle</text>
</g>
<!-- &#45;3&#45;&gt;Angle -->
<g id="edge3" class="edge">
<title>&#45;3&#45;&gt;Angle</title>
<path fill="none" stroke="green" stroke-width="0.4" d="M118.04,-101.89C122.84,-97.93 128.92,-93.27 134.8,-89.74 168.65,-69.46 210.33,-51.78 239.17,-40.57"/>
<polygon fill="green" stroke="green" stroke-width="0.4" points="240.72,-43.73 248.8,-36.88 238.21,-37.19 240.72,-43.73"/>
</g>
<!-- &#45;4 -->
<g id="node4" class="node">
<title>&#45;4</title>
<polygon fill="lightgray" stroke="black" points="50.8,-361.4 26.8,-361.4 26.8,-343.4 50.8,-343.4 50.8,-361.4"/>
<text text-anchor="middle" x="38.8" y="-350.2" font-family="Times New Roman,serif" font-size="9.00">&#45;4</text>
</g>
<!-- &#45;4&#45;&gt;Speed -->
<g id="edge4" class="edge">
<title>&#45;4&#45;&gt;Speed</title>
<path fill="none" stroke="green" stroke-width="0.3" stroke-dasharray="1,5" d="M51.18,-351.09C76.18,-349.7 132.36,-342.6 156.8,-307.4 169.35,-289.33 165.31,-278.19 156.8,-257.91 150.04,-241.79 136.8,-227.75 124.2,-217.15"/>
<polygon fill="green" stroke="green" stroke-width="0.3" points="126.09,-214.17 116.09,-210.68 121.73,-219.65 126.09,-214.17"/>
</g>
<!-- &#45;4&#45;&gt;Angle -->
<g id="edge24" class="edge">
<title>&#45;4&#45;&gt;Angle</title>
<path fill="none" stroke="green" stroke-width="0.19" d="M29.84,-343.34C21.53,-335.22 9.73,-321.84 4.8,-307.4 -2.3,-286.58 -0.2,-279.33 4.8,-257.91 23.74,-176.74 24.96,-144.49 87.8,-89.74 130.41,-52.62 196,-37.62 236.83,-31.67"/>
<polygon fill="green" stroke="green" stroke-width="0.19" points="237.45,-35.12 246.9,-30.31 236.52,-28.18 237.45,-35.12"/>
</g>
<!-- 1989 -->
<g id="node11" class="node">
<title>1989</title>
<ellipse fill="white" stroke="black" cx="38.8" cy="-282.66" rx="25" ry="25"/>
<text text-anchor="middle" x="38.8" y="-280.46" font-family="Times New Roman,serif" font-size="9.00">1989</text>
</g>
<!-- &#45;4&#45;&gt;1989 -->
<g id="edge22" class="edge">
<title>&#45;4&#45;&gt;1989</title>
<path fill="none" stroke="green" stroke-width="0.3" d="M38.8,-343.37C38.8,-336.93 38.8,-327.43 38.8,-317.9"/>
<polygon fill="green" stroke="green" stroke-width="0.3" points="42.3,-317.68 38.8,-307.68 35.3,-317.68 42.3,-317.68"/>
</g>
<!-- &#45;5 -->
<g id="node5" class="node">
<title>&#45;5</title>
<polygon fill="lightgray" stroke="black" points="243.8,-291.66 219.8,-291.66 219.8,-273.66 243.8,-273.66 243.8,-291.66"/>
<text text-anchor="middle" x="231.8" y="-280.46" font-family="Times New Roman,serif" font-size="9.00">&#45;5</text>
</g>
<!-- &#45;5&#45;&gt;Speed -->
<g id="edge5" class="edge">
<title>&#45;5&#45;&gt;Speed</title>
<path fill="none" stroke="green" stroke-width="0.18" d="M219.53,-274.15C201.09,-262.87 165.18,-240.85 134.8,-221.91 131.62,-219.92 128.29,-217.84 124.98,-215.76"/>
<polygon fill="green" stroke="green" stroke-width="0.18" points="126.66,-212.68 116.33,-210.31 122.93,-218.6 126.66,-212.68"/>
</g>
<!-- &#45;5&#45;&gt;Angle -->
<g id="edge6" class="edge">
<title>&#45;5&#45;&gt;Angle</title>
<path fill="none" stroke="green" stroke-width="0.27" d="M219.55,-274.66C204.12,-265.05 178.34,-246.16 167.8,-221.91 158.29,-200 163.08,-191.58 167.8,-168.17 175.28,-131.1 178.43,-120.23 200.8,-89.74 212.47,-73.84 229.01,-59.38 243.4,-48.45"/>
<polygon fill="green" stroke="green" stroke-width="0.27" points="245.59,-51.18 251.57,-42.43 241.44,-45.55 245.59,-51.18"/>
</g>
<!-- 715 -->
<g id="node13" class="node">
<title>715</title>
<ellipse fill="white" stroke="black" cx="295.8" cy="-195.04" rx="21.43" ry="21.43"/>
<text text-anchor="middle" x="295.8" y="-192.84" font-family="Times New Roman,serif" font-size="9.00">715</text>
</g>
<!-- &#45;5&#45;&gt;715 -->
<g id="edge17" class="edge">
<title>&#45;5&#45;&gt;715</title>
<path fill="none" stroke="green" stroke-width="0.25" d="M237.94,-273.45C246.92,-261.43 264.02,-238.56 277.31,-220.78"/>
<polygon fill="green" stroke="green" stroke-width="0.25" points="280.29,-222.64 283.47,-212.53 274.68,-218.44 280.29,-222.64"/>
</g>
<!-- 309 -->
<g id="node15" class="node">
<title>309</title>
<ellipse fill="white" stroke="black" cx="197.8" cy="-195.04" rx="21.43" ry="21.43"/>
<text text-anchor="middle" x="197.8" y="-192.84" font-family="Times New Roman,serif" font-size="9.00">309</text>
</g>
<!-- &#45;5&#45;&gt;309 -->
<g id="edge13" class="edge">
<title>&#45;5&#45;&gt;309</title>
<path fill="none" stroke="red" stroke-width="0.14" d="M228.54,-273.45C224.12,-262.32 216.01,-241.88 209.22,-224.8"/>
<polygon fill="red" stroke="red" stroke-width="0.14" points="212.37,-223.23 205.42,-215.22 205.86,-225.81 212.37,-223.23"/>
</g>
<!-- 24 -->
<g id="node16" class="node">
<title>24</title>
<ellipse fill="white" stroke="black" cx="353.8" cy="-195.04" rx="18.27" ry="18.27"/>
<text text-anchor="middle" x="353.8" y="-192.84" font-family="Times New Roman,serif" font-size="9.00">24</text>
</g>
<!-- &#45;5&#45;&gt;24 -->
<g id="edge21" class="edge">
<title>&#45;5&#45;&gt;24</title>
<path fill="none" stroke="red" stroke-width="0.15" d="M243.83,-274.95C262.17,-264.52 297.92,-243.37 325.8,-221.91 328.43,-219.89 331.09,-217.67 333.68,-215.41"/>
<polygon fill="red" stroke="red" stroke-width="0.15" points="336.08,-217.97 341.12,-208.65 331.37,-212.78 336.08,-217.97"/>
</g>
<!-- 62 -->
<g id="node17" class="node">
<title>62</title>
<ellipse fill="white" stroke="black" cx="227.8" cy="-110.95" rx="18.27" ry="18.27"/>
<text text-anchor="middle" x="227.8" y="-108.75" font-family="Times New Roman,serif" font-size="9.00">62</text>
</g>
<!-- &#45;5&#45;&gt;62 -->
<g id="edge12" class="edge">
<title>&#45;5&#45;&gt;62</title>
<path fill="none" stroke="green" stroke-width="0.14" stroke-dasharray="1,5" d="M231.61,-273.47C231.05,-249.58 229.39,-179.11 228.45,-139.61"/>
<polygon fill="green" stroke="green" stroke-width="0.14" points="231.95,-139.49 228.22,-129.58 224.96,-139.66 231.95,-139.49"/>
</g>
<!-- &#45;6 -->
<g id="node6" class="node">
<title>&#45;6</title>
<polygon fill="lightgray" stroke="black" points="413.8,-204.04 389.8,-204.04 389.8,-186.04 413.8,-186.04 413.8,-204.04"/>
<text text-anchor="middle" x="401.8" y="-192.84" font-family="Times New Roman,serif" font-size="9.00">&#45;6</text>
</g>
<!-- &#45;6&#45;&gt;Angle -->
<g id="edge7" class="edge">
<title>&#45;6&#45;&gt;Angle</title>
<path fill="none" stroke="red" stroke-width="0.32" stroke-dasharray="1,5" d="M396.06,-185.87C392.09,-180.53 386.52,-173.57 380.8,-168.17 360.89,-149.37 348.93,-152.69 330.8,-132.17 312.24,-111.15 297.32,-83.06 287.41,-61.32"/>
<polygon fill="red" stroke="red" stroke-width="0.32" points="290.59,-59.86 283.35,-52.14 284.19,-62.7 290.59,-59.86"/>
</g>
<!-- 472 -->
<g id="node12" class="node">
<title>472</title>
<ellipse fill="white" stroke="black" cx="360.8" cy="-110.95" rx="21.43" ry="21.43"/>
<text text-anchor="middle" x="360.8" y="-108.75" font-family="Times New Roman,serif" font-size="9.00">472</text>
</g>
<!-- &#45;6&#45;&gt;472 -->
<g id="edge15" class="edge">
<title>&#45;6&#45;&gt;472</title>
<path fill="none" stroke="green" stroke-width="0.34" d="M397.72,-185.87C392.34,-175.09 382.59,-155.58 374.47,-139.31"/>
<polygon fill="green" stroke="green" stroke-width="0.34" points="377.51,-137.57 369.91,-130.19 371.25,-140.7 377.51,-137.57"/>
</g>
<!-- 862 -->
<g id="node14" class="node">
<title>862</title>
<ellipse fill="white" stroke="black" cx="420.8" cy="-110.95" rx="21.43" ry="21.43"/>
<text text-anchor="middle" x="420.8" y="-108.75" font-family="Times New Roman,serif" font-size="9.00">862</text>
</g>
<!-- &#45;6&#45;&gt;862 -->
<g id="edge19" class="edge">
<title>&#45;6&#45;&gt;862</title>
<path fill="none" stroke="green" stroke-width="0.32" d="M403.69,-185.87C406.07,-175.62 410.26,-157.49 413.91,-141.75"/>
<polygon fill="green" stroke="green" stroke-width="0.32" points="417.35,-142.39 416.2,-131.86 410.53,-140.81 417.35,-142.39"/>
</g>
<!-- &#45;7 -->
<g id="node7" class="node">
<title>&#45;7</title>
<polygon fill="lightgray" stroke="black" points="483.8,-119.95 459.8,-119.95 459.8,-101.95 483.8,-101.95 483.8,-119.95"/>
<text text-anchor="middle" x="471.8" y="-108.75" font-family="Times New Roman,serif" font-size="9.00">&#45;7</text>
</g>
<!-- &#45;7&#45;&gt;Angle -->
<g id="edge8" class="edge">
<title>&#45;7&#45;&gt;Angle</title>
<path fill="none" stroke="green" stroke-width="0.16" d="M464.7,-101.59C460.91,-97.56 455.98,-92.92 450.8,-89.74 405.94,-62.15 347.09,-44.72 309.85,-35.63"/>
<polygon fill="green" stroke="green" stroke-width="0.16" points="310.48,-32.19 299.94,-33.29 308.87,-39 310.48,-32.19"/>
</g>
<!-- &#45;8 -->
<g id="node8" class="node">
<title>&#45;8</title>
<polygon fill="lightgray" stroke="black" points="365.8,-291.66 341.8,-291.66 341.8,-273.66 365.8,-273.66 365.8,-291.66"/>
<text text-anchor="middle" x="353.8" y="-280.46" font-family="Times New Roman,serif" font-size="9.00">&#45;8</text>
</g>
<!-- &#45;8&#45;&gt;24 -->
<g id="edge9" class="edge">
<title>&#45;8&#45;&gt;24</title>
<path fill="none" stroke="green" stroke-width="0.11" d="M353.8,-273.45C353.8,-262.08 353.8,-240.98 353.8,-223.68"/>
<polygon fill="green" stroke="green" stroke-width="0.11" points="357.3,-223.52 353.8,-213.52 350.3,-223.52 357.3,-223.52"/>
</g>
<!-- 1989&#45;&gt;Speed -->
<g id="edge23" class="edge">
<title>1989&#45;&gt;Speed</title>
<path fill="none" stroke="green" stroke-width="0.3" d="M51.84,-261.36C58.52,-250.96 66.8,-238.08 74.23,-226.51"/>
<polygon fill="green" stroke="green" stroke-width="0.3" points="77.25,-228.29 79.71,-217.98 71.36,-224.5 77.25,-228.29"/>
</g>
<!-- 472&#45;&gt;Angle -->
<g id="edge16" class="edge">
<title>472&#45;&gt;Angle</title>
<path fill="none" stroke="red" stroke-width="0.28" d="M345.65,-95.66C333.21,-83.92 315.3,-67.02 300.47,-53.03"/>
<polygon fill="red" stroke="red" stroke-width="0.28" points="302.72,-50.34 293.04,-46.02 297.92,-55.43 302.72,-50.34"/>
</g>
<!-- 715&#45;&gt;62 -->
<g id="edge18" class="edge">
<title>715&#45;&gt;62</title>
<path fill="none" stroke="red" stroke-width="0.11" d="M282.69,-178.21C272.11,-165.44 257.12,-147.34 245.48,-133.29"/>
<polygon fill="red" stroke="red" stroke-width="0.11" points="248.14,-131.02 239.07,-125.55 242.75,-135.49 248.14,-131.02"/>
</g>
<!-- 862&#45;&gt;Angle -->
<g id="edge20" class="edge">
<title>862&#45;&gt;Angle</title>
<path fill="none" stroke="red" stroke-width="0.31" d="M403.87,-98.09C399.66,-95.26 395.11,-92.32 390.8,-89.74 363.13,-73.17 330.63,-56.17 306.92,-44.19"/>
<polygon fill="red" stroke="red" stroke-width="0.31" points="308.47,-41.06 297.97,-39.7 305.33,-47.31 308.47,-41.06"/>
</g>
<!-- 309&#45;&gt;62 -->
<g id="edge14" class="edge">
<title>309&#45;&gt;62</title>
<path fill="none" stroke="green" stroke-width="0.13" d="M204.91,-174.58C208.92,-163.62 213.98,-149.78 218.32,-137.91"/>
<polygon fill="green" stroke="green" stroke-width="0.13" points="221.61,-139.09 221.76,-128.5 215.04,-136.69 221.61,-139.09"/>
</g>
<!-- 24&#45;&gt;Angle -->
<g id="edge10" class="edge">
<title>24&#45;&gt;Angle</title>
<path fill="none" stroke="red" stroke-width="0.42" stroke-dasharray="1,5" d="M341.02,-181.48C326.33,-166.79 303.5,-143.08 297.8,-132.17 286.77,-111.03 280.77,-84.88 277.53,-64.05"/>
<polygon fill="red" stroke="red" stroke-width="0.42" points="280.97,-63.41 276.11,-54 274.04,-64.39 280.97,-63.41"/>
</g>
<!-- 62&#45;&gt;Angle -->
<g id="edge11" class="edge">
<title>62&#45;&gt;Angle</title>
<path fill="none" stroke="red" stroke-width="0.31" d="M236.46,-94.51C241.97,-84.67 249.32,-71.55 256.04,-59.56"/>
<polygon fill="red" stroke="red" stroke-width="0.31" points="259.18,-61.12 261.02,-50.69 253.08,-57.7 259.18,-61.12"/>
</g>
</g>
</svg>
