<?xml version="1.0" encoding="UTF-8" standalone="no"?>
<!DOCTYPE svg PUBLIC "-//W3C//DTD SVG 1.1//EN"
 "http://www.w3.org/Graphics/SVG/1.1/DTD/svg11.dtd">
<!-- Generated by graphviz version 2.47.0 (20210316.0004)
 -->
<!-- Pages: 1 -->
<svg width="587pt" height="462pt"
 viewBox="0.00 0.00 587.01 462.36" xmlns="http://www.w3.org/2000/svg" xmlns:xlink="http://www.w3.org/1999/xlink">
<g id="graph0" class="graph" transform="scale(1 1) rotate(0) translate(4 458.36)">
<polygon fill="white" stroke="transparent" points="-4,4 -4,-458.36 583.01,-458.36 583.01,4 -4,4"/>
<!-- &#45;1 -->
<g id="node1" class="node">
<title>&#45;1</title>
<polygon fill="lightgray" stroke="black" points="74.51,-442.14 50.51,-442.14 50.51,-424.14 74.51,-424.14 74.51,-442.14"/>
<text text-anchor="middle" x="62.51" y="-430.94" font-family="Times New Roman,serif" font-size="9.00">&#45;1</text>
</g>
<!-- &#45;2 -->
<g id="node2" class="node">
<title>&#45;2</title>
<polygon fill="lightgray" stroke="black" points="288.51,-281.76 264.51,-281.76 264.51,-263.76 288.51,-263.76 288.51,-281.76"/>
<text text-anchor="middle" x="276.51" y="-270.56" font-family="Times New Roman,serif" font-size="9.00">&#45;2</text>
</g>
<!-- 1340 -->
<g id="node18" class="node">
<title>1340</title>
<ellipse fill="white" stroke="black" cx="276.51" cy="-187.26" rx="25" ry="25"/>
<text text-anchor="middle" x="276.51" y="-185.06" font-family="Times New Roman,serif" font-size="9.00">1340</text>
</g>
<!-- &#45;2&#45;&gt;1340 -->
<g id="edge19" class="edge">
<title>&#45;2&#45;&gt;1340</title>
<path fill="none" stroke="green" stroke-width="0.3" d="M276.51,-263.75C276.51,-254.2 276.51,-237.61 276.51,-222.41"/>
<polygon fill="green" stroke="green" stroke-width="0.3" points="280.01,-222.21 276.51,-212.21 273.01,-222.21 280.01,-222.21"/>
</g>
<!-- &#45;3 -->
<g id="node3" class="node">
<title>&#45;3</title>
<polygon fill="lightgray" stroke="black" points="157.51,-281.76 133.51,-281.76 133.51,-263.76 157.51,-263.76 157.51,-281.76"/>
<text text-anchor="middle" x="145.51" y="-270.56" font-family="Times New Roman,serif" font-size="9.00">&#45;3</text>
</g>
<!-- Angle -->
<g id="node10" class="node">
<title>Angle</title>
<ellipse fill="lightblue" stroke="black" cx="223.51" cy="-99.64" rx="26.74" ry="26.74"/>
<text text-anchor="middle" x="223.51" y="-97.44" font-family="Times New Roman,serif" font-size="9.00">Angle</text>
</g>
<!-- &#45;3&#45;&gt;Angle -->
<g id="edge1" class="edge">
<title>&#45;3&#45;&gt;Angle</title>
<path fill="none" stroke="green" stroke-width="0.21" d="M146.15,-263.64C147.91,-244.9 153.89,-197.51 171.51,-162.51 178.09,-149.43 187.95,-136.72 197.32,-126.27"/>
<polygon fill="green" stroke="green" stroke-width="0.21" points="200.08,-128.45 204.33,-118.74 194.96,-123.68 200.08,-128.45"/>
</g>
<!-- 1090 -->
<g id="node11" class="node">
<title>1090</title>
<ellipse fill="white" stroke="black" cx="94.51" cy="-187.26" rx="25" ry="25"/>
<text text-anchor="middle" x="94.51" y="-185.06" font-family="Times New Roman,serif" font-size="9.00">1090</text>
</g>
<!-- &#45;3&#45;&gt;1090 -->
<g id="edge23" class="edge">
<title>&#45;3&#45;&gt;1090</title>
<path fill="none" stroke="red" stroke-width="0.29" d="M140.62,-263.75C134.14,-253.14 122.36,-233.85 112.33,-217.43"/>
<polygon fill="red" stroke="red" stroke-width="0.29" points="115.18,-215.38 106.98,-208.67 109.2,-219.03 115.18,-215.38"/>
</g>
<!-- &#45;4 -->
<g id="node4" class="node">
<title>&#45;4</title>
<polygon fill="lightgray" stroke="black" points="483.51,-363.72 459.51,-363.72 459.51,-345.72 483.51,-345.72 483.51,-363.72"/>
<text text-anchor="middle" x="471.51" y="-352.52" font-family="Times New Roman,serif" font-size="9.00">&#45;4</text>
</g>
<!-- Speed -->
<g id="node9" class="node">
<title>Speed</title>
<ellipse fill="lightblue" stroke="black" cx="447.51" cy="-99.64" rx="26.74" ry="26.74"/>
<text text-anchor="middle" x="447.51" y="-97.44" font-family="Times New Roman,serif" font-size="9.00">Speed</text>
</g>
<!-- &#45;4&#45;&gt;Speed -->
<g id="edge2" class="edge">
<title>&#45;4&#45;&gt;Speed</title>
<path fill="none" stroke="red" stroke-width="0.25" stroke-dasharray="1,5" d="M470.74,-345.58C467.72,-313.82 456.64,-196.92 450.94,-136.83"/>
<polygon fill="red" stroke="red" stroke-width="0.25" points="454.4,-136.28 449.97,-126.65 447.43,-136.94 454.4,-136.28"/>
</g>
<!-- &#45;4&#45;&gt;Angle -->
<g id="edge3" class="edge">
<title>&#45;4&#45;&gt;Angle</title>
<path fill="none" stroke="green" stroke-width="0.16" d="M459.4,-352.3C418.09,-347.19 283.68,-328.45 255.51,-297.5 215.55,-253.63 214.75,-180.28 218.59,-136.57"/>
<polygon fill="green" stroke="green" stroke-width="0.16" points="222.09,-136.7 219.61,-126.4 215.13,-136 222.09,-136.7"/>
</g>
<!-- 48 -->
<g id="node16" class="node">
<title>48</title>
<ellipse fill="white" stroke="black" cx="407.51" cy="-18.38" rx="18.27" ry="18.27"/>
<text text-anchor="middle" x="407.51" y="-16.18" font-family="Times New Roman,serif" font-size="9.00">48</text>
</g>
<!-- &#45;4&#45;&gt;48 -->
<g id="edge8" class="edge">
<title>&#45;4&#45;&gt;48</title>
<path fill="none" stroke="red" stroke-width="0.39" stroke-dasharray="1,5" d="M481.68,-345.6C512.82,-319.72 602.96,-236.45 572.51,-162.51 545.95,-98.02 472.39,-52.32 433.07,-31.7"/>
<polygon fill="red" stroke="red" stroke-width="0.39" points="434.36,-28.43 423.86,-27 431.18,-34.66 434.36,-28.43"/>
</g>
<!-- 370 -->
<g id="node17" class="node">
<title>370</title>
<ellipse fill="white" stroke="black" cx="496.51" cy="-272.76" rx="21.43" ry="21.43"/>
<text text-anchor="middle" x="496.51" y="-270.56" font-family="Times New Roman,serif" font-size="9.00">370</text>
</g>
<!-- &#45;4&#45;&gt;370 -->
<g id="edge9" class="edge">
<title>&#45;4&#45;&gt;370</title>
<path fill="none" stroke="red" stroke-width="0.2" d="M474.09,-345.46C477.19,-335.54 482.57,-318.35 487.28,-303.28"/>
<polygon fill="red" stroke="red" stroke-width="0.2" points="490.75,-303.9 490.39,-293.31 484.07,-301.81 490.75,-303.9"/>
</g>
<!-- &#45;5 -->
<g id="node5" class="node">
<title>&#45;5</title>
<polygon fill="lightgray" stroke="black" points="116.51,-442.14 92.51,-442.14 92.51,-424.14 116.51,-424.14 116.51,-442.14"/>
<text text-anchor="middle" x="104.51" y="-430.94" font-family="Times New Roman,serif" font-size="9.00">&#45;5</text>
</g>
<!-- &#45;5&#45;&gt;Angle -->
<g id="edge4" class="edge">
<title>&#45;5&#45;&gt;Angle</title>
<path fill="none" stroke="green" stroke-width="0.25" stroke-dasharray="1,5" d="M108.72,-424.13C119.41,-403.54 148.09,-346.94 166.51,-297.5 187.19,-241.99 205.08,-175.41 215.06,-135.64"/>
<polygon fill="green" stroke="green" stroke-width="0.25" points="218.47,-136.44 217.49,-125.89 211.68,-134.75 218.47,-136.44"/>
</g>
<!-- 421 -->
<g id="node13" class="node">
<title>421</title>
<ellipse fill="white" stroke="black" cx="22.51" cy="-354.72" rx="21.43" ry="21.43"/>
<text text-anchor="middle" x="22.51" y="-352.52" font-family="Times New Roman,serif" font-size="9.00">421</text>
</g>
<!-- &#45;5&#45;&gt;421 -->
<g id="edge12" class="edge">
<title>&#45;5&#45;&gt;421</title>
<path fill="none" stroke="green" stroke-width="0.32" d="M95.97,-423.84C92.17,-420.17 87.63,-415.82 83.51,-411.93 70.99,-400.14 56.87,-387.11 45.37,-376.57"/>
<polygon fill="green" stroke="green" stroke-width="0.32" points="47.62,-373.89 37.89,-369.72 42.9,-379.05 47.62,-373.89"/>
</g>
<!-- &#45;6 -->
<g id="node6" class="node">
<title>&#45;6</title>
<polygon fill="lightgray" stroke="black" points="381.51,-196.26 357.51,-196.26 357.51,-178.26 381.51,-178.26 381.51,-196.26"/>
<text text-anchor="middle" x="369.51" y="-185.06" font-family="Times New Roman,serif" font-size="9.00">&#45;6</text>
</g>
<!-- &#45;6&#45;&gt;Speed -->
<g id="edge5" class="edge">
<title>&#45;6&#45;&gt;Speed</title>
<path fill="none" stroke="green" stroke-width="0.36" stroke-dasharray="1,5" d="M376.99,-178.05C387.44,-166.58 406.9,-145.21 422.74,-127.83"/>
<polygon fill="green" stroke="green" stroke-width="0.36" points="425.57,-129.92 429.71,-120.17 420.39,-125.21 425.57,-129.92"/>
</g>
<!-- &#45;6&#45;&gt;Angle -->
<g id="edge6" class="edge">
<title>&#45;6&#45;&gt;Angle</title>
<path fill="none" stroke="red" stroke-width="0.18" stroke-dasharray="1,5" d="M361.78,-178.19C356.84,-173.29 350.13,-167.12 343.51,-162.51 316.17,-143.48 282.19,-126.51 257.38,-115.18"/>
<polygon fill="red" stroke="red" stroke-width="0.18" points="258.58,-111.88 248.02,-110.97 255.71,-118.26 258.58,-111.88"/>
</g>
<!-- &#45;7 -->
<g id="node7" class="node">
<title>&#45;7</title>
<polygon fill="lightgray" stroke="black" points="115.51,-281.76 91.51,-281.76 91.51,-263.76 115.51,-263.76 115.51,-281.76"/>
<text text-anchor="middle" x="103.51" y="-270.56" font-family="Times New Roman,serif" font-size="9.00">&#45;7</text>
</g>
<!-- &#45;7&#45;&gt;1090 -->
<g id="edge20" class="edge">
<title>&#45;7&#45;&gt;1090</title>
<path fill="none" stroke="red" stroke-width="0.32" d="M102.64,-263.75C101.62,-254.2 99.83,-237.61 98.19,-222.41"/>
<polygon fill="red" stroke="red" stroke-width="0.32" points="101.64,-221.78 97.09,-212.21 94.68,-222.53 101.64,-221.78"/>
</g>
<!-- &#45;8 -->
<g id="node8" class="node">
<title>&#45;8</title>
<polygon fill="lightgray" stroke="black" points="341.51,-281.76 317.51,-281.76 317.51,-263.76 341.51,-263.76 341.51,-281.76"/>
<text text-anchor="middle" x="329.51" y="-270.56" font-family="Times New Roman,serif" font-size="9.00">&#45;8</text>
</g>
<!-- &#45;8&#45;&gt;Speed -->
<g id="edge7" class="edge">
<title>&#45;8&#45;&gt;Speed</title>
<path fill="none" stroke="red" stroke-width="0.67" stroke-dasharray="1,5" d="M339.57,-263.69C352.53,-252.92 375.22,-232.78 390.51,-212.01 408.31,-187.82 423.5,-157.28 433.72,-134.3"/>
<polygon fill="red" stroke="red" stroke-width="0.67" points="437.01,-135.52 437.79,-124.95 430.59,-132.73 437.01,-135.52"/>
</g>
<!-- &#45;8&#45;&gt;Angle -->
<g id="edge16" class="edge">
<title>&#45;8&#45;&gt;Angle</title>
<path fill="none" stroke="red" stroke-width="0.22" stroke-dasharray="1,5" d="M330.1,-263.62C331.09,-244.41 331.24,-195.41 310.51,-162.51 297.68,-142.16 275.51,-126.55 256.75,-116.09"/>
<polygon fill="red" stroke="red" stroke-width="0.22" points="258.35,-112.98 247.88,-111.38 255.07,-119.16 258.35,-112.98"/>
</g>
<!-- &#45;8&#45;&gt;1340 -->
<g id="edge17" class="edge">
<title>&#45;8&#45;&gt;1340</title>
<path fill="none" stroke="green" stroke-width="0.34" d="M324.43,-263.75C317.69,-253.14 305.45,-233.85 295.02,-217.43"/>
<polygon fill="green" stroke="green" stroke-width="0.34" points="297.78,-215.24 289.47,-208.67 291.87,-218.99 297.78,-215.24"/>
</g>
<!-- Angle&#45;&gt;48 -->
<g id="edge11" class="edge">
<title>Angle&#45;&gt;48</title>
<path fill="none" stroke="green" stroke-width="0.22" d="M247.94,-88.12C282.7,-73.14 346.14,-45.82 381.66,-30.52"/>
<polygon fill="green" stroke="green" stroke-width="0.22" points="383.09,-33.71 390.89,-26.54 380.32,-27.28 383.09,-33.71"/>
</g>
<!-- 1090&#45;&gt;Angle -->
<g id="edge15" class="edge">
<title>1090&#45;&gt;Angle</title>
<path fill="none" stroke="green" stroke-width="0.15" d="M114.66,-172.88C135.62,-158.97 168.67,-137.04 192.86,-120.98"/>
<polygon fill="green" stroke="green" stroke-width="0.15" points="194.94,-123.8 201.33,-115.36 191.06,-117.97 194.94,-123.8"/>
</g>
<!-- 2020 -->
<g id="node12" class="node">
<title>2020</title>
<ellipse fill="white" stroke="black" cx="538.51" cy="-187.26" rx="25" ry="25"/>
<text text-anchor="middle" x="538.51" y="-185.06" font-family="Times New Roman,serif" font-size="9.00">2020</text>
</g>
<!-- 2020&#45;&gt;Speed -->
<g id="edge25" class="edge">
<title>2020&#45;&gt;Speed</title>
<path fill="none" stroke="green" stroke-width="0.35" d="M520.96,-169.75C507.77,-157.34 489.45,-140.1 474.41,-125.95"/>
<polygon fill="green" stroke="green" stroke-width="0.35" points="476.57,-123.18 466.89,-118.88 471.77,-128.28 476.57,-123.18"/>
</g>
<!-- 421&#45;&gt;Angle -->
<g id="edge13" class="edge">
<title>421&#45;&gt;Angle</title>
<path fill="none" stroke="green" stroke-width="0.26" d="M13.94,-335.08C5.32,-313.72 -5.52,-277.81 3.51,-248.01 16.74,-204.3 24.79,-190.97 60.51,-162.51 98.11,-132.55 151.79,-115.95 187.13,-107.67"/>
<polygon fill="green" stroke="green" stroke-width="0.26" points="188.03,-111.05 197.03,-105.45 186.5,-104.22 188.03,-111.05"/>
</g>
<!-- 421&#45;&gt;1090 -->
<g id="edge14" class="edge">
<title>421&#45;&gt;1090</title>
<path fill="none" stroke="green" stroke-width="0.59" stroke-dasharray="1,5" d="M15.41,-334.63C8.43,-312.54 0.65,-275.65 14.51,-248.01 24.63,-227.82 45.17,-212.7 62.9,-202.73"/>
<polygon fill="green" stroke="green" stroke-width="0.59" points="64.66,-205.76 71.85,-197.98 61.38,-199.57 64.66,-205.76"/>
</g>
<!-- 1958 -->
<g id="node14" class="node">
<title>1958</title>
<ellipse fill="white" stroke="black" cx="48.51" cy="-272.76" rx="25" ry="25"/>
<text text-anchor="middle" x="48.51" y="-270.56" font-family="Times New Roman,serif" font-size="9.00">1958</text>
</g>
<!-- 421&#45;&gt;1958 -->
<g id="edge21" class="edge">
<title>421&#45;&gt;1958</title>
<path fill="none" stroke="green" stroke-width="0.3" d="M28.8,-334.36C31.55,-325.92 34.84,-315.8 37.94,-306.26"/>
<polygon fill="green" stroke="green" stroke-width="0.3" points="41.31,-307.22 41.07,-296.63 34.65,-305.05 41.31,-307.22"/>
</g>
<!-- 1958&#45;&gt;1090 -->
<g id="edge22" class="edge">
<title>1958&#45;&gt;1090</title>
<path fill="none" stroke="green" stroke-width="0.59" d="M60.12,-250.69C65.51,-240.9 72.02,-229.08 77.92,-218.37"/>
<polygon fill="green" stroke="green" stroke-width="0.59" points="81.14,-219.77 82.9,-209.32 75.01,-216.39 81.14,-219.77"/>
</g>
<!-- 395 -->
<g id="node15" class="node">
<title>395</title>
<ellipse fill="white" stroke="black" cx="155.51" cy="-433.14" rx="21.43" ry="21.43"/>
<text text-anchor="middle" x="155.51" y="-430.94" font-family="Times New Roman,serif" font-size="9.00">395</text>
</g>
<!-- 370&#45;&gt;Speed -->
<g id="edge10" class="edge">
<title>370&#45;&gt;Speed</title>
<path fill="none" stroke="green" stroke-width="0.35" stroke-dasharray="1,5" d="M490.89,-252.13C482.74,-223.68 467.53,-170.57 457.46,-135.4"/>
<polygon fill="green" stroke="green" stroke-width="0.35" points="460.76,-134.21 454.64,-125.56 454.03,-136.13 460.76,-134.21"/>
</g>
<!-- 370&#45;&gt;2020 -->
<g id="edge24" class="edge">
<title>370&#45;&gt;2020</title>
<path fill="none" stroke="green" stroke-width="0.3" d="M505.83,-253.23C510.94,-243.07 517.4,-230.22 523.23,-218.63"/>
<polygon fill="green" stroke="green" stroke-width="0.3" points="526.36,-220.19 527.73,-209.69 520.11,-217.05 526.36,-220.19"/>
</g>
<!-- 1340&#45;&gt;Angle -->
<g id="edge18" class="edge">
<title>1340&#45;&gt;Angle</title>
<path fill="none" stroke="red" stroke-width="0.23" d="M263.68,-165.53C257.39,-155.38 249.69,-142.94 242.73,-131.69"/>
<polygon fill="red" stroke="red" stroke-width="0.23" points="245.57,-129.63 237.33,-122.97 239.62,-133.32 245.57,-129.63"/>
</g>
</g>
</svg>
