<?xml version="1.0" encoding="UTF-8" standalone="no"?>
<!DOCTYPE svg PUBLIC "-//W3C//DTD SVG 1.1//EN"
 "http://www.w3.org/Graphics/SVG/1.1/DTD/svg11.dtd">
<!-- Generated by graphviz version 2.47.0 (20210316.0004)
 -->
<!-- Pages: 1 -->
<svg width="372pt" height="287pt"
 viewBox="0.00 0.00 372.50 286.74" xmlns="http://www.w3.org/2000/svg" xmlns:xlink="http://www.w3.org/1999/xlink">
<g id="graph0" class="graph" transform="scale(1 1) rotate(0) translate(4 282.74)">
<polygon fill="white" stroke="transparent" points="-4,4 -4,-282.74 368.5,-282.74 368.5,4 -4,4"/>
<!-- &#45;1 -->
<g id="node1" class="node">
<title>&#45;1</title>
<polygon fill="lightgray" stroke="black" points="106.75,-208.99 82.75,-208.99 82.75,-190.99 106.75,-190.99 106.75,-208.99"/>
<text text-anchor="middle" x="94.75" y="-197.79" font-family="Times New Roman,serif" font-size="9.00">&#45;1</text>
</g>
<!-- Angle -->
<g id="node10" class="node">
<title>Angle</title>
<ellipse fill="lightblue" stroke="black" cx="94.75" cy="-112.37" rx="26.74" ry="26.74"/>
<text text-anchor="middle" x="94.75" y="-110.17" font-family="Times New Roman,serif" font-size="9.00">Angle</text>
</g>
<!-- &#45;1&#45;&gt;Angle -->
<g id="edge1" class="edge">
<title>&#45;1&#45;&gt;Angle</title>
<path fill="none" stroke="red" stroke-width="0.61" d="M94.75,-190.78C94.75,-181.25 94.75,-164.91 94.75,-149.69"/>
<polygon fill="red" stroke="red" stroke-width="0.61" points="98.25,-149.43 94.75,-139.43 91.25,-149.43 98.25,-149.43"/>
</g>
<!-- &#45;2 -->
<g id="node2" class="node">
<title>&#45;2</title>
<polygon fill="lightgray" stroke="black" points="245.75,-278.74 221.75,-278.74 221.75,-260.74 245.75,-260.74 245.75,-278.74"/>
<text text-anchor="middle" x="233.75" y="-267.54" font-family="Times New Roman,serif" font-size="9.00">&#45;2</text>
</g>
<!-- &#45;3 -->
<g id="node3" class="node">
<title>&#45;3</title>
<polygon fill="lightgray" stroke="black" points="203.75,-278.74 179.75,-278.74 179.75,-260.74 203.75,-260.74 203.75,-278.74"/>
<text text-anchor="middle" x="191.75" y="-267.54" font-family="Times New Roman,serif" font-size="9.00">&#45;3</text>
</g>
<!-- Speed -->
<g id="node9" class="node">
<title>Speed</title>
<ellipse fill="lightblue" stroke="black" cx="189.75" cy="-112.37" rx="26.74" ry="26.74"/>
<text text-anchor="middle" x="189.75" y="-110.17" font-family="Times New Roman,serif" font-size="9.00">Speed</text>
</g>
<!-- &#45;3&#45;&gt;Speed -->
<g id="edge7" class="edge">
<title>&#45;3&#45;&gt;Speed</title>
<path fill="none" stroke="red" stroke-width="0.23" stroke-dasharray="1,5" d="M200.72,-260.67C209.02,-252.55 220.82,-239.17 225.75,-224.74 232.86,-203.92 231.48,-196.48 225.75,-175.24 222.7,-163.94 217.02,-152.58 211.06,-142.73"/>
<polygon fill="red" stroke="red" stroke-width="0.23" points="213.92,-140.7 205.58,-134.16 208.02,-144.47 213.92,-140.7"/>
</g>
<!-- &#45;3&#45;&gt;Angle -->
<g id="edge2" class="edge">
<title>&#45;3&#45;&gt;Angle</title>
<path fill="none" stroke="green" stroke-width="0.74" d="M179.37,-268.42C154.38,-267.03 98.19,-259.93 73.75,-224.74 57.57,-201.44 66.27,-169.07 76.96,-145.23"/>
<polygon fill="green" stroke="green" stroke-width="0.74" points="80.26,-146.44 81.43,-135.91 73.95,-143.41 80.26,-146.44"/>
</g>
<!-- 7048 -->
<g id="node13" class="node">
<title>7048</title>
<ellipse fill="white" stroke="black" cx="191.75" cy="-199.99" rx="25" ry="25"/>
<text text-anchor="middle" x="191.75" y="-197.79" font-family="Times New Roman,serif" font-size="9.00">7048</text>
</g>
<!-- &#45;3&#45;&gt;7048 -->
<g id="edge13" class="edge">
<title>&#45;3&#45;&gt;7048</title>
<path fill="none" stroke="red" stroke-width="0.57" d="M191.75,-260.7C191.75,-254.26 191.75,-244.76 191.75,-235.23"/>
<polygon fill="red" stroke="red" stroke-width="0.57" points="195.25,-235.01 191.75,-225.01 188.25,-235.01 195.25,-235.01"/>
</g>
<!-- &#45;4 -->
<g id="node4" class="node">
<title>&#45;4</title>
<polygon fill="lightgray" stroke="black" points="26.75,-208.99 2.75,-208.99 2.75,-190.99 26.75,-190.99 26.75,-208.99"/>
<text text-anchor="middle" x="14.75" y="-197.79" font-family="Times New Roman,serif" font-size="9.00">&#45;4</text>
</g>
<!-- &#45;4&#45;&gt;Angle -->
<g id="edge3" class="edge">
<title>&#45;4&#45;&gt;Angle</title>
<path fill="none" stroke="red" stroke-width="0.45" d="M22.42,-190.78C33.2,-179.23 53.35,-157.67 69.65,-140.23"/>
<polygon fill="red" stroke="red" stroke-width="0.45" points="72.55,-142.25 76.82,-132.55 67.44,-137.47 72.55,-142.25"/>
</g>
<!-- &#45;5 -->
<g id="node5" class="node">
<title>&#45;5</title>
<polygon fill="lightgray" stroke="black" points="287.75,-278.74 263.75,-278.74 263.75,-260.74 287.75,-260.74 287.75,-278.74"/>
<text text-anchor="middle" x="275.75" y="-267.54" font-family="Times New Roman,serif" font-size="9.00">&#45;5</text>
</g>
<!-- &#45;6 -->
<g id="node6" class="node">
<title>&#45;6</title>
<polygon fill="lightgray" stroke="black" points="298.75,-208.99 274.75,-208.99 274.75,-190.99 298.75,-190.99 298.75,-208.99"/>
<text text-anchor="middle" x="286.75" y="-197.79" font-family="Times New Roman,serif" font-size="9.00">&#45;6</text>
</g>
<!-- &#45;6&#45;&gt;Speed -->
<g id="edge6" class="edge">
<title>&#45;6&#45;&gt;Speed</title>
<path fill="none" stroke="green" stroke-width="0.35" stroke-dasharray="1,5" d="M277.45,-190.78C263.72,-178.66 237.47,-155.49 217.25,-137.64"/>
<polygon fill="green" stroke="green" stroke-width="0.35" points="219.37,-134.85 209.56,-130.86 214.74,-140.1 219.37,-134.85"/>
</g>
<!-- 6209 -->
<g id="node11" class="node">
<title>6209</title>
<ellipse fill="white" stroke="black" cx="286.75" cy="-24.75" rx="25" ry="25"/>
<text text-anchor="middle" x="286.75" y="-22.55" font-family="Times New Roman,serif" font-size="9.00">6209</text>
</g>
<!-- &#45;6&#45;&gt;6209 -->
<g id="edge10" class="edge">
<title>&#45;6&#45;&gt;6209</title>
<path fill="none" stroke="red" stroke-width="0.58" stroke-dasharray="1,5" d="M286.75,-190.63C286.75,-167.38 286.75,-100.92 286.75,-59.83"/>
<polygon fill="red" stroke="red" stroke-width="0.58" points="290.25,-59.72 286.75,-49.72 283.25,-59.72 290.25,-59.72"/>
</g>
<!-- 7346 -->
<g id="node14" class="node">
<title>7346</title>
<ellipse fill="white" stroke="black" cx="339.75" cy="-112.37" rx="25" ry="25"/>
<text text-anchor="middle" x="339.75" y="-110.17" font-family="Times New Roman,serif" font-size="9.00">7346</text>
</g>
<!-- &#45;6&#45;&gt;7346 -->
<g id="edge15" class="edge">
<title>&#45;6&#45;&gt;7346</title>
<path fill="none" stroke="green" stroke-width="0.41" d="M291.83,-190.78C298.67,-179.73 311.2,-159.49 321.72,-142.48"/>
<polygon fill="green" stroke="green" stroke-width="0.41" points="324.72,-144.29 327.01,-133.95 318.77,-140.61 324.72,-144.29"/>
</g>
<!-- &#45;7 -->
<g id="node7" class="node">
<title>&#45;7</title>
<polygon fill="lightgray" stroke="black" points="148.75,-208.99 124.75,-208.99 124.75,-190.99 148.75,-190.99 148.75,-208.99"/>
<text text-anchor="middle" x="136.75" y="-197.79" font-family="Times New Roman,serif" font-size="9.00">&#45;7</text>
</g>
<!-- &#45;7&#45;&gt;Speed -->
<g id="edge4" class="edge">
<title>&#45;7&#45;&gt;Speed</title>
<path fill="none" stroke="green" stroke-width="0.72" stroke-dasharray="1,5" d="M141.83,-190.78C148.39,-180.18 160.17,-161.14 170.42,-144.6"/>
<polygon fill="green" stroke="green" stroke-width="0.72" points="173.62,-146.08 175.9,-135.73 167.66,-142.39 173.62,-146.08"/>
</g>
<!-- &#45;7&#45;&gt;Angle -->
<g id="edge5" class="edge">
<title>&#45;7&#45;&gt;Angle</title>
<path fill="none" stroke="red" stroke-width="0.77" stroke-dasharray="1,5" d="M132.72,-190.78C127.68,-180.49 118.72,-162.24 110.78,-146.05"/>
<polygon fill="red" stroke="red" stroke-width="0.77" points="113.8,-144.26 106.26,-136.83 107.52,-147.34 113.8,-144.26"/>
</g>
<!-- &#45;8 -->
<g id="node8" class="node">
<title>&#45;8</title>
<polygon fill="lightgray" stroke="black" points="258.75,-121.37 234.75,-121.37 234.75,-103.37 258.75,-103.37 258.75,-121.37"/>
<text text-anchor="middle" x="246.75" y="-110.17" font-family="Times New Roman,serif" font-size="9.00">&#45;8</text>
</g>
<!-- &#45;8&#45;&gt;6209 -->
<g id="edge11" class="edge">
<title>&#45;8&#45;&gt;6209</title>
<path fill="none" stroke="green" stroke-width="0.11" d="M250.58,-103.16C255.55,-92.52 264.5,-73.37 272.25,-56.78"/>
<polygon fill="green" stroke="green" stroke-width="0.11" points="275.57,-57.94 276.64,-47.4 269.23,-54.97 275.57,-57.94"/>
</g>
<!-- 5510 -->
<g id="node12" class="node">
<title>5510</title>
<ellipse fill="white" stroke="black" cx="94.75" cy="-24.75" rx="25" ry="25"/>
<text text-anchor="middle" x="94.75" y="-22.55" font-family="Times New Roman,serif" font-size="9.00">5510</text>
</g>
<!-- &#45;8&#45;&gt;5510 -->
<g id="edge8" class="edge">
<title>&#45;8&#45;&gt;5510</title>
<path fill="none" stroke="red" stroke-width="0.18" d="M241.67,-103.3C237.83,-97.73 232.15,-90.45 225.75,-85.5 195.99,-62.48 155.94,-45.87 127.99,-36.1"/>
<polygon fill="red" stroke="red" stroke-width="0.18" points="128.87,-32.7 118.28,-32.8 126.62,-39.33 128.87,-32.7"/>
</g>
<!-- Angle&#45;&gt;5510 -->
<g id="edge12" class="edge">
<title>Angle&#45;&gt;5510</title>
<path fill="none" stroke="red" stroke-width="0.17" d="M94.75,-85.21C94.75,-77.17 94.75,-68.2 94.75,-59.72"/>
<polygon fill="red" stroke="red" stroke-width="0.17" points="98.25,-59.7 94.75,-49.7 91.25,-59.7 98.25,-59.7"/>
</g>
<!-- 7048&#45;&gt;Speed -->
<g id="edge14" class="edge">
<title>7048&#45;&gt;Speed</title>
<path fill="none" stroke="red" stroke-width="0.12" d="M191.19,-175.14C191.01,-167.26 190.8,-158.3 190.6,-149.71"/>
<polygon fill="red" stroke="red" stroke-width="0.12" points="194.09,-149.41 190.36,-139.49 187.09,-149.57 194.09,-149.41"/>
</g>
<!-- 7346&#45;&gt;6209 -->
<g id="edge16" class="edge">
<title>7346&#45;&gt;6209</title>
<path fill="none" stroke="red" stroke-width="0.17" d="M326.92,-90.64C320.28,-79.91 312.06,-66.64 304.79,-54.9"/>
<polygon fill="red" stroke="red" stroke-width="0.17" points="307.7,-52.94 299.46,-46.28 301.75,-56.63 307.7,-52.94"/>
</g>
<!-- 6165 -->
<g id="node15" class="node">
<title>6165</title>
<ellipse fill="white" stroke="black" cx="24.75" cy="-112.37" rx="25" ry="25"/>
<text text-anchor="middle" x="24.75" y="-110.17" font-family="Times New Roman,serif" font-size="9.00">6165</text>
</g>
<!-- 6165&#45;&gt;5510 -->
<g id="edge9" class="edge">
<title>6165&#45;&gt;5510</title>
<path fill="none" stroke="green" stroke-width="0.25" d="M39.94,-92.79C49.59,-80.98 62.25,-65.5 72.97,-52.39"/>
<polygon fill="green" stroke="green" stroke-width="0.25" points="75.73,-54.54 79.35,-44.59 70.31,-50.11 75.73,-54.54"/>
</g>
</g>
</svg>
