<?xml version="1.0" encoding="UTF-8" standalone="no"?>
<!DOCTYPE svg PUBLIC "-//W3C//DTD SVG 1.1//EN"
 "http://www.w3.org/Graphics/SVG/1.1/DTD/svg11.dtd">
<!-- Generated by graphviz version 2.47.0 (20210316.0004)
 -->
<!-- Pages: 1 -->
<svg width="848pt" height="821pt"
 viewBox="0.00 0.00 847.96 821.32" xmlns="http://www.w3.org/2000/svg" xmlns:xlink="http://www.w3.org/1999/xlink">
<g id="graph0" class="graph" transform="scale(1 1) rotate(0) translate(4 817.32)">
<polygon fill="white" stroke="transparent" points="-4,4 -4,-817.32 843.96,-817.32 843.96,4 -4,4"/>
<!-- &#45;1 -->
<g id="node1" class="node">
<title>&#45;1</title>
<polygon fill="lightgray" stroke="black" points="349.75,-797.57 325.75,-797.57 325.75,-779.57 349.75,-779.57 349.75,-797.57"/>
<text text-anchor="middle" x="337.75" y="-786.37" font-family="Times New Roman,serif" font-size="9.00">&#45;1</text>
</g>
<!-- Speed -->
<g id="node9" class="node">
<title>Speed</title>
<ellipse fill="lightblue" stroke="black" cx="297.75" cy="-190.79" rx="26.74" ry="26.74"/>
<text text-anchor="middle" x="297.75" y="-188.59" font-family="Times New Roman,serif" font-size="9.00">Speed</text>
</g>
<!-- &#45;1&#45;&gt;Speed -->
<g id="edge1" class="edge">
<title>&#45;1&#45;&gt;Speed</title>
<path fill="none" stroke="green" stroke-width="0.19" stroke-dasharray="1,5" d="M349.86,-783.78C391.57,-769.88 526.75,-717.59 526.75,-623.52 526.75,-623.52 526.75,-623.52 526.75,-362.91 526.75,-267.75 398.28,-219.14 333.79,-200.74"/>
<polygon fill="green" stroke="green" stroke-width="0.19" points="334.59,-197.33 324.02,-198.04 332.73,-204.08 334.59,-197.33"/>
</g>
<!-- 717 -->
<g id="node25" class="node">
<title>717</title>
<ellipse fill="white" stroke="black" cx="269.75" cy="-706.61" rx="21.43" ry="21.43"/>
<text text-anchor="middle" x="269.75" y="-704.41" font-family="Times New Roman,serif" font-size="9.00">717</text>
</g>
<!-- &#45;1&#45;&gt;717 -->
<g id="edge10" class="edge">
<title>&#45;1&#45;&gt;717</title>
<path fill="none" stroke="green" stroke-width="0.37" stroke-dasharray="1,5" d="M330.73,-779.31C321.19,-768.1 303.75,-747.59 289.96,-731.38"/>
<polygon fill="green" stroke="green" stroke-width="0.37" points="292.29,-728.71 283.14,-723.36 286.95,-733.24 292.29,-728.71"/>
</g>
<!-- 602 -->
<g id="node29" class="node">
<title>602</title>
<ellipse fill="white" stroke="black" cx="356.75" cy="-622.52" rx="21.43" ry="21.43"/>
<text text-anchor="middle" x="356.75" y="-620.32" font-family="Times New Roman,serif" font-size="9.00">602</text>
</g>
<!-- &#45;1&#45;&gt;602 -->
<g id="edge7" class="edge">
<title>&#45;1&#45;&gt;602</title>
<path fill="none" stroke="green" stroke-width="0.45" d="M338.72,-779.21C341.36,-756.41 348.78,-692.3 353.24,-653.83"/>
<polygon fill="green" stroke="green" stroke-width="0.45" points="356.74,-654.05 354.41,-643.71 349.78,-653.24 356.74,-654.05"/>
</g>
<!-- 1635 -->
<g id="node32" class="node">
<title>1635</title>
<ellipse fill="white" stroke="black" cx="283.75" cy="-622.52" rx="25" ry="25"/>
<text text-anchor="middle" x="283.75" y="-620.32" font-family="Times New Roman,serif" font-size="9.00">1635</text>
</g>
<!-- &#45;1&#45;&gt;1635 -->
<g id="edge34" class="edge">
<title>&#45;1&#45;&gt;1635</title>
<path fill="none" stroke="red" stroke-width="0.4" d="M335,-779.21C327.64,-756.85 307.2,-694.77 294.47,-656.09"/>
<polygon fill="red" stroke="red" stroke-width="0.4" points="297.71,-654.74 291.26,-646.33 291.06,-656.93 297.71,-654.74"/>
</g>
<!-- &#45;2 -->
<g id="node2" class="node">
<title>&#45;2</title>
<polygon fill="lightgray" stroke="black" points="659.75,-715.61 635.75,-715.61 635.75,-697.61 659.75,-697.61 659.75,-715.61"/>
<text text-anchor="middle" x="647.75" y="-704.41" font-family="Times New Roman,serif" font-size="9.00">&#45;2</text>
</g>
<!-- Angle -->
<g id="node10" class="node">
<title>Angle</title>
<ellipse fill="lightblue" stroke="black" cx="581.75" cy="-622.52" rx="26.74" ry="26.74"/>
<text text-anchor="middle" x="581.75" y="-620.32" font-family="Times New Roman,serif" font-size="9.00">Angle</text>
</g>
<!-- &#45;2&#45;&gt;Angle -->
<g id="edge2" class="edge">
<title>&#45;2&#45;&gt;Angle</title>
<path fill="none" stroke="green" stroke-width="0.14" stroke-dasharray="1,5" d="M641.18,-697.44C632.74,-686.94 617.64,-668.16 604.77,-652.16"/>
<polygon fill="green" stroke="green" stroke-width="0.14" points="607.29,-649.7 598.3,-644.1 601.84,-654.09 607.29,-649.7"/>
</g>
<!-- 448 -->
<g id="node24" class="node">
<title>448</title>
<ellipse fill="white" stroke="black" cx="647.75" cy="-622.52" rx="21.43" ry="21.43"/>
<text text-anchor="middle" x="647.75" y="-620.32" font-family="Times New Roman,serif" font-size="9.00">448</text>
</g>
<!-- &#45;2&#45;&gt;448 -->
<g id="edge19" class="edge">
<title>&#45;2&#45;&gt;448</title>
<path fill="none" stroke="green" stroke-width="0.38" stroke-dasharray="1,5" d="M647.75,-697.44C647.75,-687.35 647.75,-669.64 647.75,-654.07"/>
<polygon fill="green" stroke="green" stroke-width="0.38" points="651.25,-653.76 647.75,-643.76 644.25,-653.76 651.25,-653.76"/>
</g>
<!-- 1363 -->
<g id="node27" class="node">
<title>1363</title>
<ellipse fill="white" stroke="black" cx="711.75" cy="-622.52" rx="25" ry="25"/>
<text text-anchor="middle" x="711.75" y="-620.32" font-family="Times New Roman,serif" font-size="9.00">1363</text>
</g>
<!-- &#45;2&#45;&gt;1363 -->
<g id="edge26" class="edge">
<title>&#45;2&#45;&gt;1363</title>
<path fill="none" stroke="red" stroke-width="0.46" d="M654.12,-697.44C662.57,-686.59 677.92,-666.92 690.64,-650.59"/>
<polygon fill="red" stroke="red" stroke-width="0.46" points="693.62,-652.46 697.01,-642.42 688.1,-648.16 693.62,-652.46"/>
</g>
<!-- &#45;3 -->
<g id="node3" class="node">
<title>&#45;3</title>
<polygon fill="lightgray" stroke="black" points="227.75,-199.79 203.75,-199.79 203.75,-181.79 227.75,-181.79 227.75,-199.79"/>
<text text-anchor="middle" x="215.75" y="-188.59" font-family="Times New Roman,serif" font-size="9.00">&#45;3</text>
</g>
<!-- 270 -->
<g id="node16" class="node">
<title>270</title>
<ellipse fill="white" stroke="black" cx="175.75" cy="-103.18" rx="21.43" ry="21.43"/>
<text text-anchor="middle" x="175.75" y="-100.98" font-family="Times New Roman,serif" font-size="9.00">270</text>
</g>
<!-- &#45;3&#45;&gt;270 -->
<g id="edge6" class="edge">
<title>&#45;3&#45;&gt;270</title>
<path fill="none" stroke="green" stroke-width="0.25" d="M211.91,-181.58C206.6,-170.21 196.74,-149.11 188.66,-131.81"/>
<polygon fill="green" stroke="green" stroke-width="0.25" points="191.8,-130.25 184.39,-122.68 185.45,-133.22 191.8,-130.25"/>
</g>
<!-- &#45;4 -->
<g id="node4" class="node">
<title>&#45;4</title>
<polygon fill="lightgray" stroke="black" points="108.75,-372.91 84.75,-372.91 84.75,-354.91 108.75,-354.91 108.75,-372.91"/>
<text text-anchor="middle" x="96.75" y="-361.71" font-family="Times New Roman,serif" font-size="9.00">&#45;4</text>
</g>
<!-- 977 -->
<g id="node26" class="node">
<title>977</title>
<ellipse fill="white" stroke="black" cx="126.75" cy="-278.41" rx="21.43" ry="21.43"/>
<text text-anchor="middle" x="126.75" y="-276.21" font-family="Times New Roman,serif" font-size="9.00">977</text>
</g>
<!-- &#45;4&#45;&gt;977 -->
<g id="edge14" class="edge">
<title>&#45;4&#45;&gt;977</title>
<path fill="none" stroke="green" stroke-width="0.13" d="M99.63,-354.9C103.44,-344.29 110.37,-324.99 116.28,-308.56"/>
<polygon fill="green" stroke="green" stroke-width="0.13" points="119.7,-309.39 119.78,-298.8 113.11,-307.03 119.7,-309.39"/>
</g>
<!-- 748 -->
<g id="node36" class="node">
<title>748</title>
<ellipse fill="white" stroke="black" cx="66.75" cy="-278.41" rx="21.43" ry="21.43"/>
<text text-anchor="middle" x="66.75" y="-276.21" font-family="Times New Roman,serif" font-size="9.00">748</text>
</g>
<!-- &#45;4&#45;&gt;748 -->
<g id="edge12" class="edge">
<title>&#45;4&#45;&gt;748</title>
<path fill="none" stroke="green" stroke-width="0.21" d="M93.87,-354.9C90.06,-344.29 83.12,-324.99 77.22,-308.56"/>
<polygon fill="green" stroke="green" stroke-width="0.21" points="80.39,-307.03 73.71,-298.8 73.8,-309.39 80.39,-307.03"/>
</g>
<!-- &#45;5 -->
<g id="node5" class="node">
<title>&#45;5</title>
<polygon fill="lightgray" stroke="black" points="635.75,-797.57 611.75,-797.57 611.75,-779.57 635.75,-779.57 635.75,-797.57"/>
<text text-anchor="middle" x="623.75" y="-786.37" font-family="Times New Roman,serif" font-size="9.00">&#45;5</text>
</g>
<!-- &#45;6 -->
<g id="node6" class="node">
<title>&#45;6</title>
<polygon fill="lightgray" stroke="black" points="677.75,-797.57 653.75,-797.57 653.75,-779.57 677.75,-779.57 677.75,-797.57"/>
<text text-anchor="middle" x="665.75" y="-786.37" font-family="Times New Roman,serif" font-size="9.00">&#45;6</text>
</g>
<!-- &#45;7 -->
<g id="node7" class="node">
<title>&#45;7</title>
<polygon fill="lightgray" stroke="black" points="593.75,-797.57 569.75,-797.57 569.75,-779.57 593.75,-779.57 593.75,-797.57"/>
<text text-anchor="middle" x="581.75" y="-786.37" font-family="Times New Roman,serif" font-size="9.00">&#45;7</text>
</g>
<!-- 219 -->
<g id="node30" class="node">
<title>219</title>
<ellipse fill="white" stroke="black" cx="581.75" cy="-706.61" rx="21.43" ry="21.43"/>
<text text-anchor="middle" x="581.75" y="-704.41" font-family="Times New Roman,serif" font-size="9.00">219</text>
</g>
<!-- &#45;7&#45;&gt;219 -->
<g id="edge3" class="edge">
<title>&#45;7&#45;&gt;219</title>
<path fill="none" stroke="red" stroke-width="0.11" d="M581.75,-779.31C581.75,-769.68 581.75,-753.19 581.75,-738.45"/>
<polygon fill="red" stroke="red" stroke-width="0.11" points="585.25,-738.15 581.75,-728.15 578.25,-738.15 585.25,-738.15"/>
</g>
<!-- &#45;8 -->
<g id="node8" class="node">
<title>&#45;8</title>
<polygon fill="lightgray" stroke="black" points="719.75,-797.57 695.75,-797.57 695.75,-779.57 719.75,-779.57 719.75,-797.57"/>
<text text-anchor="middle" x="707.75" y="-786.37" font-family="Times New Roman,serif" font-size="9.00">&#45;8</text>
</g>
<!-- Speed&#45;&gt;270 -->
<g id="edge25" class="edge">
<title>Speed&#45;&gt;270</title>
<path fill="none" stroke="red" stroke-width="0.19" stroke-dasharray="1,5" d="M276.22,-174.68C255.2,-159.94 223.23,-137.5 201.02,-121.91"/>
<polygon fill="red" stroke="red" stroke-width="0.19" points="202.94,-118.98 192.74,-116.1 198.92,-124.71 202.94,-118.98"/>
</g>
<!-- 1250 -->
<g id="node31" class="node">
<title>1250</title>
<ellipse fill="white" stroke="black" cx="581.75" cy="-534.91" rx="25" ry="25"/>
<text text-anchor="middle" x="581.75" y="-532.71" font-family="Times New Roman,serif" font-size="9.00">1250</text>
</g>
<!-- Angle&#45;&gt;1250 -->
<g id="edge40" class="edge">
<title>Angle&#45;&gt;1250</title>
<path fill="none" stroke="red" stroke-width="0.3" d="M581.75,-595.37C581.75,-587.33 581.75,-578.36 581.75,-569.87"/>
<polygon fill="red" stroke="red" stroke-width="0.3" points="585.25,-569.86 581.75,-559.86 578.25,-569.86 585.25,-569.86"/>
</g>
<!-- 256 -->
<g id="node11" class="node">
<title>256</title>
<ellipse fill="white" stroke="black" cx="383.75" cy="-534.91" rx="21.43" ry="21.43"/>
<text text-anchor="middle" x="383.75" y="-532.71" font-family="Times New Roman,serif" font-size="9.00">256</text>
</g>
<!-- 256&#45;&gt;Speed -->
<g id="edge5" class="edge">
<title>256&#45;&gt;Speed</title>
<path fill="none" stroke="red" stroke-width="0.23" stroke-dasharray="1,5" d="M377.04,-514.34C367.67,-486.6 350.51,-434.15 338.75,-388.66 324.32,-332.81 311.43,-267.04 304.11,-227.43"/>
<polygon fill="red" stroke="red" stroke-width="0.23" points="307.53,-226.66 302.29,-217.46 300.65,-227.92 307.53,-226.66"/>
</g>
<!-- 1025 -->
<g id="node12" class="node">
<title>1025</title>
<ellipse fill="white" stroke="black" cx="473.75" cy="-449.41" rx="25" ry="25"/>
<text text-anchor="middle" x="473.75" y="-447.21" font-family="Times New Roman,serif" font-size="9.00">1025</text>
</g>
<!-- 256&#45;&gt;1025 -->
<g id="edge17" class="edge">
<title>256&#45;&gt;1025</title>
<path fill="none" stroke="green" stroke-width="0.15" d="M399.02,-519.74C412.55,-507.19 432.58,-488.61 448.49,-473.84"/>
<polygon fill="green" stroke="green" stroke-width="0.15" points="450.98,-476.31 455.93,-466.94 446.22,-471.18 450.98,-476.31"/>
</g>
<!-- 1825 -->
<g id="node19" class="node">
<title>1825</title>
<ellipse fill="white" stroke="black" cx="266.75" cy="-363.91" rx="25" ry="25"/>
<text text-anchor="middle" x="266.75" y="-361.71" font-family="Times New Roman,serif" font-size="9.00">1825</text>
</g>
<!-- 256&#45;&gt;1825 -->
<g id="edge41" class="edge">
<title>256&#45;&gt;1825</title>
<path fill="none" stroke="red" stroke-width="0.15" d="M364.77,-524.64C346.16,-514.63 318.25,-497 301.75,-474.16 285.57,-451.76 276.65,-421.55 271.87,-398.57"/>
<polygon fill="red" stroke="red" stroke-width="0.15" points="275.27,-397.74 269.95,-388.58 268.4,-399.06 275.27,-397.74"/>
</g>
<!-- 1638 -->
<g id="node33" class="node">
<title>1638</title>
<ellipse fill="white" stroke="black" cx="406.75" cy="-449.41" rx="25" ry="25"/>
<text text-anchor="middle" x="406.75" y="-447.21" font-family="Times New Roman,serif" font-size="9.00">1638</text>
</g>
<!-- 256&#45;&gt;1638 -->
<g id="edge36" class="edge">
<title>256&#45;&gt;1638</title>
<path fill="none" stroke="green" stroke-width="0.29" d="M389.2,-514.12C391.74,-504.91 394.82,-493.71 397.69,-483.28"/>
<polygon fill="green" stroke="green" stroke-width="0.29" points="401.08,-484.18 400.36,-473.61 394.33,-482.32 401.08,-484.18"/>
</g>
<!-- 1768 -->
<g id="node34" class="node">
<title>1768</title>
<ellipse fill="white" stroke="black" cx="579.75" cy="-449.41" rx="25" ry="25"/>
<text text-anchor="middle" x="579.75" y="-447.21" font-family="Times New Roman,serif" font-size="9.00">1768</text>
</g>
<!-- 256&#45;&gt;1768 -->
<g id="edge38" class="edge">
<title>256&#45;&gt;1768</title>
<path fill="none" stroke="red" stroke-width="0.49" d="M402.9,-525.75C436.61,-511.39 506.85,-481.46 547.94,-463.96"/>
<polygon fill="red" stroke="red" stroke-width="0.49" points="549.4,-467.14 557.23,-460 546.66,-460.7 549.4,-467.14"/>
</g>
<!-- 1392 -->
<g id="node37" class="node">
<title>1392</title>
<ellipse fill="white" stroke="black" cx="372.75" cy="-363.91" rx="25" ry="25"/>
<text text-anchor="middle" x="372.75" y="-361.71" font-family="Times New Roman,serif" font-size="9.00">1392</text>
</g>
<!-- 256&#45;&gt;1392 -->
<g id="edge27" class="edge">
<title>256&#45;&gt;1392</title>
<path fill="none" stroke="red" stroke-width="0.34" stroke-dasharray="1,5" d="M379.17,-514.11C376.73,-502.54 373.98,-487.6 372.75,-474.16 370.45,-449 370.55,-420.44 371.16,-398.84"/>
<polygon fill="red" stroke="red" stroke-width="0.34" points="374.66,-398.95 371.5,-388.84 367.67,-398.71 374.66,-398.95"/>
</g>
<!-- 1266 -->
<g id="node38" class="node">
<title>1266</title>
<ellipse fill="white" stroke="black" cx="617.75" cy="-278.41" rx="25" ry="25"/>
<text text-anchor="middle" x="617.75" y="-276.21" font-family="Times New Roman,serif" font-size="9.00">1266</text>
</g>
<!-- 256&#45;&gt;1266 -->
<g id="edge23" class="edge">
<title>256&#45;&gt;1266</title>
<path fill="none" stroke="green" stroke-width="0.22" d="M404.76,-530.82C455.28,-523.05 581.73,-501.31 613.75,-474.16 661.29,-433.84 667.69,-399.42 651.75,-339.16 648.83,-328.14 643.36,-317.03 637.65,-307.43"/>
<polygon fill="green" stroke="green" stroke-width="0.22" points="640.46,-305.33 632.17,-298.74 634.54,-309.07 640.46,-305.33"/>
</g>
<!-- 903 -->
<g id="node13" class="node">
<title>903</title>
<ellipse fill="white" stroke="black" cx="775.75" cy="-622.52" rx="21.43" ry="21.43"/>
<text text-anchor="middle" x="775.75" y="-620.32" font-family="Times New Roman,serif" font-size="9.00">903</text>
</g>
<!-- 1162 -->
<g id="node15" class="node">
<title>1162</title>
<ellipse fill="white" stroke="black" cx="775.75" cy="-534.91" rx="25" ry="25"/>
<text text-anchor="middle" x="775.75" y="-532.71" font-family="Times New Roman,serif" font-size="9.00">1162</text>
</g>
<!-- 903&#45;&gt;1162 -->
<g id="edge21" class="edge">
<title>903&#45;&gt;1162</title>
<path fill="none" stroke="red" stroke-width="0.24" d="M775.75,-601.23C775.75,-591.89 775.75,-580.54 775.75,-569.94"/>
<polygon fill="red" stroke="red" stroke-width="0.24" points="779.25,-569.69 775.75,-559.69 772.25,-569.69 779.25,-569.69"/>
</g>
<!-- 17 -->
<g id="node17" class="node">
<title>17</title>
<ellipse fill="white" stroke="black" cx="681.75" cy="-534.91" rx="18.27" ry="18.27"/>
<text text-anchor="middle" x="681.75" y="-532.71" font-family="Times New Roman,serif" font-size="9.00">17</text>
</g>
<!-- 903&#45;&gt;17 -->
<g id="edge13" class="edge">
<title>903&#45;&gt;17</title>
<path fill="none" stroke="red" stroke-width="0.19" d="M760.23,-607.39C744.4,-592.97 719.76,-570.53 702.32,-554.64"/>
<polygon fill="red" stroke="red" stroke-width="0.19" points="704.62,-552 694.87,-547.85 699.9,-557.17 704.62,-552"/>
</g>
<!-- 1033 -->
<g id="node14" class="node">
<title>1033</title>
<ellipse fill="white" stroke="black" cx="196.75" cy="-788.57" rx="25" ry="25"/>
<text text-anchor="middle" x="196.75" y="-786.37" font-family="Times New Roman,serif" font-size="9.00">1033</text>
</g>
<!-- 1033&#45;&gt;270 -->
<g id="edge20" class="edge">
<title>1033&#45;&gt;270</title>
<path fill="none" stroke="green" stroke-width="0.41" d="M191.83,-764.06C185.62,-732.31 175.75,-673.91 175.75,-623.52 175.75,-623.52 175.75,-623.52 175.75,-277.41 175.75,-227.48 175.75,-169.45 175.75,-134.82"/>
<polygon fill="green" stroke="green" stroke-width="0.41" points="179.25,-134.44 175.75,-124.44 172.25,-134.44 179.25,-134.44"/>
</g>
<!-- 1033&#45;&gt;717 -->
<g id="edge18" class="edge">
<title>1033&#45;&gt;717</title>
<path fill="none" stroke="red" stroke-width="0.11" d="M212.95,-769.82C223.59,-758.16 237.62,-742.81 249.06,-730.27"/>
<polygon fill="red" stroke="red" stroke-width="0.11" points="251.65,-732.62 255.81,-722.88 246.48,-727.91 251.65,-732.62"/>
</g>
<!-- 1428 -->
<g id="node18" class="node">
<title>1428</title>
<ellipse fill="white" stroke="black" cx="24.75" cy="-190.79" rx="25" ry="25"/>
<text text-anchor="middle" x="24.75" y="-188.59" font-family="Times New Roman,serif" font-size="9.00">1428</text>
</g>
<!-- 1428&#45;&gt;270 -->
<g id="edge30" class="edge">
<title>1428&#45;&gt;270</title>
<path fill="none" stroke="green" stroke-width="0.3" d="M44.76,-175.99C50.78,-171.98 57.47,-167.67 63.75,-163.92 91.74,-147.23 124.76,-129.88 147.66,-118.21"/>
<polygon fill="green" stroke="green" stroke-width="0.3" points="149.48,-121.22 156.82,-113.58 146.31,-114.97 149.48,-121.22"/>
</g>
<!-- 1522 -->
<g id="node39" class="node">
<title>1522</title>
<ellipse fill="white" stroke="black" cx="24.75" cy="-103.18" rx="25" ry="25"/>
<text text-anchor="middle" x="24.75" y="-100.98" font-family="Times New Roman,serif" font-size="9.00">1522</text>
</g>
<!-- 1428&#45;&gt;1522 -->
<g id="edge31" class="edge">
<title>1428&#45;&gt;1522</title>
<path fill="none" stroke="green" stroke-width="0.16" d="M24.75,-165.94C24.75,-157.39 24.75,-147.57 24.75,-138.31"/>
<polygon fill="green" stroke="green" stroke-width="0.16" points="28.25,-138.19 24.75,-128.19 21.25,-138.19 28.25,-138.19"/>
</g>
<!-- 1825&#45;&gt;Speed -->
<g id="edge42" class="edge">
<title>1825&#45;&gt;Speed</title>
<path fill="none" stroke="green" stroke-width="0.23" d="M270.99,-339.48C276.24,-310.53 285.21,-260.99 291.31,-227.34"/>
<polygon fill="green" stroke="green" stroke-width="0.23" points="294.76,-227.92 293.1,-217.45 287.87,-226.67 294.76,-227.92"/>
</g>
<!-- 1835 -->
<g id="node20" class="node">
<title>1835</title>
<ellipse fill="white" stroke="black" cx="681.75" cy="-103.18" rx="25" ry="25"/>
<text text-anchor="middle" x="681.75" y="-100.98" font-family="Times New Roman,serif" font-size="9.00">1835</text>
</g>
<!-- 361 -->
<g id="node35" class="node">
<title>361</title>
<ellipse fill="white" stroke="black" cx="628.75" cy="-21.21" rx="21.43" ry="21.43"/>
<text text-anchor="middle" x="628.75" y="-19.01" font-family="Times New Roman,serif" font-size="9.00">361</text>
</g>
<!-- 1835&#45;&gt;361 -->
<g id="edge44" class="edge">
<title>1835&#45;&gt;361</title>
<path fill="none" stroke="green" stroke-width="0.12" d="M668.37,-82C661.5,-71.63 653.06,-58.88 645.73,-47.83"/>
<polygon fill="green" stroke="green" stroke-width="0.12" points="648.59,-45.81 640.14,-39.4 642.75,-49.67 648.59,-45.81"/>
</g>
<!-- 1971 -->
<g id="node21" class="node">
<title>1971</title>
<ellipse fill="white" stroke="black" cx="617.75" cy="-363.91" rx="25" ry="25"/>
<text text-anchor="middle" x="617.75" y="-361.71" font-family="Times New Roman,serif" font-size="9.00">1971</text>
</g>
<!-- 1971&#45;&gt;1266 -->
<g id="edge46" class="edge">
<title>1971&#45;&gt;1266</title>
<path fill="none" stroke="red" stroke-width="0.55" d="M617.75,-338.76C617.75,-330.82 617.75,-321.83 617.75,-313.3"/>
<polygon fill="red" stroke="red" stroke-width="0.55" points="621.25,-313.22 617.75,-303.22 614.25,-313.22 621.25,-313.22"/>
</g>
<!-- 572 -->
<g id="node22" class="node">
<title>572</title>
<ellipse fill="white" stroke="black" cx="370.75" cy="-278.41" rx="21.43" ry="21.43"/>
<text text-anchor="middle" x="370.75" y="-276.21" font-family="Times New Roman,serif" font-size="9.00">572</text>
</g>
<!-- 572&#45;&gt;Speed -->
<g id="edge16" class="edge">
<title>572&#45;&gt;Speed</title>
<path fill="none" stroke="red" stroke-width="0.22" d="M357.36,-261.71C347.38,-250.01 333.49,-233.71 321.62,-219.8"/>
<polygon fill="red" stroke="red" stroke-width="0.22" points="324.07,-217.27 314.92,-211.93 318.74,-221.81 324.07,-217.27"/>
</g>
<!-- 1596 -->
<g id="node23" class="node">
<title>1596</title>
<ellipse fill="white" stroke="black" cx="643.75" cy="-190.79" rx="25" ry="25"/>
<text text-anchor="middle" x="643.75" y="-188.59" font-family="Times New Roman,serif" font-size="9.00">1596</text>
</g>
<!-- 1596&#45;&gt;1835 -->
<g id="edge43" class="edge">
<title>1596&#45;&gt;1835</title>
<path fill="none" stroke="green" stroke-width="0.21" d="M653.53,-167.74C657.88,-157.96 663.07,-146.26 667.81,-135.58"/>
<polygon fill="green" stroke="green" stroke-width="0.21" points="671.14,-136.71 672,-126.15 664.74,-133.87 671.14,-136.71"/>
</g>
<!-- 1596&#45;&gt;361 -->
<g id="edge33" class="edge">
<title>1596&#45;&gt;361</title>
<path fill="none" stroke="green" stroke-width="0.11" stroke-dasharray="1,5" d="M641.6,-165.78C638.94,-136.02 634.39,-85.27 631.48,-52.77"/>
<polygon fill="green" stroke="green" stroke-width="0.11" points="634.94,-52.15 630.56,-42.5 627.97,-52.77 634.94,-52.15"/>
</g>
<!-- 448&#45;&gt;17 -->
<g id="edge9" class="edge">
<title>448&#45;&gt;17</title>
<path fill="none" stroke="red" stroke-width="0.38" stroke-dasharray="1,5" d="M655.29,-602.52C660.06,-590.51 666.29,-574.83 671.51,-561.7"/>
<polygon fill="red" stroke="red" stroke-width="0.38" points="674.82,-562.84 675.25,-552.26 668.31,-560.26 674.82,-562.84"/>
</g>
<!-- 717&#45;&gt;602 -->
<g id="edge11" class="edge">
<title>717&#45;&gt;602</title>
<path fill="none" stroke="red" stroke-width="0.36" stroke-dasharray="1,5" d="M284.9,-691.31C298.5,-678.48 318.64,-659.47 334.14,-644.85"/>
<polygon fill="red" stroke="red" stroke-width="0.36" points="336.9,-647.07 341.77,-637.66 332.09,-641.97 336.9,-647.07"/>
</g>
<!-- 344 -->
<g id="node28" class="node">
<title>344</title>
<ellipse fill="white" stroke="black" cx="126.75" cy="-190.79" rx="21.43" ry="21.43"/>
<text text-anchor="middle" x="126.75" y="-188.59" font-family="Times New Roman,serif" font-size="9.00">344</text>
</g>
<!-- 977&#45;&gt;344 -->
<g id="edge15" class="edge">
<title>977&#45;&gt;344</title>
<path fill="none" stroke="green" stroke-width="0.1" stroke-dasharray="1,5" d="M126.75,-257.12C126.75,-246.75 126.75,-233.91 126.75,-222.36"/>
<polygon fill="green" stroke="green" stroke-width="0.1" points="130.25,-222.24 126.75,-212.24 123.25,-222.24 130.25,-222.24"/>
</g>
<!-- 602&#45;&gt;256 -->
<g id="edge8" class="edge">
<title>602&#45;&gt;256</title>
<path fill="none" stroke="green" stroke-width="0.45" d="M362.88,-602.1C366.33,-591.15 370.71,-577.26 374.56,-565.03"/>
<polygon fill="green" stroke="green" stroke-width="0.45" points="377.98,-565.85 377.65,-555.26 371.3,-563.74 377.98,-565.85"/>
</g>
<!-- 219&#45;&gt;Angle -->
<g id="edge4" class="edge">
<title>219&#45;&gt;Angle</title>
<path fill="none" stroke="green" stroke-width="0.34" d="M581.75,-685.32C581.75,-677.54 581.75,-668.41 581.75,-659.59"/>
<polygon fill="green" stroke="green" stroke-width="0.34" points="585.25,-659.48 581.75,-649.48 578.25,-659.48 585.25,-659.48"/>
</g>
<!-- 1635&#45;&gt;Speed -->
<g id="edge35" class="edge">
<title>1635&#45;&gt;Speed</title>
<path fill="none" stroke="green" stroke-width="0.33" d="M269.75,-601.79C249.32,-571.01 213.75,-508.99 213.75,-450.41 213.75,-450.41 213.75,-450.41 213.75,-362.91 213.75,-307.77 249.33,-251.92 274.18,-219.65"/>
<polygon fill="green" stroke="green" stroke-width="0.33" points="277.1,-221.59 280.55,-211.57 271.6,-217.25 277.1,-221.59"/>
</g>
<!-- 1638&#45;&gt;1392 -->
<g id="edge37" class="edge">
<title>1638&#45;&gt;1392</title>
<path fill="none" stroke="green" stroke-width="0.49" d="M397.64,-426.03C393.95,-416.97 389.62,-406.35 385.62,-396.53"/>
<polygon fill="green" stroke="green" stroke-width="0.49" points="388.78,-395 381.77,-387.06 382.3,-397.64 388.78,-395"/>
</g>
<!-- 1768&#45;&gt;1971 -->
<g id="edge45" class="edge">
<title>1768&#45;&gt;1971</title>
<path fill="none" stroke="green" stroke-width="0.17" d="M589.73,-426.47C593.97,-417.17 598.98,-406.16 603.58,-396.04"/>
<polygon fill="green" stroke="green" stroke-width="0.17" points="606.87,-397.25 607.83,-386.7 600.5,-394.35 606.87,-397.25"/>
</g>
<!-- 1768&#45;&gt;1266 -->
<g id="edge39" class="edge">
<title>1768&#45;&gt;1266</title>
<path fill="none" stroke="green" stroke-width="0.24" stroke-dasharray="1,5" d="M577.4,-424.46C575.94,-401.98 575.65,-367.64 583.75,-339.16 586.86,-328.2 592.39,-317.1 598.09,-307.5"/>
<polygon fill="green" stroke="green" stroke-width="0.24" points="601.19,-309.13 603.53,-298.8 595.26,-305.42 601.19,-309.13"/>
</g>
<!-- 748&#45;&gt;270 -->
<g id="edge22" class="edge">
<title>748&#45;&gt;270</title>
<path fill="none" stroke="red" stroke-width="0.21" stroke-dasharray="1,5" d="M68.14,-256.91C70.63,-232.82 77.56,-192.53 96.75,-163.92 109.6,-144.77 130.68,-129.28 147.83,-118.88"/>
<polygon fill="red" stroke="red" stroke-width="0.21" points="149.98,-121.67 156.88,-113.63 146.47,-115.62 149.98,-121.67"/>
</g>
<!-- 748&#45;&gt;1428 -->
<g id="edge29" class="edge">
<title>748&#45;&gt;1428</title>
<path fill="none" stroke="green" stroke-width="0.29" stroke-dasharray="1,5" d="M57.64,-258.83C52.46,-248.28 45.84,-234.79 39.9,-222.69"/>
<polygon fill="green" stroke="green" stroke-width="0.29" points="42.87,-220.79 35.33,-213.36 36.59,-223.88 42.87,-220.79"/>
</g>
<!-- 1392&#45;&gt;572 -->
<g id="edge28" class="edge">
<title>1392&#45;&gt;572</title>
<path fill="none" stroke="green" stroke-width="0.23" d="M372.17,-338.76C371.96,-329.8 371.71,-319.52 371.48,-310.06"/>
<polygon fill="green" stroke="green" stroke-width="0.23" points="374.98,-309.75 371.24,-299.84 367.98,-309.92 374.98,-309.75"/>
</g>
<!-- 1266&#45;&gt;1596 -->
<g id="edge32" class="edge">
<title>1266&#45;&gt;1596</title>
<path fill="none" stroke="green" stroke-width="0.56" d="M624.72,-254.47C627.51,-245.26 630.79,-234.46 633.83,-224.46"/>
<polygon fill="green" stroke="green" stroke-width="0.56" points="637.21,-225.39 636.76,-214.8 630.51,-223.35 637.21,-225.39"/>
</g>
<!-- 1266&#45;&gt;361 -->
<g id="edge24" class="edge">
<title>1266&#45;&gt;361</title>
<path fill="none" stroke="green" stroke-width="0.32" d="M613.87,-253.93C612.24,-242.95 610.55,-229.67 609.75,-217.66 605.83,-158.9 615.85,-90.44 622.79,-52.13"/>
<polygon fill="green" stroke="green" stroke-width="0.32" points="626.25,-52.63 624.65,-42.16 619.37,-51.35 626.25,-52.63"/>
</g>
<!-- 761 -->
<g id="node40" class="node">
<title>761</title>
<ellipse fill="white" stroke="black" cx="758.75" cy="-788.57" rx="21.43" ry="21.43"/>
<text text-anchor="middle" x="758.75" y="-786.37" font-family="Times New Roman,serif" font-size="9.00">761</text>
</g>
<!-- 895 -->
<g id="node41" class="node">
<title>895</title>
<ellipse fill="white" stroke="black" cx="818.75" cy="-788.57" rx="21.43" ry="21.43"/>
<text text-anchor="middle" x="818.75" y="-786.37" font-family="Times New Roman,serif" font-size="9.00">895</text>
</g>
</g>
</svg>
