<?xml version="1.0" encoding="UTF-8" standalone="no"?>
<!DOCTYPE svg PUBLIC "-//W3C//DTD SVG 1.1//EN"
 "http://www.w3.org/Graphics/SVG/1.1/DTD/svg11.dtd">
<!-- Generated by graphviz version 2.47.0 (20210316.0004)
 -->
<!-- Pages: 1 -->
<svg width="546pt" height="376pt"
 viewBox="0.00 0.00 545.82 376.48" xmlns="http://www.w3.org/2000/svg" xmlns:xlink="http://www.w3.org/1999/xlink">
<g id="graph0" class="graph" transform="scale(1 1) rotate(0) translate(4 372.48)">
<polygon fill="white" stroke="transparent" points="-4,4 -4,-372.48 541.82,-372.48 541.82,4 -4,4"/>
<!-- &#45;1 -->
<g id="node1" class="node">
<title>&#45;1</title>
<polygon fill="lightgray" stroke="black" points="430.07,-368.48 406.07,-368.48 406.07,-350.48 430.07,-350.48 430.07,-368.48"/>
<text text-anchor="middle" x="418.07" y="-357.28" font-family="Times New Roman,serif" font-size="9.00">&#45;1</text>
</g>
<!-- &#45;2 -->
<g id="node2" class="node">
<title>&#45;2</title>
<polygon fill="lightgray" stroke="black" points="110.07,-213.23 86.07,-213.23 86.07,-195.23 110.07,-195.23 110.07,-213.23"/>
<text text-anchor="middle" x="98.07" y="-202.03" font-family="Times New Roman,serif" font-size="9.00">&#45;2</text>
</g>
<!-- Speed -->
<g id="node9" class="node">
<title>Speed</title>
<ellipse fill="lightblue" stroke="black" cx="149.07" cy="-116.61" rx="26.74" ry="26.74"/>
<text text-anchor="middle" x="149.07" y="-114.41" font-family="Times New Roman,serif" font-size="9.00">Speed</text>
</g>
<!-- &#45;2&#45;&gt;Speed -->
<g id="edge1" class="edge">
<title>&#45;2&#45;&gt;Speed</title>
<path fill="none" stroke="green" stroke-width="0.11" stroke-dasharray="1,5" d="M102.96,-195.02C109.27,-184.42 120.61,-165.39 130.47,-148.84"/>
<polygon fill="green" stroke="green" stroke-width="0.11" points="133.64,-150.36 135.75,-139.98 127.63,-146.78 133.64,-150.36"/>
</g>
<!-- Angle -->
<g id="node10" class="node">
<title>Angle</title>
<ellipse fill="lightblue" stroke="black" cx="302.07" cy="-26.87" rx="26.74" ry="26.74"/>
<text text-anchor="middle" x="302.07" y="-24.67" font-family="Times New Roman,serif" font-size="9.00">Angle</text>
</g>
<!-- &#45;2&#45;&gt;Angle -->
<g id="edge2" class="edge">
<title>&#45;2&#45;&gt;Angle</title>
<path fill="none" stroke="green" stroke-width="0.3" d="M85.86,-199.2C65.74,-191.81 26.24,-174 10.07,-143.48 -1.11,-122.37 -4.96,-108.3 10.07,-89.74 41.72,-50.68 193.15,-35.29 264.6,-30.12"/>
<polygon fill="green" stroke="green" stroke-width="0.3" points="265.21,-33.59 274.94,-29.41 264.72,-26.61 265.21,-33.59"/>
</g>
<!-- &#45;3 -->
<g id="node3" class="node">
<title>&#45;3</title>
<polygon fill="lightgray" stroke="black" points="43.07,-125.61 19.07,-125.61 19.07,-107.61 43.07,-107.61 43.07,-125.61"/>
<text text-anchor="middle" x="31.07" y="-114.41" font-family="Times New Roman,serif" font-size="9.00">&#45;3</text>
</g>
<!-- &#45;3&#45;&gt;Angle -->
<g id="edge3" class="edge">
<title>&#45;3&#45;&gt;Angle</title>
<path fill="none" stroke="green" stroke-width="0.26" d="M37.47,-107.19C42.27,-101.46 49.31,-94.13 57.07,-89.74 124.44,-51.61 215.33,-36.65 265.32,-31.03"/>
<polygon fill="green" stroke="green" stroke-width="0.26" points="265.76,-34.51 275.34,-29.97 265.03,-27.54 265.76,-34.51"/>
</g>
<!-- &#45;4 -->
<g id="node4" class="node">
<title>&#45;4</title>
<polygon fill="lightgray" stroke="black" points="396.07,-298.73 372.07,-298.73 372.07,-280.73 396.07,-280.73 396.07,-298.73"/>
<text text-anchor="middle" x="384.07" y="-287.53" font-family="Times New Roman,serif" font-size="9.00">&#45;4</text>
</g>
<!-- &#45;4&#45;&gt;Angle -->
<g id="edge4" class="edge">
<title>&#45;4&#45;&gt;Angle</title>
<path fill="none" stroke="green" stroke-width="0.21" d="M388,-280.46C400.99,-251.84 439.7,-155.14 403.07,-89.74 389.09,-64.78 360.48,-48.68 337.26,-39.18"/>
<polygon fill="green" stroke="green" stroke-width="0.21" points="338.29,-35.82 327.7,-35.5 335.78,-42.36 338.29,-35.82"/>
</g>
<!-- 422 -->
<g id="node11" class="node">
<title>422</title>
<ellipse fill="white" stroke="black" cx="335.07" cy="-204.23" rx="21.43" ry="21.43"/>
<text text-anchor="middle" x="335.07" y="-202.03" font-family="Times New Roman,serif" font-size="9.00">422</text>
</g>
<!-- &#45;4&#45;&gt;422 -->
<g id="edge17" class="edge">
<title>&#45;4&#45;&gt;422</title>
<path fill="none" stroke="red" stroke-width="0.42" d="M379.37,-280.72C372.83,-269.56 360.64,-248.8 350.7,-231.87"/>
<polygon fill="red" stroke="red" stroke-width="0.42" points="353.55,-229.79 345.47,-222.94 347.51,-233.34 353.55,-229.79"/>
</g>
<!-- 603 -->
<g id="node16" class="node">
<title>603</title>
<ellipse fill="white" stroke="black" cx="373.07" cy="-116.61" rx="21.43" ry="21.43"/>
<text text-anchor="middle" x="373.07" y="-114.41" font-family="Times New Roman,serif" font-size="9.00">603</text>
</g>
<!-- &#45;4&#45;&gt;603 -->
<g id="edge20" class="edge">
<title>&#45;4&#45;&gt;603</title>
<path fill="none" stroke="red" stroke-width="0.24" d="M383.54,-280.47C382.03,-256.88 377.61,-188.26 375.03,-148.01"/>
<polygon fill="red" stroke="red" stroke-width="0.24" points="378.52,-147.71 374.38,-137.96 371.53,-148.16 378.52,-147.71"/>
</g>
<!-- &#45;5 -->
<g id="node5" class="node">
<title>&#45;5</title>
<polygon fill="lightgray" stroke="black" points="150.07,-298.73 126.07,-298.73 126.07,-280.73 150.07,-280.73 150.07,-298.73"/>
<text text-anchor="middle" x="138.07" y="-287.53" font-family="Times New Roman,serif" font-size="9.00">&#45;5</text>
</g>
<!-- &#45;5&#45;&gt;Speed -->
<g id="edge5" class="edge">
<title>&#45;5&#45;&gt;Speed</title>
<path fill="none" stroke="red" stroke-width="0.22" stroke-dasharray="1,5" d="M138.6,-280.47C140.05,-257.93 144.14,-194.31 146.76,-153.58"/>
<polygon fill="red" stroke="red" stroke-width="0.22" points="150.26,-153.71 147.41,-143.5 143.27,-153.26 150.26,-153.71"/>
</g>
<!-- &#45;5&#45;&gt;Angle -->
<g id="edge6" class="edge">
<title>&#45;5&#45;&gt;Angle</title>
<path fill="none" stroke="red" stroke-width="0.24" stroke-dasharray="1,5" d="M125.87,-281.24C111.09,-271.37 86.95,-252.48 77.07,-228.98 52.31,-170.05 66.43,-133.44 113.07,-89.74 155.35,-50.13 223.39,-35.87 265.27,-30.74"/>
<polygon fill="red" stroke="red" stroke-width="0.24" points="265.77,-34.2 275.32,-29.62 265,-27.25 265.77,-34.2"/>
</g>
<!-- &#45;5&#45;&gt;422 -->
<g id="edge12" class="edge">
<title>&#45;5&#45;&gt;422</title>
<path fill="none" stroke="red" stroke-width="0.45" d="M150.17,-283.84C162.43,-278.92 181.99,-271.2 199.07,-264.98 245.82,-247.95 261.37,-252.77 305.07,-228.98 307.11,-227.87 309.15,-226.62 311.16,-225.29"/>
<polygon fill="red" stroke="red" stroke-width="0.45" points="313.58,-227.85 319.59,-219.12 309.45,-222.2 313.58,-227.85"/>
</g>
<!-- &#45;6 -->
<g id="node6" class="node">
<title>&#45;6</title>
<polygon fill="lightgray" stroke="black" points="296.07,-213.23 272.07,-213.23 272.07,-195.23 296.07,-195.23 296.07,-213.23"/>
<text text-anchor="middle" x="284.07" y="-202.03" font-family="Times New Roman,serif" font-size="9.00">&#45;6</text>
</g>
<!-- &#45;6&#45;&gt;Angle -->
<g id="edge7" class="edge">
<title>&#45;6&#45;&gt;Angle</title>
<path fill="none" stroke="green" stroke-width="0.1" stroke-dasharray="1,5" d="M284.94,-194.77C287.33,-171.5 294.11,-105.48 298.39,-63.78"/>
<polygon fill="green" stroke="green" stroke-width="0.1" points="301.88,-64.05 299.42,-53.75 294.91,-63.34 301.88,-64.05"/>
</g>
<!-- 1623 -->
<g id="node15" class="node">
<title>1623</title>
<ellipse fill="white" stroke="black" cx="229.07" cy="-116.61" rx="25" ry="25"/>
<text text-anchor="middle" x="229.07" y="-114.41" font-family="Times New Roman,serif" font-size="9.00">1623</text>
</g>
<!-- &#45;6&#45;&gt;1623 -->
<g id="edge18" class="edge">
<title>&#45;6&#45;&gt;1623</title>
<path fill="none" stroke="green" stroke-width="0.29" d="M278.8,-195.02C271.66,-183.9 258.54,-163.48 247.57,-146.4"/>
<polygon fill="green" stroke="green" stroke-width="0.29" points="250.42,-144.36 242.07,-137.84 244.53,-148.14 250.42,-144.36"/>
</g>
<!-- &#45;7 -->
<g id="node7" class="node">
<title>&#45;7</title>
<polygon fill="lightgray" stroke="black" points="472.07,-368.48 448.07,-368.48 448.07,-350.48 472.07,-350.48 472.07,-368.48"/>
<text text-anchor="middle" x="460.07" y="-357.28" font-family="Times New Roman,serif" font-size="9.00">&#45;7</text>
</g>
<!-- &#45;7&#45;&gt;Angle -->
<g id="edge8" class="edge">
<title>&#45;7&#45;&gt;Angle</title>
<path fill="none" stroke="green" stroke-width="0.4" stroke-dasharray="1,5" d="M461.58,-350.02C467.45,-314.46 485.52,-174.92 425.07,-89.74 404.56,-60.83 366.54,-44.65 338.18,-36.16"/>
<polygon fill="green" stroke="green" stroke-width="0.4" points="338.79,-32.7 328.22,-33.37 336.9,-39.44 338.79,-32.7"/>
</g>
<!-- 370 -->
<g id="node12" class="node">
<title>370</title>
<ellipse fill="white" stroke="black" cx="229.07" cy="-289.73" rx="21.43" ry="21.43"/>
<text text-anchor="middle" x="229.07" y="-287.53" font-family="Times New Roman,serif" font-size="9.00">370</text>
</g>
<!-- &#45;7&#45;&gt;370 -->
<g id="edge9" class="edge">
<title>&#45;7&#45;&gt;370</title>
<path fill="none" stroke="green" stroke-width="0.27" d="M447.7,-353.56C444.88,-352.49 441.89,-351.41 439.07,-350.48 375.86,-329.49 300.5,-309.16 259.44,-298.48"/>
<polygon fill="green" stroke="green" stroke-width="0.27" points="260.08,-295.03 249.52,-295.91 258.33,-301.81 260.08,-295.03"/>
</g>
<!-- 1971 -->
<g id="node13" class="node">
<title>1971</title>
<ellipse fill="white" stroke="black" cx="513.07" cy="-289.73" rx="25" ry="25"/>
<text text-anchor="middle" x="513.07" y="-287.53" font-family="Times New Roman,serif" font-size="9.00">1971</text>
</g>
<!-- &#45;7&#45;&gt;1971 -->
<g id="edge22" class="edge">
<title>&#45;7&#45;&gt;1971</title>
<path fill="none" stroke="green" stroke-width="0.3" d="M466.36,-350.44C472.69,-342.35 482.8,-329.42 492,-317.66"/>
<polygon fill="green" stroke="green" stroke-width="0.3" points="494.76,-319.81 498.17,-309.78 489.25,-315.5 494.76,-319.81"/>
</g>
<!-- &#45;8 -->
<g id="node8" class="node">
<title>&#45;8</title>
<polygon fill="lightgray" stroke="black" points="334.07,-125.61 310.07,-125.61 310.07,-107.61 334.07,-107.61 334.07,-125.61"/>
<text text-anchor="middle" x="322.07" y="-114.41" font-family="Times New Roman,serif" font-size="9.00">&#45;8</text>
</g>
<!-- &#45;8&#45;&gt;Angle -->
<g id="edge13" class="edge">
<title>&#45;8&#45;&gt;Angle</title>
<path fill="none" stroke="green" stroke-width="0.12" stroke-dasharray="1,5" d="M320.23,-107.51C317.92,-97.4 313.82,-79.42 310.1,-63.11"/>
<polygon fill="green" stroke="green" stroke-width="0.12" points="313.49,-62.22 307.86,-53.25 306.67,-63.78 313.49,-62.22"/>
</g>
<!-- 422&#45;&gt;603 -->
<g id="edge14" class="edge">
<title>422&#45;&gt;603</title>
<path fill="none" stroke="red" stroke-width="0.4" d="M343.32,-184.65C348.36,-173.29 354.91,-158.52 360.59,-145.74"/>
<polygon fill="red" stroke="red" stroke-width="0.4" points="363.85,-147.01 364.71,-136.45 357.46,-144.17 363.85,-147.01"/>
</g>
<!-- 370&#45;&gt;Speed -->
<g id="edge11" class="edge">
<title>370&#45;&gt;Speed</title>
<path fill="none" stroke="green" stroke-width="0.25" stroke-dasharray="1,5" d="M218.36,-271.26C211.35,-259.51 202.2,-243.56 195.07,-228.98 182.67,-203.6 170.56,-174.01 161.87,-151.72"/>
<polygon fill="green" stroke="green" stroke-width="0.25" points="165.12,-150.4 158.26,-142.33 158.59,-152.92 165.12,-150.4"/>
</g>
<!-- 1396 -->
<g id="node14" class="node">
<title>1396</title>
<ellipse fill="white" stroke="black" cx="229.07" cy="-204.23" rx="25" ry="25"/>
<text text-anchor="middle" x="229.07" y="-202.03" font-family="Times New Roman,serif" font-size="9.00">1396</text>
</g>
<!-- 370&#45;&gt;1396 -->
<g id="edge15" class="edge">
<title>370&#45;&gt;1396</title>
<path fill="none" stroke="green" stroke-width="0.53" d="M229.07,-268.09C229.07,-259.43 229.07,-249.14 229.07,-239.41"/>
<polygon fill="green" stroke="green" stroke-width="0.53" points="232.57,-239.18 229.07,-229.18 225.57,-239.18 232.57,-239.18"/>
</g>
<!-- 1971&#45;&gt;Angle -->
<g id="edge23" class="edge">
<title>1971&#45;&gt;Angle</title>
<path fill="none" stroke="red" stroke-width="0.31" d="M515.38,-265.02C518.02,-224.18 517.3,-140.08 474.07,-89.74 440.01,-50.07 378.54,-35.83 339.05,-30.73"/>
<polygon fill="red" stroke="red" stroke-width="0.31" points="339.37,-27.24 329.03,-29.57 338.56,-34.19 339.37,-27.24"/>
</g>
<!-- 1396&#45;&gt;Speed -->
<g id="edge16" class="edge">
<title>1396&#45;&gt;Speed</title>
<path fill="none" stroke="green" stroke-width="0.24" d="M212.5,-185.49C201.4,-173.61 186.59,-157.77 174.08,-144.37"/>
<polygon fill="green" stroke="green" stroke-width="0.24" points="176.4,-141.73 167.02,-136.82 171.29,-146.51 176.4,-141.73"/>
</g>
<!-- 1396&#45;&gt;603 -->
<g id="edge21" class="edge">
<title>1396&#45;&gt;603</title>
<path fill="none" stroke="red" stroke-width="0.17" d="M248.44,-188.77C253.12,-185.54 258.19,-182.25 263.07,-179.48 296.98,-160.23 310.19,-164.43 343.07,-143.48 345.52,-141.92 347.97,-140.17 350.37,-138.34"/>
<polygon fill="red" stroke="red" stroke-width="0.17" points="352.66,-140.99 358.17,-131.94 348.22,-135.58 352.66,-140.99"/>
</g>
<!-- 1623&#45;&gt;Angle -->
<g id="edge19" class="edge">
<title>1623&#45;&gt;Angle</title>
<path fill="none" stroke="red" stroke-width="0.29" d="M244.55,-97C254.47,-85.09 267.52,-69.4 278.68,-55.99"/>
<polygon fill="red" stroke="red" stroke-width="0.29" points="281.64,-57.9 285.34,-47.98 276.26,-53.43 281.64,-57.9"/>
</g>
<!-- 603&#45;&gt;Angle -->
<g id="edge10" class="edge">
<title>603&#45;&gt;Angle</title>
<path fill="none" stroke="red" stroke-width="0.14" stroke-dasharray="1,5" d="M360.05,-99.52C350.28,-87.44 336.65,-70.6 325.06,-56.27"/>
<polygon fill="red" stroke="red" stroke-width="0.14" points="327.52,-53.76 318.51,-48.19 322.08,-58.16 327.52,-53.76"/>
</g>
</g>
</svg>
