<?xml version="1.0" encoding="UTF-8" standalone="no"?>
<!DOCTYPE svg PUBLIC "-//W3C//DTD SVG 1.1//EN"
 "http://www.w3.org/Graphics/SVG/1.1/DTD/svg11.dtd">
<!-- Generated by graphviz version 2.47.0 (20210316.0004)
 -->
<!-- Pages: 1 -->
<svg width="469pt" height="273pt"
 viewBox="0.00 0.00 468.75 272.59" xmlns="http://www.w3.org/2000/svg" xmlns:xlink="http://www.w3.org/1999/xlink">
<g id="graph0" class="graph" transform="scale(1 1) rotate(0) translate(4 268.59)">
<polygon fill="white" stroke="transparent" points="-4,4 -4,-268.59 464.75,-268.59 464.75,4 -4,4"/>
<!-- &#45;1 -->
<g id="node1" class="node">
<title>&#45;1</title>
<polygon fill="lightgray" stroke="black" points="126,-198.38 102,-198.38 102,-180.38 126,-180.38 126,-198.38"/>
<text text-anchor="middle" x="114" y="-187.18" font-family="Times New Roman,serif" font-size="9.00">&#45;1</text>
</g>
<!-- Speed -->
<g id="node9" class="node">
<title>Speed</title>
<ellipse fill="lightblue" stroke="black" cx="194" cy="-105.3" rx="26.74" ry="26.74"/>
<text text-anchor="middle" x="194" y="-103.1" font-family="Times New Roman,serif" font-size="9.00">Speed</text>
</g>
<!-- &#45;1&#45;&gt;Speed -->
<g id="edge1" class="edge">
<title>&#45;1&#45;&gt;Speed</title>
<path fill="none" stroke="green" stroke-width="0.17" stroke-dasharray="1,5" d="M121.96,-180.21C132.72,-169.17 152.41,-148.96 168.49,-132.47"/>
<polygon fill="green" stroke="green" stroke-width="0.17" points="171.11,-134.8 175.58,-125.2 166.09,-129.91 171.11,-134.8"/>
</g>
<!-- &#45;2 -->
<g id="node2" class="node">
<title>&#45;2</title>
<polygon fill="lightgray" stroke="black" points="374,-198.38 350,-198.38 350,-180.38 374,-180.38 374,-198.38"/>
<text text-anchor="middle" x="362" y="-187.18" font-family="Times New Roman,serif" font-size="9.00">&#45;2</text>
</g>
<!-- Angle -->
<g id="node10" class="node">
<title>Angle</title>
<ellipse fill="lightblue" stroke="black" cx="290" cy="-105.3" rx="26.74" ry="26.74"/>
<text text-anchor="middle" x="290" y="-103.1" font-family="Times New Roman,serif" font-size="9.00">Angle</text>
</g>
<!-- &#45;2&#45;&gt;Angle -->
<g id="edge2" class="edge">
<title>&#45;2&#45;&gt;Angle</title>
<path fill="none" stroke="green" stroke-width="0.28" d="M354.83,-180.21C345.42,-169.48 328.41,-150.09 314.18,-133.86"/>
<polygon fill="green" stroke="green" stroke-width="0.28" points="316.68,-131.41 307.46,-126.2 311.42,-136.03 316.68,-131.41"/>
</g>
<!-- &#45;3 -->
<g id="node3" class="node">
<title>&#45;3</title>
<polygon fill="lightgray" stroke="black" points="206,-198.38 182,-198.38 182,-180.38 206,-180.38 206,-198.38"/>
<text text-anchor="middle" x="194" y="-187.18" font-family="Times New Roman,serif" font-size="9.00">&#45;3</text>
</g>
<!-- &#45;3&#45;&gt;Speed -->
<g id="edge3" class="edge">
<title>&#45;3&#45;&gt;Speed</title>
<path fill="none" stroke="red" stroke-width="0.13" d="M194,-180.21C194,-171.42 194,-156.83 194,-142.92"/>
<polygon fill="red" stroke="red" stroke-width="0.13" points="197.5,-142.52 194,-132.52 190.5,-142.52 197.5,-142.52"/>
</g>
<!-- &#45;3&#45;&gt;Angle -->
<g id="edge4" class="edge">
<title>&#45;3&#45;&gt;Angle</title>
<path fill="none" stroke="green" stroke-width="0.22" d="M202.04,-180.36C205.9,-176.59 210.62,-172.07 215,-168.17 229.96,-154.83 247.17,-140.56 261.33,-129.09"/>
<polygon fill="green" stroke="green" stroke-width="0.22" points="263.68,-131.69 269.27,-122.69 259.29,-126.24 263.68,-131.69"/>
</g>
<!-- &#45;4 -->
<g id="node4" class="node">
<title>&#45;4</title>
<polygon fill="lightgray" stroke="black" points="248,-198.38 224,-198.38 224,-180.38 248,-180.38 248,-198.38"/>
<text text-anchor="middle" x="236" y="-187.18" font-family="Times New Roman,serif" font-size="9.00">&#45;4</text>
</g>
<!-- &#45;4&#45;&gt;Speed -->
<g id="edge5" class="edge">
<title>&#45;4&#45;&gt;Speed</title>
<path fill="none" stroke="red" stroke-width="0.24" d="M231.82,-180.21C226.87,-170.54 218.33,-153.84 210.61,-138.76"/>
<polygon fill="red" stroke="red" stroke-width="0.24" points="213.62,-136.96 205.95,-129.65 207.39,-140.15 213.62,-136.96"/>
</g>
<!-- &#45;4&#45;&gt;Angle -->
<g id="edge6" class="edge">
<title>&#45;4&#45;&gt;Angle</title>
<path fill="none" stroke="green" stroke-width="0.21" d="M241.38,-180.21C248.04,-170.08 259.77,-152.25 270.04,-136.63"/>
<polygon fill="green" stroke="green" stroke-width="0.21" points="272.98,-138.53 275.56,-128.25 267.14,-134.68 272.98,-138.53"/>
</g>
<!-- &#45;5 -->
<g id="node5" class="node">
<title>&#45;5</title>
<polygon fill="lightgray" stroke="black" points="290,-198.38 266,-198.38 266,-180.38 290,-180.38 290,-198.38"/>
<text text-anchor="middle" x="278" y="-187.18" font-family="Times New Roman,serif" font-size="9.00">&#45;5</text>
</g>
<!-- &#45;5&#45;&gt;Speed -->
<g id="edge7" class="edge">
<title>&#45;5&#45;&gt;Speed</title>
<path fill="none" stroke="red" stroke-width="0.41" stroke-dasharray="1,5" d="M269.64,-180.21C258.27,-169.1 237.4,-148.71 220.46,-132.15"/>
<polygon fill="red" stroke="red" stroke-width="0.41" points="222.6,-129.35 213,-124.86 217.71,-134.36 222.6,-129.35"/>
</g>
<!-- &#45;5&#45;&gt;Angle -->
<g id="edge16" class="edge">
<title>&#45;5&#45;&gt;Angle</title>
<path fill="none" stroke="green" stroke-width="0.17" d="M279.19,-180.21C280.5,-171.27 282.69,-156.32 284.75,-142.2"/>
<polygon fill="green" stroke="green" stroke-width="0.17" points="288.24,-142.56 286.22,-132.16 281.31,-141.55 288.24,-142.56"/>
</g>
<!-- &#45;6 -->
<g id="node6" class="node">
<title>&#45;6</title>
<polygon fill="lightgray" stroke="black" points="166,-264.59 142,-264.59 142,-246.59 166,-246.59 166,-264.59"/>
<text text-anchor="middle" x="154" y="-253.39" font-family="Times New Roman,serif" font-size="9.00">&#45;6</text>
</g>
<!-- &#45;6&#45;&gt;Speed -->
<g id="edge8" class="edge">
<title>&#45;6&#45;&gt;Speed</title>
<path fill="none" stroke="green" stroke-width="0.52" stroke-dasharray="1,5" d="M155.48,-246.42C158.35,-230.99 165.08,-196.58 173,-168.17 175.52,-159.12 178.61,-149.45 181.64,-140.5"/>
<polygon fill="green" stroke="green" stroke-width="0.52" points="185.03,-141.38 184.99,-130.79 178.42,-139.1 185.03,-141.38"/>
</g>
<!-- 32 -->
<g id="node11" class="node">
<title>32</title>
<ellipse fill="white" stroke="black" cx="410" cy="-189.38" rx="18.27" ry="18.27"/>
<text text-anchor="middle" x="410" y="-187.18" font-family="Times New Roman,serif" font-size="9.00">32</text>
</g>
<!-- &#45;6&#45;&gt;32 -->
<g id="edge11" class="edge">
<title>&#45;6&#45;&gt;32</title>
<path fill="none" stroke="green" stroke-width="0.13" d="M166.24,-254.16C201.46,-252.52 305.43,-244.88 383,-210.59 384.81,-209.79 386.61,-208.85 388.37,-207.82"/>
<polygon fill="green" stroke="green" stroke-width="0.13" points="390.42,-210.67 396.74,-202.17 386.5,-204.87 390.42,-210.67"/>
</g>
<!-- 186 -->
<g id="node12" class="node">
<title>186</title>
<ellipse fill="white" stroke="black" cx="63" cy="-189.38" rx="21.43" ry="21.43"/>
<text text-anchor="middle" x="63" y="-187.18" font-family="Times New Roman,serif" font-size="9.00">186</text>
</g>
<!-- &#45;6&#45;&gt;186 -->
<g id="edge13" class="edge">
<title>&#45;6&#45;&gt;186</title>
<path fill="none" stroke="green" stroke-width="0.17" d="M142.47,-246.46C128.91,-236.89 105.99,-220.72 88.24,-208.19"/>
<polygon fill="green" stroke="green" stroke-width="0.17" points="90.19,-205.28 80,-202.38 86.16,-211 90.19,-205.28"/>
</g>
<!-- &#45;7 -->
<g id="node7" class="node">
<title>&#45;7</title>
<polygon fill="lightgray" stroke="black" points="332,-198.38 308,-198.38 308,-180.38 332,-180.38 332,-198.38"/>
<text text-anchor="middle" x="320" y="-187.18" font-family="Times New Roman,serif" font-size="9.00">&#45;7</text>
</g>
<!-- &#45;7&#45;&gt;Speed -->
<g id="edge9" class="edge">
<title>&#45;7&#45;&gt;Speed</title>
<path fill="none" stroke="green" stroke-width="0.18" d="M312.22,-180.04C308.43,-176.2 303.68,-171.72 299,-168.17 276.25,-150.89 248.29,-134.63 226.94,-123.12"/>
<polygon fill="green" stroke="green" stroke-width="0.18" points="228.41,-119.93 217.94,-118.33 225.12,-126.11 228.41,-119.93"/>
</g>
<!-- &#45;7&#45;&gt;Angle -->
<g id="edge15" class="edge">
<title>&#45;7&#45;&gt;Angle</title>
<path fill="none" stroke="red" stroke-width="0.15" d="M317.01,-180.21C313.59,-170.83 307.74,-154.84 302.36,-140.12"/>
<polygon fill="red" stroke="red" stroke-width="0.15" points="305.65,-138.91 298.93,-130.72 299.07,-141.31 305.65,-138.91"/>
</g>
<!-- &#45;8 -->
<g id="node8" class="node">
<title>&#45;8</title>
<polygon fill="lightgray" stroke="black" points="24,-198.38 0,-198.38 0,-180.38 24,-180.38 24,-198.38"/>
<text text-anchor="middle" x="12" y="-187.18" font-family="Times New Roman,serif" font-size="9.00">&#45;8</text>
</g>
<!-- &#45;8&#45;&gt;Speed -->
<g id="edge10" class="edge">
<title>&#45;8&#45;&gt;Speed</title>
<path fill="none" stroke="red" stroke-width="0.25" d="M19.15,-180.09C22.94,-176.07 27.88,-171.43 33,-168.17 72.61,-142.97 124.09,-125.43 158.04,-115.62"/>
<polygon fill="red" stroke="red" stroke-width="0.25" points="159.31,-118.9 167.99,-112.82 157.41,-112.16 159.31,-118.9"/>
</g>
<!-- 32&#45;&gt;Angle -->
<g id="edge12" class="edge">
<title>32&#45;&gt;Angle</title>
<path fill="none" stroke="green" stroke-width="0.27" d="M395.82,-177.53C391.72,-174.46 387.21,-171.14 383,-168.17 362.58,-153.75 339.14,-138.16 320.91,-126.24"/>
<polygon fill="green" stroke="green" stroke-width="0.27" points="322.7,-123.23 312.41,-120.7 318.88,-129.1 322.7,-123.23"/>
</g>
<!-- 1019 -->
<g id="node13" class="node">
<title>1019</title>
<ellipse fill="white" stroke="black" cx="436" cy="-105.3" rx="25" ry="25"/>
<text text-anchor="middle" x="436" y="-103.1" font-family="Times New Roman,serif" font-size="9.00">1019</text>
</g>
<!-- 32&#45;&gt;1019 -->
<g id="edge17" class="edge">
<title>32&#45;&gt;1019</title>
<path fill="none" stroke="red" stroke-width="0.29" d="M415.39,-171.37C418.35,-162.02 422.12,-150.11 425.63,-139.03"/>
<polygon fill="red" stroke="red" stroke-width="0.29" points="429.06,-139.79 428.75,-129.2 422.39,-137.68 429.06,-139.79"/>
</g>
<!-- 221 -->
<g id="node14" class="node">
<title>221</title>
<ellipse fill="white" stroke="black" cx="409" cy="-21.21" rx="21.43" ry="21.43"/>
<text text-anchor="middle" x="409" y="-19.01" font-family="Times New Roman,serif" font-size="9.00">221</text>
</g>
<!-- 32&#45;&gt;221 -->
<g id="edge14" class="edge">
<title>32&#45;&gt;221</title>
<path fill="none" stroke="red" stroke-width="0.11" stroke-dasharray="1,5" d="M406.92,-171.23C405.08,-160.13 402.93,-145.34 402,-132.17 400.31,-108.34 400.52,-102.27 402,-78.43 402.52,-70.01 403.48,-60.92 404.52,-52.55"/>
<polygon fill="red" stroke="red" stroke-width="0.11" points="408.02,-52.83 405.86,-42.45 401.08,-51.9 408.02,-52.83"/>
</g>
<!-- 1019&#45;&gt;221 -->
<g id="edge18" class="edge">
<title>1019&#45;&gt;221</title>
<path fill="none" stroke="red" stroke-width="0.3" d="M428.48,-81.43C425.42,-72.14 421.85,-61.28 418.61,-51.43"/>
<polygon fill="red" stroke="red" stroke-width="0.3" points="421.83,-50.03 415.38,-41.62 415.18,-52.21 421.83,-50.03"/>
</g>
</g>
</svg>
