<?xml version="1.0" encoding="UTF-8" standalone="no"?>
<!DOCTYPE svg PUBLIC "-//W3C//DTD SVG 1.1//EN"
 "http://www.w3.org/Graphics/SVG/1.1/DTD/svg11.dtd">
<!-- Generated by graphviz version 2.47.0 (20210316.0004)
 -->
<!-- Pages: 1 -->
<svg width="365pt" height="372pt"
 viewBox="0.00 0.00 365.21 372.23" xmlns="http://www.w3.org/2000/svg" xmlns:xlink="http://www.w3.org/1999/xlink">
<g id="graph0" class="graph" transform="scale(1 1) rotate(0) translate(4 368.23)">
<polygon fill="white" stroke="transparent" points="-4,4 -4,-368.23 361.21,-368.23 361.21,4 -4,4"/>
<!-- &#45;1 -->
<g id="node1" class="node">
<title>&#45;1</title>
<polygon fill="lightgray" stroke="black" points="151.21,-294.48 127.21,-294.48 127.21,-276.48 151.21,-276.48 151.21,-294.48"/>
<text text-anchor="middle" x="139.21" y="-283.28" font-family="Times New Roman,serif" font-size="9.00">&#45;1</text>
</g>
<!-- Speed -->
<g id="node9" class="node">
<title>Speed</title>
<ellipse fill="lightblue" stroke="black" cx="112.21" cy="-197.87" rx="26.74" ry="26.74"/>
<text text-anchor="middle" x="112.21" y="-195.67" font-family="Times New Roman,serif" font-size="9.00">Speed</text>
</g>
<!-- &#45;1&#45;&gt;Speed -->
<g id="edge14" class="edge">
<title>&#45;1&#45;&gt;Speed</title>
<path fill="none" stroke="green" stroke-width="0.53" d="M136.62,-276.27C133.52,-266.45 128.14,-249.38 123.21,-233.76"/>
<polygon fill="green" stroke="green" stroke-width="0.53" points="126.41,-232.28 120.07,-223.8 119.74,-234.39 126.41,-232.28"/>
</g>
<!-- Angle -->
<g id="node10" class="node">
<title>Angle</title>
<ellipse fill="lightblue" stroke="black" cx="243.21" cy="-197.87" rx="26.74" ry="26.74"/>
<text text-anchor="middle" x="243.21" y="-195.67" font-family="Times New Roman,serif" font-size="9.00">Angle</text>
</g>
<!-- &#45;1&#45;&gt;Angle -->
<g id="edge1" class="edge">
<title>&#45;1&#45;&gt;Angle</title>
<path fill="none" stroke="red" stroke-width="0.26" stroke-dasharray="1,5" d="M145.82,-276.19C149.77,-271.44 155.02,-265.5 160.21,-260.74 176.5,-245.75 196.33,-230.86 212.52,-219.44"/>
<polygon fill="red" stroke="red" stroke-width="0.26" points="214.89,-222.06 221.1,-213.48 210.89,-216.31 214.89,-222.06"/>
</g>
<!-- &#45;2 -->
<g id="node2" class="node">
<title>&#45;2</title>
<polygon fill="lightgray" stroke="black" points="96.21,-364.23 72.21,-364.23 72.21,-346.23 96.21,-346.23 96.21,-364.23"/>
<text text-anchor="middle" x="84.21" y="-353.03" font-family="Times New Roman,serif" font-size="9.00">&#45;2</text>
</g>
<!-- &#45;2&#45;&gt;Speed -->
<g id="edge2" class="edge">
<title>&#45;2&#45;&gt;Speed</title>
<path fill="none" stroke="green" stroke-width="0.19" d="M72.01,-351.27C54.27,-346.24 21.99,-334.14 8.21,-310.23 -2.78,-291.17 -2.67,-279.86 8.21,-260.74 22.81,-235.05 52.75,-218.92 76.77,-209.59"/>
<polygon fill="green" stroke="green" stroke-width="0.19" points="78.11,-212.83 86.31,-206.11 75.72,-206.25 78.11,-212.83"/>
</g>
<!-- &#45;2&#45;&gt;Angle -->
<g id="edge3" class="edge">
<title>&#45;2&#45;&gt;Angle</title>
<path fill="none" stroke="green" stroke-width="0.12" stroke-dasharray="1,5" d="M96.56,-349.27C99.38,-348.2 102.38,-347.13 105.21,-346.23 166.01,-326.84 205.15,-360.7 244.21,-310.23 260.77,-288.83 258.92,-257.53 253.84,-233.56"/>
<polygon fill="green" stroke="green" stroke-width="0.12" points="257.23,-232.7 251.51,-223.78 250.43,-234.32 257.23,-232.7"/>
</g>
<!-- 2019 -->
<g id="node11" class="node">
<title>2019</title>
<ellipse fill="white" stroke="black" cx="84.21" cy="-285.48" rx="25" ry="25"/>
<text text-anchor="middle" x="84.21" y="-283.28" font-family="Times New Roman,serif" font-size="9.00">2019</text>
</g>
<!-- &#45;2&#45;&gt;2019 -->
<g id="edge12" class="edge">
<title>&#45;2&#45;&gt;2019</title>
<path fill="none" stroke="green" stroke-width="0.25" d="M84.21,-346.19C84.21,-339.76 84.21,-330.26 84.21,-320.73"/>
<polygon fill="green" stroke="green" stroke-width="0.25" points="87.71,-320.51 84.21,-310.51 80.71,-320.51 87.71,-320.51"/>
</g>
<!-- &#45;3 -->
<g id="node3" class="node">
<title>&#45;3</title>
<polygon fill="lightgray" stroke="black" points="193.21,-294.48 169.21,-294.48 169.21,-276.48 193.21,-276.48 193.21,-294.48"/>
<text text-anchor="middle" x="181.21" y="-283.28" font-family="Times New Roman,serif" font-size="9.00">&#45;3</text>
</g>
<!-- &#45;3&#45;&gt;Speed -->
<g id="edge4" class="edge">
<title>&#45;3&#45;&gt;Speed</title>
<path fill="none" stroke="green" stroke-width="0.19" stroke-dasharray="1,5" d="M174.59,-276.27C165.6,-265.12 149.08,-244.62 135.29,-227.51"/>
<polygon fill="green" stroke="green" stroke-width="0.19" points="137.79,-225.04 128.79,-219.45 132.34,-229.43 137.79,-225.04"/>
</g>
<!-- &#45;3&#45;&gt;Angle -->
<g id="edge5" class="edge">
<title>&#45;3&#45;&gt;Angle</title>
<path fill="none" stroke="green" stroke-width="0.29" d="M187.15,-276.27C195.05,-265.37 209.43,-245.51 221.64,-228.64"/>
<polygon fill="green" stroke="green" stroke-width="0.29" points="224.76,-230.31 227.79,-220.15 219.09,-226.2 224.76,-230.31"/>
</g>
<!-- &#45;4 -->
<g id="node4" class="node">
<title>&#45;4</title>
<polygon fill="lightgray" stroke="black" points="315.21,-294.48 291.21,-294.48 291.21,-276.48 315.21,-276.48 315.21,-294.48"/>
<text text-anchor="middle" x="303.21" y="-283.28" font-family="Times New Roman,serif" font-size="9.00">&#45;4</text>
</g>
<!-- &#45;4&#45;&gt;Angle -->
<g id="edge6" class="edge">
<title>&#45;4&#45;&gt;Angle</title>
<path fill="none" stroke="green" stroke-width="0.43" d="M297.45,-276.27C289.86,-265.44 276.08,-245.77 264.3,-228.97"/>
<polygon fill="green" stroke="green" stroke-width="0.43" points="266.98,-226.69 258.38,-220.51 261.25,-230.71 266.98,-226.69"/>
</g>
<!-- &#45;5 -->
<g id="node5" class="node">
<title>&#45;5</title>
<polygon fill="lightgray" stroke="black" points="357.21,-294.48 333.21,-294.48 333.21,-276.48 357.21,-276.48 357.21,-294.48"/>
<text text-anchor="middle" x="345.21" y="-283.28" font-family="Times New Roman,serif" font-size="9.00">&#45;5</text>
</g>
<!-- &#45;5&#45;&gt;Angle -->
<g id="edge7" class="edge">
<title>&#45;5&#45;&gt;Angle</title>
<path fill="none" stroke="green" stroke-width="0.17" d="M338.57,-276.21C334.61,-271.47 329.36,-265.53 324.21,-260.74 308.36,-245.99 289.16,-231.2 273.43,-219.79"/>
<polygon fill="green" stroke="green" stroke-width="0.17" points="275.26,-216.79 265.09,-213.81 271.18,-222.48 275.26,-216.79"/>
</g>
<!-- &#45;6 -->
<g id="node6" class="node">
<title>&#45;6</title>
<polygon fill="lightgray" stroke="black" points="235.21,-294.48 211.21,-294.48 211.21,-276.48 235.21,-276.48 235.21,-294.48"/>
<text text-anchor="middle" x="223.21" y="-283.28" font-family="Times New Roman,serif" font-size="9.00">&#45;6</text>
</g>
<!-- &#45;6&#45;&gt;Speed -->
<g id="edge8" class="edge">
<title>&#45;6&#45;&gt;Speed</title>
<path fill="none" stroke="green" stroke-width="0.19" stroke-dasharray="1,5" d="M216.66,-276.11C212.73,-271.34 207.48,-265.4 202.21,-260.74 184.19,-244.79 161.92,-229.45 144.05,-218.04"/>
<polygon fill="green" stroke="green" stroke-width="0.19" points="145.47,-214.8 135.14,-212.44 141.75,-220.73 145.47,-214.8"/>
</g>
<!-- &#45;6&#45;&gt;Angle -->
<g id="edge9" class="edge">
<title>&#45;6&#45;&gt;Angle</title>
<path fill="none" stroke="red" stroke-width="0.28" d="M225.12,-276.27C227.4,-266.52 231.35,-249.62 234.98,-234.09"/>
<polygon fill="red" stroke="red" stroke-width="0.28" points="238.43,-234.71 237.29,-224.17 231.61,-233.12 238.43,-234.71"/>
</g>
<!-- &#45;7 -->
<g id="node7" class="node">
<title>&#45;7</title>
<polygon fill="lightgray" stroke="black" points="41.21,-294.48 17.21,-294.48 17.21,-276.48 41.21,-276.48 41.21,-294.48"/>
<text text-anchor="middle" x="29.21" y="-283.28" font-family="Times New Roman,serif" font-size="9.00">&#45;7</text>
</g>
<!-- &#45;7&#45;&gt;Speed -->
<g id="edge10" class="edge">
<title>&#45;7&#45;&gt;Speed</title>
<path fill="none" stroke="green" stroke-width="0.19" d="M36.08,-276.46C40.13,-271.8 45.38,-265.86 50.21,-260.74 61.64,-248.59 74.66,-235.49 85.8,-224.49"/>
<polygon fill="green" stroke="green" stroke-width="0.19" points="88.5,-226.75 93.18,-217.25 83.59,-221.76 88.5,-226.75"/>
</g>
<!-- &#45;8 -->
<g id="node8" class="node">
<title>&#45;8</title>
<polygon fill="lightgray" stroke="black" points="138.21,-364.23 114.21,-364.23 114.21,-346.23 138.21,-346.23 138.21,-364.23"/>
<text text-anchor="middle" x="126.21" y="-353.03" font-family="Times New Roman,serif" font-size="9.00">&#45;8</text>
</g>
<!-- 2116 -->
<g id="node12" class="node">
<title>2116</title>
<ellipse fill="white" stroke="black" cx="139.21" cy="-110.25" rx="25" ry="25"/>
<text text-anchor="middle" x="139.21" y="-108.05" font-family="Times New Roman,serif" font-size="9.00">2116</text>
</g>
<!-- Speed&#45;&gt;2116 -->
<g id="edge15" class="edge">
<title>Speed&#45;&gt;2116</title>
<path fill="none" stroke="green" stroke-width="0.3" d="M120.02,-172.1C122.78,-163.32 125.94,-153.31 128.89,-143.97"/>
<polygon fill="green" stroke="green" stroke-width="0.3" points="132.3,-144.79 131.97,-134.2 125.62,-142.68 132.3,-144.79"/>
</g>
<!-- 1909 -->
<g id="node13" class="node">
<title>1909</title>
<ellipse fill="white" stroke="black" cx="112.21" cy="-24.75" rx="25" ry="25"/>
<text text-anchor="middle" x="112.21" y="-22.55" font-family="Times New Roman,serif" font-size="9.00">1909</text>
</g>
<!-- Speed&#45;&gt;1909 -->
<g id="edge11" class="edge">
<title>Speed&#45;&gt;1909</title>
<path fill="none" stroke="red" stroke-width="0.28" stroke-dasharray="1,5" d="M108.63,-171.03C107.26,-159.96 105.88,-146.87 105.21,-134.99 103.97,-113.03 103.92,-107.46 105.21,-85.5 105.7,-77.05 106.58,-67.96 107.56,-59.48"/>
<polygon fill="red" stroke="red" stroke-width="0.28" points="111.03,-59.88 108.77,-49.53 104.09,-59.03 111.03,-59.88"/>
</g>
<!-- 2019&#45;&gt;Speed -->
<g id="edge13" class="edge">
<title>2019&#45;&gt;Speed</title>
<path fill="none" stroke="green" stroke-width="0.12" d="M91.71,-261.54C94.55,-252.86 97.84,-242.79 100.95,-233.29"/>
<polygon fill="green" stroke="green" stroke-width="0.12" points="104.31,-234.27 104.09,-223.68 97.66,-232.09 104.31,-234.27"/>
</g>
<!-- 2116&#45;&gt;1909 -->
<g id="edge16" class="edge">
<title>2116&#45;&gt;1909</title>
<path fill="none" stroke="red" stroke-width="0.19" d="M131.83,-86.43C129,-77.69 125.72,-67.54 122.66,-58.07"/>
<polygon fill="red" stroke="red" stroke-width="0.19" points="125.98,-56.98 119.57,-48.54 119.32,-59.13 125.98,-56.98"/>
</g>
</g>
</svg>
