<?xml version="1.0" encoding="UTF-8" standalone="no"?>
<!DOCTYPE svg PUBLIC "-//W3C//DTD SVG 1.1//EN"
 "http://www.w3.org/Graphics/SVG/1.1/DTD/svg11.dtd">
<!-- Generated by graphviz version 2.47.0 (20210316.0004)
 -->
<!-- Pages: 1 -->
<svg width="464pt" height="280pt"
 viewBox="0.00 0.00 464.21 279.66" xmlns="http://www.w3.org/2000/svg" xmlns:xlink="http://www.w3.org/1999/xlink">
<g id="graph0" class="graph" transform="scale(1 1) rotate(0) translate(4 275.66)">
<polygon fill="white" stroke="transparent" points="-4,4 -4,-275.66 460.21,-275.66 460.21,4 -4,4"/>
<!-- &#45;1 -->
<g id="node1" class="node">
<title>&#45;1</title>
<polygon fill="lightgray" stroke="black" points="108,-123.49 84,-123.49 84,-105.49 108,-105.49 108,-123.49"/>
<text text-anchor="middle" x="96" y="-112.29" font-family="Times New Roman,serif" font-size="9.00">&#45;1</text>
</g>
<!-- Speed -->
<g id="node9" class="node">
<title>Speed</title>
<ellipse fill="lightblue" stroke="black" cx="54" cy="-26.87" rx="26.74" ry="26.74"/>
<text text-anchor="middle" x="54" y="-24.67" font-family="Times New Roman,serif" font-size="9.00">Speed</text>
</g>
<!-- &#45;1&#45;&gt;Speed -->
<g id="edge1" class="edge">
<title>&#45;1&#45;&gt;Speed</title>
<path fill="none" stroke="green" stroke-width="0.2" d="M91.97,-105.28C86.93,-94.99 77.98,-76.75 70.03,-60.55"/>
<polygon fill="green" stroke="green" stroke-width="0.2" points="73.05,-58.76 65.51,-51.33 66.77,-61.85 73.05,-58.76"/>
</g>
<!-- Angle -->
<g id="node10" class="node">
<title>Angle</title>
<ellipse fill="lightblue" stroke="black" cx="244" cy="-26.87" rx="26.74" ry="26.74"/>
<text text-anchor="middle" x="244" y="-24.67" font-family="Times New Roman,serif" font-size="9.00">Angle</text>
</g>
<!-- &#45;1&#45;&gt;Angle -->
<g id="edge2" class="edge">
<title>&#45;1&#45;&gt;Angle</title>
<path fill="none" stroke="red" stroke-width="0.38" stroke-dasharray="1,5" d="M101.94,-105.27C105.81,-100.31 111.22,-94.14 117,-89.74 145.34,-68.19 182.38,-51.19 209.14,-40.5"/>
<polygon fill="red" stroke="red" stroke-width="0.38" points="210.45,-43.75 218.5,-36.85 207.91,-37.22 210.45,-43.75"/>
</g>
<!-- &#45;2 -->
<g id="node2" class="node">
<title>&#45;2</title>
<polygon fill="lightgray" stroke="black" points="371,-271.66 347,-271.66 347,-253.66 371,-253.66 371,-271.66"/>
<text text-anchor="middle" x="359" y="-260.46" font-family="Times New Roman,serif" font-size="9.00">&#45;2</text>
</g>
<!-- 429 -->
<g id="node13" class="node">
<title>429</title>
<ellipse fill="white" stroke="black" cx="359" cy="-196.45" rx="21.43" ry="21.43"/>
<text text-anchor="middle" x="359" y="-194.25" font-family="Times New Roman,serif" font-size="9.00">429</text>
</g>
<!-- &#45;2&#45;&gt;429 -->
<g id="edge8" class="edge">
<title>&#45;2&#45;&gt;429</title>
<path fill="none" stroke="green" stroke-width="0.3" d="M359,-253.53C359,-246.99 359,-237.36 359,-227.92"/>
<polygon fill="green" stroke="green" stroke-width="0.3" points="362.5,-227.91 359,-217.91 355.5,-227.91 362.5,-227.91"/>
</g>
<!-- &#45;3 -->
<g id="node3" class="node">
<title>&#45;3</title>
<polygon fill="lightgray" stroke="black" points="24,-123.49 0,-123.49 0,-105.49 24,-105.49 24,-123.49"/>
<text text-anchor="middle" x="12" y="-112.29" font-family="Times New Roman,serif" font-size="9.00">&#45;3</text>
</g>
<!-- &#45;3&#45;&gt;Speed -->
<g id="edge3" class="edge">
<title>&#45;3&#45;&gt;Speed</title>
<path fill="none" stroke="green" stroke-width="0.33" d="M16.03,-105.28C21.07,-94.99 30.02,-76.75 37.97,-60.55"/>
<polygon fill="green" stroke="green" stroke-width="0.33" points="41.23,-61.85 42.49,-51.33 34.95,-58.76 41.23,-61.85"/>
</g>
<!-- &#45;4 -->
<g id="node4" class="node">
<title>&#45;4</title>
<polygon fill="lightgray" stroke="black" points="150,-123.49 126,-123.49 126,-105.49 150,-105.49 150,-123.49"/>
<text text-anchor="middle" x="138" y="-112.29" font-family="Times New Roman,serif" font-size="9.00">&#45;4</text>
</g>
<!-- &#45;4&#45;&gt;Angle -->
<g id="edge4" class="edge">
<title>&#45;4&#45;&gt;Angle</title>
<path fill="none" stroke="green" stroke-width="0.27" d="M144.59,-105.17C148.54,-100.42 153.79,-94.48 159,-89.74 175.9,-74.37 196.6,-59.24 213.34,-47.78"/>
<polygon fill="green" stroke="green" stroke-width="0.27" points="215.36,-50.64 221.69,-42.15 211.44,-44.84 215.36,-50.64"/>
</g>
<!-- &#45;5 -->
<g id="node5" class="node">
<title>&#45;5</title>
<polygon fill="lightgray" stroke="black" points="413,-271.66 389,-271.66 389,-253.66 413,-253.66 413,-271.66"/>
<text text-anchor="middle" x="401" y="-260.46" font-family="Times New Roman,serif" font-size="9.00">&#45;5</text>
</g>
<!-- &#45;6 -->
<g id="node6" class="node">
<title>&#45;6</title>
<polygon fill="lightgray" stroke="black" points="192,-123.49 168,-123.49 168,-105.49 192,-105.49 192,-123.49"/>
<text text-anchor="middle" x="180" y="-112.29" font-family="Times New Roman,serif" font-size="9.00">&#45;6</text>
</g>
<!-- &#45;6&#45;&gt;Angle -->
<g id="edge5" class="edge">
<title>&#45;6&#45;&gt;Angle</title>
<path fill="none" stroke="red" stroke-width="0.26" d="M186.14,-105.28C194.42,-94.2 209.6,-73.89 222.34,-56.85"/>
<polygon fill="red" stroke="red" stroke-width="0.26" points="225.17,-58.91 228.35,-48.8 219.56,-54.72 225.17,-58.91"/>
</g>
<!-- &#45;7 -->
<g id="node7" class="node">
<title>&#45;7</title>
<polygon fill="lightgray" stroke="black" points="66,-123.49 42,-123.49 42,-105.49 66,-105.49 66,-123.49"/>
<text text-anchor="middle" x="54" y="-112.29" font-family="Times New Roman,serif" font-size="9.00">&#45;7</text>
</g>
<!-- &#45;7&#45;&gt;Speed -->
<g id="edge6" class="edge">
<title>&#45;7&#45;&gt;Speed</title>
<path fill="none" stroke="red" stroke-width="0.36" stroke-dasharray="1,5" d="M54,-105.28C54,-95.76 54,-79.41 54,-64.19"/>
<polygon fill="red" stroke="red" stroke-width="0.36" points="57.5,-63.93 54,-53.93 50.5,-63.93 57.5,-63.93"/>
</g>
<!-- &#45;8 -->
<g id="node8" class="node">
<title>&#45;8</title>
<polygon fill="lightgray" stroke="black" points="281,-205.45 257,-205.45 257,-187.45 281,-187.45 281,-205.45"/>
<text text-anchor="middle" x="269" y="-194.25" font-family="Times New Roman,serif" font-size="9.00">&#45;8</text>
</g>
<!-- &#45;8&#45;&gt;Angle -->
<g id="edge7" class="edge">
<title>&#45;8&#45;&gt;Angle</title>
<path fill="none" stroke="red" stroke-width="0.15" d="M262.92,-187.23C255.57,-176.73 243.62,-157.7 239,-139.24 232.8,-114.44 234.33,-85.58 237.26,-63.46"/>
<polygon fill="red" stroke="red" stroke-width="0.15" points="240.73,-63.9 238.73,-53.5 233.81,-62.88 240.73,-63.9"/>
</g>
<!-- 933 -->
<g id="node11" class="node">
<title>933</title>
<ellipse fill="white" stroke="black" cx="269" cy="-114.49" rx="21.43" ry="21.43"/>
<text text-anchor="middle" x="269" y="-112.29" font-family="Times New Roman,serif" font-size="9.00">933</text>
</g>
<!-- &#45;8&#45;&gt;933 -->
<g id="edge11" class="edge">
<title>&#45;8&#45;&gt;933</title>
<path fill="none" stroke="green" stroke-width="0.32" d="M269,-187.19C269,-177.56 269,-161.07 269,-146.33"/>
<polygon fill="green" stroke="green" stroke-width="0.32" points="272.5,-146.03 269,-136.03 265.5,-146.03 272.5,-146.03"/>
</g>
<!-- 1927 -->
<g id="node12" class="node">
<title>1927</title>
<ellipse fill="white" stroke="black" cx="333" cy="-114.49" rx="25" ry="25"/>
<text text-anchor="middle" x="333" y="-112.29" font-family="Times New Roman,serif" font-size="9.00">1927</text>
</g>
<!-- &#45;8&#45;&gt;1927 -->
<g id="edge15" class="edge">
<title>&#45;8&#45;&gt;1927</title>
<path fill="none" stroke="green" stroke-width="0.12" d="M275.61,-187.19C284.04,-176.66 299.03,-157.93 311.58,-142.25"/>
<polygon fill="green" stroke="green" stroke-width="0.12" points="314.36,-144.38 317.87,-134.39 308.89,-140.01 314.36,-144.38"/>
</g>
<!-- 933&#45;&gt;Angle -->
<g id="edge12" class="edge">
<title>933&#45;&gt;Angle</title>
<path fill="none" stroke="red" stroke-width="0.15" d="M263.2,-93.63C260.51,-84.42 257.24,-73.2 254.16,-62.65"/>
<polygon fill="red" stroke="red" stroke-width="0.15" points="257.45,-61.45 251.29,-52.84 250.73,-63.42 257.45,-61.45"/>
</g>
<!-- 1927&#45;&gt;Angle -->
<g id="edge14" class="edge">
<title>1927&#45;&gt;Angle</title>
<path fill="none" stroke="green" stroke-width="0.38" d="M315.42,-96.57C302.56,-84.21 284.9,-67.22 270.37,-53.23"/>
<polygon fill="green" stroke="green" stroke-width="0.38" points="272.72,-50.64 263.09,-46.23 267.87,-55.69 272.72,-50.64"/>
</g>
<!-- 429&#45;&gt;Angle -->
<g id="edge9" class="edge">
<title>429&#45;&gt;Angle</title>
<path fill="none" stroke="green" stroke-width="0.38" stroke-dasharray="1,5" d="M366.8,-176.3C374.61,-153.81 383.32,-116.22 367,-89.74 348.21,-59.25 309.28,-43.26 280.22,-35.24"/>
<polygon fill="green" stroke="green" stroke-width="0.38" points="280.96,-31.81 270.4,-32.72 279.22,-38.59 280.96,-31.81"/>
</g>
<!-- 429&#45;&gt;1927 -->
<g id="edge13" class="edge">
<title>429&#45;&gt;1927</title>
<path fill="none" stroke="green" stroke-width="0.3" d="M352.71,-176.09C349.96,-167.66 346.67,-157.53 343.57,-147.99"/>
<polygon fill="green" stroke="green" stroke-width="0.3" points="346.86,-146.79 340.44,-138.36 340.2,-148.95 346.86,-146.79"/>
</g>
<!-- 592 -->
<g id="node14" class="node">
<title>592</title>
<ellipse fill="white" stroke="black" cx="435" cy="-114.49" rx="21.43" ry="21.43"/>
<text text-anchor="middle" x="435" y="-112.29" font-family="Times New Roman,serif" font-size="9.00">592</text>
</g>
<!-- 592&#45;&gt;Angle -->
<g id="edge10" class="edge">
<title>592&#45;&gt;Angle</title>
<path fill="none" stroke="green" stroke-width="0.11" stroke-dasharray="1,5" d="M418.38,-101.12C412.71,-97.2 406.23,-93.04 400,-89.74 360.15,-68.65 311.47,-50.45 279.2,-39.35"/>
<polygon fill="green" stroke="green" stroke-width="0.11" points="279.93,-35.9 269.33,-36 277.68,-42.53 279.93,-35.9"/>
</g>
</g>
</svg>
