<?xml version="1.0" encoding="UTF-8" standalone="no"?>
<!DOCTYPE svg PUBLIC "-//W3C//DTD SVG 1.1//EN"
 "http://www.w3.org/Graphics/SVG/1.1/DTD/svg11.dtd">
<!-- Generated by graphviz version 2.47.0 (20210316.0004)
 -->
<!-- Pages: 1 -->
<svg width="888pt" height="514pt"
 viewBox="0.00 0.00 888.43 513.53" xmlns="http://www.w3.org/2000/svg" xmlns:xlink="http://www.w3.org/1999/xlink">
<g id="graph0" class="graph" transform="scale(1 1) rotate(0) translate(4 509.53)">
<polygon fill="white" stroke="transparent" points="-4,4 -4,-509.53 884.43,-509.53 884.43,4 -4,4"/>
<!-- &#45;1 -->
<g id="node1" class="node">
<title>&#45;1</title>
<polygon fill="lightgray" stroke="black" points="57.21,-209.69 33.21,-209.69 33.21,-191.69 57.21,-191.69 57.21,-209.69"/>
<text text-anchor="middle" x="45.21" y="-198.49" font-family="Times New Roman,serif" font-size="9.00">&#45;1</text>
</g>
<!-- 73 -->
<g id="node16" class="node">
<title>73</title>
<ellipse fill="white" stroke="black" cx="146.21" cy="-26.87" rx="18.27" ry="18.27"/>
<text text-anchor="middle" x="146.21" y="-24.67" font-family="Times New Roman,serif" font-size="9.00">73</text>
</g>
<!-- &#45;1&#45;&gt;73 -->
<g id="edge14" class="edge">
<title>&#45;1&#45;&gt;73</title>
<path fill="none" stroke="red" stroke-width="0.57" d="M47.94,-191.58C54.43,-172.82 71.93,-125.35 94.21,-89.74 103.53,-74.86 116.16,-59.74 126.64,-48.18"/>
<polygon fill="red" stroke="red" stroke-width="0.57" points="129.26,-50.5 133.48,-40.79 124.12,-45.74 129.26,-50.5"/>
</g>
<!-- 720 -->
<g id="node19" class="node">
<title>720</title>
<ellipse fill="white" stroke="black" cx="21.21" cy="-116.61" rx="21.43" ry="21.43"/>
<text text-anchor="middle" x="21.21" y="-114.41" font-family="Times New Roman,serif" font-size="9.00">720</text>
</g>
<!-- &#45;1&#45;&gt;720 -->
<g id="edge37" class="edge">
<title>&#45;1&#45;&gt;720</title>
<path fill="none" stroke="green" stroke-width="0.29" d="M42.82,-191.52C39.81,-181.21 34.46,-162.91 29.84,-147.1"/>
<polygon fill="green" stroke="green" stroke-width="0.29" points="33.1,-145.79 26.93,-137.18 26.38,-147.76 33.1,-145.79"/>
</g>
<!-- &#45;2 -->
<g id="node2" class="node">
<title>&#45;2</title>
<polygon fill="lightgray" stroke="black" points="549.21,-285.29 525.21,-285.29 525.21,-267.29 549.21,-267.29 549.21,-285.29"/>
<text text-anchor="middle" x="537.21" y="-274.09" font-family="Times New Roman,serif" font-size="9.00">&#45;2</text>
</g>
<!-- Speed -->
<g id="node9" class="node">
<title>Speed</title>
<ellipse fill="lightblue" stroke="black" cx="492.21" cy="-26.87" rx="26.74" ry="26.74"/>
<text text-anchor="middle" x="492.21" y="-24.67" font-family="Times New Roman,serif" font-size="9.00">Speed</text>
</g>
<!-- &#45;2&#45;&gt;Speed -->
<g id="edge1" class="edge">
<title>&#45;2&#45;&gt;Speed</title>
<path fill="none" stroke="green" stroke-width="0.16" d="M544.87,-267.04C568.89,-240.09 639.09,-152.79 602.21,-89.74 586.3,-62.52 553.52,-46.36 527.86,-37.41"/>
<polygon fill="green" stroke="green" stroke-width="0.16" points="528.67,-34 518.08,-34.23 526.5,-40.65 528.67,-34"/>
</g>
<!-- Angle -->
<g id="node10" class="node">
<title>Angle</title>
<ellipse fill="lightblue" stroke="black" cx="239.21" cy="-116.61" rx="26.74" ry="26.74"/>
<text text-anchor="middle" x="239.21" y="-114.41" font-family="Times New Roman,serif" font-size="9.00">Angle</text>
</g>
<!-- &#45;2&#45;&gt;Angle -->
<g id="edge2" class="edge">
<title>&#45;2&#45;&gt;Angle</title>
<path fill="none" stroke="green" stroke-width="0.3" d="M525.15,-275.56C488.63,-275.77 377.4,-272.02 306.21,-221.91 292.7,-212.39 271.27,-176.73 256.3,-149.74"/>
<polygon fill="green" stroke="green" stroke-width="0.3" points="259.37,-148.05 251.49,-140.97 253.23,-151.42 259.37,-148.05"/>
</g>
<!-- 98 -->
<g id="node11" class="node">
<title>98</title>
<ellipse fill="white" stroke="black" cx="575.21" cy="-116.61" rx="18.27" ry="18.27"/>
<text text-anchor="middle" x="575.21" y="-114.41" font-family="Times New Roman,serif" font-size="9.00">98</text>
</g>
<!-- &#45;2&#45;&gt;98 -->
<g id="edge19" class="edge">
<title>&#45;2&#45;&gt;98</title>
<path fill="none" stroke="green" stroke-width="0.28" d="M539.15,-267.26C544.53,-244.92 559.85,-181.34 568.7,-144.64"/>
<polygon fill="green" stroke="green" stroke-width="0.28" points="572.17,-145.16 571.11,-134.62 565.37,-143.52 572.17,-145.16"/>
</g>
<!-- 63 -->
<g id="node25" class="node">
<title>63</title>
<ellipse fill="white" stroke="black" cx="492.21" cy="-200.69" rx="18.27" ry="18.27"/>
<text text-anchor="middle" x="492.21" y="-198.49" font-family="Times New Roman,serif" font-size="9.00">63</text>
</g>
<!-- &#45;2&#45;&gt;63 -->
<g id="edge16" class="edge">
<title>&#45;2&#45;&gt;63</title>
<path fill="none" stroke="green" stroke-width="0.49" d="M532.23,-267.13C526.14,-257.19 515.59,-239.93 506.85,-225.64"/>
<polygon fill="green" stroke="green" stroke-width="0.49" points="509.64,-223.48 501.44,-216.78 503.67,-227.14 509.64,-223.48"/>
</g>
<!-- &#45;3 -->
<g id="node3" class="node">
<title>&#45;3</title>
<polygon fill="lightgray" stroke="black" points="381.21,-209.69 357.21,-209.69 357.21,-191.69 381.21,-191.69 381.21,-209.69"/>
<text text-anchor="middle" x="369.21" y="-198.49" font-family="Times New Roman,serif" font-size="9.00">&#45;3</text>
</g>
<!-- &#45;3&#45;&gt;Speed -->
<g id="edge3" class="edge">
<title>&#45;3&#45;&gt;Speed</title>
<path fill="none" stroke="green" stroke-width="0.16" stroke-dasharray="1,5" d="M368.55,-191.67C367.36,-172.29 366.81,-122.14 389.21,-89.74 405.61,-66.02 434.34,-49.87 457.3,-40.04"/>
<polygon fill="green" stroke="green" stroke-width="0.16" points="458.78,-43.22 466.73,-36.21 456.15,-36.73 458.78,-43.22"/>
</g>
<!-- &#45;3&#45;&gt;Angle -->
<g id="edge4" class="edge">
<title>&#45;3&#45;&gt;Angle</title>
<path fill="none" stroke="green" stroke-width="0.42" d="M361.46,-191.32C357.67,-187.47 352.92,-182.99 348.21,-179.48 324.26,-161.6 294.63,-145.09 272.31,-133.63"/>
<polygon fill="green" stroke="green" stroke-width="0.42" points="273.73,-130.43 263.23,-129.04 270.57,-136.68 273.73,-130.43"/>
</g>
<!-- 292 -->
<g id="node13" class="node">
<title>292</title>
<ellipse fill="white" stroke="black" cx="419.21" cy="-116.61" rx="21.43" ry="21.43"/>
<text text-anchor="middle" x="419.21" y="-114.41" font-family="Times New Roman,serif" font-size="9.00">292</text>
</g>
<!-- &#45;3&#45;&gt;292 -->
<g id="edge26" class="edge">
<title>&#45;3&#45;&gt;292</title>
<path fill="none" stroke="red" stroke-width="0.11" d="M374.19,-191.52C380.9,-180.51 393.17,-160.37 403.2,-143.89"/>
<polygon fill="red" stroke="red" stroke-width="0.11" points="406.29,-145.56 408.5,-135.2 400.31,-141.92 406.29,-145.56"/>
</g>
<!-- &#45;3&#45;&gt;73 -->
<g id="edge29" class="edge">
<title>&#45;3&#45;&gt;73</title>
<path fill="none" stroke="red" stroke-width="0.24" d="M363.99,-191.5C351.06,-171.74 315.63,-120.81 275.21,-89.74 243.61,-65.45 200.93,-47.3 173.48,-37.13"/>
<polygon fill="red" stroke="red" stroke-width="0.24" points="174.36,-33.73 163.76,-33.63 171.99,-40.32 174.36,-33.73"/>
</g>
<!-- &#45;4 -->
<g id="node4" class="node">
<title>&#45;4</title>
<polygon fill="lightgray" stroke="black" points="161.21,-209.69 137.21,-209.69 137.21,-191.69 161.21,-191.69 161.21,-209.69"/>
<text text-anchor="middle" x="149.21" y="-198.49" font-family="Times New Roman,serif" font-size="9.00">&#45;4</text>
</g>
<!-- &#45;4&#45;&gt;Speed -->
<g id="edge5" class="edge">
<title>&#45;4&#45;&gt;Speed</title>
<path fill="none" stroke="green" stroke-width="0.49" stroke-dasharray="1,5" d="M150.7,-191.53C154.89,-170.93 168.84,-116.56 203.21,-89.74 242.27,-59.27 386.82,-39.57 455.51,-31.72"/>
<polygon fill="green" stroke="green" stroke-width="0.49" points="455.91,-35.2 465.46,-30.61 455.13,-28.24 455.91,-35.2"/>
</g>
<!-- &#45;4&#45;&gt;Angle -->
<g id="edge6" class="edge">
<title>&#45;4&#45;&gt;Angle</title>
<path fill="none" stroke="green" stroke-width="0.41" d="M158.17,-191.52C170.62,-180.17 193.69,-159.13 212.04,-142.39"/>
<polygon fill="green" stroke="green" stroke-width="0.41" points="214.54,-144.85 219.57,-135.52 209.83,-139.67 214.54,-144.85"/>
</g>
<!-- &#45;4&#45;&gt;73 -->
<g id="edge23" class="edge">
<title>&#45;4&#45;&gt;73</title>
<path fill="none" stroke="red" stroke-width="0.22" d="M149.07,-191.41C148.65,-167.15 147.39,-95.51 146.7,-55.56"/>
<polygon fill="red" stroke="red" stroke-width="0.22" points="150.19,-55.38 146.52,-45.44 143.2,-55.5 150.19,-55.38"/>
</g>
<!-- &#45;5 -->
<g id="node5" class="node">
<title>&#45;5</title>
<polygon fill="lightgray" stroke="black" points="201.21,-285.29 177.21,-285.29 177.21,-267.29 201.21,-267.29 201.21,-285.29"/>
<text text-anchor="middle" x="189.21" y="-274.09" font-family="Times New Roman,serif" font-size="9.00">&#45;5</text>
</g>
<!-- &#45;5&#45;&gt;Speed -->
<g id="edge7" class="edge">
<title>&#45;5&#45;&gt;Speed</title>
<path fill="none" stroke="green" stroke-width="0.52" stroke-dasharray="1,5" d="M177.05,-268.94C162.31,-260.47 138.21,-243.95 128.21,-221.91 103.2,-166.77 114.97,-128.82 161.21,-89.74 205.3,-52.49 378.31,-35.89 455.12,-30.25"/>
<polygon fill="green" stroke="green" stroke-width="0.52" points="455.57,-33.73 465.3,-29.53 455.08,-26.75 455.57,-33.73"/>
</g>
<!-- &#45;5&#45;&gt;Angle -->
<g id="edge8" class="edge">
<title>&#45;5&#45;&gt;Angle</title>
<path fill="none" stroke="red" stroke-width="0.44" stroke-dasharray="1,5" d="M190.08,-267.15C192.03,-250.38 197.44,-210.92 208.21,-179.48 211.69,-169.34 216.51,-158.75 221.31,-149.25"/>
<polygon fill="red" stroke="red" stroke-width="0.44" points="224.53,-150.66 226.06,-140.18 218.32,-147.42 224.53,-150.66"/>
</g>
<!-- 988 -->
<g id="node24" class="node">
<title>988</title>
<ellipse fill="white" stroke="black" cx="238.21" cy="-200.69" rx="21.43" ry="21.43"/>
<text text-anchor="middle" x="238.21" y="-198.49" font-family="Times New Roman,serif" font-size="9.00">988</text>
</g>
<!-- &#45;5&#45;&gt;988 -->
<g id="edge43" class="edge">
<title>&#45;5&#45;&gt;988</title>
<path fill="none" stroke="green" stroke-width="0.3" d="M194.64,-267.13C200.98,-257.62 211.77,-241.41 221.03,-227.51"/>
<polygon fill="green" stroke="green" stroke-width="0.3" points="224.2,-229.06 226.83,-218.8 218.37,-225.18 224.2,-229.06"/>
</g>
<!-- &#45;6 -->
<g id="node6" class="node">
<title>&#45;6</title>
<polygon fill="lightgray" stroke="black" points="759.21,-285.29 735.21,-285.29 735.21,-267.29 759.21,-267.29 759.21,-285.29"/>
<text text-anchor="middle" x="747.21" y="-274.09" font-family="Times New Roman,serif" font-size="9.00">&#45;6</text>
</g>
<!-- &#45;6&#45;&gt;Speed -->
<g id="edge9" class="edge">
<title>&#45;6&#45;&gt;Speed</title>
<path fill="none" stroke="green" stroke-width="0.12" stroke-dasharray="1,5" d="M751.33,-266.93C764.85,-238.12 804.52,-141.84 758.21,-89.74 728.15,-55.92 595.04,-38.14 529.26,-31.28"/>
<polygon fill="green" stroke="green" stroke-width="0.12" points="529.23,-27.76 518.93,-30.23 528.53,-34.72 529.23,-27.76"/>
</g>
<!-- 679 -->
<g id="node15" class="node">
<title>679</title>
<ellipse fill="white" stroke="black" cx="663.21" cy="-200.69" rx="21.43" ry="21.43"/>
<text text-anchor="middle" x="663.21" y="-198.49" font-family="Times New Roman,serif" font-size="9.00">679</text>
</g>
<!-- &#45;6&#45;&gt;679 -->
<g id="edge34" class="edge">
<title>&#45;6&#45;&gt;679</title>
<path fill="none" stroke="green" stroke-width="0.29" stroke-dasharray="1,5" d="M737.9,-267.13C725.64,-256.39 703.65,-237.13 686.7,-222.27"/>
<polygon fill="green" stroke="green" stroke-width="0.29" points="688.67,-219.35 678.85,-215.39 684.06,-224.61 688.67,-219.35"/>
</g>
<!-- 169 -->
<g id="node17" class="node">
<title>169</title>
<ellipse fill="white" stroke="black" cx="859.21" cy="-200.69" rx="21.43" ry="21.43"/>
<text text-anchor="middle" x="859.21" y="-198.49" font-family="Times New Roman,serif" font-size="9.00">169</text>
</g>
<!-- &#45;6&#45;&gt;169 -->
<g id="edge32" class="edge">
<title>&#45;6&#45;&gt;169</title>
<path fill="none" stroke="red" stroke-width="0.42" d="M756.4,-267.22C760,-264.18 764.21,-260.78 768.21,-257.91 779.75,-249.63 809.98,-231.18 832.45,-217.67"/>
<polygon fill="red" stroke="red" stroke-width="0.42" points="834.45,-220.55 841.22,-212.4 830.85,-214.54 834.45,-220.55"/>
</g>
<!-- 242 -->
<g id="node21" class="node">
<title>242</title>
<ellipse fill="white" stroke="black" cx="728.21" cy="-116.61" rx="21.43" ry="21.43"/>
<text text-anchor="middle" x="728.21" y="-114.41" font-family="Times New Roman,serif" font-size="9.00">242</text>
</g>
<!-- &#45;6&#45;&gt;242 -->
<g id="edge21" class="edge">
<title>&#45;6&#45;&gt;242</title>
<path fill="none" stroke="red" stroke-width="0.14" d="M749.07,-267.25C752.62,-250.67 759.45,-211.55 753.21,-179.48 750.93,-167.73 746.41,-155.38 741.84,-144.83"/>
<polygon fill="red" stroke="red" stroke-width="0.14" points="745.02,-143.37 737.69,-135.72 738.65,-146.27 745.02,-143.37"/>
</g>
<!-- 827 -->
<g id="node23" class="node">
<title>827</title>
<ellipse fill="white" stroke="black" cx="723.21" cy="-200.69" rx="21.43" ry="21.43"/>
<text text-anchor="middle" x="723.21" y="-198.49" font-family="Times New Roman,serif" font-size="9.00">827</text>
</g>
<!-- &#45;6&#45;&gt;827 -->
<g id="edge39" class="edge">
<title>&#45;6&#45;&gt;827</title>
<path fill="none" stroke="green" stroke-width="0.31" d="M744.55,-267.13C741.69,-258.37 736.98,-243.92 732.71,-230.83"/>
<polygon fill="green" stroke="green" stroke-width="0.31" points="736,-229.62 729.57,-221.2 729.35,-231.79 736,-229.62"/>
</g>
<!-- &#45;7 -->
<g id="node7" class="node">
<title>&#45;7</title>
<polygon fill="lightgray" stroke="black" points="679.21,-505.53 655.21,-505.53 655.21,-487.53 679.21,-487.53 679.21,-505.53"/>
<text text-anchor="middle" x="667.21" y="-494.33" font-family="Times New Roman,serif" font-size="9.00">&#45;7</text>
</g>
<!-- 704 -->
<g id="node14" class="node">
<title>704</title>
<ellipse fill="white" stroke="black" cx="692.21" cy="-351.89" rx="21.43" ry="21.43"/>
<text text-anchor="middle" x="692.21" y="-349.69" font-family="Times New Roman,serif" font-size="9.00">704</text>
</g>
<!-- &#45;7&#45;&gt;704 -->
<g id="edge35" class="edge">
<title>&#45;7&#45;&gt;704</title>
<path fill="none" stroke="green" stroke-width="0.3" stroke-dasharray="1,5" d="M668.63,-487.45C672.09,-467.72 681.11,-416.27 686.93,-383.01"/>
<polygon fill="green" stroke="green" stroke-width="0.3" points="690.43,-383.36 688.7,-372.91 683.53,-382.16 690.43,-383.36"/>
</g>
<!-- 974 -->
<g id="node18" class="node">
<title>974</title>
<ellipse fill="white" stroke="black" cx="643.21" cy="-430.32" rx="21.43" ry="21.43"/>
<text text-anchor="middle" x="643.21" y="-428.12" font-family="Times New Roman,serif" font-size="9.00">974</text>
</g>
<!-- &#45;7&#45;&gt;974 -->
<g id="edge40" class="edge">
<title>&#45;7&#45;&gt;974</title>
<path fill="none" stroke="green" stroke-width="0.34" d="M664.17,-487.4C661.55,-480.39 657.61,-469.84 653.85,-459.78"/>
<polygon fill="green" stroke="green" stroke-width="0.34" points="657.13,-458.55 650.35,-450.41 650.57,-461 657.13,-458.55"/>
</g>
<!-- 81 -->
<g id="node20" class="node">
<title>81</title>
<ellipse fill="white" stroke="black" cx="795.21" cy="-276.29" rx="18.27" ry="18.27"/>
<text text-anchor="middle" x="795.21" y="-274.09" font-family="Times New Roman,serif" font-size="9.00">81</text>
</g>
<!-- &#45;7&#45;&gt;81 -->
<g id="edge15" class="edge">
<title>&#45;7&#45;&gt;81</title>
<path fill="none" stroke="green" stroke-width="0.23" d="M671.92,-487.5C689.6,-457.37 752.44,-350.22 780.96,-301.6"/>
<polygon fill="green" stroke="green" stroke-width="0.23" points="784.14,-303.09 786.18,-292.7 778.1,-299.55 784.14,-303.09"/>
</g>
<!-- &#45;7&#45;&gt;63 -->
<g id="edge12" class="edge">
<title>&#45;7&#45;&gt;63</title>
<path fill="none" stroke="green" stroke-width="0.26" d="M655.07,-487.43C643.43,-479.28 625.82,-465.89 613.21,-451.53 559.14,-389.93 548.38,-370.07 516.21,-294.68 507.15,-273.43 500.86,-247.94 497.01,-229.02"/>
<polygon fill="green" stroke="green" stroke-width="0.26" points="500.4,-228.15 495.06,-219 493.53,-229.48 500.4,-228.15"/>
</g>
<!-- &#45;8 -->
<g id="node8" class="node">
<title>&#45;8</title>
<polygon fill="lightgray" stroke="black" points="339.21,-209.69 315.21,-209.69 315.21,-191.69 339.21,-191.69 339.21,-209.69"/>
<text text-anchor="middle" x="327.21" y="-198.49" font-family="Times New Roman,serif" font-size="9.00">&#45;8</text>
</g>
<!-- &#45;8&#45;&gt;Speed -->
<g id="edge10" class="edge">
<title>&#45;8&#45;&gt;Speed</title>
<path fill="none" stroke="green" stroke-width="0.23" stroke-dasharray="1,5" d="M328.02,-191.45C330.37,-171.59 338.87,-120.44 366.21,-89.74 390.1,-62.92 428.25,-46.47 456.32,-37.34"/>
<polygon fill="green" stroke="green" stroke-width="0.23" points="457.64,-40.6 466.16,-34.31 455.58,-33.91 457.64,-40.6"/>
</g>
<!-- &#45;8&#45;&gt;Angle -->
<g id="edge11" class="edge">
<title>&#45;8&#45;&gt;Angle</title>
<path fill="none" stroke="red" stroke-width="0.22" d="M318.45,-191.52C306.28,-180.17 283.72,-159.13 265.78,-142.39"/>
<polygon fill="red" stroke="red" stroke-width="0.22" points="268.12,-139.78 258.42,-135.52 263.34,-144.9 268.12,-139.78"/>
</g>
<!-- Angle&#45;&gt;73 -->
<g id="edge33" class="edge">
<title>Angle&#45;&gt;73</title>
<path fill="none" stroke="red" stroke-width="0.1" d="M219.94,-97.43C204.45,-82.81 182.73,-62.32 166.87,-47.36"/>
<polygon fill="red" stroke="red" stroke-width="0.1" points="168.86,-44.42 159.18,-40.11 164.05,-49.51 168.86,-44.42"/>
</g>
<!-- 98&#45;&gt;Speed -->
<g id="edge18" class="edge">
<title>98&#45;&gt;Speed</title>
<path fill="none" stroke="green" stroke-width="0.44" d="M562.97,-102.66C551.03,-90.05 532.53,-70.49 517.44,-54.53"/>
<polygon fill="green" stroke="green" stroke-width="0.44" points="519.76,-51.9 510.34,-47.04 514.67,-56.71 519.76,-51.9"/>
</g>
<!-- 387 -->
<g id="node12" class="node">
<title>387</title>
<ellipse fill="white" stroke="black" cx="517.21" cy="-116.61" rx="21.43" ry="21.43"/>
<text text-anchor="middle" x="517.21" y="-114.41" font-family="Times New Roman,serif" font-size="9.00">387</text>
</g>
<!-- 387&#45;&gt;Speed -->
<g id="edge28" class="edge">
<title>387&#45;&gt;Speed</title>
<path fill="none" stroke="red" stroke-width="0.3" d="M511.54,-95.7C508.78,-86.02 505.39,-74.1 502.21,-62.97"/>
<polygon fill="red" stroke="red" stroke-width="0.3" points="505.49,-61.71 499.39,-53.05 498.76,-63.62 505.49,-61.71"/>
</g>
<!-- 292&#45;&gt;Speed -->
<g id="edge25" class="edge">
<title>292&#45;&gt;Speed</title>
<path fill="none" stroke="green" stroke-width="0.26" d="M432.6,-99.52C442.65,-87.44 456.67,-70.6 468.58,-56.27"/>
<polygon fill="green" stroke="green" stroke-width="0.26" points="471.61,-58.11 475.31,-48.19 466.22,-53.63 471.61,-58.11"/>
</g>
<!-- 704&#45;&gt;81 -->
<g id="edge36" class="edge">
<title>704&#45;&gt;81</title>
<path fill="none" stroke="green" stroke-width="0.19" d="M709.22,-338.74C726.46,-326.42 753.26,-307.27 772.35,-293.63"/>
<polygon fill="green" stroke="green" stroke-width="0.19" points="774.42,-296.45 780.52,-287.79 770.35,-290.76 774.42,-296.45"/>
</g>
<!-- 500 -->
<g id="node22" class="node">
<title>500</title>
<ellipse fill="white" stroke="black" cx="859.21" cy="-116.61" rx="21.43" ry="21.43"/>
<text text-anchor="middle" x="859.21" y="-114.41" font-family="Times New Roman,serif" font-size="9.00">500</text>
</g>
<!-- 169&#45;&gt;500 -->
<g id="edge30" class="edge">
<title>169&#45;&gt;500</title>
<path fill="none" stroke="red" stroke-width="0.49" d="M859.21,-179.4C859.21,-169.93 859.21,-158.46 859.21,-147.98"/>
<polygon fill="red" stroke="red" stroke-width="0.49" points="862.71,-147.95 859.21,-137.95 855.71,-147.95 862.71,-147.95"/>
</g>
<!-- 974&#45;&gt;98 -->
<g id="edge42" class="edge">
<title>974&#45;&gt;98</title>
<path fill="none" stroke="red" stroke-width="0.29" d="M638.86,-409.34C627.08,-355.34 594.58,-206.38 581.14,-144.8"/>
<polygon fill="red" stroke="red" stroke-width="0.29" points="584.49,-143.72 578.94,-134.69 577.65,-145.21 584.49,-143.72"/>
</g>
<!-- 974&#45;&gt;704 -->
<g id="edge41" class="edge">
<title>974&#45;&gt;704</title>
<path fill="none" stroke="green" stroke-width="0.32" d="M654.33,-411.97C660.6,-402.2 668.55,-389.8 675.54,-378.89"/>
<polygon fill="green" stroke="green" stroke-width="0.32" points="678.69,-380.47 681.14,-370.16 672.79,-376.69 678.69,-380.47"/>
</g>
<!-- 720&#45;&gt;73 -->
<g id="edge38" class="edge">
<title>720&#45;&gt;73</title>
<path fill="none" stroke="red" stroke-width="0.24" d="M37.86,-103.12C43.64,-98.84 50.18,-94.04 56.21,-89.74 78.64,-73.75 104.58,-55.99 122.84,-43.62"/>
<polygon fill="red" stroke="red" stroke-width="0.24" points="124.81,-46.51 131.14,-38 120.89,-40.71 124.81,-46.51"/>
</g>
<!-- 81&#45;&gt;169 -->
<g id="edge20" class="edge">
<title>81&#45;&gt;169</title>
<path fill="none" stroke="red" stroke-width="0.15" d="M806.95,-261.79C815.95,-251.44 828.58,-236.92 839.17,-224.74"/>
<polygon fill="red" stroke="red" stroke-width="0.15" points="841.86,-226.99 845.78,-217.14 836.57,-222.39 841.86,-226.99"/>
</g>
<!-- 242&#45;&gt;Speed -->
<g id="edge22" class="edge">
<title>242&#45;&gt;Speed</title>
<path fill="none" stroke="green" stroke-width="0.39" d="M708.5,-108.28C668.41,-93.38 576.94,-59.37 526.75,-40.71"/>
<polygon fill="green" stroke="green" stroke-width="0.39" points="527.89,-37.4 517.29,-37.19 525.45,-43.96 527.89,-37.4"/>
</g>
<!-- 500&#45;&gt;Speed -->
<g id="edge31" class="edge">
<title>500&#45;&gt;Speed</title>
<path fill="none" stroke="red" stroke-width="0.24" d="M843.78,-101.86C838,-97.36 831.14,-92.75 824.21,-89.74 723.58,-45.96 592.63,-33.12 529.48,-29.39"/>
<polygon fill="red" stroke="red" stroke-width="0.24" points="529.4,-25.88 519.22,-28.83 529.02,-32.87 529.4,-25.88"/>
</g>
<!-- 988&#45;&gt;Angle -->
<g id="edge44" class="edge">
<title>988&#45;&gt;Angle</title>
<path fill="none" stroke="red" stroke-width="0.16" d="M238.46,-179.4C238.56,-171.62 238.67,-162.49 238.77,-153.67"/>
<polygon fill="red" stroke="red" stroke-width="0.16" points="242.27,-153.61 238.9,-143.56 235.28,-153.52 242.27,-153.61"/>
</g>
<!-- 63&#45;&gt;Speed -->
<g id="edge13" class="edge">
<title>63&#45;&gt;Speed</title>
<path fill="none" stroke="green" stroke-width="0.55" stroke-dasharray="1,5" d="M490.26,-182.25C489.12,-171.16 487.79,-156.5 487.21,-143.48 486.15,-119.62 486.25,-113.61 487.21,-89.74 487.55,-81.32 488.15,-72.27 488.82,-63.76"/>
<polygon fill="green" stroke="green" stroke-width="0.55" points="492.31,-63.99 489.66,-53.73 485.34,-63.4 492.31,-63.99"/>
</g>
<!-- 63&#45;&gt;98 -->
<g id="edge17" class="edge">
<title>63&#45;&gt;98</title>
<path fill="none" stroke="green" stroke-width="0.28" d="M504.82,-187.23C518.23,-173.97 539.62,-152.81 555.31,-137.3"/>
<polygon fill="green" stroke="green" stroke-width="0.28" points="557.84,-139.71 562.49,-130.19 552.92,-134.74 557.84,-139.71"/>
</g>
<!-- 63&#45;&gt;387 -->
<g id="edge27" class="edge">
<title>63&#45;&gt;387</title>
<path fill="none" stroke="green" stroke-width="0.3" d="M497.39,-182.69C500.54,-172.34 504.65,-158.85 508.31,-146.83"/>
<polygon fill="green" stroke="green" stroke-width="0.3" points="511.68,-147.78 511.25,-137.19 504.99,-145.74 511.68,-147.78"/>
</g>
<!-- 63&#45;&gt;292 -->
<g id="edge24" class="edge">
<title>63&#45;&gt;292</title>
<path fill="none" stroke="green" stroke-width="0.13" d="M480.48,-186.51C469.53,-174.19 452.95,-155.55 439.8,-140.76"/>
<polygon fill="green" stroke="green" stroke-width="0.13" points="442.16,-138.15 432.9,-133 436.93,-142.8 442.16,-138.15"/>
</g>
</g>
</svg>
