<?xml version="1.0" encoding="UTF-8" standalone="no"?>
<!DOCTYPE svg PUBLIC "-//W3C//DTD SVG 1.1//EN"
 "http://www.w3.org/Graphics/SVG/1.1/DTD/svg11.dtd">
<!-- Generated by graphviz version 2.47.0 (20210316.0004)
 -->
<!-- Pages: 1 -->
<svg width="390pt" height="201pt"
 viewBox="0.00 0.00 390.00 201.24" xmlns="http://www.w3.org/2000/svg" xmlns:xlink="http://www.w3.org/1999/xlink">
<g id="graph0" class="graph" transform="scale(1 1) rotate(0) translate(4 197.24)">
<polygon fill="white" stroke="transparent" points="-4,4 -4,-197.24 386,-197.24 386,4 -4,4"/>
<!-- &#45;1 -->
<g id="node1" class="node">
<title>&#45;1</title>
<polygon fill="lightgray" stroke="black" points="66,-123.49 42,-123.49 42,-105.49 66,-105.49 66,-123.49"/>
<text text-anchor="middle" x="54" y="-112.29" font-family="Times New Roman,serif" font-size="9.00">&#45;1</text>
</g>
<!-- Speed -->
<g id="node9" class="node">
<title>Speed</title>
<ellipse fill="lightblue" stroke="black" cx="75" cy="-26.87" rx="26.74" ry="26.74"/>
<text text-anchor="middle" x="75" y="-24.67" font-family="Times New Roman,serif" font-size="9.00">Speed</text>
</g>
<!-- &#45;1&#45;&gt;Speed -->
<g id="edge10" class="edge">
<title>&#45;1&#45;&gt;Speed</title>
<path fill="none" stroke="green" stroke-width="0.17" stroke-dasharray="1,5" d="M56.01,-105.28C58.41,-95.53 62.55,-78.62 66.36,-63.1"/>
<polygon fill="green" stroke="green" stroke-width="0.17" points="69.81,-63.72 68.79,-53.18 63.01,-62.06 69.81,-63.72"/>
</g>
<!-- Angle -->
<g id="node10" class="node">
<title>Angle</title>
<ellipse fill="lightblue" stroke="black" cx="220" cy="-26.87" rx="26.74" ry="26.74"/>
<text text-anchor="middle" x="220" y="-24.67" font-family="Times New Roman,serif" font-size="9.00">Angle</text>
</g>
<!-- &#45;1&#45;&gt;Angle -->
<g id="edge1" class="edge">
<title>&#45;1&#45;&gt;Angle</title>
<path fill="none" stroke="red" stroke-width="0.34" d="M59.86,-105.16C63.71,-100.17 69.11,-93.99 75,-89.74 108.7,-65.42 153.43,-48.19 184.26,-38.19"/>
<polygon fill="red" stroke="red" stroke-width="0.34" points="185.65,-41.42 194.14,-35.07 183.55,-34.74 185.65,-41.42"/>
</g>
<!-- &#45;2 -->
<g id="node2" class="node">
<title>&#45;2</title>
<polygon fill="lightgray" stroke="black" points="24,-123.49 0,-123.49 0,-105.49 24,-105.49 24,-123.49"/>
<text text-anchor="middle" x="12" y="-112.29" font-family="Times New Roman,serif" font-size="9.00">&#45;2</text>
</g>
<!-- &#45;2&#45;&gt;Speed -->
<g id="edge2" class="edge">
<title>&#45;2&#45;&gt;Speed</title>
<path fill="none" stroke="red" stroke-width="0.13" stroke-dasharray="1,5" d="M18.04,-105.28C26.07,-94.37 40.68,-74.52 53.09,-57.65"/>
<polygon fill="red" stroke="red" stroke-width="0.13" points="56.23,-59.29 59.33,-49.16 50.59,-55.14 56.23,-59.29"/>
</g>
<!-- &#45;3 -->
<g id="node3" class="node">
<title>&#45;3</title>
<polygon fill="lightgray" stroke="black" points="108,-123.49 84,-123.49 84,-105.49 108,-105.49 108,-123.49"/>
<text text-anchor="middle" x="96" y="-112.29" font-family="Times New Roman,serif" font-size="9.00">&#45;3</text>
</g>
<!-- &#45;3&#45;&gt;Speed -->
<g id="edge11" class="edge">
<title>&#45;3&#45;&gt;Speed</title>
<path fill="none" stroke="green" stroke-width="0.23" d="M93.99,-105.28C91.59,-95.53 87.45,-78.62 83.64,-63.1"/>
<polygon fill="green" stroke="green" stroke-width="0.23" points="86.99,-62.06 81.21,-53.18 80.19,-63.72 86.99,-62.06"/>
</g>
<!-- &#45;3&#45;&gt;Angle -->
<g id="edge3" class="edge">
<title>&#45;3&#45;&gt;Angle</title>
<path fill="none" stroke="green" stroke-width="0.33" d="M102.08,-105.44C106.01,-100.55 111.41,-94.39 117,-89.74 138.65,-71.73 166.12,-55.51 187.24,-44.2"/>
<polygon fill="green" stroke="green" stroke-width="0.33" points="188.94,-47.26 196.16,-39.51 185.68,-41.06 188.94,-47.26"/>
</g>
<!-- &#45;4 -->
<g id="node4" class="node">
<title>&#45;4</title>
<polygon fill="lightgray" stroke="black" points="340,-123.49 316,-123.49 316,-105.49 340,-105.49 340,-123.49"/>
<text text-anchor="middle" x="328" y="-112.29" font-family="Times New Roman,serif" font-size="9.00">&#45;4</text>
</g>
<!-- &#45;4&#45;&gt;Angle -->
<g id="edge4" class="edge">
<title>&#45;4&#45;&gt;Angle</title>
<path fill="none" stroke="green" stroke-width="0.28" d="M319.51,-105.37C314.52,-100.68 308.02,-94.74 302,-89.74 285.22,-75.8 265.75,-61.05 249.99,-49.45"/>
<polygon fill="green" stroke="green" stroke-width="0.28" points="251.8,-46.44 241.66,-43.36 247.67,-52.09 251.8,-46.44"/>
</g>
<!-- &#45;5 -->
<g id="node5" class="node">
<title>&#45;5</title>
<polygon fill="lightgray" stroke="black" points="150,-123.49 126,-123.49 126,-105.49 150,-105.49 150,-123.49"/>
<text text-anchor="middle" x="138" y="-112.29" font-family="Times New Roman,serif" font-size="9.00">&#45;5</text>
</g>
<!-- &#45;5&#45;&gt;Speed -->
<g id="edge5" class="edge">
<title>&#45;5&#45;&gt;Speed</title>
<path fill="none" stroke="green" stroke-width="0.43" d="M131.96,-105.28C123.93,-94.37 109.32,-74.52 96.91,-57.65"/>
<polygon fill="green" stroke="green" stroke-width="0.43" points="99.41,-55.14 90.67,-49.16 93.77,-59.29 99.41,-55.14"/>
</g>
<!-- &#45;5&#45;&gt;Angle -->
<g id="edge6" class="edge">
<title>&#45;5&#45;&gt;Angle</title>
<path fill="none" stroke="green" stroke-width="0.18" d="M144.89,-105.48C148.94,-100.83 154.19,-94.89 159,-89.74 170.29,-77.65 183.11,-64.56 194.07,-53.55"/>
<polygon fill="green" stroke="green" stroke-width="0.18" points="196.72,-55.84 201.31,-46.29 191.77,-50.89 196.72,-55.84"/>
</g>
<!-- &#45;6 -->
<g id="node6" class="node">
<title>&#45;6</title>
<polygon fill="lightgray" stroke="black" points="382,-123.49 358,-123.49 358,-105.49 382,-105.49 382,-123.49"/>
<text text-anchor="middle" x="370" y="-112.29" font-family="Times New Roman,serif" font-size="9.00">&#45;6</text>
</g>
<!-- &#45;6&#45;&gt;Angle -->
<g id="edge7" class="edge">
<title>&#45;6&#45;&gt;Angle</title>
<path fill="none" stroke="red" stroke-width="0.27" d="M364.07,-105.25C360.2,-100.3 354.8,-94.12 349,-89.74 320.05,-67.87 282.14,-50.82 254.92,-40.2"/>
<polygon fill="red" stroke="red" stroke-width="0.27" points="256,-36.87 245.41,-36.58 253.52,-43.41 256,-36.87"/>
</g>
<!-- &#45;7 -->
<g id="node7" class="node">
<title>&#45;7</title>
<polygon fill="lightgray" stroke="black" points="252,-193.24 228,-193.24 228,-175.24 252,-175.24 252,-193.24"/>
<text text-anchor="middle" x="240" y="-182.04" font-family="Times New Roman,serif" font-size="9.00">&#45;7</text>
</g>
<!-- &#45;7&#45;&gt;Angle -->
<g id="edge8" class="edge">
<title>&#45;7&#45;&gt;Angle</title>
<path fill="none" stroke="green" stroke-width="0.17" stroke-dasharray="1,5" d="M247.4,-175.23C254.52,-166.94 264.79,-153.26 269,-139.24 275.32,-118.17 276.23,-110.52 269,-89.74 264.3,-76.23 255.28,-63.45 246.25,-53.05"/>
<polygon fill="green" stroke="green" stroke-width="0.17" points="248.76,-50.6 239.42,-45.59 243.59,-55.33 248.76,-50.6"/>
</g>
<!-- 1973 -->
<g id="node11" class="node">
<title>1973</title>
<ellipse fill="white" stroke="black" cx="193" cy="-114.49" rx="25" ry="25"/>
<text text-anchor="middle" x="193" y="-112.29" font-family="Times New Roman,serif" font-size="9.00">1973</text>
</g>
<!-- &#45;7&#45;&gt;1973 -->
<g id="edge12" class="edge">
<title>&#45;7&#45;&gt;1973</title>
<path fill="none" stroke="green" stroke-width="0.3" d="M234.42,-175.2C229.04,-167.44 220.56,-155.21 212.67,-143.84"/>
<polygon fill="green" stroke="green" stroke-width="0.3" points="215.39,-141.62 206.81,-135.4 209.64,-145.61 215.39,-141.62"/>
</g>
<!-- &#45;8 -->
<g id="node8" class="node">
<title>&#45;8</title>
<polygon fill="lightgray" stroke="black" points="260,-123.49 236,-123.49 236,-105.49 260,-105.49 260,-123.49"/>
<text text-anchor="middle" x="248" y="-112.29" font-family="Times New Roman,serif" font-size="9.00">&#45;8</text>
</g>
<!-- &#45;8&#45;&gt;Angle -->
<g id="edge9" class="edge">
<title>&#45;8&#45;&gt;Angle</title>
<path fill="none" stroke="red" stroke-width="0.37" d="M245.32,-105.28C242.07,-95.37 236.41,-78.06 231.27,-62.32"/>
<polygon fill="red" stroke="red" stroke-width="0.37" points="234.59,-61.22 228.15,-52.81 227.94,-63.4 234.59,-61.22"/>
</g>
<!-- 1973&#45;&gt;Angle -->
<g id="edge13" class="edge">
<title>1973&#45;&gt;Angle</title>
<path fill="none" stroke="green" stroke-width="0.17" d="M200.24,-90.54C202.97,-81.87 206.15,-71.79 209.14,-62.29"/>
<polygon fill="green" stroke="green" stroke-width="0.17" points="212.51,-63.27 212.18,-52.68 205.83,-61.17 212.51,-63.27"/>
</g>
</g>
</svg>
