<?xml version="1.0" encoding="UTF-8" standalone="no"?>
<!DOCTYPE svg PUBLIC "-//W3C//DTD SVG 1.1//EN"
 "http://www.w3.org/Graphics/SVG/1.1/DTD/svg11.dtd">
<!-- Generated by graphviz version 2.47.0 (20210316.0004)
 -->
<!-- Pages: 1 -->
<svg width="378pt" height="148pt"
 viewBox="0.00 0.00 377.50 148.27" xmlns="http://www.w3.org/2000/svg" xmlns:xlink="http://www.w3.org/1999/xlink">
<g id="graph0" class="graph" transform="scale(1 1) rotate(0) translate(4 144.27)">
<polygon fill="white" stroke="transparent" points="-4,4 -4,-144.27 373.5,-144.27 373.5,4 -4,4"/>
<!-- 180° -->
<g id="node1" class="node">
<title>180°</title>
<polygon fill="lightgray" stroke="black" points="319.5,-140.27 285.5,-140.27 285.5,-122.27 319.5,-122.27 319.5,-140.27"/>
<text text-anchor="middle" x="302.5" y="-129.07" font-family="Times New Roman,serif" font-size="9.00">180°</text>
</g>
<!-- VELOCITY -->
<g id="node9" class="node">
<title>VELOCITY</title>
<ellipse fill="lightblue" stroke="black" cx="158.5" cy="-43.13" rx="43.27" ry="43.27"/>
<text text-anchor="middle" x="158.5" y="-40.93" font-family="Times New Roman,serif" font-size="9.00">VELOCITY</text>
</g>
<!-- 180°&#45;&gt;VELOCITY -->
<g id="edge1" class="edge">
<title>180°&#45;&gt;VELOCITY</title>
<path fill="none" stroke="red" stroke-width="0.2" d="M285.25,-123.46C266.28,-115.64 235.2,-101.87 210.5,-86.27 206.64,-83.83 202.74,-81.14 198.9,-78.35"/>
<polygon fill="red" stroke="red" stroke-width="0.2" points="200.72,-75.34 190.64,-72.1 196.5,-80.92 200.72,-75.34"/>
</g>
<!-- ANGLE -->
<g id="node10" class="node">
<title>ANGLE</title>
<ellipse fill="lightblue" stroke="black" cx="252.5" cy="-43.13" rx="33.47" ry="33.47"/>
<text text-anchor="middle" x="252.5" y="-40.93" font-family="Times New Roman,serif" font-size="9.00">ANGLE</text>
</g>
<!-- 180°&#45;&gt;ANGLE -->
<g id="edge2" class="edge">
<title>180°&#45;&gt;ANGLE</title>
<path fill="none" stroke="red" stroke-width="0.38" d="M297.71,-122.01C292.19,-112.5 282.75,-96.25 273.92,-81.04"/>
<polygon fill="red" stroke="red" stroke-width="0.38" points="276.87,-79.15 268.83,-72.26 270.82,-82.67 276.87,-79.15"/>
</g>
<!-- &#45;90° -->
<g id="node2" class="node">
<title>&#45;90°</title>
<polygon fill="lightgray" stroke="black" points="369.5,-140.27 337.5,-140.27 337.5,-122.27 369.5,-122.27 369.5,-140.27"/>
<text text-anchor="middle" x="353.5" y="-129.07" font-family="Times New Roman,serif" font-size="9.00">&#45;90°</text>
</g>
<!-- &#45;90°&#45;&gt;VELOCITY -->
<g id="edge3" class="edge">
<title>&#45;90°&#45;&gt;VELOCITY</title>
<path fill="none" stroke="green" stroke-width="0.26" d="M337.37,-125.07C334.42,-124.13 331.37,-123.16 328.5,-122.27 276.17,-105.91 258.92,-112 210.5,-86.27 206.47,-84.12 202.45,-81.64 198.53,-78.98"/>
<polygon fill="green" stroke="green" stroke-width="0.26" points="200.31,-75.95 190.15,-72.93 196.21,-81.62 200.31,-75.95"/>
</g>
<!-- &#45;90°&#45;&gt;ANGLE -->
<g id="edge4" class="edge">
<title>&#45;90°&#45;&gt;ANGLE</title>
<path fill="none" stroke="green" stroke-width="0.38" d="M343.82,-122.01C330.48,-110.63 305.79,-89.58 285.45,-72.23"/>
<polygon fill="green" stroke="green" stroke-width="0.38" points="287.49,-69.38 277.61,-65.55 282.95,-74.7 287.49,-69.38"/>
</g>
<!-- &#45;40° -->
<g id="node3" class="node">
<title>&#45;40°</title>
<polygon fill="lightgray" stroke="black" points="75.5,-140.27 43.5,-140.27 43.5,-122.27 75.5,-122.27 75.5,-140.27"/>
<text text-anchor="middle" x="59.5" y="-129.07" font-family="Times New Roman,serif" font-size="9.00">&#45;40°</text>
</g>
<!-- &#45;40°&#45;&gt;VELOCITY -->
<g id="edge5" class="edge">
<title>&#45;40°&#45;&gt;VELOCITY</title>
<path fill="none" stroke="green" stroke-width="0.15" d="M68.99,-122.01C80.43,-112.06 100.37,-94.71 118.53,-78.91"/>
<polygon fill="green" stroke="green" stroke-width="0.15" points="120.92,-81.46 126.17,-72.26 116.33,-76.18 120.92,-81.46"/>
</g>
<!-- &#45;40°&#45;&gt;ANGLE -->
<g id="edge6" class="edge">
<title>&#45;40°&#45;&gt;ANGLE</title>
<path fill="none" stroke="green" stroke-width="0.24" d="M75.61,-125.03C78.57,-124.09 81.62,-123.14 84.5,-122.27 140.24,-105.39 160.33,-115.84 210.5,-86.27 215.28,-83.45 219.91,-79.96 224.23,-76.2"/>
<polygon fill="green" stroke="green" stroke-width="0.24" points="226.76,-78.62 231.66,-69.23 221.97,-73.52 226.76,-78.62"/>
</g>
<!-- &#45;15° -->
<g id="node4" class="node">
<title>&#45;15°</title>
<polygon fill="lightgray" stroke="black" points="125.5,-140.27 93.5,-140.27 93.5,-122.27 125.5,-122.27 125.5,-140.27"/>
<text text-anchor="middle" x="109.5" y="-129.07" font-family="Times New Roman,serif" font-size="9.00">&#45;15°</text>
</g>
<!-- &#45;15°&#45;&gt;VELOCITY -->
<g id="edge7" class="edge">
<title>&#45;15°&#45;&gt;VELOCITY</title>
<path fill="none" stroke="red" stroke-width="0.15" d="M114.2,-122.01C118.55,-114.35 125.41,-102.31 132.43,-89.96"/>
<polygon fill="red" stroke="red" stroke-width="0.15" points="135.64,-91.4 137.54,-80.98 129.55,-87.94 135.64,-91.4"/>
</g>
<!-- &#45;15°&#45;&gt;ANGLE -->
<g id="edge8" class="edge">
<title>&#45;15°&#45;&gt;ANGLE</title>
<path fill="none" stroke="green" stroke-width="0.34" d="M125.85,-125.27C146.65,-118.46 183.17,-104.92 210.5,-86.27 214.87,-83.29 219.17,-79.81 223.25,-76.16"/>
<polygon fill="green" stroke="green" stroke-width="0.34" points="225.95,-78.43 230.8,-69.01 221.14,-73.35 225.95,-78.43"/>
</g>
<!-- 0° -->
<g id="node5" class="node">
<title>0°</title>
<polygon fill="lightgray" stroke="black" points="25,-140.27 0,-140.27 0,-122.27 25,-122.27 25,-140.27"/>
<text text-anchor="middle" x="12.5" y="-129.07" font-family="Times New Roman,serif" font-size="9.00">0°</text>
</g>
<!-- 0°&#45;&gt;VELOCITY -->
<g id="edge9" class="edge">
<title>0°&#45;&gt;VELOCITY</title>
<path fill="none" stroke="red" stroke-width="0.14" d="M25.2,-122.77C44.59,-111.34 82.51,-88.96 112.97,-70.99"/>
<polygon fill="red" stroke="red" stroke-width="0.14" points="114.91,-73.91 121.75,-65.82 111.36,-67.88 114.91,-73.91"/>
</g>
<!-- 15° -->
<g id="node6" class="node">
<title>15°</title>
<polygon fill="lightgray" stroke="black" points="173,-140.27 144,-140.27 144,-122.27 173,-122.27 173,-140.27"/>
<text text-anchor="middle" x="158.5" y="-129.07" font-family="Times New Roman,serif" font-size="9.00">15°</text>
</g>
<!-- 15°&#45;&gt;VELOCITY -->
<g id="edge10" class="edge">
<title>15°&#45;&gt;VELOCITY</title>
<path fill="none" stroke="green" stroke-width="0.27" d="M158.5,-122.01C158.5,-115.76 158.5,-106.58 158.5,-96.7"/>
<polygon fill="green" stroke="green" stroke-width="0.27" points="162,-96.67 158.5,-86.67 155,-96.67 162,-96.67"/>
</g>
<!-- 15°&#45;&gt;ANGLE -->
<g id="edge11" class="edge">
<title>15°&#45;&gt;ANGLE</title>
<path fill="none" stroke="red" stroke-width="0.23" d="M168.69,-122.08C179.33,-113.42 196.41,-99.25 210.5,-86.27 214.49,-82.59 218.61,-78.65 222.63,-74.71"/>
<polygon fill="red" stroke="red" stroke-width="0.23" points="225.1,-77.2 229.74,-67.67 220.17,-72.22 225.1,-77.2"/>
</g>
<!-- 40° -->
<g id="node7" class="node">
<title>40°</title>
<polygon fill="lightgray" stroke="black" points="220,-140.27 191,-140.27 191,-122.27 220,-122.27 220,-140.27"/>
<text text-anchor="middle" x="205.5" y="-129.07" font-family="Times New Roman,serif" font-size="9.00">40°</text>
</g>
<!-- 40°&#45;&gt;VELOCITY -->
<g id="edge12" class="edge">
<title>40°&#45;&gt;VELOCITY</title>
<path fill="none" stroke="red" stroke-width="0.11" d="M200.99,-122.01C196.85,-114.42 190.36,-102.52 183.69,-90.29"/>
<polygon fill="red" stroke="red" stroke-width="0.11" points="186.69,-88.48 178.82,-81.38 180.54,-91.84 186.69,-88.48"/>
</g>
<!-- 40°&#45;&gt;ANGLE -->
<g id="edge13" class="edge">
<title>40°&#45;&gt;ANGLE</title>
<path fill="none" stroke="red" stroke-width="0.12" stroke-dasharray="1,5" d="M210.01,-122.01C215.11,-112.66 223.77,-96.79 231.95,-81.8"/>
<polygon fill="red" stroke="red" stroke-width="0.12" points="235.22,-83.1 236.94,-72.65 229.08,-79.75 235.22,-83.1"/>
</g>
<!-- 90° -->
<g id="node8" class="node">
<title>90°</title>
<polygon fill="lightgray" stroke="black" points="267,-140.27 238,-140.27 238,-122.27 267,-122.27 267,-140.27"/>
<text text-anchor="middle" x="252.5" y="-129.07" font-family="Times New Roman,serif" font-size="9.00">90°</text>
</g>
<!-- 90°&#45;&gt;VELOCITY -->
<g id="edge14" class="edge">
<title>90°&#45;&gt;VELOCITY</title>
<path fill="none" stroke="green" stroke-width="0.38" d="M243.49,-122.01C232.89,-112.3 214.59,-95.53 197.68,-80.03"/>
<polygon fill="green" stroke="green" stroke-width="0.38" points="199.78,-77.21 190.04,-73.03 195.05,-82.37 199.78,-77.21"/>
</g>
<!-- 90°&#45;&gt;ANGLE -->
<g id="edge15" class="edge">
<title>90°&#45;&gt;ANGLE</title>
<path fill="none" stroke="red" stroke-width="0.42" d="M252.5,-122.01C252.5,-113.69 252.5,-100.19 252.5,-86.75"/>
<polygon fill="red" stroke="red" stroke-width="0.42" points="256,-86.57 252.5,-76.57 249,-86.57 256,-86.57"/>
</g>
</g>
</svg>
