<?xml version="1.0" encoding="UTF-8" standalone="no"?>
<!DOCTYPE svg PUBLIC "-//W3C//DTD SVG 1.1//EN"
 "http://www.w3.org/Graphics/SVG/1.1/DTD/svg11.dtd">
<!-- Generated by graphviz version 2.47.0 (20210316.0004)
 -->
<!-- Pages: 1 -->
<svg width="433pt" height="221pt"
 viewBox="0.00 0.00 432.83 221.04" xmlns="http://www.w3.org/2000/svg" xmlns:xlink="http://www.w3.org/1999/xlink">
<g id="graph0" class="graph" transform="scale(1 1) rotate(0) translate(4 217.04)">
<polygon fill="white" stroke="transparent" points="-4,4 -4,-217.04 428.83,-217.04 428.83,4 -4,4"/>
<!-- 180° -->
<g id="node1" class="node">
<title>180°</title>
<polygon fill="lightgray" stroke="black" points="358.5,-213.04 324.5,-213.04 324.5,-195.04 358.5,-195.04 358.5,-213.04"/>
<text text-anchor="middle" x="341.5" y="-201.84" font-family="Times New Roman,serif" font-size="9.00">180°</text>
</g>
<!-- VELOCITY -->
<g id="node9" class="node">
<title>VELOCITY</title>
<ellipse fill="lightblue" stroke="black" cx="146.5" cy="-43.13" rx="43.27" ry="43.27"/>
<text text-anchor="middle" x="146.5" y="-40.93" font-family="Times New Roman,serif" font-size="9.00">VELOCITY</text>
</g>
<!-- 180°&#45;&gt;VELOCITY -->
<g id="edge1" class="edge">
<title>180°&#45;&gt;VELOCITY</title>
<path fill="none" stroke="green" stroke-width="0.18" stroke-dasharray="1,5" d="M324.42,-202.98C270.46,-202.42 105.21,-197.53 72.5,-159.04 50.24,-132.84 76.88,-99.49 104.19,-75.48"/>
<polygon fill="green" stroke="green" stroke-width="0.18" points="106.51,-78.1 111.88,-68.97 101.99,-72.76 106.51,-78.1"/>
</g>
<!-- ANGLE -->
<g id="node10" class="node">
<title>ANGLE</title>
<ellipse fill="lightblue" stroke="black" cx="264.5" cy="-43.13" rx="33.47" ry="33.47"/>
<text text-anchor="middle" x="264.5" y="-40.93" font-family="Times New Roman,serif" font-size="9.00">ANGLE</text>
</g>
<!-- 180°&#45;&gt;ANGLE -->
<g id="edge2" class="edge">
<title>180°&#45;&gt;ANGLE</title>
<path fill="none" stroke="green" stroke-width="0.24" d="M358.6,-198.74C377.1,-193.08 405.67,-181.14 418.5,-159.04 426.7,-144.9 427.05,-136.19 418.5,-122.27 394.41,-83.03 343.81,-62.75 307.17,-52.81"/>
<polygon fill="green" stroke="green" stroke-width="0.24" points="307.79,-49.35 297.24,-50.27 306.06,-56.14 307.79,-49.35"/>
</g>
<!-- 59 -->
<g id="node11" class="node">
<title>59</title>
<ellipse fill="white" stroke="black" cx="341.5" cy="-140.65" rx="18.27" ry="18.27"/>
<text text-anchor="middle" x="341.5" y="-138.45" font-family="Times New Roman,serif" font-size="9.00">59</text>
</g>
<!-- 180°&#45;&gt;59 -->
<g id="edge15" class="edge">
<title>180°&#45;&gt;59</title>
<path fill="none" stroke="red" stroke-width="0.12" d="M341.5,-195.01C341.5,-188.45 341.5,-178.76 341.5,-169.43"/>
<polygon fill="red" stroke="red" stroke-width="0.12" points="345,-169.24 341.5,-159.24 338,-169.24 345,-169.24"/>
</g>
<!-- &#45;90° -->
<g id="node2" class="node">
<title>&#45;90°</title>
<polygon fill="lightgray" stroke="black" points="305.5,-149.65 273.5,-149.65 273.5,-131.65 305.5,-131.65 305.5,-149.65"/>
<text text-anchor="middle" x="289.5" y="-138.45" font-family="Times New Roman,serif" font-size="9.00">&#45;90°</text>
</g>
<!-- &#45;90°&#45;&gt;VELOCITY -->
<g id="edge3" class="edge">
<title>&#45;90°&#45;&gt;VELOCITY</title>
<path fill="none" stroke="green" stroke-width="0.11" d="M278.09,-131.63C273.84,-128.67 268.96,-125.3 264.5,-122.27 240.27,-105.82 213.03,-87.76 190.83,-73.14"/>
<polygon fill="green" stroke="green" stroke-width="0.11" points="192.55,-70.09 182.27,-67.52 188.7,-75.93 192.55,-70.09"/>
</g>
<!-- &#45;90°&#45;&gt;ANGLE -->
<g id="edge4" class="edge">
<title>&#45;90°&#45;&gt;ANGLE</title>
<path fill="none" stroke="green" stroke-width="0.45" d="M287.37,-131.51C284.68,-121.25 279.87,-102.87 275.35,-85.61"/>
<polygon fill="green" stroke="green" stroke-width="0.45" points="278.66,-84.43 272.75,-75.64 271.89,-86.2 278.66,-84.43"/>
</g>
<!-- &#45;40° -->
<g id="node3" class="node">
<title>&#45;40°</title>
<polygon fill="lightgray" stroke="black" points="113.5,-149.65 81.5,-149.65 81.5,-131.65 113.5,-131.65 113.5,-149.65"/>
<text text-anchor="middle" x="97.5" y="-138.45" font-family="Times New Roman,serif" font-size="9.00">&#45;40°</text>
</g>
<!-- &#45;40°&#45;&gt;VELOCITY -->
<g id="edge5" class="edge">
<title>&#45;40°&#45;&gt;VELOCITY</title>
<path fill="none" stroke="green" stroke-width="0.19" d="M101.68,-131.51C106.4,-122.31 114.47,-106.57 122.48,-90.96"/>
<polygon fill="green" stroke="green" stroke-width="0.19" points="125.71,-92.34 127.16,-81.84 119.48,-89.14 125.71,-92.34"/>
</g>
<!-- &#45;40°&#45;&gt;ANGLE -->
<g id="edge6" class="edge">
<title>&#45;40°&#45;&gt;ANGLE</title>
<path fill="none" stroke="green" stroke-width="0.16" d="M108.93,-131.5C113.38,-128.46 118.59,-125.07 123.5,-122.27 155.62,-103.95 166.19,-104.25 198.5,-86.27 208.5,-80.7 219.07,-74.24 228.74,-68.07"/>
<polygon fill="green" stroke="green" stroke-width="0.16" points="230.83,-70.88 237.33,-62.52 227.04,-65 230.83,-70.88"/>
</g>
<!-- &#45;15° -->
<g id="node4" class="node">
<title>&#45;15°</title>
<polygon fill="lightgray" stroke="black" points="409.5,-149.65 377.5,-149.65 377.5,-131.65 409.5,-131.65 409.5,-149.65"/>
<text text-anchor="middle" x="393.5" y="-138.45" font-family="Times New Roman,serif" font-size="9.00">&#45;15°</text>
</g>
<!-- &#45;15°&#45;&gt;ANGLE -->
<g id="edge7" class="edge">
<title>&#45;15°&#45;&gt;ANGLE</title>
<path fill="none" stroke="green" stroke-width="0.29" d="M382.5,-131.51C364.22,-117.97 326.86,-90.31 299.05,-69.71"/>
<polygon fill="green" stroke="green" stroke-width="0.29" points="300.87,-66.71 290.75,-63.57 296.71,-72.34 300.87,-66.71"/>
</g>
<!-- 0° -->
<g id="node5" class="node">
<title>0°</title>
<polygon fill="lightgray" stroke="black" points="25,-149.65 0,-149.65 0,-131.65 25,-131.65 25,-149.65"/>
<text text-anchor="middle" x="12.5" y="-138.45" font-family="Times New Roman,serif" font-size="9.00">0°</text>
</g>
<!-- 0°&#45;&gt;VELOCITY -->
<g id="edge8" class="edge">
<title>0°&#45;&gt;VELOCITY</title>
<path fill="none" stroke="green" stroke-width="0.13" d="M23.92,-131.51C41.36,-119.08 75.52,-94.73 103.36,-74.88"/>
<polygon fill="green" stroke="green" stroke-width="0.13" points="105.66,-77.54 111.77,-68.89 101.6,-71.84 105.66,-77.54"/>
</g>
<!-- 15° -->
<g id="node6" class="node">
<title>15°</title>
<polygon fill="lightgray" stroke="black" points="161,-149.65 132,-149.65 132,-131.65 161,-131.65 161,-149.65"/>
<text text-anchor="middle" x="146.5" y="-138.45" font-family="Times New Roman,serif" font-size="9.00">15°</text>
</g>
<!-- 15°&#45;&gt;VELOCITY -->
<g id="edge9" class="edge">
<title>15°&#45;&gt;VELOCITY</title>
<path fill="none" stroke="green" stroke-width="0.22" d="M146.5,-131.51C146.5,-123.38 146.5,-110.14 146.5,-96.4"/>
<polygon fill="green" stroke="green" stroke-width="0.22" points="150,-96.38 146.5,-86.38 143,-96.38 150,-96.38"/>
</g>
<!-- 15°&#45;&gt;ANGLE -->
<g id="edge10" class="edge">
<title>15°&#45;&gt;ANGLE</title>
<path fill="none" stroke="red" stroke-width="0.37" d="M156.56,-131.51C172.85,-118.32 205.74,-91.7 230.95,-71.29"/>
<polygon fill="red" stroke="red" stroke-width="0.37" points="233.26,-73.92 238.83,-64.91 228.86,-68.48 233.26,-73.92"/>
</g>
<!-- 40° -->
<g id="node7" class="node">
<title>40°</title>
<polygon fill="lightgray" stroke="black" points="208,-149.65 179,-149.65 179,-131.65 208,-131.65 208,-149.65"/>
<text text-anchor="middle" x="193.5" y="-138.45" font-family="Times New Roman,serif" font-size="9.00">40°</text>
</g>
<!-- 40°&#45;&gt;VELOCITY -->
<g id="edge11" class="edge">
<title>40°&#45;&gt;VELOCITY</title>
<path fill="none" stroke="green" stroke-width="0.41" d="M189.49,-131.51C185,-122.38 177.35,-106.83 169.73,-91.35"/>
<polygon fill="green" stroke="green" stroke-width="0.41" points="172.83,-89.72 165.28,-82.29 166.55,-92.81 172.83,-89.72"/>
</g>
<!-- 40°&#45;&gt;ANGLE -->
<g id="edge12" class="edge">
<title>40°&#45;&gt;ANGLE</title>
<path fill="none" stroke="red" stroke-width="0.46" d="M199.55,-131.51C208.2,-119.88 224.61,-97.8 238.77,-78.75"/>
<polygon fill="red" stroke="red" stroke-width="0.46" points="241.72,-80.65 244.88,-70.53 236.1,-76.47 241.72,-80.65"/>
</g>
<!-- 90° -->
<g id="node8" class="node">
<title>90°</title>
<polygon fill="lightgray" stroke="black" points="255,-149.65 226,-149.65 226,-131.65 255,-131.65 255,-149.65"/>
<text text-anchor="middle" x="240.5" y="-138.45" font-family="Times New Roman,serif" font-size="9.00">90°</text>
</g>
<!-- 90°&#45;&gt;VELOCITY -->
<g id="edge13" class="edge">
<title>90°&#45;&gt;VELOCITY</title>
<path fill="none" stroke="green" stroke-width="0.33" d="M232.49,-131.51C221.67,-120.52 201.67,-100.2 183.69,-81.92"/>
<polygon fill="green" stroke="green" stroke-width="0.33" points="186.16,-79.45 176.65,-74.77 181.17,-84.36 186.16,-79.45"/>
</g>
<!-- 90°&#45;&gt;ANGLE -->
<g id="edge14" class="edge">
<title>90°&#45;&gt;ANGLE</title>
<path fill="none" stroke="red" stroke-width="0.16" d="M242.55,-131.51C245.12,-121.25 249.74,-102.87 254.08,-85.61"/>
<polygon fill="red" stroke="red" stroke-width="0.16" points="257.54,-86.19 256.58,-75.64 250.75,-84.49 257.54,-86.19"/>
</g>
<!-- 59&#45;&gt;ANGLE -->
<g id="edge16" class="edge">
<title>59&#45;&gt;ANGLE</title>
<path fill="none" stroke="green" stroke-width="0.42" d="M330.14,-125.56C319.93,-112.89 304.54,-93.8 291.22,-77.29"/>
<polygon fill="green" stroke="green" stroke-width="0.42" points="293.89,-75.01 284.89,-69.43 288.44,-79.41 293.89,-75.01"/>
</g>
</g>
</svg>
