<?xml version="1.0" encoding="UTF-8" standalone="no"?>
<!DOCTYPE svg PUBLIC "-//W3C//DTD SVG 1.1//EN"
 "http://www.w3.org/Graphics/SVG/1.1/DTD/svg11.dtd">
<!-- Generated by graphviz version 2.47.0 (20210316.0004)
 -->
<!-- Pages: 1 -->
<svg width="377pt" height="148pt"
 viewBox="0.00 0.00 377.00 148.27" xmlns="http://www.w3.org/2000/svg" xmlns:xlink="http://www.w3.org/1999/xlink">
<g id="graph0" class="graph" transform="scale(1 1) rotate(0) translate(4 144.27)">
<polygon fill="white" stroke="transparent" points="-4,4 -4,-144.27 373,-144.27 373,4 -4,4"/>
<!-- 180° -->
<g id="node1" class="node">
<title>180°</title>
<polygon fill="lightgray" stroke="black" points="128.5,-140.27 94.5,-140.27 94.5,-122.27 128.5,-122.27 128.5,-140.27"/>
<text text-anchor="middle" x="111.5" y="-129.07" font-family="Times New Roman,serif" font-size="9.00">180°</text>
</g>
<!-- VELOCITY -->
<g id="node9" class="node">
<title>VELOCITY</title>
<ellipse fill="lightblue" stroke="black" cx="140.5" cy="-43.13" rx="43.27" ry="43.27"/>
<text text-anchor="middle" x="140.5" y="-40.93" font-family="Times New Roman,serif" font-size="9.00">VELOCITY</text>
</g>
<!-- 180°&#45;&gt;VELOCITY -->
<g id="edge1" class="edge">
<title>180°&#45;&gt;VELOCITY</title>
<path fill="none" stroke="green" stroke-width="0.14" d="M114.28,-122.01C116.58,-115.17 120.06,-104.83 123.74,-93.91"/>
<polygon fill="green" stroke="green" stroke-width="0.14" points="127.13,-94.82 127,-84.22 120.49,-92.58 127.13,-94.82"/>
</g>
<!-- ANGLE -->
<g id="node10" class="node">
<title>ANGLE</title>
<ellipse fill="lightblue" stroke="black" cx="234.5" cy="-43.13" rx="33.47" ry="33.47"/>
<text text-anchor="middle" x="234.5" y="-40.93" font-family="Times New Roman,serif" font-size="9.00">ANGLE</text>
</g>
<!-- 180°&#45;&gt;ANGLE -->
<g id="edge2" class="edge">
<title>180°&#45;&gt;ANGLE</title>
<path fill="none" stroke="red" stroke-width="0.11" d="M128.8,-122.67C145.81,-114.79 172.13,-101.51 192.5,-86.27 196.73,-83.1 200.95,-79.51 204.99,-75.81"/>
<polygon fill="red" stroke="red" stroke-width="0.11" points="207.71,-78.05 212.51,-68.6 202.87,-73 207.71,-78.05"/>
</g>
<!-- &#45;90° -->
<g id="node2" class="node">
<title>&#45;90°</title>
<polygon fill="lightgray" stroke="black" points="178.5,-140.27 146.5,-140.27 146.5,-122.27 178.5,-122.27 178.5,-140.27"/>
<text text-anchor="middle" x="162.5" y="-129.07" font-family="Times New Roman,serif" font-size="9.00">&#45;90°</text>
</g>
<!-- &#45;90°&#45;&gt;VELOCITY -->
<g id="edge3" class="edge">
<title>&#45;90°&#45;&gt;VELOCITY</title>
<path fill="none" stroke="green" stroke-width="0.43" d="M160.39,-122.01C158.69,-115.37 156.16,-105.43 153.45,-94.85"/>
<polygon fill="green" stroke="green" stroke-width="0.43" points="156.81,-93.86 150.95,-85.04 150.03,-95.59 156.81,-93.86"/>
</g>
<!-- &#45;90°&#45;&gt;ANGLE -->
<g id="edge4" class="edge">
<title>&#45;90°&#45;&gt;ANGLE</title>
<path fill="none" stroke="green" stroke-width="0.33" d="M169.4,-122.01C178.05,-111.66 193.4,-93.3 207.02,-77.01"/>
<polygon fill="green" stroke="green" stroke-width="0.33" points="209.8,-79.14 213.53,-69.22 204.43,-74.65 209.8,-79.14"/>
</g>
<!-- &#45;40° -->
<g id="node3" class="node">
<title>&#45;40°</title>
<polygon fill="lightgray" stroke="black" points="228.5,-140.27 196.5,-140.27 196.5,-122.27 228.5,-122.27 228.5,-140.27"/>
<text text-anchor="middle" x="212.5" y="-129.07" font-family="Times New Roman,serif" font-size="9.00">&#45;40°</text>
</g>
<!-- &#45;40°&#45;&gt;VELOCITY -->
<g id="edge5" class="edge">
<title>&#45;40°&#45;&gt;VELOCITY</title>
<path fill="none" stroke="red" stroke-width="0.15" d="M205.6,-122.01C198.29,-113.27 186.21,-98.82 174.43,-84.72"/>
<polygon fill="red" stroke="red" stroke-width="0.15" points="177.04,-82.39 167.94,-76.96 171.67,-86.88 177.04,-82.39"/>
</g>
<!-- &#45;40°&#45;&gt;ANGLE -->
<g id="edge6" class="edge">
<title>&#45;40°&#45;&gt;ANGLE</title>
<path fill="none" stroke="red" stroke-width="0.12" d="M214.61,-122.01C216.79,-113.47 220.36,-99.48 223.88,-85.69"/>
<polygon fill="red" stroke="red" stroke-width="0.12" points="227.33,-86.33 226.42,-75.77 220.55,-84.6 227.33,-86.33"/>
</g>
<!-- &#45;15° -->
<g id="node4" class="node">
<title>&#45;15°</title>
<polygon fill="lightgray" stroke="black" points="278.5,-140.27 246.5,-140.27 246.5,-122.27 278.5,-122.27 278.5,-140.27"/>
<text text-anchor="middle" x="262.5" y="-129.07" font-family="Times New Roman,serif" font-size="9.00">&#45;15°</text>
</g>
<!-- &#45;15°&#45;&gt;VELOCITY -->
<g id="edge7" class="edge">
<title>&#45;15°&#45;&gt;VELOCITY</title>
<path fill="none" stroke="red" stroke-width="0.19" d="M248.5,-122.14C234.14,-113.65 211.29,-99.71 192.5,-86.27 188.79,-83.61 184.99,-80.77 181.21,-77.88"/>
<polygon fill="red" stroke="red" stroke-width="0.19" points="183.08,-74.89 173.05,-71.49 178.77,-80.41 183.08,-74.89"/>
</g>
<!-- &#45;15°&#45;&gt;ANGLE -->
<g id="edge8" class="edge">
<title>&#45;15°&#45;&gt;ANGLE</title>
<path fill="none" stroke="red" stroke-width="0.48" d="M259.82,-122.01C256.97,-113.25 252.26,-98.76 247.66,-84.63"/>
<polygon fill="red" stroke="red" stroke-width="0.48" points="250.95,-83.41 244.53,-74.99 244.29,-85.58 250.95,-83.41"/>
</g>
<!-- 0° -->
<g id="node5" class="node">
<title>0°</title>
<polygon fill="lightgray" stroke="black" points="322,-140.27 297,-140.27 297,-122.27 322,-122.27 322,-140.27"/>
<text text-anchor="middle" x="309.5" y="-129.07" font-family="Times New Roman,serif" font-size="9.00">0°</text>
</g>
<!-- 0°&#45;&gt;VELOCITY -->
<g id="edge9" class="edge">
<title>0°&#45;&gt;VELOCITY</title>
<path fill="none" stroke="red" stroke-width="0.11" d="M296.71,-125.58C267.35,-114.81 197.25,-88.99 192.5,-86.27 188.54,-84 184.56,-81.43 180.68,-78.71"/>
<polygon fill="red" stroke="red" stroke-width="0.11" points="182.48,-75.69 172.35,-72.57 178.32,-81.32 182.48,-75.69"/>
</g>
<!-- 0°&#45;&gt;ANGLE -->
<g id="edge10" class="edge">
<title>0°&#45;&gt;ANGLE</title>
<path fill="none" stroke="green" stroke-width="0.3" d="M302.31,-122.01C293.23,-111.59 277.09,-93.04 262.83,-76.67"/>
<polygon fill="green" stroke="green" stroke-width="0.3" points="265.22,-74.09 256.02,-68.84 259.94,-78.68 265.22,-74.09"/>
</g>
<!-- 15° -->
<g id="node6" class="node">
<title>15°</title>
<polygon fill="lightgray" stroke="black" points="369,-140.27 340,-140.27 340,-122.27 369,-122.27 369,-140.27"/>
<text text-anchor="middle" x="354.5" y="-129.07" font-family="Times New Roman,serif" font-size="9.00">15°</text>
</g>
<!-- 15°&#45;&gt;VELOCITY -->
<g id="edge11" class="edge">
<title>15°&#45;&gt;VELOCITY</title>
<path fill="none" stroke="red" stroke-width="0.15" d="M339.96,-125.01C337.16,-124.06 334.25,-123.1 331.5,-122.27 270.42,-103.77 249.48,-115.01 192.5,-86.27 188.25,-84.12 184.03,-81.59 179.93,-78.84"/>
<polygon fill="red" stroke="red" stroke-width="0.15" points="181.91,-75.95 171.75,-72.95 177.82,-81.63 181.91,-75.95"/>
</g>
<!-- 15°&#45;&gt;ANGLE -->
<g id="edge12" class="edge">
<title>15°&#45;&gt;ANGLE</title>
<path fill="none" stroke="green" stroke-width="0.27" d="M342.99,-122.01C326.23,-109.98 294.4,-87.13 269.53,-69.27"/>
<polygon fill="green" stroke="green" stroke-width="0.27" points="271.56,-66.42 261.39,-63.44 267.47,-72.11 271.56,-66.42"/>
</g>
<!-- 40° -->
<g id="node7" class="node">
<title>40°</title>
<polygon fill="lightgray" stroke="black" points="29,-140.27 0,-140.27 0,-122.27 29,-122.27 29,-140.27"/>
<text text-anchor="middle" x="14.5" y="-129.07" font-family="Times New Roman,serif" font-size="9.00">40°</text>
</g>
<!-- 40°&#45;&gt;VELOCITY -->
<g id="edge13" class="edge">
<title>40°&#45;&gt;VELOCITY</title>
<path fill="none" stroke="green" stroke-width="0.27" d="M26.58,-122.01C42.62,-111.05 71.79,-91.1 96.6,-74.14"/>
<polygon fill="green" stroke="green" stroke-width="0.27" points="98.89,-76.82 105.17,-68.29 94.94,-71.04 98.89,-76.82"/>
</g>
<!-- 40°&#45;&gt;ANGLE -->
<g id="edge14" class="edge">
<title>40°&#45;&gt;ANGLE</title>
<path fill="none" stroke="red" stroke-width="0.22" d="M29.16,-125.14C32.23,-124.14 35.46,-123.13 38.5,-122.27 106.14,-103.13 131.1,-120.48 192.5,-86.27 197.35,-83.57 202.01,-80.14 206.36,-76.42"/>
<polygon fill="red" stroke="red" stroke-width="0.22" points="208.87,-78.86 213.8,-69.48 204.1,-73.74 208.87,-78.86"/>
</g>
<!-- 90° -->
<g id="node8" class="node">
<title>90°</title>
<polygon fill="lightgray" stroke="black" points="76,-140.27 47,-140.27 47,-122.27 76,-122.27 76,-140.27"/>
<text text-anchor="middle" x="61.5" y="-129.07" font-family="Times New Roman,serif" font-size="9.00">90°</text>
</g>
<!-- 90°&#45;&gt;VELOCITY -->
<g id="edge15" class="edge">
<title>90°&#45;&gt;VELOCITY</title>
<path fill="none" stroke="red" stroke-width="0.56" d="M69.07,-122.01C77.43,-112.9 91.47,-97.59 104.9,-82.94"/>
<polygon fill="red" stroke="red" stroke-width="0.56" points="107.66,-85.12 111.84,-75.38 102.5,-80.38 107.66,-85.12"/>
</g>
<!-- 90°&#45;&gt;ANGLE -->
<g id="edge16" class="edge">
<title>90°&#45;&gt;ANGLE</title>
<path fill="none" stroke="red" stroke-width="0.29" d="M76.19,-125.36C110.26,-113.97 191.86,-86.67 192.5,-86.27 197.22,-83.34 201.8,-79.78 206.11,-75.99"/>
<polygon fill="red" stroke="red" stroke-width="0.29" points="208.65,-78.41 213.52,-69 203.84,-73.32 208.65,-78.41"/>
</g>
</g>
</svg>
