<?xml version="1.0" encoding="UTF-8" standalone="no"?>
<!DOCTYPE svg PUBLIC "-//W3C//DTD SVG 1.1//EN"
 "http://www.w3.org/Graphics/SVG/1.1/DTD/svg11.dtd">
<!-- Generated by graphviz version 2.47.0 (20210316.0004)
 -->
<!-- Pages: 1 -->
<svg width="799pt" height="376pt"
 viewBox="0.00 0.00 799.49 376.48" xmlns="http://www.w3.org/2000/svg" xmlns:xlink="http://www.w3.org/1999/xlink">
<g id="graph0" class="graph" transform="scale(1 1) rotate(0) translate(4 372.48)">
<polygon fill="white" stroke="transparent" points="-4,4 -4,-372.48 795.49,-372.48 795.49,4 -4,4"/>
<!-- &#45;1 -->
<g id="node1" class="node">
<title>&#45;1</title>
<polygon fill="lightgray" stroke="black" points="136.75,-368.48 112.75,-368.48 112.75,-350.48 136.75,-350.48 136.75,-368.48"/>
<text text-anchor="middle" x="124.75" y="-357.28" font-family="Times New Roman,serif" font-size="9.00">&#45;1</text>
</g>
<!-- 965 -->
<g id="node21" class="node">
<title>965</title>
<ellipse fill="white" stroke="black" cx="124.75" cy="-289.73" rx="21.43" ry="21.43"/>
<text text-anchor="middle" x="124.75" y="-287.53" font-family="Times New Roman,serif" font-size="9.00">965</text>
</g>
<!-- &#45;1&#45;&gt;965 -->
<g id="edge13" class="edge">
<title>&#45;1&#45;&gt;965</title>
<path fill="none" stroke="red" stroke-width="0.22" stroke-dasharray="1,5" d="M124.75,-350.44C124.75,-343.16 124.75,-331.96 124.75,-321.23"/>
<polygon fill="red" stroke="red" stroke-width="0.22" points="128.25,-321.21 124.75,-311.21 121.25,-321.21 128.25,-321.21"/>
</g>
<!-- &#45;2 -->
<g id="node2" class="node">
<title>&#45;2</title>
<polygon fill="lightgray" stroke="black" points="355.75,-298.73 331.75,-298.73 331.75,-280.73 355.75,-280.73 355.75,-298.73"/>
<text text-anchor="middle" x="343.75" y="-287.53" font-family="Times New Roman,serif" font-size="9.00">&#45;2</text>
</g>
<!-- Speed -->
<g id="node9" class="node">
<title>Speed</title>
<ellipse fill="lightblue" stroke="black" cx="214.75" cy="-116.61" rx="26.74" ry="26.74"/>
<text text-anchor="middle" x="214.75" y="-114.41" font-family="Times New Roman,serif" font-size="9.00">Speed</text>
</g>
<!-- &#45;2&#45;&gt;Speed -->
<g id="edge1" class="edge">
<title>&#45;2&#45;&gt;Speed</title>
<path fill="none" stroke="green" stroke-width="0.19" stroke-dasharray="1,5" d="M331.47,-287.47C304.24,-283.94 239.02,-271.26 211.75,-228.98 197.22,-206.47 199.29,-175.71 204.25,-152.23"/>
<polygon fill="green" stroke="green" stroke-width="0.19" points="207.7,-152.87 206.6,-142.33 200.89,-151.25 207.7,-152.87"/>
</g>
<!-- 1719 -->
<g id="node17" class="node">
<title>1719</title>
<ellipse fill="white" stroke="black" cx="516.75" cy="-204.23" rx="25" ry="25"/>
<text text-anchor="middle" x="516.75" y="-202.03" font-family="Times New Roman,serif" font-size="9.00">1719</text>
</g>
<!-- &#45;2&#45;&gt;1719 -->
<g id="edge21" class="edge">
<title>&#45;2&#45;&gt;1719</title>
<path fill="none" stroke="red" stroke-width="0.18" d="M355.91,-282.86C382.57,-269.99 446.85,-238.96 485.59,-220.27"/>
<polygon fill="red" stroke="red" stroke-width="0.18" points="487.37,-223.29 494.85,-215.8 484.32,-216.99 487.37,-223.29"/>
</g>
<!-- 1115 -->
<g id="node24" class="node">
<title>1115</title>
<ellipse fill="white" stroke="black" cx="343.75" cy="-204.23" rx="25" ry="25"/>
<text text-anchor="middle" x="343.75" y="-202.03" font-family="Times New Roman,serif" font-size="9.00">1115</text>
</g>
<!-- &#45;2&#45;&gt;1115 -->
<g id="edge11" class="edge">
<title>&#45;2&#45;&gt;1115</title>
<path fill="none" stroke="red" stroke-width="0.36" stroke-dasharray="1,5" d="M343.75,-280.72C343.75,-271.17 343.75,-254.58 343.75,-239.38"/>
<polygon fill="red" stroke="red" stroke-width="0.36" points="347.25,-239.18 343.75,-229.18 340.25,-239.18 347.25,-239.18"/>
</g>
<!-- &#45;3 -->
<g id="node3" class="node">
<title>&#45;3</title>
<polygon fill="lightgray" stroke="black" points="659.75,-125.61 635.75,-125.61 635.75,-107.61 659.75,-107.61 659.75,-125.61"/>
<text text-anchor="middle" x="647.75" y="-114.41" font-family="Times New Roman,serif" font-size="9.00">&#45;3</text>
</g>
<!-- Angle -->
<g id="node10" class="node">
<title>Angle</title>
<ellipse fill="lightblue" stroke="black" cx="303.75" cy="-26.87" rx="26.74" ry="26.74"/>
<text text-anchor="middle" x="303.75" y="-24.67" font-family="Times New Roman,serif" font-size="9.00">Angle</text>
</g>
<!-- &#45;3&#45;&gt;Angle -->
<g id="edge2" class="edge">
<title>&#45;3&#45;&gt;Angle</title>
<path fill="none" stroke="green" stroke-width="0.4" d="M641.82,-107.55C637.06,-101.68 629.85,-94.04 621.75,-89.74 528.97,-40.55 402.38,-30.2 340.64,-28.2"/>
<polygon fill="green" stroke="green" stroke-width="0.4" points="340.69,-24.7 330.6,-27.93 340.5,-31.7 340.69,-24.7"/>
</g>
<!-- 1178 -->
<g id="node15" class="node">
<title>1178</title>
<ellipse fill="white" stroke="black" cx="615.75" cy="-26.87" rx="25" ry="25"/>
<text text-anchor="middle" x="615.75" y="-24.67" font-family="Times New Roman,serif" font-size="9.00">1178</text>
</g>
<!-- &#45;3&#45;&gt;1178 -->
<g id="edge12" class="edge">
<title>&#45;3&#45;&gt;1178</title>
<path fill="none" stroke="red" stroke-width="0.12" stroke-dasharray="1,5" d="M644.79,-107.51C640.86,-96.73 633.68,-77.03 627.44,-59.92"/>
<polygon fill="red" stroke="red" stroke-width="0.12" points="630.62,-58.43 623.9,-50.24 624.04,-60.83 630.62,-58.43"/>
</g>
<!-- 371 -->
<g id="node28" class="node">
<title>371</title>
<ellipse fill="white" stroke="black" cx="679.75" cy="-26.87" rx="21.43" ry="21.43"/>
<text text-anchor="middle" x="679.75" y="-24.67" font-family="Times New Roman,serif" font-size="9.00">371</text>
</g>
<!-- &#45;3&#45;&gt;371 -->
<g id="edge8" class="edge">
<title>&#45;3&#45;&gt;371</title>
<path fill="none" stroke="red" stroke-width="0.39" stroke-dasharray="1,5" d="M650.7,-107.51C654.9,-95.99 662.82,-74.27 669.33,-56.42"/>
<polygon fill="red" stroke="red" stroke-width="0.39" points="672.63,-57.58 672.77,-46.99 666.06,-55.18 672.63,-57.58"/>
</g>
<!-- &#45;4 -->
<g id="node4" class="node">
<title>&#45;4</title>
<polygon fill="lightgray" stroke="black" points="490.75,-368.48 466.75,-368.48 466.75,-350.48 490.75,-350.48 490.75,-368.48"/>
<text text-anchor="middle" x="478.75" y="-357.28" font-family="Times New Roman,serif" font-size="9.00">&#45;4</text>
</g>
<!-- &#45;5 -->
<g id="node5" class="node">
<title>&#45;5</title>
<polygon fill="lightgray" stroke="black" points="448.75,-368.48 424.75,-368.48 424.75,-350.48 448.75,-350.48 448.75,-368.48"/>
<text text-anchor="middle" x="436.75" y="-357.28" font-family="Times New Roman,serif" font-size="9.00">&#45;5</text>
</g>
<!-- &#45;5&#45;&gt;Angle -->
<g id="edge3" class="edge">
<title>&#45;5&#45;&gt;Angle</title>
<path fill="none" stroke="red" stroke-width="0.34" stroke-dasharray="1,5" d="M448.94,-353.59C473.75,-343.56 528.33,-321.05 534.75,-314.48 578.13,-270.06 596.05,-236.19 570.75,-179.48 529.59,-87.26 403.12,-48.5 340.15,-34.58"/>
<polygon fill="red" stroke="red" stroke-width="0.34" points="340.76,-31.13 330.25,-32.48 339.31,-37.98 340.76,-31.13"/>
</g>
<!-- 1426 -->
<g id="node13" class="node">
<title>1426</title>
<ellipse fill="white" stroke="black" cx="290.75" cy="-116.61" rx="25" ry="25"/>
<text text-anchor="middle" x="290.75" y="-114.41" font-family="Times New Roman,serif" font-size="9.00">1426</text>
</g>
<!-- &#45;5&#45;&gt;1426 -->
<g id="edge16" class="edge">
<title>&#45;5&#45;&gt;1426</title>
<path fill="none" stroke="red" stroke-width="0.55" d="M424.49,-357.61C400.78,-355.22 348.68,-346.43 322.75,-314.48 284.93,-267.88 283.65,-194.14 286.77,-151.37"/>
<polygon fill="red" stroke="red" stroke-width="0.55" points="290.27,-151.46 287.64,-141.2 283.3,-150.87 290.27,-151.46"/>
</g>
<!-- 1841 -->
<g id="node16" class="node">
<title>1841</title>
<ellipse fill="white" stroke="black" cx="188.75" cy="-289.73" rx="25" ry="25"/>
<text text-anchor="middle" x="188.75" y="-287.53" font-family="Times New Roman,serif" font-size="9.00">1841</text>
</g>
<!-- &#45;5&#45;&gt;1841 -->
<g id="edge27" class="edge">
<title>&#45;5&#45;&gt;1841</title>
<path fill="none" stroke="green" stroke-width="0.31" d="M424.45,-355.12C387.74,-345.09 278.03,-315.12 222.19,-299.86"/>
<polygon fill="green" stroke="green" stroke-width="0.31" points="222.99,-296.45 212.42,-297.19 221.15,-303.21 222.99,-296.45"/>
</g>
<!-- 1473 -->
<g id="node19" class="node">
<title>1473</title>
<ellipse fill="white" stroke="black" cx="436.75" cy="-116.61" rx="25" ry="25"/>
<text text-anchor="middle" x="436.75" y="-114.41" font-family="Times New Roman,serif" font-size="9.00">1473</text>
</g>
<!-- &#45;5&#45;&gt;1473 -->
<g id="edge17" class="edge">
<title>&#45;5&#45;&gt;1473</title>
<path fill="none" stroke="green" stroke-width="0.31" stroke-dasharray="1,5" d="M449.06,-351.58C462.21,-343.79 483.14,-330.14 497.75,-314.48 541.7,-267.33 583.71,-234.87 550.75,-179.48 533.59,-150.65 497.8,-134.42 470.87,-125.89"/>
<polygon fill="green" stroke="green" stroke-width="0.31" points="471.62,-122.47 461.04,-122.99 469.64,-129.18 471.62,-122.47"/>
</g>
<!-- 1864 -->
<g id="node22" class="node">
<title>1864</title>
<ellipse fill="white" stroke="black" cx="463.75" cy="-289.73" rx="25" ry="25"/>
<text text-anchor="middle" x="463.75" y="-287.53" font-family="Times New Roman,serif" font-size="9.00">1864</text>
</g>
<!-- &#45;5&#45;&gt;1864 -->
<g id="edge29" class="edge">
<title>&#45;5&#45;&gt;1864</title>
<path fill="none" stroke="green" stroke-width="0.26" d="M439.95,-350.44C442.75,-343.41 447.01,-332.72 451.15,-322.32"/>
<polygon fill="green" stroke="green" stroke-width="0.26" points="454.43,-323.55 454.88,-312.96 447.93,-320.96 454.43,-323.55"/>
</g>
<!-- 1739 -->
<g id="node23" class="node">
<title>1739</title>
<ellipse fill="white" stroke="black" cx="410.75" cy="-204.23" rx="25" ry="25"/>
<text text-anchor="middle" x="410.75" y="-202.03" font-family="Times New Roman,serif" font-size="9.00">1739</text>
</g>
<!-- &#45;5&#45;&gt;1739 -->
<g id="edge22" class="edge">
<title>&#45;5&#45;&gt;1739</title>
<path fill="none" stroke="green" stroke-width="0.26" d="M435.35,-350.24C431.85,-329.64 422.58,-274.98 416.47,-238.97"/>
<polygon fill="green" stroke="green" stroke-width="0.26" points="419.89,-238.17 414.76,-228.9 412.98,-239.35 419.89,-238.17"/>
</g>
<!-- &#45;6 -->
<g id="node6" class="node">
<title>&#45;6</title>
<polygon fill="lightgray" stroke="black" points="33.75,-213.23 9.75,-213.23 9.75,-195.23 33.75,-195.23 33.75,-213.23"/>
<text text-anchor="middle" x="21.75" y="-202.03" font-family="Times New Roman,serif" font-size="9.00">&#45;6</text>
</g>
<!-- &#45;6&#45;&gt;Speed -->
<g id="edge4" class="edge">
<title>&#45;6&#45;&gt;Speed</title>
<path fill="none" stroke="green" stroke-width="0.12" stroke-dasharray="1,5" d="M33.89,-195.45C42.09,-190.43 53.29,-184.01 63.75,-179.48 112.88,-158.18 130.83,-167.41 178.75,-143.48 181.03,-142.34 183.34,-141.05 185.61,-139.69"/>
<polygon fill="green" stroke="green" stroke-width="0.12" points="187.68,-142.51 194.14,-134.12 183.85,-136.65 187.68,-142.51"/>
</g>
<!-- &#45;6&#45;&gt;Angle -->
<g id="edge5" class="edge">
<title>&#45;6&#45;&gt;Angle</title>
<path fill="none" stroke="red" stroke-width="0.29" d="M17.64,-194.96C8.15,-174.54 -12.63,-121.08 12.75,-89.74 44.28,-50.8 195.19,-35.34 266.4,-30.14"/>
<polygon fill="red" stroke="red" stroke-width="0.29" points="266.98,-33.61 276.71,-29.42 266.49,-26.63 266.98,-33.61"/>
</g>
<!-- &#45;7 -->
<g id="node7" class="node">
<title>&#45;7</title>
<polygon fill="lightgray" stroke="black" points="96.75,-213.23 72.75,-213.23 72.75,-195.23 96.75,-195.23 96.75,-213.23"/>
<text text-anchor="middle" x="84.75" y="-202.03" font-family="Times New Roman,serif" font-size="9.00">&#45;7</text>
</g>
<!-- &#45;7&#45;&gt;Speed -->
<g id="edge6" class="edge">
<title>&#45;7&#45;&gt;Speed</title>
<path fill="none" stroke="red" stroke-width="0.16" d="M90.69,-195.02C94.57,-190.07 99.97,-183.89 105.75,-179.48 134.49,-157.52 147.73,-162.1 178.75,-143.48 180.94,-142.16 183.17,-140.75 185.39,-139.29"/>
<polygon fill="red" stroke="red" stroke-width="0.16" points="187.54,-142.06 193.82,-133.53 183.59,-136.29 187.54,-142.06"/>
</g>
<!-- &#45;7&#45;&gt;Angle -->
<g id="edge7" class="edge">
<title>&#45;7&#45;&gt;Angle</title>
<path fill="none" stroke="red" stroke-width="0.33" d="M84.09,-195.14C82.91,-174.67 82.72,-120.26 110.75,-89.74 151.09,-45.81 222.64,-32.93 266.37,-29.24"/>
<polygon fill="red" stroke="red" stroke-width="0.33" points="266.86,-32.71 276.58,-28.5 266.36,-25.73 266.86,-32.71"/>
</g>
<!-- 997 -->
<g id="node26" class="node">
<title>997</title>
<ellipse fill="white" stroke="black" cx="42.75" cy="-116.61" rx="21.43" ry="21.43"/>
<text text-anchor="middle" x="42.75" y="-114.41" font-family="Times New Roman,serif" font-size="9.00">997</text>
</g>
<!-- &#45;7&#45;&gt;997 -->
<g id="edge10" class="edge">
<title>&#45;7&#45;&gt;997</title>
<path fill="none" stroke="red" stroke-width="0.4" d="M80.72,-195.02C75.14,-183.65 64.79,-162.55 56.3,-145.25"/>
<polygon fill="red" stroke="red" stroke-width="0.4" points="59.37,-143.55 51.82,-136.11 53.08,-146.63 59.37,-143.55"/>
</g>
<!-- 1384 -->
<g id="node27" class="node">
<title>1384</title>
<ellipse fill="white" stroke="black" cx="144.75" cy="-116.61" rx="25" ry="25"/>
<text text-anchor="middle" x="144.75" y="-114.41" font-family="Times New Roman,serif" font-size="9.00">1384</text>
</g>
<!-- &#45;7&#45;&gt;1384 -->
<g id="edge14" class="edge">
<title>&#45;7&#45;&gt;1384</title>
<path fill="none" stroke="green" stroke-width="0.22" d="M90.5,-195.02C98.34,-183.83 112.79,-163.21 124.8,-146.07"/>
<polygon fill="green" stroke="green" stroke-width="0.22" points="127.94,-147.69 130.81,-137.49 122.21,-143.67 127.94,-147.69"/>
</g>
<!-- &#45;8 -->
<g id="node8" class="node">
<title>&#45;8</title>
<polygon fill="lightgray" stroke="black" points="532.75,-368.48 508.75,-368.48 508.75,-350.48 532.75,-350.48 532.75,-368.48"/>
<text text-anchor="middle" x="520.75" y="-357.28" font-family="Times New Roman,serif" font-size="9.00">&#45;8</text>
</g>
<!-- 1928 -->
<g id="node11" class="node">
<title>1928</title>
<ellipse fill="white" stroke="black" cx="660.75" cy="-204.23" rx="25" ry="25"/>
<text text-anchor="middle" x="660.75" y="-202.03" font-family="Times New Roman,serif" font-size="9.00">1928</text>
</g>
<!-- 609 -->
<g id="node25" class="node">
<title>609</title>
<ellipse fill="white" stroke="black" cx="705.75" cy="-116.61" rx="21.43" ry="21.43"/>
<text text-anchor="middle" x="705.75" y="-114.41" font-family="Times New Roman,serif" font-size="9.00">609</text>
</g>
<!-- 1928&#45;&gt;609 -->
<g id="edge33" class="edge">
<title>1928&#45;&gt;609</title>
<path fill="none" stroke="red" stroke-width="0.14" d="M671.87,-182.06C677.78,-170.81 685.12,-156.85 691.45,-144.8"/>
<polygon fill="red" stroke="red" stroke-width="0.14" points="694.72,-146.12 696.27,-135.64 688.52,-142.86 694.72,-146.12"/>
</g>
<!-- 1161 -->
<g id="node12" class="node">
<title>1161</title>
<ellipse fill="white" stroke="black" cx="686.75" cy="-289.73" rx="25" ry="25"/>
<text text-anchor="middle" x="686.75" y="-287.53" font-family="Times New Roman,serif" font-size="9.00">1161</text>
</g>
<!-- 1161&#45;&gt;1928 -->
<g id="edge32" class="edge">
<title>1161&#45;&gt;1928</title>
<path fill="none" stroke="green" stroke-width="0.36" d="M679.64,-265.91C676.95,-257.26 673.82,-247.23 670.9,-237.85"/>
<polygon fill="green" stroke="green" stroke-width="0.36" points="674.16,-236.52 667.84,-228.02 667.47,-238.61 674.16,-236.52"/>
</g>
<!-- 1816 -->
<g id="node14" class="node">
<title>1816</title>
<ellipse fill="white" stroke="black" cx="766.75" cy="-204.23" rx="25" ry="25"/>
<text text-anchor="middle" x="766.75" y="-202.03" font-family="Times New Roman,serif" font-size="9.00">1816</text>
</g>
<!-- 1161&#45;&gt;1816 -->
<g id="edge25" class="edge">
<title>1161&#45;&gt;1816</title>
<path fill="none" stroke="green" stroke-width="0.31" d="M703.71,-271.02C715.14,-259.09 730.37,-243.2 742.99,-230.02"/>
<polygon fill="green" stroke="green" stroke-width="0.31" points="745.69,-232.27 750.08,-222.62 740.63,-227.42 745.69,-232.27"/>
</g>
<!-- 1161&#45;&gt;1719 -->
<g id="edge34" class="edge">
<title>1161&#45;&gt;1719</title>
<path fill="none" stroke="green" stroke-width="0.11" d="M664.87,-277.98C635.11,-263.37 581.72,-237.14 547.82,-220.49"/>
<polygon fill="green" stroke="green" stroke-width="0.11" points="549.33,-217.33 538.81,-216.06 546.24,-223.62 549.33,-217.33"/>
</g>
<!-- 1161&#45;&gt;609 -->
<g id="edge24" class="edge">
<title>1161&#45;&gt;609</title>
<path fill="none" stroke="green" stroke-width="0.23" stroke-dasharray="1,5" d="M690.09,-265.2C691.6,-254.2 693.36,-240.93 694.75,-228.98 697.93,-201.61 700.96,-170.4 703.03,-147.99"/>
<polygon fill="green" stroke="green" stroke-width="0.23" points="706.54,-148.03 703.97,-137.75 699.57,-147.39 706.54,-148.03"/>
</g>
<!-- 1592 -->
<g id="node18" class="node">
<title>1592</title>
<ellipse fill="white" stroke="black" cx="139.75" cy="-204.23" rx="25" ry="25"/>
<text text-anchor="middle" x="139.75" y="-202.03" font-family="Times New Roman,serif" font-size="9.00">1592</text>
</g>
<!-- 1841&#45;&gt;1592 -->
<g id="edge28" class="edge">
<title>1841&#45;&gt;1592</title>
<path fill="none" stroke="red" stroke-width="0.24" d="M176.63,-268.09C170.74,-258.05 163.56,-245.81 157.1,-234.8"/>
<polygon fill="red" stroke="red" stroke-width="0.24" points="159.97,-232.77 151.89,-225.92 153.93,-236.32 159.97,-232.77"/>
</g>
<!-- 1592&#45;&gt;Speed -->
<g id="edge19" class="edge">
<title>1592&#45;&gt;Speed</title>
<path fill="none" stroke="green" stroke-width="0.21" stroke-dasharray="1,5" d="M155.65,-185.07C165.76,-173.53 179.06,-158.35 190.47,-145.32"/>
<polygon fill="green" stroke="green" stroke-width="0.21" points="193.33,-147.36 197.29,-137.54 188.07,-142.75 193.33,-147.36"/>
</g>
<!-- 1473&#45;&gt;Angle -->
<g id="edge18" class="edge">
<title>1473&#45;&gt;Angle</title>
<path fill="none" stroke="red" stroke-width="0.11" d="M416.55,-102.28C394.7,-87.88 359.63,-64.74 334.39,-48.09"/>
<polygon fill="red" stroke="red" stroke-width="0.11" points="336.19,-45.08 325.91,-42.49 332.33,-50.92 336.19,-45.08"/>
</g>
<!-- 707 -->
<g id="node20" class="node">
<title>707</title>
<ellipse fill="white" stroke="black" cx="241.75" cy="-204.23" rx="21.43" ry="21.43"/>
<text text-anchor="middle" x="241.75" y="-202.03" font-family="Times New Roman,serif" font-size="9.00">707</text>
</g>
<!-- 707&#45;&gt;Speed -->
<g id="edge9" class="edge">
<title>707&#45;&gt;Speed</title>
<path fill="none" stroke="red" stroke-width="0.12" stroke-dasharray="1,5" d="M235.62,-183.8C232.66,-174.43 229.03,-162.91 225.63,-152.12"/>
<polygon fill="red" stroke="red" stroke-width="0.12" points="228.94,-150.98 222.59,-142.5 222.26,-153.09 228.94,-150.98"/>
</g>
<!-- 707&#45;&gt;1426 -->
<g id="edge20" class="edge">
<title>707&#45;&gt;1426</title>
<path fill="none" stroke="green" stroke-width="0.56" d="M251.9,-185.49C258.21,-174.45 266.49,-159.98 273.79,-147.24"/>
<polygon fill="green" stroke="green" stroke-width="0.56" points="276.95,-148.76 278.88,-138.34 270.88,-145.28 276.95,-148.76"/>
</g>
<!-- 1864&#45;&gt;1473 -->
<g id="edge30" class="edge">
<title>1864&#45;&gt;1473</title>
<path fill="none" stroke="green" stroke-width="0.47" d="M459.99,-264.93C455.34,-235.43 447.37,-184.96 442.08,-151.44"/>
<polygon fill="green" stroke="green" stroke-width="0.47" points="445.48,-150.53 440.47,-141.2 438.57,-151.62 445.48,-150.53"/>
</g>
<!-- 1864&#45;&gt;1739 -->
<g id="edge31" class="edge">
<title>1864&#45;&gt;1739</title>
<path fill="none" stroke="green" stroke-width="0.12" d="M450.92,-268.51C444.39,-258.23 436.34,-245.55 429.16,-234.24"/>
<polygon fill="green" stroke="green" stroke-width="0.12" points="431.95,-232.11 423.64,-225.54 426.04,-235.86 431.95,-232.11"/>
</g>
<!-- 1739&#45;&gt;1473 -->
<g id="edge23" class="edge">
<title>1739&#45;&gt;1473</title>
<path fill="none" stroke="red" stroke-width="0.27" d="M417.71,-180.28C420.51,-171.07 423.79,-160.28 426.83,-150.27"/>
<polygon fill="red" stroke="red" stroke-width="0.27" points="430.2,-151.2 429.76,-140.62 423.5,-149.17 430.2,-151.2"/>
</g>
<!-- 1115&#45;&gt;1426 -->
<g id="edge26" class="edge">
<title>1115&#45;&gt;1426</title>
<path fill="none" stroke="green" stroke-width="0.2" d="M330.92,-182.5C324.28,-171.78 316.06,-158.5 308.79,-146.76"/>
<polygon fill="green" stroke="green" stroke-width="0.2" points="311.7,-144.81 303.46,-138.15 305.74,-148.49 311.7,-144.81"/>
</g>
<!-- 1384&#45;&gt;Angle -->
<g id="edge15" class="edge">
<title>1384&#45;&gt;Angle</title>
<path fill="none" stroke="red" stroke-width="0.25" d="M163.71,-100.17C168.49,-96.57 173.7,-92.87 178.75,-89.74 208.31,-71.41 244.05,-54.17 269.73,-42.57"/>
<polygon fill="red" stroke="red" stroke-width="0.25" points="271.34,-45.68 279.05,-38.41 268.49,-39.29 271.34,-45.68"/>
</g>
</g>
</svg>
