<?xml version="1.0" encoding="UTF-8" standalone="no"?>
<!DOCTYPE svg PUBLIC "-//W3C//DTD SVG 1.1//EN"
 "http://www.w3.org/Graphics/SVG/1.1/DTD/svg11.dtd">
<!-- Generated by graphviz version 2.47.0 (20210316.0004)
 -->
<!-- Pages: 1 -->
<svg width="441pt" height="221pt"
 viewBox="0.00 0.00 440.65 221.04" xmlns="http://www.w3.org/2000/svg" xmlns:xlink="http://www.w3.org/1999/xlink">
<g id="graph0" class="graph" transform="scale(1 1) rotate(0) translate(4 217.04)">
<polygon fill="white" stroke="transparent" points="-4,4 -4,-217.04 436.65,-217.04 436.65,4 -4,4"/>
<!-- 180° -->
<g id="node1" class="node">
<title>180°</title>
<polygon fill="lightgray" stroke="black" points="414.38,-149.65 380.38,-149.65 380.38,-131.65 414.38,-131.65 414.38,-149.65"/>
<text text-anchor="middle" x="397.38" y="-138.45" font-family="Times New Roman,serif" font-size="9.00">180°</text>
</g>
<!-- VELOCITY -->
<g id="node9" class="node">
<title>VELOCITY</title>
<ellipse fill="lightblue" stroke="black" cx="300.38" cy="-43.13" rx="43.27" ry="43.27"/>
<text text-anchor="middle" x="300.38" y="-40.93" font-family="Times New Roman,serif" font-size="9.00">VELOCITY</text>
</g>
<!-- 180°&#45;&gt;VELOCITY -->
<g id="edge1" class="edge">
<title>180°&#45;&gt;VELOCITY</title>
<path fill="none" stroke="red" stroke-width="0.22" d="M389.11,-131.51C377.79,-120.36 356.72,-99.61 337.95,-81.13"/>
<polygon fill="red" stroke="red" stroke-width="0.22" points="340.21,-78.44 330.63,-73.91 335.3,-83.42 340.21,-78.44"/>
</g>
<!-- ANGLE -->
<g id="node10" class="node">
<title>ANGLE</title>
<ellipse fill="lightblue" stroke="black" cx="206.38" cy="-43.13" rx="33.47" ry="33.47"/>
<text text-anchor="middle" x="206.38" y="-40.93" font-family="Times New Roman,serif" font-size="9.00">ANGLE</text>
</g>
<!-- 180°&#45;&gt;ANGLE -->
<g id="edge2" class="edge">
<title>180°&#45;&gt;ANGLE</title>
<path fill="none" stroke="red" stroke-width="0.11" d="M386.94,-131.6C382.36,-128.36 376.8,-124.8 371.38,-122.27 319.78,-98.16 297.36,-115.35 248.38,-86.27 243.61,-83.43 238.99,-79.93 234.67,-76.17"/>
<polygon fill="red" stroke="red" stroke-width="0.11" points="236.93,-73.49 227.25,-69.2 232.14,-78.59 236.93,-73.49"/>
</g>
<!-- &#45;90° -->
<g id="node2" class="node">
<title>&#45;90°</title>
<polygon fill="lightgray" stroke="black" points="124.38,-149.65 92.38,-149.65 92.38,-131.65 124.38,-131.65 124.38,-149.65"/>
<text text-anchor="middle" x="108.38" y="-138.45" font-family="Times New Roman,serif" font-size="9.00">&#45;90°</text>
</g>
<!-- &#45;90°&#45;&gt;VELOCITY -->
<g id="edge3" class="edge">
<title>&#45;90°&#45;&gt;VELOCITY</title>
<path fill="none" stroke="green" stroke-width="0.36" stroke-dasharray="1,5" d="M118.65,-131.46C123.01,-128.27 128.26,-124.78 133.38,-122.27 181.48,-98.71 201.18,-111.57 248.38,-86.27 252.41,-84.11 256.43,-81.62 260.34,-78.95"/>
<polygon fill="green" stroke="green" stroke-width="0.36" points="262.66,-81.59 268.71,-72.89 258.56,-75.92 262.66,-81.59"/>
</g>
<!-- &#45;90°&#45;&gt;ANGLE -->
<g id="edge4" class="edge">
<title>&#45;90°&#45;&gt;ANGLE</title>
<path fill="none" stroke="green" stroke-width="0.31" d="M116.74,-131.51C129.68,-118.89 155.23,-93.99 175.75,-73.99"/>
<polygon fill="green" stroke="green" stroke-width="0.31" points="178.34,-76.36 183.06,-66.87 173.45,-71.35 178.34,-76.36"/>
</g>
<!-- &#45;40° -->
<g id="node3" class="node">
<title>&#45;40°</title>
<polygon fill="lightgray" stroke="black" points="174.38,-149.65 142.38,-149.65 142.38,-131.65 174.38,-131.65 174.38,-149.65"/>
<text text-anchor="middle" x="158.38" y="-138.45" font-family="Times New Roman,serif" font-size="9.00">&#45;40°</text>
</g>
<!-- &#45;40°&#45;&gt;VELOCITY -->
<g id="edge5" class="edge">
<title>&#45;40°&#45;&gt;VELOCITY</title>
<path fill="none" stroke="red" stroke-width="0.16" d="M169.42,-131.62C173.72,-128.59 178.72,-125.17 183.38,-122.27 211.42,-104.82 221.01,-104.73 248.38,-86.27 252.17,-83.71 256.02,-80.95 259.83,-78.1"/>
<polygon fill="red" stroke="red" stroke-width="0.16" points="262.25,-80.65 268.04,-71.78 257.98,-75.11 262.25,-80.65"/>
</g>
<!-- &#45;40°&#45;&gt;ANGLE -->
<g id="edge6" class="edge">
<title>&#45;40°&#45;&gt;ANGLE</title>
<path fill="none" stroke="green" stroke-width="0.13" d="M162.48,-131.51C167.96,-120.6 178.06,-100.5 187.19,-82.33"/>
<polygon fill="green" stroke="green" stroke-width="0.13" points="190.49,-83.57 191.85,-73.06 184.23,-80.42 190.49,-83.57"/>
</g>
<!-- &#45;15° -->
<g id="node4" class="node">
<title>&#45;15°</title>
<polygon fill="lightgray" stroke="black" points="224.38,-149.65 192.38,-149.65 192.38,-131.65 224.38,-131.65 224.38,-149.65"/>
<text text-anchor="middle" x="208.38" y="-138.45" font-family="Times New Roman,serif" font-size="9.00">&#45;15°</text>
</g>
<!-- &#45;15°&#45;&gt;VELOCITY -->
<g id="edge7" class="edge">
<title>&#45;15°&#45;&gt;VELOCITY</title>
<path fill="none" stroke="green" stroke-width="0.25" d="M216.23,-131.51C226.72,-120.61 246.04,-100.56 263.52,-82.41"/>
<polygon fill="green" stroke="green" stroke-width="0.25" points="266.46,-84.41 270.87,-74.77 261.41,-79.55 266.46,-84.41"/>
</g>
<!-- &#45;15°&#45;&gt;ANGLE -->
<g id="edge8" class="edge">
<title>&#45;15°&#45;&gt;ANGLE</title>
<path fill="none" stroke="red" stroke-width="0.19" d="M208.21,-131.51C208,-121.5 207.63,-103.75 207.28,-86.85"/>
<polygon fill="red" stroke="red" stroke-width="0.19" points="210.77,-86.44 207.06,-76.51 203.77,-86.58 210.77,-86.44"/>
</g>
<!-- 0° -->
<g id="node5" class="node">
<title>0°</title>
<polygon fill="lightgray" stroke="black" points="267.88,-149.65 242.88,-149.65 242.88,-131.65 267.88,-131.65 267.88,-149.65"/>
<text text-anchor="middle" x="255.38" y="-138.45" font-family="Times New Roman,serif" font-size="9.00">0°</text>
</g>
<!-- 0°&#45;&gt;VELOCITY -->
<g id="edge9" class="edge">
<title>0°&#45;&gt;VELOCITY</title>
<path fill="none" stroke="green" stroke-width="0.26" d="M259.22,-131.51C263.45,-122.54 270.59,-107.37 277.76,-92.16"/>
<polygon fill="green" stroke="green" stroke-width="0.26" points="281.1,-93.28 282.2,-82.74 274.77,-90.3 281.1,-93.28"/>
</g>
<!-- 0°&#45;&gt;ANGLE -->
<g id="edge10" class="edge">
<title>0°&#45;&gt;ANGLE</title>
<path fill="none" stroke="green" stroke-width="0.3" d="M251.21,-131.51C245.61,-120.6 235.3,-100.5 225.98,-82.33"/>
<polygon fill="green" stroke="green" stroke-width="0.3" points="228.9,-80.36 221.22,-73.06 222.67,-83.55 228.9,-80.36"/>
</g>
<!-- 15° -->
<g id="node6" class="node">
<title>15°</title>
<polygon fill="lightgray" stroke="black" points="314.88,-149.65 285.88,-149.65 285.88,-131.65 314.88,-131.65 314.88,-149.65"/>
<text text-anchor="middle" x="300.38" y="-138.45" font-family="Times New Roman,serif" font-size="9.00">15°</text>
</g>
<!-- 15°&#45;&gt;VELOCITY -->
<g id="edge11" class="edge">
<title>15°&#45;&gt;VELOCITY</title>
<path fill="none" stroke="red" stroke-width="0.26" d="M300.38,-131.51C300.38,-123.38 300.38,-110.14 300.38,-96.4"/>
<polygon fill="red" stroke="red" stroke-width="0.26" points="303.88,-96.38 300.38,-86.38 296.88,-96.38 303.88,-96.38"/>
</g>
<!-- 15°&#45;&gt;ANGLE -->
<g id="edge12" class="edge">
<title>15°&#45;&gt;ANGLE</title>
<path fill="none" stroke="green" stroke-width="0.19" d="M292.37,-131.51C280.17,-119.11 256.28,-94.84 236.78,-75.02"/>
<polygon fill="green" stroke="green" stroke-width="0.19" points="239.06,-72.34 229.55,-67.67 234.07,-77.25 239.06,-72.34"/>
</g>
<!-- 40° -->
<g id="node7" class="node">
<title>40°</title>
<polygon fill="lightgray" stroke="black" points="361.88,-149.65 332.88,-149.65 332.88,-131.65 361.88,-131.65 361.88,-149.65"/>
<text text-anchor="middle" x="347.38" y="-138.45" font-family="Times New Roman,serif" font-size="9.00">40°</text>
</g>
<!-- 40°&#45;&gt;VELOCITY -->
<g id="edge13" class="edge">
<title>40°&#45;&gt;VELOCITY</title>
<path fill="none" stroke="red" stroke-width="0.17" d="M343.38,-131.51C338.89,-122.38 331.23,-106.83 323.62,-91.35"/>
<polygon fill="red" stroke="red" stroke-width="0.17" points="326.72,-89.72 319.16,-82.29 320.44,-92.81 326.72,-89.72"/>
</g>
<!-- 40°&#45;&gt;ANGLE -->
<g id="edge14" class="edge">
<title>40°&#45;&gt;ANGLE</title>
<path fill="none" stroke="red" stroke-width="0.34" d="M337.4,-131.4C333.47,-128.34 328.84,-124.96 324.38,-122.27 292.42,-102.9 278.92,-107.82 248.38,-86.27 244.07,-83.22 239.79,-79.7 235.73,-76.03"/>
<polygon fill="red" stroke="red" stroke-width="0.34" points="237.84,-73.22 228.19,-68.86 233.02,-78.29 237.84,-73.22"/>
</g>
<!-- 90° -->
<g id="node8" class="node">
<title>90°</title>
<polygon fill="lightgray" stroke="black" points="78.88,-213.04 49.88,-213.04 49.88,-195.04 78.88,-195.04 78.88,-213.04"/>
<text text-anchor="middle" x="64.38" y="-201.84" font-family="Times New Roman,serif" font-size="9.00">90°</text>
</g>
<!-- 90°&#45;&gt;VELOCITY -->
<g id="edge15" class="edge">
<title>90°&#45;&gt;VELOCITY</title>
<path fill="none" stroke="red" stroke-width="0.63" d="M79.15,-202.36C143.85,-199.25 400.13,-185.31 423.38,-159.04 455.07,-123.24 396.03,-86.27 349.28,-64.24"/>
<polygon fill="red" stroke="red" stroke-width="0.63" points="350.67,-61.03 340.12,-60.04 347.75,-67.4 350.67,-61.03"/>
</g>
<!-- 90°&#45;&gt;ANGLE -->
<g id="edge16" class="edge">
<title>90°&#45;&gt;ANGLE</title>
<path fill="none" stroke="red" stroke-width="0.34" stroke-dasharray="1,5" d="M64.35,-194.64C64.69,-178.97 67.36,-144.81 83.38,-122.27 103.9,-93.4 138.76,-72.74 166.14,-59.94"/>
<polygon fill="red" stroke="red" stroke-width="0.34" points="167.8,-63.04 175.48,-55.74 164.93,-56.65 167.8,-63.04"/>
</g>
<!-- 18 -->
<g id="node11" class="node">
<title>18</title>
<ellipse fill="white" stroke="black" cx="18.38" cy="-140.65" rx="18.27" ry="18.27"/>
<text text-anchor="middle" x="18.38" y="-138.45" font-family="Times New Roman,serif" font-size="9.00">18</text>
</g>
<!-- 90°&#45;&gt;18 -->
<g id="edge17" class="edge">
<title>90°&#45;&gt;18</title>
<path fill="none" stroke="green" stroke-width="0.3" d="M58.37,-195.01C52.53,-187.22 43.38,-175.01 35.31,-164.24"/>
<polygon fill="green" stroke="green" stroke-width="0.3" points="37.95,-161.93 29.16,-156.02 32.35,-166.13 37.95,-161.93"/>
</g>
<!-- 18&#45;&gt;ANGLE -->
<g id="edge18" class="edge">
<title>18&#45;&gt;ANGLE</title>
<path fill="none" stroke="red" stroke-width="0.34" d="M34.28,-130.88C39.4,-128.09 45.12,-125.02 50.38,-122.27 90.05,-101.57 135.88,-78.74 167.56,-63.13"/>
<polygon fill="red" stroke="red" stroke-width="0.34" points="169.48,-66.09 176.91,-58.53 166.39,-59.81 169.48,-66.09"/>
</g>
</g>
</svg>
