<?xml version="1.0" encoding="UTF-8" standalone="no"?>
<!DOCTYPE svg PUBLIC "-//W3C//DTD SVG 1.1//EN"
 "http://www.w3.org/Graphics/SVG/1.1/DTD/svg11.dtd">
<!-- Generated by graphviz version 2.47.0 (20210316.0004)
 -->
<!-- Pages: 1 -->
<svg width="378pt" height="148pt"
 viewBox="0.00 0.00 377.50 148.27" xmlns="http://www.w3.org/2000/svg" xmlns:xlink="http://www.w3.org/1999/xlink">
<g id="graph0" class="graph" transform="scale(1 1) rotate(0) translate(4 144.27)">
<polygon fill="white" stroke="transparent" points="-4,4 -4,-144.27 373.5,-144.27 373.5,4 -4,4"/>
<!-- 180° -->
<g id="node1" class="node">
<title>180°</title>
<polygon fill="lightgray" stroke="black" points="77.5,-140.27 43.5,-140.27 43.5,-122.27 77.5,-122.27 77.5,-140.27"/>
<text text-anchor="middle" x="60.5" y="-129.07" font-family="Times New Roman,serif" font-size="9.00">180°</text>
</g>
<!-- VELOCITY -->
<g id="node9" class="node">
<title>VELOCITY</title>
<ellipse fill="lightblue" stroke="black" cx="138.5" cy="-43.13" rx="43.27" ry="43.27"/>
<text text-anchor="middle" x="138.5" y="-40.93" font-family="Times New Roman,serif" font-size="9.00">VELOCITY</text>
</g>
<!-- 180°&#45;&gt;VELOCITY -->
<g id="edge1" class="edge">
<title>180°&#45;&gt;VELOCITY</title>
<path fill="none" stroke="red" stroke-width="0.2" d="M67.98,-122.01C76.16,-112.97 89.87,-97.83 103.04,-83.29"/>
<polygon fill="red" stroke="red" stroke-width="0.2" points="105.73,-85.54 109.85,-75.77 100.54,-80.84 105.73,-85.54"/>
</g>
<!-- ANGLE -->
<g id="node10" class="node">
<title>ANGLE</title>
<ellipse fill="lightblue" stroke="black" cx="232.5" cy="-43.13" rx="33.47" ry="33.47"/>
<text text-anchor="middle" x="232.5" y="-40.93" font-family="Times New Roman,serif" font-size="9.00">ANGLE</text>
</g>
<!-- 180°&#45;&gt;ANGLE -->
<g id="edge2" class="edge">
<title>180°&#45;&gt;ANGLE</title>
<path fill="none" stroke="green" stroke-width="0.24" d="M77.7,-124.93C110.73,-114.61 180.66,-92.39 190.5,-86.27 195.21,-83.33 199.8,-79.77 204.1,-75.98"/>
<polygon fill="green" stroke="green" stroke-width="0.24" points="206.64,-78.4 211.51,-68.99 201.84,-73.31 206.64,-78.4"/>
</g>
<!-- &#45;90° -->
<g id="node2" class="node">
<title>&#45;90°</title>
<polygon fill="lightgray" stroke="black" points="127.5,-140.27 95.5,-140.27 95.5,-122.27 127.5,-122.27 127.5,-140.27"/>
<text text-anchor="middle" x="111.5" y="-129.07" font-family="Times New Roman,serif" font-size="9.00">&#45;90°</text>
</g>
<!-- &#45;90°&#45;&gt;VELOCITY -->
<g id="edge3" class="edge">
<title>&#45;90°&#45;&gt;VELOCITY</title>
<path fill="none" stroke="green" stroke-width="0.26" d="M114.09,-122.01C116.21,-115.23 119.41,-105.03 122.8,-94.22"/>
<polygon fill="green" stroke="green" stroke-width="0.26" points="126.15,-95.22 125.81,-84.63 119.47,-93.13 126.15,-95.22"/>
</g>
<!-- &#45;90°&#45;&gt;ANGLE -->
<g id="edge4" class="edge">
<title>&#45;90°&#45;&gt;ANGLE</title>
<path fill="none" stroke="green" stroke-width="0.37" d="M127.73,-122.89C144.29,-114.99 170.34,-101.51 190.5,-86.27 194.72,-83.08 198.93,-79.48 202.96,-75.76"/>
<polygon fill="green" stroke="green" stroke-width="0.37" points="205.69,-78 210.47,-68.55 200.83,-72.95 205.69,-78"/>
</g>
<!-- &#45;40° -->
<g id="node3" class="node">
<title>&#45;40°</title>
<polygon fill="lightgray" stroke="black" points="177.5,-140.27 145.5,-140.27 145.5,-122.27 177.5,-122.27 177.5,-140.27"/>
<text text-anchor="middle" x="161.5" y="-129.07" font-family="Times New Roman,serif" font-size="9.00">&#45;40°</text>
</g>
<!-- &#45;40°&#45;&gt;VELOCITY -->
<g id="edge5" class="edge">
<title>&#45;40°&#45;&gt;VELOCITY</title>
<path fill="none" stroke="green" stroke-width="0.21" d="M159.29,-122.01C157.52,-115.37 154.87,-105.43 152.04,-94.85"/>
<polygon fill="green" stroke="green" stroke-width="0.21" points="155.38,-93.8 149.42,-85.04 148.62,-95.6 155.38,-93.8"/>
</g>
<!-- &#45;40°&#45;&gt;ANGLE -->
<g id="edge6" class="edge">
<title>&#45;40°&#45;&gt;ANGLE</title>
<path fill="none" stroke="green" stroke-width="0.16" d="M168.31,-122.01C176.84,-111.66 191.97,-93.3 205.4,-77.01"/>
<polygon fill="green" stroke="green" stroke-width="0.16" points="208.16,-79.16 211.82,-69.22 202.76,-74.71 208.16,-79.16"/>
</g>
<!-- &#45;15° -->
<g id="node4" class="node">
<title>&#45;15°</title>
<polygon fill="lightgray" stroke="black" points="369.5,-140.27 337.5,-140.27 337.5,-122.27 369.5,-122.27 369.5,-140.27"/>
<text text-anchor="middle" x="353.5" y="-129.07" font-family="Times New Roman,serif" font-size="9.00">&#45;15°</text>
</g>
<!-- &#45;15°&#45;&gt;ANGLE -->
<g id="edge7" class="edge">
<title>&#45;15°&#45;&gt;ANGLE</title>
<path fill="none" stroke="green" stroke-width="0.28" d="M341.9,-122.01C324.89,-109.9 292.49,-86.84 267.35,-68.94"/>
<polygon fill="green" stroke="green" stroke-width="0.28" points="269.31,-66.04 259.13,-63.09 265.25,-71.74 269.31,-66.04"/>
</g>
<!-- 0° -->
<g id="node5" class="node">
<title>0°</title>
<polygon fill="lightgray" stroke="black" points="25,-140.27 0,-140.27 0,-122.27 25,-122.27 25,-140.27"/>
<text text-anchor="middle" x="12.5" y="-129.07" font-family="Times New Roman,serif" font-size="9.00">0°</text>
</g>
<!-- 0°&#45;&gt;VELOCITY -->
<g id="edge8" class="edge">
<title>0°&#45;&gt;VELOCITY</title>
<path fill="none" stroke="green" stroke-width="0.13" d="M24.58,-122.01C40.62,-111.05 69.79,-91.1 94.6,-74.14"/>
<polygon fill="green" stroke="green" stroke-width="0.13" points="96.89,-76.82 103.17,-68.29 92.94,-71.04 96.89,-76.82"/>
</g>
<!-- 15° -->
<g id="node6" class="node">
<title>15°</title>
<polygon fill="lightgray" stroke="black" points="225,-140.27 196,-140.27 196,-122.27 225,-122.27 225,-140.27"/>
<text text-anchor="middle" x="210.5" y="-129.07" font-family="Times New Roman,serif" font-size="9.00">15°</text>
</g>
<!-- 15°&#45;&gt;VELOCITY -->
<g id="edge9" class="edge">
<title>15°&#45;&gt;VELOCITY</title>
<path fill="none" stroke="green" stroke-width="0.11" d="M203.6,-122.01C196.29,-113.27 184.21,-98.82 172.43,-84.72"/>
<polygon fill="green" stroke="green" stroke-width="0.11" points="175.04,-82.39 165.94,-76.96 169.67,-86.88 175.04,-82.39"/>
</g>
<!-- 15°&#45;&gt;ANGLE -->
<g id="edge10" class="edge">
<title>15°&#45;&gt;ANGLE</title>
<path fill="none" stroke="red" stroke-width="0.37" d="M212.61,-122.01C214.79,-113.47 218.36,-99.48 221.88,-85.69"/>
<polygon fill="red" stroke="red" stroke-width="0.37" points="225.33,-86.33 224.42,-75.77 218.55,-84.6 225.33,-86.33"/>
</g>
<!-- 40° -->
<g id="node7" class="node">
<title>40°</title>
<polygon fill="lightgray" stroke="black" points="272,-140.27 243,-140.27 243,-122.27 272,-122.27 272,-140.27"/>
<text text-anchor="middle" x="257.5" y="-129.07" font-family="Times New Roman,serif" font-size="9.00">40°</text>
</g>
<!-- 40°&#45;&gt;VELOCITY -->
<g id="edge11" class="edge">
<title>40°&#45;&gt;VELOCITY</title>
<path fill="none" stroke="green" stroke-width="0.15" d="M244.4,-122.21C230.7,-113.65 208.7,-99.57 190.5,-86.27 186.81,-83.57 183.03,-80.71 179.27,-77.8"/>
<polygon fill="green" stroke="green" stroke-width="0.15" points="181.14,-74.82 171.12,-71.39 176.82,-80.32 181.14,-74.82"/>
</g>
<!-- 40°&#45;&gt;ANGLE -->
<g id="edge12" class="edge">
<title>40°&#45;&gt;ANGLE</title>
<path fill="none" stroke="red" stroke-width="0.16" d="M255.1,-122.01C252.6,-113.4 248.5,-99.26 244.47,-85.37"/>
<polygon fill="red" stroke="red" stroke-width="0.16" points="247.72,-84.01 241.57,-75.38 241,-85.96 247.72,-84.01"/>
</g>
<!-- 90° -->
<g id="node8" class="node">
<title>90°</title>
<polygon fill="lightgray" stroke="black" points="319,-140.27 290,-140.27 290,-122.27 319,-122.27 319,-140.27"/>
<text text-anchor="middle" x="304.5" y="-129.07" font-family="Times New Roman,serif" font-size="9.00">90°</text>
</g>
<!-- 90°&#45;&gt;VELOCITY -->
<g id="edge13" class="edge">
<title>90°&#45;&gt;VELOCITY</title>
<path fill="none" stroke="green" stroke-width="0.36" d="M289.69,-124.85C260.91,-114.27 199.45,-91.45 190.5,-86.27 186.55,-83.98 182.58,-81.4 178.7,-78.67"/>
<polygon fill="green" stroke="green" stroke-width="0.36" points="180.5,-75.65 170.38,-72.52 176.34,-81.28 180.5,-75.65"/>
</g>
<!-- 90°&#45;&gt;ANGLE -->
<g id="edge14" class="edge">
<title>90°&#45;&gt;ANGLE</title>
<path fill="none" stroke="red" stroke-width="0.44" d="M297.6,-122.01C288.95,-111.66 273.6,-93.3 259.98,-77.01"/>
<polygon fill="red" stroke="red" stroke-width="0.44" points="262.57,-74.65 253.47,-69.22 257.2,-79.14 262.57,-74.65"/>
</g>
</g>
</svg>
