<?xml version="1.0" encoding="UTF-8" standalone="no"?>
<!DOCTYPE svg PUBLIC "-//W3C//DTD SVG 1.1//EN"
 "http://www.w3.org/Graphics/SVG/1.1/DTD/svg11.dtd">
<!-- Generated by graphviz version 2.47.0 (20210316.0004)
 -->
<!-- Pages: 1 -->
<svg width="414pt" height="214pt"
 viewBox="0.00 0.00 413.70 213.97" xmlns="http://www.w3.org/2000/svg" xmlns:xlink="http://www.w3.org/1999/xlink">
<g id="graph0" class="graph" transform="scale(1 1) rotate(0) translate(4 209.97)">
<polygon fill="white" stroke="transparent" points="-4,4 -4,-209.97 409.7,-209.97 409.7,4 -4,4"/>
<!-- 180° -->
<g id="node1" class="node">
<title>180°</title>
<polygon fill="lightgray" stroke="black" points="51.95,-146.12 17.95,-146.12 17.95,-128.12 51.95,-128.12 51.95,-146.12"/>
<text text-anchor="middle" x="34.95" y="-134.92" font-family="Times New Roman,serif" font-size="9.00">180°</text>
</g>
<!-- VELOCITY -->
<g id="node9" class="node">
<title>VELOCITY</title>
<ellipse fill="lightblue" stroke="black" cx="135.95" cy="-43.13" rx="43.27" ry="43.27"/>
<text text-anchor="middle" x="135.95" y="-40.93" font-family="Times New Roman,serif" font-size="9.00">VELOCITY</text>
</g>
<!-- 180°&#45;&gt;VELOCITY -->
<g id="edge1" class="edge">
<title>180°&#45;&gt;VELOCITY</title>
<path fill="none" stroke="red" stroke-width="0.23" d="M43.91,-127.95C55.76,-117.16 77.4,-97.46 96.72,-79.86"/>
<polygon fill="red" stroke="red" stroke-width="0.23" points="99.22,-82.32 104.26,-72.99 94.51,-77.14 99.22,-82.32"/>
</g>
<!-- ANGLE -->
<g id="node10" class="node">
<title>ANGLE</title>
<ellipse fill="lightblue" stroke="black" cx="231.95" cy="-43.13" rx="33.47" ry="33.47"/>
<text text-anchor="middle" x="231.95" y="-40.93" font-family="Times New Roman,serif" font-size="9.00">ANGLE</text>
</g>
<!-- 180°&#45;&gt;ANGLE -->
<g id="edge2" class="edge">
<title>180°&#45;&gt;ANGLE</title>
<path fill="none" stroke="red" stroke-width="0.3" d="M48.72,-128.08C52.6,-126.01 56.87,-123.91 60.95,-122.27 115.37,-100.35 137.03,-115.42 187.95,-86.27 193.12,-83.3 198.15,-79.6 202.85,-75.63"/>
<polygon fill="red" stroke="red" stroke-width="0.3" points="205.35,-78.09 210.41,-68.78 200.65,-72.9 205.35,-78.09"/>
</g>
<!-- &#45;90° -->
<g id="node2" class="node">
<title>&#45;90°</title>
<polygon fill="lightgray" stroke="black" points="101.95,-146.12 69.95,-146.12 69.95,-128.12 101.95,-128.12 101.95,-146.12"/>
<text text-anchor="middle" x="85.95" y="-134.92" font-family="Times New Roman,serif" font-size="9.00">&#45;90°</text>
</g>
<!-- &#45;90°&#45;&gt;VELOCITY -->
<g id="edge3" class="edge">
<title>&#45;90°&#45;&gt;VELOCITY</title>
<path fill="none" stroke="green" stroke-width="0.11" d="M90.39,-127.95C95.1,-119.29 102.93,-104.87 110.79,-90.42"/>
<polygon fill="green" stroke="green" stroke-width="0.11" points="113.96,-91.92 115.66,-81.47 107.8,-88.58 113.96,-91.92"/>
</g>
<!-- &#45;90°&#45;&gt;ANGLE -->
<g id="edge4" class="edge">
<title>&#45;90°&#45;&gt;ANGLE</title>
<path fill="none" stroke="green" stroke-width="0.45" d="M100.14,-128.04C103.65,-126.1 107.41,-124.07 110.95,-122.27 144.6,-105.1 156.78,-107.61 187.95,-86.27 192.76,-82.97 197.53,-79.15 202.07,-75.17"/>
<polygon fill="green" stroke="green" stroke-width="0.45" points="204.44,-77.74 209.44,-68.4 199.71,-72.59 204.44,-77.74"/>
</g>
<!-- &#45;40° -->
<g id="node3" class="node">
<title>&#45;40°</title>
<polygon fill="lightgray" stroke="black" points="151.95,-146.12 119.95,-146.12 119.95,-128.12 151.95,-128.12 151.95,-146.12"/>
<text text-anchor="middle" x="135.95" y="-134.92" font-family="Times New Roman,serif" font-size="9.00">&#45;40°</text>
</g>
<!-- &#45;40°&#45;&gt;VELOCITY -->
<g id="edge5" class="edge">
<title>&#45;40°&#45;&gt;VELOCITY</title>
<path fill="none" stroke="red" stroke-width="0.1" d="M135.95,-127.95C135.95,-120.6 135.95,-109.11 135.95,-96.98"/>
<polygon fill="red" stroke="red" stroke-width="0.1" points="139.45,-96.7 135.95,-86.7 132.45,-96.7 139.45,-96.7"/>
</g>
<!-- &#45;40°&#45;&gt;ANGLE -->
<g id="edge6" class="edge">
<title>&#45;40°&#45;&gt;ANGLE</title>
<path fill="none" stroke="red" stroke-width="0.14" d="M144.47,-127.95C157,-115.95 181.05,-92.9 200.77,-74.01"/>
<polygon fill="red" stroke="red" stroke-width="0.14" points="203.28,-76.45 208.08,-67 198.44,-71.39 203.28,-76.45"/>
</g>
<!-- &#45;15° -->
<g id="node4" class="node">
<title>&#45;15°</title>
<polygon fill="lightgray" stroke="black" points="343.95,-146.12 311.95,-146.12 311.95,-128.12 343.95,-128.12 343.95,-146.12"/>
<text text-anchor="middle" x="327.95" y="-134.92" font-family="Times New Roman,serif" font-size="9.00">&#45;15°</text>
</g>
<!-- &#45;15°&#45;&gt;ANGLE -->
<g id="edge7" class="edge">
<title>&#45;15°&#45;&gt;ANGLE</title>
<path fill="none" stroke="green" stroke-width="0.44" d="M319.43,-127.95C306.9,-115.95 282.84,-92.9 263.13,-74.01"/>
<polygon fill="green" stroke="green" stroke-width="0.44" points="265.46,-71.39 255.81,-67 260.61,-76.45 265.46,-71.39"/>
</g>
<!-- 0° -->
<g id="node5" class="node">
<title>0°</title>
<polygon fill="lightgray" stroke="black" points="389.45,-205.97 364.45,-205.97 364.45,-187.97 389.45,-187.97 389.45,-205.97"/>
<text text-anchor="middle" x="376.95" y="-194.77" font-family="Times New Roman,serif" font-size="9.00">0°</text>
</g>
<!-- 0°&#45;&gt;VELOCITY -->
<g id="edge8" class="edge">
<title>0°&#45;&gt;VELOCITY</title>
<path fill="none" stroke="green" stroke-width="0.13" d="M364.38,-195.43C302.6,-192.69 33.13,-179.22 8.95,-151.97 -22.46,-116.58 38.14,-82.38 85.98,-62.31"/>
<polygon fill="green" stroke="green" stroke-width="0.13" points="87.41,-65.5 95.34,-58.48 84.76,-59.02 87.41,-65.5"/>
</g>
<!-- 0°&#45;&gt;ANGLE -->
<g id="edge9" class="edge">
<title>0°&#45;&gt;ANGLE</title>
<path fill="none" stroke="green" stroke-width="0.49" stroke-dasharray="1,5" d="M384.01,-187.64C395.25,-173.34 414.58,-143.58 400.95,-122.27 373.34,-79.08 315.1,-59.42 274.76,-50.71"/>
<polygon fill="green" stroke="green" stroke-width="0.49" points="275.42,-47.27 264.92,-48.72 274.03,-54.13 275.42,-47.27"/>
</g>
<!-- 5 -->
<g id="node11" class="node">
<title>5</title>
<ellipse fill="white" stroke="black" cx="376.95" cy="-137.12" rx="14.7" ry="14.7"/>
<text text-anchor="middle" x="376.95" y="-134.92" font-family="Times New Roman,serif" font-size="9.00">5</text>
</g>
<!-- 0°&#45;&gt;5 -->
<g id="edge16" class="edge">
<title>0°&#45;&gt;5</title>
<path fill="none" stroke="green" stroke-width="0.31" d="M376.95,-187.92C376.95,-181.32 376.95,-171.6 376.95,-162.5"/>
<polygon fill="green" stroke="green" stroke-width="0.31" points="380.45,-162.32 376.95,-152.32 373.45,-162.32 380.45,-162.32"/>
</g>
<!-- 15° -->
<g id="node6" class="node">
<title>15°</title>
<polygon fill="lightgray" stroke="black" points="199.45,-146.12 170.45,-146.12 170.45,-128.12 199.45,-128.12 199.45,-146.12"/>
<text text-anchor="middle" x="184.95" y="-134.92" font-family="Times New Roman,serif" font-size="9.00">15°</text>
</g>
<!-- 15°&#45;&gt;VELOCITY -->
<g id="edge10" class="edge">
<title>15°&#45;&gt;VELOCITY</title>
<path fill="none" stroke="red" stroke-width="0.14" d="M180.6,-127.95C175.98,-119.29 168.31,-104.87 160.61,-90.42"/>
<polygon fill="red" stroke="red" stroke-width="0.14" points="163.63,-88.65 155.84,-81.47 157.45,-91.94 163.63,-88.65"/>
</g>
<!-- 15°&#45;&gt;ANGLE -->
<g id="edge11" class="edge">
<title>15°&#45;&gt;ANGLE</title>
<path fill="none" stroke="green" stroke-width="0.22" d="M189.12,-127.95C194.39,-117.64 203.82,-99.18 212.49,-82.21"/>
<polygon fill="green" stroke="green" stroke-width="0.22" points="215.77,-83.49 217.2,-72.99 209.53,-80.31 215.77,-83.49"/>
</g>
<!-- 40° -->
<g id="node7" class="node">
<title>40°</title>
<polygon fill="lightgray" stroke="black" points="246.45,-146.12 217.45,-146.12 217.45,-128.12 246.45,-128.12 246.45,-146.12"/>
<text text-anchor="middle" x="231.95" y="-134.92" font-family="Times New Roman,serif" font-size="9.00">40°</text>
</g>
<!-- 40°&#45;&gt;VELOCITY -->
<g id="edge12" class="edge">
<title>40°&#45;&gt;VELOCITY</title>
<path fill="none" stroke="green" stroke-width="0.38" d="M223.43,-127.95C212.43,-117.41 192.55,-98.36 174.52,-81.09"/>
<polygon fill="green" stroke="green" stroke-width="0.38" points="176.58,-78.21 166.93,-73.82 171.73,-83.27 176.58,-78.21"/>
</g>
<!-- 40°&#45;&gt;ANGLE -->
<g id="edge13" class="edge">
<title>40°&#45;&gt;ANGLE</title>
<path fill="none" stroke="red" stroke-width="0.46" d="M231.95,-127.95C231.95,-118.58 231.95,-102.47 231.95,-86.86"/>
<polygon fill="red" stroke="red" stroke-width="0.46" points="235.45,-86.75 231.95,-76.75 228.45,-86.75 235.45,-86.75"/>
</g>
<!-- 90° -->
<g id="node8" class="node">
<title>90°</title>
<polygon fill="lightgray" stroke="black" points="293.45,-146.12 264.45,-146.12 264.45,-128.12 293.45,-128.12 293.45,-146.12"/>
<text text-anchor="middle" x="278.95" y="-134.92" font-family="Times New Roman,serif" font-size="9.00">90°</text>
</g>
<!-- 90°&#45;&gt;VELOCITY -->
<g id="edge14" class="edge">
<title>90°&#45;&gt;VELOCITY</title>
<path fill="none" stroke="red" stroke-width="0.18" d="M265.87,-128.11C262.64,-126.17 259.18,-124.12 255.95,-122.27 226.96,-105.65 217.88,-104.61 189.95,-86.27 185.71,-83.48 181.38,-80.46 177.12,-77.35"/>
<polygon fill="red" stroke="red" stroke-width="0.18" points="179.13,-74.48 169.03,-71.3 174.94,-80.09 179.13,-74.48"/>
</g>
<!-- 90°&#45;&gt;ANGLE -->
<g id="edge15" class="edge">
<title>90°&#45;&gt;ANGLE</title>
<path fill="none" stroke="red" stroke-width="0.33" d="M274.78,-127.95C269.51,-117.64 260.08,-99.18 251.41,-82.21"/>
<polygon fill="red" stroke="red" stroke-width="0.33" points="254.36,-80.31 246.7,-72.99 248.13,-83.49 254.36,-80.31"/>
</g>
<!-- 5&#45;&gt;ANGLE -->
<g id="edge17" class="edge">
<title>5&#45;&gt;ANGLE</title>
<path fill="none" stroke="red" stroke-width="0.2" d="M364.59,-128.27C343.49,-114.89 299.77,-87.16 268.28,-67.18"/>
<polygon fill="red" stroke="red" stroke-width="0.2" points="270.07,-64.17 259.75,-61.77 266.32,-70.08 270.07,-64.17"/>
</g>
</g>
</svg>
