<?xml version="1.0" encoding="UTF-8" standalone="no"?>
<!DOCTYPE svg PUBLIC "-//W3C//DTD SVG 1.1//EN"
 "http://www.w3.org/Graphics/SVG/1.1/DTD/svg11.dtd">
<!-- Generated by graphviz version 2.47.0 (20210316.0004)
 -->
<!-- Pages: 1 -->
<svg width="441pt" height="221pt"
 viewBox="0.00 0.00 440.75 221.04" xmlns="http://www.w3.org/2000/svg" xmlns:xlink="http://www.w3.org/1999/xlink">
<g id="graph0" class="graph" transform="scale(1 1) rotate(0) translate(4 217.04)">
<polygon fill="white" stroke="transparent" points="-4,4 -4,-217.04 436.75,-217.04 436.75,4 -4,4"/>
<!-- 180° -->
<g id="node1" class="node">
<title>180°</title>
<polygon fill="lightgray" stroke="black" points="340.37,-149.65 306.37,-149.65 306.37,-131.65 340.37,-131.65 340.37,-149.65"/>
<text text-anchor="middle" x="323.37" y="-138.45" font-family="Times New Roman,serif" font-size="9.00">180°</text>
</g>
<!-- VELOCITY -->
<g id="node9" class="node">
<title>VELOCITY</title>
<ellipse fill="lightblue" stroke="black" cx="228.37" cy="-43.13" rx="43.27" ry="43.27"/>
<text text-anchor="middle" x="228.37" y="-40.93" font-family="Times New Roman,serif" font-size="9.00">VELOCITY</text>
</g>
<!-- 180°&#45;&gt;VELOCITY -->
<g id="edge1" class="edge">
<title>180°&#45;&gt;VELOCITY</title>
<path fill="none" stroke="red" stroke-width="0.26" d="M315.27,-131.51C304.26,-120.44 283.84,-99.9 265.56,-81.52"/>
<polygon fill="red" stroke="red" stroke-width="0.26" points="267.95,-78.97 258.42,-74.34 262.99,-83.9 267.95,-78.97"/>
</g>
<!-- ANGLE -->
<g id="node10" class="node">
<title>ANGLE</title>
<ellipse fill="lightblue" stroke="black" cx="134.37" cy="-43.13" rx="33.47" ry="33.47"/>
<text text-anchor="middle" x="134.37" y="-40.93" font-family="Times New Roman,serif" font-size="9.00">ANGLE</text>
</g>
<!-- 180°&#45;&gt;ANGLE -->
<g id="edge2" class="edge">
<title>180°&#45;&gt;ANGLE</title>
<path fill="none" stroke="green" stroke-width="0.12" d="M312.92,-131.62C308.34,-128.37 302.78,-124.81 297.37,-122.27 246.59,-98.41 224.55,-115.02 176.37,-86.27 171.6,-83.42 166.99,-79.91 162.67,-76.15"/>
<polygon fill="green" stroke="green" stroke-width="0.12" points="164.93,-73.47 155.24,-69.17 160.14,-78.57 164.93,-73.47"/>
</g>
<!-- &#45;90° -->
<g id="node2" class="node">
<title>&#45;90°</title>
<polygon fill="lightgray" stroke="black" points="50.37,-149.65 18.37,-149.65 18.37,-131.65 50.37,-131.65 50.37,-149.65"/>
<text text-anchor="middle" x="34.37" y="-138.45" font-family="Times New Roman,serif" font-size="9.00">&#45;90°</text>
</g>
<!-- &#45;90°&#45;&gt;VELOCITY -->
<g id="edge3" class="edge">
<title>&#45;90°&#45;&gt;VELOCITY</title>
<path fill="none" stroke="red" stroke-width="0.22" d="M44.63,-131.44C48.98,-128.25 54.24,-124.77 59.37,-122.27 108.29,-98.45 128.36,-111.86 176.37,-86.27 180.4,-84.12 184.42,-81.64 188.34,-78.97"/>
<polygon fill="red" stroke="red" stroke-width="0.22" points="190.66,-81.61 196.71,-72.91 186.55,-75.94 190.66,-81.61"/>
</g>
<!-- &#45;90°&#45;&gt;ANGLE -->
<g id="edge4" class="edge">
<title>&#45;90°&#45;&gt;ANGLE</title>
<path fill="none" stroke="green" stroke-width="0.18" d="M42.9,-131.51C56.1,-118.89 82.17,-93.99 103.11,-73.99"/>
<polygon fill="green" stroke="green" stroke-width="0.18" points="105.75,-76.31 110.56,-66.87 100.91,-71.25 105.75,-76.31"/>
</g>
<!-- &#45;40° -->
<g id="node3" class="node">
<title>&#45;40°</title>
<polygon fill="lightgray" stroke="black" points="100.37,-149.65 68.37,-149.65 68.37,-131.65 100.37,-131.65 100.37,-149.65"/>
<text text-anchor="middle" x="84.37" y="-138.45" font-family="Times New Roman,serif" font-size="9.00">&#45;40°</text>
</g>
<!-- &#45;40°&#45;&gt;VELOCITY -->
<g id="edge5" class="edge">
<title>&#45;40°&#45;&gt;VELOCITY</title>
<path fill="none" stroke="red" stroke-width="0.3" d="M95.39,-131.58C99.68,-128.55 104.68,-125.14 109.37,-122.27 138.18,-104.59 148.22,-104.99 176.37,-86.27 180.17,-83.74 184.03,-80.99 187.85,-78.15"/>
<polygon fill="red" stroke="red" stroke-width="0.3" points="190.26,-80.71 196.07,-71.85 186,-75.15 190.26,-80.71"/>
</g>
<!-- &#45;40°&#45;&gt;ANGLE -->
<g id="edge6" class="edge">
<title>&#45;40°&#45;&gt;ANGLE</title>
<path fill="none" stroke="green" stroke-width="0.2" d="M88.63,-131.51C94.34,-120.6 104.86,-100.5 114.38,-82.33"/>
<polygon fill="green" stroke="green" stroke-width="0.2" points="117.69,-83.54 119.23,-73.06 111.49,-80.3 117.69,-83.54"/>
</g>
<!-- &#45;15° -->
<g id="node4" class="node">
<title>&#45;15°</title>
<polygon fill="lightgray" stroke="black" points="150.37,-149.65 118.37,-149.65 118.37,-131.65 150.37,-131.65 150.37,-149.65"/>
<text text-anchor="middle" x="134.37" y="-138.45" font-family="Times New Roman,serif" font-size="9.00">&#45;15°</text>
</g>
<!-- &#45;15°&#45;&gt;VELOCITY -->
<g id="edge7" class="edge">
<title>&#45;15°&#45;&gt;VELOCITY</title>
<path fill="none" stroke="red" stroke-width="0.27" d="M142.38,-131.51C153.2,-120.52 173.2,-100.2 191.18,-81.92"/>
<polygon fill="red" stroke="red" stroke-width="0.27" points="193.7,-84.36 198.21,-74.77 188.71,-79.45 193.7,-84.36"/>
</g>
<!-- &#45;15°&#45;&gt;ANGLE -->
<g id="edge8" class="edge">
<title>&#45;15°&#45;&gt;ANGLE</title>
<path fill="none" stroke="green" stroke-width="0.53" d="M134.37,-131.51C134.37,-121.5 134.37,-103.75 134.37,-86.85"/>
<polygon fill="green" stroke="green" stroke-width="0.53" points="137.87,-86.51 134.37,-76.51 130.87,-86.51 137.87,-86.51"/>
</g>
<!-- 0° -->
<g id="node5" class="node">
<title>0°</title>
<polygon fill="lightgray" stroke="black" points="193.87,-149.65 168.87,-149.65 168.87,-131.65 193.87,-131.65 193.87,-149.65"/>
<text text-anchor="middle" x="181.37" y="-138.45" font-family="Times New Roman,serif" font-size="9.00">0°</text>
</g>
<!-- 0°&#45;&gt;VELOCITY -->
<g id="edge9" class="edge">
<title>0°&#45;&gt;VELOCITY</title>
<path fill="none" stroke="red" stroke-width="0.14" d="M185.38,-131.51C189.87,-122.38 197.52,-106.83 205.14,-91.35"/>
<polygon fill="red" stroke="red" stroke-width="0.14" points="208.32,-92.81 209.59,-82.29 202.04,-89.72 208.32,-92.81"/>
</g>
<!-- 0°&#45;&gt;ANGLE -->
<g id="edge10" class="edge">
<title>0°&#45;&gt;ANGLE</title>
<path fill="none" stroke="red" stroke-width="0.24" d="M177.36,-131.51C172.03,-120.67 162.24,-100.78 153.35,-82.71"/>
<polygon fill="red" stroke="red" stroke-width="0.24" points="156.37,-80.91 148.81,-73.49 150.09,-84 156.37,-80.91"/>
</g>
<!-- 15° -->
<g id="node6" class="node">
<title>15°</title>
<polygon fill="lightgray" stroke="black" points="382.87,-213.04 353.87,-213.04 353.87,-195.04 382.87,-195.04 382.87,-213.04"/>
<text text-anchor="middle" x="368.37" y="-201.84" font-family="Times New Roman,serif" font-size="9.00">15°</text>
</g>
<!-- 15°&#45;&gt;VELOCITY -->
<g id="edge11" class="edge">
<title>15°&#45;&gt;VELOCITY</title>
<path fill="none" stroke="green" stroke-width="0.29" stroke-dasharray="1,5" d="M368.39,-194.65C368.03,-179 365.31,-144.87 349.37,-122.27 331.46,-96.88 302.44,-77.73 277.3,-64.74"/>
<polygon fill="green" stroke="green" stroke-width="0.29" points="278.76,-61.56 268.25,-60.24 275.64,-67.83 278.76,-61.56"/>
</g>
<!-- 15°&#45;&gt;ANGLE -->
<g id="edge12" class="edge">
<title>15°&#45;&gt;ANGLE</title>
<path fill="none" stroke="red" stroke-width="0.36" d="M353.6,-202.36C288.91,-199.25 32.62,-185.31 9.37,-159.04 -24.69,-120.54 45.64,-81.18 93.96,-59.99"/>
<polygon fill="red" stroke="red" stroke-width="0.36" points="95.47,-63.15 103.29,-56 92.72,-56.71 95.47,-63.15"/>
</g>
<!-- 22 -->
<g id="node11" class="node">
<title>22</title>
<ellipse fill="white" stroke="black" cx="414.37" cy="-140.65" rx="18.27" ry="18.27"/>
<text text-anchor="middle" x="414.37" y="-138.45" font-family="Times New Roman,serif" font-size="9.00">22</text>
</g>
<!-- 15°&#45;&gt;22 -->
<g id="edge17" class="edge">
<title>15°&#45;&gt;22</title>
<path fill="none" stroke="green" stroke-width="0.3" d="M374.38,-195.01C380.22,-187.22 389.37,-175.01 397.44,-164.24"/>
<polygon fill="green" stroke="green" stroke-width="0.3" points="400.4,-166.13 403.6,-156.02 394.8,-161.93 400.4,-166.13"/>
</g>
<!-- 40° -->
<g id="node7" class="node">
<title>40°</title>
<polygon fill="lightgray" stroke="black" points="240.87,-149.65 211.87,-149.65 211.87,-131.65 240.87,-131.65 240.87,-149.65"/>
<text text-anchor="middle" x="226.37" y="-138.45" font-family="Times New Roman,serif" font-size="9.00">40°</text>
</g>
<!-- 40°&#45;&gt;VELOCITY -->
<g id="edge13" class="edge">
<title>40°&#45;&gt;VELOCITY</title>
<path fill="none" stroke="green" stroke-width="0.3" d="M226.54,-131.51C226.71,-123.38 226.99,-110.14 227.27,-96.4"/>
<polygon fill="green" stroke="green" stroke-width="0.3" points="230.77,-96.45 227.48,-86.38 223.78,-96.3 230.77,-96.45"/>
</g>
<!-- 40°&#45;&gt;ANGLE -->
<g id="edge14" class="edge">
<title>40°&#45;&gt;ANGLE</title>
<path fill="none" stroke="green" stroke-width="0.36" stroke-dasharray="1,5" d="M218.53,-131.51C206.58,-119.11 183.2,-94.84 164.11,-75.02"/>
<polygon fill="green" stroke="green" stroke-width="0.36" points="166.5,-72.45 157.04,-67.67 161.46,-77.3 166.5,-72.45"/>
</g>
<!-- 90° -->
<g id="node8" class="node">
<title>90°</title>
<polygon fill="lightgray" stroke="black" points="287.87,-149.65 258.87,-149.65 258.87,-131.65 287.87,-131.65 287.87,-149.65"/>
<text text-anchor="middle" x="273.37" y="-138.45" font-family="Times New Roman,serif" font-size="9.00">90°</text>
</g>
<!-- 90°&#45;&gt;VELOCITY -->
<g id="edge15" class="edge">
<title>90°&#45;&gt;VELOCITY</title>
<path fill="none" stroke="red" stroke-width="0.34" d="M269.53,-131.51C265.31,-122.54 258.16,-107.37 251,-92.16"/>
<polygon fill="red" stroke="red" stroke-width="0.34" points="253.99,-90.3 246.56,-82.74 247.65,-93.28 253.99,-90.3"/>
</g>
<!-- 90°&#45;&gt;ANGLE -->
<g id="edge16" class="edge">
<title>90°&#45;&gt;ANGLE</title>
<path fill="none" stroke="red" stroke-width="0.29" d="M263.37,-131.42C259.44,-128.37 254.81,-124.99 250.37,-122.27 219.19,-103.15 206.14,-107.51 176.37,-86.27 172.07,-83.2 167.8,-79.67 163.74,-75.99"/>
<polygon fill="red" stroke="red" stroke-width="0.29" points="165.86,-73.18 156.21,-68.81 161.03,-78.24 165.86,-73.18"/>
</g>
<!-- 22&#45;&gt;VELOCITY -->
<g id="edge18" class="edge">
<title>22&#45;&gt;VELOCITY</title>
<path fill="none" stroke="green" stroke-width="0.29" d="M398.47,-130.9C393.34,-128.11 387.63,-125.03 382.37,-122.27 346.89,-103.63 306.47,-83.16 275.95,-67.84"/>
<polygon fill="green" stroke="green" stroke-width="0.29" points="277.32,-64.61 266.81,-63.26 274.18,-70.87 277.32,-64.61"/>
</g>
</g>
</svg>
