<?xml version="1.0" encoding="UTF-8" standalone="no"?>
<!DOCTYPE svg PUBLIC "-//W3C//DTD SVG 1.1//EN"
 "http://www.w3.org/Graphics/SVG/1.1/DTD/svg11.dtd">
<!-- Generated by graphviz version 2.47.0 (20210316.0004)
 -->
<!-- Pages: 1 -->
<svg width="433pt" height="221pt"
 viewBox="0.00 0.00 432.71 221.04" xmlns="http://www.w3.org/2000/svg" xmlns:xlink="http://www.w3.org/1999/xlink">
<g id="graph0" class="graph" transform="scale(1 1) rotate(0) translate(4 217.04)">
<polygon fill="white" stroke="transparent" points="-4,4 -4,-217.04 428.71,-217.04 428.71,4 -4,4"/>
<!-- 180° -->
<g id="node1" class="node">
<title>180°</title>
<polygon fill="lightgray" stroke="black" points="122,-149.65 88,-149.65 88,-131.65 122,-131.65 122,-149.65"/>
<text text-anchor="middle" x="105" y="-138.45" font-family="Times New Roman,serif" font-size="9.00">180°</text>
</g>
<!-- VELOCITY -->
<g id="node9" class="node">
<title>VELOCITY</title>
<ellipse fill="lightblue" stroke="black" cx="283" cy="-43.13" rx="43.27" ry="43.27"/>
<text text-anchor="middle" x="283" y="-40.93" font-family="Times New Roman,serif" font-size="9.00">VELOCITY</text>
</g>
<!-- 180°&#45;&gt;VELOCITY -->
<g id="edge1" class="edge">
<title>180°&#45;&gt;VELOCITY</title>
<path fill="none" stroke="red" stroke-width="0.31" d="M116.08,-131.51C120.58,-128.4 125.91,-124.96 131,-122.27 168.71,-102.3 182.29,-106.23 220,-86.27 226.56,-82.8 233.28,-78.81 239.78,-74.71"/>
<polygon fill="red" stroke="red" stroke-width="0.31" points="241.98,-77.45 248.47,-69.07 238.17,-71.58 241.98,-77.45"/>
</g>
<!-- ANGLE -->
<g id="node10" class="node">
<title>ANGLE</title>
<ellipse fill="lightblue" stroke="black" cx="178" cy="-43.13" rx="33.47" ry="33.47"/>
<text text-anchor="middle" x="178" y="-40.93" font-family="Times New Roman,serif" font-size="9.00">ANGLE</text>
</g>
<!-- 180°&#45;&gt;ANGLE -->
<g id="edge2" class="edge">
<title>180°&#45;&gt;ANGLE</title>
<path fill="none" stroke="red" stroke-width="0.31" d="M111.22,-131.51C120.21,-119.74 137.37,-97.3 152.04,-78.11"/>
<polygon fill="red" stroke="red" stroke-width="0.31" points="154.85,-80.19 158.14,-70.12 149.29,-75.94 154.85,-80.19"/>
</g>
<!-- &#45;90° -->
<g id="node2" class="node">
<title>&#45;90°</title>
<polygon fill="lightgray" stroke="black" points="409,-213.04 377,-213.04 377,-195.04 409,-195.04 409,-213.04"/>
<text text-anchor="middle" x="393" y="-201.84" font-family="Times New Roman,serif" font-size="9.00">&#45;90°</text>
</g>
<!-- &#45;90°&#45;&gt;VELOCITY -->
<g id="edge3" class="edge">
<title>&#45;90°&#45;&gt;VELOCITY</title>
<path fill="none" stroke="red" stroke-width="0.12" d="M399.89,-195.02C411.94,-179.97 434.26,-146.81 420,-122.27 401.63,-90.65 365.15,-70.76 334.44,-58.96"/>
<polygon fill="red" stroke="red" stroke-width="0.12" points="335.3,-55.55 324.71,-55.41 332.9,-62.12 335.3,-55.55"/>
</g>
<!-- &#45;90°&#45;&gt;ANGLE -->
<g id="edge4" class="edge">
<title>&#45;90°&#45;&gt;ANGLE</title>
<path fill="none" stroke="green" stroke-width="0.13" d="M376.9,-203.41C318.39,-204.38 118.37,-204.31 79,-159.04 50.21,-125.93 100.85,-87.23 139.71,-64.26"/>
<polygon fill="green" stroke="green" stroke-width="0.13" points="141.85,-67.06 148.78,-59.05 138.37,-60.99 141.85,-67.06"/>
</g>
<!-- 21 -->
<g id="node11" class="node">
<title>21</title>
<ellipse fill="white" stroke="black" cx="393" cy="-140.65" rx="18.27" ry="18.27"/>
<text text-anchor="middle" x="393" y="-138.45" font-family="Times New Roman,serif" font-size="9.00">21</text>
</g>
<!-- &#45;90°&#45;&gt;21 -->
<g id="edge16" class="edge">
<title>&#45;90°&#45;&gt;21</title>
<path fill="none" stroke="green" stroke-width="0.29" d="M393,-195.01C393,-188.45 393,-178.76 393,-169.43"/>
<polygon fill="green" stroke="green" stroke-width="0.29" points="396.5,-169.24 393,-159.24 389.5,-169.24 396.5,-169.24"/>
</g>
<!-- &#45;40° -->
<g id="node3" class="node">
<title>&#45;40°</title>
<polygon fill="lightgray" stroke="black" points="32,-149.65 0,-149.65 0,-131.65 32,-131.65 32,-149.65"/>
<text text-anchor="middle" x="16" y="-138.45" font-family="Times New Roman,serif" font-size="9.00">&#45;40°</text>
</g>
<!-- &#45;40°&#45;&gt;ANGLE -->
<g id="edge5" class="edge">
<title>&#45;40°&#45;&gt;ANGLE</title>
<path fill="none" stroke="green" stroke-width="0.37" d="M29.81,-131.51C54.22,-117.12 105.73,-86.75 141.1,-65.89"/>
<polygon fill="green" stroke="green" stroke-width="0.37" points="142.88,-68.9 149.72,-60.81 139.33,-62.87 142.88,-68.9"/>
</g>
<!-- &#45;15° -->
<g id="node4" class="node">
<title>&#45;15°</title>
<polygon fill="lightgray" stroke="black" points="172,-149.65 140,-149.65 140,-131.65 172,-131.65 172,-149.65"/>
<text text-anchor="middle" x="156" y="-138.45" font-family="Times New Roman,serif" font-size="9.00">&#45;15°</text>
</g>
<!-- &#45;15°&#45;&gt;VELOCITY -->
<g id="edge6" class="edge">
<title>&#45;15°&#45;&gt;VELOCITY</title>
<path fill="none" stroke="green" stroke-width="0.21" d="M166.83,-131.51C183.07,-119.3 214.61,-95.57 240.73,-75.92"/>
<polygon fill="green" stroke="green" stroke-width="0.21" points="243.11,-78.52 249,-69.71 238.9,-72.92 243.11,-78.52"/>
</g>
<!-- &#45;15°&#45;&gt;ANGLE -->
<g id="edge7" class="edge">
<title>&#45;15°&#45;&gt;ANGLE</title>
<path fill="none" stroke="green" stroke-width="0.3" d="M157.88,-131.51C160.24,-121.25 164.47,-102.87 168.45,-85.61"/>
<polygon fill="green" stroke="green" stroke-width="0.3" points="171.91,-86.17 170.74,-75.64 165.09,-84.6 171.91,-86.17"/>
</g>
<!-- 0° -->
<g id="node5" class="node">
<title>0°</title>
<polygon fill="lightgray" stroke="black" points="215.5,-149.65 190.5,-149.65 190.5,-131.65 215.5,-131.65 215.5,-149.65"/>
<text text-anchor="middle" x="203" y="-138.45" font-family="Times New Roman,serif" font-size="9.00">0°</text>
</g>
<!-- 0°&#45;&gt;VELOCITY -->
<g id="edge8" class="edge">
<title>0°&#45;&gt;VELOCITY</title>
<path fill="none" stroke="red" stroke-width="0.21" d="M209.82,-131.51C218.54,-121.1 234.25,-102.34 248.89,-84.86"/>
<polygon fill="red" stroke="red" stroke-width="0.21" points="251.78,-86.86 255.51,-76.95 246.41,-82.37 251.78,-86.86"/>
</g>
<!-- 0°&#45;&gt;ANGLE -->
<g id="edge9" class="edge">
<title>0°&#45;&gt;ANGLE</title>
<path fill="none" stroke="green" stroke-width="0.12" d="M200.87,-131.51C198.18,-121.25 193.37,-102.87 188.85,-85.61"/>
<polygon fill="green" stroke="green" stroke-width="0.12" points="192.16,-84.43 186.25,-75.64 185.39,-86.2 192.16,-84.43"/>
</g>
<!-- 15° -->
<g id="node6" class="node">
<title>15°</title>
<polygon fill="lightgray" stroke="black" points="262.5,-149.65 233.5,-149.65 233.5,-131.65 262.5,-131.65 262.5,-149.65"/>
<text text-anchor="middle" x="248" y="-138.45" font-family="Times New Roman,serif" font-size="9.00">15°</text>
</g>
<!-- 15°&#45;&gt;VELOCITY -->
<g id="edge10" class="edge">
<title>15°&#45;&gt;VELOCITY</title>
<path fill="none" stroke="green" stroke-width="0.15" d="M250.98,-131.51C254.16,-122.85 259.45,-108.4 264.83,-93.72"/>
<polygon fill="green" stroke="green" stroke-width="0.15" points="268.2,-94.7 268.35,-84.1 261.63,-92.29 268.2,-94.7"/>
</g>
<!-- 15°&#45;&gt;ANGLE -->
<g id="edge11" class="edge">
<title>15°&#45;&gt;ANGLE</title>
<path fill="none" stroke="red" stroke-width="0.39" d="M242.03,-131.51C233.51,-119.88 217.33,-97.8 203.37,-78.75"/>
<polygon fill="red" stroke="red" stroke-width="0.39" points="206.08,-76.53 197.35,-70.53 200.44,-80.67 206.08,-76.53"/>
</g>
<!-- 40° -->
<g id="node7" class="node">
<title>40°</title>
<polygon fill="lightgray" stroke="black" points="309.5,-149.65 280.5,-149.65 280.5,-131.65 309.5,-131.65 309.5,-149.65"/>
<text text-anchor="middle" x="295" y="-138.45" font-family="Times New Roman,serif" font-size="9.00">40°</text>
</g>
<!-- 40°&#45;&gt;VELOCITY -->
<g id="edge12" class="edge">
<title>40°&#45;&gt;VELOCITY</title>
<path fill="none" stroke="red" stroke-width="0.4" d="M293.98,-131.51C292.96,-123.38 291.29,-110.14 289.57,-96.4"/>
<polygon fill="red" stroke="red" stroke-width="0.4" points="293.03,-95.86 288.31,-86.38 286.08,-96.74 293.03,-95.86"/>
</g>
<!-- 40°&#45;&gt;ANGLE -->
<g id="edge13" class="edge">
<title>40°&#45;&gt;ANGLE</title>
<path fill="none" stroke="red" stroke-width="0.21" stroke-dasharray="1,5" d="M285.02,-131.51C268.87,-118.32 236.27,-91.7 211.27,-71.29"/>
<polygon fill="red" stroke="red" stroke-width="0.21" points="213.41,-68.52 203.45,-64.91 208.98,-73.95 213.41,-68.52"/>
</g>
<!-- 90° -->
<g id="node8" class="node">
<title>90°</title>
<polygon fill="lightgray" stroke="black" points="356.5,-149.65 327.5,-149.65 327.5,-131.65 356.5,-131.65 356.5,-149.65"/>
<text text-anchor="middle" x="342" y="-138.45" font-family="Times New Roman,serif" font-size="9.00">90°</text>
</g>
<!-- 90°&#45;&gt;VELOCITY -->
<g id="edge14" class="edge">
<title>90°&#45;&gt;VELOCITY</title>
<path fill="none" stroke="green" stroke-width="0.15" d="M336.97,-131.51C331.09,-121.99 320.9,-105.49 310.94,-89.37"/>
<polygon fill="green" stroke="green" stroke-width="0.15" points="313.69,-87.16 305.46,-80.5 307.74,-90.84 313.69,-87.16"/>
</g>
<!-- 90°&#45;&gt;ANGLE -->
<g id="edge15" class="edge">
<title>90°&#45;&gt;ANGLE</title>
<path fill="none" stroke="red" stroke-width="0.25" d="M332.54,-131.62C328.52,-128.45 323.7,-124.94 319,-122.27 282.28,-101.35 267.46,-107.63 231,-86.27 224.08,-82.21 217.09,-77.33 210.55,-72.35"/>
<polygon fill="red" stroke="red" stroke-width="0.25" points="212.57,-69.48 202.55,-66.03 208.23,-74.98 212.57,-69.48"/>
</g>
<!-- 21&#45;&gt;VELOCITY -->
<g id="edge17" class="edge">
<title>21&#45;&gt;VELOCITY</title>
<path fill="none" stroke="red" stroke-width="0.12" d="M379.51,-127.94C365.53,-115.8 343,-96.24 323.22,-79.06"/>
<polygon fill="red" stroke="red" stroke-width="0.12" points="325.37,-76.29 315.52,-72.37 320.78,-81.57 325.37,-76.29"/>
</g>
</g>
</svg>
