<?xml version="1.0" encoding="UTF-8" standalone="no"?>
<!DOCTYPE svg PUBLIC "-//W3C//DTD SVG 1.1//EN"
 "http://www.w3.org/Graphics/SVG/1.1/DTD/svg11.dtd">
<!-- Generated by graphviz version 2.47.0 (20210316.0004)
 -->
<!-- Pages: 1 -->
<svg width="377pt" height="148pt"
 viewBox="0.00 0.00 377.00 148.27" xmlns="http://www.w3.org/2000/svg" xmlns:xlink="http://www.w3.org/1999/xlink">
<g id="graph0" class="graph" transform="scale(1 1) rotate(0) translate(4 144.27)">
<polygon fill="white" stroke="transparent" points="-4,4 -4,-144.27 373,-144.27 373,4 -4,4"/>
<!-- 180° -->
<g id="node1" class="node">
<title>180°</title>
<polygon fill="lightgray" stroke="black" points="269,-140.27 235,-140.27 235,-122.27 269,-122.27 269,-140.27"/>
<text text-anchor="middle" x="252" y="-129.07" font-family="Times New Roman,serif" font-size="9.00">180°</text>
</g>
<!-- VELOCITY -->
<g id="node9" class="node">
<title>VELOCITY</title>
<ellipse fill="lightblue" stroke="black" cx="108" cy="-43.13" rx="43.27" ry="43.27"/>
<text text-anchor="middle" x="108" y="-40.93" font-family="Times New Roman,serif" font-size="9.00">VELOCITY</text>
</g>
<!-- 180°&#45;&gt;VELOCITY -->
<g id="edge1" class="edge">
<title>180°&#45;&gt;VELOCITY</title>
<path fill="none" stroke="red" stroke-width="0.26" d="M234.75,-123.46C215.78,-115.64 184.7,-101.87 160,-86.27 156.14,-83.83 152.24,-81.14 148.4,-78.35"/>
<polygon fill="red" stroke="red" stroke-width="0.26" points="150.22,-75.34 140.14,-72.1 146,-80.92 150.22,-75.34"/>
</g>
<!-- ANGLE -->
<g id="node10" class="node">
<title>ANGLE</title>
<ellipse fill="lightblue" stroke="black" cx="202" cy="-43.13" rx="33.47" ry="33.47"/>
<text text-anchor="middle" x="202" y="-40.93" font-family="Times New Roman,serif" font-size="9.00">ANGLE</text>
</g>
<!-- 180°&#45;&gt;ANGLE -->
<g id="edge2" class="edge">
<title>180°&#45;&gt;ANGLE</title>
<path fill="none" stroke="red" stroke-width="0.31" d="M247.21,-122.01C241.69,-112.5 232.25,-96.25 223.42,-81.04"/>
<polygon fill="red" stroke="red" stroke-width="0.31" points="226.37,-79.15 218.33,-72.26 220.32,-82.67 226.37,-79.15"/>
</g>
<!-- &#45;90° -->
<g id="node2" class="node">
<title>&#45;90°</title>
<polygon fill="lightgray" stroke="black" points="369,-140.27 337,-140.27 337,-122.27 369,-122.27 369,-140.27"/>
<text text-anchor="middle" x="353" y="-129.07" font-family="Times New Roman,serif" font-size="9.00">&#45;90°</text>
</g>
<!-- &#45;90°&#45;&gt;ANGLE -->
<g id="edge3" class="edge">
<title>&#45;90°&#45;&gt;ANGLE</title>
<path fill="none" stroke="green" stroke-width="0.18" d="M338.79,-122.16C316.25,-109.3 271.53,-83.79 239.35,-65.44"/>
<polygon fill="green" stroke="green" stroke-width="0.18" points="241.06,-62.38 230.64,-60.47 237.59,-68.46 241.06,-62.38"/>
</g>
<!-- &#45;40° -->
<g id="node3" class="node">
<title>&#45;40°</title>
<polygon fill="lightgray" stroke="black" points="319,-140.27 287,-140.27 287,-122.27 319,-122.27 319,-140.27"/>
<text text-anchor="middle" x="303" y="-129.07" font-family="Times New Roman,serif" font-size="9.00">&#45;40°</text>
</g>
<!-- &#45;40°&#45;&gt;VELOCITY -->
<g id="edge4" class="edge">
<title>&#45;40°&#45;&gt;VELOCITY</title>
<path fill="none" stroke="red" stroke-width="0.3" d="M286.87,-125.07C283.92,-124.13 280.87,-123.16 278,-122.27 225.67,-105.91 208.42,-112 160,-86.27 155.97,-84.12 151.95,-81.64 148.03,-78.98"/>
<polygon fill="red" stroke="red" stroke-width="0.3" points="149.81,-75.95 139.65,-72.93 145.71,-81.62 149.81,-75.95"/>
</g>
<!-- &#45;40°&#45;&gt;ANGLE -->
<g id="edge5" class="edge">
<title>&#45;40°&#45;&gt;ANGLE</title>
<path fill="none" stroke="green" stroke-width="0.24" d="M293.32,-122.01C279.98,-110.63 255.29,-89.58 234.95,-72.23"/>
<polygon fill="green" stroke="green" stroke-width="0.24" points="236.99,-69.38 227.11,-65.55 232.45,-74.7 236.99,-69.38"/>
</g>
<!-- &#45;15° -->
<g id="node4" class="node">
<title>&#45;15°</title>
<polygon fill="lightgray" stroke="black" points="32,-140.27 0,-140.27 0,-122.27 32,-122.27 32,-140.27"/>
<text text-anchor="middle" x="16" y="-129.07" font-family="Times New Roman,serif" font-size="9.00">&#45;15°</text>
</g>
<!-- &#45;15°&#45;&gt;VELOCITY -->
<g id="edge6" class="edge">
<title>&#45;15°&#45;&gt;VELOCITY</title>
<path fill="none" stroke="red" stroke-width="0.31" d="M24.82,-122.01C35.12,-112.37 52.84,-95.78 69.28,-80.38"/>
<polygon fill="red" stroke="red" stroke-width="0.31" points="71.81,-82.81 76.72,-73.42 67.02,-77.7 71.81,-82.81"/>
</g>
<!-- &#45;15°&#45;&gt;ANGLE -->
<g id="edge7" class="edge">
<title>&#45;15°&#45;&gt;ANGLE</title>
<path fill="none" stroke="green" stroke-width="0.53" d="M32.13,-125.07C35.08,-124.13 38.13,-123.16 41,-122.27 93.76,-105.85 112.62,-114.69 160,-86.27 164.76,-83.41 169.37,-79.9 173.69,-76.13"/>
<polygon fill="green" stroke="green" stroke-width="0.53" points="176.22,-78.55 181.11,-69.15 171.43,-73.45 176.22,-78.55"/>
</g>
<!-- 0° -->
<g id="node5" class="node">
<title>0°</title>
<polygon fill="lightgray" stroke="black" points="75.5,-140.27 50.5,-140.27 50.5,-122.27 75.5,-122.27 75.5,-140.27"/>
<text text-anchor="middle" x="63" y="-129.07" font-family="Times New Roman,serif" font-size="9.00">0°</text>
</g>
<!-- 0°&#45;&gt;VELOCITY -->
<g id="edge8" class="edge">
<title>0°&#45;&gt;VELOCITY</title>
<path fill="none" stroke="red" stroke-width="0.16" d="M67.31,-122.01C71.21,-114.56 77.27,-102.96 83.53,-90.97"/>
<polygon fill="red" stroke="red" stroke-width="0.16" points="86.8,-92.27 88.33,-81.79 80.6,-89.03 86.8,-92.27"/>
</g>
<!-- 0°&#45;&gt;ANGLE -->
<g id="edge9" class="edge">
<title>0°&#45;&gt;ANGLE</title>
<path fill="none" stroke="red" stroke-width="0.24" d="M75.78,-125.14C98.64,-115.87 145.49,-96.33 160,-86.27 164.34,-83.25 168.63,-79.76 172.71,-76.1"/>
<polygon fill="red" stroke="red" stroke-width="0.24" points="175.41,-78.36 180.25,-68.94 170.59,-73.29 175.41,-78.36"/>
</g>
<!-- 15° -->
<g id="node6" class="node">
<title>15°</title>
<polygon fill="lightgray" stroke="black" points="122.5,-140.27 93.5,-140.27 93.5,-122.27 122.5,-122.27 122.5,-140.27"/>
<text text-anchor="middle" x="108" y="-129.07" font-family="Times New Roman,serif" font-size="9.00">15°</text>
</g>
<!-- 15°&#45;&gt;VELOCITY -->
<g id="edge10" class="edge">
<title>15°&#45;&gt;VELOCITY</title>
<path fill="none" stroke="green" stroke-width="0.29" d="M108,-122.01C108,-115.76 108,-106.58 108,-96.7"/>
<polygon fill="green" stroke="green" stroke-width="0.29" points="111.5,-96.67 108,-86.67 104.5,-96.67 111.5,-96.67"/>
</g>
<!-- 15°&#45;&gt;ANGLE -->
<g id="edge11" class="edge">
<title>15°&#45;&gt;ANGLE</title>
<path fill="none" stroke="red" stroke-width="0.2" d="M118.19,-122.08C128.83,-113.42 145.91,-99.25 160,-86.27 163.99,-82.59 168.11,-78.65 172.13,-74.71"/>
<polygon fill="red" stroke="red" stroke-width="0.2" points="174.6,-77.2 179.24,-67.67 169.67,-72.22 174.6,-77.2"/>
</g>
<!-- 40° -->
<g id="node7" class="node">
<title>40°</title>
<polygon fill="lightgray" stroke="black" points="169.5,-140.27 140.5,-140.27 140.5,-122.27 169.5,-122.27 169.5,-140.27"/>
<text text-anchor="middle" x="155" y="-129.07" font-family="Times New Roman,serif" font-size="9.00">40°</text>
</g>
<!-- 40°&#45;&gt;VELOCITY -->
<g id="edge12" class="edge">
<title>40°&#45;&gt;VELOCITY</title>
<path fill="none" stroke="green" stroke-width="0.28" d="M150.49,-122.01C146.35,-114.42 139.86,-102.52 133.19,-90.29"/>
<polygon fill="green" stroke="green" stroke-width="0.28" points="136.19,-88.48 128.32,-81.38 130.04,-91.84 136.19,-88.48"/>
</g>
<!-- 40°&#45;&gt;ANGLE -->
<g id="edge13" class="edge">
<title>40°&#45;&gt;ANGLE</title>
<path fill="none" stroke="green" stroke-width="0.46" stroke-dasharray="1,5" d="M159.51,-122.01C164.61,-112.66 173.27,-96.79 181.45,-81.8"/>
<polygon fill="green" stroke="green" stroke-width="0.46" points="184.72,-83.1 186.44,-72.65 178.58,-79.75 184.72,-83.1"/>
</g>
<!-- 90° -->
<g id="node8" class="node">
<title>90°</title>
<polygon fill="lightgray" stroke="black" points="216.5,-140.27 187.5,-140.27 187.5,-122.27 216.5,-122.27 216.5,-140.27"/>
<text text-anchor="middle" x="202" y="-129.07" font-family="Times New Roman,serif" font-size="9.00">90°</text>
</g>
<!-- 90°&#45;&gt;VELOCITY -->
<g id="edge14" class="edge">
<title>90°&#45;&gt;VELOCITY</title>
<path fill="none" stroke="green" stroke-width="0.39" d="M192.99,-122.01C182.39,-112.3 164.09,-95.53 147.18,-80.03"/>
<polygon fill="green" stroke="green" stroke-width="0.39" points="149.28,-77.21 139.54,-73.03 144.55,-82.37 149.28,-77.21"/>
</g>
<!-- 90°&#45;&gt;ANGLE -->
<g id="edge15" class="edge">
<title>90°&#45;&gt;ANGLE</title>
<path fill="none" stroke="red" stroke-width="0.27" d="M202,-122.01C202,-113.69 202,-100.19 202,-86.75"/>
<polygon fill="red" stroke="red" stroke-width="0.27" points="205.5,-86.57 202,-76.57 198.5,-86.57 205.5,-86.57"/>
</g>
</g>
</svg>
