<?xml version="1.0" encoding="UTF-8" standalone="no"?>
<!DOCTYPE svg PUBLIC "-//W3C//DTD SVG 1.1//EN"
 "http://www.w3.org/Graphics/SVG/1.1/DTD/svg11.dtd">
<!-- Generated by graphviz version 2.47.0 (20210316.0004)
 -->
<!-- Pages: 1 -->
<svg width="378pt" height="148pt"
 viewBox="0.00 0.00 377.50 148.27" xmlns="http://www.w3.org/2000/svg" xmlns:xlink="http://www.w3.org/1999/xlink">
<g id="graph0" class="graph" transform="scale(1 1) rotate(0) translate(4 144.27)">
<polygon fill="white" stroke="transparent" points="-4,4 -4,-144.27 373.5,-144.27 373.5,4 -4,4"/>
<!-- 180° -->
<g id="node1" class="node">
<title>180°</title>
<polygon fill="lightgray" stroke="black" points="272,-140.27 238,-140.27 238,-122.27 272,-122.27 272,-140.27"/>
<text text-anchor="middle" x="255" y="-129.07" font-family="Times New Roman,serif" font-size="9.00">180°</text>
</g>
<!-- VELOCITY -->
<g id="node9" class="node">
<title>VELOCITY</title>
<ellipse fill="lightblue" stroke="black" cx="207" cy="-43.13" rx="43.27" ry="43.27"/>
<text text-anchor="middle" x="207" y="-40.93" font-family="Times New Roman,serif" font-size="9.00">VELOCITY</text>
</g>
<!-- 180°&#45;&gt;VELOCITY -->
<g id="edge1" class="edge">
<title>180°&#45;&gt;VELOCITY</title>
<path fill="none" stroke="red" stroke-width="0.24" d="M250.4,-122.01C246.17,-114.42 239.54,-102.52 232.72,-90.29"/>
<polygon fill="red" stroke="red" stroke-width="0.24" points="235.68,-88.41 227.76,-81.38 229.57,-91.82 235.68,-88.41"/>
</g>
<!-- ANGLE -->
<g id="node10" class="node">
<title>ANGLE</title>
<ellipse fill="lightblue" stroke="black" cx="113" cy="-43.13" rx="33.47" ry="33.47"/>
<text text-anchor="middle" x="113" y="-40.93" font-family="Times New Roman,serif" font-size="9.00">ANGLE</text>
</g>
<!-- 180°&#45;&gt;ANGLE -->
<g id="edge2" class="edge">
<title>180°&#45;&gt;ANGLE</title>
<path fill="none" stroke="red" stroke-width="0.61" stroke-dasharray="1,5" d="M237.73,-124.88C216.97,-117.92 181.6,-104.49 155,-86.27 150.64,-83.28 146.34,-79.8 142.26,-76.15"/>
<polygon fill="red" stroke="red" stroke-width="0.61" points="144.38,-73.33 134.71,-68.99 139.56,-78.41 144.38,-73.33"/>
</g>
<!-- &#45;90° -->
<g id="node2" class="node">
<title>&#45;90°</title>
<polygon fill="lightgray" stroke="black" points="322,-140.27 290,-140.27 290,-122.27 322,-122.27 322,-140.27"/>
<text text-anchor="middle" x="306" y="-129.07" font-family="Times New Roman,serif" font-size="9.00">&#45;90°</text>
</g>
<!-- &#45;90°&#45;&gt;VELOCITY -->
<g id="edge15" class="edge">
<title>&#45;90°&#45;&gt;VELOCITY</title>
<path fill="none" stroke="red" stroke-width="0.39" d="M296.51,-122.01C285.07,-112.06 265.13,-94.71 246.97,-78.91"/>
<polygon fill="red" stroke="red" stroke-width="0.39" points="249.17,-76.18 239.33,-72.26 244.58,-81.46 249.17,-76.18"/>
</g>
<!-- &#45;90°&#45;&gt;ANGLE -->
<g id="edge3" class="edge">
<title>&#45;90°&#45;&gt;ANGLE</title>
<path fill="none" stroke="green" stroke-width="0.31" d="M289.89,-125.03C286.93,-124.09 283.88,-123.14 281,-122.27 225.26,-105.39 205.17,-115.84 155,-86.27 150.22,-83.45 145.59,-79.96 141.27,-76.2"/>
<polygon fill="green" stroke="green" stroke-width="0.31" points="143.53,-73.52 133.84,-69.23 138.74,-78.62 143.53,-73.52"/>
</g>
<!-- &#45;40° -->
<g id="node3" class="node">
<title>&#45;40°</title>
<polygon fill="lightgray" stroke="black" points="32,-140.27 0,-140.27 0,-122.27 32,-122.27 32,-140.27"/>
<text text-anchor="middle" x="16" y="-129.07" font-family="Times New Roman,serif" font-size="9.00">&#45;40°</text>
</g>
<!-- &#45;40°&#45;&gt;VELOCITY -->
<g id="edge4" class="edge">
<title>&#45;40°&#45;&gt;VELOCITY</title>
<path fill="none" stroke="green" stroke-width="0.18" d="M32.14,-125.09C35.08,-124.15 38.13,-123.18 41,-122.27 91.64,-106.17 108.2,-111.43 155,-86.27 159.02,-84.1 163.04,-81.61 166.95,-78.94"/>
<polygon fill="green" stroke="green" stroke-width="0.18" points="169.28,-81.58 175.32,-72.87 165.17,-75.91 169.28,-81.58"/>
</g>
<!-- &#45;40°&#45;&gt;ANGLE -->
<g id="edge5" class="edge">
<title>&#45;40°&#45;&gt;ANGLE</title>
<path fill="none" stroke="green" stroke-width="0.2" d="M25.3,-122.01C38.03,-110.71 61.51,-89.86 80.97,-72.57"/>
<polygon fill="green" stroke="green" stroke-width="0.2" points="83.32,-75.17 88.48,-65.91 78.67,-69.93 83.32,-75.17"/>
</g>
<!-- &#45;15° -->
<g id="node4" class="node">
<title>&#45;15°</title>
<polygon fill="lightgray" stroke="black" points="82,-140.27 50,-140.27 50,-122.27 82,-122.27 82,-140.27"/>
<text text-anchor="middle" x="66" y="-129.07" font-family="Times New Roman,serif" font-size="9.00">&#45;15°</text>
</g>
<!-- &#45;15°&#45;&gt;VELOCITY -->
<g id="edge6" class="edge">
<title>&#45;15°&#45;&gt;VELOCITY</title>
<path fill="none" stroke="red" stroke-width="0.28" d="M82,-123.64C100.28,-115.79 130.77,-101.8 155,-86.27 158.85,-83.8 162.74,-81.1 166.57,-78.29"/>
<polygon fill="red" stroke="red" stroke-width="0.28" points="168.97,-80.86 174.82,-72.03 164.74,-75.29 168.97,-80.86"/>
</g>
<!-- &#45;15°&#45;&gt;ANGLE -->
<g id="edge7" class="edge">
<title>&#45;15°&#45;&gt;ANGLE</title>
<path fill="none" stroke="green" stroke-width="0.29" d="M70.51,-122.01C75.61,-112.66 84.27,-96.79 92.45,-81.8"/>
<polygon fill="green" stroke="green" stroke-width="0.29" points="95.72,-83.1 97.44,-72.65 89.58,-79.75 95.72,-83.1"/>
</g>
<!-- 0° -->
<g id="node5" class="node">
<title>0°</title>
<polygon fill="lightgray" stroke="black" points="125.5,-140.27 100.5,-140.27 100.5,-122.27 125.5,-122.27 125.5,-140.27"/>
<text text-anchor="middle" x="113" y="-129.07" font-family="Times New Roman,serif" font-size="9.00">0°</text>
</g>
<!-- 0°&#45;&gt;VELOCITY -->
<g id="edge8" class="edge">
<title>0°&#45;&gt;VELOCITY</title>
<path fill="none" stroke="green" stroke-width="0.24" d="M122.01,-122.01C132.61,-112.3 150.91,-95.53 167.82,-80.03"/>
<polygon fill="green" stroke="green" stroke-width="0.24" points="170.45,-82.37 175.46,-73.03 165.72,-77.21 170.45,-82.37"/>
</g>
<!-- 0°&#45;&gt;ANGLE -->
<g id="edge9" class="edge">
<title>0°&#45;&gt;ANGLE</title>
<path fill="none" stroke="green" stroke-width="0.12" d="M113,-122.01C113,-113.69 113,-100.19 113,-86.75"/>
<polygon fill="green" stroke="green" stroke-width="0.12" points="116.5,-86.57 113,-76.57 109.5,-86.57 116.5,-86.57"/>
</g>
<!-- 15° -->
<g id="node6" class="node">
<title>15°</title>
<polygon fill="lightgray" stroke="black" points="172.5,-140.27 143.5,-140.27 143.5,-122.27 172.5,-122.27 172.5,-140.27"/>
<text text-anchor="middle" x="158" y="-129.07" font-family="Times New Roman,serif" font-size="9.00">15°</text>
</g>
<!-- 15°&#45;&gt;VELOCITY -->
<g id="edge10" class="edge">
<title>15°&#45;&gt;VELOCITY</title>
<path fill="none" stroke="green" stroke-width="0.23" stroke-dasharray="1,5" d="M162.7,-122.01C167.05,-114.35 173.91,-102.31 180.93,-89.96"/>
<polygon fill="green" stroke="green" stroke-width="0.23" points="184.14,-91.4 186.04,-80.98 178.05,-87.94 184.14,-91.4"/>
</g>
<!-- 15°&#45;&gt;ANGLE -->
<g id="edge11" class="edge">
<title>15°&#45;&gt;ANGLE</title>
<path fill="none" stroke="red" stroke-width="0.39" d="M153.69,-122.01C148.84,-112.73 140.63,-97.02 132.85,-82.13"/>
<polygon fill="red" stroke="red" stroke-width="0.39" points="135.83,-80.28 128.1,-73.03 129.63,-83.52 135.83,-80.28"/>
</g>
<!-- 40° -->
<g id="node7" class="node">
<title>40°</title>
<polygon fill="lightgray" stroke="black" points="219.5,-140.27 190.5,-140.27 190.5,-122.27 219.5,-122.27 219.5,-140.27"/>
<text text-anchor="middle" x="205" y="-129.07" font-family="Times New Roman,serif" font-size="9.00">40°</text>
</g>
<!-- 40°&#45;&gt;VELOCITY -->
<g id="edge12" class="edge">
<title>40°&#45;&gt;VELOCITY</title>
<path fill="none" stroke="green" stroke-width="0.11" d="M205.19,-122.01C205.34,-115.69 205.55,-106.39 205.79,-96.4"/>
<polygon fill="green" stroke="green" stroke-width="0.11" points="209.29,-96.34 206.02,-86.26 202.29,-96.18 209.29,-96.34"/>
</g>
<!-- 40°&#45;&gt;ANGLE -->
<g id="edge13" class="edge">
<title>40°&#45;&gt;ANGLE</title>
<path fill="none" stroke="red" stroke-width="0.36" d="M195.25,-122.02C185.05,-113.31 168.65,-99.09 155,-86.27 151.05,-82.55 146.95,-78.59 142.93,-74.64"/>
<polygon fill="red" stroke="red" stroke-width="0.36" points="145.4,-72.15 135.84,-67.59 140.47,-77.12 145.4,-72.15"/>
</g>
<!-- 90° -->
<g id="node8" class="node">
<title>90°</title>
<polygon fill="lightgray" stroke="black" points="369.5,-140.27 340.5,-140.27 340.5,-122.27 369.5,-122.27 369.5,-140.27"/>
<text text-anchor="middle" x="355" y="-129.07" font-family="Times New Roman,serif" font-size="9.00">90°</text>
</g>
<!-- 90°&#45;&gt;VELOCITY -->
<g id="edge14" class="edge">
<title>90°&#45;&gt;VELOCITY</title>
<path fill="none" stroke="red" stroke-width="0.58" stroke-dasharray="1,5" d="M341.08,-122.16C321.04,-110.5 283.13,-88.44 252.72,-70.74"/>
<polygon fill="red" stroke="red" stroke-width="0.58" points="254.36,-67.65 243.95,-65.64 250.84,-73.7 254.36,-67.65"/>
</g>
</g>
</svg>
