<?xml version="1.0" encoding="UTF-8" standalone="no"?>
<!DOCTYPE svg PUBLIC "-//W3C//DTD SVG 1.1//EN"
 "http://www.w3.org/Graphics/SVG/1.1/DTD/svg11.dtd">
<!-- Generated by graphviz version 2.47.0 (20210316.0004)
 -->
<!-- Pages: 1 -->
<svg width="466pt" height="294pt"
 viewBox="0.00 0.00 465.66 293.81" xmlns="http://www.w3.org/2000/svg" xmlns:xlink="http://www.w3.org/1999/xlink">
<g id="graph0" class="graph" transform="scale(1 1) rotate(0) translate(4 289.81)">
<polygon fill="white" stroke="transparent" points="-4,4 -4,-289.81 461.66,-289.81 461.66,4 -4,4"/>
<!-- 180° -->
<g id="node1" class="node">
<title>180°</title>
<polygon fill="lightgray" stroke="black" points="223.4,-149.65 189.4,-149.65 189.4,-131.65 223.4,-131.65 223.4,-149.65"/>
<text text-anchor="middle" x="206.4" y="-138.45" font-family="Times New Roman,serif" font-size="9.00">180°</text>
</g>
<!-- VELOCITY -->
<g id="node9" class="node">
<title>VELOCITY</title>
<ellipse fill="lightblue" stroke="black" cx="326.4" cy="-43.13" rx="43.27" ry="43.27"/>
<text text-anchor="middle" x="326.4" y="-40.93" font-family="Times New Roman,serif" font-size="9.00">VELOCITY</text>
</g>
<!-- 180°&#45;&gt;VELOCITY -->
<g id="edge1" class="edge">
<title>180°&#45;&gt;VELOCITY</title>
<path fill="none" stroke="red" stroke-width="0.3" d="M216.63,-131.51C231.65,-119.55 260.54,-96.56 284.91,-77.16"/>
<polygon fill="red" stroke="red" stroke-width="0.3" points="287.33,-79.71 292.97,-70.74 282.97,-74.23 287.33,-79.71"/>
</g>
<!-- ANGLE -->
<g id="node10" class="node">
<title>ANGLE</title>
<ellipse fill="lightblue" stroke="black" cx="156.4" cy="-43.13" rx="33.47" ry="33.47"/>
<text text-anchor="middle" x="156.4" y="-40.93" font-family="Times New Roman,serif" font-size="9.00">ANGLE</text>
</g>
<!-- 180°&#45;&gt;ANGLE -->
<g id="edge2" class="edge">
<title>180°&#45;&gt;ANGLE</title>
<path fill="none" stroke="red" stroke-width="0.12" d="M202.14,-131.51C196.43,-120.6 185.9,-100.5 176.39,-82.33"/>
<polygon fill="red" stroke="red" stroke-width="0.12" points="179.28,-80.3 171.54,-73.06 173.08,-83.54 179.28,-80.3"/>
</g>
<!-- &#45;90° -->
<g id="node2" class="node">
<title>&#45;90°</title>
<polygon fill="lightgray" stroke="black" points="47.4,-149.65 15.4,-149.65 15.4,-131.65 47.4,-131.65 47.4,-149.65"/>
<text text-anchor="middle" x="31.4" y="-138.45" font-family="Times New Roman,serif" font-size="9.00">&#45;90°</text>
</g>
<!-- &#45;90°&#45;&gt;ANGLE -->
<g id="edge3" class="edge">
<title>&#45;90°&#45;&gt;ANGLE</title>
<path fill="none" stroke="red" stroke-width="0.16" d="M42.06,-131.51C59.61,-118.1 95.32,-90.81 122.19,-70.28"/>
<polygon fill="red" stroke="red" stroke-width="0.16" points="124.39,-73 130.21,-64.14 120.14,-67.43 124.39,-73"/>
</g>
<!-- &#45;40° -->
<g id="node3" class="node">
<title>&#45;40°</title>
<polygon fill="lightgray" stroke="black" points="228.4,-285.81 196.4,-285.81 196.4,-267.81 228.4,-267.81 228.4,-285.81"/>
<text text-anchor="middle" x="212.4" y="-274.61" font-family="Times New Roman,serif" font-size="9.00">&#45;40°</text>
</g>
<!-- &#45;40°&#45;&gt;VELOCITY -->
<g id="edge4" class="edge">
<title>&#45;40°&#45;&gt;VELOCITY</title>
<path fill="none" stroke="red" stroke-width="0.21" d="M228.65,-274.61C273.23,-271.01 396,-258.8 424.4,-231.81 460.21,-197.77 466.7,-165.84 443.4,-122.27 429.04,-95.41 400.91,-76.18 375.84,-63.52"/>
<polygon fill="red" stroke="red" stroke-width="0.21" points="377.29,-60.33 366.77,-59.15 374.26,-66.64 377.29,-60.33"/>
</g>
<!-- &#45;40°&#45;&gt;ANGLE -->
<g id="edge5" class="edge">
<title>&#45;40°&#45;&gt;ANGLE</title>
<path fill="none" stroke="green" stroke-width="0.24" d="M196.18,-272.42C155.4,-262.93 48.83,-231.85 6.4,-159.04 -22.98,-108.61 60.94,-72.77 114.86,-55.6"/>
<polygon fill="green" stroke="green" stroke-width="0.24" points="116.02,-58.91 124.54,-52.62 113.95,-52.22 116.02,-58.91"/>
</g>
<!-- 69 -->
<g id="node12" class="node">
<title>69</title>
<ellipse fill="white" stroke="black" cx="212.4" cy="-213.42" rx="18.27" ry="18.27"/>
<text text-anchor="middle" x="212.4" y="-211.22" font-family="Times New Roman,serif" font-size="9.00">69</text>
</g>
<!-- &#45;40°&#45;&gt;69 -->
<g id="edge16" class="edge">
<title>&#45;40°&#45;&gt;69</title>
<path fill="none" stroke="green" stroke-width="0.3" d="M212.4,-267.78C212.4,-261.22 212.4,-251.53 212.4,-242.2"/>
<polygon fill="green" stroke="green" stroke-width="0.3" points="215.9,-242.01 212.4,-232.01 208.9,-242.01 215.9,-242.01"/>
</g>
<!-- &#45;15° -->
<g id="node4" class="node">
<title>&#45;15°</title>
<polygon fill="lightgray" stroke="black" points="273.4,-149.65 241.4,-149.65 241.4,-131.65 273.4,-131.65 273.4,-149.65"/>
<text text-anchor="middle" x="257.4" y="-138.45" font-family="Times New Roman,serif" font-size="9.00">&#45;15°</text>
</g>
<!-- &#45;15°&#45;&gt;VELOCITY -->
<g id="edge6" class="edge">
<title>&#45;15°&#45;&gt;VELOCITY</title>
<path fill="none" stroke="red" stroke-width="0.12" d="M263.28,-131.51C270.51,-121.51 283.31,-103.78 295.51,-86.9"/>
<polygon fill="red" stroke="red" stroke-width="0.12" points="298.4,-88.87 301.42,-78.71 292.73,-84.77 298.4,-88.87"/>
</g>
<!-- &#45;15°&#45;&gt;ANGLE -->
<g id="edge7" class="edge">
<title>&#45;15°&#45;&gt;ANGLE</title>
<path fill="none" stroke="green" stroke-width="0.3" d="M248.79,-131.51C235.45,-118.89 209.12,-93.99 187.97,-73.99"/>
<polygon fill="green" stroke="green" stroke-width="0.3" points="190.11,-71.2 180.44,-66.87 185.3,-76.29 190.11,-71.2"/>
</g>
<!-- 0° -->
<g id="node5" class="node">
<title>0°</title>
<polygon fill="lightgray" stroke="black" points="316.9,-149.65 291.9,-149.65 291.9,-131.65 316.9,-131.65 316.9,-149.65"/>
<text text-anchor="middle" x="304.4" y="-138.45" font-family="Times New Roman,serif" font-size="9.00">0°</text>
</g>
<!-- 0°&#45;&gt;VELOCITY -->
<g id="edge8" class="edge">
<title>0°&#45;&gt;VELOCITY</title>
<path fill="none" stroke="green" stroke-width="0.38" d="M306.28,-131.51C308.2,-123.15 311.37,-109.4 314.62,-95.26"/>
<polygon fill="green" stroke="green" stroke-width="0.38" points="318.05,-96 316.88,-85.47 311.22,-94.42 318.05,-96"/>
</g>
<!-- 0°&#45;&gt;ANGLE -->
<g id="edge9" class="edge">
<title>0°&#45;&gt;ANGLE</title>
<path fill="none" stroke="green" stroke-width="0.12" d="M294.73,-131.62C290.95,-128.59 286.54,-125.18 282.4,-122.27 253.28,-101.83 218.88,-80.69 193.39,-65.56"/>
<polygon fill="green" stroke="green" stroke-width="0.12" points="195.15,-62.54 184.76,-60.47 191.6,-68.57 195.15,-62.54"/>
</g>
<!-- 15° -->
<g id="node6" class="node">
<title>15°</title>
<polygon fill="lightgray" stroke="black" points="363.9,-149.65 334.9,-149.65 334.9,-131.65 363.9,-131.65 363.9,-149.65"/>
<text text-anchor="middle" x="349.4" y="-138.45" font-family="Times New Roman,serif" font-size="9.00">15°</text>
</g>
<!-- 15°&#45;&gt;VELOCITY -->
<g id="edge10" class="edge">
<title>15°&#45;&gt;VELOCITY</title>
<path fill="none" stroke="green" stroke-width="0.29" stroke-dasharray="1,5" d="M347.44,-131.51C345.43,-123.15 342.12,-109.4 338.71,-95.26"/>
<polygon fill="green" stroke="green" stroke-width="0.29" points="342.1,-94.37 336.35,-85.47 335.29,-96.01 342.1,-94.37"/>
</g>
<!-- 15°&#45;&gt;ANGLE -->
<g id="edge11" class="edge">
<title>15°&#45;&gt;ANGLE</title>
<path fill="none" stroke="red" stroke-width="0.38" d="M339.43,-131.37C335.5,-128.31 330.87,-124.94 326.4,-122.27 283.97,-96.89 231.91,-74.07 196.66,-59.74"/>
<polygon fill="red" stroke="red" stroke-width="0.38" points="197.77,-56.41 187.19,-55.93 195.16,-62.91 197.77,-56.41"/>
</g>
<!-- 40° -->
<g id="node7" class="node">
<title>40°</title>
<polygon fill="lightgray" stroke="black" points="414.9,-222.42 385.9,-222.42 385.9,-204.42 414.9,-204.42 414.9,-222.42"/>
<text text-anchor="middle" x="400.4" y="-211.22" font-family="Times New Roman,serif" font-size="9.00">40°</text>
</g>
<!-- 40°&#45;&gt;VELOCITY -->
<g id="edge12" class="edge">
<title>40°&#45;&gt;VELOCITY</title>
<path fill="none" stroke="green" stroke-width="0.16" stroke-dasharray="1,5" d="M406.84,-204.13C418.66,-187.82 441.36,-150.72 427.4,-122.27 416.03,-99.11 394.13,-80.86 373.62,-67.84"/>
<polygon fill="green" stroke="green" stroke-width="0.16" points="375.31,-64.77 364.95,-62.58 371.68,-70.76 375.31,-64.77"/>
</g>
<!-- 40°&#45;&gt;ANGLE -->
<g id="edge13" class="edge">
<title>40°&#45;&gt;ANGLE</title>
<path fill="none" stroke="red" stroke-width="0.32" stroke-dasharray="1,5" d="M385.89,-210.61C332.45,-203.8 148.84,-179.07 132.4,-159.04 114.52,-137.24 122.97,-105.45 134.52,-80.83"/>
<polygon fill="red" stroke="red" stroke-width="0.32" points="137.7,-82.29 139.04,-71.78 131.44,-79.16 137.7,-82.29"/>
</g>
<!-- 76 -->
<g id="node11" class="node">
<title>76</title>
<ellipse fill="white" stroke="black" cx="400.4" cy="-140.65" rx="18.27" ry="18.27"/>
<text text-anchor="middle" x="400.4" y="-138.45" font-family="Times New Roman,serif" font-size="9.00">76</text>
</g>
<!-- 40°&#45;&gt;76 -->
<g id="edge18" class="edge">
<title>40°&#45;&gt;76</title>
<path fill="none" stroke="green" stroke-width="0.3" d="M400.4,-204.3C400.4,-195.74 400.4,-181.76 400.4,-169.18"/>
<polygon fill="green" stroke="green" stroke-width="0.3" points="403.9,-169.09 400.4,-159.09 396.9,-169.09 403.9,-169.09"/>
</g>
<!-- 90° -->
<g id="node8" class="node">
<title>90°</title>
<polygon fill="lightgray" stroke="black" points="170.9,-149.65 141.9,-149.65 141.9,-131.65 170.9,-131.65 170.9,-149.65"/>
<text text-anchor="middle" x="156.4" y="-138.45" font-family="Times New Roman,serif" font-size="9.00">90°</text>
</g>
<!-- 90°&#45;&gt;VELOCITY -->
<g id="edge14" class="edge">
<title>90°&#45;&gt;VELOCITY</title>
<path fill="none" stroke="green" stroke-width="0.33" d="M166.94,-131.55C171.05,-128.51 175.86,-125.11 180.4,-122.27 212.29,-102.31 249.72,-82.35 278.69,-67.59"/>
<polygon fill="green" stroke="green" stroke-width="0.33" points="280.44,-70.63 287.79,-62.99 277.28,-64.38 280.44,-70.63"/>
</g>
<!-- 90°&#45;&gt;ANGLE -->
<g id="edge15" class="edge">
<title>90°&#45;&gt;ANGLE</title>
<path fill="none" stroke="red" stroke-width="0.24" d="M156.4,-131.51C156.4,-121.5 156.4,-103.75 156.4,-86.85"/>
<polygon fill="red" stroke="red" stroke-width="0.24" points="159.9,-86.51 156.4,-76.51 152.9,-86.51 159.9,-86.51"/>
</g>
<!-- 76&#45;&gt;VELOCITY -->
<g id="edge19" class="edge">
<title>76&#45;&gt;VELOCITY</title>
<path fill="none" stroke="green" stroke-width="0.16" d="M389.48,-125.56C381.35,-115.06 369.79,-100.15 358.79,-85.94"/>
<polygon fill="green" stroke="green" stroke-width="0.16" points="361.3,-83.47 352.41,-77.7 355.77,-87.75 361.3,-83.47"/>
</g>
<!-- 69&#45;&gt;ANGLE -->
<g id="edge17" class="edge">
<title>69&#45;&gt;ANGLE</title>
<path fill="none" stroke="green" stroke-width="0.22" d="M193.96,-209.82C167.68,-205.02 120.3,-192.03 99.4,-159.04 81.76,-131.2 103.56,-97.15 125.1,-73.37"/>
<polygon fill="green" stroke="green" stroke-width="0.22" points="127.71,-75.71 132.03,-66.03 122.62,-70.9 127.71,-75.71"/>
</g>
<!-- 69&#45;&gt;76 -->
<g id="edge20" class="edge">
<title>69&#45;&gt;76</title>
<path fill="none" stroke="green" stroke-width="0.1" d="M230.36,-208.06C260.71,-200.33 323.72,-182.8 373.4,-159.04 374.56,-158.48 375.73,-157.89 376.9,-157.26"/>
<polygon fill="green" stroke="green" stroke-width="0.1" points="378.82,-160.19 385.65,-152.09 375.26,-154.16 378.82,-160.19"/>
</g>
</g>
</svg>
