<?xml version="1.0" encoding="UTF-8" standalone="no"?>
<!DOCTYPE svg PUBLIC "-//W3C//DTD SVG 1.1//EN"
 "http://www.w3.org/Graphics/SVG/1.1/DTD/svg11.dtd">
<!-- Generated by graphviz version 2.47.0 (20210316.0004)
 -->
<!-- Pages: 1 -->
<svg width="378pt" height="148pt"
 viewBox="0.00 0.00 377.50 148.27" xmlns="http://www.w3.org/2000/svg" xmlns:xlink="http://www.w3.org/1999/xlink">
<g id="graph0" class="graph" transform="scale(1 1) rotate(0) translate(4 144.27)">
<polygon fill="white" stroke="transparent" points="-4,4 -4,-144.27 373.5,-144.27 373.5,4 -4,4"/>
<!-- 180° -->
<g id="node1" class="node">
<title>180°</title>
<polygon fill="lightgray" stroke="black" points="226,-140.27 192,-140.27 192,-122.27 226,-122.27 226,-140.27"/>
<text text-anchor="middle" x="209" y="-129.07" font-family="Times New Roman,serif" font-size="9.00">180°</text>
</g>
<!-- VELOCITY -->
<g id="node9" class="node">
<title>VELOCITY</title>
<ellipse fill="lightblue" stroke="black" cx="136" cy="-43.13" rx="43.27" ry="43.27"/>
<text text-anchor="middle" x="136" y="-40.93" font-family="Times New Roman,serif" font-size="9.00">VELOCITY</text>
</g>
<!-- 180°&#45;&gt;VELOCITY -->
<g id="edge1" class="edge">
<title>180°&#45;&gt;VELOCITY</title>
<path fill="none" stroke="green" stroke-width="0.26" d="M202,-122.01C194.53,-113.2 182.15,-98.58 170.11,-84.38"/>
<polygon fill="green" stroke="green" stroke-width="0.26" points="172.62,-81.93 163.49,-76.57 167.28,-86.46 172.62,-81.93"/>
</g>
<!-- ANGLE -->
<g id="node10" class="node">
<title>ANGLE</title>
<ellipse fill="lightblue" stroke="black" cx="231" cy="-43.13" rx="33.47" ry="33.47"/>
<text text-anchor="middle" x="231" y="-40.93" font-family="Times New Roman,serif" font-size="9.00">ANGLE</text>
</g>
<!-- 180°&#45;&gt;ANGLE -->
<g id="edge2" class="edge">
<title>180°&#45;&gt;ANGLE</title>
<path fill="none" stroke="green" stroke-width="0.1" stroke-dasharray="1,5" d="M211.11,-122.01C213.29,-113.47 216.86,-99.48 220.38,-85.69"/>
<polygon fill="green" stroke="green" stroke-width="0.1" points="223.83,-86.33 222.92,-75.77 217.05,-84.6 223.83,-86.33"/>
</g>
<!-- &#45;90° -->
<g id="node2" class="node">
<title>&#45;90°</title>
<polygon fill="lightgray" stroke="black" points="326,-140.27 294,-140.27 294,-122.27 326,-122.27 326,-140.27"/>
<text text-anchor="middle" x="310" y="-129.07" font-family="Times New Roman,serif" font-size="9.00">&#45;90°</text>
</g>
<!-- &#45;90°&#45;&gt;ANGLE -->
<g id="edge3" class="edge">
<title>&#45;90°&#45;&gt;ANGLE</title>
<path fill="none" stroke="green" stroke-width="0.2" stroke-dasharray="1,5" d="M302.43,-122.01C292.65,-111.35 275.07,-92.18 259.8,-75.53"/>
<polygon fill="green" stroke="green" stroke-width="0.2" points="262.32,-73.11 252.98,-68.1 257.16,-77.84 262.32,-73.11"/>
</g>
<!-- &#45;40° -->
<g id="node3" class="node">
<title>&#45;40°</title>
<polygon fill="lightgray" stroke="black" points="276,-140.27 244,-140.27 244,-122.27 276,-122.27 276,-140.27"/>
<text text-anchor="middle" x="260" y="-129.07" font-family="Times New Roman,serif" font-size="9.00">&#45;40°</text>
</g>
<!-- &#45;40°&#45;&gt;VELOCITY -->
<g id="edge4" class="edge">
<title>&#45;40°&#45;&gt;VELOCITY</title>
<path fill="none" stroke="green" stroke-width="0.62" d="M245.81,-122.14C231.25,-113.64 208.09,-99.7 189,-86.27 185.06,-83.5 181.03,-80.53 177.03,-77.51"/>
<polygon fill="green" stroke="green" stroke-width="0.62" points="178.97,-74.59 168.91,-71.26 174.7,-80.13 178.97,-74.59"/>
</g>
<!-- &#45;40°&#45;&gt;ANGLE -->
<g id="edge5" class="edge">
<title>&#45;40°&#45;&gt;ANGLE</title>
<path fill="none" stroke="green" stroke-width="0.34" d="M257.22,-122.01C254.27,-113.25 249.39,-98.76 244.63,-84.63"/>
<polygon fill="green" stroke="green" stroke-width="0.34" points="247.9,-83.35 241.39,-74.99 241.26,-85.58 247.9,-83.35"/>
</g>
<!-- &#45;15° -->
<g id="node4" class="node">
<title>&#45;15°</title>
<polygon fill="lightgray" stroke="black" points="32,-140.27 0,-140.27 0,-122.27 32,-122.27 32,-140.27"/>
<text text-anchor="middle" x="16" y="-129.07" font-family="Times New Roman,serif" font-size="9.00">&#45;15°</text>
</g>
<!-- &#45;15°&#45;&gt;VELOCITY -->
<g id="edge6" class="edge">
<title>&#45;15°&#45;&gt;VELOCITY</title>
<path fill="none" stroke="red" stroke-width="0.22" stroke-dasharray="1,5" d="M27.51,-122.01C42.5,-111.25 69.56,-91.82 92.91,-75.06"/>
<polygon fill="red" stroke="red" stroke-width="0.22" points="95.23,-77.71 101.31,-69.03 91.15,-72.02 95.23,-77.71"/>
</g>
<!-- 0° -->
<g id="node5" class="node">
<title>0°</title>
<polygon fill="lightgray" stroke="black" points="369.5,-140.27 344.5,-140.27 344.5,-122.27 369.5,-122.27 369.5,-140.27"/>
<text text-anchor="middle" x="357" y="-129.07" font-family="Times New Roman,serif" font-size="9.00">0°</text>
</g>
<!-- 0°&#45;&gt;ANGLE -->
<g id="edge7" class="edge">
<title>0°&#45;&gt;ANGLE</title>
<path fill="none" stroke="red" stroke-width="0.18" stroke-dasharray="1,5" d="M344.92,-122.01C327.1,-109.83 293.05,-86.55 266.8,-68.6"/>
<polygon fill="red" stroke="red" stroke-width="0.18" points="268.46,-65.5 258.23,-62.75 264.51,-71.28 268.46,-65.5"/>
</g>
<!-- 15° -->
<g id="node6" class="node">
<title>15°</title>
<polygon fill="lightgray" stroke="black" points="126.5,-140.27 97.5,-140.27 97.5,-122.27 126.5,-122.27 126.5,-140.27"/>
<text text-anchor="middle" x="112" y="-129.07" font-family="Times New Roman,serif" font-size="9.00">15°</text>
</g>
<!-- 15°&#45;&gt;VELOCITY -->
<g id="edge8" class="edge">
<title>15°&#45;&gt;VELOCITY</title>
<path fill="none" stroke="green" stroke-width="0.45" stroke-dasharray="1,5" d="M114.3,-122.01C116.15,-115.37 118.92,-105.43 121.87,-94.85"/>
<polygon fill="green" stroke="green" stroke-width="0.45" points="125.29,-95.61 124.6,-85.04 118.55,-93.73 125.29,-95.61"/>
</g>
<!-- 15°&#45;&gt;ANGLE -->
<g id="edge9" class="edge">
<title>15°&#45;&gt;ANGLE</title>
<path fill="none" stroke="red" stroke-width="0.39" d="M126.68,-123.17C142.5,-115.2 168.1,-101.4 188,-86.27 192.47,-82.87 196.96,-79.04 201.26,-75.11"/>
<polygon fill="red" stroke="red" stroke-width="0.39" points="203.91,-77.42 208.76,-68 199.1,-72.34 203.91,-77.42"/>
</g>
<!-- 40° -->
<g id="node7" class="node">
<title>40°</title>
<polygon fill="lightgray" stroke="black" points="173.5,-140.27 144.5,-140.27 144.5,-122.27 173.5,-122.27 173.5,-140.27"/>
<text text-anchor="middle" x="159" y="-129.07" font-family="Times New Roman,serif" font-size="9.00">40°</text>
</g>
<!-- 40°&#45;&gt;VELOCITY -->
<g id="edge10" class="edge">
<title>40°&#45;&gt;VELOCITY</title>
<path fill="none" stroke="green" stroke-width="0.2" d="M156.79,-122.01C155.02,-115.37 152.37,-105.43 149.54,-94.85"/>
<polygon fill="green" stroke="green" stroke-width="0.2" points="152.88,-93.8 146.92,-85.04 146.12,-95.6 152.88,-93.8"/>
</g>
<!-- 40°&#45;&gt;ANGLE -->
<g id="edge11" class="edge">
<title>40°&#45;&gt;ANGLE</title>
<path fill="none" stroke="red" stroke-width="0.32" d="M165.9,-122.01C174.55,-111.66 189.9,-93.3 203.52,-77.01"/>
<polygon fill="red" stroke="red" stroke-width="0.32" points="206.3,-79.14 210.03,-69.22 200.93,-74.65 206.3,-79.14"/>
</g>
<!-- 90° -->
<g id="node8" class="node">
<title>90°</title>
<polygon fill="lightgray" stroke="black" points="79.5,-140.27 50.5,-140.27 50.5,-122.27 79.5,-122.27 79.5,-140.27"/>
<text text-anchor="middle" x="65" y="-129.07" font-family="Times New Roman,serif" font-size="9.00">90°</text>
</g>
<!-- 90°&#45;&gt;VELOCITY -->
<g id="edge12" class="edge">
<title>90°&#45;&gt;VELOCITY</title>
<path fill="none" stroke="green" stroke-width="0.39" d="M71.81,-122.01C79.01,-113.27 90.92,-98.82 102.54,-84.72"/>
<polygon fill="green" stroke="green" stroke-width="0.39" points="105.28,-86.91 108.94,-76.96 99.88,-82.45 105.28,-86.91"/>
</g>
</g>
</svg>
