<?xml version="1.0" encoding="UTF-8" standalone="no"?>
<!DOCTYPE svg PUBLIC "-//W3C//DTD SVG 1.1//EN"
 "http://www.w3.org/Graphics/SVG/1.1/DTD/svg11.dtd">
<!-- Generated by graphviz version 2.47.0 (20210316.0004)
 -->
<!-- Pages: 1 -->
<svg width="513pt" height="227pt"
 viewBox="0.00 0.00 513.43 226.69" xmlns="http://www.w3.org/2000/svg" xmlns:xlink="http://www.w3.org/1999/xlink">
<g id="graph0" class="graph" transform="scale(1 1) rotate(0) translate(4 222.69)">
<polygon fill="white" stroke="transparent" points="-4,4 -4,-222.69 509.43,-222.69 509.43,4 -4,4"/>
<!-- 180° -->
<g id="node1" class="node">
<title>180°</title>
<polygon fill="lightgray" stroke="black" points="402.21,-218.69 368.21,-218.69 368.21,-200.69 402.21,-200.69 402.21,-218.69"/>
<text text-anchor="middle" x="385.21" y="-207.49" font-family="Times New Roman,serif" font-size="9.00">180°</text>
</g>
<!-- VELOCITY -->
<g id="node9" class="node">
<title>VELOCITY</title>
<ellipse fill="lightblue" stroke="black" cx="151.21" cy="-43.13" rx="43.27" ry="43.27"/>
<text text-anchor="middle" x="151.21" y="-40.93" font-family="Times New Roman,serif" font-size="9.00">VELOCITY</text>
</g>
<!-- 180°&#45;&gt;VELOCITY -->
<g id="edge1" class="edge">
<title>180°&#45;&gt;VELOCITY</title>
<path fill="none" stroke="red" stroke-width="0.34" stroke-dasharray="1,5" d="M368.16,-208.5C315.83,-207.51 159.22,-201.46 128.21,-164.69 110.92,-144.18 116.2,-114.68 126.03,-90"/>
<polygon fill="red" stroke="red" stroke-width="0.34" points="129.25,-91.37 129.99,-80.8 122.82,-88.61 129.25,-91.37"/>
</g>
<!-- ANGLE -->
<g id="node10" class="node">
<title>ANGLE</title>
<ellipse fill="lightblue" stroke="black" cx="316.21" cy="-43.13" rx="33.47" ry="33.47"/>
<text text-anchor="middle" x="316.21" y="-40.93" font-family="Times New Roman,serif" font-size="9.00">ANGLE</text>
</g>
<!-- 180°&#45;&gt;ANGLE -->
<g id="edge2" class="edge">
<title>180°&#45;&gt;ANGLE</title>
<path fill="none" stroke="red" stroke-width="0.34" stroke-dasharray="1,5" d="M384.36,-200.3C382.55,-184.51 377.5,-149.52 366.21,-122.27 359.89,-107.01 350.61,-91.44 341.76,-78.26"/>
<polygon fill="red" stroke="red" stroke-width="0.34" points="344.6,-76.21 336.04,-69.96 338.84,-80.18 344.6,-76.21"/>
</g>
<!-- 146 -->
<g id="node11" class="node">
<title>146</title>
<ellipse fill="white" stroke="black" cx="484.21" cy="-143.48" rx="21.43" ry="21.43"/>
<text text-anchor="middle" x="484.21" y="-141.28" font-family="Times New Roman,serif" font-size="9.00">146</text>
</g>
<!-- 180°&#45;&gt;146 -->
<g id="edge14" class="edge">
<title>180°&#45;&gt;146</title>
<path fill="none" stroke="red" stroke-width="0.33" d="M397.99,-200.68C411.89,-191.93 434.73,-177.47 454.21,-164.69 455.66,-163.75 457.14,-162.77 458.63,-161.78"/>
<polygon fill="red" stroke="red" stroke-width="0.33" points="460.76,-164.57 467.13,-156.1 456.87,-158.75 460.76,-164.57"/>
</g>
<!-- &#45;90° -->
<g id="node2" class="node">
<title>&#45;90°</title>
<polygon fill="lightgray" stroke="black" points="357.21,-152.48 325.21,-152.48 325.21,-134.48 357.21,-134.48 357.21,-152.48"/>
<text text-anchor="middle" x="341.21" y="-141.28" font-family="Times New Roman,serif" font-size="9.00">&#45;90°</text>
</g>
<!-- &#45;90°&#45;&gt;ANGLE -->
<g id="edge3" class="edge">
<title>&#45;90°&#45;&gt;ANGLE</title>
<path fill="none" stroke="red" stroke-width="0.24" stroke-dasharray="1,5" d="M339.17,-134.43C336.42,-123.62 331.34,-103.63 326.65,-85.21"/>
<polygon fill="red" stroke="red" stroke-width="0.24" points="330.04,-84.31 324.18,-75.49 323.25,-86.04 330.04,-84.31"/>
</g>
<!-- &#45;40° -->
<g id="node3" class="node">
<title>&#45;40°</title>
<polygon fill="lightgray" stroke="black" points="445.21,-152.48 413.21,-152.48 413.21,-134.48 445.21,-134.48 445.21,-152.48"/>
<text text-anchor="middle" x="429.21" y="-141.28" font-family="Times New Roman,serif" font-size="9.00">&#45;40°</text>
</g>
<!-- &#45;40°&#45;&gt;ANGLE -->
<g id="edge4" class="edge">
<title>&#45;40°&#45;&gt;ANGLE</title>
<path fill="none" stroke="green" stroke-width="0.25" d="M419.97,-134.43C404.56,-121.02 372.91,-93.48 348.6,-72.32"/>
<polygon fill="green" stroke="green" stroke-width="0.25" points="350.84,-69.63 341,-65.7 346.24,-74.91 350.84,-69.63"/>
</g>
<!-- &#45;15° -->
<g id="node4" class="node">
<title>&#45;15°</title>
<polygon fill="lightgray" stroke="black" points="216.21,-152.48 184.21,-152.48 184.21,-134.48 216.21,-134.48 216.21,-152.48"/>
<text text-anchor="middle" x="200.21" y="-141.28" font-family="Times New Roman,serif" font-size="9.00">&#45;15°</text>
</g>
<!-- &#45;15°&#45;&gt;VELOCITY -->
<g id="edge5" class="edge">
<title>&#45;15°&#45;&gt;VELOCITY</title>
<path fill="none" stroke="green" stroke-width="0.53" stroke-dasharray="1,5" d="M196.2,-134.43C191.42,-124.83 183.03,-108 174.78,-91.44"/>
<polygon fill="green" stroke="green" stroke-width="0.53" points="177.83,-89.71 170.24,-82.32 171.57,-92.84 177.83,-89.71"/>
</g>
<!-- &#45;15°&#45;&gt;ANGLE -->
<g id="edge6" class="edge">
<title>&#45;15°&#45;&gt;ANGLE</title>
<path fill="none" stroke="green" stroke-width="0.48" d="M209.71,-134.43C225.62,-120.94 258.41,-93.14 283.42,-71.93"/>
<polygon fill="green" stroke="green" stroke-width="0.48" points="285.88,-74.44 291.24,-65.3 281.35,-69.1 285.88,-74.44"/>
</g>
<!-- 0° -->
<g id="node5" class="node">
<title>0°</title>
<polygon fill="lightgray" stroke="black" points="259.71,-152.48 234.71,-152.48 234.71,-134.48 259.71,-134.48 259.71,-152.48"/>
<text text-anchor="middle" x="247.21" y="-141.28" font-family="Times New Roman,serif" font-size="9.00">0°</text>
</g>
<!-- 0°&#45;&gt;VELOCITY -->
<g id="edge7" class="edge">
<title>0°&#45;&gt;VELOCITY</title>
<path fill="none" stroke="red" stroke-width="0.12" d="M239.36,-134.43C228.16,-122.96 206.88,-101.16 188.03,-81.85"/>
<polygon fill="red" stroke="red" stroke-width="0.12" points="190.44,-79.31 180.95,-74.6 185.43,-84.2 190.44,-79.31"/>
</g>
<!-- 0°&#45;&gt;ANGLE -->
<g id="edge8" class="edge">
<title>0°&#45;&gt;ANGLE</title>
<path fill="none" stroke="red" stroke-width="0.5" stroke-dasharray="1,5" d="M252.86,-134.43C261.31,-122.39 277.75,-98.96 291.76,-78.98"/>
<polygon fill="red" stroke="red" stroke-width="0.5" points="294.71,-80.88 297.59,-70.68 288.98,-76.85 294.71,-80.88"/>
</g>
<!-- 15° -->
<g id="node6" class="node">
<title>15°</title>
<polygon fill="lightgray" stroke="black" points="306.71,-152.48 277.71,-152.48 277.71,-134.48 306.71,-134.48 306.71,-152.48"/>
<text text-anchor="middle" x="292.21" y="-141.28" font-family="Times New Roman,serif" font-size="9.00">15°</text>
</g>
<!-- 15°&#45;&gt;VELOCITY -->
<g id="edge9" class="edge">
<title>15°&#45;&gt;VELOCITY</title>
<path fill="none" stroke="red" stroke-width="0.18" stroke-dasharray="1,5" d="M283.5,-134.32C279.29,-130.51 274.11,-126.01 269.21,-122.27 245.95,-104.48 218.78,-86.32 196.37,-71.99"/>
<polygon fill="red" stroke="red" stroke-width="0.18" points="198.04,-68.9 187.72,-66.49 194.28,-74.81 198.04,-68.9"/>
</g>
<!-- 15°&#45;&gt;ANGLE -->
<g id="edge10" class="edge">
<title>15°&#45;&gt;ANGLE</title>
<path fill="none" stroke="red" stroke-width="0.38" d="M294.18,-134.43C296.82,-123.62 301.69,-103.63 306.19,-85.21"/>
<polygon fill="red" stroke="red" stroke-width="0.38" points="309.59,-86.03 308.56,-75.49 302.79,-84.37 309.59,-86.03"/>
</g>
<!-- 40° -->
<g id="node7" class="node">
<title>40°</title>
<polygon fill="lightgray" stroke="black" points="165.71,-152.48 136.71,-152.48 136.71,-134.48 165.71,-134.48 165.71,-152.48"/>
<text text-anchor="middle" x="151.21" y="-141.28" font-family="Times New Roman,serif" font-size="9.00">40°</text>
</g>
<!-- 40°&#45;&gt;VELOCITY -->
<g id="edge11" class="edge">
<title>40°&#45;&gt;VELOCITY</title>
<path fill="none" stroke="green" stroke-width="0.21" stroke-dasharray="1,5" d="M151.21,-134.43C151.21,-125.86 151.21,-111.51 151.21,-96.75"/>
<polygon fill="green" stroke="green" stroke-width="0.21" points="154.71,-96.53 151.21,-86.53 147.71,-96.53 154.71,-96.53"/>
</g>
<!-- 40°&#45;&gt;ANGLE -->
<g id="edge12" class="edge">
<title>40°&#45;&gt;ANGLE</title>
<path fill="none" stroke="red" stroke-width="0.41" d="M160.23,-134.17C164.59,-130.34 170.01,-125.85 175.21,-122.27 208.28,-99.5 248.57,-77.71 277.6,-62.95"/>
<polygon fill="red" stroke="red" stroke-width="0.41" points="279.25,-66.04 286.61,-58.42 276.1,-59.79 279.25,-66.04"/>
</g>
<!-- 90° -->
<g id="node8" class="node">
<title>90°</title>
<polygon fill="lightgray" stroke="black" points="60.71,-218.69 31.71,-218.69 31.71,-200.69 60.71,-200.69 60.71,-218.69"/>
<text text-anchor="middle" x="46.21" y="-207.49" font-family="Times New Roman,serif" font-size="9.00">90°</text>
</g>
<!-- 90°&#45;&gt;VELOCITY -->
<g id="edge13" class="edge">
<title>90°&#45;&gt;VELOCITY</title>
<path fill="none" stroke="red" stroke-width="0.33" stroke-dasharray="1,5" d="M50.39,-200.4C58.34,-184.77 76.47,-150.04 94.21,-122.27 101.93,-110.2 110.83,-97.5 119.27,-85.93"/>
<polygon fill="red" stroke="red" stroke-width="0.33" points="122.2,-87.85 125.31,-77.73 116.56,-83.7 122.2,-87.85"/>
</g>
<!-- 249 -->
<g id="node12" class="node">
<title>249</title>
<ellipse fill="white" stroke="black" cx="21.21" cy="-143.48" rx="21.43" ry="21.43"/>
<text text-anchor="middle" x="21.21" y="-141.28" font-family="Times New Roman,serif" font-size="9.00">249</text>
</g>
<!-- 90°&#45;&gt;249 -->
<g id="edge16" class="edge">
<title>90°&#45;&gt;249</title>
<path fill="none" stroke="green" stroke-width="0.32" d="M43.05,-200.56C40.32,-193.55 36.21,-183.01 32.29,-172.94"/>
<polygon fill="green" stroke="green" stroke-width="0.32" points="35.54,-171.62 28.65,-163.57 29.01,-174.16 35.54,-171.62"/>
</g>
<!-- 146&#45;&gt;ANGLE -->
<g id="edge15" class="edge">
<title>146&#45;&gt;ANGLE</title>
<path fill="none" stroke="green" stroke-width="0.11" d="M467.23,-130.7C463.02,-127.88 458.49,-124.91 454.21,-122.27 420.98,-101.7 382.17,-79.92 354.19,-64.59"/>
<polygon fill="green" stroke="green" stroke-width="0.11" points="355.59,-61.37 345.14,-59.66 352.24,-67.52 355.59,-61.37"/>
</g>
<!-- 249&#45;&gt;VELOCITY -->
<g id="edge17" class="edge">
<title>249&#45;&gt;VELOCITY</title>
<path fill="none" stroke="green" stroke-width="0.11" d="M37.68,-130.02C55.54,-116.51 84.76,-94.4 109.09,-76"/>
<polygon fill="green" stroke="green" stroke-width="0.11" points="111.26,-78.74 117.13,-69.92 107.04,-73.16 111.26,-78.74"/>
</g>
</g>
</svg>
