<?xml version="1.0" encoding="UTF-8" standalone="no"?>
<!DOCTYPE svg PUBLIC "-//W3C//DTD SVG 1.1//EN"
 "http://www.w3.org/Graphics/SVG/1.1/DTD/svg11.dtd">
<!-- Generated by graphviz version 2.47.0 (20210316.0004)
 -->
<!-- Pages: 1 -->
<svg width="513pt" height="227pt"
 viewBox="0.00 0.00 513.21 226.69" xmlns="http://www.w3.org/2000/svg" xmlns:xlink="http://www.w3.org/1999/xlink">
<g id="graph0" class="graph" transform="scale(1 1) rotate(0) translate(4 222.69)">
<polygon fill="white" stroke="transparent" points="-4,4 -4,-222.69 509.21,-222.69 509.21,4 -4,4"/>
<!-- 180° -->
<g id="node1" class="node">
<title>180°</title>
<polygon fill="lightgray" stroke="black" points="413.21,-218.69 379.21,-218.69 379.21,-200.69 413.21,-200.69 413.21,-218.69"/>
<text text-anchor="middle" x="396.21" y="-207.49" font-family="Times New Roman,serif" font-size="9.00">180°</text>
</g>
<!-- VELOCITY -->
<g id="node9" class="node">
<title>VELOCITY</title>
<ellipse fill="lightblue" stroke="black" cx="176.21" cy="-43.13" rx="43.27" ry="43.27"/>
<text text-anchor="middle" x="176.21" y="-40.93" font-family="Times New Roman,serif" font-size="9.00">VELOCITY</text>
</g>
<!-- 180°&#45;&gt;VELOCITY -->
<g id="edge1" class="edge">
<title>180°&#45;&gt;VELOCITY</title>
<path fill="none" stroke="red" stroke-width="0.26" stroke-dasharray="1,5" d="M379.2,-208.63C325.43,-208.04 160.79,-203.06 128.21,-164.69 108.5,-141.47 123,-109.15 141.07,-83.82"/>
<polygon fill="red" stroke="red" stroke-width="0.26" points="144.1,-85.62 147.29,-75.52 138.5,-81.42 144.1,-85.62"/>
</g>
<!-- ANGLE -->
<g id="node10" class="node">
<title>ANGLE</title>
<ellipse fill="lightblue" stroke="black" cx="319.21" cy="-43.13" rx="33.47" ry="33.47"/>
<text text-anchor="middle" x="319.21" y="-40.93" font-family="Times New Roman,serif" font-size="9.00">ANGLE</text>
</g>
<!-- 180°&#45;&gt;ANGLE -->
<g id="edge2" class="edge">
<title>180°&#45;&gt;ANGLE</title>
<path fill="none" stroke="green" stroke-width="0.1" stroke-dasharray="1,5" d="M404.14,-200.42C411.49,-192.14 421.91,-178.65 426.21,-164.69 431.77,-146.68 434.75,-139.08 426.21,-122.27 412.13,-94.54 383.07,-74.3 358.78,-61.38"/>
<polygon fill="green" stroke="green" stroke-width="0.1" points="360.25,-58.2 349.75,-56.79 357.08,-64.44 360.25,-58.2"/>
</g>
<!-- 146 -->
<g id="node11" class="node">
<title>146</title>
<ellipse fill="white" stroke="black" cx="396.21" cy="-143.48" rx="21.43" ry="21.43"/>
<text text-anchor="middle" x="396.21" y="-141.28" font-family="Times New Roman,serif" font-size="9.00">146</text>
</g>
<!-- 180°&#45;&gt;146 -->
<g id="edge15" class="edge">
<title>180°&#45;&gt;146</title>
<path fill="none" stroke="red" stroke-width="0.33" d="M396.21,-200.56C396.21,-194.02 396.21,-184.39 396.21,-174.95"/>
<polygon fill="red" stroke="red" stroke-width="0.33" points="399.71,-174.94 396.21,-164.94 392.71,-174.94 399.71,-174.94"/>
</g>
<!-- &#45;90° -->
<g id="node2" class="node">
<title>&#45;90°</title>
<polygon fill="lightgray" stroke="black" points="505.21,-152.48 473.21,-152.48 473.21,-134.48 505.21,-134.48 505.21,-152.48"/>
<text text-anchor="middle" x="489.21" y="-141.28" font-family="Times New Roman,serif" font-size="9.00">&#45;90°</text>
</g>
<!-- &#45;90°&#45;&gt;ANGLE -->
<g id="edge3" class="edge">
<title>&#45;90°&#45;&gt;ANGLE</title>
<path fill="none" stroke="red" stroke-width="0.24" stroke-dasharray="1,5" d="M477.68,-134.38C472.16,-130.59 465.42,-126.08 459.21,-122.27 425.29,-101.43 385.58,-79.48 357.13,-64.18"/>
<polygon fill="red" stroke="red" stroke-width="0.24" points="358.78,-61.09 348.31,-59.45 355.47,-67.26 358.78,-61.09"/>
</g>
<!-- &#45;40° -->
<g id="node3" class="node">
<title>&#45;40°</title>
<polygon fill="lightgray" stroke="black" points="216.21,-152.48 184.21,-152.48 184.21,-134.48 216.21,-134.48 216.21,-152.48"/>
<text text-anchor="middle" x="200.21" y="-141.28" font-family="Times New Roman,serif" font-size="9.00">&#45;40°</text>
</g>
<!-- &#45;40°&#45;&gt;VELOCITY -->
<g id="edge4" class="edge">
<title>&#45;40°&#45;&gt;VELOCITY</title>
<path fill="none" stroke="green" stroke-width="0.42" d="M198.25,-134.43C196.08,-125.55 192.4,-110.48 188.67,-95.16"/>
<polygon fill="green" stroke="green" stroke-width="0.42" points="191.99,-94.01 186.22,-85.12 185.19,-95.67 191.99,-94.01"/>
</g>
<!-- &#45;40°&#45;&gt;ANGLE -->
<g id="edge5" class="edge">
<title>&#45;40°&#45;&gt;ANGLE</title>
<path fill="none" stroke="green" stroke-width="0.24" d="M209.95,-134.43C226.38,-120.85 260.33,-92.8 286.05,-71.54"/>
<polygon fill="green" stroke="green" stroke-width="0.24" points="288.6,-73.98 294.08,-64.91 284.14,-68.58 288.6,-73.98"/>
</g>
<!-- &#45;15° -->
<g id="node4" class="node">
<title>&#45;15°</title>
<polygon fill="lightgray" stroke="black" points="266.21,-152.48 234.21,-152.48 234.21,-134.48 266.21,-134.48 266.21,-152.48"/>
<text text-anchor="middle" x="250.21" y="-141.28" font-family="Times New Roman,serif" font-size="9.00">&#45;15°</text>
</g>
<!-- &#45;15°&#45;&gt;VELOCITY -->
<g id="edge6" class="edge">
<title>&#45;15°&#45;&gt;VELOCITY</title>
<path fill="none" stroke="green" stroke-width="0.53" stroke-dasharray="1,5" d="M244.16,-134.43C236.2,-123.85 221.62,-104.47 208,-86.38"/>
<polygon fill="green" stroke="green" stroke-width="0.53" points="210.65,-84.07 201.84,-78.19 205.05,-88.28 210.65,-84.07"/>
</g>
<!-- &#45;15°&#45;&gt;ANGLE -->
<g id="edge7" class="edge">
<title>&#45;15°&#45;&gt;ANGLE</title>
<path fill="none" stroke="green" stroke-width="0.33" d="M255.86,-134.43C264.31,-122.39 280.75,-98.96 294.76,-78.98"/>
<polygon fill="green" stroke="green" stroke-width="0.33" points="297.71,-80.88 300.59,-70.68 291.98,-76.85 297.71,-80.88"/>
</g>
<!-- 0° -->
<g id="node5" class="node">
<title>0°</title>
<polygon fill="lightgray" stroke="black" points="309.71,-152.48 284.71,-152.48 284.71,-134.48 309.71,-134.48 309.71,-152.48"/>
<text text-anchor="middle" x="297.21" y="-141.28" font-family="Times New Roman,serif" font-size="9.00">0°</text>
</g>
<!-- 0°&#45;&gt;VELOCITY -->
<g id="edge8" class="edge">
<title>0°&#45;&gt;VELOCITY</title>
<path fill="none" stroke="red" stroke-width="0.12" d="M288.78,-134.46C284.74,-130.68 279.79,-126.17 275.21,-122.27 256.86,-106.63 235.97,-89.99 218.13,-76.1"/>
<polygon fill="red" stroke="red" stroke-width="0.12" points="220.22,-73.28 210.17,-69.92 215.93,-78.81 220.22,-73.28"/>
</g>
<!-- 0°&#45;&gt;ANGLE -->
<g id="edge9" class="edge">
<title>0°&#45;&gt;ANGLE</title>
<path fill="none" stroke="red" stroke-width="0.23" stroke-dasharray="1,5" d="M299.01,-134.43C301.4,-123.75 305.8,-104.1 309.88,-85.86"/>
<polygon fill="red" stroke="red" stroke-width="0.23" points="313.33,-86.46 312.1,-75.93 306.5,-84.93 313.33,-86.46"/>
</g>
<!-- 15° -->
<g id="node6" class="node">
<title>15°</title>
<polygon fill="lightgray" stroke="black" points="356.71,-152.48 327.71,-152.48 327.71,-134.48 356.71,-134.48 356.71,-152.48"/>
<text text-anchor="middle" x="342.21" y="-141.28" font-family="Times New Roman,serif" font-size="9.00">15°</text>
</g>
<!-- 15°&#45;&gt;VELOCITY -->
<g id="edge10" class="edge">
<title>15°&#45;&gt;VELOCITY</title>
<path fill="none" stroke="green" stroke-width="0.45" stroke-dasharray="1,5" d="M333.63,-134.13C329.46,-130.28 324.27,-125.8 319.21,-122.27 288.99,-101.12 252.46,-81.24 223.88,-66.83"/>
<polygon fill="green" stroke="green" stroke-width="0.45" points="225.41,-63.68 214.9,-62.35 222.29,-69.95 225.41,-63.68"/>
</g>
<!-- 15°&#45;&gt;ANGLE -->
<g id="edge11" class="edge">
<title>15°&#45;&gt;ANGLE</title>
<path fill="none" stroke="red" stroke-width="0.38" d="M340.33,-134.43C337.83,-123.75 333.24,-104.1 328.97,-85.86"/>
<polygon fill="red" stroke="red" stroke-width="0.38" points="332.34,-84.87 326.65,-75.93 325.52,-86.47 332.34,-84.87"/>
</g>
<!-- 40° -->
<g id="node7" class="node">
<title>40°</title>
<polygon fill="lightgray" stroke="black" points="165.71,-152.48 136.71,-152.48 136.71,-134.48 165.71,-134.48 165.71,-152.48"/>
<text text-anchor="middle" x="151.21" y="-141.28" font-family="Times New Roman,serif" font-size="9.00">40°</text>
</g>
<!-- 40°&#45;&gt;VELOCITY -->
<g id="edge12" class="edge">
<title>40°&#45;&gt;VELOCITY</title>
<path fill="none" stroke="green" stroke-width="0.23" stroke-dasharray="1,5" d="M153.26,-134.43C155.52,-125.55 159.35,-110.48 163.24,-95.16"/>
<polygon fill="green" stroke="green" stroke-width="0.23" points="166.72,-95.68 165.79,-85.12 159.94,-93.95 166.72,-95.68"/>
</g>
<!-- 40°&#45;&gt;ANGLE -->
<g id="edge13" class="edge">
<title>40°&#45;&gt;ANGLE</title>
<path fill="none" stroke="red" stroke-width="0.41" d="M160.21,-134.15C164.58,-130.31 169.99,-125.83 175.21,-122.27 209.03,-99.2 250.34,-77.38 280.03,-62.69"/>
<polygon fill="red" stroke="red" stroke-width="0.41" points="281.79,-65.72 289.23,-58.17 278.71,-59.43 281.79,-65.72"/>
</g>
<!-- 90° -->
<g id="node8" class="node">
<title>90°</title>
<polygon fill="lightgray" stroke="black" points="60.71,-218.69 31.71,-218.69 31.71,-200.69 60.71,-200.69 60.71,-218.69"/>
<text text-anchor="middle" x="46.21" y="-207.49" font-family="Times New Roman,serif" font-size="9.00">90°</text>
</g>
<!-- 90°&#45;&gt;VELOCITY -->
<g id="edge14" class="edge">
<title>90°&#45;&gt;VELOCITY</title>
<path fill="none" stroke="green" stroke-width="0.13" stroke-dasharray="1,5" d="M49.71,-200.58C56.78,-184.66 73.84,-148.61 94.21,-122.27 106.29,-106.65 121.51,-91.26 135.55,-78.33"/>
<polygon fill="green" stroke="green" stroke-width="0.13" points="138.13,-80.71 143.19,-71.41 133.43,-75.52 138.13,-80.71"/>
</g>
<!-- 249 -->
<g id="node12" class="node">
<title>249</title>
<ellipse fill="white" stroke="black" cx="21.21" cy="-143.48" rx="21.43" ry="21.43"/>
<text text-anchor="middle" x="21.21" y="-141.28" font-family="Times New Roman,serif" font-size="9.00">249</text>
</g>
<!-- 90°&#45;&gt;249 -->
<g id="edge17" class="edge">
<title>90°&#45;&gt;249</title>
<path fill="none" stroke="green" stroke-width="0.3" d="M43.05,-200.56C40.32,-193.55 36.21,-183.01 32.29,-172.94"/>
<polygon fill="green" stroke="green" stroke-width="0.3" points="35.54,-171.62 28.65,-163.57 29.01,-174.16 35.54,-171.62"/>
</g>
<!-- 146&#45;&gt;ANGLE -->
<g id="edge16" class="edge">
<title>146&#45;&gt;ANGLE</title>
<path fill="none" stroke="green" stroke-width="0.11" d="M383.5,-126.24C373.31,-113.23 358.67,-94.53 345.94,-78.26"/>
<polygon fill="green" stroke="green" stroke-width="0.11" points="348.4,-75.74 339.48,-70.02 342.89,-80.05 348.4,-75.74"/>
</g>
<!-- 249&#45;&gt;VELOCITY -->
<g id="edge18" class="edge">
<title>249&#45;&gt;VELOCITY</title>
<path fill="none" stroke="green" stroke-width="0.13" d="M38.69,-131.39C61.05,-117.2 100.59,-92.11 131.55,-72.47"/>
<polygon fill="green" stroke="green" stroke-width="0.13" points="133.47,-75.4 140.04,-67.09 129.72,-69.49 133.47,-75.4"/>
</g>
</g>
</svg>
