<?xml version="1.0" encoding="UTF-8" standalone="no"?>
<!DOCTYPE svg PUBLIC "-//W3C//DTD SVG 1.1//EN"
 "http://www.w3.org/Graphics/SVG/1.1/DTD/svg11.dtd">
<!-- Generated by graphviz version 2.47.0 (20210316.0004)
 -->
<!-- Pages: 1 -->
<svg width="440pt" height="227pt"
 viewBox="0.00 0.00 439.86 226.69" xmlns="http://www.w3.org/2000/svg" xmlns:xlink="http://www.w3.org/1999/xlink">
<g id="graph0" class="graph" transform="scale(1 1) rotate(0) translate(4 222.69)">
<polygon fill="white" stroke="transparent" points="-4,4 -4,-222.69 435.86,-222.69 435.86,4 -4,4"/>
<!-- 180° -->
<g id="node1" class="node">
<title>180°</title>
<polygon fill="lightgray" stroke="black" points="361.5,-218.69 327.5,-218.69 327.5,-200.69 361.5,-200.69 361.5,-218.69"/>
<text text-anchor="middle" x="344.5" y="-207.49" font-family="Times New Roman,serif" font-size="9.00">180°</text>
</g>
<!-- VELOCITY -->
<g id="node9" class="node">
<title>VELOCITY</title>
<ellipse fill="lightblue" stroke="black" cx="148.5" cy="-43.13" rx="43.27" ry="43.27"/>
<text text-anchor="middle" x="148.5" y="-40.93" font-family="Times New Roman,serif" font-size="9.00">VELOCITY</text>
</g>
<!-- 180°&#45;&gt;VELOCITY -->
<g id="edge1" class="edge">
<title>180°&#45;&gt;VELOCITY</title>
<path fill="none" stroke="red" stroke-width="0.27" d="M327.49,-208.63C273.72,-208.04 109.08,-203.06 76.5,-164.69 53.57,-137.69 79.88,-102.49 106.91,-77.1"/>
<polygon fill="red" stroke="red" stroke-width="0.27" points="109.45,-79.52 114.52,-70.22 104.75,-74.33 109.45,-79.52"/>
</g>
<!-- ANGLE -->
<g id="node10" class="node">
<title>ANGLE</title>
<ellipse fill="lightblue" stroke="black" cx="265.5" cy="-43.13" rx="33.47" ry="33.47"/>
<text text-anchor="middle" x="265.5" y="-40.93" font-family="Times New Roman,serif" font-size="9.00">ANGLE</text>
</g>
<!-- 180°&#45;&gt;ANGLE -->
<g id="edge2" class="edge">
<title>180°&#45;&gt;ANGLE</title>
<path fill="none" stroke="green" stroke-width="0.1" stroke-dasharray="1,5" d="M361.56,-204.8C380.73,-199.4 410.95,-187.62 424.5,-164.69 434.1,-148.46 434.47,-138.27 424.5,-122.27 399.2,-81.64 345.92,-61.54 308.01,-52.02"/>
<polygon fill="green" stroke="green" stroke-width="0.1" points="308.79,-48.6 298.25,-49.71 307.18,-55.42 308.79,-48.6"/>
</g>
<!-- 146 -->
<g id="node11" class="node">
<title>146</title>
<ellipse fill="white" stroke="black" cx="344.5" cy="-143.48" rx="21.43" ry="21.43"/>
<text text-anchor="middle" x="344.5" y="-141.28" font-family="Times New Roman,serif" font-size="9.00">146</text>
</g>
<!-- 180°&#45;&gt;146 -->
<g id="edge15" class="edge">
<title>180°&#45;&gt;146</title>
<path fill="none" stroke="green" stroke-width="0.3" d="M344.5,-200.56C344.5,-194.02 344.5,-184.39 344.5,-174.95"/>
<polygon fill="green" stroke="green" stroke-width="0.3" points="348,-174.94 344.5,-164.94 341,-174.94 348,-174.94"/>
</g>
<!-- &#45;90° -->
<g id="node2" class="node">
<title>&#45;90°</title>
<polygon fill="lightgray" stroke="black" points="415.5,-152.48 383.5,-152.48 383.5,-134.48 415.5,-134.48 415.5,-152.48"/>
<text text-anchor="middle" x="399.5" y="-141.28" font-family="Times New Roman,serif" font-size="9.00">&#45;90°</text>
</g>
<!-- &#45;90°&#45;&gt;ANGLE -->
<g id="edge3" class="edge">
<title>&#45;90°&#45;&gt;ANGLE</title>
<path fill="none" stroke="red" stroke-width="0.31" stroke-dasharray="1,5" d="M389.87,-134.48C385.27,-130.71 379.65,-126.19 374.5,-122.27 350.3,-103.83 322.41,-83.86 300.9,-68.73"/>
<polygon fill="red" stroke="red" stroke-width="0.31" points="302.89,-65.85 292.69,-62.97 298.87,-71.58 302.89,-65.85"/>
</g>
<!-- &#45;40° -->
<g id="node3" class="node">
<title>&#45;40°</title>
<polygon fill="lightgray" stroke="black" points="305.5,-152.48 273.5,-152.48 273.5,-134.48 305.5,-134.48 305.5,-152.48"/>
<text text-anchor="middle" x="289.5" y="-141.28" font-family="Times New Roman,serif" font-size="9.00">&#45;40°</text>
</g>
<!-- &#45;40°&#45;&gt;VELOCITY -->
<g id="edge4" class="edge">
<title>&#45;40°&#45;&gt;VELOCITY</title>
<path fill="none" stroke="green" stroke-width="0.42" d="M279.92,-134.41C275.33,-130.63 269.71,-126.11 264.5,-122.27 241.4,-105.2 214.88,-87.22 193.03,-72.82"/>
<polygon fill="green" stroke="green" stroke-width="0.42" points="194.88,-69.84 184.6,-67.28 191.03,-75.69 194.88,-69.84"/>
</g>
<!-- &#45;40°&#45;&gt;ANGLE -->
<g id="edge5" class="edge">
<title>&#45;40°&#45;&gt;ANGLE</title>
<path fill="none" stroke="green" stroke-width="0.24" d="M287.54,-134.43C284.9,-123.62 280.02,-103.63 275.52,-85.21"/>
<polygon fill="green" stroke="green" stroke-width="0.24" points="278.92,-84.37 273.15,-75.49 272.12,-86.03 278.92,-84.37"/>
</g>
<!-- &#45;15° -->
<g id="node4" class="node">
<title>&#45;15°</title>
<polygon fill="lightgray" stroke="black" points="117.5,-152.48 85.5,-152.48 85.5,-134.48 117.5,-134.48 117.5,-152.48"/>
<text text-anchor="middle" x="101.5" y="-141.28" font-family="Times New Roman,serif" font-size="9.00">&#45;15°</text>
</g>
<!-- &#45;15°&#45;&gt;VELOCITY -->
<g id="edge6" class="edge">
<title>&#45;15°&#45;&gt;VELOCITY</title>
<path fill="none" stroke="green" stroke-width="0.65" stroke-dasharray="1,5" d="M105.35,-134.43C109.93,-124.83 117.98,-108 125.89,-91.44"/>
<polygon fill="green" stroke="green" stroke-width="0.65" points="129.09,-92.86 130.25,-82.32 122.78,-89.84 129.09,-92.86"/>
</g>
<!-- &#45;15°&#45;&gt;ANGLE -->
<g id="edge7" class="edge">
<title>&#45;15°&#45;&gt;ANGLE</title>
<path fill="none" stroke="green" stroke-width="0.27" d="M111.28,-134.11C116.01,-130.27 121.88,-125.79 127.5,-122.27 158.16,-103.07 169.05,-104.14 200.5,-86.27 210.26,-80.72 220.56,-74.32 230.02,-68.2"/>
<polygon fill="green" stroke="green" stroke-width="0.27" points="231.98,-71.1 238.42,-62.69 228.14,-65.24 231.98,-71.1"/>
</g>
<!-- 0° -->
<g id="node5" class="node">
<title>0°</title>
<polygon fill="lightgray" stroke="black" points="161,-152.48 136,-152.48 136,-134.48 161,-134.48 161,-152.48"/>
<text text-anchor="middle" x="148.5" y="-141.28" font-family="Times New Roman,serif" font-size="9.00">0°</text>
</g>
<!-- 0°&#45;&gt;VELOCITY -->
<g id="edge8" class="edge">
<title>0°&#45;&gt;VELOCITY</title>
<path fill="none" stroke="green" stroke-width="0.36" d="M148.5,-134.43C148.5,-125.86 148.5,-111.51 148.5,-96.75"/>
<polygon fill="green" stroke="green" stroke-width="0.36" points="152,-96.53 148.5,-86.53 145,-96.53 152,-96.53"/>
</g>
<!-- 0°&#45;&gt;ANGLE -->
<g id="edge9" class="edge">
<title>0°&#45;&gt;ANGLE</title>
<path fill="none" stroke="red" stroke-width="0.21" stroke-dasharray="1,5" d="M157.39,-134.11C161.36,-130.42 166.12,-126.08 170.5,-122.27 190.48,-104.89 213.4,-86.02 231.72,-71.17"/>
<polygon fill="red" stroke="red" stroke-width="0.21" points="234.2,-73.66 239.78,-64.65 229.8,-68.22 234.2,-73.66"/>
</g>
<!-- 15° -->
<g id="node6" class="node">
<title>15°</title>
<polygon fill="lightgray" stroke="black" points="208,-152.48 179,-152.48 179,-134.48 208,-134.48 208,-152.48"/>
<text text-anchor="middle" x="193.5" y="-141.28" font-family="Times New Roman,serif" font-size="9.00">15°</text>
</g>
<!-- 15°&#45;&gt;VELOCITY -->
<g id="edge10" class="edge">
<title>15°&#45;&gt;VELOCITY</title>
<path fill="none" stroke="green" stroke-width="0.32" stroke-dasharray="1,5" d="M189.82,-134.43C185.5,-125 177.99,-108.58 170.54,-92.3"/>
<polygon fill="green" stroke="green" stroke-width="0.32" points="173.53,-90.43 166.19,-82.79 167.17,-93.34 173.53,-90.43"/>
</g>
<!-- 15°&#45;&gt;ANGLE -->
<g id="edge11" class="edge">
<title>15°&#45;&gt;ANGLE</title>
<path fill="none" stroke="red" stroke-width="0.38" d="M199.39,-134.43C208.21,-122.39 225.36,-98.96 239.99,-78.98"/>
<polygon fill="red" stroke="red" stroke-width="0.38" points="242.98,-80.82 246.07,-70.68 237.33,-76.68 242.98,-80.82"/>
</g>
<!-- 40° -->
<g id="node7" class="node">
<title>40°</title>
<polygon fill="lightgray" stroke="black" points="255,-152.48 226,-152.48 226,-134.48 255,-134.48 255,-152.48"/>
<text text-anchor="middle" x="240.5" y="-141.28" font-family="Times New Roman,serif" font-size="9.00">40°</text>
</g>
<!-- 40°&#45;&gt;VELOCITY -->
<g id="edge12" class="edge">
<title>40°&#45;&gt;VELOCITY</title>
<path fill="none" stroke="green" stroke-width="0.23" stroke-dasharray="1,5" d="M232.97,-134.43C222.44,-123.17 202.6,-101.96 184.79,-82.92"/>
<polygon fill="green" stroke="green" stroke-width="0.23" points="187.22,-80.4 177.83,-75.49 182.1,-85.18 187.22,-80.4"/>
</g>
<!-- 40°&#45;&gt;ANGLE -->
<g id="edge13" class="edge">
<title>40°&#45;&gt;ANGLE</title>
<path fill="none" stroke="red" stroke-width="0.32" d="M242.55,-134.43C245.29,-123.62 250.37,-103.63 255.06,-85.21"/>
<polygon fill="red" stroke="red" stroke-width="0.32" points="258.46,-86.04 257.53,-75.49 251.67,-84.31 258.46,-86.04"/>
</g>
<!-- 90° -->
<g id="node8" class="node">
<title>90°</title>
<polygon fill="lightgray" stroke="black" points="29,-152.48 0,-152.48 0,-134.48 29,-134.48 29,-152.48"/>
<text text-anchor="middle" x="14.5" y="-141.28" font-family="Times New Roman,serif" font-size="9.00">90°</text>
</g>
<!-- 90°&#45;&gt;VELOCITY -->
<g id="edge14" class="edge">
<title>90°&#45;&gt;VELOCITY</title>
<path fill="none" stroke="green" stroke-width="0.35" d="M25.47,-134.43C42.87,-121.66 77.75,-96.06 105.94,-75.37"/>
<polygon fill="green" stroke="green" stroke-width="0.35" points="108.07,-78.14 114.07,-69.41 103.93,-72.5 108.07,-78.14"/>
</g>
<!-- 146&#45;&gt;ANGLE -->
<g id="edge16" class="edge">
<title>146&#45;&gt;ANGLE</title>
<path fill="none" stroke="green" stroke-width="0.11" d="M331.45,-126.24C320.83,-113.02 305.49,-93.92 292.28,-77.47"/>
<polygon fill="green" stroke="green" stroke-width="0.11" points="294.98,-75.24 285.99,-69.64 289.52,-79.63 294.98,-75.24"/>
</g>
</g>
</svg>
