<?xml version="1.0" encoding="UTF-8" standalone="no"?>
<!DOCTYPE svg PUBLIC "-//W3C//DTD SVG 1.1//EN"
 "http://www.w3.org/Graphics/SVG/1.1/DTD/svg11.dtd">
<!-- Generated by graphviz version 2.47.0 (20210316.0004)
 -->
<!-- Pages: 1 -->
<svg width="442pt" height="227pt"
 viewBox="0.00 0.00 442.00 226.69" xmlns="http://www.w3.org/2000/svg" xmlns:xlink="http://www.w3.org/1999/xlink">
<g id="graph0" class="graph" transform="scale(1 1) rotate(0) translate(4 222.69)">
<polygon fill="white" stroke="transparent" points="-4,4 -4,-222.69 438,-222.69 438,4 -4,4"/>
<!-- 180° -->
<g id="node1" class="node">
<title>180°</title>
<polygon fill="lightgray" stroke="black" points="134.5,-218.69 100.5,-218.69 100.5,-200.69 134.5,-200.69 134.5,-218.69"/>
<text text-anchor="middle" x="117.5" y="-207.49" font-family="Times New Roman,serif" font-size="9.00">180°</text>
</g>
<!-- VELOCITY -->
<g id="node9" class="node">
<title>VELOCITY</title>
<ellipse fill="lightblue" stroke="black" cx="161.5" cy="-43.13" rx="43.27" ry="43.27"/>
<text text-anchor="middle" x="161.5" y="-40.93" font-family="Times New Roman,serif" font-size="9.00">VELOCITY</text>
</g>
<!-- 180°&#45;&gt;VELOCITY -->
<g id="edge1" class="edge">
<title>180°&#45;&gt;VELOCITY</title>
<path fill="none" stroke="green" stroke-width="0.29" stroke-dasharray="1,5" d="M119.03,-200.53C121.98,-185.12 128.83,-150.75 136.5,-122.27 138.97,-113.08 141.86,-103.37 144.77,-94.03"/>
<polygon fill="green" stroke="green" stroke-width="0.29" points="148.12,-95.06 147.8,-84.47 141.44,-92.95 148.12,-95.06"/>
</g>
<!-- ANGLE -->
<g id="node10" class="node">
<title>ANGLE</title>
<ellipse fill="lightblue" stroke="black" cx="300.5" cy="-43.13" rx="33.47" ry="33.47"/>
<text text-anchor="middle" x="300.5" y="-40.93" font-family="Times New Roman,serif" font-size="9.00">ANGLE</text>
</g>
<!-- 180°&#45;&gt;ANGLE -->
<g id="edge2" class="edge">
<title>180°&#45;&gt;ANGLE</title>
<path fill="none" stroke="green" stroke-width="0.41" stroke-dasharray="1,5" d="M134.85,-209.02C194.04,-209.75 386.41,-208.63 424.5,-164.69 458.89,-125.03 388.46,-83.31 340.35,-60.84"/>
<polygon fill="green" stroke="green" stroke-width="0.41" points="341.62,-57.57 331.07,-56.61 338.72,-63.94 341.62,-57.57"/>
</g>
<!-- 344 -->
<g id="node11" class="node">
<title>344</title>
<ellipse fill="white" stroke="black" cx="68.5" cy="-143.48" rx="21.43" ry="21.43"/>
<text text-anchor="middle" x="68.5" y="-141.28" font-family="Times New Roman,serif" font-size="9.00">344</text>
</g>
<!-- 180°&#45;&gt;344 -->
<g id="edge14" class="edge">
<title>180°&#45;&gt;344</title>
<path fill="none" stroke="red" stroke-width="0.39" d="M111.29,-200.56C105.26,-192.65 95.79,-180.24 87.29,-169.1"/>
<polygon fill="red" stroke="red" stroke-width="0.39" points="89.9,-166.75 81.05,-160.93 84.33,-171 89.9,-166.75"/>
</g>
<!-- &#45;90° -->
<g id="node2" class="node">
<title>&#45;90°</title>
<polygon fill="lightgray" stroke="black" points="365.5,-152.48 333.5,-152.48 333.5,-134.48 365.5,-134.48 365.5,-152.48"/>
<text text-anchor="middle" x="349.5" y="-141.28" font-family="Times New Roman,serif" font-size="9.00">&#45;90°</text>
</g>
<!-- &#45;90°&#45;&gt;ANGLE -->
<g id="edge3" class="edge">
<title>&#45;90°&#45;&gt;ANGLE</title>
<path fill="none" stroke="red" stroke-width="0.15" stroke-dasharray="1,5" d="M345.49,-134.43C339.83,-123.08 329.13,-101.6 319.59,-82.44"/>
<polygon fill="red" stroke="red" stroke-width="0.15" points="322.61,-80.66 315.02,-73.27 316.35,-83.79 322.61,-80.66"/>
</g>
<!-- &#45;40° -->
<g id="node3" class="node">
<title>&#45;40°</title>
<polygon fill="lightgray" stroke="black" points="177.5,-152.48 145.5,-152.48 145.5,-134.48 177.5,-134.48 177.5,-152.48"/>
<text text-anchor="middle" x="161.5" y="-141.28" font-family="Times New Roman,serif" font-size="9.00">&#45;40°</text>
</g>
<!-- &#45;40°&#45;&gt;VELOCITY -->
<g id="edge4" class="edge">
<title>&#45;40°&#45;&gt;VELOCITY</title>
<path fill="none" stroke="red" stroke-width="0.12" d="M161.5,-134.43C161.5,-125.86 161.5,-111.51 161.5,-96.75"/>
<polygon fill="red" stroke="red" stroke-width="0.12" points="165,-96.53 161.5,-86.53 158,-96.53 165,-96.53"/>
</g>
<!-- &#45;40°&#45;&gt;ANGLE -->
<g id="edge5" class="edge">
<title>&#45;40°&#45;&gt;ANGLE</title>
<path fill="none" stroke="green" stroke-width="0.46" d="M171.52,-134.48C176.31,-130.71 182.15,-126.19 187.5,-122.27 212.97,-103.59 242.32,-83.32 264.73,-68.12"/>
<polygon fill="green" stroke="green" stroke-width="0.46" points="266.94,-70.85 273.26,-62.34 263.02,-65.05 266.94,-70.85"/>
</g>
<!-- &#45;15° -->
<g id="node4" class="node">
<title>&#45;15°</title>
<polygon fill="lightgray" stroke="black" points="415.5,-152.48 383.5,-152.48 383.5,-134.48 415.5,-134.48 415.5,-152.48"/>
<text text-anchor="middle" x="399.5" y="-141.28" font-family="Times New Roman,serif" font-size="9.00">&#45;15°</text>
</g>
<!-- &#45;15°&#45;&gt;ANGLE -->
<g id="edge6" class="edge">
<title>&#45;15°&#45;&gt;ANGLE</title>
<path fill="none" stroke="green" stroke-width="0.2" d="M391.4,-134.43C378.34,-121.46 352,-95.29 331.02,-74.45"/>
<polygon fill="green" stroke="green" stroke-width="0.2" points="333.41,-71.89 323.85,-67.33 328.48,-76.86 333.41,-71.89"/>
</g>
<!-- 0° -->
<g id="node5" class="node">
<title>0°</title>
<polygon fill="lightgray" stroke="black" points="221,-152.48 196,-152.48 196,-134.48 221,-134.48 221,-152.48"/>
<text text-anchor="middle" x="208.5" y="-141.28" font-family="Times New Roman,serif" font-size="9.00">0°</text>
</g>
<!-- 0°&#45;&gt;VELOCITY -->
<g id="edge7" class="edge">
<title>0°&#45;&gt;VELOCITY</title>
<path fill="none" stroke="green" stroke-width="0.3" d="M204.65,-134.43C200.07,-124.83 192.02,-108 184.11,-91.44"/>
<polygon fill="green" stroke="green" stroke-width="0.3" points="187.22,-89.84 179.75,-82.32 180.91,-92.86 187.22,-89.84"/>
</g>
<!-- 0°&#45;&gt;ANGLE -->
<g id="edge8" class="edge">
<title>0°&#45;&gt;ANGLE</title>
<path fill="none" stroke="green" stroke-width="0.24" stroke-dasharray="1,5" d="M216.03,-134.43C227.95,-121.68 251.82,-96.18 271.15,-75.51"/>
<polygon fill="green" stroke="green" stroke-width="0.24" points="273.76,-77.85 278.03,-68.15 268.64,-73.06 273.76,-77.85"/>
</g>
<!-- 15° -->
<g id="node6" class="node">
<title>15°</title>
<polygon fill="lightgray" stroke="black" points="268,-152.48 239,-152.48 239,-134.48 268,-134.48 268,-152.48"/>
<text text-anchor="middle" x="253.5" y="-141.28" font-family="Times New Roman,serif" font-size="9.00">15°</text>
</g>
<!-- 15°&#45;&gt;VELOCITY -->
<g id="edge9" class="edge">
<title>15°&#45;&gt;VELOCITY</title>
<path fill="none" stroke="red" stroke-width="0.37" stroke-dasharray="1,5" d="M245.97,-134.43C235.44,-123.17 215.6,-101.96 197.79,-82.92"/>
<polygon fill="red" stroke="red" stroke-width="0.37" points="200.22,-80.4 190.83,-75.49 195.1,-85.18 200.22,-80.4"/>
</g>
<!-- 15°&#45;&gt;ANGLE -->
<g id="edge10" class="edge">
<title>15°&#45;&gt;ANGLE</title>
<path fill="none" stroke="red" stroke-width="0.36" d="M257.35,-134.43C262.73,-123.16 272.89,-101.9 282,-82.84"/>
<polygon fill="red" stroke="red" stroke-width="0.36" points="285.21,-84.25 286.36,-73.71 278.89,-81.23 285.21,-84.25"/>
</g>
<!-- 40° -->
<g id="node7" class="node">
<title>40°</title>
<polygon fill="lightgray" stroke="black" points="315,-152.48 286,-152.48 286,-134.48 315,-134.48 315,-152.48"/>
<text text-anchor="middle" x="300.5" y="-141.28" font-family="Times New Roman,serif" font-size="9.00">40°</text>
</g>
<!-- 40°&#45;&gt;VELOCITY -->
<g id="edge11" class="edge">
<title>40°&#45;&gt;VELOCITY</title>
<path fill="none" stroke="green" stroke-width="0.18" stroke-dasharray="1,5" d="M291.77,-134.34C287.56,-130.54 282.38,-126.03 277.5,-122.27 254.67,-104.66 228.06,-86.58 206.09,-72.25"/>
<polygon fill="green" stroke="green" stroke-width="0.18" points="207.9,-69.25 197.61,-66.75 204.1,-75.13 207.9,-69.25"/>
</g>
<!-- 40°&#45;&gt;ANGLE -->
<g id="edge12" class="edge">
<title>40°&#45;&gt;ANGLE</title>
<path fill="none" stroke="red" stroke-width="0.36" d="M300.5,-134.43C300.5,-123.88 300.5,-104.57 300.5,-86.51"/>
<polygon fill="red" stroke="red" stroke-width="0.36" points="304,-86.38 300.5,-76.38 297,-86.38 304,-86.38"/>
</g>
<!-- 90° -->
<g id="node8" class="node">
<title>90°</title>
<polygon fill="lightgray" stroke="black" points="29,-152.48 0,-152.48 0,-134.48 29,-134.48 29,-152.48"/>
<text text-anchor="middle" x="14.5" y="-141.28" font-family="Times New Roman,serif" font-size="9.00">90°</text>
</g>
<!-- 90°&#45;&gt;VELOCITY -->
<g id="edge13" class="edge">
<title>90°&#45;&gt;VELOCITY</title>
<path fill="none" stroke="green" stroke-width="0.25" stroke-dasharray="1,5" d="M23.61,-134.31C28,-130.51 33.4,-126 38.5,-122.27 63.28,-104.09 92.24,-85.57 115.83,-71.12"/>
<polygon fill="green" stroke="green" stroke-width="0.25" points="117.87,-73.98 124.59,-65.8 114.23,-68 117.87,-73.98"/>
</g>
<!-- 344&#45;&gt;VELOCITY -->
<g id="edge15" class="edge">
<title>344&#45;&gt;VELOCITY</title>
<path fill="none" stroke="green" stroke-width="0.28" d="M82.62,-127.54C93.89,-115.63 110.19,-98.39 125.05,-82.68"/>
<polygon fill="green" stroke="green" stroke-width="0.28" points="127.88,-84.78 132.2,-75.11 122.79,-79.97 127.88,-84.78"/>
</g>
</g>
</svg>
