<?xml version="1.0" encoding="UTF-8" standalone="no"?>
<!DOCTYPE svg PUBLIC "-//W3C//DTD SVG 1.1//EN"
 "http://www.w3.org/Graphics/SVG/1.1/DTD/svg11.dtd">
<!-- Generated by graphviz version 2.47.0 (20210316.0004)
 -->
<!-- Pages: 1 -->
<svg width="378pt" height="148pt"
 viewBox="0.00 0.00 377.50 148.27" xmlns="http://www.w3.org/2000/svg" xmlns:xlink="http://www.w3.org/1999/xlink">
<g id="graph0" class="graph" transform="scale(1 1) rotate(0) translate(4 144.27)">
<polygon fill="white" stroke="transparent" points="-4,4 -4,-144.27 373.5,-144.27 373.5,4 -4,4"/>
<!-- 180° -->
<g id="node1" class="node">
<title>180°</title>
<polygon fill="lightgray" stroke="black" points="171.5,-140.27 137.5,-140.27 137.5,-122.27 171.5,-122.27 171.5,-140.27"/>
<text text-anchor="middle" x="154.5" y="-129.07" font-family="Times New Roman,serif" font-size="9.00">180°</text>
</g>
<!-- VELOCITY -->
<g id="node9" class="node">
<title>VELOCITY</title>
<ellipse fill="lightblue" stroke="black" cx="198.5" cy="-43.13" rx="43.27" ry="43.27"/>
<text text-anchor="middle" x="198.5" y="-40.93" font-family="Times New Roman,serif" font-size="9.00">VELOCITY</text>
</g>
<!-- 180°&#45;&gt;VELOCITY -->
<g id="edge1" class="edge">
<title>180°&#45;&gt;VELOCITY</title>
<path fill="none" stroke="green" stroke-width="0.29" d="M158.72,-122.01C162.52,-114.56 168.45,-102.96 174.57,-90.97"/>
<polygon fill="green" stroke="green" stroke-width="0.29" points="177.83,-92.28 179.27,-81.79 171.6,-89.1 177.83,-92.28"/>
</g>
<!-- ANGLE -->
<g id="node10" class="node">
<title>ANGLE</title>
<ellipse fill="lightblue" stroke="black" cx="104.5" cy="-43.13" rx="33.47" ry="33.47"/>
<text text-anchor="middle" x="104.5" y="-40.93" font-family="Times New Roman,serif" font-size="9.00">ANGLE</text>
</g>
<!-- 180°&#45;&gt;ANGLE -->
<g id="edge2" class="edge">
<title>180°&#45;&gt;ANGLE</title>
<path fill="none" stroke="green" stroke-width="0.34" stroke-dasharray="1,5" d="M149.71,-122.01C144.19,-112.5 134.75,-96.25 125.92,-81.04"/>
<polygon fill="green" stroke="green" stroke-width="0.34" points="128.87,-79.15 120.83,-72.26 122.82,-82.67 128.87,-79.15"/>
</g>
<!-- &#45;90° -->
<g id="node2" class="node">
<title>&#45;90°</title>
<polygon fill="lightgray" stroke="black" points="369.5,-140.27 337.5,-140.27 337.5,-122.27 369.5,-122.27 369.5,-140.27"/>
<text text-anchor="middle" x="353.5" y="-129.07" font-family="Times New Roman,serif" font-size="9.00">&#45;90°</text>
</g>
<!-- &#45;40° -->
<g id="node3" class="node">
<title>&#45;40°</title>
<polygon fill="lightgray" stroke="black" points="221.5,-140.27 189.5,-140.27 189.5,-122.27 221.5,-122.27 221.5,-140.27"/>
<text text-anchor="middle" x="205.5" y="-129.07" font-family="Times New Roman,serif" font-size="9.00">&#45;40°</text>
</g>
<!-- &#45;40°&#45;&gt;VELOCITY -->
<g id="edge3" class="edge">
<title>&#45;40°&#45;&gt;VELOCITY</title>
<path fill="none" stroke="red" stroke-width="0.1" d="M204.83,-122.01C204.32,-115.69 203.56,-106.39 202.75,-96.4"/>
<polygon fill="red" stroke="red" stroke-width="0.1" points="206.22,-95.95 201.92,-86.26 199.25,-96.51 206.22,-95.95"/>
</g>
<!-- &#45;40°&#45;&gt;ANGLE -->
<g id="edge4" class="edge">
<title>&#45;40°&#45;&gt;ANGLE</title>
<path fill="none" stroke="green" stroke-width="0.48" d="M193.35,-121.99C181.14,-113.49 161.95,-99.65 146.5,-86.27 142.5,-82.81 138.43,-79.04 134.46,-75.24"/>
<polygon fill="green" stroke="green" stroke-width="0.48" points="136.61,-72.45 127.02,-67.94 131.71,-77.44 136.61,-72.45"/>
</g>
<!-- &#45;15° -->
<g id="node4" class="node">
<title>&#45;15°</title>
<polygon fill="lightgray" stroke="black" points="271.5,-140.27 239.5,-140.27 239.5,-122.27 271.5,-122.27 271.5,-140.27"/>
<text text-anchor="middle" x="255.5" y="-129.07" font-family="Times New Roman,serif" font-size="9.00">&#45;15°</text>
</g>
<!-- &#45;15°&#45;&gt;VELOCITY -->
<g id="edge5" class="edge">
<title>&#45;15°&#45;&gt;VELOCITY</title>
<path fill="none" stroke="red" stroke-width="0.17" stroke-dasharray="1,5" d="M250.03,-122.01C244.73,-113.99 236.25,-101.18 227.69,-88.24"/>
<polygon fill="red" stroke="red" stroke-width="0.17" points="230.52,-86.17 222.08,-79.77 224.68,-90.04 230.52,-86.17"/>
</g>
<!-- &#45;15°&#45;&gt;ANGLE -->
<g id="edge6" class="edge">
<title>&#45;15°&#45;&gt;ANGLE</title>
<path fill="none" stroke="green" stroke-width="0.29" d="M239.48,-124.7C213.23,-115.43 162.4,-96.81 146.5,-86.27 142.09,-83.35 137.77,-79.91 133.67,-76.28"/>
<polygon fill="green" stroke="green" stroke-width="0.29" points="135.78,-73.46 126.11,-69.14 130.98,-78.55 135.78,-73.46"/>
</g>
<!-- 0° -->
<g id="node5" class="node">
<title>0°</title>
<polygon fill="lightgray" stroke="black" points="25,-140.27 0,-140.27 0,-122.27 25,-122.27 25,-140.27"/>
<text text-anchor="middle" x="12.5" y="-129.07" font-family="Times New Roman,serif" font-size="9.00">0°</text>
</g>
<!-- 0°&#45;&gt;VELOCITY -->
<g id="edge7" class="edge">
<title>0°&#45;&gt;VELOCITY</title>
<path fill="none" stroke="green" stroke-width="0.32" stroke-dasharray="1,5" d="M25.34,-125.25C28.03,-124.23 30.85,-123.19 33.5,-122.27 83.26,-104.88 100.11,-111.29 146.5,-86.27 150.52,-84.1 154.53,-81.6 158.44,-78.93"/>
<polygon fill="green" stroke="green" stroke-width="0.32" points="160.77,-81.57 166.81,-72.86 156.66,-75.9 160.77,-81.57"/>
</g>
<!-- 0°&#45;&gt;ANGLE -->
<g id="edge8" class="edge">
<title>0°&#45;&gt;ANGLE</title>
<path fill="none" stroke="red" stroke-width="0.3" stroke-dasharray="1,5" d="M21.32,-122.01C33.13,-110.96 54.69,-90.77 72.9,-73.71"/>
<polygon fill="red" stroke="red" stroke-width="0.3" points="75.56,-76.02 80.47,-66.63 70.77,-70.91 75.56,-76.02"/>
</g>
<!-- 15° -->
<g id="node6" class="node">
<title>15°</title>
<polygon fill="lightgray" stroke="black" points="72,-140.27 43,-140.27 43,-122.27 72,-122.27 72,-140.27"/>
<text text-anchor="middle" x="57.5" y="-129.07" font-family="Times New Roman,serif" font-size="9.00">15°</text>
</g>
<!-- 15°&#45;&gt;VELOCITY -->
<g id="edge9" class="edge">
<title>15°&#45;&gt;VELOCITY</title>
<path fill="none" stroke="green" stroke-width="0.5" stroke-dasharray="1,5" d="M72.21,-124.2C90.31,-116.46 121.69,-102.17 146.5,-86.27 150.35,-83.8 154.24,-81.1 158.07,-78.29"/>
<polygon fill="green" stroke="green" stroke-width="0.5" points="160.47,-80.86 166.32,-72.03 156.24,-75.29 160.47,-80.86"/>
</g>
<!-- 15°&#45;&gt;ANGLE -->
<g id="edge10" class="edge">
<title>15°&#45;&gt;ANGLE</title>
<path fill="none" stroke="red" stroke-width="0.38" d="M62.01,-122.01C67.11,-112.66 75.77,-96.79 83.95,-81.8"/>
<polygon fill="red" stroke="red" stroke-width="0.38" points="87.22,-83.1 88.94,-72.65 81.08,-79.75 87.22,-83.1"/>
</g>
<!-- 40° -->
<g id="node7" class="node">
<title>40°</title>
<polygon fill="lightgray" stroke="black" points="119,-140.27 90,-140.27 90,-122.27 119,-122.27 119,-140.27"/>
<text text-anchor="middle" x="104.5" y="-129.07" font-family="Times New Roman,serif" font-size="9.00">40°</text>
</g>
<!-- 40°&#45;&gt;VELOCITY -->
<g id="edge11" class="edge">
<title>40°&#45;&gt;VELOCITY</title>
<path fill="none" stroke="red" stroke-width="0.1" stroke-dasharray="1,5" d="M113.51,-122.01C124.11,-112.3 142.41,-95.53 159.32,-80.03"/>
<polygon fill="red" stroke="red" stroke-width="0.1" points="161.95,-82.37 166.96,-73.03 157.22,-77.21 161.95,-82.37"/>
</g>
<!-- 40°&#45;&gt;ANGLE -->
<g id="edge12" class="edge">
<title>40°&#45;&gt;ANGLE</title>
<path fill="none" stroke="red" stroke-width="0.45" d="M104.5,-122.01C104.5,-113.69 104.5,-100.19 104.5,-86.75"/>
<polygon fill="red" stroke="red" stroke-width="0.45" points="108,-86.57 104.5,-76.57 101,-86.57 108,-86.57"/>
</g>
<!-- 90° -->
<g id="node8" class="node">
<title>90°</title>
<polygon fill="lightgray" stroke="black" points="319,-140.27 290,-140.27 290,-122.27 319,-122.27 319,-140.27"/>
<text text-anchor="middle" x="304.5" y="-129.07" font-family="Times New Roman,serif" font-size="9.00">90°</text>
</g>
<!-- 90°&#45;&gt;VELOCITY -->
<g id="edge13" class="edge">
<title>90°&#45;&gt;VELOCITY</title>
<path fill="none" stroke="red" stroke-width="0.37" stroke-dasharray="1,5" d="M294.34,-122.01C281.71,-111.75 259.4,-93.62 239.48,-77.43"/>
<polygon fill="red" stroke="red" stroke-width="0.37" points="241.67,-74.7 231.7,-71.11 237.25,-80.13 241.67,-74.7"/>
</g>
</g>
</svg>
