<?xml version="1.0" encoding="UTF-8" standalone="no"?>
<!DOCTYPE svg PUBLIC "-//W3C//DTD SVG 1.1//EN"
 "http://www.w3.org/Graphics/SVG/1.1/DTD/svg11.dtd">
<!-- Generated by graphviz version 2.47.0 (20210316.0004)
 -->
<!-- Pages: 1 -->
<svg width="378pt" height="148pt"
 viewBox="0.00 0.00 377.50 148.27" xmlns="http://www.w3.org/2000/svg" xmlns:xlink="http://www.w3.org/1999/xlink">
<g id="graph0" class="graph" transform="scale(1 1) rotate(0) translate(4 144.27)">
<polygon fill="white" stroke="transparent" points="-4,4 -4,-144.27 373.5,-144.27 373.5,4 -4,4"/>
<!-- 180° -->
<g id="node1" class="node">
<title>180°</title>
<polygon fill="lightgray" stroke="black" points="124.5,-140.27 90.5,-140.27 90.5,-122.27 124.5,-122.27 124.5,-140.27"/>
<text text-anchor="middle" x="107.5" y="-129.07" font-family="Times New Roman,serif" font-size="9.00">180°</text>
</g>
<!-- VELOCITY -->
<g id="node9" class="node">
<title>VELOCITY</title>
<ellipse fill="lightblue" stroke="black" cx="158.5" cy="-43.13" rx="43.27" ry="43.27"/>
<text text-anchor="middle" x="158.5" y="-40.93" font-family="Times New Roman,serif" font-size="9.00">VELOCITY</text>
</g>
<!-- 180°&#45;&gt;VELOCITY -->
<g id="edge1" class="edge">
<title>180°&#45;&gt;VELOCITY</title>
<path fill="none" stroke="green" stroke-width="0.31" d="M112.39,-122.01C117.01,-114.21 124.32,-101.86 131.77,-89.27"/>
<polygon fill="green" stroke="green" stroke-width="0.31" points="134.84,-90.96 136.92,-80.57 128.82,-87.39 134.84,-90.96"/>
</g>
<!-- ANGLE -->
<g id="node10" class="node">
<title>ANGLE</title>
<ellipse fill="lightblue" stroke="black" cx="254.5" cy="-43.13" rx="33.47" ry="33.47"/>
<text text-anchor="middle" x="254.5" y="-40.93" font-family="Times New Roman,serif" font-size="9.00">ANGLE</text>
</g>
<!-- 180°&#45;&gt;ANGLE -->
<g id="edge2" class="edge">
<title>180°&#45;&gt;ANGLE</title>
<path fill="none" stroke="green" stroke-width="0.11" stroke-dasharray="1,5" d="M124.85,-125C146.12,-118.07 182.75,-104.59 210.5,-86.27 215.48,-82.98 220.39,-79.1 225.04,-75.04"/>
<polygon fill="green" stroke="green" stroke-width="0.11" points="227.57,-77.47 232.56,-68.13 222.83,-72.32 227.57,-77.47"/>
</g>
<!-- &#45;90° -->
<g id="node2" class="node">
<title>&#45;90°</title>
<polygon fill="lightgray" stroke="black" points="369.5,-140.27 337.5,-140.27 337.5,-122.27 369.5,-122.27 369.5,-140.27"/>
<text text-anchor="middle" x="353.5" y="-129.07" font-family="Times New Roman,serif" font-size="9.00">&#45;90°</text>
</g>
<!-- &#45;90°&#45;&gt;ANGLE -->
<g id="edge3" class="edge">
<title>&#45;90°&#45;&gt;ANGLE</title>
<path fill="none" stroke="green" stroke-width="0.25" stroke-dasharray="1,5" d="M344.01,-122.01C330.93,-110.63 306.74,-89.58 286.8,-72.23"/>
<polygon fill="green" stroke="green" stroke-width="0.25" points="288.96,-69.47 279.12,-65.55 284.36,-74.76 288.96,-69.47"/>
</g>
<!-- &#45;40° -->
<g id="node3" class="node">
<title>&#45;40°</title>
<polygon fill="lightgray" stroke="black" points="174.5,-140.27 142.5,-140.27 142.5,-122.27 174.5,-122.27 174.5,-140.27"/>
<text text-anchor="middle" x="158.5" y="-129.07" font-family="Times New Roman,serif" font-size="9.00">&#45;40°</text>
</g>
<!-- &#45;40°&#45;&gt;VELOCITY -->
<g id="edge4" class="edge">
<title>&#45;40°&#45;&gt;VELOCITY</title>
<path fill="none" stroke="red" stroke-width="0.1" d="M158.5,-122.01C158.5,-115.76 158.5,-106.58 158.5,-96.7"/>
<polygon fill="red" stroke="red" stroke-width="0.1" points="162,-96.67 158.5,-86.67 155,-96.67 162,-96.67"/>
</g>
<!-- &#45;40°&#45;&gt;ANGLE -->
<g id="edge5" class="edge">
<title>&#45;40°&#45;&gt;ANGLE</title>
<path fill="none" stroke="green" stroke-width="0.49" d="M168.63,-122.01C179.22,-113.3 196.26,-99.09 210.5,-86.27 214.83,-82.37 219.33,-78.2 223.74,-74.05"/>
<polygon fill="green" stroke="green" stroke-width="0.49" points="226.16,-76.57 231,-67.15 221.34,-71.5 226.16,-76.57"/>
</g>
<!-- &#45;15° -->
<g id="node4" class="node">
<title>&#45;15°</title>
<polygon fill="lightgray" stroke="black" points="224.5,-140.27 192.5,-140.27 192.5,-122.27 224.5,-122.27 224.5,-140.27"/>
<text text-anchor="middle" x="208.5" y="-129.07" font-family="Times New Roman,serif" font-size="9.00">&#45;15°</text>
</g>
<!-- &#45;15°&#45;&gt;VELOCITY -->
<g id="edge6" class="edge">
<title>&#45;15°&#45;&gt;VELOCITY</title>
<path fill="none" stroke="red" stroke-width="0.24" stroke-dasharray="1,5" d="M203.71,-122.01C199.26,-114.35 192.27,-102.31 185.1,-89.96"/>
<polygon fill="red" stroke="red" stroke-width="0.24" points="187.93,-87.87 179.89,-80.98 181.88,-91.38 187.93,-87.87"/>
</g>
<!-- &#45;15°&#45;&gt;ANGLE -->
<g id="edge7" class="edge">
<title>&#45;15°&#45;&gt;ANGLE</title>
<path fill="none" stroke="green" stroke-width="0.29" d="M212.91,-122.01C217.86,-112.73 226.25,-97.02 234.21,-82.13"/>
<polygon fill="green" stroke="green" stroke-width="0.29" points="237.44,-83.5 239.07,-73.03 231.27,-80.21 237.44,-83.5"/>
</g>
<!-- 0° -->
<g id="node5" class="node">
<title>0°</title>
<polygon fill="lightgray" stroke="black" points="25,-140.27 0,-140.27 0,-122.27 25,-122.27 25,-140.27"/>
<text text-anchor="middle" x="12.5" y="-129.07" font-family="Times New Roman,serif" font-size="9.00">0°</text>
</g>
<!-- 0°&#45;&gt;VELOCITY -->
<g id="edge8" class="edge">
<title>0°&#45;&gt;VELOCITY</title>
<path fill="none" stroke="green" stroke-width="0.32" stroke-dasharray="1,5" d="M25.2,-122.77C44.59,-111.34 82.51,-88.96 112.97,-70.99"/>
<polygon fill="green" stroke="green" stroke-width="0.32" points="114.91,-73.91 121.75,-65.82 111.36,-67.88 114.91,-73.91"/>
</g>
<!-- 15° -->
<g id="node6" class="node">
<title>15°</title>
<polygon fill="lightgray" stroke="black" points="272,-140.27 243,-140.27 243,-122.27 272,-122.27 272,-140.27"/>
<text text-anchor="middle" x="257.5" y="-129.07" font-family="Times New Roman,serif" font-size="9.00">15°</text>
</g>
<!-- 15°&#45;&gt;VELOCITY -->
<g id="edge9" class="edge">
<title>15°&#45;&gt;VELOCITY</title>
<path fill="none" stroke="red" stroke-width="0.35" stroke-dasharray="1,5" d="M248.01,-122.01C236.57,-112.06 216.63,-94.71 198.47,-78.91"/>
<polygon fill="red" stroke="red" stroke-width="0.35" points="200.67,-76.18 190.83,-72.26 196.08,-81.46 200.67,-76.18"/>
</g>
<!-- 15°&#45;&gt;ANGLE -->
<g id="edge10" class="edge">
<title>15°&#45;&gt;ANGLE</title>
<path fill="none" stroke="red" stroke-width="0.37" d="M257.21,-122.01C256.92,-113.69 256.45,-100.19 255.98,-86.75"/>
<polygon fill="red" stroke="red" stroke-width="0.37" points="259.48,-86.44 255.63,-76.57 252.48,-86.68 259.48,-86.44"/>
</g>
<!-- 40° -->
<g id="node7" class="node">
<title>40°</title>
<polygon fill="lightgray" stroke="black" points="319,-140.27 290,-140.27 290,-122.27 319,-122.27 319,-140.27"/>
<text text-anchor="middle" x="304.5" y="-129.07" font-family="Times New Roman,serif" font-size="9.00">40°</text>
</g>
<!-- 40°&#45;&gt;VELOCITY -->
<g id="edge11" class="edge">
<title>40°&#45;&gt;VELOCITY</title>
<path fill="none" stroke="green" stroke-width="0.19" stroke-dasharray="1,5" d="M289.97,-124.48C271.4,-116.82 238.54,-102.39 212.5,-86.27 208.19,-83.6 203.81,-80.65 199.52,-77.58"/>
<polygon fill="green" stroke="green" stroke-width="0.19" points="201.52,-74.71 191.39,-71.6 197.37,-80.35 201.52,-74.71"/>
</g>
<!-- 40°&#45;&gt;ANGLE -->
<g id="edge12" class="edge">
<title>40°&#45;&gt;ANGLE</title>
<path fill="none" stroke="red" stroke-width="0.32" d="M299.71,-122.01C294.19,-112.5 284.75,-96.25 275.92,-81.04"/>
<polygon fill="red" stroke="red" stroke-width="0.32" points="278.87,-79.15 270.83,-72.26 272.82,-82.67 278.87,-79.15"/>
</g>
<!-- 90° -->
<g id="node8" class="node">
<title>90°</title>
<polygon fill="lightgray" stroke="black" points="72,-140.27 43,-140.27 43,-122.27 72,-122.27 72,-140.27"/>
<text text-anchor="middle" x="57.5" y="-129.07" font-family="Times New Roman,serif" font-size="9.00">90°</text>
</g>
<!-- 90°&#45;&gt;VELOCITY -->
<g id="edge13" class="edge">
<title>90°&#45;&gt;VELOCITY</title>
<path fill="none" stroke="red" stroke-width="0.2" stroke-dasharray="1,5" d="M67.18,-122.01C78.94,-111.99 99.49,-94.46 118.13,-78.56"/>
<polygon fill="red" stroke="red" stroke-width="0.2" points="120.63,-81.03 125.97,-71.88 116.09,-75.7 120.63,-81.03"/>
</g>
</g>
</svg>
