<?xml version="1.0" encoding="UTF-8" standalone="no"?>
<!DOCTYPE svg PUBLIC "-//W3C//DTD SVG 1.1//EN"
 "http://www.w3.org/Graphics/SVG/1.1/DTD/svg11.dtd">
<!-- Generated by graphviz version 2.47.0 (20210316.0004)
 -->
<!-- Pages: 1 -->
<svg width="378pt" height="148pt"
 viewBox="0.00 0.00 377.50 148.27" xmlns="http://www.w3.org/2000/svg" xmlns:xlink="http://www.w3.org/1999/xlink">
<g id="graph0" class="graph" transform="scale(1 1) rotate(0) translate(4 144.27)">
<polygon fill="white" stroke="transparent" points="-4,4 -4,-144.27 373.5,-144.27 373.5,4 -4,4"/>
<!-- 180° -->
<g id="node1" class="node">
<title>180°</title>
<polygon fill="lightgray" stroke="black" points="81.5,-140.27 47.5,-140.27 47.5,-122.27 81.5,-122.27 81.5,-140.27"/>
<text text-anchor="middle" x="64.5" y="-129.07" font-family="Times New Roman,serif" font-size="9.00">180°</text>
</g>
<!-- VELOCITY -->
<g id="node9" class="node">
<title>VELOCITY</title>
<ellipse fill="lightblue" stroke="black" cx="140.5" cy="-43.13" rx="43.27" ry="43.27"/>
<text text-anchor="middle" x="140.5" y="-40.93" font-family="Times New Roman,serif" font-size="9.00">VELOCITY</text>
</g>
<!-- 180°&#45;&gt;VELOCITY -->
<g id="edge1" class="edge">
<title>180°&#45;&gt;VELOCITY</title>
<path fill="none" stroke="green" stroke-width="0.17" d="M71.79,-122.01C79.62,-113.13 92.67,-98.34 105.29,-84.03"/>
<polygon fill="green" stroke="green" stroke-width="0.17" points="108.24,-85.98 112.23,-76.17 102.99,-81.35 108.24,-85.98"/>
</g>
<!-- ANGLE -->
<g id="node10" class="node">
<title>ANGLE</title>
<ellipse fill="lightblue" stroke="black" cx="234.5" cy="-43.13" rx="33.47" ry="33.47"/>
<text text-anchor="middle" x="234.5" y="-40.93" font-family="Times New Roman,serif" font-size="9.00">ANGLE</text>
</g>
<!-- 180°&#45;&gt;ANGLE -->
<g id="edge2" class="edge">
<title>180°&#45;&gt;ANGLE</title>
<path fill="none" stroke="green" stroke-width="0.12" stroke-dasharray="1,5" d="M81.69,-124.84C114.31,-114.46 182.84,-92.31 192.5,-86.27 197.21,-83.32 201.79,-79.76 206.09,-75.96"/>
<polygon fill="green" stroke="green" stroke-width="0.12" points="208.63,-78.38 213.5,-68.96 203.82,-73.29 208.63,-78.38"/>
</g>
<!-- &#45;90° -->
<g id="node2" class="node">
<title>&#45;90°</title>
<polygon fill="lightgray" stroke="black" points="369.5,-140.27 337.5,-140.27 337.5,-122.27 369.5,-122.27 369.5,-140.27"/>
<text text-anchor="middle" x="353.5" y="-129.07" font-family="Times New Roman,serif" font-size="9.00">&#45;90°</text>
</g>
<!-- &#45;90°&#45;&gt;ANGLE -->
<g id="edge3" class="edge">
<title>&#45;90°&#45;&gt;ANGLE</title>
<path fill="none" stroke="red" stroke-width="0.14" stroke-dasharray="1,5" d="M342.09,-122.01C325.54,-110.03 294.17,-87.32 269.56,-69.51"/>
<polygon fill="red" stroke="red" stroke-width="0.14" points="271.32,-66.46 261.17,-63.44 267.22,-72.13 271.32,-66.46"/>
</g>
<!-- &#45;40° -->
<g id="node3" class="node">
<title>&#45;40°</title>
<polygon fill="lightgray" stroke="black" points="131.5,-140.27 99.5,-140.27 99.5,-122.27 131.5,-122.27 131.5,-140.27"/>
<text text-anchor="middle" x="115.5" y="-129.07" font-family="Times New Roman,serif" font-size="9.00">&#45;40°</text>
</g>
<!-- &#45;40°&#45;&gt;VELOCITY -->
<g id="edge4" class="edge">
<title>&#45;40°&#45;&gt;VELOCITY</title>
<path fill="none" stroke="red" stroke-width="0.12" d="M117.9,-122.01C119.82,-115.37 122.71,-105.43 125.78,-94.85"/>
<polygon fill="red" stroke="red" stroke-width="0.12" points="129.2,-95.62 128.63,-85.04 122.48,-93.67 129.2,-95.62"/>
</g>
<!-- &#45;40°&#45;&gt;ANGLE -->
<g id="edge5" class="edge">
<title>&#45;40°&#45;&gt;ANGLE</title>
<path fill="none" stroke="green" stroke-width="0.32" d="M131.61,-122.66C147.75,-114.68 172.93,-101.24 192.5,-86.27 196.7,-83.05 200.9,-79.44 204.93,-75.72"/>
<polygon fill="green" stroke="green" stroke-width="0.32" points="207.65,-77.95 212.43,-68.5 202.8,-72.91 207.65,-77.95"/>
</g>
<!-- &#45;15° -->
<g id="node4" class="node">
<title>&#45;15°</title>
<polygon fill="lightgray" stroke="black" points="181.5,-140.27 149.5,-140.27 149.5,-122.27 181.5,-122.27 181.5,-140.27"/>
<text text-anchor="middle" x="165.5" y="-129.07" font-family="Times New Roman,serif" font-size="9.00">&#45;15°</text>
</g>
<!-- &#45;15°&#45;&gt;VELOCITY -->
<g id="edge6" class="edge">
<title>&#45;15°&#45;&gt;VELOCITY</title>
<path fill="none" stroke="red" stroke-width="0.24" stroke-dasharray="1,5" d="M163.1,-122.01C161.18,-115.37 158.29,-105.43 155.22,-94.85"/>
<polygon fill="red" stroke="red" stroke-width="0.24" points="158.52,-93.67 152.37,-85.04 151.8,-95.62 158.52,-93.67"/>
</g>
<!-- &#45;15°&#45;&gt;ANGLE -->
<g id="edge7" class="edge">
<title>&#45;15°&#45;&gt;ANGLE</title>
<path fill="none" stroke="green" stroke-width="0.3" d="M172.12,-122.01C180.27,-111.82 194.64,-93.89 207.54,-77.79"/>
<polygon fill="green" stroke="green" stroke-width="0.3" points="210.58,-79.59 214.1,-69.59 205.12,-75.21 210.58,-79.59"/>
</g>
<!-- 0° -->
<g id="node5" class="node">
<title>0°</title>
<polygon fill="lightgray" stroke="black" points="225,-140.27 200,-140.27 200,-122.27 225,-122.27 225,-140.27"/>
<text text-anchor="middle" x="212.5" y="-129.07" font-family="Times New Roman,serif" font-size="9.00">0°</text>
</g>
<!-- 0°&#45;&gt;VELOCITY -->
<g id="edge8" class="edge">
<title>0°&#45;&gt;VELOCITY</title>
<path fill="none" stroke="green" stroke-width="0.34" d="M205.6,-122.01C198.29,-113.27 186.21,-98.82 174.43,-84.72"/>
<polygon fill="green" stroke="green" stroke-width="0.34" points="177.04,-82.39 167.94,-76.96 171.67,-86.88 177.04,-82.39"/>
</g>
<!-- 0°&#45;&gt;ANGLE -->
<g id="edge9" class="edge">
<title>0°&#45;&gt;ANGLE</title>
<path fill="none" stroke="green" stroke-width="0.11" stroke-dasharray="1,5" d="M214.61,-122.01C216.79,-113.47 220.36,-99.48 223.88,-85.69"/>
<polygon fill="green" stroke="green" stroke-width="0.11" points="227.33,-86.33 226.42,-75.77 220.55,-84.6 227.33,-86.33"/>
</g>
<!-- 15° -->
<g id="node6" class="node">
<title>15°</title>
<polygon fill="lightgray" stroke="black" points="272,-140.27 243,-140.27 243,-122.27 272,-122.27 272,-140.27"/>
<text text-anchor="middle" x="257.5" y="-129.07" font-family="Times New Roman,serif" font-size="9.00">15°</text>
</g>
<!-- 15°&#45;&gt;VELOCITY -->
<g id="edge10" class="edge">
<title>15°&#45;&gt;VELOCITY</title>
<path fill="none" stroke="red" stroke-width="0.35" stroke-dasharray="1,5" d="M244.82,-122.14C231.55,-113.54 210.23,-99.42 192.5,-86.27 188.83,-83.55 185.06,-80.67 181.31,-77.74"/>
<polygon fill="red" stroke="red" stroke-width="0.35" points="183.19,-74.77 173.17,-71.31 178.85,-80.26 183.19,-74.77"/>
</g>
<!-- 15°&#45;&gt;ANGLE -->
<g id="edge11" class="edge">
<title>15°&#45;&gt;ANGLE</title>
<path fill="none" stroke="red" stroke-width="0.35" d="M255.29,-122.01C253,-113.4 249.22,-99.26 245.51,-85.37"/>
<polygon fill="red" stroke="red" stroke-width="0.35" points="248.81,-84.14 242.84,-75.38 242.04,-85.94 248.81,-84.14"/>
</g>
<!-- 40° -->
<g id="node7" class="node">
<title>40°</title>
<polygon fill="lightgray" stroke="black" points="319,-140.27 290,-140.27 290,-122.27 319,-122.27 319,-140.27"/>
<text text-anchor="middle" x="304.5" y="-129.07" font-family="Times New Roman,serif" font-size="9.00">40°</text>
</g>
<!-- 40°&#45;&gt;VELOCITY -->
<g id="edge12" class="edge">
<title>40°&#45;&gt;VELOCITY</title>
<path fill="none" stroke="green" stroke-width="0.57" stroke-dasharray="1,5" d="M289.84,-125.14C263.6,-115.86 209.74,-96.31 192.5,-86.27 188.55,-83.97 184.59,-81.38 180.72,-78.65"/>
<polygon fill="green" stroke="green" stroke-width="0.57" points="182.52,-75.63 172.4,-72.49 178.35,-81.25 182.52,-75.63"/>
</g>
<!-- 40°&#45;&gt;ANGLE -->
<g id="edge13" class="edge">
<title>40°&#45;&gt;ANGLE</title>
<path fill="none" stroke="red" stroke-width="0.34" d="M297.79,-122.01C289.51,-111.82 274.93,-93.89 261.85,-77.79"/>
<polygon fill="red" stroke="red" stroke-width="0.34" points="264.21,-75.15 255.19,-69.59 258.78,-79.56 264.21,-75.15"/>
</g>
<!-- 90° -->
<g id="node8" class="node">
<title>90°</title>
<polygon fill="lightgray" stroke="black" points="29,-140.27 0,-140.27 0,-122.27 29,-122.27 29,-140.27"/>
<text text-anchor="middle" x="14.5" y="-129.07" font-family="Times New Roman,serif" font-size="9.00">90°</text>
</g>
<!-- 90°&#45;&gt;VELOCITY -->
<g id="edge14" class="edge">
<title>90°&#45;&gt;VELOCITY</title>
<path fill="none" stroke="green" stroke-width="0.35" d="M26.58,-122.01C42.62,-111.05 71.79,-91.1 96.6,-74.14"/>
<polygon fill="green" stroke="green" stroke-width="0.35" points="98.89,-76.82 105.17,-68.29 94.94,-71.04 98.89,-76.82"/>
</g>
</g>
</svg>
