<?xml version="1.0" encoding="UTF-8" standalone="no"?>
<!DOCTYPE svg PUBLIC "-//W3C//DTD SVG 1.1//EN"
 "http://www.w3.org/Graphics/SVG/1.1/DTD/svg11.dtd">
<!-- Generated by graphviz version 2.47.0 (20210316.0004)
 -->
<!-- Pages: 1 -->
<svg width="463pt" height="227pt"
 viewBox="0.00 0.00 463.00 226.69" xmlns="http://www.w3.org/2000/svg" xmlns:xlink="http://www.w3.org/1999/xlink">
<g id="graph0" class="graph" transform="scale(1 1) rotate(0) translate(4 222.69)">
<polygon fill="white" stroke="transparent" points="-4,4 -4,-222.69 459,-222.69 459,4 -4,4"/>
<!-- 180° -->
<g id="node1" class="node">
<title>180°</title>
<polygon fill="lightgray" stroke="black" points="304.5,-218.69 270.5,-218.69 270.5,-200.69 304.5,-200.69 304.5,-218.69"/>
<text text-anchor="middle" x="287.5" y="-207.49" font-family="Times New Roman,serif" font-size="9.00">180°</text>
</g>
<!-- VELOCITY -->
<g id="node9" class="node">
<title>VELOCITY</title>
<ellipse fill="lightblue" stroke="black" cx="122.5" cy="-43.13" rx="43.27" ry="43.27"/>
<text text-anchor="middle" x="122.5" y="-40.93" font-family="Times New Roman,serif" font-size="9.00">VELOCITY</text>
</g>
<!-- 180°&#45;&gt;VELOCITY -->
<g id="edge1" class="edge">
<title>180°&#45;&gt;VELOCITY</title>
<path fill="none" stroke="red" stroke-width="0.18" d="M270.29,-207.8C224.4,-205.02 100.99,-194.82 76.5,-164.69 57.52,-141.35 71.12,-109.31 88.34,-84.13"/>
<polygon fill="red" stroke="red" stroke-width="0.18" points="91.27,-86.04 94.27,-75.88 85.59,-81.95 91.27,-86.04"/>
</g>
<!-- ANGLE -->
<g id="node10" class="node">
<title>ANGLE</title>
<ellipse fill="lightblue" stroke="black" cx="287.5" cy="-43.13" rx="33.47" ry="33.47"/>
<text text-anchor="middle" x="287.5" y="-40.93" font-family="Times New Roman,serif" font-size="9.00">ANGLE</text>
</g>
<!-- 180°&#45;&gt;ANGLE -->
<g id="edge2" class="edge">
<title>180°&#45;&gt;ANGLE</title>
<path fill="none" stroke="green" stroke-width="0.11" stroke-dasharray="1,5" d="M287.5,-200.31C287.5,-179.77 287.5,-125.83 287.5,-87.09"/>
<polygon fill="green" stroke="green" stroke-width="0.11" points="291,-86.6 287.5,-76.6 284,-86.6 291,-86.6"/>
</g>
<!-- 397 -->
<g id="node11" class="node">
<title>397</title>
<ellipse fill="white" stroke="black" cx="386.5" cy="-143.48" rx="21.43" ry="21.43"/>
<text text-anchor="middle" x="386.5" y="-141.28" font-family="Times New Roman,serif" font-size="9.00">397</text>
</g>
<!-- 180°&#45;&gt;397 -->
<g id="edge13" class="edge">
<title>180°&#45;&gt;397</title>
<path fill="none" stroke="green" stroke-width="0.3" d="M300.28,-200.68C314.18,-191.93 337.01,-177.47 356.5,-164.69 357.94,-163.75 359.42,-162.77 360.92,-161.78"/>
<polygon fill="green" stroke="green" stroke-width="0.3" points="363.05,-164.57 369.42,-156.1 359.16,-158.75 363.05,-164.57"/>
</g>
<!-- &#45;90° -->
<g id="node2" class="node">
<title>&#45;90°</title>
<polygon fill="lightgray" stroke="black" points="347.5,-152.48 315.5,-152.48 315.5,-134.48 347.5,-134.48 347.5,-152.48"/>
<text text-anchor="middle" x="331.5" y="-141.28" font-family="Times New Roman,serif" font-size="9.00">&#45;90°</text>
</g>
<!-- &#45;90°&#45;&gt;ANGLE -->
<g id="edge3" class="edge">
<title>&#45;90°&#45;&gt;ANGLE</title>
<path fill="none" stroke="green" stroke-width="0.25" stroke-dasharray="1,5" d="M327.9,-134.43C322.88,-123.21 313.43,-102.09 304.93,-83.1"/>
<polygon fill="green" stroke="green" stroke-width="0.25" points="308.01,-81.41 300.73,-73.71 301.62,-84.27 308.01,-81.41"/>
</g>
<!-- &#45;40° -->
<g id="node3" class="node">
<title>&#45;40°</title>
<polygon fill="lightgray" stroke="black" points="161.5,-152.48 129.5,-152.48 129.5,-134.48 161.5,-134.48 161.5,-152.48"/>
<text text-anchor="middle" x="145.5" y="-141.28" font-family="Times New Roman,serif" font-size="9.00">&#45;40°</text>
</g>
<!-- &#45;40°&#45;&gt;VELOCITY -->
<g id="edge4" class="edge">
<title>&#45;40°&#45;&gt;VELOCITY</title>
<path fill="none" stroke="red" stroke-width="0.11" d="M143.62,-134.43C141.56,-125.63 138.07,-110.73 134.52,-95.55"/>
<polygon fill="red" stroke="red" stroke-width="0.11" points="137.88,-94.53 132.2,-85.59 131.07,-96.13 137.88,-94.53"/>
</g>
<!-- &#45;40°&#45;&gt;ANGLE -->
<g id="edge5" class="edge">
<title>&#45;40°&#45;&gt;ANGLE</title>
<path fill="none" stroke="green" stroke-width="0.49" d="M155.07,-134.4C159.66,-130.61 165.29,-126.1 170.5,-122.27 196.84,-102.88 227.63,-82.4 251.02,-67.27"/>
<polygon fill="green" stroke="green" stroke-width="0.49" points="253.08,-70.11 259.59,-61.75 249.29,-64.22 253.08,-70.11"/>
</g>
<!-- &#45;15° -->
<g id="node4" class="node">
<title>&#45;15°</title>
<polygon fill="lightgray" stroke="black" points="211.5,-152.48 179.5,-152.48 179.5,-134.48 211.5,-134.48 211.5,-152.48"/>
<text text-anchor="middle" x="195.5" y="-141.28" font-family="Times New Roman,serif" font-size="9.00">&#45;15°</text>
</g>
<!-- &#45;15°&#45;&gt;VELOCITY -->
<g id="edge6" class="edge">
<title>&#45;15°&#45;&gt;VELOCITY</title>
<path fill="none" stroke="red" stroke-width="0.28" stroke-dasharray="1,5" d="M189.53,-134.43C181.67,-123.85 167.29,-104.47 153.86,-86.38"/>
<polygon fill="red" stroke="red" stroke-width="0.28" points="156.55,-84.13 147.78,-78.19 150.93,-88.3 156.55,-84.13"/>
</g>
<!-- &#45;15°&#45;&gt;ANGLE -->
<g id="edge7" class="edge">
<title>&#45;15°&#45;&gt;ANGLE</title>
<path fill="none" stroke="green" stroke-width="0.31" d="M203.03,-134.43C214.95,-121.68 238.82,-96.18 258.15,-75.51"/>
<polygon fill="green" stroke="green" stroke-width="0.31" points="260.76,-77.85 265.03,-68.15 255.64,-73.06 260.76,-77.85"/>
</g>
<!-- 0° -->
<g id="node5" class="node">
<title>0°</title>
<polygon fill="lightgray" stroke="black" points="111,-152.48 86,-152.48 86,-134.48 111,-134.48 111,-152.48"/>
<text text-anchor="middle" x="98.5" y="-141.28" font-family="Times New Roman,serif" font-size="9.00">0°</text>
</g>
<!-- 0°&#45;&gt;VELOCITY -->
<g id="edge8" class="edge">
<title>0°&#45;&gt;VELOCITY</title>
<path fill="none" stroke="green" stroke-width="0.32" stroke-dasharray="1,5" d="M100.46,-134.43C102.63,-125.55 106.31,-110.48 110.05,-95.16"/>
<polygon fill="green" stroke="green" stroke-width="0.32" points="113.53,-95.67 112.5,-85.12 106.73,-94.01 113.53,-95.67"/>
</g>
<!-- 15° -->
<g id="node6" class="node">
<title>15°</title>
<polygon fill="lightgray" stroke="black" points="455,-152.48 426,-152.48 426,-134.48 455,-134.48 455,-152.48"/>
<text text-anchor="middle" x="440.5" y="-141.28" font-family="Times New Roman,serif" font-size="9.00">15°</text>
</g>
<!-- 15°&#45;&gt;ANGLE -->
<g id="edge9" class="edge">
<title>15°&#45;&gt;ANGLE</title>
<path fill="none" stroke="red" stroke-width="0.37" d="M431.42,-134.26C427.04,-130.45 421.63,-125.95 416.5,-122.27 386.91,-101.04 351.39,-79.81 325.12,-64.85"/>
<polygon fill="red" stroke="red" stroke-width="0.37" points="326.67,-61.71 316.24,-59.83 323.22,-67.8 326.67,-61.71"/>
</g>
<!-- 40° -->
<g id="node7" class="node">
<title>40°</title>
<polygon fill="lightgray" stroke="black" points="259,-152.48 230,-152.48 230,-134.48 259,-134.48 259,-152.48"/>
<text text-anchor="middle" x="244.5" y="-141.28" font-family="Times New Roman,serif" font-size="9.00">40°</text>
</g>
<!-- 40°&#45;&gt;VELOCITY -->
<g id="edge10" class="edge">
<title>40°&#45;&gt;VELOCITY</title>
<path fill="none" stroke="green" stroke-width="0.44" stroke-dasharray="1,5" d="M234.74,-134.16C230.4,-130.49 225.22,-126.13 220.5,-122.27 202.28,-107.33 181.94,-91.05 164.53,-77.24"/>
<polygon fill="green" stroke="green" stroke-width="0.44" points="166.25,-74.14 156.24,-70.67 161.91,-79.63 166.25,-74.14"/>
</g>
<!-- 40°&#45;&gt;ANGLE -->
<g id="edge11" class="edge">
<title>40°&#45;&gt;ANGLE</title>
<path fill="none" stroke="red" stroke-width="0.32" d="M248.02,-134.43C252.89,-123.29 262.03,-102.39 270.29,-83.5"/>
<polygon fill="red" stroke="red" stroke-width="0.32" points="273.57,-84.72 274.37,-74.15 267.16,-81.91 273.57,-84.72"/>
</g>
<!-- 90° -->
<g id="node8" class="node">
<title>90°</title>
<polygon fill="lightgray" stroke="black" points="29,-152.48 0,-152.48 0,-134.48 29,-134.48 29,-152.48"/>
<text text-anchor="middle" x="14.5" y="-141.28" font-family="Times New Roman,serif" font-size="9.00">90°</text>
</g>
<!-- 90°&#45;&gt;VELOCITY -->
<g id="edge12" class="edge">
<title>90°&#45;&gt;VELOCITY</title>
<path fill="none" stroke="red" stroke-width="0.18" stroke-dasharray="1,5" d="M23.34,-134.43C36.41,-122.53 61.69,-99.51 83.45,-79.69"/>
<polygon fill="red" stroke="red" stroke-width="0.18" points="85.94,-82.16 90.98,-72.84 81.23,-76.98 85.94,-82.16"/>
</g>
<!-- 397&#45;&gt;ANGLE -->
<g id="edge14" class="edge">
<title>397&#45;&gt;ANGLE</title>
<path fill="none" stroke="green" stroke-width="0.13" d="M371.89,-127.97C357.77,-113.94 335.95,-92.26 318.03,-74.46"/>
<polygon fill="green" stroke="green" stroke-width="0.13" points="320.19,-71.67 310.63,-67.11 315.25,-76.64 320.19,-71.67"/>
</g>
</g>
</svg>
