<?xml version="1.0" encoding="UTF-8" standalone="no"?>
<!DOCTYPE svg PUBLIC "-//W3C//DTD SVG 1.1//EN"
 "http://www.w3.org/Graphics/SVG/1.1/DTD/svg11.dtd">
<!-- Generated by graphviz version 2.47.0 (20210316.0004)
 -->
<!-- Pages: 1 -->
<svg width="447pt" height="251pt"
 viewBox="0.00 0.00 446.50 250.74" xmlns="http://www.w3.org/2000/svg" xmlns:xlink="http://www.w3.org/1999/xlink">
<g id="graph0" class="graph" transform="scale(1 1) rotate(0) translate(4 246.74)">
<polygon fill="white" stroke="transparent" points="-4,4 -4,-246.74 442.5,-246.74 442.5,4 -4,4"/>
<!-- 180° -->
<g id="node1" class="node">
<title>180°</title>
<polygon fill="lightgray" stroke="black" points="34,-164.5 0,-164.5 0,-146.5 34,-146.5 34,-164.5"/>
<text text-anchor="middle" x="17" y="-153.3" font-family="Times New Roman,serif" font-size="9.00">180°</text>
</g>
<!-- VELOCITY -->
<g id="node9" class="node">
<title>VELOCITY</title>
<ellipse fill="lightblue" stroke="black" cx="136" cy="-43.13" rx="43.27" ry="43.27"/>
<text text-anchor="middle" x="136" y="-40.93" font-family="Times New Roman,serif" font-size="9.00">VELOCITY</text>
</g>
<!-- 180°&#45;&gt;VELOCITY -->
<g id="edge1" class="edge">
<title>180°&#45;&gt;VELOCITY</title>
<path fill="none" stroke="green" stroke-width="0.15" stroke-dasharray="1,5" d="M22.8,-146.46C27.82,-139.71 35.45,-129.97 43,-122.27 58.73,-106.22 77.48,-89.99 94.01,-76.52"/>
<polygon fill="green" stroke="green" stroke-width="0.15" points="96.33,-79.14 101.92,-70.14 91.94,-73.69 96.33,-79.14"/>
</g>
<!-- &#45;90° -->
<g id="node2" class="node">
<title>&#45;90°</title>
<polygon fill="lightgray" stroke="black" points="391,-242.74 359,-242.74 359,-224.74 391,-224.74 391,-242.74"/>
<text text-anchor="middle" x="375" y="-231.54" font-family="Times New Roman,serif" font-size="9.00">&#45;90°</text>
</g>
<!-- &#45;40° -->
<g id="node3" class="node">
<title>&#45;40°</title>
<polygon fill="lightgray" stroke="black" points="287,-242.74 255,-242.74 255,-224.74 287,-224.74 287,-242.74"/>
<text text-anchor="middle" x="271" y="-231.54" font-family="Times New Roman,serif" font-size="9.00">&#45;40°</text>
</g>
<!-- ANGLE -->
<g id="node10" class="node">
<title>ANGLE</title>
<ellipse fill="lightblue" stroke="black" cx="271" cy="-155.5" rx="33.47" ry="33.47"/>
<text text-anchor="middle" x="271" y="-153.3" font-family="Times New Roman,serif" font-size="9.00">ANGLE</text>
</g>
<!-- &#45;40°&#45;&gt;ANGLE -->
<g id="edge2" class="edge">
<title>&#45;40°&#45;&gt;ANGLE</title>
<path fill="none" stroke="green" stroke-width="0.42" d="M271,-224.58C271,-218.25 271,-208.94 271,-199.23"/>
<polygon fill="green" stroke="green" stroke-width="0.42" points="274.5,-199.07 271,-189.07 267.5,-199.07 274.5,-199.07"/>
</g>
<!-- &#45;15° -->
<g id="node4" class="node">
<title>&#45;15°</title>
<polygon fill="lightgray" stroke="black" points="84,-164.5 52,-164.5 52,-146.5 84,-146.5 84,-164.5"/>
<text text-anchor="middle" x="68" y="-153.3" font-family="Times New Roman,serif" font-size="9.00">&#45;15°</text>
</g>
<!-- &#45;15°&#45;&gt;VELOCITY -->
<g id="edge3" class="edge">
<title>&#45;15°&#45;&gt;VELOCITY</title>
<path fill="none" stroke="green" stroke-width="0.35" stroke-dasharray="1,5" d="M73.11,-146.21C80.6,-134.04 95.11,-110.49 108.31,-89.08"/>
<polygon fill="green" stroke="green" stroke-width="0.35" points="111.4,-90.73 113.67,-80.38 105.44,-87.06 111.4,-90.73"/>
</g>
<!-- 0° -->
<g id="node5" class="node">
<title>0°</title>
<polygon fill="lightgray" stroke="black" points="149.5,-242.74 124.5,-242.74 124.5,-224.74 149.5,-224.74 149.5,-242.74"/>
<text text-anchor="middle" x="137" y="-231.54" font-family="Times New Roman,serif" font-size="9.00">0°</text>
</g>
<!-- 0°&#45;&gt;VELOCITY -->
<g id="edge7" class="edge">
<title>0°&#45;&gt;VELOCITY</title>
<path fill="none" stroke="red" stroke-width="0.31" d="M135.56,-224.66C134.08,-215.86 131.86,-201.35 131,-188.74 128.93,-158.18 129.96,-123.93 131.62,-96.43"/>
<polygon fill="red" stroke="red" stroke-width="0.31" points="135.12,-96.45 132.27,-86.25 128.14,-96 135.12,-96.45"/>
</g>
<!-- 547 -->
<g id="node11" class="node">
<title>547</title>
<ellipse fill="white" stroke="black" cx="161" cy="-155.5" rx="21.43" ry="21.43"/>
<text text-anchor="middle" x="161" y="-153.3" font-family="Times New Roman,serif" font-size="9.00">547</text>
</g>
<!-- 0°&#45;&gt;547 -->
<g id="edge11" class="edge">
<title>0°&#45;&gt;547</title>
<path fill="none" stroke="red" stroke-width="0.39" d="M139.57,-224.58C142.49,-215.3 147.42,-199.64 151.82,-185.68"/>
<polygon fill="red" stroke="red" stroke-width="0.39" points="155.22,-186.51 154.89,-175.92 148.54,-184.41 155.22,-186.51"/>
</g>
<!-- 15° -->
<g id="node6" class="node">
<title>15°</title>
<polygon fill="lightgray" stroke="black" points="438.5,-242.74 409.5,-242.74 409.5,-224.74 438.5,-224.74 438.5,-242.74"/>
<text text-anchor="middle" x="424" y="-231.54" font-family="Times New Roman,serif" font-size="9.00">15°</text>
</g>
<!-- 40° -->
<g id="node7" class="node">
<title>40°</title>
<polygon fill="lightgray" stroke="black" points="340.5,-242.74 311.5,-242.74 311.5,-224.74 340.5,-224.74 340.5,-242.74"/>
<text text-anchor="middle" x="326" y="-231.54" font-family="Times New Roman,serif" font-size="9.00">40°</text>
</g>
<!-- 40°&#45;&gt;VELOCITY -->
<g id="edge4" class="edge">
<title>40°&#45;&gt;VELOCITY</title>
<path fill="none" stroke="red" stroke-width="0.3" stroke-dasharray="1,5" d="M327.55,-224.55C330.82,-204.79 336.29,-153.8 313,-122.27 283.5,-82.33 229.06,-62.46 188.31,-52.8"/>
<polygon fill="red" stroke="red" stroke-width="0.3" points="189.06,-49.38 178.53,-50.62 187.53,-56.21 189.06,-49.38"/>
</g>
<!-- 40°&#45;&gt;ANGLE -->
<g id="edge5" class="edge">
<title>40°&#45;&gt;ANGLE</title>
<path fill="none" stroke="red" stroke-width="0.32" d="M320.11,-224.58C314.3,-216.52 305.02,-203.65 296.08,-191.26"/>
<polygon fill="red" stroke="red" stroke-width="0.32" points="298.68,-188.89 289.99,-182.82 293,-192.98 298.68,-188.89"/>
</g>
<!-- 90° -->
<g id="node8" class="node">
<title>90°</title>
<polygon fill="lightgray" stroke="black" points="224.5,-242.74 195.5,-242.74 195.5,-224.74 224.5,-224.74 224.5,-242.74"/>
<text text-anchor="middle" x="210" y="-231.54" font-family="Times New Roman,serif" font-size="9.00">90°</text>
</g>
<!-- 90°&#45;&gt;VELOCITY -->
<g id="edge6" class="edge">
<title>90°&#45;&gt;VELOCITY</title>
<path fill="none" stroke="green" stroke-width="0.2" stroke-dasharray="1,5" d="M209.81,-224.63C209.13,-205.9 205.94,-158.42 191,-122.27 185.6,-109.19 177.69,-96.15 169.54,-84.58"/>
<polygon fill="green" stroke="green" stroke-width="0.2" points="172.32,-82.45 163.6,-76.43 166.67,-86.58 172.32,-82.45"/>
</g>
<!-- 90°&#45;&gt;ANGLE -->
<g id="edge10" class="edge">
<title>90°&#45;&gt;ANGLE</title>
<path fill="none" stroke="green" stroke-width="0.29" d="M216.53,-224.58C223.2,-216.24 234,-202.75 244.23,-189.96"/>
<polygon fill="green" stroke="green" stroke-width="0.29" points="246.97,-192.14 250.48,-182.14 241.5,-187.77 246.97,-192.14"/>
</g>
<!-- 90°&#45;&gt;547 -->
<g id="edge8" class="edge">
<title>90°&#45;&gt;547</title>
<path fill="none" stroke="green" stroke-width="0.39" d="M204.76,-224.58C198.34,-214.59 187.15,-197.19 177.7,-182.48"/>
<polygon fill="green" stroke="green" stroke-width="0.39" points="180.44,-180.28 172.09,-173.76 174.55,-184.06 180.44,-180.28"/>
</g>
<!-- 547&#45;&gt;VELOCITY -->
<g id="edge9" class="edge">
<title>547&#45;&gt;VELOCITY</title>
<path fill="none" stroke="green" stroke-width="0.21" d="M156.47,-134.51C153.98,-123.52 150.77,-109.32 147.62,-95.45"/>
<polygon fill="green" stroke="green" stroke-width="0.21" points="150.98,-94.44 145.36,-85.46 144.16,-95.98 150.98,-94.44"/>
</g>
</g>
</svg>
