<?xml version="1.0" encoding="UTF-8" standalone="no"?>
<!DOCTYPE svg PUBLIC "-//W3C//DTD SVG 1.1//EN"
 "http://www.w3.org/Graphics/SVG/1.1/DTD/svg11.dtd">
<!-- Generated by graphviz version 2.47.0 (20210316.0004)
 -->
<!-- Pages: 1 -->
<svg width="453pt" height="251pt"
 viewBox="0.00 0.00 452.50 250.74" xmlns="http://www.w3.org/2000/svg" xmlns:xlink="http://www.w3.org/1999/xlink">
<g id="graph0" class="graph" transform="scale(1 1) rotate(0) translate(4 246.74)">
<polygon fill="white" stroke="transparent" points="-4,4 -4,-246.74 448.5,-246.74 448.5,4 -4,4"/>
<!-- 180° -->
<g id="node1" class="node">
<title>180°</title>
<polygon fill="lightgray" stroke="black" points="34,-164.5 0,-164.5 0,-146.5 34,-146.5 34,-164.5"/>
<text text-anchor="middle" x="17" y="-153.3" font-family="Times New Roman,serif" font-size="9.00">180°</text>
</g>
<!-- VELOCITY -->
<g id="node9" class="node">
<title>VELOCITY</title>
<ellipse fill="lightblue" stroke="black" cx="161" cy="-43.13" rx="43.27" ry="43.27"/>
<text text-anchor="middle" x="161" y="-40.93" font-family="Times New Roman,serif" font-size="9.00">VELOCITY</text>
</g>
<!-- 180°&#45;&gt;VELOCITY -->
<g id="edge1" class="edge">
<title>180°&#45;&gt;VELOCITY</title>
<path fill="none" stroke="green" stroke-width="0.15" stroke-dasharray="1,5" d="M22.58,-146.23C27.47,-139.35 35.02,-129.53 43,-122.27 64.73,-102.48 91.92,-84.13 114.72,-70.19"/>
<polygon fill="green" stroke="green" stroke-width="0.15" points="116.78,-73.03 123.54,-64.87 113.17,-67.03 116.78,-73.03"/>
</g>
<!-- &#45;90° -->
<g id="node2" class="node">
<title>&#45;90°</title>
<polygon fill="lightgray" stroke="black" points="397,-242.74 365,-242.74 365,-224.74 397,-224.74 397,-242.74"/>
<text text-anchor="middle" x="381" y="-231.54" font-family="Times New Roman,serif" font-size="9.00">&#45;90°</text>
</g>
<!-- &#45;40° -->
<g id="node3" class="node">
<title>&#45;40°</title>
<polygon fill="lightgray" stroke="black" points="287,-242.74 255,-242.74 255,-224.74 287,-224.74 287,-242.74"/>
<text text-anchor="middle" x="271" y="-231.54" font-family="Times New Roman,serif" font-size="9.00">&#45;40°</text>
</g>
<!-- ANGLE -->
<g id="node10" class="node">
<title>ANGLE</title>
<ellipse fill="lightblue" stroke="black" cx="271" cy="-155.5" rx="33.47" ry="33.47"/>
<text text-anchor="middle" x="271" y="-153.3" font-family="Times New Roman,serif" font-size="9.00">ANGLE</text>
</g>
<!-- &#45;40°&#45;&gt;ANGLE -->
<g id="edge2" class="edge">
<title>&#45;40°&#45;&gt;ANGLE</title>
<path fill="none" stroke="green" stroke-width="0.37" d="M271,-224.58C271,-218.25 271,-208.94 271,-199.23"/>
<polygon fill="green" stroke="green" stroke-width="0.37" points="274.5,-199.07 271,-189.07 267.5,-199.07 274.5,-199.07"/>
</g>
<!-- &#45;15° -->
<g id="node4" class="node">
<title>&#45;15°</title>
<polygon fill="lightgray" stroke="black" points="84,-164.5 52,-164.5 52,-146.5 84,-146.5 84,-164.5"/>
<text text-anchor="middle" x="68" y="-153.3" font-family="Times New Roman,serif" font-size="9.00">&#45;15°</text>
</g>
<!-- &#45;15°&#45;&gt;VELOCITY -->
<g id="edge3" class="edge">
<title>&#45;15°&#45;&gt;VELOCITY</title>
<path fill="none" stroke="green" stroke-width="0.31" stroke-dasharray="1,5" d="M74.99,-146.21C85.95,-133.2 107.88,-107.17 126.86,-84.65"/>
<polygon fill="green" stroke="green" stroke-width="0.31" points="129.65,-86.76 133.42,-76.86 124.3,-82.25 129.65,-86.76"/>
</g>
<!-- 0° -->
<g id="node5" class="node">
<title>0°</title>
<polygon fill="lightgray" stroke="black" points="149.5,-242.74 124.5,-242.74 124.5,-224.74 149.5,-224.74 149.5,-242.74"/>
<text text-anchor="middle" x="137" y="-231.54" font-family="Times New Roman,serif" font-size="9.00">0°</text>
</g>
<!-- 0°&#45;&gt;VELOCITY -->
<g id="edge7" class="edge">
<title>0°&#45;&gt;VELOCITY</title>
<path fill="none" stroke="green" stroke-width="0.12" d="M135.56,-224.66C134.08,-215.86 131.86,-201.35 131,-188.74 129,-159.26 125.62,-151.31 131,-122.27 132.85,-112.3 135.92,-101.97 139.4,-92.2"/>
<polygon fill="green" stroke="green" stroke-width="0.12" points="142.74,-93.26 143,-82.66 136.19,-90.79 142.74,-93.26"/>
</g>
<!-- 547 -->
<g id="node11" class="node">
<title>547</title>
<ellipse fill="white" stroke="black" cx="161" cy="-155.5" rx="21.43" ry="21.43"/>
<text text-anchor="middle" x="161" y="-153.3" font-family="Times New Roman,serif" font-size="9.00">547</text>
</g>
<!-- 0°&#45;&gt;547 -->
<g id="edge11" class="edge">
<title>0°&#45;&gt;547</title>
<path fill="none" stroke="red" stroke-width="0.39" d="M139.57,-224.58C142.49,-215.3 147.42,-199.64 151.82,-185.68"/>
<polygon fill="red" stroke="red" stroke-width="0.39" points="155.22,-186.51 154.89,-175.92 148.54,-184.41 155.22,-186.51"/>
</g>
<!-- 15° -->
<g id="node6" class="node">
<title>15°</title>
<polygon fill="lightgray" stroke="black" points="444.5,-242.74 415.5,-242.74 415.5,-224.74 444.5,-224.74 444.5,-242.74"/>
<text text-anchor="middle" x="430" y="-231.54" font-family="Times New Roman,serif" font-size="9.00">15°</text>
</g>
<!-- 40° -->
<g id="node7" class="node">
<title>40°</title>
<polygon fill="lightgray" stroke="black" points="346.5,-242.74 317.5,-242.74 317.5,-224.74 346.5,-224.74 346.5,-242.74"/>
<text text-anchor="middle" x="332" y="-231.54" font-family="Times New Roman,serif" font-size="9.00">40°</text>
</g>
<!-- 40°&#45;&gt;VELOCITY -->
<g id="edge4" class="edge">
<title>40°&#45;&gt;VELOCITY</title>
<path fill="none" stroke="green" stroke-width="0.46" stroke-dasharray="1,5" d="M332.9,-224.59C334.63,-204.92 336.37,-154.11 313,-122.27 288.71,-89.18 246.29,-69.03 212.42,-57.51"/>
<polygon fill="green" stroke="green" stroke-width="0.46" points="213.26,-54.1 202.66,-54.34 211.09,-60.76 213.26,-54.1"/>
</g>
<!-- 40°&#45;&gt;ANGLE -->
<g id="edge5" class="edge">
<title>40°&#45;&gt;ANGLE</title>
<path fill="none" stroke="red" stroke-width="0.31" d="M325.47,-224.58C318.8,-216.24 308,-202.75 297.77,-189.96"/>
<polygon fill="red" stroke="red" stroke-width="0.31" points="300.5,-187.77 291.52,-182.14 295.03,-192.14 300.5,-187.77"/>
</g>
<!-- 583 -->
<g id="node12" class="node">
<title>583</title>
<ellipse fill="white" stroke="black" cx="381" cy="-155.5" rx="21.43" ry="21.43"/>
<text text-anchor="middle" x="381" y="-153.3" font-family="Times New Roman,serif" font-size="9.00">583</text>
</g>
<!-- 40°&#45;&gt;583 -->
<g id="edge12" class="edge">
<title>40°&#45;&gt;583</title>
<path fill="none" stroke="green" stroke-width="0.3" d="M337.24,-224.58C343.66,-214.59 354.85,-197.19 364.3,-182.48"/>
<polygon fill="green" stroke="green" stroke-width="0.3" points="367.45,-184.06 369.91,-173.76 361.56,-180.28 367.45,-184.06"/>
</g>
<!-- 90° -->
<g id="node8" class="node">
<title>90°</title>
<polygon fill="lightgray" stroke="black" points="224.5,-242.74 195.5,-242.74 195.5,-224.74 224.5,-224.74 224.5,-242.74"/>
<text text-anchor="middle" x="210" y="-231.54" font-family="Times New Roman,serif" font-size="9.00">90°</text>
</g>
<!-- 90°&#45;&gt;VELOCITY -->
<g id="edge6" class="edge">
<title>90°&#45;&gt;VELOCITY</title>
<path fill="none" stroke="red" stroke-width="0.29" stroke-dasharray="1,5" d="M209.15,-224.58C207.11,-206.11 201.32,-159.79 191,-122.27 188.31,-112.5 184.86,-102.25 181.26,-92.51"/>
<polygon fill="red" stroke="red" stroke-width="0.29" points="184.46,-91.08 177.64,-82.98 177.92,-93.57 184.46,-91.08"/>
</g>
<!-- 90°&#45;&gt;ANGLE -->
<g id="edge10" class="edge">
<title>90°&#45;&gt;ANGLE</title>
<path fill="none" stroke="green" stroke-width="0.17" d="M216.53,-224.58C223.2,-216.24 234,-202.75 244.23,-189.96"/>
<polygon fill="green" stroke="green" stroke-width="0.17" points="246.97,-192.14 250.48,-182.14 241.5,-187.77 246.97,-192.14"/>
</g>
<!-- 90°&#45;&gt;547 -->
<g id="edge8" class="edge">
<title>90°&#45;&gt;547</title>
<path fill="none" stroke="green" stroke-width="0.39" d="M204.76,-224.58C198.34,-214.59 187.15,-197.19 177.7,-182.48"/>
<polygon fill="green" stroke="green" stroke-width="0.39" points="180.44,-180.28 172.09,-173.76 174.55,-184.06 180.44,-180.28"/>
</g>
<!-- 547&#45;&gt;VELOCITY -->
<g id="edge9" class="edge">
<title>547&#45;&gt;VELOCITY</title>
<path fill="none" stroke="green" stroke-width="0.24" d="M161,-134.26C161,-123.65 161,-110.1 161,-96.76"/>
<polygon fill="green" stroke="green" stroke-width="0.24" points="164.5,-96.65 161,-86.65 157.5,-96.65 164.5,-96.65"/>
</g>
<!-- 583&#45;&gt;VELOCITY -->
<g id="edge13" class="edge">
<title>583&#45;&gt;VELOCITY</title>
<path fill="none" stroke="red" stroke-width="0.3" d="M366.95,-139.48C360.9,-133.59 353.5,-127.1 346,-122.27 303.57,-94.95 249.98,-73.55 211.42,-60.1"/>
<polygon fill="red" stroke="red" stroke-width="0.3" points="212.55,-56.79 201.95,-56.86 210.28,-63.41 212.55,-56.79"/>
</g>
</g>
</svg>
