<?xml version="1.0" encoding="UTF-8" standalone="no"?>
<!DOCTYPE svg PUBLIC "-//W3C//DTD SVG 1.1//EN"
 "http://www.w3.org/Graphics/SVG/1.1/DTD/svg11.dtd">
<!-- Generated by graphviz version 2.47.0 (20210316.0004)
 -->
<!-- Pages: 1 -->
<svg width="353pt" height="329pt"
 viewBox="0.00 0.00 352.50 329.16" xmlns="http://www.w3.org/2000/svg" xmlns:xlink="http://www.w3.org/1999/xlink">
<g id="graph0" class="graph" transform="scale(1 1) rotate(0) translate(4 325.16)">
<polygon fill="white" stroke="transparent" points="-4,4 -4,-325.16 348.5,-325.16 348.5,4 -4,4"/>
<!-- 180° -->
<g id="node1" class="node">
<title>180°</title>
<polygon fill="lightgray" stroke="black" points="34,-321.16 0,-321.16 0,-303.16 34,-303.16 34,-321.16"/>
<text text-anchor="middle" x="17" y="-309.96" font-family="Times New Roman,serif" font-size="9.00">180°</text>
</g>
<!-- &#45;90° -->
<g id="node2" class="node">
<title>&#45;90°</title>
<polygon fill="lightgray" stroke="black" points="84,-321.16 52,-321.16 52,-303.16 84,-303.16 84,-321.16"/>
<text text-anchor="middle" x="68" y="-309.96" font-family="Times New Roman,serif" font-size="9.00">&#45;90°</text>
</g>
<!-- &#45;40° -->
<g id="node3" class="node">
<title>&#45;40°</title>
<polygon fill="lightgray" stroke="black" points="238,-321.16 206,-321.16 206,-303.16 238,-303.16 238,-321.16"/>
<text text-anchor="middle" x="222" y="-309.96" font-family="Times New Roman,serif" font-size="9.00">&#45;40°</text>
</g>
<!-- ANGLE -->
<g id="node10" class="node">
<title>ANGLE</title>
<ellipse fill="lightblue" stroke="black" cx="222" cy="-233.93" rx="33.47" ry="33.47"/>
<text text-anchor="middle" x="222" y="-231.73" font-family="Times New Roman,serif" font-size="9.00">ANGLE</text>
</g>
<!-- &#45;40°&#45;&gt;ANGLE -->
<g id="edge1" class="edge">
<title>&#45;40°&#45;&gt;ANGLE</title>
<path fill="none" stroke="green" stroke-width="0.4" d="M222,-303C222,-296.67 222,-287.37 222,-277.66"/>
<polygon fill="green" stroke="green" stroke-width="0.4" points="225.5,-277.5 222,-267.5 218.5,-277.5 225.5,-277.5"/>
</g>
<!-- &#45;15° -->
<g id="node4" class="node">
<title>&#45;15°</title>
<polygon fill="lightgray" stroke="black" points="51,-152.48 19,-152.48 19,-134.48 51,-134.48 51,-152.48"/>
<text text-anchor="middle" x="35" y="-141.28" font-family="Times New Roman,serif" font-size="9.00">&#45;15°</text>
</g>
<!-- VELOCITY -->
<g id="node9" class="node">
<title>VELOCITY</title>
<ellipse fill="lightblue" stroke="black" cx="137" cy="-43.13" rx="43.27" ry="43.27"/>
<text text-anchor="middle" x="137" y="-40.93" font-family="Times New Roman,serif" font-size="9.00">VELOCITY</text>
</g>
<!-- &#45;15°&#45;&gt;VELOCITY -->
<g id="edge2" class="edge">
<title>&#45;15°&#45;&gt;VELOCITY</title>
<path fill="none" stroke="green" stroke-width="0.31" stroke-dasharray="1,5" d="M43.35,-134.43C55.47,-122.75 78.71,-100.34 99,-80.77"/>
<polygon fill="green" stroke="green" stroke-width="0.31" points="101.55,-83.17 106.32,-73.71 96.69,-78.14 101.55,-83.17"/>
</g>
<!-- 0° -->
<g id="node5" class="node">
<title>0°</title>
<polygon fill="lightgray" stroke="black" points="170.5,-242.93 145.5,-242.93 145.5,-224.93 170.5,-224.93 170.5,-242.93"/>
<text text-anchor="middle" x="158" y="-231.73" font-family="Times New Roman,serif" font-size="9.00">0°</text>
</g>
<!-- 0°&#45;&gt;VELOCITY -->
<g id="edge5" class="edge">
<title>0°&#45;&gt;VELOCITY</title>
<path fill="none" stroke="green" stroke-width="0.15" d="M157.1,-224.82C154.67,-202.97 147.83,-141.48 142.8,-96.28"/>
<polygon fill="green" stroke="green" stroke-width="0.15" points="146.28,-95.88 141.69,-86.33 139.32,-96.65 146.28,-95.88"/>
</g>
<!-- 547 -->
<g id="node11" class="node">
<title>547</title>
<ellipse fill="white" stroke="black" cx="215" cy="-143.48" rx="21.43" ry="21.43"/>
<text text-anchor="middle" x="215" y="-141.28" font-family="Times New Roman,serif" font-size="9.00">547</text>
</g>
<!-- 0°&#45;&gt;547 -->
<g id="edge9" class="edge">
<title>0°&#45;&gt;547</title>
<path fill="none" stroke="green" stroke-width="0.13" d="M163.26,-224.77C171.17,-212.49 186.47,-188.75 198.39,-170.25"/>
<polygon fill="green" stroke="green" stroke-width="0.13" points="201.45,-171.97 203.93,-161.66 195.57,-168.17 201.45,-171.97"/>
</g>
<!-- 15° -->
<g id="node6" class="node">
<title>15°</title>
<polygon fill="lightgray" stroke="black" points="344.5,-321.16 315.5,-321.16 315.5,-303.16 344.5,-303.16 344.5,-321.16"/>
<text text-anchor="middle" x="330" y="-309.96" font-family="Times New Roman,serif" font-size="9.00">15°</text>
</g>
<!-- 40° -->
<g id="node7" class="node">
<title>40°</title>
<polygon fill="lightgray" stroke="black" points="131.5,-321.16 102.5,-321.16 102.5,-303.16 131.5,-303.16 131.5,-321.16"/>
<text text-anchor="middle" x="117" y="-309.96" font-family="Times New Roman,serif" font-size="9.00">40°</text>
</g>
<!-- 40°&#45;&gt;VELOCITY -->
<g id="edge3" class="edge">
<title>40°&#45;&gt;VELOCITY</title>
<path fill="none" stroke="green" stroke-width="0.46" stroke-dasharray="1,5" d="M117.62,-302.88C119.92,-272.13 128.1,-162.9 133.07,-96.59"/>
<polygon fill="green" stroke="green" stroke-width="0.46" points="136.58,-96.57 133.84,-86.33 129.6,-96.04 136.58,-96.57"/>
</g>
<!-- 40°&#45;&gt;ANGLE -->
<g id="edge4" class="edge">
<title>40°&#45;&gt;ANGLE</title>
<path fill="none" stroke="red" stroke-width="0.33" d="M129.19,-302.89C141.97,-294.16 162.56,-279.93 180,-267.16 182.6,-265.26 185.27,-263.28 187.94,-261.27"/>
<polygon fill="red" stroke="red" stroke-width="0.33" points="190.06,-264.05 195.92,-255.23 185.84,-258.47 190.06,-264.05"/>
</g>
<!-- 583 -->
<g id="node12" class="node">
<title>583</title>
<ellipse fill="white" stroke="black" cx="68" cy="-233.93" rx="21.43" ry="21.43"/>
<text text-anchor="middle" x="68" y="-231.73" font-family="Times New Roman,serif" font-size="9.00">583</text>
</g>
<!-- 40°&#45;&gt;583 -->
<g id="edge10" class="edge">
<title>40°&#45;&gt;583</title>
<path fill="none" stroke="green" stroke-width="0.17" d="M111.76,-303C105.34,-293.02 94.15,-275.61 84.7,-260.9"/>
<polygon fill="green" stroke="green" stroke-width="0.17" points="87.44,-258.7 79.09,-252.18 81.55,-262.49 87.44,-258.7"/>
</g>
<!-- 90° -->
<g id="node8" class="node">
<title>90°</title>
<polygon fill="lightgray" stroke="black" points="297.5,-321.16 268.5,-321.16 268.5,-303.16 297.5,-303.16 297.5,-321.16"/>
<text text-anchor="middle" x="283" y="-309.96" font-family="Times New Roman,serif" font-size="9.00">90°</text>
</g>
<!-- 90°&#45;&gt;ANGLE -->
<g id="edge8" class="edge">
<title>90°&#45;&gt;ANGLE</title>
<path fill="none" stroke="green" stroke-width="0.18" d="M276.47,-303C269.8,-294.67 259,-281.17 248.77,-268.39"/>
<polygon fill="green" stroke="green" stroke-width="0.18" points="251.5,-266.19 242.52,-260.57 246.03,-270.57 251.5,-266.19"/>
</g>
<!-- 90°&#45;&gt;547 -->
<g id="edge6" class="edge">
<title>90°&#45;&gt;547</title>
<path fill="none" stroke="red" stroke-width="0.12" d="M283.07,-302.95C282.93,-283.97 280.79,-236.02 264,-200.69 257.77,-187.59 247.61,-175.19 238.15,-165.39"/>
<polygon fill="red" stroke="red" stroke-width="0.12" points="240.37,-162.66 230.8,-158.12 235.45,-167.64 240.37,-162.66"/>
</g>
<!-- 784 -->
<g id="node13" class="node">
<title>784</title>
<ellipse fill="white" stroke="black" cx="294" cy="-143.48" rx="21.43" ry="21.43"/>
<text text-anchor="middle" x="294" y="-141.28" font-family="Times New Roman,serif" font-size="9.00">784</text>
</g>
<!-- 90°&#45;&gt;784 -->
<g id="edge13" class="edge">
<title>90°&#45;&gt;784</title>
<path fill="none" stroke="red" stroke-width="0.22" d="M286.47,-302.91C289.93,-294.21 295.01,-279.99 297,-267.16 301.86,-235.85 300.06,-199.5 297.7,-174.55"/>
<polygon fill="red" stroke="red" stroke-width="0.22" points="301.18,-174.18 296.67,-164.6 294.22,-174.9 301.18,-174.18"/>
</g>
<!-- ANGLE&#45;&gt;547 -->
<g id="edge12" class="edge">
<title>ANGLE&#45;&gt;547</title>
<path fill="none" stroke="red" stroke-width="0.16" d="M219.45,-200.75C218.78,-192.27 218.06,-183.16 217.4,-174.79"/>
<polygon fill="red" stroke="red" stroke-width="0.16" points="220.88,-174.38 216.6,-164.68 213.9,-174.93 220.88,-174.38"/>
</g>
<!-- 547&#45;&gt;VELOCITY -->
<g id="edge7" class="edge">
<title>547&#45;&gt;VELOCITY</title>
<path fill="none" stroke="red" stroke-width="0.17" d="M202.12,-126.24C193.28,-115.1 181.14,-99.79 169.73,-85.4"/>
<polygon fill="red" stroke="red" stroke-width="0.17" points="172.45,-83.2 163.49,-77.54 166.96,-87.55 172.45,-83.2"/>
</g>
<!-- 583&#45;&gt;VELOCITY -->
<g id="edge11" class="edge">
<title>583&#45;&gt;VELOCITY</title>
<path fill="none" stroke="green" stroke-width="0.56" d="M73.59,-213.13C80.03,-190.82 91.27,-153.59 103,-122.27 106.7,-112.4 110.97,-101.97 115.21,-92.06"/>
<polygon fill="green" stroke="green" stroke-width="0.56" points="118.48,-93.32 119.25,-82.76 112.06,-90.54 118.48,-93.32"/>
</g>
<!-- 784&#45;&gt;VELOCITY -->
<g id="edge14" class="edge">
<title>784&#45;&gt;VELOCITY</title>
<path fill="none" stroke="red" stroke-width="0.37" d="M276.3,-131.39C253.57,-117.16 213.34,-91.95 181.93,-72.28"/>
<polygon fill="red" stroke="red" stroke-width="0.37" points="183.66,-69.23 173.33,-66.89 179.95,-75.16 183.66,-69.23"/>
</g>
</g>
</svg>
