<?xml version="1.0" encoding="UTF-8" standalone="no"?>
<!DOCTYPE svg PUBLIC "-//W3C//DTD SVG 1.1//EN"
 "http://www.w3.org/Graphics/SVG/1.1/DTD/svg11.dtd">
<!-- Generated by graphviz version 2.47.0 (20210316.0004)
 -->
<!-- Pages: 1 -->
<svg width="399pt" height="329pt"
 viewBox="0.00 0.00 399.21 329.16" xmlns="http://www.w3.org/2000/svg" xmlns:xlink="http://www.w3.org/1999/xlink">
<g id="graph0" class="graph" transform="scale(1 1) rotate(0) translate(4 325.16)">
<polygon fill="white" stroke="transparent" points="-4,4 -4,-325.16 395.21,-325.16 395.21,4 -4,4"/>
<!-- 180° -->
<g id="node1" class="node">
<title>180°</title>
<polygon fill="lightgray" stroke="black" points="34,-321.16 0,-321.16 0,-303.16 34,-303.16 34,-321.16"/>
<text text-anchor="middle" x="17" y="-309.96" font-family="Times New Roman,serif" font-size="9.00">180°</text>
</g>
<!-- &#45;90° -->
<g id="node2" class="node">
<title>&#45;90°</title>
<polygon fill="lightgray" stroke="black" points="84,-321.16 52,-321.16 52,-303.16 84,-303.16 84,-321.16"/>
<text text-anchor="middle" x="68" y="-309.96" font-family="Times New Roman,serif" font-size="9.00">&#45;90°</text>
</g>
<!-- &#45;40° -->
<g id="node3" class="node">
<title>&#45;40°</title>
<polygon fill="lightgray" stroke="black" points="238,-321.16 206,-321.16 206,-303.16 238,-303.16 238,-321.16"/>
<text text-anchor="middle" x="222" y="-309.96" font-family="Times New Roman,serif" font-size="9.00">&#45;40°</text>
</g>
<!-- ANGLE -->
<g id="node10" class="node">
<title>ANGLE</title>
<ellipse fill="lightblue" stroke="black" cx="222" cy="-233.93" rx="33.47" ry="33.47"/>
<text text-anchor="middle" x="222" y="-231.73" font-family="Times New Roman,serif" font-size="9.00">ANGLE</text>
</g>
<!-- &#45;40°&#45;&gt;ANGLE -->
<g id="edge1" class="edge">
<title>&#45;40°&#45;&gt;ANGLE</title>
<path fill="none" stroke="green" stroke-width="0.38" d="M222,-303C222,-296.67 222,-287.37 222,-277.66"/>
<polygon fill="green" stroke="green" stroke-width="0.38" points="225.5,-277.5 222,-267.5 218.5,-277.5 225.5,-277.5"/>
</g>
<!-- &#45;15° -->
<g id="node4" class="node">
<title>&#45;15°</title>
<polygon fill="lightgray" stroke="black" points="110,-152.48 78,-152.48 78,-134.48 110,-134.48 110,-152.48"/>
<text text-anchor="middle" x="94" y="-141.28" font-family="Times New Roman,serif" font-size="9.00">&#45;15°</text>
</g>
<!-- VELOCITY -->
<g id="node9" class="node">
<title>VELOCITY</title>
<ellipse fill="lightblue" stroke="black" cx="198" cy="-43.13" rx="43.27" ry="43.27"/>
<text text-anchor="middle" x="198" y="-40.93" font-family="Times New Roman,serif" font-size="9.00">VELOCITY</text>
</g>
<!-- &#45;15°&#45;&gt;VELOCITY -->
<g id="edge2" class="edge">
<title>&#45;15°&#45;&gt;VELOCITY</title>
<path fill="none" stroke="green" stroke-width="0.31" stroke-dasharray="1,5" d="M102.51,-134.43C114.87,-122.75 138.56,-100.34 159.26,-80.77"/>
<polygon fill="green" stroke="green" stroke-width="0.31" points="161.86,-83.13 166.72,-73.71 157.05,-78.04 161.86,-83.13"/>
</g>
<!-- 0° -->
<g id="node5" class="node">
<title>0°</title>
<polygon fill="lightgray" stroke="black" points="170.5,-242.93 145.5,-242.93 145.5,-224.93 170.5,-224.93 170.5,-242.93"/>
<text text-anchor="middle" x="158" y="-231.73" font-family="Times New Roman,serif" font-size="9.00">0°</text>
</g>
<!-- 0°&#45;&gt;VELOCITY -->
<g id="edge6" class="edge">
<title>0°&#45;&gt;VELOCITY</title>
<path fill="none" stroke="green" stroke-width="0.12" d="M160.97,-224.63C165.45,-211.89 173.91,-186.67 179,-164.69 184.15,-142.43 188.34,-117.53 191.45,-96.16"/>
<polygon fill="green" stroke="green" stroke-width="0.12" points="194.96,-96.37 192.9,-85.98 188.03,-95.39 194.96,-96.37"/>
</g>
<!-- 547 -->
<g id="node11" class="node">
<title>547</title>
<ellipse fill="white" stroke="black" cx="247" cy="-143.48" rx="21.43" ry="21.43"/>
<text text-anchor="middle" x="247" y="-141.28" font-family="Times New Roman,serif" font-size="9.00">547</text>
</g>
<!-- 0°&#45;&gt;547 -->
<g id="edge10" class="edge">
<title>0°&#45;&gt;547</title>
<path fill="none" stroke="red" stroke-width="0.13" d="M162.68,-224.8C166.8,-218 173.18,-208.23 180,-200.69 192.62,-186.75 208.72,-173.14 221.97,-162.81"/>
<polygon fill="red" stroke="red" stroke-width="0.13" points="224.38,-165.37 230.2,-156.52 220.13,-159.81 224.38,-165.37"/>
</g>
<!-- 15° -->
<g id="node6" class="node">
<title>15°</title>
<polygon fill="lightgray" stroke="black" points="363.5,-321.16 334.5,-321.16 334.5,-303.16 363.5,-303.16 363.5,-321.16"/>
<text text-anchor="middle" x="349" y="-309.96" font-family="Times New Roman,serif" font-size="9.00">15°</text>
</g>
<!-- 40° -->
<g id="node7" class="node">
<title>40°</title>
<polygon fill="lightgray" stroke="black" points="131.5,-321.16 102.5,-321.16 102.5,-303.16 131.5,-303.16 131.5,-321.16"/>
<text text-anchor="middle" x="117" y="-309.96" font-family="Times New Roman,serif" font-size="9.00">40°</text>
</g>
<!-- 40°&#45;&gt;VELOCITY -->
<g id="edge3" class="edge">
<title>40°&#45;&gt;VELOCITY</title>
<path fill="none" stroke="green" stroke-width="0.46" stroke-dasharray="1,5" d="M110.95,-303.06C91.42,-275.8 33.29,-185.65 69,-122.27 85.74,-92.55 118.85,-72.84 147.33,-60.66"/>
<polygon fill="green" stroke="green" stroke-width="0.46" points="148.84,-63.82 156.79,-56.81 146.2,-57.34 148.84,-63.82"/>
</g>
<!-- 40°&#45;&gt;ANGLE -->
<g id="edge4" class="edge">
<title>40°&#45;&gt;ANGLE</title>
<path fill="none" stroke="red" stroke-width="0.33" d="M128.49,-303.14C140.99,-294.39 161.51,-279.92 179,-267.16 181.8,-265.12 184.69,-262.99 187.59,-260.85"/>
<polygon fill="red" stroke="red" stroke-width="0.33" points="189.77,-263.59 195.7,-254.81 185.59,-257.97 189.77,-263.59"/>
</g>
<!-- 583 -->
<g id="node12" class="node">
<title>583</title>
<ellipse fill="white" stroke="black" cx="149" cy="-143.48" rx="21.43" ry="21.43"/>
<text text-anchor="middle" x="149" y="-141.28" font-family="Times New Roman,serif" font-size="9.00">583</text>
</g>
<!-- 40°&#45;&gt;583 -->
<g id="edge11" class="edge">
<title>40°&#45;&gt;583</title>
<path fill="none" stroke="green" stroke-width="0.17" d="M118.23,-303.09C121.04,-284.81 128.31,-238.85 136,-200.69 137.74,-192.04 139.83,-182.68 141.81,-174.12"/>
<polygon fill="green" stroke="green" stroke-width="0.17" points="145.27,-174.73 144.15,-164.19 138.45,-173.12 145.27,-174.73"/>
</g>
<!-- 90° -->
<g id="node8" class="node">
<title>90°</title>
<polygon fill="lightgray" stroke="black" points="316.5,-321.16 287.5,-321.16 287.5,-303.16 316.5,-303.16 316.5,-321.16"/>
<text text-anchor="middle" x="302" y="-309.96" font-family="Times New Roman,serif" font-size="9.00">90°</text>
</g>
<!-- 90°&#45;&gt;VELOCITY -->
<g id="edge5" class="edge">
<title>90°&#45;&gt;VELOCITY</title>
<path fill="none" stroke="red" stroke-width="0.23" stroke-dasharray="1,5" d="M302.83,-303.02C305.23,-275.67 310.08,-185.23 277,-122.27 267.99,-105.12 253.9,-89.41 240.09,-76.64"/>
<polygon fill="red" stroke="red" stroke-width="0.23" points="242.28,-73.9 232.49,-69.85 237.62,-79.12 242.28,-73.9"/>
</g>
<!-- 90°&#45;&gt;ANGLE -->
<g id="edge9" class="edge">
<title>90°&#45;&gt;ANGLE</title>
<path fill="none" stroke="green" stroke-width="0.18" d="M293.44,-303C283.83,-293.84 267.68,-278.45 253.16,-264.62"/>
<polygon fill="green" stroke="green" stroke-width="0.18" points="255.41,-261.93 245.76,-257.57 250.58,-267 255.41,-261.93"/>
</g>
<!-- 90°&#45;&gt;547 -->
<g id="edge7" class="edge">
<title>90°&#45;&gt;547</title>
<path fill="none" stroke="green" stroke-width="0.19" d="M299.35,-303.12C291.71,-279.97 269.38,-212.31 256.49,-173.24"/>
<polygon fill="green" stroke="green" stroke-width="0.19" points="259.81,-172.13 253.35,-163.73 253.16,-174.32 259.81,-172.13"/>
</g>
<!-- 784 -->
<g id="node13" class="node">
<title>784</title>
<ellipse fill="white" stroke="black" cx="370" cy="-233.93" rx="21.43" ry="21.43"/>
<text text-anchor="middle" x="370" y="-231.73" font-family="Times New Roman,serif" font-size="9.00">784</text>
</g>
<!-- 90°&#45;&gt;784 -->
<g id="edge14" class="edge">
<title>90°&#45;&gt;784</title>
<path fill="none" stroke="red" stroke-width="0.22" d="M309.28,-303C318.79,-292.34 335.84,-273.23 349.45,-257.96"/>
<polygon fill="red" stroke="red" stroke-width="0.22" points="352.16,-260.19 356.2,-250.39 346.93,-255.53 352.16,-260.19"/>
</g>
<!-- ANGLE&#45;&gt;547 -->
<g id="edge13" class="edge">
<title>ANGLE&#45;&gt;547</title>
<path fill="none" stroke="red" stroke-width="0.16" d="M230.88,-201.5C233.43,-192.5 236.19,-182.74 238.69,-173.87"/>
<polygon fill="red" stroke="red" stroke-width="0.16" points="242.14,-174.55 241.49,-163.98 235.4,-172.65 242.14,-174.55"/>
</g>
<!-- 547&#45;&gt;VELOCITY -->
<g id="edge8" class="edge">
<title>547&#45;&gt;VELOCITY</title>
<path fill="none" stroke="red" stroke-width="0.17" d="M237.78,-123.98C233.15,-114.67 227.29,-102.92 221.51,-91.32"/>
<polygon fill="red" stroke="red" stroke-width="0.17" points="224.51,-89.49 216.92,-82.1 218.24,-92.61 224.51,-89.49"/>
</g>
<!-- 583&#45;&gt;VELOCITY -->
<g id="edge12" class="edge">
<title>583&#45;&gt;VELOCITY</title>
<path fill="none" stroke="green" stroke-width="0.58" d="M158.22,-123.98C162.85,-114.67 168.71,-102.92 174.49,-91.32"/>
<polygon fill="green" stroke="green" stroke-width="0.58" points="177.76,-92.61 179.08,-82.1 171.49,-89.49 177.76,-92.61"/>
</g>
<!-- 784&#45;&gt;VELOCITY -->
<g id="edge15" class="edge">
<title>784&#45;&gt;VELOCITY</title>
<path fill="none" stroke="red" stroke-width="0.25" d="M368.03,-212.45C364.8,-188.5 356.4,-148.76 335,-122.27 312.41,-94.3 276.96,-74.47 247.78,-61.78"/>
<polygon fill="red" stroke="red" stroke-width="0.25" points="249.12,-58.55 238.55,-57.92 246.42,-65.01 249.12,-58.55"/>
</g>
</g>
</svg>
