<?xml version="1.0" encoding="UTF-8" standalone="no"?>
<!DOCTYPE svg PUBLIC "-//W3C//DTD SVG 1.1//EN"
 "http://www.w3.org/Graphics/SVG/1.1/DTD/svg11.dtd">
<!-- Generated by graphviz version 2.47.0 (20210316.0004)
 -->
<!-- Pages: 1 -->
<svg width="378pt" height="148pt"
 viewBox="0.00 0.00 378.00 148.27" xmlns="http://www.w3.org/2000/svg" xmlns:xlink="http://www.w3.org/1999/xlink">
<g id="graph0" class="graph" transform="scale(1 1) rotate(0) translate(4 144.27)">
<polygon fill="white" stroke="transparent" points="-4,4 -4,-144.27 374,-144.27 374,4 -4,4"/>
<!-- 180° -->
<g id="node1" class="node">
<title>180°</title>
<polygon fill="lightgray" stroke="black" points="124.5,-140.27 90.5,-140.27 90.5,-122.27 124.5,-122.27 124.5,-140.27"/>
<text text-anchor="middle" x="107.5" y="-129.07" font-family="Times New Roman,serif" font-size="9.00">180°</text>
</g>
<!-- VELOCITY -->
<g id="node9" class="node">
<title>VELOCITY</title>
<ellipse fill="lightblue" stroke="black" cx="107.5" cy="-43.13" rx="43.27" ry="43.27"/>
<text text-anchor="middle" x="107.5" y="-40.93" font-family="Times New Roman,serif" font-size="9.00">VELOCITY</text>
</g>
<!-- 180°&#45;&gt;VELOCITY -->
<g id="edge1" class="edge">
<title>180°&#45;&gt;VELOCITY</title>
<path fill="none" stroke="red" stroke-width="0.14" d="M107.5,-122.01C107.5,-115.76 107.5,-106.58 107.5,-96.7"/>
<polygon fill="red" stroke="red" stroke-width="0.14" points="111,-96.67 107.5,-86.67 104,-96.67 111,-96.67"/>
</g>
<!-- ANGLE -->
<g id="node10" class="node">
<title>ANGLE</title>
<ellipse fill="lightblue" stroke="black" cx="231.5" cy="-43.13" rx="33.47" ry="33.47"/>
<text text-anchor="middle" x="231.5" y="-40.93" font-family="Times New Roman,serif" font-size="9.00">ANGLE</text>
</g>
<!-- 180°&#45;&gt;ANGLE -->
<g id="edge2" class="edge">
<title>180°&#45;&gt;ANGLE</title>
<path fill="none" stroke="green" stroke-width="0.11" stroke-dasharray="1,5" d="M119.39,-122.01C136.82,-109.9 170.02,-86.84 195.79,-68.94"/>
<polygon fill="green" stroke="green" stroke-width="0.11" points="197.99,-71.67 204.21,-63.09 194,-65.92 197.99,-71.67"/>
</g>
<!-- &#45;90° -->
<g id="node2" class="node">
<title>&#45;90°</title>
<polygon fill="lightgray" stroke="black" points="272.5,-140.27 240.5,-140.27 240.5,-122.27 272.5,-122.27 272.5,-140.27"/>
<text text-anchor="middle" x="256.5" y="-129.07" font-family="Times New Roman,serif" font-size="9.00">&#45;90°</text>
</g>
<!-- &#45;90°&#45;&gt;ANGLE -->
<g id="edge3" class="edge">
<title>&#45;90°&#45;&gt;ANGLE</title>
<path fill="none" stroke="green" stroke-width="0.14" stroke-dasharray="1,5" d="M254.1,-122.01C251.6,-113.4 247.5,-99.26 243.47,-85.37"/>
<polygon fill="green" stroke="green" stroke-width="0.14" points="246.72,-84.01 240.57,-75.38 240,-85.96 246.72,-84.01"/>
</g>
<!-- &#45;40° -->
<g id="node3" class="node">
<title>&#45;40°</title>
<polygon fill="lightgray" stroke="black" points="322.5,-140.27 290.5,-140.27 290.5,-122.27 322.5,-122.27 322.5,-140.27"/>
<text text-anchor="middle" x="306.5" y="-129.07" font-family="Times New Roman,serif" font-size="9.00">&#45;40°</text>
</g>
<!-- &#45;40°&#45;&gt;ANGLE -->
<g id="edge4" class="edge">
<title>&#45;40°&#45;&gt;ANGLE</title>
<path fill="none" stroke="green" stroke-width="0.49" d="M299.31,-122.01C290.23,-111.59 274.09,-93.04 259.83,-76.67"/>
<polygon fill="green" stroke="green" stroke-width="0.49" points="262.22,-74.09 253.02,-68.84 256.94,-78.68 262.22,-74.09"/>
</g>
<!-- &#45;15° -->
<g id="node4" class="node">
<title>&#45;15°</title>
<polygon fill="lightgray" stroke="black" points="174.5,-140.27 142.5,-140.27 142.5,-122.27 174.5,-122.27 174.5,-140.27"/>
<text text-anchor="middle" x="158.5" y="-129.07" font-family="Times New Roman,serif" font-size="9.00">&#45;15°</text>
</g>
<!-- &#45;15°&#45;&gt;VELOCITY -->
<g id="edge5" class="edge">
<title>&#45;15°&#45;&gt;VELOCITY</title>
<path fill="none" stroke="green" stroke-width="0.23" stroke-dasharray="1,5" d="M153.61,-122.01C148.99,-114.21 141.68,-101.86 134.23,-89.27"/>
<polygon fill="green" stroke="green" stroke-width="0.23" points="137.18,-87.39 129.08,-80.57 131.16,-90.96 137.18,-87.39"/>
</g>
<!-- &#45;15°&#45;&gt;ANGLE -->
<g id="edge6" class="edge">
<title>&#45;15°&#45;&gt;ANGLE</title>
<path fill="none" stroke="green" stroke-width="0.32" d="M165.5,-122.01C174.27,-111.66 189.83,-93.3 203.64,-77.01"/>
<polygon fill="green" stroke="green" stroke-width="0.32" points="206.44,-79.11 210.24,-69.22 201.1,-74.58 206.44,-79.11"/>
</g>
<!-- 0° -->
<g id="node5" class="node">
<title>0°</title>
<polygon fill="lightgray" stroke="black" points="25,-140.27 0,-140.27 0,-122.27 25,-122.27 25,-140.27"/>
<text text-anchor="middle" x="12.5" y="-129.07" font-family="Times New Roman,serif" font-size="9.00">0°</text>
</g>
<!-- 0°&#45;&gt;VELOCITY -->
<g id="edge7" class="edge">
<title>0°&#45;&gt;VELOCITY</title>
<path fill="none" stroke="green" stroke-width="0.2" stroke-dasharray="1,5" d="M21.61,-122.01C32.32,-112.3 50.82,-95.53 67.9,-80.03"/>
<polygon fill="green" stroke="green" stroke-width="0.2" points="70.57,-82.34 75.62,-73.03 65.87,-77.16 70.57,-82.34"/>
</g>
<!-- 15° -->
<g id="node6" class="node">
<title>15°</title>
<polygon fill="lightgray" stroke="black" points="370,-140.27 341,-140.27 341,-122.27 370,-122.27 370,-140.27"/>
<text text-anchor="middle" x="355.5" y="-129.07" font-family="Times New Roman,serif" font-size="9.00">15°</text>
</g>
<!-- 15°&#45;&gt;ANGLE -->
<g id="edge8" class="edge">
<title>15°&#45;&gt;ANGLE</title>
<path fill="none" stroke="red" stroke-width="0.37" d="M343.61,-122.01C326.18,-109.9 292.98,-86.84 267.21,-68.94"/>
<polygon fill="red" stroke="red" stroke-width="0.37" points="269,-65.92 258.79,-63.09 265.01,-71.67 269,-65.92"/>
</g>
<!-- 40° -->
<g id="node7" class="node">
<title>40°</title>
<polygon fill="lightgray" stroke="black" points="222,-140.27 193,-140.27 193,-122.27 222,-122.27 222,-140.27"/>
<text text-anchor="middle" x="207.5" y="-129.07" font-family="Times New Roman,serif" font-size="9.00">40°</text>
</g>
<!-- 40°&#45;&gt;VELOCITY -->
<g id="edge9" class="edge">
<title>40°&#45;&gt;VELOCITY</title>
<path fill="none" stroke="green" stroke-width="0.19" stroke-dasharray="1,5" d="M197.91,-122.01C186.28,-111.99 165.92,-94.46 147.47,-78.56"/>
<polygon fill="green" stroke="green" stroke-width="0.19" points="149.57,-75.75 139.71,-71.88 145,-81.05 149.57,-75.75"/>
</g>
<!-- 40°&#45;&gt;ANGLE -->
<g id="edge10" class="edge">
<title>40°&#45;&gt;ANGLE</title>
<path fill="none" stroke="red" stroke-width="0.34" d="M209.8,-122.01C212.2,-113.4 216.14,-99.26 220.01,-85.37"/>
<polygon fill="red" stroke="red" stroke-width="0.34" points="223.48,-85.95 222.79,-75.38 216.74,-84.07 223.48,-85.95"/>
</g>
<!-- 90° -->
<g id="node8" class="node">
<title>90°</title>
<polygon fill="lightgray" stroke="black" points="72,-140.27 43,-140.27 43,-122.27 72,-122.27 72,-140.27"/>
<text text-anchor="middle" x="57.5" y="-129.07" font-family="Times New Roman,serif" font-size="9.00">90°</text>
</g>
<!-- 90°&#45;&gt;VELOCITY -->
<g id="edge11" class="edge">
<title>90°&#45;&gt;VELOCITY</title>
<path fill="none" stroke="red" stroke-width="0.18" stroke-dasharray="1,5" d="M62.29,-122.01C66.74,-114.35 73.73,-102.31 80.9,-89.96"/>
<polygon fill="red" stroke="red" stroke-width="0.18" points="84.12,-91.38 86.11,-80.98 78.07,-87.87 84.12,-91.38"/>
</g>
</g>
</svg>
