<?xml version="1.0" encoding="UTF-8" standalone="no"?>
<!DOCTYPE svg PUBLIC "-//W3C//DTD SVG 1.1//EN"
 "http://www.w3.org/Graphics/SVG/1.1/DTD/svg11.dtd">
<!-- Generated by graphviz version 2.47.0 (20210316.0004)
 -->
<!-- Pages: 1 -->
<svg width="378pt" height="148pt"
 viewBox="0.00 0.00 378.00 148.27" xmlns="http://www.w3.org/2000/svg" xmlns:xlink="http://www.w3.org/1999/xlink">
<g id="graph0" class="graph" transform="scale(1 1) rotate(0) translate(4 144.27)">
<polygon fill="white" stroke="transparent" points="-4,4 -4,-144.27 374,-144.27 374,4 -4,4"/>
<!-- 180° -->
<g id="node1" class="node">
<title>180°</title>
<polygon fill="lightgray" stroke="black" points="124.5,-140.27 90.5,-140.27 90.5,-122.27 124.5,-122.27 124.5,-140.27"/>
<text text-anchor="middle" x="107.5" y="-129.07" font-family="Times New Roman,serif" font-size="9.00">180°</text>
</g>
<!-- VELOCITY -->
<g id="node9" class="node">
<title>VELOCITY</title>
<ellipse fill="lightblue" stroke="black" cx="82.5" cy="-43.13" rx="43.27" ry="43.27"/>
<text text-anchor="middle" x="82.5" y="-40.93" font-family="Times New Roman,serif" font-size="9.00">VELOCITY</text>
</g>
<!-- 180°&#45;&gt;VELOCITY -->
<g id="edge1" class="edge">
<title>180°&#45;&gt;VELOCITY</title>
<path fill="none" stroke="green" stroke-width="0.22" d="M105.1,-122.01C103.18,-115.37 100.29,-105.43 97.22,-94.85"/>
<polygon fill="green" stroke="green" stroke-width="0.22" points="100.52,-93.67 94.37,-85.04 93.8,-95.62 100.52,-93.67"/>
</g>
<!-- ANGLE -->
<g id="node10" class="node">
<title>ANGLE</title>
<ellipse fill="lightblue" stroke="black" cx="231.5" cy="-43.13" rx="33.47" ry="33.47"/>
<text text-anchor="middle" x="231.5" y="-40.93" font-family="Times New Roman,serif" font-size="9.00">ANGLE</text>
</g>
<!-- 180°&#45;&gt;ANGLE -->
<g id="edge2" class="edge">
<title>180°&#45;&gt;ANGLE</title>
<path fill="none" stroke="red" stroke-width="0.17" stroke-dasharray="1,5" d="M119.39,-122.01C136.82,-109.9 170.02,-86.84 195.79,-68.94"/>
<polygon fill="red" stroke="red" stroke-width="0.17" points="197.99,-71.67 204.21,-63.09 194,-65.92 197.99,-71.67"/>
</g>
<!-- &#45;90° -->
<g id="node2" class="node">
<title>&#45;90°</title>
<polygon fill="lightgray" stroke="black" points="222.5,-140.27 190.5,-140.27 190.5,-122.27 222.5,-122.27 222.5,-140.27"/>
<text text-anchor="middle" x="206.5" y="-129.07" font-family="Times New Roman,serif" font-size="9.00">&#45;90°</text>
</g>
<!-- &#45;90°&#45;&gt;ANGLE -->
<g id="edge3" class="edge">
<title>&#45;90°&#45;&gt;ANGLE</title>
<path fill="none" stroke="green" stroke-width="0.11" stroke-dasharray="1,5" d="M208.9,-122.01C211.4,-113.4 215.5,-99.26 219.53,-85.37"/>
<polygon fill="green" stroke="green" stroke-width="0.11" points="223,-85.96 222.43,-75.38 216.28,-84.01 223,-85.96"/>
</g>
<!-- &#45;40° -->
<g id="node3" class="node">
<title>&#45;40°</title>
<polygon fill="lightgray" stroke="black" points="272.5,-140.27 240.5,-140.27 240.5,-122.27 272.5,-122.27 272.5,-140.27"/>
<text text-anchor="middle" x="256.5" y="-129.07" font-family="Times New Roman,serif" font-size="9.00">&#45;40°</text>
</g>
<!-- &#45;40°&#45;&gt;ANGLE -->
<g id="edge4" class="edge">
<title>&#45;40°&#45;&gt;ANGLE</title>
<path fill="none" stroke="green" stroke-width="0.49" d="M254.1,-122.01C251.6,-113.4 247.5,-99.26 243.47,-85.37"/>
<polygon fill="green" stroke="green" stroke-width="0.49" points="246.72,-84.01 240.57,-75.38 240,-85.96 246.72,-84.01"/>
</g>
<!-- &#45;15° -->
<g id="node4" class="node">
<title>&#45;15°</title>
<polygon fill="lightgray" stroke="black" points="322.5,-140.27 290.5,-140.27 290.5,-122.27 322.5,-122.27 322.5,-140.27"/>
<text text-anchor="middle" x="306.5" y="-129.07" font-family="Times New Roman,serif" font-size="9.00">&#45;15°</text>
</g>
<!-- &#45;15°&#45;&gt;ANGLE -->
<g id="edge5" class="edge">
<title>&#45;15°&#45;&gt;ANGLE</title>
<path fill="none" stroke="green" stroke-width="0.28" d="M299.31,-122.01C290.23,-111.59 274.09,-93.04 259.83,-76.67"/>
<polygon fill="green" stroke="green" stroke-width="0.28" points="262.22,-74.09 253.02,-68.84 256.94,-78.68 262.22,-74.09"/>
</g>
<!-- 0° -->
<g id="node5" class="node">
<title>0°</title>
<polygon fill="lightgray" stroke="black" points="25,-140.27 0,-140.27 0,-122.27 25,-122.27 25,-140.27"/>
<text text-anchor="middle" x="12.5" y="-129.07" font-family="Times New Roman,serif" font-size="9.00">0°</text>
</g>
<!-- 0°&#45;&gt;VELOCITY -->
<g id="edge6" class="edge">
<title>0°&#45;&gt;VELOCITY</title>
<path fill="none" stroke="green" stroke-width="0.31" stroke-dasharray="1,5" d="M19.21,-122.01C26.19,-113.42 37.65,-99.32 48.92,-85.45"/>
<polygon fill="green" stroke="green" stroke-width="0.31" points="51.9,-87.33 55.5,-77.36 46.47,-82.91 51.9,-87.33"/>
</g>
<!-- 15° -->
<g id="node6" class="node">
<title>15°</title>
<polygon fill="lightgray" stroke="black" points="370,-140.27 341,-140.27 341,-122.27 370,-122.27 370,-140.27"/>
<text text-anchor="middle" x="355.5" y="-129.07" font-family="Times New Roman,serif" font-size="9.00">15°</text>
</g>
<!-- 15°&#45;&gt;ANGLE -->
<g id="edge7" class="edge">
<title>15°&#45;&gt;ANGLE</title>
<path fill="none" stroke="red" stroke-width="0.14" d="M343.61,-122.01C326.18,-109.9 292.98,-86.84 267.21,-68.94"/>
<polygon fill="red" stroke="red" stroke-width="0.14" points="269,-65.92 258.79,-63.09 265.01,-71.67 269,-65.92"/>
</g>
<!-- 40° -->
<g id="node7" class="node">
<title>40°</title>
<polygon fill="lightgray" stroke="black" points="172,-140.27 143,-140.27 143,-122.27 172,-122.27 172,-140.27"/>
<text text-anchor="middle" x="157.5" y="-129.07" font-family="Times New Roman,serif" font-size="9.00">40°</text>
</g>
<!-- 40°&#45;&gt;VELOCITY -->
<g id="edge8" class="edge">
<title>40°&#45;&gt;VELOCITY</title>
<path fill="none" stroke="green" stroke-width="0.13" stroke-dasharray="1,5" d="M150.31,-122.01C142.57,-113.13 129.7,-98.34 117.24,-84.03"/>
<polygon fill="green" stroke="green" stroke-width="0.13" points="119.6,-81.41 110.4,-76.17 114.32,-86.01 119.6,-81.41"/>
</g>
<!-- 40°&#45;&gt;ANGLE -->
<g id="edge9" class="edge">
<title>40°&#45;&gt;ANGLE</title>
<path fill="none" stroke="red" stroke-width="0.38" d="M164.6,-122.01C173.55,-111.59 189.48,-93.04 203.55,-76.67"/>
<polygon fill="red" stroke="red" stroke-width="0.38" points="206.41,-78.71 210.27,-68.84 201.1,-74.15 206.41,-78.71"/>
</g>
<!-- 90° -->
<g id="node8" class="node">
<title>90°</title>
<polygon fill="lightgray" stroke="black" points="72,-140.27 43,-140.27 43,-122.27 72,-122.27 72,-140.27"/>
<text text-anchor="middle" x="57.5" y="-129.07" font-family="Times New Roman,serif" font-size="9.00">90°</text>
</g>
<!-- 90°&#45;&gt;VELOCITY -->
<g id="edge10" class="edge">
<title>90°&#45;&gt;VELOCITY</title>
<path fill="none" stroke="red" stroke-width="0.25" stroke-dasharray="1,5" d="M59.9,-122.01C61.82,-115.37 64.71,-105.43 67.78,-94.85"/>
<polygon fill="red" stroke="red" stroke-width="0.25" points="71.2,-95.62 70.63,-85.04 64.48,-93.67 71.2,-95.62"/>
</g>
</g>
</svg>
