<?xml version="1.0" encoding="UTF-8" standalone="no"?>
<!DOCTYPE svg PUBLIC "-//W3C//DTD SVG 1.1//EN"
 "http://www.w3.org/Graphics/SVG/1.1/DTD/svg11.dtd">
<!-- Generated by graphviz version 2.47.0 (20210316.0004)
 -->
<!-- Pages: 1 -->
<svg width="399pt" height="251pt"
 viewBox="0.00 0.00 398.50 250.74" xmlns="http://www.w3.org/2000/svg" xmlns:xlink="http://www.w3.org/1999/xlink">
<g id="graph0" class="graph" transform="scale(1 1) rotate(0) translate(4 246.74)">
<polygon fill="white" stroke="transparent" points="-4,4 -4,-246.74 394.5,-246.74 394.5,4 -4,4"/>
<!-- 180° -->
<g id="node1" class="node">
<title>180°</title>
<polygon fill="lightgray" stroke="black" points="34,-164.5 0,-164.5 0,-146.5 34,-146.5 34,-164.5"/>
<text text-anchor="middle" x="17" y="-153.3" font-family="Times New Roman,serif" font-size="9.00">180°</text>
</g>
<!-- VELOCITY -->
<g id="node9" class="node">
<title>VELOCITY</title>
<ellipse fill="lightblue" stroke="black" cx="135" cy="-43.13" rx="43.27" ry="43.27"/>
<text text-anchor="middle" x="135" y="-40.93" font-family="Times New Roman,serif" font-size="9.00">VELOCITY</text>
</g>
<!-- 180°&#45;&gt;VELOCITY -->
<g id="edge1" class="edge">
<title>180°&#45;&gt;VELOCITY</title>
<path fill="none" stroke="green" stroke-width="0.15" stroke-dasharray="1,5" d="M22.81,-146.47C27.84,-139.73 35.47,-129.99 43,-122.27 58.59,-106.28 77.14,-90.06 93.49,-76.58"/>
<polygon fill="green" stroke="green" stroke-width="0.15" points="95.78,-79.23 101.31,-70.19 91.35,-73.8 95.78,-79.23"/>
</g>
<!-- &#45;90° -->
<g id="node2" class="node">
<title>&#45;90°</title>
<polygon fill="lightgray" stroke="black" points="343,-242.74 311,-242.74 311,-224.74 343,-224.74 343,-242.74"/>
<text text-anchor="middle" x="327" y="-231.54" font-family="Times New Roman,serif" font-size="9.00">&#45;90°</text>
</g>
<!-- &#45;40° -->
<g id="node3" class="node">
<title>&#45;40°</title>
<polygon fill="lightgray" stroke="black" points="233,-242.74 201,-242.74 201,-224.74 233,-224.74 233,-242.74"/>
<text text-anchor="middle" x="217" y="-231.54" font-family="Times New Roman,serif" font-size="9.00">&#45;40°</text>
</g>
<!-- ANGLE -->
<g id="node10" class="node">
<title>ANGLE</title>
<ellipse fill="lightblue" stroke="black" cx="217" cy="-155.5" rx="33.47" ry="33.47"/>
<text text-anchor="middle" x="217" y="-153.3" font-family="Times New Roman,serif" font-size="9.00">ANGLE</text>
</g>
<!-- &#45;40°&#45;&gt;ANGLE -->
<g id="edge2" class="edge">
<title>&#45;40°&#45;&gt;ANGLE</title>
<path fill="none" stroke="green" stroke-width="0.42" d="M217,-224.58C217,-218.25 217,-208.94 217,-199.23"/>
<polygon fill="green" stroke="green" stroke-width="0.42" points="220.5,-199.07 217,-189.07 213.5,-199.07 220.5,-199.07"/>
</g>
<!-- &#45;15° -->
<g id="node4" class="node">
<title>&#45;15°</title>
<polygon fill="lightgray" stroke="black" points="84,-164.5 52,-164.5 52,-146.5 84,-146.5 84,-164.5"/>
<text text-anchor="middle" x="68" y="-153.3" font-family="Times New Roman,serif" font-size="9.00">&#45;15°</text>
</g>
<!-- &#45;15°&#45;&gt;VELOCITY -->
<g id="edge3" class="edge">
<title>&#45;15°&#45;&gt;VELOCITY</title>
<path fill="none" stroke="green" stroke-width="0.35" stroke-dasharray="1,5" d="M73.04,-146.21C80.42,-134.04 94.71,-110.49 107.72,-89.08"/>
<polygon fill="green" stroke="green" stroke-width="0.35" points="110.8,-90.75 113,-80.38 104.81,-87.11 110.8,-90.75"/>
</g>
<!-- 0° -->
<g id="node5" class="node">
<title>0°</title>
<polygon fill="lightgray" stroke="black" points="127.5,-164.5 102.5,-164.5 102.5,-146.5 127.5,-146.5 127.5,-164.5"/>
<text text-anchor="middle" x="115" y="-153.3" font-family="Times New Roman,serif" font-size="9.00">0°</text>
</g>
<!-- 0°&#45;&gt;VELOCITY -->
<g id="edge7" class="edge">
<title>0°&#45;&gt;VELOCITY</title>
<path fill="none" stroke="red" stroke-width="0.31" d="M116.5,-146.21C118.48,-135.32 122.1,-115.31 125.63,-95.87"/>
<polygon fill="red" stroke="red" stroke-width="0.31" points="129.11,-96.27 127.45,-85.81 122.22,-95.02 129.11,-96.27"/>
</g>
<!-- 15° -->
<g id="node6" class="node">
<title>15°</title>
<polygon fill="lightgray" stroke="black" points="390.5,-242.74 361.5,-242.74 361.5,-224.74 390.5,-224.74 390.5,-242.74"/>
<text text-anchor="middle" x="376" y="-231.54" font-family="Times New Roman,serif" font-size="9.00">15°</text>
</g>
<!-- 40° -->
<g id="node7" class="node">
<title>40°</title>
<polygon fill="lightgray" stroke="black" points="176.5,-242.74 147.5,-242.74 147.5,-224.74 176.5,-224.74 176.5,-242.74"/>
<text text-anchor="middle" x="162" y="-231.54" font-family="Times New Roman,serif" font-size="9.00">40°</text>
</g>
<!-- 40°&#45;&gt;VELOCITY -->
<g id="edge4" class="edge">
<title>40°&#45;&gt;VELOCITY</title>
<path fill="none" stroke="red" stroke-width="0.14" stroke-dasharray="1,5" d="M160.84,-224.63C157.71,-202.74 148.87,-141.01 142.4,-95.82"/>
<polygon fill="red" stroke="red" stroke-width="0.14" points="145.86,-95.28 140.98,-85.87 138.93,-96.27 145.86,-95.28"/>
</g>
<!-- 40°&#45;&gt;ANGLE -->
<g id="edge5" class="edge">
<title>40°&#45;&gt;ANGLE</title>
<path fill="none" stroke="red" stroke-width="0.32" d="M167.89,-224.58C173.7,-216.52 182.98,-203.65 191.92,-191.26"/>
<polygon fill="red" stroke="red" stroke-width="0.32" points="195,-192.98 198.01,-182.82 189.32,-188.89 195,-192.98"/>
</g>
<!-- 90° -->
<g id="node8" class="node">
<title>90°</title>
<polygon fill="lightgray" stroke="black" points="292.5,-242.74 263.5,-242.74 263.5,-224.74 292.5,-224.74 292.5,-242.74"/>
<text text-anchor="middle" x="278" y="-231.54" font-family="Times New Roman,serif" font-size="9.00">90°</text>
</g>
<!-- 90°&#45;&gt;VELOCITY -->
<g id="edge6" class="edge">
<title>90°&#45;&gt;VELOCITY</title>
<path fill="none" stroke="green" stroke-width="0.22" stroke-dasharray="1,5" d="M278.72,-224.71C280.04,-205.33 280.96,-155.11 259,-122.27 241.1,-95.49 210.58,-76.1 184.31,-63.32"/>
<polygon fill="green" stroke="green" stroke-width="0.22" points="185.76,-60.14 175.22,-59.08 182.8,-66.48 185.76,-60.14"/>
</g>
<!-- 90°&#45;&gt;ANGLE -->
<g id="edge10" class="edge">
<title>90°&#45;&gt;ANGLE</title>
<path fill="none" stroke="green" stroke-width="0.31" d="M271.47,-224.58C264.8,-216.24 254,-202.75 243.77,-189.96"/>
<polygon fill="green" stroke="green" stroke-width="0.31" points="246.5,-187.77 237.52,-182.14 241.03,-192.14 246.5,-187.77"/>
</g>
<!-- 547 -->
<g id="node11" class="node">
<title>547</title>
<ellipse fill="white" stroke="black" cx="327" cy="-155.5" rx="21.43" ry="21.43"/>
<text text-anchor="middle" x="327" y="-153.3" font-family="Times New Roman,serif" font-size="9.00">547</text>
</g>
<!-- 90°&#45;&gt;547 -->
<g id="edge8" class="edge">
<title>90°&#45;&gt;547</title>
<path fill="none" stroke="green" stroke-width="0.39" d="M283.24,-224.58C289.66,-214.59 300.85,-197.19 310.3,-182.48"/>
<polygon fill="green" stroke="green" stroke-width="0.39" points="313.45,-184.06 315.91,-173.76 307.56,-180.28 313.45,-184.06"/>
</g>
<!-- 547&#45;&gt;VELOCITY -->
<g id="edge9" class="edge">
<title>547&#45;&gt;VELOCITY</title>
<path fill="none" stroke="green" stroke-width="0.21" d="M312.8,-139.71C306.73,-133.85 299.35,-127.33 292,-122.27 257.99,-98.85 215.96,-78.32 183.94,-64.18"/>
<polygon fill="green" stroke="green" stroke-width="0.21" points="185.34,-60.97 174.77,-60.19 182.54,-67.39 185.34,-60.97"/>
</g>
</g>
</svg>
