<?xml version="1.0" encoding="UTF-8" standalone="no"?>
<!DOCTYPE svg PUBLIC "-//W3C//DTD SVG 1.1//EN"
 "http://www.w3.org/Graphics/SVG/1.1/DTD/svg11.dtd">
<!-- Generated by graphviz version 2.47.0 (20210316.0004)
 -->
<!-- Pages: 1 -->
<svg width="357pt" height="227pt"
 viewBox="0.00 0.00 357.46 226.69" xmlns="http://www.w3.org/2000/svg" xmlns:xlink="http://www.w3.org/1999/xlink">
<g id="graph0" class="graph" transform="scale(1 1) rotate(0) translate(4 222.69)">
<polygon fill="white" stroke="transparent" points="-4,4 -4,-222.69 353.46,-222.69 353.46,4 -4,4"/>
<!-- 180° -->
<g id="node1" class="node">
<title>180°</title>
<polygon fill="lightgray" stroke="black" points="50.96,-218.69 16.96,-218.69 16.96,-200.69 50.96,-200.69 50.96,-218.69"/>
<text text-anchor="middle" x="33.96" y="-207.49" font-family="Times New Roman,serif" font-size="9.00">180°</text>
</g>
<!-- VELOCITY -->
<g id="node9" class="node">
<title>VELOCITY</title>
<ellipse fill="lightblue" stroke="black" cx="82.96" cy="-43.13" rx="43.27" ry="43.27"/>
<text text-anchor="middle" x="82.96" y="-40.93" font-family="Times New Roman,serif" font-size="9.00">VELOCITY</text>
</g>
<!-- 180°&#45;&gt;VELOCITY -->
<g id="edge1" class="edge">
<title>180°&#45;&gt;VELOCITY</title>
<path fill="none" stroke="red" stroke-width="0.1" stroke-dasharray="1,5" d="M26.56,-200.69C19.44,-192.4 9.16,-178.71 4.96,-164.69 -0.46,-146.63 -2.25,-139.69 4.96,-122.27 12.38,-104.33 26.13,-88.36 40.04,-75.61"/>
<polygon fill="red" stroke="red" stroke-width="0.1" points="42.53,-78.08 47.75,-68.86 37.92,-72.82 42.53,-78.08"/>
</g>
<!-- 471 -->
<g id="node11" class="node">
<title>471</title>
<ellipse fill="white" stroke="black" cx="82.96" cy="-143.48" rx="21.43" ry="21.43"/>
<text text-anchor="middle" x="82.96" y="-141.28" font-family="Times New Roman,serif" font-size="9.00">471</text>
</g>
<!-- 180°&#45;&gt;471 -->
<g id="edge10" class="edge">
<title>180°&#45;&gt;471</title>
<path fill="none" stroke="red" stroke-width="0.15" d="M40.16,-200.56C46.2,-192.65 55.67,-180.24 64.17,-169.1"/>
<polygon fill="red" stroke="red" stroke-width="0.15" points="67.12,-171 70.41,-160.93 61.56,-166.75 67.12,-171"/>
</g>
<!-- &#45;90° -->
<g id="node2" class="node">
<title>&#45;90°</title>
<polygon fill="lightgray" stroke="black" points="251.96,-152.48 219.96,-152.48 219.96,-134.48 251.96,-134.48 251.96,-152.48"/>
<text text-anchor="middle" x="235.96" y="-141.28" font-family="Times New Roman,serif" font-size="9.00">&#45;90°</text>
</g>
<!-- ANGLE -->
<g id="node10" class="node">
<title>ANGLE</title>
<ellipse fill="lightblue" stroke="black" cx="235.96" cy="-43.13" rx="33.47" ry="33.47"/>
<text text-anchor="middle" x="235.96" y="-40.93" font-family="Times New Roman,serif" font-size="9.00">ANGLE</text>
</g>
<!-- &#45;90°&#45;&gt;ANGLE -->
<g id="edge2" class="edge">
<title>&#45;90°&#45;&gt;ANGLE</title>
<path fill="none" stroke="green" stroke-width="0.3" stroke-dasharray="1,5" d="M235.96,-134.43C235.96,-123.88 235.96,-104.57 235.96,-86.51"/>
<polygon fill="green" stroke="green" stroke-width="0.3" points="239.46,-86.38 235.96,-76.38 232.46,-86.38 239.46,-86.38"/>
</g>
<!-- &#45;40° -->
<g id="node3" class="node">
<title>&#45;40°</title>
<polygon fill="lightgray" stroke="black" points="301.96,-152.48 269.96,-152.48 269.96,-134.48 301.96,-134.48 301.96,-152.48"/>
<text text-anchor="middle" x="285.96" y="-141.28" font-family="Times New Roman,serif" font-size="9.00">&#45;40°</text>
</g>
<!-- &#45;40°&#45;&gt;ANGLE -->
<g id="edge3" class="edge">
<title>&#45;40°&#45;&gt;ANGLE</title>
<path fill="none" stroke="green" stroke-width="0.47" d="M281.87,-134.43C276.09,-123.08 265.17,-101.6 255.43,-82.44"/>
<polygon fill="green" stroke="green" stroke-width="0.47" points="258.43,-80.6 250.77,-73.27 252.19,-83.78 258.43,-80.6"/>
</g>
<!-- &#45;15° -->
<g id="node4" class="node">
<title>&#45;15°</title>
<polygon fill="lightgray" stroke="black" points="153.96,-152.48 121.96,-152.48 121.96,-134.48 153.96,-134.48 153.96,-152.48"/>
<text text-anchor="middle" x="137.96" y="-141.28" font-family="Times New Roman,serif" font-size="9.00">&#45;15°</text>
</g>
<!-- &#45;15°&#45;&gt;VELOCITY -->
<g id="edge4" class="edge">
<title>&#45;15°&#45;&gt;VELOCITY</title>
<path fill="none" stroke="green" stroke-width="0.23" stroke-dasharray="1,5" d="M133.46,-134.43C127.95,-124.59 118.19,-107.13 108.71,-90.18"/>
<polygon fill="green" stroke="green" stroke-width="0.23" points="111.73,-88.42 103.8,-81.4 105.62,-91.83 111.73,-88.42"/>
</g>
<!-- &#45;15°&#45;&gt;ANGLE -->
<g id="edge5" class="edge">
<title>&#45;15°&#45;&gt;ANGLE</title>
<path fill="none" stroke="red" stroke-width="0.27" d="M145.98,-134.43C158.9,-121.46 184.98,-95.29 205.75,-74.45"/>
<polygon fill="red" stroke="red" stroke-width="0.27" points="208.27,-76.88 212.85,-67.33 203.31,-71.94 208.27,-76.88"/>
</g>
<!-- 0° -->
<g id="node5" class="node">
<title>0°</title>
<polygon fill="lightgray" stroke="black" points="94.46,-218.69 69.46,-218.69 69.46,-200.69 94.46,-200.69 94.46,-218.69"/>
<text text-anchor="middle" x="81.96" y="-207.49" font-family="Times New Roman,serif" font-size="9.00">0°</text>
</g>
<!-- 15° -->
<g id="node6" class="node">
<title>15°</title>
<polygon fill="lightgray" stroke="black" points="349.46,-152.48 320.46,-152.48 320.46,-134.48 349.46,-134.48 349.46,-152.48"/>
<text text-anchor="middle" x="334.96" y="-141.28" font-family="Times New Roman,serif" font-size="9.00">15°</text>
</g>
<!-- 15°&#45;&gt;ANGLE -->
<g id="edge6" class="edge">
<title>15°&#45;&gt;ANGLE</title>
<path fill="none" stroke="green" stroke-width="0.14" d="M326.86,-134.43C313.8,-121.46 287.46,-95.29 266.47,-74.45"/>
<polygon fill="green" stroke="green" stroke-width="0.14" points="268.87,-71.89 259.31,-67.33 263.93,-76.86 268.87,-71.89"/>
</g>
<!-- 40° -->
<g id="node7" class="node">
<title>40°</title>
<polygon fill="lightgray" stroke="black" points="201.46,-152.48 172.46,-152.48 172.46,-134.48 201.46,-134.48 201.46,-152.48"/>
<text text-anchor="middle" x="186.96" y="-141.28" font-family="Times New Roman,serif" font-size="9.00">40°</text>
</g>
<!-- 40°&#45;&gt;VELOCITY -->
<g id="edge7" class="edge">
<title>40°&#45;&gt;VELOCITY</title>
<path fill="none" stroke="green" stroke-width="0.26" stroke-dasharray="1,5" d="M178.45,-134.43C166.09,-122.75 142.39,-100.34 121.7,-80.77"/>
<polygon fill="green" stroke="green" stroke-width="0.26" points="123.91,-78.04 114.24,-73.71 119.1,-83.13 123.91,-78.04"/>
</g>
<!-- 40°&#45;&gt;ANGLE -->
<g id="edge8" class="edge">
<title>40°&#45;&gt;ANGLE</title>
<path fill="none" stroke="red" stroke-width="0.33" d="M190.97,-134.43C196.63,-123.08 207.33,-101.6 216.87,-82.44"/>
<polygon fill="red" stroke="red" stroke-width="0.33" points="220.11,-83.79 221.44,-73.27 213.85,-80.66 220.11,-83.79"/>
</g>
<!-- 90° -->
<g id="node8" class="node">
<title>90°</title>
<polygon fill="lightgray" stroke="black" points="43.46,-152.48 14.46,-152.48 14.46,-134.48 43.46,-134.48 43.46,-152.48"/>
<text text-anchor="middle" x="28.96" y="-141.28" font-family="Times New Roman,serif" font-size="9.00">90°</text>
</g>
<!-- 90°&#45;&gt;VELOCITY -->
<g id="edge9" class="edge">
<title>90°&#45;&gt;VELOCITY</title>
<path fill="none" stroke="red" stroke-width="0.12" stroke-dasharray="1,5" d="M33.38,-134.43C38.78,-124.59 48.37,-107.13 57.68,-90.18"/>
<polygon fill="red" stroke="red" stroke-width="0.12" points="60.75,-91.85 62.5,-81.4 54.62,-88.48 60.75,-91.85"/>
</g>
<!-- 471&#45;&gt;VELOCITY -->
<g id="edge11" class="edge">
<title>471&#45;&gt;VELOCITY</title>
<path fill="none" stroke="red" stroke-width="0.14" d="M82.96,-122.1C82.96,-114.58 82.96,-105.67 82.96,-96.61"/>
<polygon fill="red" stroke="red" stroke-width="0.14" points="86.46,-96.39 82.96,-86.39 79.46,-96.39 86.46,-96.39"/>
</g>
</g>
</svg>
