<?xml version="1.0" encoding="UTF-8" standalone="no"?>
<!DOCTYPE svg PUBLIC "-//W3C//DTD SVG 1.1//EN"
 "http://www.w3.org/Graphics/SVG/1.1/DTD/svg11.dtd">
<!-- Generated by graphviz version 2.47.0 (20210316.0004)
 -->
<!-- Pages: 1 -->
<svg width="463pt" height="329pt"
 viewBox="0.00 0.00 463.00 329.16" xmlns="http://www.w3.org/2000/svg" xmlns:xlink="http://www.w3.org/1999/xlink">
<g id="graph0" class="graph" transform="scale(1 1) rotate(0) translate(4 325.16)">
<polygon fill="white" stroke="transparent" points="-4,4 -4,-325.16 459,-325.16 459,4 -4,4"/>
<!-- 180° -->
<g id="node1" class="node">
<title>180°</title>
<polygon fill="lightgray" stroke="black" points="34,-321.16 0,-321.16 0,-303.16 34,-303.16 34,-321.16"/>
<text text-anchor="middle" x="17" y="-309.96" font-family="Times New Roman,serif" font-size="9.00">180°</text>
</g>
<!-- &#45;90° -->
<g id="node2" class="node">
<title>&#45;90°</title>
<polygon fill="lightgray" stroke="black" points="84,-321.16 52,-321.16 52,-303.16 84,-303.16 84,-321.16"/>
<text text-anchor="middle" x="68" y="-309.96" font-family="Times New Roman,serif" font-size="9.00">&#45;90°</text>
</g>
<!-- &#45;40° -->
<g id="node3" class="node">
<title>&#45;40°</title>
<polygon fill="lightgray" stroke="black" points="290,-321.16 258,-321.16 258,-303.16 290,-303.16 290,-321.16"/>
<text text-anchor="middle" x="274" y="-309.96" font-family="Times New Roman,serif" font-size="9.00">&#45;40°</text>
</g>
<!-- ANGLE -->
<g id="node10" class="node">
<title>ANGLE</title>
<ellipse fill="lightblue" stroke="black" cx="274" cy="-233.93" rx="33.47" ry="33.47"/>
<text text-anchor="middle" x="274" y="-231.73" font-family="Times New Roman,serif" font-size="9.00">ANGLE</text>
</g>
<!-- &#45;40°&#45;&gt;ANGLE -->
<g id="edge1" class="edge">
<title>&#45;40°&#45;&gt;ANGLE</title>
<path fill="none" stroke="green" stroke-width="0.4" d="M274,-303C274,-296.67 274,-287.37 274,-277.66"/>
<polygon fill="green" stroke="green" stroke-width="0.4" points="277.5,-277.5 274,-267.5 270.5,-277.5 277.5,-277.5"/>
</g>
<!-- &#45;15° -->
<g id="node4" class="node">
<title>&#45;15°</title>
<polygon fill="lightgray" stroke="black" points="455,-152.48 423,-152.48 423,-134.48 455,-134.48 455,-152.48"/>
<text text-anchor="middle" x="439" y="-141.28" font-family="Times New Roman,serif" font-size="9.00">&#45;15°</text>
</g>
<!-- VELOCITY -->
<g id="node9" class="node">
<title>VELOCITY</title>
<ellipse fill="lightblue" stroke="black" cx="335" cy="-43.13" rx="43.27" ry="43.27"/>
<text text-anchor="middle" x="335" y="-40.93" font-family="Times New Roman,serif" font-size="9.00">VELOCITY</text>
</g>
<!-- &#45;15°&#45;&gt;VELOCITY -->
<g id="edge2" class="edge">
<title>&#45;15°&#45;&gt;VELOCITY</title>
<path fill="none" stroke="green" stroke-width="0.21" stroke-dasharray="1,5" d="M430.49,-134.43C418.13,-122.75 394.44,-100.34 373.74,-80.77"/>
<polygon fill="green" stroke="green" stroke-width="0.21" points="375.95,-78.04 366.28,-73.71 371.14,-83.13 375.95,-78.04"/>
</g>
<!-- 0° -->
<g id="node5" class="node">
<title>0°</title>
<polygon fill="lightgray" stroke="black" points="127.5,-321.16 102.5,-321.16 102.5,-303.16 127.5,-303.16 127.5,-321.16"/>
<text text-anchor="middle" x="115" y="-309.96" font-family="Times New Roman,serif" font-size="9.00">0°</text>
</g>
<!-- 0°&#45;&gt;VELOCITY -->
<g id="edge5" class="edge">
<title>0°&#45;&gt;VELOCITY</title>
<path fill="none" stroke="green" stroke-width="0.17" d="M112.59,-303.03C107.45,-284.24 97,-236.64 111,-200.69 139.97,-126.3 227.63,-82.06 284.31,-60.48"/>
<polygon fill="green" stroke="green" stroke-width="0.17" points="285.66,-63.72 293.82,-56.96 283.23,-57.15 285.66,-63.72"/>
</g>
<!-- 547 -->
<g id="node11" class="node">
<title>547</title>
<ellipse fill="white" stroke="black" cx="213" cy="-143.48" rx="21.43" ry="21.43"/>
<text text-anchor="middle" x="213" y="-141.28" font-family="Times New Roman,serif" font-size="9.00">547</text>
</g>
<!-- 0°&#45;&gt;547 -->
<g id="edge9" class="edge">
<title>0°&#45;&gt;547</title>
<path fill="none" stroke="green" stroke-width="0.13" stroke-dasharray="1,5" d="M114.39,-302.93C113.34,-283.51 113.07,-233.97 134,-200.69 146.02,-181.58 167.14,-167.06 184.52,-157.57"/>
<polygon fill="green" stroke="green" stroke-width="0.13" points="186.43,-160.52 193.71,-152.82 183.22,-154.3 186.43,-160.52"/>
</g>
<!-- 889 -->
<g id="node15" class="node">
<title>889</title>
<ellipse fill="white" stroke="black" cx="164" cy="-233.93" rx="21.43" ry="21.43"/>
<text text-anchor="middle" x="164" y="-231.73" font-family="Times New Roman,serif" font-size="9.00">889</text>
</g>
<!-- 0°&#45;&gt;889 -->
<g id="edge15" class="edge">
<title>0°&#45;&gt;889</title>
<path fill="none" stroke="green" stroke-width="0.35" d="M120.24,-303C126.66,-293.02 137.85,-275.61 147.3,-260.9"/>
<polygon fill="green" stroke="green" stroke-width="0.35" points="150.45,-262.49 152.91,-252.18 144.56,-258.7 150.45,-262.49"/>
</g>
<!-- 15° -->
<g id="node6" class="node">
<title>15°</title>
<polygon fill="lightgray" stroke="black" points="415.5,-321.16 386.5,-321.16 386.5,-303.16 415.5,-303.16 415.5,-321.16"/>
<text text-anchor="middle" x="401" y="-309.96" font-family="Times New Roman,serif" font-size="9.00">15°</text>
</g>
<!-- 40° -->
<g id="node7" class="node">
<title>40°</title>
<polygon fill="lightgray" stroke="black" points="368.5,-321.16 339.5,-321.16 339.5,-303.16 368.5,-303.16 368.5,-321.16"/>
<text text-anchor="middle" x="354" y="-309.96" font-family="Times New Roman,serif" font-size="9.00">40°</text>
</g>
<!-- 40°&#45;&gt;VELOCITY -->
<g id="edge3" class="edge">
<title>40°&#45;&gt;VELOCITY</title>
<path fill="none" stroke="red" stroke-width="0.39" stroke-dasharray="1,5" d="M353.41,-302.88C351.22,-272.13 343.45,-162.9 338.73,-96.59"/>
<polygon fill="red" stroke="red" stroke-width="0.39" points="342.2,-96.06 338,-86.33 335.22,-96.56 342.2,-96.06"/>
</g>
<!-- 40°&#45;&gt;ANGLE -->
<g id="edge4" class="edge">
<title>40°&#45;&gt;ANGLE</title>
<path fill="none" stroke="red" stroke-width="0.38" d="M345.44,-303C335.83,-293.84 319.68,-278.45 305.16,-264.62"/>
<polygon fill="red" stroke="red" stroke-width="0.38" points="307.41,-261.93 297.76,-257.57 302.58,-267 307.41,-261.93"/>
</g>
<!-- 583 -->
<g id="node12" class="node">
<title>583</title>
<ellipse fill="white" stroke="black" cx="384" cy="-143.48" rx="21.43" ry="21.43"/>
<text text-anchor="middle" x="384" y="-141.28" font-family="Times New Roman,serif" font-size="9.00">583</text>
</g>
<!-- 40°&#45;&gt;583 -->
<g id="edge10" class="edge">
<title>40°&#45;&gt;583</title>
<path fill="none" stroke="red" stroke-width="0.41" stroke-dasharray="1,5" d="M355.45,-303.12C359.56,-280.25 371.5,-213.93 378.57,-174.65"/>
<polygon fill="red" stroke="red" stroke-width="0.41" points="382.05,-175.05 380.38,-164.59 375.17,-173.81 382.05,-175.05"/>
</g>
<!-- 876 -->
<g id="node13" class="node">
<title>876</title>
<ellipse fill="white" stroke="black" cx="422" cy="-233.93" rx="21.43" ry="21.43"/>
<text text-anchor="middle" x="422" y="-231.73" font-family="Times New Roman,serif" font-size="9.00">876</text>
</g>
<!-- 40°&#45;&gt;876 -->
<g id="edge13" class="edge">
<title>40°&#45;&gt;876</title>
<path fill="none" stroke="green" stroke-width="0.36" d="M361.28,-303C370.79,-292.34 387.84,-273.23 401.45,-257.96"/>
<polygon fill="green" stroke="green" stroke-width="0.36" points="404.16,-260.19 408.2,-250.39 398.93,-255.53 404.16,-260.19"/>
</g>
<!-- 90° -->
<g id="node8" class="node">
<title>90°</title>
<polygon fill="lightgray" stroke="black" points="233.5,-321.16 204.5,-321.16 204.5,-303.16 233.5,-303.16 233.5,-321.16"/>
<text text-anchor="middle" x="219" y="-309.96" font-family="Times New Roman,serif" font-size="9.00">90°</text>
</g>
<!-- 90°&#45;&gt;ANGLE -->
<g id="edge8" class="edge">
<title>90°&#45;&gt;ANGLE</title>
<path fill="none" stroke="green" stroke-width="0.17" d="M224.89,-303C230.7,-294.95 239.98,-282.08 248.92,-269.69"/>
<polygon fill="green" stroke="green" stroke-width="0.17" points="252,-271.41 255.01,-261.25 246.32,-267.31 252,-271.41"/>
</g>
<!-- 90°&#45;&gt;547 -->
<g id="edge6" class="edge">
<title>90°&#45;&gt;547</title>
<path fill="none" stroke="green" stroke-width="0.12" d="M218.71,-303.12C217.89,-280.31 215.51,-214.27 214.1,-174.96"/>
<polygon fill="green" stroke="green" stroke-width="0.12" points="217.59,-174.74 213.73,-164.87 210.6,-174.99 217.59,-174.74"/>
</g>
<!-- ANGLE&#45;&gt;547 -->
<g id="edge12" class="edge">
<title>ANGLE&#45;&gt;547</title>
<path fill="none" stroke="red" stroke-width="0.11" d="M255.37,-205.91C247.46,-194.45 238.29,-181.15 230.51,-169.87"/>
<polygon fill="red" stroke="red" stroke-width="0.11" points="233.18,-167.57 224.62,-161.33 227.42,-171.55 233.18,-167.57"/>
</g>
<!-- 784 -->
<g id="node14" class="node">
<title>784</title>
<ellipse fill="white" stroke="black" cx="274" cy="-143.48" rx="21.43" ry="21.43"/>
<text text-anchor="middle" x="274" y="-141.28" font-family="Times New Roman,serif" font-size="9.00">784</text>
</g>
<!-- ANGLE&#45;&gt;784 -->
<g id="edge17" class="edge">
<title>ANGLE&#45;&gt;784</title>
<path fill="none" stroke="green" stroke-width="0.33" d="M274,-200.5C274,-192.2 274,-183.31 274,-175.1"/>
<polygon fill="green" stroke="green" stroke-width="0.33" points="277.5,-174.83 274,-164.83 270.5,-174.83 277.5,-174.83"/>
</g>
<!-- 547&#45;&gt;VELOCITY -->
<g id="edge7" class="edge">
<title>547&#45;&gt;VELOCITY</title>
<path fill="none" stroke="red" stroke-width="0.15" d="M229.2,-129.42C245.6,-116.2 271.61,-95.23 293.74,-77.39"/>
<polygon fill="red" stroke="red" stroke-width="0.15" points="296.11,-79.98 301.7,-70.98 291.71,-74.53 296.11,-79.98"/>
</g>
<!-- 583&#45;&gt;VELOCITY -->
<g id="edge11" class="edge">
<title>583&#45;&gt;VELOCITY</title>
<path fill="none" stroke="green" stroke-width="0.25" d="M374.78,-123.98C370.15,-114.67 364.29,-102.92 358.51,-91.32"/>
<polygon fill="green" stroke="green" stroke-width="0.25" points="361.51,-89.49 353.92,-82.1 355.24,-92.61 361.51,-89.49"/>
</g>
<!-- 876&#45;&gt;583 -->
<g id="edge14" class="edge">
<title>876&#45;&gt;583</title>
<path fill="none" stroke="red" stroke-width="0.13" d="M413.94,-214.17C408.75,-202.09 401.91,-186.17 396.08,-172.59"/>
<polygon fill="red" stroke="red" stroke-width="0.13" points="399.21,-171.02 392.05,-163.21 392.78,-173.78 399.21,-171.02"/>
</g>
<!-- 889&#45;&gt;547 -->
<g id="edge16" class="edge">
<title>889&#45;&gt;547</title>
<path fill="none" stroke="green" stroke-width="0.13" d="M173.92,-215.03C180.89,-202.44 190.34,-185.38 198.2,-171.19"/>
<polygon fill="green" stroke="green" stroke-width="0.13" points="201.31,-172.8 203.1,-162.35 195.19,-169.4 201.31,-172.8"/>
</g>
</g>
</svg>
