<?xml version="1.0" encoding="UTF-8" standalone="no"?>
<!DOCTYPE svg PUBLIC "-//W3C//DTD SVG 1.1//EN"
 "http://www.w3.org/Graphics/SVG/1.1/DTD/svg11.dtd">
<!-- Generated by graphviz version 2.47.0 (20210316.0004)
 -->
<!-- Pages: 1 -->
<svg width="378pt" height="148pt"
 viewBox="0.00 0.00 377.50 148.27" xmlns="http://www.w3.org/2000/svg" xmlns:xlink="http://www.w3.org/1999/xlink">
<g id="graph0" class="graph" transform="scale(1 1) rotate(0) translate(4 144.27)">
<polygon fill="white" stroke="transparent" points="-4,4 -4,-144.27 373.5,-144.27 373.5,4 -4,4"/>
<!-- 180° -->
<g id="node1" class="node">
<title>180°</title>
<polygon fill="lightgray" stroke="black" points="34,-140.27 0,-140.27 0,-122.27 34,-122.27 34,-140.27"/>
<text text-anchor="middle" x="17" y="-129.07" font-family="Times New Roman,serif" font-size="9.00">180°</text>
</g>
<!-- VELOCITY -->
<g id="node9" class="node">
<title>VELOCITY</title>
<ellipse fill="lightblue" stroke="black" cx="110" cy="-43.13" rx="43.27" ry="43.27"/>
<text text-anchor="middle" x="110" y="-40.93" font-family="Times New Roman,serif" font-size="9.00">VELOCITY</text>
</g>
<!-- 180°&#45;&gt;VELOCITY -->
<g id="edge1" class="edge">
<title>180°&#45;&gt;VELOCITY</title>
<path fill="none" stroke="red" stroke-width="0.24" stroke-dasharray="1,5" d="M25.92,-122.01C36.4,-112.3 54.51,-95.53 71.24,-80.03"/>
<polygon fill="red" stroke="red" stroke-width="0.24" points="73.84,-82.4 78.8,-73.03 69.08,-77.26 73.84,-82.4"/>
</g>
<!-- &#45;90° -->
<g id="node2" class="node">
<title>&#45;90°</title>
<polygon fill="lightgray" stroke="black" points="322,-140.27 290,-140.27 290,-122.27 322,-122.27 322,-140.27"/>
<text text-anchor="middle" x="306" y="-129.07" font-family="Times New Roman,serif" font-size="9.00">&#45;90°</text>
</g>
<!-- ANGLE -->
<g id="node10" class="node">
<title>ANGLE</title>
<ellipse fill="lightblue" stroke="black" cx="231" cy="-43.13" rx="33.47" ry="33.47"/>
<text text-anchor="middle" x="231" y="-40.93" font-family="Times New Roman,serif" font-size="9.00">ANGLE</text>
</g>
<!-- &#45;90°&#45;&gt;ANGLE -->
<g id="edge2" class="edge">
<title>&#45;90°&#45;&gt;ANGLE</title>
<path fill="none" stroke="red" stroke-width="0.15" stroke-dasharray="1,5" d="M298.81,-122.01C289.73,-111.59 273.59,-93.04 259.33,-76.67"/>
<polygon fill="red" stroke="red" stroke-width="0.15" points="261.72,-74.09 252.52,-68.84 256.44,-78.68 261.72,-74.09"/>
</g>
<!-- &#45;40° -->
<g id="node3" class="node">
<title>&#45;40°</title>
<polygon fill="lightgray" stroke="black" points="272,-140.27 240,-140.27 240,-122.27 272,-122.27 272,-140.27"/>
<text text-anchor="middle" x="256" y="-129.07" font-family="Times New Roman,serif" font-size="9.00">&#45;40°</text>
</g>
<!-- &#45;40°&#45;&gt;ANGLE -->
<g id="edge3" class="edge">
<title>&#45;40°&#45;&gt;ANGLE</title>
<path fill="none" stroke="green" stroke-width="0.36" d="M253.6,-122.01C251.1,-113.4 247,-99.26 242.97,-85.37"/>
<polygon fill="green" stroke="green" stroke-width="0.36" points="246.22,-84.01 240.07,-75.38 239.5,-85.96 246.22,-84.01"/>
</g>
<!-- &#45;15° -->
<g id="node4" class="node">
<title>&#45;15°</title>
<polygon fill="lightgray" stroke="black" points="222,-140.27 190,-140.27 190,-122.27 222,-122.27 222,-140.27"/>
<text text-anchor="middle" x="206" y="-129.07" font-family="Times New Roman,serif" font-size="9.00">&#45;15°</text>
</g>
<!-- &#45;15°&#45;&gt;VELOCITY -->
<g id="edge4" class="edge">
<title>&#45;15°&#45;&gt;VELOCITY</title>
<path fill="none" stroke="green" stroke-width="0.11" stroke-dasharray="1,5" d="M196.8,-122.01C185.89,-112.22 167,-95.28 149.62,-79.68"/>
<polygon fill="green" stroke="green" stroke-width="0.11" points="151.56,-76.72 141.78,-72.65 146.88,-81.93 151.56,-76.72"/>
</g>
<!-- &#45;15°&#45;&gt;ANGLE -->
<g id="edge5" class="edge">
<title>&#45;15°&#45;&gt;ANGLE</title>
<path fill="none" stroke="red" stroke-width="0.26" d="M208.4,-122.01C210.9,-113.4 215,-99.26 219.03,-85.37"/>
<polygon fill="red" stroke="red" stroke-width="0.26" points="222.5,-85.96 221.93,-75.38 215.78,-84.01 222.5,-85.96"/>
</g>
<!-- 0° -->
<g id="node5" class="node">
<title>0°</title>
<polygon fill="lightgray" stroke="black" points="77.5,-140.27 52.5,-140.27 52.5,-122.27 77.5,-122.27 77.5,-140.27"/>
<text text-anchor="middle" x="65" y="-129.07" font-family="Times New Roman,serif" font-size="9.00">0°</text>
</g>
<!-- 0°&#45;&gt;VELOCITY -->
<g id="edge9" class="edge">
<title>0°&#45;&gt;VELOCITY</title>
<path fill="none" stroke="red" stroke-width="0.31" d="M69.31,-122.01C73.21,-114.56 79.27,-102.96 85.53,-90.97"/>
<polygon fill="red" stroke="red" stroke-width="0.31" points="88.8,-92.27 90.33,-81.79 82.6,-89.03 88.8,-92.27"/>
</g>
<!-- 15° -->
<g id="node6" class="node">
<title>15°</title>
<polygon fill="lightgray" stroke="black" points="369.5,-140.27 340.5,-140.27 340.5,-122.27 369.5,-122.27 369.5,-140.27"/>
<text text-anchor="middle" x="355" y="-129.07" font-family="Times New Roman,serif" font-size="9.00">15°</text>
</g>
<!-- 40° -->
<g id="node7" class="node">
<title>40°</title>
<polygon fill="lightgray" stroke="black" points="171.5,-140.27 142.5,-140.27 142.5,-122.27 171.5,-122.27 171.5,-140.27"/>
<text text-anchor="middle" x="157" y="-129.07" font-family="Times New Roman,serif" font-size="9.00">40°</text>
</g>
<!-- 40°&#45;&gt;VELOCITY -->
<g id="edge6" class="edge">
<title>40°&#45;&gt;VELOCITY</title>
<path fill="none" stroke="red" stroke-width="0.14" stroke-dasharray="1,5" d="M152.49,-122.01C148.35,-114.42 141.86,-102.52 135.19,-90.29"/>
<polygon fill="red" stroke="red" stroke-width="0.14" points="138.19,-88.48 130.32,-81.38 132.04,-91.84 138.19,-88.48"/>
</g>
<!-- 40°&#45;&gt;ANGLE -->
<g id="edge7" class="edge">
<title>40°&#45;&gt;ANGLE</title>
<path fill="none" stroke="red" stroke-width="0.31" d="M164.1,-122.01C173.05,-111.59 188.98,-93.04 203.05,-76.67"/>
<polygon fill="red" stroke="red" stroke-width="0.31" points="205.91,-78.71 209.77,-68.84 200.6,-74.15 205.91,-78.71"/>
</g>
<!-- 90° -->
<g id="node8" class="node">
<title>90°</title>
<polygon fill="lightgray" stroke="black" points="124.5,-140.27 95.5,-140.27 95.5,-122.27 124.5,-122.27 124.5,-140.27"/>
<text text-anchor="middle" x="110" y="-129.07" font-family="Times New Roman,serif" font-size="9.00">90°</text>
</g>
<!-- 90°&#45;&gt;VELOCITY -->
<g id="edge8" class="edge">
<title>90°&#45;&gt;VELOCITY</title>
<path fill="none" stroke="green" stroke-width="0.2" stroke-dasharray="1,5" d="M110,-122.01C110,-115.76 110,-106.58 110,-96.7"/>
<polygon fill="green" stroke="green" stroke-width="0.2" points="113.5,-96.67 110,-86.67 106.5,-96.67 113.5,-96.67"/>
</g>
</g>
</svg>
